%TF.GenerationSoftware,KiCad,Pcbnew,(6.0.0-rc1-dev-1614-ge850a482d)*%
%TF.CreationDate,2019-03-08T08:34:46-08:00*%
%TF.ProjectId,SAM32,53414d33-322e-46b6-9963-61645f706362,rev?*%
%TF.SameCoordinates,Original*%
%TF.FileFunction,Soldermask,Bot*%
%TF.FilePolarity,Negative*%
%FSLAX46Y46*%
G04 Gerber Fmt 4.6, Leading zero omitted, Abs format (unit mm)*
G04 Created by KiCad (PCBNEW (6.0.0-rc1-dev-1614-ge850a482d)) date 2019-03-08 08:34:46*
%MOMM*%
%LPD*%
G04 APERTURE LIST*
%ADD10C,0.158750*%
%ADD11C,0.508000*%
%ADD12C,0.150000*%
G04 APERTURE END LIST*
D10*
X56798738Y-101488622D02*
X57433738Y-101488622D01*
X57131357Y-101488622D02*
X57131357Y-101125764D01*
X56798738Y-101125764D02*
X57433738Y-101125764D01*
X57433738Y-100702431D02*
X57433738Y-100581479D01*
X57403500Y-100521002D01*
X57343023Y-100460526D01*
X57222071Y-100430288D01*
X57010404Y-100430288D01*
X56889452Y-100460526D01*
X56828976Y-100521002D01*
X56798738Y-100581479D01*
X56798738Y-100702431D01*
X56828976Y-100762907D01*
X56889452Y-100823383D01*
X57010404Y-100853622D01*
X57222071Y-100853622D01*
X57343023Y-100823383D01*
X57403500Y-100762907D01*
X57433738Y-100702431D01*
X56798738Y-99855764D02*
X56798738Y-100158145D01*
X57433738Y-100158145D01*
X56798738Y-99341717D02*
X56798738Y-99644098D01*
X57433738Y-99644098D01*
X56798738Y-99130050D02*
X57433738Y-99130050D01*
X56798738Y-98827669D02*
X57433738Y-98827669D01*
X57433738Y-98676479D01*
X57403500Y-98585764D01*
X57343023Y-98525288D01*
X57282547Y-98495050D01*
X57161595Y-98464812D01*
X57070880Y-98464812D01*
X56949928Y-98495050D01*
X56889452Y-98525288D01*
X56828976Y-98585764D01*
X56798738Y-98676479D01*
X56798738Y-98827669D01*
X56980166Y-98222907D02*
X56980166Y-97920526D01*
X56798738Y-98283383D02*
X57433738Y-98071717D01*
X56798738Y-97860050D01*
X57101119Y-97527431D02*
X56798738Y-97527431D01*
X57433738Y-97739098D02*
X57101119Y-97527431D01*
X57433738Y-97315764D01*
D11*
X109192060Y-106945080D02*
X109192060Y-108498640D01*
X106652060Y-111038640D02*
G75*
G03X109192060Y-108498640I0J2540000D01*
G01*
X103755076Y-102181768D02*
X109192060Y-106945080D01*
X55852060Y-96296067D02*
X56300000Y-96740000D01*
X103758052Y-96469398D02*
X109220013Y-91690000D01*
X103758039Y-96469407D02*
G75*
G03X103628512Y-96721166I160472J-241760D01*
G01*
X103755063Y-102181759D02*
G75*
G02X103625536Y-101930000I160472J241760D01*
G01*
X103625536Y-101930000D02*
X103628512Y-96721166D01*
X55852060Y-102438136D02*
X56300000Y-101994203D01*
X56300000Y-101994203D02*
G75*
G03X56361488Y-101805369I-228511J178835D01*
G01*
X56300000Y-96740000D02*
G75*
G02X56361488Y-96928834I-228511J-178835D01*
G01*
X108205221Y-90615720D02*
G75*
G03X108205221Y-90615720I-1652221J0D01*
G01*
X108205221Y-108205220D02*
G75*
G03X108205221Y-108205220I-1652221J0D01*
G01*
X109220013Y-90136440D02*
X109220013Y-91690000D01*
X55852060Y-90136440D02*
X55852060Y-96296067D01*
X106680013Y-87596440D02*
G75*
G02X109220013Y-90136440I0J-2540000D01*
G01*
X55852060Y-102438136D02*
X55852060Y-108498640D01*
X106680013Y-87596440D02*
X58392060Y-87596440D01*
X58392060Y-111038640D02*
X106652060Y-111038640D01*
X55852060Y-90136440D02*
G75*
G02X58392060Y-87596440I2540000J0D01*
G01*
X56361488Y-96928834D02*
X56361488Y-101805369D01*
X58392060Y-111038640D02*
G75*
G02X55852060Y-108498640I0J2540000D01*
G01*
D12*
G36*
X60801043Y-109501214D02*
G01*
X60801046Y-109501215D01*
X60801045Y-109501215D01*
X60892039Y-109538906D01*
X60933263Y-109566451D01*
X60973930Y-109593624D01*
X61043576Y-109663270D01*
X61098295Y-109745163D01*
X61135986Y-109836157D01*
X61155200Y-109932753D01*
X61155200Y-110031247D01*
X61135986Y-110127843D01*
X61099257Y-110216515D01*
X61098294Y-110218839D01*
X61043575Y-110300731D01*
X60973931Y-110370375D01*
X60892039Y-110425094D01*
X60892038Y-110425095D01*
X60892037Y-110425095D01*
X60801043Y-110462786D01*
X60704447Y-110482000D01*
X60605953Y-110482000D01*
X60509357Y-110462786D01*
X60418363Y-110425095D01*
X60418362Y-110425095D01*
X60418361Y-110425094D01*
X60336469Y-110370375D01*
X60266825Y-110300731D01*
X60212106Y-110218839D01*
X60211143Y-110216515D01*
X60174414Y-110127843D01*
X60155200Y-110031247D01*
X60155200Y-109932753D01*
X60174414Y-109836157D01*
X60212105Y-109745163D01*
X60266824Y-109663270D01*
X60336470Y-109593624D01*
X60377137Y-109566451D01*
X60418361Y-109538906D01*
X60509355Y-109501215D01*
X60509354Y-109501215D01*
X60509357Y-109501214D01*
X60605953Y-109482000D01*
X60704447Y-109482000D01*
X60801043Y-109501214D01*
X60801043Y-109501214D01*
G37*
G36*
X80300525Y-108743346D02*
G01*
X80381494Y-108759451D01*
X80457765Y-108791044D01*
X80534038Y-108822637D01*
X80670397Y-108913749D01*
X80671322Y-108914367D01*
X80788073Y-109031118D01*
X80788075Y-109031121D01*
X80879803Y-109168402D01*
X80942989Y-109320947D01*
X80975200Y-109482883D01*
X80975200Y-109647997D01*
X80942989Y-109809933D01*
X80879803Y-109962478D01*
X80833853Y-110031247D01*
X80788073Y-110099762D01*
X80671322Y-110216513D01*
X80671319Y-110216515D01*
X80534038Y-110308243D01*
X80381494Y-110371429D01*
X80300525Y-110387535D01*
X80219557Y-110403640D01*
X80054443Y-110403640D01*
X79973475Y-110387535D01*
X79892506Y-110371429D01*
X79739962Y-110308243D01*
X79602681Y-110216515D01*
X79602678Y-110216513D01*
X79485927Y-110099762D01*
X79440147Y-110031247D01*
X79394197Y-109962478D01*
X79331011Y-109809933D01*
X79298800Y-109647997D01*
X79298800Y-109482883D01*
X79331011Y-109320947D01*
X79394197Y-109168402D01*
X79485925Y-109031121D01*
X79485927Y-109031118D01*
X79602678Y-108914367D01*
X79603603Y-108913749D01*
X79739962Y-108822637D01*
X79816235Y-108791044D01*
X79892506Y-108759451D01*
X79973475Y-108743346D01*
X80054443Y-108727240D01*
X80219557Y-108727240D01*
X80300525Y-108743346D01*
X80300525Y-108743346D01*
G37*
G36*
X100620525Y-108743346D02*
G01*
X100701494Y-108759451D01*
X100777765Y-108791044D01*
X100854038Y-108822637D01*
X100990397Y-108913749D01*
X100991322Y-108914367D01*
X101108073Y-109031118D01*
X101108075Y-109031121D01*
X101199803Y-109168402D01*
X101262989Y-109320947D01*
X101295200Y-109482883D01*
X101295200Y-109647997D01*
X101262989Y-109809933D01*
X101199803Y-109962478D01*
X101153853Y-110031247D01*
X101108073Y-110099762D01*
X100991322Y-110216513D01*
X100991319Y-110216515D01*
X100854038Y-110308243D01*
X100701494Y-110371429D01*
X100620525Y-110387535D01*
X100539557Y-110403640D01*
X100374443Y-110403640D01*
X100293475Y-110387535D01*
X100212506Y-110371429D01*
X100059962Y-110308243D01*
X99922681Y-110216515D01*
X99922678Y-110216513D01*
X99805927Y-110099762D01*
X99760147Y-110031247D01*
X99714197Y-109962478D01*
X99651011Y-109809933D01*
X99618800Y-109647997D01*
X99618800Y-109482883D01*
X99651011Y-109320947D01*
X99714197Y-109168402D01*
X99805925Y-109031121D01*
X99805927Y-109031118D01*
X99922678Y-108914367D01*
X99923603Y-108913749D01*
X100059962Y-108822637D01*
X100136235Y-108791044D01*
X100212506Y-108759451D01*
X100293475Y-108743346D01*
X100374443Y-108727240D01*
X100539557Y-108727240D01*
X100620525Y-108743346D01*
X100620525Y-108743346D01*
G37*
G36*
X98080525Y-108743346D02*
G01*
X98161494Y-108759451D01*
X98237765Y-108791044D01*
X98314038Y-108822637D01*
X98450397Y-108913749D01*
X98451322Y-108914367D01*
X98568073Y-109031118D01*
X98568075Y-109031121D01*
X98659803Y-109168402D01*
X98722989Y-109320947D01*
X98755200Y-109482883D01*
X98755200Y-109647997D01*
X98722989Y-109809933D01*
X98659803Y-109962478D01*
X98613853Y-110031247D01*
X98568073Y-110099762D01*
X98451322Y-110216513D01*
X98451319Y-110216515D01*
X98314038Y-110308243D01*
X98161494Y-110371429D01*
X98080525Y-110387535D01*
X97999557Y-110403640D01*
X97834443Y-110403640D01*
X97753475Y-110387535D01*
X97672506Y-110371429D01*
X97519962Y-110308243D01*
X97382681Y-110216515D01*
X97382678Y-110216513D01*
X97265927Y-110099762D01*
X97220147Y-110031247D01*
X97174197Y-109962478D01*
X97111011Y-109809933D01*
X97078800Y-109647997D01*
X97078800Y-109482883D01*
X97111011Y-109320947D01*
X97174197Y-109168402D01*
X97265925Y-109031121D01*
X97265927Y-109031118D01*
X97382678Y-108914367D01*
X97383603Y-108913749D01*
X97519962Y-108822637D01*
X97596235Y-108791044D01*
X97672506Y-108759451D01*
X97753475Y-108743346D01*
X97834443Y-108727240D01*
X97999557Y-108727240D01*
X98080525Y-108743346D01*
X98080525Y-108743346D01*
G37*
G36*
X95540525Y-108743346D02*
G01*
X95621494Y-108759451D01*
X95697765Y-108791044D01*
X95774038Y-108822637D01*
X95910397Y-108913749D01*
X95911322Y-108914367D01*
X96028073Y-109031118D01*
X96028075Y-109031121D01*
X96119803Y-109168402D01*
X96182989Y-109320947D01*
X96215200Y-109482883D01*
X96215200Y-109647997D01*
X96182989Y-109809933D01*
X96119803Y-109962478D01*
X96073853Y-110031247D01*
X96028073Y-110099762D01*
X95911322Y-110216513D01*
X95911319Y-110216515D01*
X95774038Y-110308243D01*
X95621494Y-110371429D01*
X95540525Y-110387535D01*
X95459557Y-110403640D01*
X95294443Y-110403640D01*
X95213475Y-110387535D01*
X95132506Y-110371429D01*
X94979962Y-110308243D01*
X94842681Y-110216515D01*
X94842678Y-110216513D01*
X94725927Y-110099762D01*
X94680147Y-110031247D01*
X94634197Y-109962478D01*
X94571011Y-109809933D01*
X94538800Y-109647997D01*
X94538800Y-109482883D01*
X94571011Y-109320947D01*
X94634197Y-109168402D01*
X94725925Y-109031121D01*
X94725927Y-109031118D01*
X94842678Y-108914367D01*
X94843603Y-108913749D01*
X94979962Y-108822637D01*
X95056235Y-108791044D01*
X95132506Y-108759451D01*
X95213475Y-108743346D01*
X95294443Y-108727240D01*
X95459557Y-108727240D01*
X95540525Y-108743346D01*
X95540525Y-108743346D01*
G37*
G36*
X93000525Y-108743346D02*
G01*
X93081494Y-108759451D01*
X93157765Y-108791044D01*
X93234038Y-108822637D01*
X93370397Y-108913749D01*
X93371322Y-108914367D01*
X93488073Y-109031118D01*
X93488075Y-109031121D01*
X93579803Y-109168402D01*
X93642989Y-109320947D01*
X93675200Y-109482883D01*
X93675200Y-109647997D01*
X93642989Y-109809933D01*
X93579803Y-109962478D01*
X93533853Y-110031247D01*
X93488073Y-110099762D01*
X93371322Y-110216513D01*
X93371319Y-110216515D01*
X93234038Y-110308243D01*
X93081494Y-110371429D01*
X93000525Y-110387535D01*
X92919557Y-110403640D01*
X92754443Y-110403640D01*
X92673475Y-110387535D01*
X92592506Y-110371429D01*
X92439962Y-110308243D01*
X92302681Y-110216515D01*
X92302678Y-110216513D01*
X92185927Y-110099762D01*
X92140147Y-110031247D01*
X92094197Y-109962478D01*
X92031011Y-109809933D01*
X91998800Y-109647997D01*
X91998800Y-109482883D01*
X92031011Y-109320947D01*
X92094197Y-109168402D01*
X92185925Y-109031121D01*
X92185927Y-109031118D01*
X92302678Y-108914367D01*
X92303603Y-108913749D01*
X92439962Y-108822637D01*
X92516235Y-108791044D01*
X92592506Y-108759451D01*
X92673475Y-108743346D01*
X92754443Y-108727240D01*
X92919557Y-108727240D01*
X93000525Y-108743346D01*
X93000525Y-108743346D01*
G37*
G36*
X90460525Y-108743346D02*
G01*
X90541494Y-108759451D01*
X90617765Y-108791044D01*
X90694038Y-108822637D01*
X90830397Y-108913749D01*
X90831322Y-108914367D01*
X90948073Y-109031118D01*
X90948075Y-109031121D01*
X91039803Y-109168402D01*
X91102989Y-109320947D01*
X91135200Y-109482883D01*
X91135200Y-109647997D01*
X91102989Y-109809933D01*
X91039803Y-109962478D01*
X90993853Y-110031247D01*
X90948073Y-110099762D01*
X90831322Y-110216513D01*
X90831319Y-110216515D01*
X90694038Y-110308243D01*
X90541494Y-110371429D01*
X90460525Y-110387535D01*
X90379557Y-110403640D01*
X90214443Y-110403640D01*
X90133475Y-110387535D01*
X90052506Y-110371429D01*
X89899962Y-110308243D01*
X89762681Y-110216515D01*
X89762678Y-110216513D01*
X89645927Y-110099762D01*
X89600147Y-110031247D01*
X89554197Y-109962478D01*
X89491011Y-109809933D01*
X89458800Y-109647997D01*
X89458800Y-109482883D01*
X89491011Y-109320947D01*
X89554197Y-109168402D01*
X89645925Y-109031121D01*
X89645927Y-109031118D01*
X89762678Y-108914367D01*
X89763603Y-108913749D01*
X89899962Y-108822637D01*
X89976235Y-108791044D01*
X90052506Y-108759451D01*
X90133475Y-108743346D01*
X90214443Y-108727240D01*
X90379557Y-108727240D01*
X90460525Y-108743346D01*
X90460525Y-108743346D01*
G37*
G36*
X87920525Y-108743346D02*
G01*
X88001494Y-108759451D01*
X88077765Y-108791044D01*
X88154038Y-108822637D01*
X88290397Y-108913749D01*
X88291322Y-108914367D01*
X88408073Y-109031118D01*
X88408075Y-109031121D01*
X88499803Y-109168402D01*
X88562989Y-109320947D01*
X88595200Y-109482883D01*
X88595200Y-109647997D01*
X88562989Y-109809933D01*
X88499803Y-109962478D01*
X88453853Y-110031247D01*
X88408073Y-110099762D01*
X88291322Y-110216513D01*
X88291319Y-110216515D01*
X88154038Y-110308243D01*
X88001494Y-110371429D01*
X87920525Y-110387535D01*
X87839557Y-110403640D01*
X87674443Y-110403640D01*
X87593475Y-110387535D01*
X87512506Y-110371429D01*
X87359962Y-110308243D01*
X87222681Y-110216515D01*
X87222678Y-110216513D01*
X87105927Y-110099762D01*
X87060147Y-110031247D01*
X87014197Y-109962478D01*
X86951011Y-109809933D01*
X86918800Y-109647997D01*
X86918800Y-109482883D01*
X86951011Y-109320947D01*
X87014197Y-109168402D01*
X87105925Y-109031121D01*
X87105927Y-109031118D01*
X87222678Y-108914367D01*
X87223603Y-108913749D01*
X87359962Y-108822637D01*
X87436235Y-108791044D01*
X87512506Y-108759451D01*
X87593475Y-108743346D01*
X87674443Y-108727240D01*
X87839557Y-108727240D01*
X87920525Y-108743346D01*
X87920525Y-108743346D01*
G37*
G36*
X85380525Y-108743346D02*
G01*
X85461494Y-108759451D01*
X85537765Y-108791044D01*
X85614038Y-108822637D01*
X85750397Y-108913749D01*
X85751322Y-108914367D01*
X85868073Y-109031118D01*
X85868075Y-109031121D01*
X85959803Y-109168402D01*
X86022989Y-109320947D01*
X86055200Y-109482883D01*
X86055200Y-109647997D01*
X86022989Y-109809933D01*
X85959803Y-109962478D01*
X85913853Y-110031247D01*
X85868073Y-110099762D01*
X85751322Y-110216513D01*
X85751319Y-110216515D01*
X85614038Y-110308243D01*
X85461494Y-110371429D01*
X85380525Y-110387535D01*
X85299557Y-110403640D01*
X85134443Y-110403640D01*
X85053475Y-110387535D01*
X84972506Y-110371429D01*
X84819962Y-110308243D01*
X84682681Y-110216515D01*
X84682678Y-110216513D01*
X84565927Y-110099762D01*
X84520147Y-110031247D01*
X84474197Y-109962478D01*
X84411011Y-109809933D01*
X84378800Y-109647997D01*
X84378800Y-109482883D01*
X84411011Y-109320947D01*
X84474197Y-109168402D01*
X84565925Y-109031121D01*
X84565927Y-109031118D01*
X84682678Y-108914367D01*
X84683603Y-108913749D01*
X84819962Y-108822637D01*
X84896235Y-108791044D01*
X84972506Y-108759451D01*
X85053475Y-108743346D01*
X85134443Y-108727240D01*
X85299557Y-108727240D01*
X85380525Y-108743346D01*
X85380525Y-108743346D01*
G37*
G36*
X82840525Y-108743346D02*
G01*
X82921494Y-108759451D01*
X82997765Y-108791044D01*
X83074038Y-108822637D01*
X83210397Y-108913749D01*
X83211322Y-108914367D01*
X83328073Y-109031118D01*
X83328075Y-109031121D01*
X83419803Y-109168402D01*
X83482989Y-109320947D01*
X83515200Y-109482883D01*
X83515200Y-109647997D01*
X83482989Y-109809933D01*
X83419803Y-109962478D01*
X83373853Y-110031247D01*
X83328073Y-110099762D01*
X83211322Y-110216513D01*
X83211319Y-110216515D01*
X83074038Y-110308243D01*
X82921494Y-110371429D01*
X82840525Y-110387535D01*
X82759557Y-110403640D01*
X82594443Y-110403640D01*
X82513475Y-110387535D01*
X82432506Y-110371429D01*
X82279962Y-110308243D01*
X82142681Y-110216515D01*
X82142678Y-110216513D01*
X82025927Y-110099762D01*
X81980147Y-110031247D01*
X81934197Y-109962478D01*
X81871011Y-109809933D01*
X81838800Y-109647997D01*
X81838800Y-109482883D01*
X81871011Y-109320947D01*
X81934197Y-109168402D01*
X82025925Y-109031121D01*
X82025927Y-109031118D01*
X82142678Y-108914367D01*
X82143603Y-108913749D01*
X82279962Y-108822637D01*
X82356235Y-108791044D01*
X82432506Y-108759451D01*
X82513475Y-108743346D01*
X82594443Y-108727240D01*
X82759557Y-108727240D01*
X82840525Y-108743346D01*
X82840525Y-108743346D01*
G37*
G36*
X77760525Y-108743346D02*
G01*
X77841494Y-108759451D01*
X77917765Y-108791044D01*
X77994038Y-108822637D01*
X78130397Y-108913749D01*
X78131322Y-108914367D01*
X78248073Y-109031118D01*
X78248075Y-109031121D01*
X78339803Y-109168402D01*
X78402989Y-109320947D01*
X78435200Y-109482883D01*
X78435200Y-109647997D01*
X78402989Y-109809933D01*
X78339803Y-109962478D01*
X78293853Y-110031247D01*
X78248073Y-110099762D01*
X78131322Y-110216513D01*
X78131319Y-110216515D01*
X77994038Y-110308243D01*
X77841494Y-110371429D01*
X77760525Y-110387535D01*
X77679557Y-110403640D01*
X77514443Y-110403640D01*
X77433475Y-110387535D01*
X77352506Y-110371429D01*
X77199962Y-110308243D01*
X77062681Y-110216515D01*
X77062678Y-110216513D01*
X76945927Y-110099762D01*
X76900147Y-110031247D01*
X76854197Y-109962478D01*
X76791011Y-109809933D01*
X76758800Y-109647997D01*
X76758800Y-109482883D01*
X76791011Y-109320947D01*
X76854197Y-109168402D01*
X76945925Y-109031121D01*
X76945927Y-109031118D01*
X77062678Y-108914367D01*
X77063603Y-108913749D01*
X77199962Y-108822637D01*
X77276235Y-108791044D01*
X77352506Y-108759451D01*
X77433475Y-108743346D01*
X77514443Y-108727240D01*
X77679557Y-108727240D01*
X77760525Y-108743346D01*
X77760525Y-108743346D01*
G37*
G36*
X103160525Y-108743346D02*
G01*
X103241494Y-108759451D01*
X103317765Y-108791044D01*
X103394038Y-108822637D01*
X103530397Y-108913749D01*
X103531322Y-108914367D01*
X103648073Y-109031118D01*
X103648075Y-109031121D01*
X103739803Y-109168402D01*
X103802989Y-109320947D01*
X103835200Y-109482883D01*
X103835200Y-109647997D01*
X103802989Y-109809933D01*
X103739803Y-109962478D01*
X103693853Y-110031247D01*
X103648073Y-110099762D01*
X103531322Y-110216513D01*
X103531319Y-110216515D01*
X103394038Y-110308243D01*
X103241494Y-110371429D01*
X103160525Y-110387535D01*
X103079557Y-110403640D01*
X102914443Y-110403640D01*
X102833475Y-110387535D01*
X102752506Y-110371429D01*
X102599962Y-110308243D01*
X102462681Y-110216515D01*
X102462678Y-110216513D01*
X102345927Y-110099762D01*
X102300147Y-110031247D01*
X102254197Y-109962478D01*
X102191011Y-109809933D01*
X102158800Y-109647997D01*
X102158800Y-109482883D01*
X102191011Y-109320947D01*
X102254197Y-109168402D01*
X102345925Y-109031121D01*
X102345927Y-109031118D01*
X102462678Y-108914367D01*
X102463603Y-108913749D01*
X102599962Y-108822637D01*
X102676235Y-108791044D01*
X102752506Y-108759451D01*
X102833475Y-108743346D01*
X102914443Y-108727240D01*
X103079557Y-108727240D01*
X103160525Y-108743346D01*
X103160525Y-108743346D01*
G37*
G36*
X62520525Y-108743346D02*
G01*
X62601494Y-108759451D01*
X62677765Y-108791044D01*
X62754038Y-108822637D01*
X62890397Y-108913749D01*
X62891322Y-108914367D01*
X63008073Y-109031118D01*
X63008075Y-109031121D01*
X63099803Y-109168402D01*
X63162989Y-109320947D01*
X63195200Y-109482883D01*
X63195200Y-109647997D01*
X63162989Y-109809933D01*
X63099803Y-109962478D01*
X63053853Y-110031247D01*
X63008073Y-110099762D01*
X62891322Y-110216513D01*
X62891319Y-110216515D01*
X62754038Y-110308243D01*
X62601494Y-110371429D01*
X62520525Y-110387535D01*
X62439557Y-110403640D01*
X62274443Y-110403640D01*
X62193475Y-110387535D01*
X62112506Y-110371429D01*
X61959962Y-110308243D01*
X61822681Y-110216515D01*
X61822678Y-110216513D01*
X61705927Y-110099762D01*
X61660147Y-110031247D01*
X61614197Y-109962478D01*
X61551011Y-109809933D01*
X61518800Y-109647997D01*
X61518800Y-109482883D01*
X61551011Y-109320947D01*
X61614197Y-109168402D01*
X61705925Y-109031121D01*
X61705927Y-109031118D01*
X61822678Y-108914367D01*
X61823603Y-108913749D01*
X61959962Y-108822637D01*
X62036235Y-108791044D01*
X62112506Y-108759451D01*
X62193475Y-108743346D01*
X62274443Y-108727240D01*
X62439557Y-108727240D01*
X62520525Y-108743346D01*
X62520525Y-108743346D01*
G37*
G36*
X65060525Y-108743346D02*
G01*
X65141494Y-108759451D01*
X65217765Y-108791044D01*
X65294038Y-108822637D01*
X65430397Y-108913749D01*
X65431322Y-108914367D01*
X65548073Y-109031118D01*
X65548075Y-109031121D01*
X65639803Y-109168402D01*
X65702989Y-109320947D01*
X65735200Y-109482883D01*
X65735200Y-109647997D01*
X65702989Y-109809933D01*
X65639803Y-109962478D01*
X65593853Y-110031247D01*
X65548073Y-110099762D01*
X65431322Y-110216513D01*
X65431319Y-110216515D01*
X65294038Y-110308243D01*
X65141494Y-110371429D01*
X65060525Y-110387535D01*
X64979557Y-110403640D01*
X64814443Y-110403640D01*
X64733475Y-110387535D01*
X64652506Y-110371429D01*
X64499962Y-110308243D01*
X64362681Y-110216515D01*
X64362678Y-110216513D01*
X64245927Y-110099762D01*
X64200147Y-110031247D01*
X64154197Y-109962478D01*
X64091011Y-109809933D01*
X64058800Y-109647997D01*
X64058800Y-109482883D01*
X64091011Y-109320947D01*
X64154197Y-109168402D01*
X64245925Y-109031121D01*
X64245927Y-109031118D01*
X64362678Y-108914367D01*
X64363603Y-108913749D01*
X64499962Y-108822637D01*
X64576235Y-108791044D01*
X64652506Y-108759451D01*
X64733475Y-108743346D01*
X64814443Y-108727240D01*
X64979557Y-108727240D01*
X65060525Y-108743346D01*
X65060525Y-108743346D01*
G37*
G36*
X67600525Y-108743346D02*
G01*
X67681494Y-108759451D01*
X67757765Y-108791044D01*
X67834038Y-108822637D01*
X67970397Y-108913749D01*
X67971322Y-108914367D01*
X68088073Y-109031118D01*
X68088075Y-109031121D01*
X68179803Y-109168402D01*
X68242989Y-109320947D01*
X68275200Y-109482883D01*
X68275200Y-109647997D01*
X68242989Y-109809933D01*
X68179803Y-109962478D01*
X68133853Y-110031247D01*
X68088073Y-110099762D01*
X67971322Y-110216513D01*
X67971319Y-110216515D01*
X67834038Y-110308243D01*
X67681494Y-110371429D01*
X67600525Y-110387535D01*
X67519557Y-110403640D01*
X67354443Y-110403640D01*
X67273475Y-110387535D01*
X67192506Y-110371429D01*
X67039962Y-110308243D01*
X66902681Y-110216515D01*
X66902678Y-110216513D01*
X66785927Y-110099762D01*
X66740147Y-110031247D01*
X66694197Y-109962478D01*
X66631011Y-109809933D01*
X66598800Y-109647997D01*
X66598800Y-109482883D01*
X66631011Y-109320947D01*
X66694197Y-109168402D01*
X66785925Y-109031121D01*
X66785927Y-109031118D01*
X66902678Y-108914367D01*
X66903603Y-108913749D01*
X67039962Y-108822637D01*
X67116235Y-108791044D01*
X67192506Y-108759451D01*
X67273475Y-108743346D01*
X67354443Y-108727240D01*
X67519557Y-108727240D01*
X67600525Y-108743346D01*
X67600525Y-108743346D01*
G37*
G36*
X70140525Y-108743346D02*
G01*
X70221494Y-108759451D01*
X70297765Y-108791044D01*
X70374038Y-108822637D01*
X70510397Y-108913749D01*
X70511322Y-108914367D01*
X70628073Y-109031118D01*
X70628075Y-109031121D01*
X70719803Y-109168402D01*
X70782989Y-109320947D01*
X70815200Y-109482883D01*
X70815200Y-109647997D01*
X70782989Y-109809933D01*
X70719803Y-109962478D01*
X70673853Y-110031247D01*
X70628073Y-110099762D01*
X70511322Y-110216513D01*
X70511319Y-110216515D01*
X70374038Y-110308243D01*
X70221494Y-110371429D01*
X70140525Y-110387535D01*
X70059557Y-110403640D01*
X69894443Y-110403640D01*
X69813475Y-110387535D01*
X69732506Y-110371429D01*
X69579962Y-110308243D01*
X69442681Y-110216515D01*
X69442678Y-110216513D01*
X69325927Y-110099762D01*
X69280147Y-110031247D01*
X69234197Y-109962478D01*
X69171011Y-109809933D01*
X69138800Y-109647997D01*
X69138800Y-109482883D01*
X69171011Y-109320947D01*
X69234197Y-109168402D01*
X69325925Y-109031121D01*
X69325927Y-109031118D01*
X69442678Y-108914367D01*
X69443603Y-108913749D01*
X69579962Y-108822637D01*
X69656235Y-108791044D01*
X69732506Y-108759451D01*
X69813475Y-108743346D01*
X69894443Y-108727240D01*
X70059557Y-108727240D01*
X70140525Y-108743346D01*
X70140525Y-108743346D01*
G37*
G36*
X72680525Y-108743346D02*
G01*
X72761494Y-108759451D01*
X72837765Y-108791044D01*
X72914038Y-108822637D01*
X73050397Y-108913749D01*
X73051322Y-108914367D01*
X73168073Y-109031118D01*
X73168075Y-109031121D01*
X73259803Y-109168402D01*
X73322989Y-109320947D01*
X73355200Y-109482883D01*
X73355200Y-109647997D01*
X73322989Y-109809933D01*
X73259803Y-109962478D01*
X73213853Y-110031247D01*
X73168073Y-110099762D01*
X73051322Y-110216513D01*
X73051319Y-110216515D01*
X72914038Y-110308243D01*
X72761494Y-110371429D01*
X72680525Y-110387535D01*
X72599557Y-110403640D01*
X72434443Y-110403640D01*
X72353475Y-110387535D01*
X72272506Y-110371429D01*
X72119962Y-110308243D01*
X71982681Y-110216515D01*
X71982678Y-110216513D01*
X71865927Y-110099762D01*
X71820147Y-110031247D01*
X71774197Y-109962478D01*
X71711011Y-109809933D01*
X71678800Y-109647997D01*
X71678800Y-109482883D01*
X71711011Y-109320947D01*
X71774197Y-109168402D01*
X71865925Y-109031121D01*
X71865927Y-109031118D01*
X71982678Y-108914367D01*
X71983603Y-108913749D01*
X72119962Y-108822637D01*
X72196235Y-108791044D01*
X72272506Y-108759451D01*
X72353475Y-108743346D01*
X72434443Y-108727240D01*
X72599557Y-108727240D01*
X72680525Y-108743346D01*
X72680525Y-108743346D01*
G37*
G36*
X75220525Y-108743346D02*
G01*
X75301494Y-108759451D01*
X75377765Y-108791044D01*
X75454038Y-108822637D01*
X75590397Y-108913749D01*
X75591322Y-108914367D01*
X75708073Y-109031118D01*
X75708075Y-109031121D01*
X75799803Y-109168402D01*
X75862989Y-109320947D01*
X75895200Y-109482883D01*
X75895200Y-109647997D01*
X75862989Y-109809933D01*
X75799803Y-109962478D01*
X75753853Y-110031247D01*
X75708073Y-110099762D01*
X75591322Y-110216513D01*
X75591319Y-110216515D01*
X75454038Y-110308243D01*
X75301494Y-110371429D01*
X75220525Y-110387535D01*
X75139557Y-110403640D01*
X74974443Y-110403640D01*
X74893475Y-110387535D01*
X74812506Y-110371429D01*
X74659962Y-110308243D01*
X74522681Y-110216515D01*
X74522678Y-110216513D01*
X74405927Y-110099762D01*
X74360147Y-110031247D01*
X74314197Y-109962478D01*
X74251011Y-109809933D01*
X74218800Y-109647997D01*
X74218800Y-109482883D01*
X74251011Y-109320947D01*
X74314197Y-109168402D01*
X74405925Y-109031121D01*
X74405927Y-109031118D01*
X74522678Y-108914367D01*
X74523603Y-108913749D01*
X74659962Y-108822637D01*
X74736235Y-108791044D01*
X74812506Y-108759451D01*
X74893475Y-108743346D01*
X74974443Y-108727240D01*
X75139557Y-108727240D01*
X75220525Y-108743346D01*
X75220525Y-108743346D01*
G37*
G36*
X58688900Y-106574346D02*
G01*
X58901521Y-106616639D01*
X59201947Y-106741080D01*
X59472324Y-106921740D01*
X59702260Y-107151676D01*
X59882920Y-107422053D01*
X60007361Y-107722479D01*
X60070800Y-108041410D01*
X60070800Y-108366590D01*
X60007361Y-108685521D01*
X59882920Y-108985947D01*
X59702260Y-109256324D01*
X59472324Y-109486260D01*
X59201947Y-109666920D01*
X58901521Y-109791361D01*
X58688900Y-109833654D01*
X58582591Y-109854800D01*
X58257409Y-109854800D01*
X58151100Y-109833654D01*
X57938479Y-109791361D01*
X57638053Y-109666920D01*
X57367676Y-109486260D01*
X57137740Y-109256324D01*
X56957080Y-108985947D01*
X56832639Y-108685521D01*
X56769200Y-108366590D01*
X56769200Y-108041410D01*
X56832639Y-107722479D01*
X56957080Y-107422053D01*
X57137740Y-107151676D01*
X57367676Y-106921740D01*
X57638053Y-106741080D01*
X57938479Y-106616639D01*
X58151100Y-106574346D01*
X58257409Y-106553200D01*
X58582591Y-106553200D01*
X58688900Y-106574346D01*
X58688900Y-106574346D01*
G37*
G36*
X101081300Y-107021300D02*
G01*
X98479700Y-107021300D01*
X98479700Y-105969700D01*
X101081300Y-105969700D01*
X101081300Y-107021300D01*
X101081300Y-107021300D01*
G37*
G36*
X89601300Y-107021300D02*
G01*
X87299700Y-107021300D01*
X87299700Y-105769700D01*
X89601300Y-105769700D01*
X89601300Y-107021300D01*
X89601300Y-107021300D01*
G37*
G36*
X84191819Y-105721914D02*
G01*
X84212416Y-105728162D01*
X84231400Y-105738310D01*
X84248037Y-105751963D01*
X84261690Y-105768600D01*
X84271838Y-105787584D01*
X84278086Y-105808181D01*
X84280800Y-105835740D01*
X84280800Y-106344260D01*
X84278086Y-106371819D01*
X84271838Y-106392416D01*
X84261690Y-106411400D01*
X84248037Y-106428037D01*
X84231400Y-106441690D01*
X84212416Y-106451838D01*
X84191819Y-106458086D01*
X84164260Y-106460800D01*
X83705740Y-106460800D01*
X83678181Y-106458086D01*
X83657584Y-106451838D01*
X83638600Y-106441690D01*
X83621963Y-106428037D01*
X83608310Y-106411400D01*
X83598162Y-106392416D01*
X83591914Y-106371819D01*
X83589200Y-106344260D01*
X83589200Y-105835740D01*
X83591914Y-105808181D01*
X83598162Y-105787584D01*
X83608310Y-105768600D01*
X83621963Y-105751963D01*
X83638600Y-105738310D01*
X83657584Y-105728162D01*
X83678181Y-105721914D01*
X83705740Y-105719200D01*
X84164260Y-105719200D01*
X84191819Y-105721914D01*
X84191819Y-105721914D01*
G37*
G36*
X85161819Y-105721914D02*
G01*
X85182416Y-105728162D01*
X85201400Y-105738310D01*
X85218037Y-105751963D01*
X85231690Y-105768600D01*
X85241838Y-105787584D01*
X85248086Y-105808181D01*
X85250800Y-105835740D01*
X85250800Y-106344260D01*
X85248086Y-106371819D01*
X85241838Y-106392416D01*
X85231690Y-106411400D01*
X85218037Y-106428037D01*
X85201400Y-106441690D01*
X85182416Y-106451838D01*
X85161819Y-106458086D01*
X85134260Y-106460800D01*
X84675740Y-106460800D01*
X84648181Y-106458086D01*
X84627584Y-106451838D01*
X84608600Y-106441690D01*
X84591963Y-106428037D01*
X84578310Y-106411400D01*
X84568162Y-106392416D01*
X84561914Y-106371819D01*
X84559200Y-106344260D01*
X84559200Y-105835740D01*
X84561914Y-105808181D01*
X84568162Y-105787584D01*
X84578310Y-105768600D01*
X84591963Y-105751963D01*
X84608600Y-105738310D01*
X84627584Y-105728162D01*
X84648181Y-105721914D01*
X84675740Y-105719200D01*
X85134260Y-105719200D01*
X85161819Y-105721914D01*
X85161819Y-105721914D01*
G37*
G36*
X79227819Y-105621914D02*
G01*
X79248416Y-105628162D01*
X79267400Y-105638310D01*
X79284037Y-105651963D01*
X79297690Y-105668600D01*
X79307838Y-105687584D01*
X79314086Y-105708181D01*
X79316800Y-105735740D01*
X79316800Y-106244260D01*
X79314086Y-106271819D01*
X79307838Y-106292416D01*
X79297690Y-106311400D01*
X79284037Y-106328037D01*
X79267400Y-106341690D01*
X79248416Y-106351838D01*
X79227819Y-106358086D01*
X79200260Y-106360800D01*
X78741740Y-106360800D01*
X78714181Y-106358086D01*
X78693584Y-106351838D01*
X78674600Y-106341690D01*
X78657963Y-106328037D01*
X78644310Y-106311400D01*
X78634162Y-106292416D01*
X78627914Y-106271819D01*
X78625200Y-106244260D01*
X78625200Y-105735740D01*
X78627914Y-105708181D01*
X78634162Y-105687584D01*
X78644310Y-105668600D01*
X78657963Y-105651963D01*
X78674600Y-105638310D01*
X78693584Y-105628162D01*
X78714181Y-105621914D01*
X78741740Y-105619200D01*
X79200260Y-105619200D01*
X79227819Y-105621914D01*
X79227819Y-105621914D01*
G37*
G36*
X78257819Y-105621914D02*
G01*
X78278416Y-105628162D01*
X78297400Y-105638310D01*
X78314037Y-105651963D01*
X78327690Y-105668600D01*
X78337838Y-105687584D01*
X78344086Y-105708181D01*
X78346800Y-105735740D01*
X78346800Y-106244260D01*
X78344086Y-106271819D01*
X78337838Y-106292416D01*
X78327690Y-106311400D01*
X78314037Y-106328037D01*
X78297400Y-106341690D01*
X78278416Y-106351838D01*
X78257819Y-106358086D01*
X78230260Y-106360800D01*
X77771740Y-106360800D01*
X77744181Y-106358086D01*
X77723584Y-106351838D01*
X77704600Y-106341690D01*
X77687963Y-106328037D01*
X77674310Y-106311400D01*
X77664162Y-106292416D01*
X77657914Y-106271819D01*
X77655200Y-106244260D01*
X77655200Y-105735740D01*
X77657914Y-105708181D01*
X77664162Y-105687584D01*
X77674310Y-105668600D01*
X77687963Y-105651963D01*
X77704600Y-105638310D01*
X77723584Y-105628162D01*
X77744181Y-105621914D01*
X77771740Y-105619200D01*
X78230260Y-105619200D01*
X78257819Y-105621914D01*
X78257819Y-105621914D01*
G37*
G36*
X63563419Y-105273514D02*
G01*
X63584016Y-105279762D01*
X63603000Y-105289910D01*
X63619637Y-105303563D01*
X63633290Y-105320200D01*
X63643438Y-105339184D01*
X63649686Y-105359781D01*
X63652400Y-105387340D01*
X63652400Y-105845860D01*
X63649686Y-105873419D01*
X63643438Y-105894016D01*
X63633290Y-105913000D01*
X63619637Y-105929637D01*
X63603000Y-105943290D01*
X63584016Y-105953438D01*
X63563419Y-105959686D01*
X63535860Y-105962400D01*
X63027340Y-105962400D01*
X62999781Y-105959686D01*
X62979184Y-105953438D01*
X62960200Y-105943290D01*
X62943563Y-105929637D01*
X62929910Y-105913000D01*
X62919762Y-105894016D01*
X62913514Y-105873419D01*
X62910800Y-105845860D01*
X62910800Y-105387340D01*
X62913514Y-105359781D01*
X62919762Y-105339184D01*
X62929910Y-105320200D01*
X62943563Y-105303563D01*
X62960200Y-105289910D01*
X62979184Y-105279762D01*
X62999781Y-105273514D01*
X63027340Y-105270800D01*
X63535860Y-105270800D01*
X63563419Y-105273514D01*
X63563419Y-105273514D01*
G37*
G36*
X73473300Y-105896800D02*
G01*
X65591700Y-105896800D01*
X65591700Y-104325200D01*
X73473300Y-104325200D01*
X73473300Y-105896800D01*
X73473300Y-105896800D01*
G37*
G36*
X63563419Y-104303514D02*
G01*
X63584016Y-104309762D01*
X63603000Y-104319910D01*
X63619637Y-104333563D01*
X63633290Y-104350200D01*
X63643438Y-104369184D01*
X63649686Y-104389781D01*
X63652400Y-104417340D01*
X63652400Y-104875860D01*
X63649686Y-104903419D01*
X63643438Y-104924016D01*
X63633290Y-104943000D01*
X63619637Y-104959637D01*
X63603000Y-104973290D01*
X63584016Y-104983438D01*
X63563419Y-104989686D01*
X63535860Y-104992400D01*
X63027340Y-104992400D01*
X62999781Y-104989686D01*
X62979184Y-104983438D01*
X62960200Y-104973290D01*
X62943563Y-104959637D01*
X62929910Y-104943000D01*
X62919762Y-104924016D01*
X62913514Y-104903419D01*
X62910800Y-104875860D01*
X62910800Y-104417340D01*
X62913514Y-104389781D01*
X62919762Y-104369184D01*
X62929910Y-104350200D01*
X62943563Y-104333563D01*
X62960200Y-104319910D01*
X62979184Y-104309762D01*
X62999781Y-104303514D01*
X63027340Y-104300800D01*
X63535860Y-104300800D01*
X63563419Y-104303514D01*
X63563419Y-104303514D01*
G37*
G36*
X84221819Y-104221914D02*
G01*
X84242416Y-104228162D01*
X84261400Y-104238310D01*
X84278037Y-104251963D01*
X84291690Y-104268600D01*
X84301838Y-104287584D01*
X84308086Y-104308181D01*
X84310800Y-104335740D01*
X84310800Y-104844260D01*
X84308086Y-104871819D01*
X84301838Y-104892416D01*
X84291690Y-104911400D01*
X84278037Y-104928037D01*
X84261400Y-104941690D01*
X84242416Y-104951838D01*
X84221819Y-104958086D01*
X84194260Y-104960800D01*
X83735740Y-104960800D01*
X83708181Y-104958086D01*
X83687584Y-104951838D01*
X83668600Y-104941690D01*
X83651963Y-104928037D01*
X83638310Y-104911400D01*
X83628162Y-104892416D01*
X83621914Y-104871819D01*
X83619200Y-104844260D01*
X83619200Y-104335740D01*
X83621914Y-104308181D01*
X83628162Y-104287584D01*
X83638310Y-104268600D01*
X83651963Y-104251963D01*
X83668600Y-104238310D01*
X83687584Y-104228162D01*
X83708181Y-104221914D01*
X83735740Y-104219200D01*
X84194260Y-104219200D01*
X84221819Y-104221914D01*
X84221819Y-104221914D01*
G37*
G36*
X85191819Y-104221914D02*
G01*
X85212416Y-104228162D01*
X85231400Y-104238310D01*
X85248037Y-104251963D01*
X85261690Y-104268600D01*
X85271838Y-104287584D01*
X85278086Y-104308181D01*
X85280800Y-104335740D01*
X85280800Y-104844260D01*
X85278086Y-104871819D01*
X85271838Y-104892416D01*
X85261690Y-104911400D01*
X85248037Y-104928037D01*
X85231400Y-104941690D01*
X85212416Y-104951838D01*
X85191819Y-104958086D01*
X85164260Y-104960800D01*
X84705740Y-104960800D01*
X84678181Y-104958086D01*
X84657584Y-104951838D01*
X84638600Y-104941690D01*
X84621963Y-104928037D01*
X84608310Y-104911400D01*
X84598162Y-104892416D01*
X84591914Y-104871819D01*
X84589200Y-104844260D01*
X84589200Y-104335740D01*
X84591914Y-104308181D01*
X84598162Y-104287584D01*
X84608310Y-104268600D01*
X84621963Y-104251963D01*
X84638600Y-104238310D01*
X84657584Y-104228162D01*
X84678181Y-104221914D01*
X84705740Y-104219200D01*
X85164260Y-104219200D01*
X85191819Y-104221914D01*
X85191819Y-104221914D01*
G37*
G36*
X78261819Y-104191914D02*
G01*
X78282416Y-104198162D01*
X78301400Y-104208310D01*
X78318037Y-104221963D01*
X78331690Y-104238600D01*
X78341838Y-104257584D01*
X78348086Y-104278181D01*
X78350800Y-104305740D01*
X78350800Y-104814260D01*
X78348086Y-104841819D01*
X78341838Y-104862416D01*
X78331690Y-104881400D01*
X78318037Y-104898037D01*
X78301400Y-104911690D01*
X78282416Y-104921838D01*
X78261819Y-104928086D01*
X78234260Y-104930800D01*
X77775740Y-104930800D01*
X77748181Y-104928086D01*
X77727584Y-104921838D01*
X77708600Y-104911690D01*
X77691963Y-104898037D01*
X77678310Y-104881400D01*
X77668162Y-104862416D01*
X77661914Y-104841819D01*
X77659200Y-104814260D01*
X77659200Y-104305740D01*
X77661914Y-104278181D01*
X77668162Y-104257584D01*
X77678310Y-104238600D01*
X77691963Y-104221963D01*
X77708600Y-104208310D01*
X77727584Y-104198162D01*
X77748181Y-104191914D01*
X77775740Y-104189200D01*
X78234260Y-104189200D01*
X78261819Y-104191914D01*
X78261819Y-104191914D01*
G37*
G36*
X79231819Y-104191914D02*
G01*
X79252416Y-104198162D01*
X79271400Y-104208310D01*
X79288037Y-104221963D01*
X79301690Y-104238600D01*
X79311838Y-104257584D01*
X79318086Y-104278181D01*
X79320800Y-104305740D01*
X79320800Y-104814260D01*
X79318086Y-104841819D01*
X79311838Y-104862416D01*
X79301690Y-104881400D01*
X79288037Y-104898037D01*
X79271400Y-104911690D01*
X79252416Y-104921838D01*
X79231819Y-104928086D01*
X79204260Y-104930800D01*
X78745740Y-104930800D01*
X78718181Y-104928086D01*
X78697584Y-104921838D01*
X78678600Y-104911690D01*
X78661963Y-104898037D01*
X78648310Y-104881400D01*
X78638162Y-104862416D01*
X78631914Y-104841819D01*
X78629200Y-104814260D01*
X78629200Y-104305740D01*
X78631914Y-104278181D01*
X78638162Y-104257584D01*
X78648310Y-104238600D01*
X78661963Y-104221963D01*
X78678600Y-104208310D01*
X78697584Y-104198162D01*
X78718181Y-104191914D01*
X78745740Y-104189200D01*
X79204260Y-104189200D01*
X79231819Y-104191914D01*
X79231819Y-104191914D01*
G37*
G36*
X58438258Y-101991178D02*
G01*
X58611293Y-102062852D01*
X58767020Y-102166905D01*
X58899455Y-102299340D01*
X59003508Y-102455067D01*
X59075182Y-102628102D01*
X59111720Y-102811794D01*
X59111720Y-102999086D01*
X59075182Y-103182778D01*
X59003508Y-103355813D01*
X58899455Y-103511540D01*
X58767020Y-103643975D01*
X58611293Y-103748028D01*
X58438258Y-103819702D01*
X58254566Y-103856240D01*
X58067274Y-103856240D01*
X57883582Y-103819702D01*
X57710547Y-103748028D01*
X57554820Y-103643975D01*
X57422385Y-103511540D01*
X57318332Y-103355813D01*
X57246658Y-103182778D01*
X57210120Y-102999086D01*
X57210120Y-102811794D01*
X57246658Y-102628102D01*
X57318332Y-102455067D01*
X57422385Y-102299340D01*
X57554820Y-102166905D01*
X57710547Y-102062852D01*
X57883582Y-101991178D01*
X58067274Y-101954640D01*
X58254566Y-101954640D01*
X58438258Y-101991178D01*
X58438258Y-101991178D01*
G37*
G36*
X79231819Y-103081914D02*
G01*
X79252416Y-103088162D01*
X79271400Y-103098310D01*
X79288037Y-103111963D01*
X79301690Y-103128600D01*
X79311838Y-103147584D01*
X79318086Y-103168181D01*
X79320800Y-103195740D01*
X79320800Y-103704260D01*
X79318086Y-103731819D01*
X79311838Y-103752416D01*
X79301690Y-103771400D01*
X79288037Y-103788037D01*
X79271400Y-103801690D01*
X79252416Y-103811838D01*
X79231819Y-103818086D01*
X79204260Y-103820800D01*
X78745740Y-103820800D01*
X78718181Y-103818086D01*
X78697584Y-103811838D01*
X78678600Y-103801690D01*
X78661963Y-103788037D01*
X78648310Y-103771400D01*
X78638162Y-103752416D01*
X78631914Y-103731819D01*
X78629200Y-103704260D01*
X78629200Y-103195740D01*
X78631914Y-103168181D01*
X78638162Y-103147584D01*
X78648310Y-103128600D01*
X78661963Y-103111963D01*
X78678600Y-103098310D01*
X78697584Y-103088162D01*
X78718181Y-103081914D01*
X78745740Y-103079200D01*
X79204260Y-103079200D01*
X79231819Y-103081914D01*
X79231819Y-103081914D01*
G37*
G36*
X78261819Y-103081914D02*
G01*
X78282416Y-103088162D01*
X78301400Y-103098310D01*
X78318037Y-103111963D01*
X78331690Y-103128600D01*
X78341838Y-103147584D01*
X78348086Y-103168181D01*
X78350800Y-103195740D01*
X78350800Y-103704260D01*
X78348086Y-103731819D01*
X78341838Y-103752416D01*
X78331690Y-103771400D01*
X78318037Y-103788037D01*
X78301400Y-103801690D01*
X78282416Y-103811838D01*
X78261819Y-103818086D01*
X78234260Y-103820800D01*
X77775740Y-103820800D01*
X77748181Y-103818086D01*
X77727584Y-103811838D01*
X77708600Y-103801690D01*
X77691963Y-103788037D01*
X77678310Y-103771400D01*
X77668162Y-103752416D01*
X77661914Y-103731819D01*
X77659200Y-103704260D01*
X77659200Y-103195740D01*
X77661914Y-103168181D01*
X77668162Y-103147584D01*
X77678310Y-103128600D01*
X77691963Y-103111963D01*
X77708600Y-103098310D01*
X77727584Y-103088162D01*
X77748181Y-103081914D01*
X77775740Y-103079200D01*
X78234260Y-103079200D01*
X78261819Y-103081914D01*
X78261819Y-103081914D01*
G37*
G36*
X75988300Y-103381800D02*
G01*
X74416700Y-103381800D01*
X74416700Y-95500200D01*
X75988300Y-95500200D01*
X75988300Y-103381800D01*
X75988300Y-103381800D01*
G37*
G36*
X64648300Y-103381800D02*
G01*
X63076700Y-103381800D01*
X63076700Y-95500200D01*
X64648300Y-95500200D01*
X64648300Y-103381800D01*
X64648300Y-103381800D01*
G37*
G36*
X88281300Y-102891300D02*
G01*
X87029700Y-102891300D01*
X87029700Y-101289700D01*
X88281300Y-101289700D01*
X88281300Y-102891300D01*
X88281300Y-102891300D01*
G37*
G36*
X61081086Y-101179646D02*
G01*
X61218450Y-101236544D01*
X61218452Y-101236545D01*
X61280684Y-101278127D01*
X61342076Y-101319148D01*
X61447212Y-101424284D01*
X61529816Y-101547910D01*
X61586714Y-101685274D01*
X61615720Y-101831097D01*
X61615720Y-101979783D01*
X61586714Y-102125606D01*
X61569607Y-102166905D01*
X61529815Y-102262972D01*
X61505514Y-102299341D01*
X61447212Y-102386596D01*
X61342076Y-102491732D01*
X61280684Y-102532753D01*
X61218452Y-102574335D01*
X61218451Y-102574336D01*
X61218450Y-102574336D01*
X61081086Y-102631234D01*
X60935263Y-102660240D01*
X60786577Y-102660240D01*
X60640754Y-102631234D01*
X60503390Y-102574336D01*
X60503389Y-102574336D01*
X60503388Y-102574335D01*
X60441156Y-102532753D01*
X60379764Y-102491732D01*
X60274628Y-102386596D01*
X60216326Y-102299341D01*
X60192025Y-102262972D01*
X60152233Y-102166905D01*
X60135126Y-102125606D01*
X60106120Y-101979783D01*
X60106120Y-101831097D01*
X60135126Y-101685274D01*
X60192024Y-101547910D01*
X60274628Y-101424284D01*
X60379764Y-101319148D01*
X60441156Y-101278127D01*
X60503388Y-101236545D01*
X60503390Y-101236544D01*
X60640754Y-101179646D01*
X60786577Y-101150640D01*
X60935263Y-101150640D01*
X61081086Y-101179646D01*
X61081086Y-101179646D01*
G37*
G36*
X101081300Y-102601300D02*
G01*
X99739700Y-102601300D01*
X99739700Y-93999700D01*
X101081300Y-93999700D01*
X101081300Y-102601300D01*
X101081300Y-102601300D01*
G37*
G36*
X58308819Y-100920914D02*
G01*
X58329416Y-100927162D01*
X58348400Y-100937310D01*
X58365037Y-100950963D01*
X58378690Y-100967600D01*
X58388838Y-100986584D01*
X58395086Y-101007181D01*
X58397800Y-101034740D01*
X58397800Y-101543260D01*
X58395086Y-101570819D01*
X58388838Y-101591416D01*
X58378690Y-101610400D01*
X58365037Y-101627037D01*
X58348400Y-101640690D01*
X58329416Y-101650838D01*
X58308819Y-101657086D01*
X58281260Y-101659800D01*
X57822740Y-101659800D01*
X57795181Y-101657086D01*
X57774584Y-101650838D01*
X57755600Y-101640690D01*
X57738963Y-101627037D01*
X57725310Y-101610400D01*
X57715162Y-101591416D01*
X57708914Y-101570819D01*
X57706200Y-101543260D01*
X57706200Y-101034740D01*
X57708914Y-101007181D01*
X57715162Y-100986584D01*
X57725310Y-100967600D01*
X57738963Y-100950963D01*
X57755600Y-100937310D01*
X57774584Y-100927162D01*
X57795181Y-100920914D01*
X57822740Y-100918200D01*
X58281260Y-100918200D01*
X58308819Y-100920914D01*
X58308819Y-100920914D01*
G37*
G36*
X59278819Y-100920914D02*
G01*
X59299416Y-100927162D01*
X59318400Y-100937310D01*
X59335037Y-100950963D01*
X59348690Y-100967600D01*
X59358838Y-100986584D01*
X59365086Y-101007181D01*
X59367800Y-101034740D01*
X59367800Y-101543260D01*
X59365086Y-101570819D01*
X59358838Y-101591416D01*
X59348690Y-101610400D01*
X59335037Y-101627037D01*
X59318400Y-101640690D01*
X59299416Y-101650838D01*
X59278819Y-101657086D01*
X59251260Y-101659800D01*
X58792740Y-101659800D01*
X58765181Y-101657086D01*
X58744584Y-101650838D01*
X58725600Y-101640690D01*
X58708963Y-101627037D01*
X58695310Y-101610400D01*
X58685162Y-101591416D01*
X58678914Y-101570819D01*
X58676200Y-101543260D01*
X58676200Y-101034740D01*
X58678914Y-101007181D01*
X58685162Y-100986584D01*
X58695310Y-100967600D01*
X58708963Y-100950963D01*
X58725600Y-100937310D01*
X58744584Y-100927162D01*
X58765181Y-100920914D01*
X58792740Y-100918200D01*
X59251260Y-100918200D01*
X59278819Y-100920914D01*
X59278819Y-100920914D01*
G37*
G36*
X59278819Y-99841414D02*
G01*
X59299416Y-99847662D01*
X59318400Y-99857810D01*
X59335037Y-99871463D01*
X59348690Y-99888100D01*
X59358838Y-99907084D01*
X59365086Y-99927681D01*
X59367800Y-99955240D01*
X59367800Y-100463760D01*
X59365086Y-100491319D01*
X59358838Y-100511916D01*
X59348690Y-100530900D01*
X59335037Y-100547537D01*
X59318400Y-100561190D01*
X59299416Y-100571338D01*
X59278819Y-100577586D01*
X59251260Y-100580300D01*
X58792740Y-100580300D01*
X58765181Y-100577586D01*
X58744584Y-100571338D01*
X58725600Y-100561190D01*
X58708963Y-100547537D01*
X58695310Y-100530900D01*
X58685162Y-100511916D01*
X58678914Y-100491319D01*
X58676200Y-100463760D01*
X58676200Y-99955240D01*
X58678914Y-99927681D01*
X58685162Y-99907084D01*
X58695310Y-99888100D01*
X58708963Y-99871463D01*
X58725600Y-99857810D01*
X58744584Y-99847662D01*
X58765181Y-99841414D01*
X58792740Y-99838700D01*
X59251260Y-99838700D01*
X59278819Y-99841414D01*
X59278819Y-99841414D01*
G37*
G36*
X58308819Y-99841414D02*
G01*
X58329416Y-99847662D01*
X58348400Y-99857810D01*
X58365037Y-99871463D01*
X58378690Y-99888100D01*
X58388838Y-99907084D01*
X58395086Y-99927681D01*
X58397800Y-99955240D01*
X58397800Y-100463760D01*
X58395086Y-100491319D01*
X58388838Y-100511916D01*
X58378690Y-100530900D01*
X58365037Y-100547537D01*
X58348400Y-100561190D01*
X58329416Y-100571338D01*
X58308819Y-100577586D01*
X58281260Y-100580300D01*
X57822740Y-100580300D01*
X57795181Y-100577586D01*
X57774584Y-100571338D01*
X57755600Y-100561190D01*
X57738963Y-100547537D01*
X57725310Y-100530900D01*
X57715162Y-100511916D01*
X57708914Y-100491319D01*
X57706200Y-100463760D01*
X57706200Y-99955240D01*
X57708914Y-99927681D01*
X57715162Y-99907084D01*
X57725310Y-99888100D01*
X57738963Y-99871463D01*
X57755600Y-99857810D01*
X57774584Y-99847662D01*
X57795181Y-99841414D01*
X57822740Y-99838700D01*
X58281260Y-99838700D01*
X58308819Y-99841414D01*
X58308819Y-99841414D01*
G37*
G36*
X79993319Y-97836414D02*
G01*
X80013916Y-97842662D01*
X80032900Y-97852810D01*
X80049537Y-97866463D01*
X80063190Y-97883100D01*
X80073338Y-97902084D01*
X80079586Y-97922681D01*
X80082300Y-97950240D01*
X80082300Y-98408760D01*
X80079586Y-98436319D01*
X80073338Y-98456916D01*
X80063190Y-98475900D01*
X80049537Y-98492537D01*
X80032900Y-98506190D01*
X80013916Y-98516338D01*
X79993319Y-98522586D01*
X79965760Y-98525300D01*
X79457240Y-98525300D01*
X79429681Y-98522586D01*
X79409084Y-98516338D01*
X79390100Y-98506190D01*
X79373463Y-98492537D01*
X79359810Y-98475900D01*
X79349662Y-98456916D01*
X79343414Y-98436319D01*
X79340700Y-98408760D01*
X79340700Y-97950240D01*
X79343414Y-97922681D01*
X79349662Y-97902084D01*
X79359810Y-97883100D01*
X79373463Y-97866463D01*
X79390100Y-97852810D01*
X79409084Y-97842662D01*
X79429681Y-97836414D01*
X79457240Y-97833700D01*
X79965760Y-97833700D01*
X79993319Y-97836414D01*
X79993319Y-97836414D01*
G37*
G36*
X78801800Y-97812800D02*
G01*
X76900200Y-97812800D01*
X76900200Y-96711200D01*
X78801800Y-96711200D01*
X78801800Y-97812800D01*
X78801800Y-97812800D01*
G37*
G36*
X61081086Y-96179646D02*
G01*
X61218450Y-96236544D01*
X61218452Y-96236545D01*
X61342077Y-96319149D01*
X61447211Y-96424283D01*
X61505515Y-96511540D01*
X61529816Y-96547910D01*
X61586714Y-96685274D01*
X61615720Y-96831097D01*
X61615720Y-96979783D01*
X61586714Y-97125606D01*
X61529816Y-97262970D01*
X61447212Y-97386596D01*
X61342076Y-97491732D01*
X61322729Y-97504659D01*
X61218452Y-97574335D01*
X61218451Y-97574336D01*
X61218450Y-97574336D01*
X61081086Y-97631234D01*
X60935263Y-97660240D01*
X60786577Y-97660240D01*
X60640754Y-97631234D01*
X60503390Y-97574336D01*
X60503389Y-97574336D01*
X60503388Y-97574335D01*
X60399111Y-97504659D01*
X60379764Y-97491732D01*
X60274628Y-97386596D01*
X60192024Y-97262970D01*
X60135126Y-97125606D01*
X60106120Y-96979783D01*
X60106120Y-96831097D01*
X60135126Y-96685274D01*
X60192024Y-96547910D01*
X60216326Y-96511540D01*
X60274629Y-96424283D01*
X60379763Y-96319149D01*
X60503388Y-96236545D01*
X60503390Y-96236544D01*
X60640754Y-96179646D01*
X60786577Y-96150640D01*
X60935263Y-96150640D01*
X61081086Y-96179646D01*
X61081086Y-96179646D01*
G37*
G36*
X79993319Y-96866414D02*
G01*
X80013916Y-96872662D01*
X80032900Y-96882810D01*
X80049537Y-96896463D01*
X80063190Y-96913100D01*
X80073338Y-96932084D01*
X80079586Y-96952681D01*
X80082300Y-96980240D01*
X80082300Y-97438760D01*
X80079586Y-97466319D01*
X80073338Y-97486916D01*
X80063190Y-97505900D01*
X80049537Y-97522537D01*
X80032900Y-97536190D01*
X80013916Y-97546338D01*
X79993319Y-97552586D01*
X79965760Y-97555300D01*
X79457240Y-97555300D01*
X79429681Y-97552586D01*
X79409084Y-97546338D01*
X79390100Y-97536190D01*
X79373463Y-97522537D01*
X79359810Y-97505900D01*
X79349662Y-97486916D01*
X79343414Y-97466319D01*
X79340700Y-97438760D01*
X79340700Y-96980240D01*
X79343414Y-96952681D01*
X79349662Y-96932084D01*
X79359810Y-96913100D01*
X79373463Y-96896463D01*
X79390100Y-96882810D01*
X79409084Y-96872662D01*
X79429681Y-96866414D01*
X79457240Y-96863700D01*
X79965760Y-96863700D01*
X79993319Y-96866414D01*
X79993319Y-96866414D01*
G37*
G36*
X58438258Y-94991178D02*
G01*
X58611293Y-95062852D01*
X58767020Y-95166905D01*
X58899455Y-95299340D01*
X59003508Y-95455067D01*
X59075182Y-95628102D01*
X59111720Y-95811794D01*
X59111720Y-95999086D01*
X59075182Y-96182778D01*
X59003508Y-96355813D01*
X58899455Y-96511540D01*
X58767020Y-96643975D01*
X58611293Y-96748028D01*
X58438258Y-96819702D01*
X58254566Y-96856240D01*
X58067274Y-96856240D01*
X57883582Y-96819702D01*
X57710547Y-96748028D01*
X57554820Y-96643975D01*
X57422385Y-96511540D01*
X57318332Y-96355813D01*
X57246658Y-96182778D01*
X57210120Y-95999086D01*
X57210120Y-95811794D01*
X57246658Y-95628102D01*
X57318332Y-95455067D01*
X57422385Y-95299340D01*
X57554820Y-95166905D01*
X57710547Y-95062852D01*
X57883582Y-94991178D01*
X58067274Y-94954640D01*
X58254566Y-94954640D01*
X58438258Y-94991178D01*
X58438258Y-94991178D01*
G37*
G36*
X79993319Y-95435914D02*
G01*
X80013916Y-95442162D01*
X80032900Y-95452310D01*
X80049537Y-95465963D01*
X80063190Y-95482600D01*
X80073338Y-95501584D01*
X80079586Y-95522181D01*
X80082300Y-95549740D01*
X80082300Y-96008260D01*
X80079586Y-96035819D01*
X80073338Y-96056416D01*
X80063190Y-96075400D01*
X80049537Y-96092037D01*
X80032900Y-96105690D01*
X80013916Y-96115838D01*
X79993319Y-96122086D01*
X79965760Y-96124800D01*
X79457240Y-96124800D01*
X79429681Y-96122086D01*
X79409084Y-96115838D01*
X79390100Y-96105690D01*
X79373463Y-96092037D01*
X79359810Y-96075400D01*
X79349662Y-96056416D01*
X79343414Y-96035819D01*
X79340700Y-96008260D01*
X79340700Y-95549740D01*
X79343414Y-95522181D01*
X79349662Y-95501584D01*
X79359810Y-95482600D01*
X79373463Y-95465963D01*
X79390100Y-95452310D01*
X79409084Y-95442162D01*
X79429681Y-95435914D01*
X79457240Y-95433200D01*
X79965760Y-95433200D01*
X79993319Y-95435914D01*
X79993319Y-95435914D01*
G37*
G36*
X78801800Y-95312800D02*
G01*
X76900200Y-95312800D01*
X76900200Y-94211200D01*
X78801800Y-94211200D01*
X78801800Y-95312800D01*
X78801800Y-95312800D01*
G37*
G36*
X79993319Y-94465914D02*
G01*
X80013916Y-94472162D01*
X80032900Y-94482310D01*
X80049537Y-94495963D01*
X80063190Y-94512600D01*
X80073338Y-94531584D01*
X80079586Y-94552181D01*
X80082300Y-94579740D01*
X80082300Y-95038260D01*
X80079586Y-95065819D01*
X80073338Y-95086416D01*
X80063190Y-95105400D01*
X80049537Y-95122037D01*
X80032900Y-95135690D01*
X80013916Y-95145838D01*
X79993319Y-95152086D01*
X79965760Y-95154800D01*
X79457240Y-95154800D01*
X79429681Y-95152086D01*
X79409084Y-95145838D01*
X79390100Y-95135690D01*
X79373463Y-95122037D01*
X79359810Y-95105400D01*
X79349662Y-95086416D01*
X79343414Y-95065819D01*
X79340700Y-95038260D01*
X79340700Y-94579740D01*
X79343414Y-94552181D01*
X79349662Y-94531584D01*
X79359810Y-94512600D01*
X79373463Y-94495963D01*
X79390100Y-94482310D01*
X79409084Y-94472162D01*
X79429681Y-94465914D01*
X79457240Y-94463200D01*
X79965760Y-94463200D01*
X79993319Y-94465914D01*
X79993319Y-94465914D01*
G37*
G36*
X88281300Y-95111300D02*
G01*
X87029700Y-95111300D01*
X87029700Y-93509700D01*
X88281300Y-93509700D01*
X88281300Y-95111300D01*
X88281300Y-95111300D01*
G37*
G36*
X62463819Y-93835434D02*
G01*
X62484416Y-93841682D01*
X62503400Y-93851830D01*
X62520037Y-93865483D01*
X62533690Y-93882120D01*
X62543838Y-93901104D01*
X62550086Y-93921701D01*
X62552800Y-93949260D01*
X62552800Y-94457780D01*
X62550086Y-94485339D01*
X62543838Y-94505936D01*
X62533690Y-94524920D01*
X62520037Y-94541557D01*
X62503400Y-94555210D01*
X62484416Y-94565358D01*
X62463819Y-94571606D01*
X62436260Y-94574320D01*
X61977740Y-94574320D01*
X61950181Y-94571606D01*
X61929584Y-94565358D01*
X61910600Y-94555210D01*
X61893963Y-94541557D01*
X61880310Y-94524920D01*
X61870162Y-94505936D01*
X61863914Y-94485339D01*
X61861200Y-94457780D01*
X61861200Y-93949260D01*
X61863914Y-93921701D01*
X61870162Y-93901104D01*
X61880310Y-93882120D01*
X61893963Y-93865483D01*
X61910600Y-93851830D01*
X61929584Y-93841682D01*
X61950181Y-93835434D01*
X61977740Y-93832720D01*
X62436260Y-93832720D01*
X62463819Y-93835434D01*
X62463819Y-93835434D01*
G37*
G36*
X61493819Y-93835434D02*
G01*
X61514416Y-93841682D01*
X61533400Y-93851830D01*
X61550037Y-93865483D01*
X61563690Y-93882120D01*
X61573838Y-93901104D01*
X61580086Y-93921701D01*
X61582800Y-93949260D01*
X61582800Y-94457780D01*
X61580086Y-94485339D01*
X61573838Y-94505936D01*
X61563690Y-94524920D01*
X61550037Y-94541557D01*
X61533400Y-94555210D01*
X61514416Y-94565358D01*
X61493819Y-94571606D01*
X61466260Y-94574320D01*
X61007740Y-94574320D01*
X60980181Y-94571606D01*
X60959584Y-94565358D01*
X60940600Y-94555210D01*
X60923963Y-94541557D01*
X60910310Y-94524920D01*
X60900162Y-94505936D01*
X60893914Y-94485339D01*
X60891200Y-94457780D01*
X60891200Y-93949260D01*
X60893914Y-93921701D01*
X60900162Y-93901104D01*
X60910310Y-93882120D01*
X60923963Y-93865483D01*
X60940600Y-93851830D01*
X60959584Y-93841682D01*
X60980181Y-93835434D01*
X61007740Y-93832720D01*
X61466260Y-93832720D01*
X61493819Y-93835434D01*
X61493819Y-93835434D01*
G37*
G36*
X73473300Y-94556800D02*
G01*
X65591700Y-94556800D01*
X65591700Y-92985200D01*
X73473300Y-92985200D01*
X73473300Y-94556800D01*
X73473300Y-94556800D01*
G37*
G36*
X63464859Y-93794794D02*
G01*
X63485456Y-93801042D01*
X63504440Y-93811190D01*
X63521077Y-93824843D01*
X63534730Y-93841480D01*
X63544878Y-93860464D01*
X63551126Y-93881061D01*
X63553840Y-93908620D01*
X63553840Y-94417140D01*
X63551126Y-94444699D01*
X63544878Y-94465296D01*
X63534730Y-94484280D01*
X63521077Y-94500917D01*
X63504440Y-94514570D01*
X63485456Y-94524718D01*
X63464859Y-94530966D01*
X63437300Y-94533680D01*
X62978780Y-94533680D01*
X62951221Y-94530966D01*
X62930624Y-94524718D01*
X62911640Y-94514570D01*
X62895003Y-94500917D01*
X62881350Y-94484280D01*
X62871202Y-94465296D01*
X62864954Y-94444699D01*
X62862240Y-94417140D01*
X62862240Y-93908620D01*
X62864954Y-93881061D01*
X62871202Y-93860464D01*
X62881350Y-93841480D01*
X62895003Y-93824843D01*
X62911640Y-93811190D01*
X62930624Y-93801042D01*
X62951221Y-93794794D01*
X62978780Y-93792080D01*
X63437300Y-93792080D01*
X63464859Y-93794794D01*
X63464859Y-93794794D01*
G37*
G36*
X64434859Y-93794794D02*
G01*
X64455456Y-93801042D01*
X64474440Y-93811190D01*
X64491077Y-93824843D01*
X64504730Y-93841480D01*
X64514878Y-93860464D01*
X64521126Y-93881061D01*
X64523840Y-93908620D01*
X64523840Y-94417140D01*
X64521126Y-94444699D01*
X64514878Y-94465296D01*
X64504730Y-94484280D01*
X64491077Y-94500917D01*
X64474440Y-94514570D01*
X64455456Y-94524718D01*
X64434859Y-94530966D01*
X64407300Y-94533680D01*
X63948780Y-94533680D01*
X63921221Y-94530966D01*
X63900624Y-94524718D01*
X63881640Y-94514570D01*
X63865003Y-94500917D01*
X63851350Y-94484280D01*
X63841202Y-94465296D01*
X63834954Y-94444699D01*
X63832240Y-94417140D01*
X63832240Y-93908620D01*
X63834954Y-93881061D01*
X63841202Y-93860464D01*
X63851350Y-93841480D01*
X63865003Y-93824843D01*
X63881640Y-93811190D01*
X63900624Y-93801042D01*
X63921221Y-93794794D01*
X63948780Y-93792080D01*
X64407300Y-93792080D01*
X64434859Y-93794794D01*
X64434859Y-93794794D01*
G37*
G36*
X79996819Y-92911914D02*
G01*
X80017416Y-92918162D01*
X80036400Y-92928310D01*
X80053037Y-92941963D01*
X80066690Y-92958600D01*
X80076838Y-92977584D01*
X80083086Y-92998181D01*
X80085800Y-93025740D01*
X80085800Y-93534260D01*
X80083086Y-93561819D01*
X80076838Y-93582416D01*
X80066690Y-93601400D01*
X80053037Y-93618037D01*
X80036400Y-93631690D01*
X80017416Y-93641838D01*
X79996819Y-93648086D01*
X79969260Y-93650800D01*
X79510740Y-93650800D01*
X79483181Y-93648086D01*
X79462584Y-93641838D01*
X79443600Y-93631690D01*
X79426963Y-93618037D01*
X79413310Y-93601400D01*
X79403162Y-93582416D01*
X79396914Y-93561819D01*
X79394200Y-93534260D01*
X79394200Y-93025740D01*
X79396914Y-92998181D01*
X79403162Y-92977584D01*
X79413310Y-92958600D01*
X79426963Y-92941963D01*
X79443600Y-92928310D01*
X79462584Y-92918162D01*
X79483181Y-92911914D01*
X79510740Y-92909200D01*
X79969260Y-92909200D01*
X79996819Y-92911914D01*
X79996819Y-92911914D01*
G37*
G36*
X79026819Y-92911914D02*
G01*
X79047416Y-92918162D01*
X79066400Y-92928310D01*
X79083037Y-92941963D01*
X79096690Y-92958600D01*
X79106838Y-92977584D01*
X79113086Y-92998181D01*
X79115800Y-93025740D01*
X79115800Y-93534260D01*
X79113086Y-93561819D01*
X79106838Y-93582416D01*
X79096690Y-93601400D01*
X79083037Y-93618037D01*
X79066400Y-93631690D01*
X79047416Y-93641838D01*
X79026819Y-93648086D01*
X78999260Y-93650800D01*
X78540740Y-93650800D01*
X78513181Y-93648086D01*
X78492584Y-93641838D01*
X78473600Y-93631690D01*
X78456963Y-93618037D01*
X78443310Y-93601400D01*
X78433162Y-93582416D01*
X78426914Y-93561819D01*
X78424200Y-93534260D01*
X78424200Y-93025740D01*
X78426914Y-92998181D01*
X78433162Y-92977584D01*
X78443310Y-92958600D01*
X78456963Y-92941963D01*
X78473600Y-92928310D01*
X78492584Y-92918162D01*
X78513181Y-92911914D01*
X78540740Y-92909200D01*
X78999260Y-92909200D01*
X79026819Y-92911914D01*
X79026819Y-92911914D01*
G37*
G36*
X82726819Y-92791914D02*
G01*
X82747416Y-92798162D01*
X82766400Y-92808310D01*
X82783037Y-92821963D01*
X82796690Y-92838600D01*
X82806838Y-92857584D01*
X82813086Y-92878181D01*
X82815800Y-92905740D01*
X82815800Y-93414260D01*
X82813086Y-93441819D01*
X82806838Y-93462416D01*
X82796690Y-93481400D01*
X82783037Y-93498037D01*
X82766400Y-93511690D01*
X82747416Y-93521838D01*
X82726819Y-93528086D01*
X82699260Y-93530800D01*
X82240740Y-93530800D01*
X82213181Y-93528086D01*
X82192584Y-93521838D01*
X82173600Y-93511690D01*
X82156963Y-93498037D01*
X82143310Y-93481400D01*
X82133162Y-93462416D01*
X82126914Y-93441819D01*
X82124200Y-93414260D01*
X82124200Y-92905740D01*
X82126914Y-92878181D01*
X82133162Y-92857584D01*
X82143310Y-92838600D01*
X82156963Y-92821963D01*
X82173600Y-92808310D01*
X82192584Y-92798162D01*
X82213181Y-92791914D01*
X82240740Y-92789200D01*
X82699260Y-92789200D01*
X82726819Y-92791914D01*
X82726819Y-92791914D01*
G37*
G36*
X81756819Y-92791914D02*
G01*
X81777416Y-92798162D01*
X81796400Y-92808310D01*
X81813037Y-92821963D01*
X81826690Y-92838600D01*
X81836838Y-92857584D01*
X81843086Y-92878181D01*
X81845800Y-92905740D01*
X81845800Y-93414260D01*
X81843086Y-93441819D01*
X81836838Y-93462416D01*
X81826690Y-93481400D01*
X81813037Y-93498037D01*
X81796400Y-93511690D01*
X81777416Y-93521838D01*
X81756819Y-93528086D01*
X81729260Y-93530800D01*
X81270740Y-93530800D01*
X81243181Y-93528086D01*
X81222584Y-93521838D01*
X81203600Y-93511690D01*
X81186963Y-93498037D01*
X81173310Y-93481400D01*
X81163162Y-93462416D01*
X81156914Y-93441819D01*
X81154200Y-93414260D01*
X81154200Y-92905740D01*
X81156914Y-92878181D01*
X81163162Y-92857584D01*
X81173310Y-92838600D01*
X81186963Y-92821963D01*
X81203600Y-92808310D01*
X81222584Y-92798162D01*
X81243181Y-92791914D01*
X81270740Y-92789200D01*
X81729260Y-92789200D01*
X81756819Y-92791914D01*
X81756819Y-92791914D01*
G37*
G36*
X61417619Y-92468914D02*
G01*
X61438216Y-92475162D01*
X61457200Y-92485310D01*
X61473837Y-92498963D01*
X61487490Y-92515600D01*
X61497638Y-92534584D01*
X61503886Y-92555181D01*
X61506600Y-92582740D01*
X61506600Y-93091260D01*
X61503886Y-93118819D01*
X61497638Y-93139416D01*
X61487490Y-93158400D01*
X61473837Y-93175037D01*
X61457200Y-93188690D01*
X61438216Y-93198838D01*
X61417619Y-93205086D01*
X61390060Y-93207800D01*
X60931540Y-93207800D01*
X60903981Y-93205086D01*
X60883384Y-93198838D01*
X60864400Y-93188690D01*
X60847763Y-93175037D01*
X60834110Y-93158400D01*
X60823962Y-93139416D01*
X60817714Y-93118819D01*
X60815000Y-93091260D01*
X60815000Y-92582740D01*
X60817714Y-92555181D01*
X60823962Y-92534584D01*
X60834110Y-92515600D01*
X60847763Y-92498963D01*
X60864400Y-92485310D01*
X60883384Y-92475162D01*
X60903981Y-92468914D01*
X60931540Y-92466200D01*
X61390060Y-92466200D01*
X61417619Y-92468914D01*
X61417619Y-92468914D01*
G37*
G36*
X62387619Y-92468914D02*
G01*
X62408216Y-92475162D01*
X62427200Y-92485310D01*
X62443837Y-92498963D01*
X62457490Y-92515600D01*
X62467638Y-92534584D01*
X62473886Y-92555181D01*
X62476600Y-92582740D01*
X62476600Y-93091260D01*
X62473886Y-93118819D01*
X62467638Y-93139416D01*
X62457490Y-93158400D01*
X62443837Y-93175037D01*
X62427200Y-93188690D01*
X62408216Y-93198838D01*
X62387619Y-93205086D01*
X62360060Y-93207800D01*
X61901540Y-93207800D01*
X61873981Y-93205086D01*
X61853384Y-93198838D01*
X61834400Y-93188690D01*
X61817763Y-93175037D01*
X61804110Y-93158400D01*
X61793962Y-93139416D01*
X61787714Y-93118819D01*
X61785000Y-93091260D01*
X61785000Y-92582740D01*
X61787714Y-92555181D01*
X61793962Y-92534584D01*
X61804110Y-92515600D01*
X61817763Y-92498963D01*
X61834400Y-92485310D01*
X61853384Y-92475162D01*
X61873981Y-92468914D01*
X61901540Y-92466200D01*
X62360060Y-92466200D01*
X62387619Y-92468914D01*
X62387619Y-92468914D01*
G37*
G36*
X98456300Y-93141300D02*
G01*
X97104700Y-93141300D01*
X97104700Y-91879700D01*
X98456300Y-91879700D01*
X98456300Y-93141300D01*
X98456300Y-93141300D01*
G37*
G36*
X89431300Y-93141300D02*
G01*
X88129700Y-93141300D01*
X88129700Y-91879700D01*
X89431300Y-91879700D01*
X89431300Y-93141300D01*
X89431300Y-93141300D01*
G37*
G36*
X101081300Y-92731300D02*
G01*
X98779700Y-92731300D01*
X98779700Y-91479700D01*
X101081300Y-91479700D01*
X101081300Y-92731300D01*
X101081300Y-92731300D01*
G37*
G36*
X65321319Y-91897414D02*
G01*
X65341916Y-91903662D01*
X65360900Y-91913810D01*
X65377537Y-91927463D01*
X65391190Y-91944100D01*
X65401338Y-91963084D01*
X65407586Y-91983681D01*
X65410300Y-92011240D01*
X65410300Y-92519760D01*
X65407586Y-92547319D01*
X65401338Y-92567916D01*
X65391190Y-92586900D01*
X65377537Y-92603537D01*
X65360900Y-92617190D01*
X65341916Y-92627338D01*
X65321319Y-92633586D01*
X65293760Y-92636300D01*
X64835240Y-92636300D01*
X64807681Y-92633586D01*
X64787084Y-92627338D01*
X64768100Y-92617190D01*
X64751463Y-92603537D01*
X64737810Y-92586900D01*
X64727662Y-92567916D01*
X64721414Y-92547319D01*
X64718700Y-92519760D01*
X64718700Y-92011240D01*
X64721414Y-91983681D01*
X64727662Y-91963084D01*
X64737810Y-91944100D01*
X64751463Y-91927463D01*
X64768100Y-91913810D01*
X64787084Y-91903662D01*
X64807681Y-91897414D01*
X64835240Y-91894700D01*
X65293760Y-91894700D01*
X65321319Y-91897414D01*
X65321319Y-91897414D01*
G37*
G36*
X64351319Y-91897414D02*
G01*
X64371916Y-91903662D01*
X64390900Y-91913810D01*
X64407537Y-91927463D01*
X64421190Y-91944100D01*
X64431338Y-91963084D01*
X64437586Y-91983681D01*
X64440300Y-92011240D01*
X64440300Y-92519760D01*
X64437586Y-92547319D01*
X64431338Y-92567916D01*
X64421190Y-92586900D01*
X64407537Y-92603537D01*
X64390900Y-92617190D01*
X64371916Y-92627338D01*
X64351319Y-92633586D01*
X64323760Y-92636300D01*
X63865240Y-92636300D01*
X63837681Y-92633586D01*
X63817084Y-92627338D01*
X63798100Y-92617190D01*
X63781463Y-92603537D01*
X63767810Y-92586900D01*
X63757662Y-92567916D01*
X63751414Y-92547319D01*
X63748700Y-92519760D01*
X63748700Y-92011240D01*
X63751414Y-91983681D01*
X63757662Y-91963084D01*
X63767810Y-91944100D01*
X63781463Y-91927463D01*
X63798100Y-91913810D01*
X63817084Y-91903662D01*
X63837681Y-91897414D01*
X63865240Y-91894700D01*
X64323760Y-91894700D01*
X64351319Y-91897414D01*
X64351319Y-91897414D01*
G37*
G36*
X67772429Y-91903482D02*
G01*
X67788807Y-91908450D01*
X67803899Y-91916517D01*
X67817127Y-91927373D01*
X67827983Y-91940601D01*
X67836050Y-91955693D01*
X67841018Y-91972071D01*
X67843300Y-91995241D01*
X67843300Y-92408759D01*
X67841018Y-92431929D01*
X67836050Y-92448307D01*
X67827983Y-92463399D01*
X67817127Y-92476627D01*
X67803899Y-92487483D01*
X67788807Y-92495550D01*
X67772429Y-92500518D01*
X67749259Y-92502800D01*
X66235741Y-92502800D01*
X66212571Y-92500518D01*
X66196193Y-92495550D01*
X66181101Y-92487483D01*
X66167873Y-92476627D01*
X66157017Y-92463399D01*
X66148950Y-92448307D01*
X66143982Y-92431929D01*
X66141700Y-92408759D01*
X66141700Y-91995241D01*
X66143982Y-91972071D01*
X66148950Y-91955693D01*
X66157017Y-91940601D01*
X66167873Y-91927373D01*
X66181101Y-91916517D01*
X66196193Y-91908450D01*
X66212571Y-91903482D01*
X66235741Y-91901200D01*
X67749259Y-91901200D01*
X67772429Y-91903482D01*
X67772429Y-91903482D01*
G37*
G36*
X79023319Y-91711914D02*
G01*
X79043916Y-91718162D01*
X79062900Y-91728310D01*
X79079537Y-91741963D01*
X79093190Y-91758600D01*
X79103338Y-91777584D01*
X79109586Y-91798181D01*
X79112300Y-91825740D01*
X79112300Y-92334260D01*
X79109586Y-92361819D01*
X79103338Y-92382416D01*
X79093190Y-92401400D01*
X79079537Y-92418037D01*
X79062900Y-92431690D01*
X79043916Y-92441838D01*
X79023319Y-92448086D01*
X78995760Y-92450800D01*
X78537240Y-92450800D01*
X78509681Y-92448086D01*
X78489084Y-92441838D01*
X78470100Y-92431690D01*
X78453463Y-92418037D01*
X78439810Y-92401400D01*
X78429662Y-92382416D01*
X78423414Y-92361819D01*
X78420700Y-92334260D01*
X78420700Y-91825740D01*
X78423414Y-91798181D01*
X78429662Y-91777584D01*
X78439810Y-91758600D01*
X78453463Y-91741963D01*
X78470100Y-91728310D01*
X78489084Y-91718162D01*
X78509681Y-91711914D01*
X78537240Y-91709200D01*
X78995760Y-91709200D01*
X79023319Y-91711914D01*
X79023319Y-91711914D01*
G37*
G36*
X79993319Y-91711914D02*
G01*
X80013916Y-91718162D01*
X80032900Y-91728310D01*
X80049537Y-91741963D01*
X80063190Y-91758600D01*
X80073338Y-91777584D01*
X80079586Y-91798181D01*
X80082300Y-91825740D01*
X80082300Y-92334260D01*
X80079586Y-92361819D01*
X80073338Y-92382416D01*
X80063190Y-92401400D01*
X80049537Y-92418037D01*
X80032900Y-92431690D01*
X80013916Y-92441838D01*
X79993319Y-92448086D01*
X79965760Y-92450800D01*
X79507240Y-92450800D01*
X79479681Y-92448086D01*
X79459084Y-92441838D01*
X79440100Y-92431690D01*
X79423463Y-92418037D01*
X79409810Y-92401400D01*
X79399662Y-92382416D01*
X79393414Y-92361819D01*
X79390700Y-92334260D01*
X79390700Y-91825740D01*
X79393414Y-91798181D01*
X79399662Y-91777584D01*
X79409810Y-91758600D01*
X79423463Y-91741963D01*
X79440100Y-91728310D01*
X79459084Y-91718162D01*
X79479681Y-91711914D01*
X79507240Y-91709200D01*
X79965760Y-91709200D01*
X79993319Y-91711914D01*
X79993319Y-91711914D01*
G37*
G36*
X69431319Y-91452914D02*
G01*
X69451916Y-91459162D01*
X69470900Y-91469310D01*
X69487537Y-91482963D01*
X69501190Y-91499600D01*
X69511338Y-91518584D01*
X69517586Y-91539181D01*
X69520300Y-91566740D01*
X69520300Y-92075260D01*
X69517586Y-92102819D01*
X69511338Y-92123416D01*
X69501190Y-92142400D01*
X69487537Y-92159037D01*
X69470900Y-92172690D01*
X69451916Y-92182838D01*
X69431319Y-92189086D01*
X69403760Y-92191800D01*
X68945240Y-92191800D01*
X68917681Y-92189086D01*
X68897084Y-92182838D01*
X68878100Y-92172690D01*
X68861463Y-92159037D01*
X68847810Y-92142400D01*
X68837662Y-92123416D01*
X68831414Y-92102819D01*
X68828700Y-92075260D01*
X68828700Y-91566740D01*
X68831414Y-91539181D01*
X68837662Y-91518584D01*
X68847810Y-91499600D01*
X68861463Y-91482963D01*
X68878100Y-91469310D01*
X68897084Y-91459162D01*
X68917681Y-91452914D01*
X68945240Y-91450200D01*
X69403760Y-91450200D01*
X69431319Y-91452914D01*
X69431319Y-91452914D01*
G37*
G36*
X70401319Y-91452914D02*
G01*
X70421916Y-91459162D01*
X70440900Y-91469310D01*
X70457537Y-91482963D01*
X70471190Y-91499600D01*
X70481338Y-91518584D01*
X70487586Y-91539181D01*
X70490300Y-91566740D01*
X70490300Y-92075260D01*
X70487586Y-92102819D01*
X70481338Y-92123416D01*
X70471190Y-92142400D01*
X70457537Y-92159037D01*
X70440900Y-92172690D01*
X70421916Y-92182838D01*
X70401319Y-92189086D01*
X70373760Y-92191800D01*
X69915240Y-92191800D01*
X69887681Y-92189086D01*
X69867084Y-92182838D01*
X69848100Y-92172690D01*
X69831463Y-92159037D01*
X69817810Y-92142400D01*
X69807662Y-92123416D01*
X69801414Y-92102819D01*
X69798700Y-92075260D01*
X69798700Y-91566740D01*
X69801414Y-91539181D01*
X69807662Y-91518584D01*
X69817810Y-91499600D01*
X69831463Y-91482963D01*
X69848100Y-91469310D01*
X69867084Y-91459162D01*
X69887681Y-91452914D01*
X69915240Y-91450200D01*
X70373760Y-91450200D01*
X70401319Y-91452914D01*
X70401319Y-91452914D01*
G37*
G36*
X58688900Y-88857846D02*
G01*
X58901521Y-88900139D01*
X59201947Y-89024580D01*
X59472324Y-89205240D01*
X59702260Y-89435176D01*
X59882920Y-89705553D01*
X60007361Y-90005979D01*
X60036401Y-90151975D01*
X60070800Y-90324909D01*
X60070800Y-90650091D01*
X60062680Y-90690914D01*
X60007361Y-90969021D01*
X59882920Y-91269447D01*
X59702260Y-91539824D01*
X59472324Y-91769760D01*
X59201947Y-91950420D01*
X58901521Y-92074861D01*
X58699939Y-92114958D01*
X58582591Y-92138300D01*
X58257409Y-92138300D01*
X58140061Y-92114958D01*
X57938479Y-92074861D01*
X57638053Y-91950420D01*
X57367676Y-91769760D01*
X57137740Y-91539824D01*
X56957080Y-91269447D01*
X56832639Y-90969021D01*
X56777320Y-90690914D01*
X56769200Y-90650091D01*
X56769200Y-90324909D01*
X56803599Y-90151975D01*
X56832639Y-90005979D01*
X56957080Y-89705553D01*
X57137740Y-89435176D01*
X57367676Y-89205240D01*
X57638053Y-89024580D01*
X57938479Y-88900139D01*
X58151100Y-88857846D01*
X58257409Y-88836700D01*
X58582591Y-88836700D01*
X58688900Y-88857846D01*
X58688900Y-88857846D01*
G37*
G36*
X65321319Y-90690914D02*
G01*
X65341916Y-90697162D01*
X65360900Y-90707310D01*
X65377537Y-90720963D01*
X65391190Y-90737600D01*
X65401338Y-90756584D01*
X65407586Y-90777181D01*
X65410300Y-90804740D01*
X65410300Y-91313260D01*
X65407586Y-91340819D01*
X65401338Y-91361416D01*
X65391190Y-91380400D01*
X65377537Y-91397037D01*
X65360900Y-91410690D01*
X65341916Y-91420838D01*
X65321319Y-91427086D01*
X65293760Y-91429800D01*
X64835240Y-91429800D01*
X64807681Y-91427086D01*
X64787084Y-91420838D01*
X64768100Y-91410690D01*
X64751463Y-91397037D01*
X64737810Y-91380400D01*
X64727662Y-91361416D01*
X64721414Y-91340819D01*
X64718700Y-91313260D01*
X64718700Y-90804740D01*
X64721414Y-90777181D01*
X64727662Y-90756584D01*
X64737810Y-90737600D01*
X64751463Y-90720963D01*
X64768100Y-90707310D01*
X64787084Y-90697162D01*
X64807681Y-90690914D01*
X64835240Y-90688200D01*
X65293760Y-90688200D01*
X65321319Y-90690914D01*
X65321319Y-90690914D01*
G37*
G36*
X64351319Y-90690914D02*
G01*
X64371916Y-90697162D01*
X64390900Y-90707310D01*
X64407537Y-90720963D01*
X64421190Y-90737600D01*
X64431338Y-90756584D01*
X64437586Y-90777181D01*
X64440300Y-90804740D01*
X64440300Y-91313260D01*
X64437586Y-91340819D01*
X64431338Y-91361416D01*
X64421190Y-91380400D01*
X64407537Y-91397037D01*
X64390900Y-91410690D01*
X64371916Y-91420838D01*
X64351319Y-91427086D01*
X64323760Y-91429800D01*
X63865240Y-91429800D01*
X63837681Y-91427086D01*
X63817084Y-91420838D01*
X63798100Y-91410690D01*
X63781463Y-91397037D01*
X63767810Y-91380400D01*
X63757662Y-91361416D01*
X63751414Y-91340819D01*
X63748700Y-91313260D01*
X63748700Y-90804740D01*
X63751414Y-90777181D01*
X63757662Y-90756584D01*
X63767810Y-90737600D01*
X63781463Y-90720963D01*
X63798100Y-90707310D01*
X63817084Y-90697162D01*
X63837681Y-90690914D01*
X63865240Y-90688200D01*
X64323760Y-90688200D01*
X64351319Y-90690914D01*
X64351319Y-90690914D01*
G37*
G36*
X67772429Y-90403482D02*
G01*
X67788807Y-90408450D01*
X67803899Y-90416517D01*
X67817127Y-90427373D01*
X67827983Y-90440601D01*
X67836050Y-90455693D01*
X67841018Y-90472071D01*
X67843300Y-90495241D01*
X67843300Y-90908759D01*
X67841018Y-90931929D01*
X67836050Y-90948307D01*
X67827983Y-90963399D01*
X67817127Y-90976627D01*
X67803899Y-90987483D01*
X67788807Y-90995550D01*
X67772429Y-91000518D01*
X67749259Y-91002800D01*
X66235741Y-91002800D01*
X66212571Y-91000518D01*
X66196193Y-90995550D01*
X66181101Y-90987483D01*
X66167873Y-90976627D01*
X66157017Y-90963399D01*
X66148950Y-90948307D01*
X66143982Y-90931929D01*
X66141700Y-90908759D01*
X66141700Y-90495241D01*
X66143982Y-90472071D01*
X66148950Y-90455693D01*
X66157017Y-90440601D01*
X66167873Y-90427373D01*
X66181101Y-90416517D01*
X66196193Y-90408450D01*
X66212571Y-90403482D01*
X66235741Y-90401200D01*
X67749259Y-90401200D01*
X67772429Y-90403482D01*
X67772429Y-90403482D01*
G37*
G36*
X64865043Y-89282814D02*
G01*
X64865046Y-89282815D01*
X64865045Y-89282815D01*
X64956039Y-89320506D01*
X64997263Y-89348051D01*
X65037930Y-89375224D01*
X65107576Y-89444870D01*
X65162295Y-89526763D01*
X65199986Y-89617757D01*
X65219200Y-89714353D01*
X65219200Y-89812847D01*
X65199986Y-89909443D01*
X65162295Y-90000437D01*
X65108000Y-90081696D01*
X65107575Y-90082331D01*
X65037931Y-90151975D01*
X64956039Y-90206694D01*
X64956038Y-90206695D01*
X64956037Y-90206695D01*
X64865043Y-90244386D01*
X64768447Y-90263600D01*
X64669953Y-90263600D01*
X64573357Y-90244386D01*
X64482363Y-90206695D01*
X64482362Y-90206695D01*
X64482361Y-90206694D01*
X64400469Y-90151975D01*
X64330825Y-90082331D01*
X64330401Y-90081696D01*
X64276105Y-90000437D01*
X64238414Y-89909443D01*
X64219200Y-89812847D01*
X64219200Y-89714353D01*
X64238414Y-89617757D01*
X64276105Y-89526763D01*
X64330824Y-89444870D01*
X64400470Y-89375224D01*
X64441137Y-89348051D01*
X64482361Y-89320506D01*
X64573355Y-89282815D01*
X64573354Y-89282815D01*
X64573357Y-89282814D01*
X64669953Y-89263600D01*
X64768447Y-89263600D01*
X64865043Y-89282814D01*
X64865043Y-89282814D01*
G37*
G36*
X72605362Y-88348985D02*
G01*
X72693588Y-88357674D01*
X72863389Y-88409183D01*
X72863392Y-88409184D01*
X73019878Y-88492828D01*
X73157044Y-88605396D01*
X73269612Y-88742562D01*
X73353256Y-88899048D01*
X73353257Y-88899051D01*
X73404766Y-89068852D01*
X73422158Y-89245440D01*
X73404766Y-89422028D01*
X73353257Y-89591829D01*
X73353256Y-89591832D01*
X73269612Y-89748318D01*
X73157044Y-89885484D01*
X73019878Y-89998052D01*
X72863392Y-90081696D01*
X72863389Y-90081697D01*
X72693588Y-90133206D01*
X72605362Y-90141895D01*
X72561250Y-90146240D01*
X72472750Y-90146240D01*
X72428638Y-90141895D01*
X72340412Y-90133206D01*
X72170611Y-90081697D01*
X72170608Y-90081696D01*
X72014122Y-89998052D01*
X71876956Y-89885484D01*
X71764388Y-89748318D01*
X71680744Y-89591832D01*
X71680743Y-89591829D01*
X71629234Y-89422028D01*
X71611842Y-89245440D01*
X71629234Y-89068852D01*
X71680743Y-88899051D01*
X71680744Y-88899048D01*
X71764388Y-88742562D01*
X71876956Y-88605396D01*
X72014122Y-88492828D01*
X72170608Y-88409184D01*
X72170611Y-88409183D01*
X72340412Y-88357674D01*
X72428638Y-88348985D01*
X72472750Y-88344640D01*
X72561250Y-88344640D01*
X72605362Y-88348985D01*
X72605362Y-88348985D01*
G37*
G36*
X70065362Y-88348985D02*
G01*
X70153588Y-88357674D01*
X70323389Y-88409183D01*
X70323392Y-88409184D01*
X70479878Y-88492828D01*
X70617044Y-88605396D01*
X70729612Y-88742562D01*
X70813256Y-88899048D01*
X70813257Y-88899051D01*
X70864766Y-89068852D01*
X70882158Y-89245440D01*
X70864766Y-89422028D01*
X70813257Y-89591829D01*
X70813256Y-89591832D01*
X70729612Y-89748318D01*
X70617044Y-89885484D01*
X70479878Y-89998052D01*
X70323392Y-90081696D01*
X70323389Y-90081697D01*
X70153588Y-90133206D01*
X70065362Y-90141895D01*
X70021250Y-90146240D01*
X69932750Y-90146240D01*
X69888638Y-90141895D01*
X69800412Y-90133206D01*
X69630611Y-90081697D01*
X69630608Y-90081696D01*
X69474122Y-89998052D01*
X69336956Y-89885484D01*
X69224388Y-89748318D01*
X69140744Y-89591832D01*
X69140743Y-89591829D01*
X69089234Y-89422028D01*
X69071842Y-89245440D01*
X69089234Y-89068852D01*
X69140743Y-88899051D01*
X69140744Y-88899048D01*
X69224388Y-88742562D01*
X69336956Y-88605396D01*
X69474122Y-88492828D01*
X69630608Y-88409184D01*
X69630611Y-88409183D01*
X69800412Y-88357674D01*
X69888638Y-88348985D01*
X69932750Y-88344640D01*
X70021250Y-88344640D01*
X70065362Y-88348985D01*
X70065362Y-88348985D01*
G37*
G36*
X75145362Y-88348985D02*
G01*
X75233588Y-88357674D01*
X75403389Y-88409183D01*
X75403392Y-88409184D01*
X75559878Y-88492828D01*
X75697044Y-88605396D01*
X75809612Y-88742562D01*
X75893256Y-88899048D01*
X75893257Y-88899051D01*
X75944766Y-89068852D01*
X75962158Y-89245440D01*
X75944766Y-89422028D01*
X75893257Y-89591829D01*
X75893256Y-89591832D01*
X75809612Y-89748318D01*
X75697044Y-89885484D01*
X75559878Y-89998052D01*
X75403392Y-90081696D01*
X75403389Y-90081697D01*
X75233588Y-90133206D01*
X75145362Y-90141895D01*
X75101250Y-90146240D01*
X75012750Y-90146240D01*
X74968638Y-90141895D01*
X74880412Y-90133206D01*
X74710611Y-90081697D01*
X74710608Y-90081696D01*
X74554122Y-89998052D01*
X74416956Y-89885484D01*
X74304388Y-89748318D01*
X74220744Y-89591832D01*
X74220743Y-89591829D01*
X74169234Y-89422028D01*
X74151842Y-89245440D01*
X74169234Y-89068852D01*
X74220743Y-88899051D01*
X74220744Y-88899048D01*
X74304388Y-88742562D01*
X74416956Y-88605396D01*
X74554122Y-88492828D01*
X74710608Y-88409184D01*
X74710611Y-88409183D01*
X74880412Y-88357674D01*
X74968638Y-88348985D01*
X75012750Y-88344640D01*
X75101250Y-88344640D01*
X75145362Y-88348985D01*
X75145362Y-88348985D01*
G37*
G36*
X77685362Y-88348985D02*
G01*
X77773588Y-88357674D01*
X77943389Y-88409183D01*
X77943392Y-88409184D01*
X78099878Y-88492828D01*
X78237044Y-88605396D01*
X78349612Y-88742562D01*
X78433256Y-88899048D01*
X78433257Y-88899051D01*
X78484766Y-89068852D01*
X78502158Y-89245440D01*
X78484766Y-89422028D01*
X78433257Y-89591829D01*
X78433256Y-89591832D01*
X78349612Y-89748318D01*
X78237044Y-89885484D01*
X78099878Y-89998052D01*
X77943392Y-90081696D01*
X77943389Y-90081697D01*
X77773588Y-90133206D01*
X77685362Y-90141895D01*
X77641250Y-90146240D01*
X77552750Y-90146240D01*
X77508638Y-90141895D01*
X77420412Y-90133206D01*
X77250611Y-90081697D01*
X77250608Y-90081696D01*
X77094122Y-89998052D01*
X76956956Y-89885484D01*
X76844388Y-89748318D01*
X76760744Y-89591832D01*
X76760743Y-89591829D01*
X76709234Y-89422028D01*
X76691842Y-89245440D01*
X76709234Y-89068852D01*
X76760743Y-88899051D01*
X76760744Y-88899048D01*
X76844388Y-88742562D01*
X76956956Y-88605396D01*
X77094122Y-88492828D01*
X77250608Y-88409184D01*
X77250611Y-88409183D01*
X77420412Y-88357674D01*
X77508638Y-88348985D01*
X77552750Y-88344640D01*
X77641250Y-88344640D01*
X77685362Y-88348985D01*
X77685362Y-88348985D01*
G37*
G36*
X103085362Y-88348985D02*
G01*
X103173588Y-88357674D01*
X103343389Y-88409183D01*
X103343392Y-88409184D01*
X103499878Y-88492828D01*
X103637044Y-88605396D01*
X103749612Y-88742562D01*
X103833256Y-88899048D01*
X103833257Y-88899051D01*
X103884766Y-89068852D01*
X103902158Y-89245440D01*
X103884766Y-89422028D01*
X103833257Y-89591829D01*
X103833256Y-89591832D01*
X103749612Y-89748318D01*
X103637044Y-89885484D01*
X103499878Y-89998052D01*
X103343392Y-90081696D01*
X103343389Y-90081697D01*
X103173588Y-90133206D01*
X103085362Y-90141895D01*
X103041250Y-90146240D01*
X102952750Y-90146240D01*
X102908638Y-90141895D01*
X102820412Y-90133206D01*
X102650611Y-90081697D01*
X102650608Y-90081696D01*
X102494122Y-89998052D01*
X102356956Y-89885484D01*
X102244388Y-89748318D01*
X102160744Y-89591832D01*
X102160743Y-89591829D01*
X102109234Y-89422028D01*
X102091842Y-89245440D01*
X102109234Y-89068852D01*
X102160743Y-88899051D01*
X102160744Y-88899048D01*
X102244388Y-88742562D01*
X102356956Y-88605396D01*
X102494122Y-88492828D01*
X102650608Y-88409184D01*
X102650611Y-88409183D01*
X102820412Y-88357674D01*
X102908638Y-88348985D01*
X102952750Y-88344640D01*
X103041250Y-88344640D01*
X103085362Y-88348985D01*
X103085362Y-88348985D01*
G37*
G36*
X100545362Y-88348985D02*
G01*
X100633588Y-88357674D01*
X100803389Y-88409183D01*
X100803392Y-88409184D01*
X100959878Y-88492828D01*
X101097044Y-88605396D01*
X101209612Y-88742562D01*
X101293256Y-88899048D01*
X101293257Y-88899051D01*
X101344766Y-89068852D01*
X101362158Y-89245440D01*
X101344766Y-89422028D01*
X101293257Y-89591829D01*
X101293256Y-89591832D01*
X101209612Y-89748318D01*
X101097044Y-89885484D01*
X100959878Y-89998052D01*
X100803392Y-90081696D01*
X100803389Y-90081697D01*
X100633588Y-90133206D01*
X100545362Y-90141895D01*
X100501250Y-90146240D01*
X100412750Y-90146240D01*
X100368638Y-90141895D01*
X100280412Y-90133206D01*
X100110611Y-90081697D01*
X100110608Y-90081696D01*
X99954122Y-89998052D01*
X99816956Y-89885484D01*
X99704388Y-89748318D01*
X99620744Y-89591832D01*
X99620743Y-89591829D01*
X99569234Y-89422028D01*
X99551842Y-89245440D01*
X99569234Y-89068852D01*
X99620743Y-88899051D01*
X99620744Y-88899048D01*
X99704388Y-88742562D01*
X99816956Y-88605396D01*
X99954122Y-88492828D01*
X100110608Y-88409184D01*
X100110611Y-88409183D01*
X100280412Y-88357674D01*
X100368638Y-88348985D01*
X100412750Y-88344640D01*
X100501250Y-88344640D01*
X100545362Y-88348985D01*
X100545362Y-88348985D01*
G37*
G36*
X98005362Y-88348985D02*
G01*
X98093588Y-88357674D01*
X98263389Y-88409183D01*
X98263392Y-88409184D01*
X98419878Y-88492828D01*
X98557044Y-88605396D01*
X98669612Y-88742562D01*
X98753256Y-88899048D01*
X98753257Y-88899051D01*
X98804766Y-89068852D01*
X98822158Y-89245440D01*
X98804766Y-89422028D01*
X98753257Y-89591829D01*
X98753256Y-89591832D01*
X98669612Y-89748318D01*
X98557044Y-89885484D01*
X98419878Y-89998052D01*
X98263392Y-90081696D01*
X98263389Y-90081697D01*
X98093588Y-90133206D01*
X98005362Y-90141895D01*
X97961250Y-90146240D01*
X97872750Y-90146240D01*
X97828638Y-90141895D01*
X97740412Y-90133206D01*
X97570611Y-90081697D01*
X97570608Y-90081696D01*
X97414122Y-89998052D01*
X97276956Y-89885484D01*
X97164388Y-89748318D01*
X97080744Y-89591832D01*
X97080743Y-89591829D01*
X97029234Y-89422028D01*
X97011842Y-89245440D01*
X97029234Y-89068852D01*
X97080743Y-88899051D01*
X97080744Y-88899048D01*
X97164388Y-88742562D01*
X97276956Y-88605396D01*
X97414122Y-88492828D01*
X97570608Y-88409184D01*
X97570611Y-88409183D01*
X97740412Y-88357674D01*
X97828638Y-88348985D01*
X97872750Y-88344640D01*
X97961250Y-88344640D01*
X98005362Y-88348985D01*
X98005362Y-88348985D01*
G37*
G36*
X95465362Y-88348985D02*
G01*
X95553588Y-88357674D01*
X95723389Y-88409183D01*
X95723392Y-88409184D01*
X95879878Y-88492828D01*
X96017044Y-88605396D01*
X96129612Y-88742562D01*
X96213256Y-88899048D01*
X96213257Y-88899051D01*
X96264766Y-89068852D01*
X96282158Y-89245440D01*
X96264766Y-89422028D01*
X96213257Y-89591829D01*
X96213256Y-89591832D01*
X96129612Y-89748318D01*
X96017044Y-89885484D01*
X95879878Y-89998052D01*
X95723392Y-90081696D01*
X95723389Y-90081697D01*
X95553588Y-90133206D01*
X95465362Y-90141895D01*
X95421250Y-90146240D01*
X95332750Y-90146240D01*
X95288638Y-90141895D01*
X95200412Y-90133206D01*
X95030611Y-90081697D01*
X95030608Y-90081696D01*
X94874122Y-89998052D01*
X94736956Y-89885484D01*
X94624388Y-89748318D01*
X94540744Y-89591832D01*
X94540743Y-89591829D01*
X94489234Y-89422028D01*
X94471842Y-89245440D01*
X94489234Y-89068852D01*
X94540743Y-88899051D01*
X94540744Y-88899048D01*
X94624388Y-88742562D01*
X94736956Y-88605396D01*
X94874122Y-88492828D01*
X95030608Y-88409184D01*
X95030611Y-88409183D01*
X95200412Y-88357674D01*
X95288638Y-88348985D01*
X95332750Y-88344640D01*
X95421250Y-88344640D01*
X95465362Y-88348985D01*
X95465362Y-88348985D01*
G37*
G36*
X92925362Y-88348985D02*
G01*
X93013588Y-88357674D01*
X93183389Y-88409183D01*
X93183392Y-88409184D01*
X93339878Y-88492828D01*
X93477044Y-88605396D01*
X93589612Y-88742562D01*
X93673256Y-88899048D01*
X93673257Y-88899051D01*
X93724766Y-89068852D01*
X93742158Y-89245440D01*
X93724766Y-89422028D01*
X93673257Y-89591829D01*
X93673256Y-89591832D01*
X93589612Y-89748318D01*
X93477044Y-89885484D01*
X93339878Y-89998052D01*
X93183392Y-90081696D01*
X93183389Y-90081697D01*
X93013588Y-90133206D01*
X92925362Y-90141895D01*
X92881250Y-90146240D01*
X92792750Y-90146240D01*
X92748638Y-90141895D01*
X92660412Y-90133206D01*
X92490611Y-90081697D01*
X92490608Y-90081696D01*
X92334122Y-89998052D01*
X92196956Y-89885484D01*
X92084388Y-89748318D01*
X92000744Y-89591832D01*
X92000743Y-89591829D01*
X91949234Y-89422028D01*
X91931842Y-89245440D01*
X91949234Y-89068852D01*
X92000743Y-88899051D01*
X92000744Y-88899048D01*
X92084388Y-88742562D01*
X92196956Y-88605396D01*
X92334122Y-88492828D01*
X92490608Y-88409184D01*
X92490611Y-88409183D01*
X92660412Y-88357674D01*
X92748638Y-88348985D01*
X92792750Y-88344640D01*
X92881250Y-88344640D01*
X92925362Y-88348985D01*
X92925362Y-88348985D01*
G37*
G36*
X80225362Y-88348985D02*
G01*
X80313588Y-88357674D01*
X80483389Y-88409183D01*
X80483392Y-88409184D01*
X80639878Y-88492828D01*
X80777044Y-88605396D01*
X80889612Y-88742562D01*
X80973256Y-88899048D01*
X80973257Y-88899051D01*
X81024766Y-89068852D01*
X81042158Y-89245440D01*
X81024766Y-89422028D01*
X80973257Y-89591829D01*
X80973256Y-89591832D01*
X80889612Y-89748318D01*
X80777044Y-89885484D01*
X80639878Y-89998052D01*
X80483392Y-90081696D01*
X80483389Y-90081697D01*
X80313588Y-90133206D01*
X80225362Y-90141895D01*
X80181250Y-90146240D01*
X80092750Y-90146240D01*
X80048638Y-90141895D01*
X79960412Y-90133206D01*
X79790611Y-90081697D01*
X79790608Y-90081696D01*
X79634122Y-89998052D01*
X79496956Y-89885484D01*
X79384388Y-89748318D01*
X79300744Y-89591832D01*
X79300743Y-89591829D01*
X79249234Y-89422028D01*
X79231842Y-89245440D01*
X79249234Y-89068852D01*
X79300743Y-88899051D01*
X79300744Y-88899048D01*
X79384388Y-88742562D01*
X79496956Y-88605396D01*
X79634122Y-88492828D01*
X79790608Y-88409184D01*
X79790611Y-88409183D01*
X79960412Y-88357674D01*
X80048638Y-88348985D01*
X80092750Y-88344640D01*
X80181250Y-88344640D01*
X80225362Y-88348985D01*
X80225362Y-88348985D01*
G37*
G36*
X90385362Y-88348985D02*
G01*
X90473588Y-88357674D01*
X90643389Y-88409183D01*
X90643392Y-88409184D01*
X90799878Y-88492828D01*
X90937044Y-88605396D01*
X91049612Y-88742562D01*
X91133256Y-88899048D01*
X91133257Y-88899051D01*
X91184766Y-89068852D01*
X91202158Y-89245440D01*
X91184766Y-89422028D01*
X91133257Y-89591829D01*
X91133256Y-89591832D01*
X91049612Y-89748318D01*
X90937044Y-89885484D01*
X90799878Y-89998052D01*
X90643392Y-90081696D01*
X90643389Y-90081697D01*
X90473588Y-90133206D01*
X90385362Y-90141895D01*
X90341250Y-90146240D01*
X90252750Y-90146240D01*
X90208638Y-90141895D01*
X90120412Y-90133206D01*
X89950611Y-90081697D01*
X89950608Y-90081696D01*
X89794122Y-89998052D01*
X89656956Y-89885484D01*
X89544388Y-89748318D01*
X89460744Y-89591832D01*
X89460743Y-89591829D01*
X89409234Y-89422028D01*
X89391842Y-89245440D01*
X89409234Y-89068852D01*
X89460743Y-88899051D01*
X89460744Y-88899048D01*
X89544388Y-88742562D01*
X89656956Y-88605396D01*
X89794122Y-88492828D01*
X89950608Y-88409184D01*
X89950611Y-88409183D01*
X90120412Y-88357674D01*
X90208638Y-88348985D01*
X90252750Y-88344640D01*
X90341250Y-88344640D01*
X90385362Y-88348985D01*
X90385362Y-88348985D01*
G37*
G36*
X82765362Y-88348985D02*
G01*
X82853588Y-88357674D01*
X83023389Y-88409183D01*
X83023392Y-88409184D01*
X83179878Y-88492828D01*
X83317044Y-88605396D01*
X83429612Y-88742562D01*
X83513256Y-88899048D01*
X83513257Y-88899051D01*
X83564766Y-89068852D01*
X83582158Y-89245440D01*
X83564766Y-89422028D01*
X83513257Y-89591829D01*
X83513256Y-89591832D01*
X83429612Y-89748318D01*
X83317044Y-89885484D01*
X83179878Y-89998052D01*
X83023392Y-90081696D01*
X83023389Y-90081697D01*
X82853588Y-90133206D01*
X82765362Y-90141895D01*
X82721250Y-90146240D01*
X82632750Y-90146240D01*
X82588638Y-90141895D01*
X82500412Y-90133206D01*
X82330611Y-90081697D01*
X82330608Y-90081696D01*
X82174122Y-89998052D01*
X82036956Y-89885484D01*
X81924388Y-89748318D01*
X81840744Y-89591832D01*
X81840743Y-89591829D01*
X81789234Y-89422028D01*
X81771842Y-89245440D01*
X81789234Y-89068852D01*
X81840743Y-88899051D01*
X81840744Y-88899048D01*
X81924388Y-88742562D01*
X82036956Y-88605396D01*
X82174122Y-88492828D01*
X82330608Y-88409184D01*
X82330611Y-88409183D01*
X82500412Y-88357674D01*
X82588638Y-88348985D01*
X82632750Y-88344640D01*
X82721250Y-88344640D01*
X82765362Y-88348985D01*
X82765362Y-88348985D01*
G37*
G36*
X87845362Y-88348985D02*
G01*
X87933588Y-88357674D01*
X88103389Y-88409183D01*
X88103392Y-88409184D01*
X88259878Y-88492828D01*
X88397044Y-88605396D01*
X88509612Y-88742562D01*
X88593256Y-88899048D01*
X88593257Y-88899051D01*
X88644766Y-89068852D01*
X88662158Y-89245440D01*
X88644766Y-89422028D01*
X88593257Y-89591829D01*
X88593256Y-89591832D01*
X88509612Y-89748318D01*
X88397044Y-89885484D01*
X88259878Y-89998052D01*
X88103392Y-90081696D01*
X88103389Y-90081697D01*
X87933588Y-90133206D01*
X87845362Y-90141895D01*
X87801250Y-90146240D01*
X87712750Y-90146240D01*
X87668638Y-90141895D01*
X87580412Y-90133206D01*
X87410611Y-90081697D01*
X87410608Y-90081696D01*
X87254122Y-89998052D01*
X87116956Y-89885484D01*
X87004388Y-89748318D01*
X86920744Y-89591832D01*
X86920743Y-89591829D01*
X86869234Y-89422028D01*
X86851842Y-89245440D01*
X86869234Y-89068852D01*
X86920743Y-88899051D01*
X86920744Y-88899048D01*
X87004388Y-88742562D01*
X87116956Y-88605396D01*
X87254122Y-88492828D01*
X87410608Y-88409184D01*
X87410611Y-88409183D01*
X87580412Y-88357674D01*
X87668638Y-88348985D01*
X87712750Y-88344640D01*
X87801250Y-88344640D01*
X87845362Y-88348985D01*
X87845362Y-88348985D01*
G37*
G36*
X85305362Y-88348985D02*
G01*
X85393588Y-88357674D01*
X85563389Y-88409183D01*
X85563392Y-88409184D01*
X85719878Y-88492828D01*
X85857044Y-88605396D01*
X85969612Y-88742562D01*
X86053256Y-88899048D01*
X86053257Y-88899051D01*
X86104766Y-89068852D01*
X86122158Y-89245440D01*
X86104766Y-89422028D01*
X86053257Y-89591829D01*
X86053256Y-89591832D01*
X85969612Y-89748318D01*
X85857044Y-89885484D01*
X85719878Y-89998052D01*
X85563392Y-90081696D01*
X85563389Y-90081697D01*
X85393588Y-90133206D01*
X85305362Y-90141895D01*
X85261250Y-90146240D01*
X85172750Y-90146240D01*
X85128638Y-90141895D01*
X85040412Y-90133206D01*
X84870611Y-90081697D01*
X84870608Y-90081696D01*
X84714122Y-89998052D01*
X84576956Y-89885484D01*
X84464388Y-89748318D01*
X84380744Y-89591832D01*
X84380743Y-89591829D01*
X84329234Y-89422028D01*
X84311842Y-89245440D01*
X84329234Y-89068852D01*
X84380743Y-88899051D01*
X84380744Y-88899048D01*
X84464388Y-88742562D01*
X84576956Y-88605396D01*
X84714122Y-88492828D01*
X84870608Y-88409184D01*
X84870611Y-88409183D01*
X85040412Y-88357674D01*
X85128638Y-88348985D01*
X85172750Y-88344640D01*
X85261250Y-88344640D01*
X85305362Y-88348985D01*
X85305362Y-88348985D01*
G37*
G36*
X104793843Y-88114414D02*
G01*
X104793846Y-88114415D01*
X104793845Y-88114415D01*
X104884839Y-88152106D01*
X104926063Y-88179651D01*
X104966730Y-88206824D01*
X105036376Y-88276470D01*
X105091095Y-88358363D01*
X105128786Y-88449357D01*
X105148000Y-88545953D01*
X105148000Y-88644447D01*
X105128786Y-88741043D01*
X105128785Y-88741045D01*
X105091094Y-88832039D01*
X105036375Y-88913931D01*
X104966731Y-88983575D01*
X104884839Y-89038294D01*
X104884838Y-89038295D01*
X104884837Y-89038295D01*
X104793843Y-89075986D01*
X104697247Y-89095200D01*
X104598753Y-89095200D01*
X104502157Y-89075986D01*
X104411163Y-89038295D01*
X104411162Y-89038295D01*
X104411161Y-89038294D01*
X104329269Y-88983575D01*
X104259625Y-88913931D01*
X104204906Y-88832039D01*
X104167215Y-88741045D01*
X104167214Y-88741043D01*
X104148000Y-88644447D01*
X104148000Y-88545953D01*
X104167214Y-88449357D01*
X104204905Y-88358363D01*
X104259624Y-88276470D01*
X104329270Y-88206824D01*
X104369937Y-88179651D01*
X104411161Y-88152106D01*
X104502155Y-88114415D01*
X104502154Y-88114415D01*
X104502157Y-88114414D01*
X104598753Y-88095200D01*
X104697247Y-88095200D01*
X104793843Y-88114414D01*
X104793843Y-88114414D01*
G37*
M02*
