M48
; DRILL file {KiCad (6.0.0-rc1-dev-1614-ge850a482d)} date 3/8/2019 8:34:59 AM
; FORMAT={-:-/ absolute / inch / decimal}
; #@! TF.CreationDate,2019-03-08T08:34:59-08:00
; #@! TF.GenerationSoftware,Kicad,Pcbnew,(6.0.0-rc1-dev-1614-ge850a482d)
FMAT,2
INCH
T1C0.0100
T2C0.0354
T3C0.0394
T4C0.0472
T5C0.0984
%
G90
G05
T1
X2.2929Y-3.6528
X2.3524Y-3.9024
X2.355Y-3.6912
X2.395Y-3.8884
X2.3951Y-3.9648
X2.4032Y-4.0754
X2.412Y-3.74
X2.4604Y-3.7617
X2.4652Y-3.788
X2.4811Y-3.6697
X2.4827Y-3.7394
X2.4848Y-4.2038
X2.4914Y-4.1201
X2.4914Y-4.1581
X2.4929Y-3.5846
X2.4929Y-3.6323
X2.514Y-4.084
X2.522Y-4.21
X2.528Y-4.1764
X2.528Y-4.128
X2.5528Y-3.7071
X2.5585Y-4.0425
X2.5592Y-3.8465
X2.5905Y-4.1866
X2.592Y-3.9324
X2.618Y-4.091
X2.6226Y-3.7469
X2.6256Y-3.8039
X2.6295Y-4.2055
X2.6638Y-3.743
X2.6789Y-4.093
X2.6843Y-3.6457
X2.692Y-3.7476
X2.7205Y-3.8102
X2.7272Y-3.6453
X2.7445Y-3.7335
X2.7492Y-3.7592
X2.7638Y-4.0175
X2.7847Y-4.1815
X2.7892Y-3.7327
X2.7988Y-3.5988
X2.805Y-3.87
X2.8088Y-3.8424
X2.8119Y-4.1823
X2.8559Y-3.5749
X2.856Y-3.863
X2.8573Y-4.1872
X2.8968Y-4.0161
X2.9058Y-4.045
X2.908Y-4.1938
X2.9104Y-3.8939
X2.9112Y-3.805
X2.9124Y-3.932
X2.9158Y-3.87
X2.9158Y-3.9574
X2.9228Y-4.1307
X2.9875Y-3.6175
X2.9875Y-3.7175
X2.989Y-3.6733
X3.035Y-3.9044
X3.0614Y-3.9307
X3.1051Y-4.2055
X3.1075Y-3.7709
X3.1075Y-3.8661
X3.1351Y-4.0856
X3.165Y-3.6252
X3.165Y-3.6724
X3.2Y-3.963
X3.2079Y-3.6185
X3.2162Y-3.7175
X3.2162Y-4.1175
X3.2175Y-3.78
X3.2449Y-3.9717
X3.2679Y-4.1698
X3.301Y-3.6892
X3.301Y-3.7392
X3.3583Y-3.9717
X3.37Y-3.8375
X3.37Y-3.9225
X3.3705Y-3.7272
X3.3725Y-3.7675
X3.375Y-4.1875
X3.3772Y-4.1177
X3.423Y-4.1925
X3.451Y-3.7082
X3.451Y-4.0193
X3.4823Y-4.1888
X3.5706Y-4.2069
X3.6035Y-4.1878
X3.64Y-3.865
X3.6433Y-3.9998
X3.6594Y-4.2422
X3.7185Y-4.1783
X3.7555Y-4.203
X3.77Y-3.865
X3.776Y-3.9998
X3.81Y-4.19
X3.85Y-4.19
X3.905Y-3.935
X3.905Y-3.8925
X3.9058Y-4.2482
X3.9063Y-3.7618
X3.9075Y-3.85
X3.9079Y-3.8051
X3.9284Y-4.1927
X3.9343Y-3.6262
X3.9555Y-3.5876
X3.9559Y-4.2378
X3.989Y-3.6744
X3.9996Y-4.2008
X4.0083Y-3.5799
T2
X2.3961Y-3.8152
X2.3961Y-4.012
X2.555Y-4.3136
X2.655Y-4.3136
X2.755Y-4.3136
X2.855Y-4.3136
X2.955Y-4.3136
X3.055Y-4.3136
X3.155Y-4.3136
X3.255Y-4.3136
X3.355Y-4.3136
X3.455Y-4.3136
X3.555Y-4.3136
X3.655Y-4.3136
X3.755Y-4.3136
X3.855Y-4.3136
X3.955Y-4.3136
X4.055Y-4.3136
T3
X2.755Y-3.5136
X2.855Y-3.5136
X2.955Y-3.5136
X3.055Y-3.5136
X3.155Y-3.5136
X3.255Y-3.5136
X3.355Y-3.5136
X3.455Y-3.5136
X3.555Y-3.5136
X3.655Y-3.5136
X3.755Y-3.5136
X3.855Y-3.5136
X3.955Y-3.5136
X4.055Y-3.5136
X2.455Y-4.3136
T4
X2.2898Y-3.7758
X2.2898Y-4.0514
T5
X2.3Y-3.5625
X2.3Y-4.26
T0
M30
