%TF.GenerationSoftware,KiCad,Pcbnew,(6.0.0-rc1-dev-1614-ge850a482d)*%
%TF.CreationDate,2019-03-08T08:34:45-08:00*%
%TF.ProjectId,SAM32,53414d33-322e-46b6-9963-61645f706362,rev?*%
%TF.SameCoordinates,Original*%
%TF.FileFunction,Paste,Top*%
%TF.FilePolarity,Positive*%
%FSLAX46Y46*%
G04 Gerber Fmt 4.6, Leading zero omitted, Abs format (unit mm)*
G04 Created by KiCad (PCBNEW (6.0.0-rc1-dev-1614-ge850a482d)) date 2019-03-08 08:34:45*
%MOMM*%
%LPD*%
G04 APERTURE LIST*
%ADD10C,0.508000*%
%ADD11C,0.150000*%
%ADD12C,0.590000*%
%ADD13R,0.350000X0.350000*%
%ADD14R,1.000000X0.850000*%
%ADD15C,1.500000*%
%ADD16C,0.800000*%
%ADD17R,1.550000X1.500000*%
%ADD18R,1.350000X0.450000*%
%ADD19C,0.875000*%
%ADD20R,0.900000X0.900000*%
%ADD21R,1.560000X1.000000*%
%ADD22R,1.200000X0.550000*%
%ADD23R,0.635000X1.016000*%
%ADD24R,0.900000X1.200000*%
%ADD25R,1.200000X0.900000*%
G04 APERTURE END LIST*
D10*
X109192060Y-106945080D02*
X109192060Y-108498640D01*
X106652060Y-111038640D02*
G75*
G03X109192060Y-108498640I0J2540000D01*
G01*
X103755076Y-102181768D02*
X109192060Y-106945080D01*
X55852060Y-96296067D02*
X56300000Y-96740000D01*
X103758052Y-96469398D02*
X109220013Y-91690000D01*
X103758039Y-96469407D02*
G75*
G03X103628512Y-96721166I160472J-241760D01*
G01*
X103755063Y-102181759D02*
G75*
G02X103625536Y-101930000I160472J241760D01*
G01*
X103625536Y-101930000D02*
X103628512Y-96721166D01*
X55852060Y-102438136D02*
X56300000Y-101994203D01*
X56300000Y-101994203D02*
G75*
G03X56361488Y-101805369I-228511J178835D01*
G01*
X56300000Y-96740000D02*
G75*
G02X56361488Y-96928834I-228511J-178835D01*
G01*
X108205221Y-90615720D02*
G75*
G03X108205221Y-90615720I-1652221J0D01*
G01*
X108205221Y-108205220D02*
G75*
G03X108205221Y-108205220I-1652221J0D01*
G01*
X109220013Y-90136440D02*
X109220013Y-91690000D01*
X55852060Y-90136440D02*
X55852060Y-96296067D01*
X106680013Y-87596440D02*
G75*
G02X109220013Y-90136440I0J-2540000D01*
G01*
X55852060Y-102438136D02*
X55852060Y-108498640D01*
X106680013Y-87596440D02*
X58392060Y-87596440D01*
X58392060Y-111038640D02*
X106652060Y-111038640D01*
X55852060Y-90136440D02*
G75*
G02X58392060Y-87596440I2540000J0D01*
G01*
X56361488Y-96928834D02*
X56361488Y-101805369D01*
X58392060Y-111038640D02*
G75*
G02X55852060Y-108498640I0J2540000D01*
G01*
D11*
G36*
X91666060Y-97373440D02*
G01*
X91666060Y-99151440D01*
X93444060Y-99151440D01*
X93444060Y-97373440D01*
X91666060Y-97373440D01*
G37*
G36*
X91666060Y-100421440D02*
G01*
X91666060Y-102199440D01*
X93444060Y-102199440D01*
X93444060Y-100421440D01*
X91666060Y-100421440D01*
G37*
G36*
X94714060Y-100421440D02*
G01*
X94714060Y-102199440D01*
X96492060Y-102199440D01*
X96492060Y-100421440D01*
X94714060Y-100421440D01*
G37*
G36*
X94714060Y-97373440D02*
G01*
X94714060Y-99151440D01*
X96492060Y-99151440D01*
X96492060Y-97373440D01*
X94714060Y-97373440D01*
G37*
G36*
X74418458Y-104013210D02*
G01*
X74432776Y-104015334D01*
X74446817Y-104018851D01*
X74460446Y-104023728D01*
X74473531Y-104029917D01*
X74485947Y-104037358D01*
X74497573Y-104045981D01*
X74508298Y-104055702D01*
X74518019Y-104066427D01*
X74526642Y-104078053D01*
X74534083Y-104090469D01*
X74540272Y-104103554D01*
X74545149Y-104117183D01*
X74548666Y-104131224D01*
X74550790Y-104145542D01*
X74551500Y-104160000D01*
X74551500Y-104455000D01*
X74550790Y-104469458D01*
X74548666Y-104483776D01*
X74545149Y-104497817D01*
X74540272Y-104511446D01*
X74534083Y-104524531D01*
X74526642Y-104536947D01*
X74518019Y-104548573D01*
X74508298Y-104559298D01*
X74497573Y-104569019D01*
X74485947Y-104577642D01*
X74473531Y-104585083D01*
X74460446Y-104591272D01*
X74446817Y-104596149D01*
X74432776Y-104599666D01*
X74418458Y-104601790D01*
X74404000Y-104602500D01*
X74059000Y-104602500D01*
X74044542Y-104601790D01*
X74030224Y-104599666D01*
X74016183Y-104596149D01*
X74002554Y-104591272D01*
X73989469Y-104585083D01*
X73977053Y-104577642D01*
X73965427Y-104569019D01*
X73954702Y-104559298D01*
X73944981Y-104548573D01*
X73936358Y-104536947D01*
X73928917Y-104524531D01*
X73922728Y-104511446D01*
X73917851Y-104497817D01*
X73914334Y-104483776D01*
X73912210Y-104469458D01*
X73911500Y-104455000D01*
X73911500Y-104160000D01*
X73912210Y-104145542D01*
X73914334Y-104131224D01*
X73917851Y-104117183D01*
X73922728Y-104103554D01*
X73928917Y-104090469D01*
X73936358Y-104078053D01*
X73944981Y-104066427D01*
X73954702Y-104055702D01*
X73965427Y-104045981D01*
X73977053Y-104037358D01*
X73989469Y-104029917D01*
X74002554Y-104023728D01*
X74016183Y-104018851D01*
X74030224Y-104015334D01*
X74044542Y-104013210D01*
X74059000Y-104012500D01*
X74404000Y-104012500D01*
X74418458Y-104013210D01*
X74418458Y-104013210D01*
G37*
D12*
X74231500Y-104307500D03*
D11*
G36*
X74418458Y-103043210D02*
G01*
X74432776Y-103045334D01*
X74446817Y-103048851D01*
X74460446Y-103053728D01*
X74473531Y-103059917D01*
X74485947Y-103067358D01*
X74497573Y-103075981D01*
X74508298Y-103085702D01*
X74518019Y-103096427D01*
X74526642Y-103108053D01*
X74534083Y-103120469D01*
X74540272Y-103133554D01*
X74545149Y-103147183D01*
X74548666Y-103161224D01*
X74550790Y-103175542D01*
X74551500Y-103190000D01*
X74551500Y-103485000D01*
X74550790Y-103499458D01*
X74548666Y-103513776D01*
X74545149Y-103527817D01*
X74540272Y-103541446D01*
X74534083Y-103554531D01*
X74526642Y-103566947D01*
X74518019Y-103578573D01*
X74508298Y-103589298D01*
X74497573Y-103599019D01*
X74485947Y-103607642D01*
X74473531Y-103615083D01*
X74460446Y-103621272D01*
X74446817Y-103626149D01*
X74432776Y-103629666D01*
X74418458Y-103631790D01*
X74404000Y-103632500D01*
X74059000Y-103632500D01*
X74044542Y-103631790D01*
X74030224Y-103629666D01*
X74016183Y-103626149D01*
X74002554Y-103621272D01*
X73989469Y-103615083D01*
X73977053Y-103607642D01*
X73965427Y-103599019D01*
X73954702Y-103589298D01*
X73944981Y-103578573D01*
X73936358Y-103566947D01*
X73928917Y-103554531D01*
X73922728Y-103541446D01*
X73917851Y-103527817D01*
X73914334Y-103513776D01*
X73912210Y-103499458D01*
X73911500Y-103485000D01*
X73911500Y-103190000D01*
X73912210Y-103175542D01*
X73914334Y-103161224D01*
X73917851Y-103147183D01*
X73922728Y-103133554D01*
X73928917Y-103120469D01*
X73936358Y-103108053D01*
X73944981Y-103096427D01*
X73954702Y-103085702D01*
X73965427Y-103075981D01*
X73977053Y-103067358D01*
X73989469Y-103059917D01*
X74002554Y-103053728D01*
X74016183Y-103048851D01*
X74030224Y-103045334D01*
X74044542Y-103043210D01*
X74059000Y-103042500D01*
X74404000Y-103042500D01*
X74418458Y-103043210D01*
X74418458Y-103043210D01*
G37*
D12*
X74231500Y-103337500D03*
D11*
G36*
X71203358Y-103947710D02*
G01*
X71217676Y-103949834D01*
X71231717Y-103953351D01*
X71245346Y-103958228D01*
X71258431Y-103964417D01*
X71270847Y-103971858D01*
X71282473Y-103980481D01*
X71293198Y-103990202D01*
X71302919Y-104000927D01*
X71311542Y-104012553D01*
X71318983Y-104024969D01*
X71325172Y-104038054D01*
X71330049Y-104051683D01*
X71333566Y-104065724D01*
X71335690Y-104080042D01*
X71336400Y-104094500D01*
X71336400Y-104439500D01*
X71335690Y-104453958D01*
X71333566Y-104468276D01*
X71330049Y-104482317D01*
X71325172Y-104495946D01*
X71318983Y-104509031D01*
X71311542Y-104521447D01*
X71302919Y-104533073D01*
X71293198Y-104543798D01*
X71282473Y-104553519D01*
X71270847Y-104562142D01*
X71258431Y-104569583D01*
X71245346Y-104575772D01*
X71231717Y-104580649D01*
X71217676Y-104584166D01*
X71203358Y-104586290D01*
X71188900Y-104587000D01*
X70893900Y-104587000D01*
X70879442Y-104586290D01*
X70865124Y-104584166D01*
X70851083Y-104580649D01*
X70837454Y-104575772D01*
X70824369Y-104569583D01*
X70811953Y-104562142D01*
X70800327Y-104553519D01*
X70789602Y-104543798D01*
X70779881Y-104533073D01*
X70771258Y-104521447D01*
X70763817Y-104509031D01*
X70757628Y-104495946D01*
X70752751Y-104482317D01*
X70749234Y-104468276D01*
X70747110Y-104453958D01*
X70746400Y-104439500D01*
X70746400Y-104094500D01*
X70747110Y-104080042D01*
X70749234Y-104065724D01*
X70752751Y-104051683D01*
X70757628Y-104038054D01*
X70763817Y-104024969D01*
X70771258Y-104012553D01*
X70779881Y-104000927D01*
X70789602Y-103990202D01*
X70800327Y-103980481D01*
X70811953Y-103971858D01*
X70824369Y-103964417D01*
X70837454Y-103958228D01*
X70851083Y-103953351D01*
X70865124Y-103949834D01*
X70879442Y-103947710D01*
X70893900Y-103947000D01*
X71188900Y-103947000D01*
X71203358Y-103947710D01*
X71203358Y-103947710D01*
G37*
D12*
X71041400Y-104267000D03*
D11*
G36*
X72173358Y-103947710D02*
G01*
X72187676Y-103949834D01*
X72201717Y-103953351D01*
X72215346Y-103958228D01*
X72228431Y-103964417D01*
X72240847Y-103971858D01*
X72252473Y-103980481D01*
X72263198Y-103990202D01*
X72272919Y-104000927D01*
X72281542Y-104012553D01*
X72288983Y-104024969D01*
X72295172Y-104038054D01*
X72300049Y-104051683D01*
X72303566Y-104065724D01*
X72305690Y-104080042D01*
X72306400Y-104094500D01*
X72306400Y-104439500D01*
X72305690Y-104453958D01*
X72303566Y-104468276D01*
X72300049Y-104482317D01*
X72295172Y-104495946D01*
X72288983Y-104509031D01*
X72281542Y-104521447D01*
X72272919Y-104533073D01*
X72263198Y-104543798D01*
X72252473Y-104553519D01*
X72240847Y-104562142D01*
X72228431Y-104569583D01*
X72215346Y-104575772D01*
X72201717Y-104580649D01*
X72187676Y-104584166D01*
X72173358Y-104586290D01*
X72158900Y-104587000D01*
X71863900Y-104587000D01*
X71849442Y-104586290D01*
X71835124Y-104584166D01*
X71821083Y-104580649D01*
X71807454Y-104575772D01*
X71794369Y-104569583D01*
X71781953Y-104562142D01*
X71770327Y-104553519D01*
X71759602Y-104543798D01*
X71749881Y-104533073D01*
X71741258Y-104521447D01*
X71733817Y-104509031D01*
X71727628Y-104495946D01*
X71722751Y-104482317D01*
X71719234Y-104468276D01*
X71717110Y-104453958D01*
X71716400Y-104439500D01*
X71716400Y-104094500D01*
X71717110Y-104080042D01*
X71719234Y-104065724D01*
X71722751Y-104051683D01*
X71727628Y-104038054D01*
X71733817Y-104024969D01*
X71741258Y-104012553D01*
X71749881Y-104000927D01*
X71759602Y-103990202D01*
X71770327Y-103980481D01*
X71781953Y-103971858D01*
X71794369Y-103964417D01*
X71807454Y-103958228D01*
X71821083Y-103953351D01*
X71835124Y-103949834D01*
X71849442Y-103947710D01*
X71863900Y-103947000D01*
X72158900Y-103947000D01*
X72173358Y-103947710D01*
X72173358Y-103947710D01*
G37*
D12*
X72011400Y-104267000D03*
D11*
G36*
X74418458Y-101790710D02*
G01*
X74432776Y-101792834D01*
X74446817Y-101796351D01*
X74460446Y-101801228D01*
X74473531Y-101807417D01*
X74485947Y-101814858D01*
X74497573Y-101823481D01*
X74508298Y-101833202D01*
X74518019Y-101843927D01*
X74526642Y-101855553D01*
X74534083Y-101867969D01*
X74540272Y-101881054D01*
X74545149Y-101894683D01*
X74548666Y-101908724D01*
X74550790Y-101923042D01*
X74551500Y-101937500D01*
X74551500Y-102232500D01*
X74550790Y-102246958D01*
X74548666Y-102261276D01*
X74545149Y-102275317D01*
X74540272Y-102288946D01*
X74534083Y-102302031D01*
X74526642Y-102314447D01*
X74518019Y-102326073D01*
X74508298Y-102336798D01*
X74497573Y-102346519D01*
X74485947Y-102355142D01*
X74473531Y-102362583D01*
X74460446Y-102368772D01*
X74446817Y-102373649D01*
X74432776Y-102377166D01*
X74418458Y-102379290D01*
X74404000Y-102380000D01*
X74059000Y-102380000D01*
X74044542Y-102379290D01*
X74030224Y-102377166D01*
X74016183Y-102373649D01*
X74002554Y-102368772D01*
X73989469Y-102362583D01*
X73977053Y-102355142D01*
X73965427Y-102346519D01*
X73954702Y-102336798D01*
X73944981Y-102326073D01*
X73936358Y-102314447D01*
X73928917Y-102302031D01*
X73922728Y-102288946D01*
X73917851Y-102275317D01*
X73914334Y-102261276D01*
X73912210Y-102246958D01*
X73911500Y-102232500D01*
X73911500Y-101937500D01*
X73912210Y-101923042D01*
X73914334Y-101908724D01*
X73917851Y-101894683D01*
X73922728Y-101881054D01*
X73928917Y-101867969D01*
X73936358Y-101855553D01*
X73944981Y-101843927D01*
X73954702Y-101833202D01*
X73965427Y-101823481D01*
X73977053Y-101814858D01*
X73989469Y-101807417D01*
X74002554Y-101801228D01*
X74016183Y-101796351D01*
X74030224Y-101792834D01*
X74044542Y-101790710D01*
X74059000Y-101790000D01*
X74404000Y-101790000D01*
X74418458Y-101790710D01*
X74418458Y-101790710D01*
G37*
D12*
X74231500Y-102085000D03*
D11*
G36*
X74418458Y-100820710D02*
G01*
X74432776Y-100822834D01*
X74446817Y-100826351D01*
X74460446Y-100831228D01*
X74473531Y-100837417D01*
X74485947Y-100844858D01*
X74497573Y-100853481D01*
X74508298Y-100863202D01*
X74518019Y-100873927D01*
X74526642Y-100885553D01*
X74534083Y-100897969D01*
X74540272Y-100911054D01*
X74545149Y-100924683D01*
X74548666Y-100938724D01*
X74550790Y-100953042D01*
X74551500Y-100967500D01*
X74551500Y-101262500D01*
X74550790Y-101276958D01*
X74548666Y-101291276D01*
X74545149Y-101305317D01*
X74540272Y-101318946D01*
X74534083Y-101332031D01*
X74526642Y-101344447D01*
X74518019Y-101356073D01*
X74508298Y-101366798D01*
X74497573Y-101376519D01*
X74485947Y-101385142D01*
X74473531Y-101392583D01*
X74460446Y-101398772D01*
X74446817Y-101403649D01*
X74432776Y-101407166D01*
X74418458Y-101409290D01*
X74404000Y-101410000D01*
X74059000Y-101410000D01*
X74044542Y-101409290D01*
X74030224Y-101407166D01*
X74016183Y-101403649D01*
X74002554Y-101398772D01*
X73989469Y-101392583D01*
X73977053Y-101385142D01*
X73965427Y-101376519D01*
X73954702Y-101366798D01*
X73944981Y-101356073D01*
X73936358Y-101344447D01*
X73928917Y-101332031D01*
X73922728Y-101318946D01*
X73917851Y-101305317D01*
X73914334Y-101291276D01*
X73912210Y-101276958D01*
X73911500Y-101262500D01*
X73911500Y-100967500D01*
X73912210Y-100953042D01*
X73914334Y-100938724D01*
X73917851Y-100924683D01*
X73922728Y-100911054D01*
X73928917Y-100897969D01*
X73936358Y-100885553D01*
X73944981Y-100873927D01*
X73954702Y-100863202D01*
X73965427Y-100853481D01*
X73977053Y-100844858D01*
X73989469Y-100837417D01*
X74002554Y-100831228D01*
X74016183Y-100826351D01*
X74030224Y-100822834D01*
X74044542Y-100820710D01*
X74059000Y-100820000D01*
X74404000Y-100820000D01*
X74418458Y-100820710D01*
X74418458Y-100820710D01*
G37*
D12*
X74231500Y-101115000D03*
D13*
X68365000Y-98660000D03*
X66915000Y-98660000D03*
D14*
X65519999Y-105573800D03*
X62020000Y-105573800D03*
X65520000Y-103823800D03*
X62020001Y-103823800D03*
D11*
G36*
X61893253Y-87852406D02*
G01*
X61917570Y-87856013D01*
X61941416Y-87861986D01*
X61964562Y-87870268D01*
X61986785Y-87880779D01*
X62007870Y-87893417D01*
X62027616Y-87908061D01*
X62045830Y-87924570D01*
X62062339Y-87942784D01*
X62076983Y-87962530D01*
X62089621Y-87983615D01*
X62100132Y-88005838D01*
X62108414Y-88028984D01*
X62114387Y-88052830D01*
X62117994Y-88077147D01*
X62119200Y-88101700D01*
X62119200Y-90700700D01*
X62117994Y-90725253D01*
X62114387Y-90749570D01*
X62108414Y-90773416D01*
X62100132Y-90796562D01*
X62089621Y-90818785D01*
X62076983Y-90839870D01*
X62062339Y-90859616D01*
X62045830Y-90877830D01*
X62027616Y-90894339D01*
X62007870Y-90908983D01*
X61986785Y-90921621D01*
X61964562Y-90932132D01*
X61941416Y-90940414D01*
X61917570Y-90946387D01*
X61893253Y-90949994D01*
X61868700Y-90951200D01*
X60869700Y-90951200D01*
X60845147Y-90949994D01*
X60820830Y-90946387D01*
X60796984Y-90940414D01*
X60773838Y-90932132D01*
X60751615Y-90921621D01*
X60730530Y-90908983D01*
X60710784Y-90894339D01*
X60692570Y-90877830D01*
X60676061Y-90859616D01*
X60661417Y-90839870D01*
X60648779Y-90818785D01*
X60638268Y-90796562D01*
X60629986Y-90773416D01*
X60624013Y-90749570D01*
X60620406Y-90725253D01*
X60619200Y-90700700D01*
X60619200Y-88101700D01*
X60620406Y-88077147D01*
X60624013Y-88052830D01*
X60629986Y-88028984D01*
X60638268Y-88005838D01*
X60648779Y-87983615D01*
X60661417Y-87962530D01*
X60676061Y-87942784D01*
X60692570Y-87924570D01*
X60710784Y-87908061D01*
X60730530Y-87893417D01*
X60751615Y-87880779D01*
X60773838Y-87870268D01*
X60796984Y-87861986D01*
X60820830Y-87856013D01*
X60845147Y-87852406D01*
X60869700Y-87851200D01*
X61868700Y-87851200D01*
X61893253Y-87852406D01*
X61893253Y-87852406D01*
G37*
D15*
X61369200Y-89401200D03*
D11*
G36*
X68593253Y-87852406D02*
G01*
X68617570Y-87856013D01*
X68641416Y-87861986D01*
X68664562Y-87870268D01*
X68686785Y-87880779D01*
X68707870Y-87893417D01*
X68727616Y-87908061D01*
X68745830Y-87924570D01*
X68762339Y-87942784D01*
X68776983Y-87962530D01*
X68789621Y-87983615D01*
X68800132Y-88005838D01*
X68808414Y-88028984D01*
X68814387Y-88052830D01*
X68817994Y-88077147D01*
X68819200Y-88101700D01*
X68819200Y-90700700D01*
X68817994Y-90725253D01*
X68814387Y-90749570D01*
X68808414Y-90773416D01*
X68800132Y-90796562D01*
X68789621Y-90818785D01*
X68776983Y-90839870D01*
X68762339Y-90859616D01*
X68745830Y-90877830D01*
X68727616Y-90894339D01*
X68707870Y-90908983D01*
X68686785Y-90921621D01*
X68664562Y-90932132D01*
X68641416Y-90940414D01*
X68617570Y-90946387D01*
X68593253Y-90949994D01*
X68568700Y-90951200D01*
X67569700Y-90951200D01*
X67545147Y-90949994D01*
X67520830Y-90946387D01*
X67496984Y-90940414D01*
X67473838Y-90932132D01*
X67451615Y-90921621D01*
X67430530Y-90908983D01*
X67410784Y-90894339D01*
X67392570Y-90877830D01*
X67376061Y-90859616D01*
X67361417Y-90839870D01*
X67348779Y-90818785D01*
X67338268Y-90796562D01*
X67329986Y-90773416D01*
X67324013Y-90749570D01*
X67320406Y-90725253D01*
X67319200Y-90700700D01*
X67319200Y-88101700D01*
X67320406Y-88077147D01*
X67324013Y-88052830D01*
X67329986Y-88028984D01*
X67338268Y-88005838D01*
X67348779Y-87983615D01*
X67361417Y-87962530D01*
X67376061Y-87942784D01*
X67392570Y-87924570D01*
X67410784Y-87908061D01*
X67430530Y-87893417D01*
X67451615Y-87880779D01*
X67473838Y-87870268D01*
X67496984Y-87861986D01*
X67520830Y-87856013D01*
X67545147Y-87852406D01*
X67569700Y-87851200D01*
X68568700Y-87851200D01*
X68593253Y-87852406D01*
X68593253Y-87852406D01*
G37*
D15*
X68069200Y-89401200D03*
D11*
G36*
X63938803Y-93502163D02*
G01*
X63958218Y-93505043D01*
X63977257Y-93509812D01*
X63995737Y-93516424D01*
X64013479Y-93524816D01*
X64030314Y-93534906D01*
X64046079Y-93546598D01*
X64060621Y-93559779D01*
X64073802Y-93574321D01*
X64085494Y-93590086D01*
X64095584Y-93606921D01*
X64103976Y-93624663D01*
X64110588Y-93643143D01*
X64115357Y-93662182D01*
X64118237Y-93681597D01*
X64119200Y-93701200D01*
X64119200Y-96301200D01*
X64118237Y-96320803D01*
X64115357Y-96340218D01*
X64110588Y-96359257D01*
X64103976Y-96377737D01*
X64095584Y-96395479D01*
X64085494Y-96412314D01*
X64073802Y-96428079D01*
X64060621Y-96442621D01*
X64046079Y-96455802D01*
X64030314Y-96467494D01*
X64013479Y-96477584D01*
X63995737Y-96485976D01*
X63977257Y-96492588D01*
X63958218Y-96497357D01*
X63938803Y-96500237D01*
X63919200Y-96501200D01*
X63519200Y-96501200D01*
X63499597Y-96500237D01*
X63480182Y-96497357D01*
X63461143Y-96492588D01*
X63442663Y-96485976D01*
X63424921Y-96477584D01*
X63408086Y-96467494D01*
X63392321Y-96455802D01*
X63377779Y-96442621D01*
X63364598Y-96428079D01*
X63352906Y-96412314D01*
X63342816Y-96395479D01*
X63334424Y-96377737D01*
X63327812Y-96359257D01*
X63323043Y-96340218D01*
X63320163Y-96320803D01*
X63319200Y-96301200D01*
X63319200Y-93701200D01*
X63320163Y-93681597D01*
X63323043Y-93662182D01*
X63327812Y-93643143D01*
X63334424Y-93624663D01*
X63342816Y-93606921D01*
X63352906Y-93590086D01*
X63364598Y-93574321D01*
X63377779Y-93559779D01*
X63392321Y-93546598D01*
X63408086Y-93534906D01*
X63424921Y-93524816D01*
X63442663Y-93516424D01*
X63461143Y-93509812D01*
X63480182Y-93505043D01*
X63499597Y-93502163D01*
X63519200Y-93501200D01*
X63919200Y-93501200D01*
X63938803Y-93502163D01*
X63938803Y-93502163D01*
G37*
D16*
X63719200Y-95001200D03*
D11*
G36*
X65938803Y-93502163D02*
G01*
X65958218Y-93505043D01*
X65977257Y-93509812D01*
X65995737Y-93516424D01*
X66013479Y-93524816D01*
X66030314Y-93534906D01*
X66046079Y-93546598D01*
X66060621Y-93559779D01*
X66073802Y-93574321D01*
X66085494Y-93590086D01*
X66095584Y-93606921D01*
X66103976Y-93624663D01*
X66110588Y-93643143D01*
X66115357Y-93662182D01*
X66118237Y-93681597D01*
X66119200Y-93701200D01*
X66119200Y-96301200D01*
X66118237Y-96320803D01*
X66115357Y-96340218D01*
X66110588Y-96359257D01*
X66103976Y-96377737D01*
X66095584Y-96395479D01*
X66085494Y-96412314D01*
X66073802Y-96428079D01*
X66060621Y-96442621D01*
X66046079Y-96455802D01*
X66030314Y-96467494D01*
X66013479Y-96477584D01*
X65995737Y-96485976D01*
X65977257Y-96492588D01*
X65958218Y-96497357D01*
X65938803Y-96500237D01*
X65919200Y-96501200D01*
X65519200Y-96501200D01*
X65499597Y-96500237D01*
X65480182Y-96497357D01*
X65461143Y-96492588D01*
X65442663Y-96485976D01*
X65424921Y-96477584D01*
X65408086Y-96467494D01*
X65392321Y-96455802D01*
X65377779Y-96442621D01*
X65364598Y-96428079D01*
X65352906Y-96412314D01*
X65342816Y-96395479D01*
X65334424Y-96377737D01*
X65327812Y-96359257D01*
X65323043Y-96340218D01*
X65320163Y-96320803D01*
X65319200Y-96301200D01*
X65319200Y-93701200D01*
X65320163Y-93681597D01*
X65323043Y-93662182D01*
X65327812Y-93643143D01*
X65334424Y-93624663D01*
X65342816Y-93606921D01*
X65352906Y-93590086D01*
X65364598Y-93574321D01*
X65377779Y-93559779D01*
X65392321Y-93546598D01*
X65408086Y-93534906D01*
X65424921Y-93524816D01*
X65442663Y-93516424D01*
X65461143Y-93509812D01*
X65480182Y-93505043D01*
X65499597Y-93502163D01*
X65519200Y-93501200D01*
X65919200Y-93501200D01*
X65938803Y-93502163D01*
X65938803Y-93502163D01*
G37*
D16*
X65719200Y-95001200D03*
D11*
G36*
X70240158Y-103716310D02*
G01*
X70254476Y-103718434D01*
X70268517Y-103721951D01*
X70282146Y-103726828D01*
X70295231Y-103733017D01*
X70307647Y-103740458D01*
X70319273Y-103749081D01*
X70329998Y-103758802D01*
X70339719Y-103769527D01*
X70348342Y-103781153D01*
X70355783Y-103793569D01*
X70361972Y-103806654D01*
X70366849Y-103820283D01*
X70370366Y-103834324D01*
X70372490Y-103848642D01*
X70373200Y-103863100D01*
X70373200Y-104158100D01*
X70372490Y-104172558D01*
X70370366Y-104186876D01*
X70366849Y-104200917D01*
X70361972Y-104214546D01*
X70355783Y-104227631D01*
X70348342Y-104240047D01*
X70339719Y-104251673D01*
X70329998Y-104262398D01*
X70319273Y-104272119D01*
X70307647Y-104280742D01*
X70295231Y-104288183D01*
X70282146Y-104294372D01*
X70268517Y-104299249D01*
X70254476Y-104302766D01*
X70240158Y-104304890D01*
X70225700Y-104305600D01*
X69880700Y-104305600D01*
X69866242Y-104304890D01*
X69851924Y-104302766D01*
X69837883Y-104299249D01*
X69824254Y-104294372D01*
X69811169Y-104288183D01*
X69798753Y-104280742D01*
X69787127Y-104272119D01*
X69776402Y-104262398D01*
X69766681Y-104251673D01*
X69758058Y-104240047D01*
X69750617Y-104227631D01*
X69744428Y-104214546D01*
X69739551Y-104200917D01*
X69736034Y-104186876D01*
X69733910Y-104172558D01*
X69733200Y-104158100D01*
X69733200Y-103863100D01*
X69733910Y-103848642D01*
X69736034Y-103834324D01*
X69739551Y-103820283D01*
X69744428Y-103806654D01*
X69750617Y-103793569D01*
X69758058Y-103781153D01*
X69766681Y-103769527D01*
X69776402Y-103758802D01*
X69787127Y-103749081D01*
X69798753Y-103740458D01*
X69811169Y-103733017D01*
X69824254Y-103726828D01*
X69837883Y-103721951D01*
X69851924Y-103718434D01*
X69866242Y-103716310D01*
X69880700Y-103715600D01*
X70225700Y-103715600D01*
X70240158Y-103716310D01*
X70240158Y-103716310D01*
G37*
D12*
X70053200Y-104010600D03*
D11*
G36*
X70240158Y-104686310D02*
G01*
X70254476Y-104688434D01*
X70268517Y-104691951D01*
X70282146Y-104696828D01*
X70295231Y-104703017D01*
X70307647Y-104710458D01*
X70319273Y-104719081D01*
X70329998Y-104728802D01*
X70339719Y-104739527D01*
X70348342Y-104751153D01*
X70355783Y-104763569D01*
X70361972Y-104776654D01*
X70366849Y-104790283D01*
X70370366Y-104804324D01*
X70372490Y-104818642D01*
X70373200Y-104833100D01*
X70373200Y-105128100D01*
X70372490Y-105142558D01*
X70370366Y-105156876D01*
X70366849Y-105170917D01*
X70361972Y-105184546D01*
X70355783Y-105197631D01*
X70348342Y-105210047D01*
X70339719Y-105221673D01*
X70329998Y-105232398D01*
X70319273Y-105242119D01*
X70307647Y-105250742D01*
X70295231Y-105258183D01*
X70282146Y-105264372D01*
X70268517Y-105269249D01*
X70254476Y-105272766D01*
X70240158Y-105274890D01*
X70225700Y-105275600D01*
X69880700Y-105275600D01*
X69866242Y-105274890D01*
X69851924Y-105272766D01*
X69837883Y-105269249D01*
X69824254Y-105264372D01*
X69811169Y-105258183D01*
X69798753Y-105250742D01*
X69787127Y-105242119D01*
X69776402Y-105232398D01*
X69766681Y-105221673D01*
X69758058Y-105210047D01*
X69750617Y-105197631D01*
X69744428Y-105184546D01*
X69739551Y-105170917D01*
X69736034Y-105156876D01*
X69733910Y-105142558D01*
X69733200Y-105128100D01*
X69733200Y-104833100D01*
X69733910Y-104818642D01*
X69736034Y-104804324D01*
X69739551Y-104790283D01*
X69744428Y-104776654D01*
X69750617Y-104763569D01*
X69758058Y-104751153D01*
X69766681Y-104739527D01*
X69776402Y-104728802D01*
X69787127Y-104719081D01*
X69798753Y-104710458D01*
X69811169Y-104703017D01*
X69824254Y-104696828D01*
X69837883Y-104691951D01*
X69851924Y-104688434D01*
X69866242Y-104686310D01*
X69880700Y-104685600D01*
X70225700Y-104685600D01*
X70240158Y-104686310D01*
X70240158Y-104686310D01*
G37*
D12*
X70053200Y-104980600D03*
D17*
X58160920Y-102455440D03*
X58160920Y-96355440D03*
X58160920Y-100405440D03*
X58160920Y-98405440D03*
D18*
X60835920Y-100705440D03*
X60835920Y-100055440D03*
X60835920Y-99405440D03*
X60835920Y-98755440D03*
X60835920Y-98105440D03*
D11*
G36*
X58482291Y-93281853D02*
G01*
X58503526Y-93285003D01*
X58524350Y-93290219D01*
X58544562Y-93297451D01*
X58563968Y-93306630D01*
X58582381Y-93317666D01*
X58599624Y-93330454D01*
X58615530Y-93344870D01*
X58629946Y-93360776D01*
X58642734Y-93378019D01*
X58653770Y-93396432D01*
X58662949Y-93415838D01*
X58670181Y-93436050D01*
X58675397Y-93456874D01*
X58678547Y-93478109D01*
X58679600Y-93499550D01*
X58679600Y-94012050D01*
X58678547Y-94033491D01*
X58675397Y-94054726D01*
X58670181Y-94075550D01*
X58662949Y-94095762D01*
X58653770Y-94115168D01*
X58642734Y-94133581D01*
X58629946Y-94150824D01*
X58615530Y-94166730D01*
X58599624Y-94181146D01*
X58582381Y-94193934D01*
X58563968Y-94204970D01*
X58544562Y-94214149D01*
X58524350Y-94221381D01*
X58503526Y-94226597D01*
X58482291Y-94229747D01*
X58460850Y-94230800D01*
X58023350Y-94230800D01*
X58001909Y-94229747D01*
X57980674Y-94226597D01*
X57959850Y-94221381D01*
X57939638Y-94214149D01*
X57920232Y-94204970D01*
X57901819Y-94193934D01*
X57884576Y-94181146D01*
X57868670Y-94166730D01*
X57854254Y-94150824D01*
X57841466Y-94133581D01*
X57830430Y-94115168D01*
X57821251Y-94095762D01*
X57814019Y-94075550D01*
X57808803Y-94054726D01*
X57805653Y-94033491D01*
X57804600Y-94012050D01*
X57804600Y-93499550D01*
X57805653Y-93478109D01*
X57808803Y-93456874D01*
X57814019Y-93436050D01*
X57821251Y-93415838D01*
X57830430Y-93396432D01*
X57841466Y-93378019D01*
X57854254Y-93360776D01*
X57868670Y-93344870D01*
X57884576Y-93330454D01*
X57901819Y-93317666D01*
X57920232Y-93306630D01*
X57939638Y-93297451D01*
X57959850Y-93290219D01*
X57980674Y-93285003D01*
X58001909Y-93281853D01*
X58023350Y-93280800D01*
X58460850Y-93280800D01*
X58482291Y-93281853D01*
X58482291Y-93281853D01*
G37*
D19*
X58242100Y-93755800D03*
D11*
G36*
X60057291Y-93281853D02*
G01*
X60078526Y-93285003D01*
X60099350Y-93290219D01*
X60119562Y-93297451D01*
X60138968Y-93306630D01*
X60157381Y-93317666D01*
X60174624Y-93330454D01*
X60190530Y-93344870D01*
X60204946Y-93360776D01*
X60217734Y-93378019D01*
X60228770Y-93396432D01*
X60237949Y-93415838D01*
X60245181Y-93436050D01*
X60250397Y-93456874D01*
X60253547Y-93478109D01*
X60254600Y-93499550D01*
X60254600Y-94012050D01*
X60253547Y-94033491D01*
X60250397Y-94054726D01*
X60245181Y-94075550D01*
X60237949Y-94095762D01*
X60228770Y-94115168D01*
X60217734Y-94133581D01*
X60204946Y-94150824D01*
X60190530Y-94166730D01*
X60174624Y-94181146D01*
X60157381Y-94193934D01*
X60138968Y-94204970D01*
X60119562Y-94214149D01*
X60099350Y-94221381D01*
X60078526Y-94226597D01*
X60057291Y-94229747D01*
X60035850Y-94230800D01*
X59598350Y-94230800D01*
X59576909Y-94229747D01*
X59555674Y-94226597D01*
X59534850Y-94221381D01*
X59514638Y-94214149D01*
X59495232Y-94204970D01*
X59476819Y-94193934D01*
X59459576Y-94181146D01*
X59443670Y-94166730D01*
X59429254Y-94150824D01*
X59416466Y-94133581D01*
X59405430Y-94115168D01*
X59396251Y-94095762D01*
X59389019Y-94075550D01*
X59383803Y-94054726D01*
X59380653Y-94033491D01*
X59379600Y-94012050D01*
X59379600Y-93499550D01*
X59380653Y-93478109D01*
X59383803Y-93456874D01*
X59389019Y-93436050D01*
X59396251Y-93415838D01*
X59405430Y-93396432D01*
X59416466Y-93378019D01*
X59429254Y-93360776D01*
X59443670Y-93344870D01*
X59459576Y-93330454D01*
X59476819Y-93317666D01*
X59495232Y-93306630D01*
X59514638Y-93297451D01*
X59534850Y-93290219D01*
X59555674Y-93285003D01*
X59576909Y-93281853D01*
X59598350Y-93280800D01*
X60035850Y-93280800D01*
X60057291Y-93281853D01*
X60057291Y-93281853D01*
G37*
D19*
X59817100Y-93755800D03*
D11*
G36*
X72120158Y-99731310D02*
G01*
X72134476Y-99733434D01*
X72148517Y-99736951D01*
X72162146Y-99741828D01*
X72175231Y-99748017D01*
X72187647Y-99755458D01*
X72199273Y-99764081D01*
X72209998Y-99773802D01*
X72219719Y-99784527D01*
X72228342Y-99796153D01*
X72235783Y-99808569D01*
X72241972Y-99821654D01*
X72246849Y-99835283D01*
X72250366Y-99849324D01*
X72252490Y-99863642D01*
X72253200Y-99878100D01*
X72253200Y-100223100D01*
X72252490Y-100237558D01*
X72250366Y-100251876D01*
X72246849Y-100265917D01*
X72241972Y-100279546D01*
X72235783Y-100292631D01*
X72228342Y-100305047D01*
X72219719Y-100316673D01*
X72209998Y-100327398D01*
X72199273Y-100337119D01*
X72187647Y-100345742D01*
X72175231Y-100353183D01*
X72162146Y-100359372D01*
X72148517Y-100364249D01*
X72134476Y-100367766D01*
X72120158Y-100369890D01*
X72105700Y-100370600D01*
X71810700Y-100370600D01*
X71796242Y-100369890D01*
X71781924Y-100367766D01*
X71767883Y-100364249D01*
X71754254Y-100359372D01*
X71741169Y-100353183D01*
X71728753Y-100345742D01*
X71717127Y-100337119D01*
X71706402Y-100327398D01*
X71696681Y-100316673D01*
X71688058Y-100305047D01*
X71680617Y-100292631D01*
X71674428Y-100279546D01*
X71669551Y-100265917D01*
X71666034Y-100251876D01*
X71663910Y-100237558D01*
X71663200Y-100223100D01*
X71663200Y-99878100D01*
X71663910Y-99863642D01*
X71666034Y-99849324D01*
X71669551Y-99835283D01*
X71674428Y-99821654D01*
X71680617Y-99808569D01*
X71688058Y-99796153D01*
X71696681Y-99784527D01*
X71706402Y-99773802D01*
X71717127Y-99764081D01*
X71728753Y-99755458D01*
X71741169Y-99748017D01*
X71754254Y-99741828D01*
X71767883Y-99736951D01*
X71781924Y-99733434D01*
X71796242Y-99731310D01*
X71810700Y-99730600D01*
X72105700Y-99730600D01*
X72120158Y-99731310D01*
X72120158Y-99731310D01*
G37*
D12*
X71958200Y-100050600D03*
D11*
G36*
X71150158Y-99731310D02*
G01*
X71164476Y-99733434D01*
X71178517Y-99736951D01*
X71192146Y-99741828D01*
X71205231Y-99748017D01*
X71217647Y-99755458D01*
X71229273Y-99764081D01*
X71239998Y-99773802D01*
X71249719Y-99784527D01*
X71258342Y-99796153D01*
X71265783Y-99808569D01*
X71271972Y-99821654D01*
X71276849Y-99835283D01*
X71280366Y-99849324D01*
X71282490Y-99863642D01*
X71283200Y-99878100D01*
X71283200Y-100223100D01*
X71282490Y-100237558D01*
X71280366Y-100251876D01*
X71276849Y-100265917D01*
X71271972Y-100279546D01*
X71265783Y-100292631D01*
X71258342Y-100305047D01*
X71249719Y-100316673D01*
X71239998Y-100327398D01*
X71229273Y-100337119D01*
X71217647Y-100345742D01*
X71205231Y-100353183D01*
X71192146Y-100359372D01*
X71178517Y-100364249D01*
X71164476Y-100367766D01*
X71150158Y-100369890D01*
X71135700Y-100370600D01*
X70840700Y-100370600D01*
X70826242Y-100369890D01*
X70811924Y-100367766D01*
X70797883Y-100364249D01*
X70784254Y-100359372D01*
X70771169Y-100353183D01*
X70758753Y-100345742D01*
X70747127Y-100337119D01*
X70736402Y-100327398D01*
X70726681Y-100316673D01*
X70718058Y-100305047D01*
X70710617Y-100292631D01*
X70704428Y-100279546D01*
X70699551Y-100265917D01*
X70696034Y-100251876D01*
X70693910Y-100237558D01*
X70693200Y-100223100D01*
X70693200Y-99878100D01*
X70693910Y-99863642D01*
X70696034Y-99849324D01*
X70699551Y-99835283D01*
X70704428Y-99821654D01*
X70710617Y-99808569D01*
X70718058Y-99796153D01*
X70726681Y-99784527D01*
X70736402Y-99773802D01*
X70747127Y-99764081D01*
X70758753Y-99755458D01*
X70771169Y-99748017D01*
X70784254Y-99741828D01*
X70797883Y-99736951D01*
X70811924Y-99733434D01*
X70826242Y-99731310D01*
X70840700Y-99730600D01*
X71135700Y-99730600D01*
X71150158Y-99731310D01*
X71150158Y-99731310D01*
G37*
D12*
X70988200Y-100050600D03*
D11*
G36*
X68206158Y-103642910D02*
G01*
X68220476Y-103645034D01*
X68234517Y-103648551D01*
X68248146Y-103653428D01*
X68261231Y-103659617D01*
X68273647Y-103667058D01*
X68285273Y-103675681D01*
X68295998Y-103685402D01*
X68305719Y-103696127D01*
X68314342Y-103707753D01*
X68321783Y-103720169D01*
X68327972Y-103733254D01*
X68332849Y-103746883D01*
X68336366Y-103760924D01*
X68338490Y-103775242D01*
X68339200Y-103789700D01*
X68339200Y-104134700D01*
X68338490Y-104149158D01*
X68336366Y-104163476D01*
X68332849Y-104177517D01*
X68327972Y-104191146D01*
X68321783Y-104204231D01*
X68314342Y-104216647D01*
X68305719Y-104228273D01*
X68295998Y-104238998D01*
X68285273Y-104248719D01*
X68273647Y-104257342D01*
X68261231Y-104264783D01*
X68248146Y-104270972D01*
X68234517Y-104275849D01*
X68220476Y-104279366D01*
X68206158Y-104281490D01*
X68191700Y-104282200D01*
X67896700Y-104282200D01*
X67882242Y-104281490D01*
X67867924Y-104279366D01*
X67853883Y-104275849D01*
X67840254Y-104270972D01*
X67827169Y-104264783D01*
X67814753Y-104257342D01*
X67803127Y-104248719D01*
X67792402Y-104238998D01*
X67782681Y-104228273D01*
X67774058Y-104216647D01*
X67766617Y-104204231D01*
X67760428Y-104191146D01*
X67755551Y-104177517D01*
X67752034Y-104163476D01*
X67749910Y-104149158D01*
X67749200Y-104134700D01*
X67749200Y-103789700D01*
X67749910Y-103775242D01*
X67752034Y-103760924D01*
X67755551Y-103746883D01*
X67760428Y-103733254D01*
X67766617Y-103720169D01*
X67774058Y-103707753D01*
X67782681Y-103696127D01*
X67792402Y-103685402D01*
X67803127Y-103675681D01*
X67814753Y-103667058D01*
X67827169Y-103659617D01*
X67840254Y-103653428D01*
X67853883Y-103648551D01*
X67867924Y-103645034D01*
X67882242Y-103642910D01*
X67896700Y-103642200D01*
X68191700Y-103642200D01*
X68206158Y-103642910D01*
X68206158Y-103642910D01*
G37*
D12*
X68044200Y-103962200D03*
D11*
G36*
X69176158Y-103642910D02*
G01*
X69190476Y-103645034D01*
X69204517Y-103648551D01*
X69218146Y-103653428D01*
X69231231Y-103659617D01*
X69243647Y-103667058D01*
X69255273Y-103675681D01*
X69265998Y-103685402D01*
X69275719Y-103696127D01*
X69284342Y-103707753D01*
X69291783Y-103720169D01*
X69297972Y-103733254D01*
X69302849Y-103746883D01*
X69306366Y-103760924D01*
X69308490Y-103775242D01*
X69309200Y-103789700D01*
X69309200Y-104134700D01*
X69308490Y-104149158D01*
X69306366Y-104163476D01*
X69302849Y-104177517D01*
X69297972Y-104191146D01*
X69291783Y-104204231D01*
X69284342Y-104216647D01*
X69275719Y-104228273D01*
X69265998Y-104238998D01*
X69255273Y-104248719D01*
X69243647Y-104257342D01*
X69231231Y-104264783D01*
X69218146Y-104270972D01*
X69204517Y-104275849D01*
X69190476Y-104279366D01*
X69176158Y-104281490D01*
X69161700Y-104282200D01*
X68866700Y-104282200D01*
X68852242Y-104281490D01*
X68837924Y-104279366D01*
X68823883Y-104275849D01*
X68810254Y-104270972D01*
X68797169Y-104264783D01*
X68784753Y-104257342D01*
X68773127Y-104248719D01*
X68762402Y-104238998D01*
X68752681Y-104228273D01*
X68744058Y-104216647D01*
X68736617Y-104204231D01*
X68730428Y-104191146D01*
X68725551Y-104177517D01*
X68722034Y-104163476D01*
X68719910Y-104149158D01*
X68719200Y-104134700D01*
X68719200Y-103789700D01*
X68719910Y-103775242D01*
X68722034Y-103760924D01*
X68725551Y-103746883D01*
X68730428Y-103733254D01*
X68736617Y-103720169D01*
X68744058Y-103707753D01*
X68752681Y-103696127D01*
X68762402Y-103685402D01*
X68773127Y-103675681D01*
X68784753Y-103667058D01*
X68797169Y-103659617D01*
X68810254Y-103653428D01*
X68823883Y-103648551D01*
X68837924Y-103645034D01*
X68852242Y-103642910D01*
X68866700Y-103642200D01*
X69161700Y-103642200D01*
X69176158Y-103642910D01*
X69176158Y-103642910D01*
G37*
D12*
X69014200Y-103962200D03*
D20*
X65000000Y-101800000D03*
X63400000Y-101800000D03*
X63400000Y-97700000D03*
X65000000Y-97700000D03*
D11*
G36*
X73399154Y-99560690D02*
G01*
X73413472Y-99562814D01*
X73427513Y-99566331D01*
X73441142Y-99571208D01*
X73454227Y-99577397D01*
X73466643Y-99584838D01*
X73478269Y-99593461D01*
X73488994Y-99603182D01*
X73498715Y-99613907D01*
X73507338Y-99625533D01*
X73514779Y-99637949D01*
X73520968Y-99651034D01*
X73525845Y-99664663D01*
X73529362Y-99678704D01*
X73531486Y-99693022D01*
X73532196Y-99707480D01*
X73532196Y-100002480D01*
X73531486Y-100016938D01*
X73529362Y-100031256D01*
X73525845Y-100045297D01*
X73520968Y-100058926D01*
X73514779Y-100072011D01*
X73507338Y-100084427D01*
X73498715Y-100096053D01*
X73488994Y-100106778D01*
X73478269Y-100116499D01*
X73466643Y-100125122D01*
X73454227Y-100132563D01*
X73441142Y-100138752D01*
X73427513Y-100143629D01*
X73413472Y-100147146D01*
X73399154Y-100149270D01*
X73384696Y-100149980D01*
X73039696Y-100149980D01*
X73025238Y-100149270D01*
X73010920Y-100147146D01*
X72996879Y-100143629D01*
X72983250Y-100138752D01*
X72970165Y-100132563D01*
X72957749Y-100125122D01*
X72946123Y-100116499D01*
X72935398Y-100106778D01*
X72925677Y-100096053D01*
X72917054Y-100084427D01*
X72909613Y-100072011D01*
X72903424Y-100058926D01*
X72898547Y-100045297D01*
X72895030Y-100031256D01*
X72892906Y-100016938D01*
X72892196Y-100002480D01*
X72892196Y-99707480D01*
X72892906Y-99693022D01*
X72895030Y-99678704D01*
X72898547Y-99664663D01*
X72903424Y-99651034D01*
X72909613Y-99637949D01*
X72917054Y-99625533D01*
X72925677Y-99613907D01*
X72935398Y-99603182D01*
X72946123Y-99593461D01*
X72957749Y-99584838D01*
X72970165Y-99577397D01*
X72983250Y-99571208D01*
X72996879Y-99566331D01*
X73010920Y-99562814D01*
X73025238Y-99560690D01*
X73039696Y-99559980D01*
X73384696Y-99559980D01*
X73399154Y-99560690D01*
X73399154Y-99560690D01*
G37*
D12*
X73212196Y-99854980D03*
D11*
G36*
X73399154Y-98590690D02*
G01*
X73413472Y-98592814D01*
X73427513Y-98596331D01*
X73441142Y-98601208D01*
X73454227Y-98607397D01*
X73466643Y-98614838D01*
X73478269Y-98623461D01*
X73488994Y-98633182D01*
X73498715Y-98643907D01*
X73507338Y-98655533D01*
X73514779Y-98667949D01*
X73520968Y-98681034D01*
X73525845Y-98694663D01*
X73529362Y-98708704D01*
X73531486Y-98723022D01*
X73532196Y-98737480D01*
X73532196Y-99032480D01*
X73531486Y-99046938D01*
X73529362Y-99061256D01*
X73525845Y-99075297D01*
X73520968Y-99088926D01*
X73514779Y-99102011D01*
X73507338Y-99114427D01*
X73498715Y-99126053D01*
X73488994Y-99136778D01*
X73478269Y-99146499D01*
X73466643Y-99155122D01*
X73454227Y-99162563D01*
X73441142Y-99168752D01*
X73427513Y-99173629D01*
X73413472Y-99177146D01*
X73399154Y-99179270D01*
X73384696Y-99179980D01*
X73039696Y-99179980D01*
X73025238Y-99179270D01*
X73010920Y-99177146D01*
X72996879Y-99173629D01*
X72983250Y-99168752D01*
X72970165Y-99162563D01*
X72957749Y-99155122D01*
X72946123Y-99146499D01*
X72935398Y-99136778D01*
X72925677Y-99126053D01*
X72917054Y-99114427D01*
X72909613Y-99102011D01*
X72903424Y-99088926D01*
X72898547Y-99075297D01*
X72895030Y-99061256D01*
X72892906Y-99046938D01*
X72892196Y-99032480D01*
X72892196Y-98737480D01*
X72892906Y-98723022D01*
X72895030Y-98708704D01*
X72898547Y-98694663D01*
X72903424Y-98681034D01*
X72909613Y-98667949D01*
X72917054Y-98655533D01*
X72925677Y-98643907D01*
X72935398Y-98633182D01*
X72946123Y-98623461D01*
X72957749Y-98614838D01*
X72970165Y-98607397D01*
X72983250Y-98601208D01*
X72996879Y-98596331D01*
X73010920Y-98592814D01*
X73025238Y-98590690D01*
X73039696Y-98589980D01*
X73384696Y-98589980D01*
X73399154Y-98590690D01*
X73399154Y-98590690D01*
G37*
D12*
X73212196Y-98884980D03*
D11*
G36*
X70016638Y-96015030D02*
G01*
X70030956Y-96017154D01*
X70044997Y-96020671D01*
X70058626Y-96025548D01*
X70071711Y-96031737D01*
X70084127Y-96039178D01*
X70095753Y-96047801D01*
X70106478Y-96057522D01*
X70116199Y-96068247D01*
X70124822Y-96079873D01*
X70132263Y-96092289D01*
X70138452Y-96105374D01*
X70143329Y-96119003D01*
X70146846Y-96133044D01*
X70148970Y-96147362D01*
X70149680Y-96161820D01*
X70149680Y-96456820D01*
X70148970Y-96471278D01*
X70146846Y-96485596D01*
X70143329Y-96499637D01*
X70138452Y-96513266D01*
X70132263Y-96526351D01*
X70124822Y-96538767D01*
X70116199Y-96550393D01*
X70106478Y-96561118D01*
X70095753Y-96570839D01*
X70084127Y-96579462D01*
X70071711Y-96586903D01*
X70058626Y-96593092D01*
X70044997Y-96597969D01*
X70030956Y-96601486D01*
X70016638Y-96603610D01*
X70002180Y-96604320D01*
X69657180Y-96604320D01*
X69642722Y-96603610D01*
X69628404Y-96601486D01*
X69614363Y-96597969D01*
X69600734Y-96593092D01*
X69587649Y-96586903D01*
X69575233Y-96579462D01*
X69563607Y-96570839D01*
X69552882Y-96561118D01*
X69543161Y-96550393D01*
X69534538Y-96538767D01*
X69527097Y-96526351D01*
X69520908Y-96513266D01*
X69516031Y-96499637D01*
X69512514Y-96485596D01*
X69510390Y-96471278D01*
X69509680Y-96456820D01*
X69509680Y-96161820D01*
X69510390Y-96147362D01*
X69512514Y-96133044D01*
X69516031Y-96119003D01*
X69520908Y-96105374D01*
X69527097Y-96092289D01*
X69534538Y-96079873D01*
X69543161Y-96068247D01*
X69552882Y-96057522D01*
X69563607Y-96047801D01*
X69575233Y-96039178D01*
X69587649Y-96031737D01*
X69600734Y-96025548D01*
X69614363Y-96020671D01*
X69628404Y-96017154D01*
X69642722Y-96015030D01*
X69657180Y-96014320D01*
X70002180Y-96014320D01*
X70016638Y-96015030D01*
X70016638Y-96015030D01*
G37*
D12*
X69829680Y-96309320D03*
D11*
G36*
X70016638Y-96985030D02*
G01*
X70030956Y-96987154D01*
X70044997Y-96990671D01*
X70058626Y-96995548D01*
X70071711Y-97001737D01*
X70084127Y-97009178D01*
X70095753Y-97017801D01*
X70106478Y-97027522D01*
X70116199Y-97038247D01*
X70124822Y-97049873D01*
X70132263Y-97062289D01*
X70138452Y-97075374D01*
X70143329Y-97089003D01*
X70146846Y-97103044D01*
X70148970Y-97117362D01*
X70149680Y-97131820D01*
X70149680Y-97426820D01*
X70148970Y-97441278D01*
X70146846Y-97455596D01*
X70143329Y-97469637D01*
X70138452Y-97483266D01*
X70132263Y-97496351D01*
X70124822Y-97508767D01*
X70116199Y-97520393D01*
X70106478Y-97531118D01*
X70095753Y-97540839D01*
X70084127Y-97549462D01*
X70071711Y-97556903D01*
X70058626Y-97563092D01*
X70044997Y-97567969D01*
X70030956Y-97571486D01*
X70016638Y-97573610D01*
X70002180Y-97574320D01*
X69657180Y-97574320D01*
X69642722Y-97573610D01*
X69628404Y-97571486D01*
X69614363Y-97567969D01*
X69600734Y-97563092D01*
X69587649Y-97556903D01*
X69575233Y-97549462D01*
X69563607Y-97540839D01*
X69552882Y-97531118D01*
X69543161Y-97520393D01*
X69534538Y-97508767D01*
X69527097Y-97496351D01*
X69520908Y-97483266D01*
X69516031Y-97469637D01*
X69512514Y-97455596D01*
X69510390Y-97441278D01*
X69509680Y-97426820D01*
X69509680Y-97131820D01*
X69510390Y-97117362D01*
X69512514Y-97103044D01*
X69516031Y-97089003D01*
X69520908Y-97075374D01*
X69527097Y-97062289D01*
X69534538Y-97049873D01*
X69543161Y-97038247D01*
X69552882Y-97027522D01*
X69563607Y-97017801D01*
X69575233Y-97009178D01*
X69587649Y-97001737D01*
X69600734Y-96995548D01*
X69614363Y-96990671D01*
X69628404Y-96987154D01*
X69642722Y-96985030D01*
X69657180Y-96984320D01*
X70002180Y-96984320D01*
X70016638Y-96985030D01*
X70016638Y-96985030D01*
G37*
D12*
X69829680Y-97279320D03*
D11*
G36*
X68535978Y-95641910D02*
G01*
X68550296Y-95644034D01*
X68564337Y-95647551D01*
X68577966Y-95652428D01*
X68591051Y-95658617D01*
X68603467Y-95666058D01*
X68615093Y-95674681D01*
X68625818Y-95684402D01*
X68635539Y-95695127D01*
X68644162Y-95706753D01*
X68651603Y-95719169D01*
X68657792Y-95732254D01*
X68662669Y-95745883D01*
X68666186Y-95759924D01*
X68668310Y-95774242D01*
X68669020Y-95788700D01*
X68669020Y-96133700D01*
X68668310Y-96148158D01*
X68666186Y-96162476D01*
X68662669Y-96176517D01*
X68657792Y-96190146D01*
X68651603Y-96203231D01*
X68644162Y-96215647D01*
X68635539Y-96227273D01*
X68625818Y-96237998D01*
X68615093Y-96247719D01*
X68603467Y-96256342D01*
X68591051Y-96263783D01*
X68577966Y-96269972D01*
X68564337Y-96274849D01*
X68550296Y-96278366D01*
X68535978Y-96280490D01*
X68521520Y-96281200D01*
X68226520Y-96281200D01*
X68212062Y-96280490D01*
X68197744Y-96278366D01*
X68183703Y-96274849D01*
X68170074Y-96269972D01*
X68156989Y-96263783D01*
X68144573Y-96256342D01*
X68132947Y-96247719D01*
X68122222Y-96237998D01*
X68112501Y-96227273D01*
X68103878Y-96215647D01*
X68096437Y-96203231D01*
X68090248Y-96190146D01*
X68085371Y-96176517D01*
X68081854Y-96162476D01*
X68079730Y-96148158D01*
X68079020Y-96133700D01*
X68079020Y-95788700D01*
X68079730Y-95774242D01*
X68081854Y-95759924D01*
X68085371Y-95745883D01*
X68090248Y-95732254D01*
X68096437Y-95719169D01*
X68103878Y-95706753D01*
X68112501Y-95695127D01*
X68122222Y-95684402D01*
X68132947Y-95674681D01*
X68144573Y-95666058D01*
X68156989Y-95658617D01*
X68170074Y-95652428D01*
X68183703Y-95647551D01*
X68197744Y-95644034D01*
X68212062Y-95641910D01*
X68226520Y-95641200D01*
X68521520Y-95641200D01*
X68535978Y-95641910D01*
X68535978Y-95641910D01*
G37*
D12*
X68374020Y-95961200D03*
D11*
G36*
X67565978Y-95641910D02*
G01*
X67580296Y-95644034D01*
X67594337Y-95647551D01*
X67607966Y-95652428D01*
X67621051Y-95658617D01*
X67633467Y-95666058D01*
X67645093Y-95674681D01*
X67655818Y-95684402D01*
X67665539Y-95695127D01*
X67674162Y-95706753D01*
X67681603Y-95719169D01*
X67687792Y-95732254D01*
X67692669Y-95745883D01*
X67696186Y-95759924D01*
X67698310Y-95774242D01*
X67699020Y-95788700D01*
X67699020Y-96133700D01*
X67698310Y-96148158D01*
X67696186Y-96162476D01*
X67692669Y-96176517D01*
X67687792Y-96190146D01*
X67681603Y-96203231D01*
X67674162Y-96215647D01*
X67665539Y-96227273D01*
X67655818Y-96237998D01*
X67645093Y-96247719D01*
X67633467Y-96256342D01*
X67621051Y-96263783D01*
X67607966Y-96269972D01*
X67594337Y-96274849D01*
X67580296Y-96278366D01*
X67565978Y-96280490D01*
X67551520Y-96281200D01*
X67256520Y-96281200D01*
X67242062Y-96280490D01*
X67227744Y-96278366D01*
X67213703Y-96274849D01*
X67200074Y-96269972D01*
X67186989Y-96263783D01*
X67174573Y-96256342D01*
X67162947Y-96247719D01*
X67152222Y-96237998D01*
X67142501Y-96227273D01*
X67133878Y-96215647D01*
X67126437Y-96203231D01*
X67120248Y-96190146D01*
X67115371Y-96176517D01*
X67111854Y-96162476D01*
X67109730Y-96148158D01*
X67109020Y-96133700D01*
X67109020Y-95788700D01*
X67109730Y-95774242D01*
X67111854Y-95759924D01*
X67115371Y-95745883D01*
X67120248Y-95732254D01*
X67126437Y-95719169D01*
X67133878Y-95706753D01*
X67142501Y-95695127D01*
X67152222Y-95684402D01*
X67162947Y-95674681D01*
X67174573Y-95666058D01*
X67186989Y-95658617D01*
X67200074Y-95652428D01*
X67213703Y-95647551D01*
X67227744Y-95644034D01*
X67242062Y-95641910D01*
X67256520Y-95641200D01*
X67551520Y-95641200D01*
X67565978Y-95641910D01*
X67565978Y-95641910D01*
G37*
D12*
X67404020Y-95961200D03*
D11*
G36*
X72397158Y-93813110D02*
G01*
X72411476Y-93815234D01*
X72425517Y-93818751D01*
X72439146Y-93823628D01*
X72452231Y-93829817D01*
X72464647Y-93837258D01*
X72476273Y-93845881D01*
X72486998Y-93855602D01*
X72496719Y-93866327D01*
X72505342Y-93877953D01*
X72512783Y-93890369D01*
X72518972Y-93903454D01*
X72523849Y-93917083D01*
X72527366Y-93931124D01*
X72529490Y-93945442D01*
X72530200Y-93959900D01*
X72530200Y-94304900D01*
X72529490Y-94319358D01*
X72527366Y-94333676D01*
X72523849Y-94347717D01*
X72518972Y-94361346D01*
X72512783Y-94374431D01*
X72505342Y-94386847D01*
X72496719Y-94398473D01*
X72486998Y-94409198D01*
X72476273Y-94418919D01*
X72464647Y-94427542D01*
X72452231Y-94434983D01*
X72439146Y-94441172D01*
X72425517Y-94446049D01*
X72411476Y-94449566D01*
X72397158Y-94451690D01*
X72382700Y-94452400D01*
X72087700Y-94452400D01*
X72073242Y-94451690D01*
X72058924Y-94449566D01*
X72044883Y-94446049D01*
X72031254Y-94441172D01*
X72018169Y-94434983D01*
X72005753Y-94427542D01*
X71994127Y-94418919D01*
X71983402Y-94409198D01*
X71973681Y-94398473D01*
X71965058Y-94386847D01*
X71957617Y-94374431D01*
X71951428Y-94361346D01*
X71946551Y-94347717D01*
X71943034Y-94333676D01*
X71940910Y-94319358D01*
X71940200Y-94304900D01*
X71940200Y-93959900D01*
X71940910Y-93945442D01*
X71943034Y-93931124D01*
X71946551Y-93917083D01*
X71951428Y-93903454D01*
X71957617Y-93890369D01*
X71965058Y-93877953D01*
X71973681Y-93866327D01*
X71983402Y-93855602D01*
X71994127Y-93845881D01*
X72005753Y-93837258D01*
X72018169Y-93829817D01*
X72031254Y-93823628D01*
X72044883Y-93818751D01*
X72058924Y-93815234D01*
X72073242Y-93813110D01*
X72087700Y-93812400D01*
X72382700Y-93812400D01*
X72397158Y-93813110D01*
X72397158Y-93813110D01*
G37*
D12*
X72235200Y-94132400D03*
D11*
G36*
X73367158Y-93813110D02*
G01*
X73381476Y-93815234D01*
X73395517Y-93818751D01*
X73409146Y-93823628D01*
X73422231Y-93829817D01*
X73434647Y-93837258D01*
X73446273Y-93845881D01*
X73456998Y-93855602D01*
X73466719Y-93866327D01*
X73475342Y-93877953D01*
X73482783Y-93890369D01*
X73488972Y-93903454D01*
X73493849Y-93917083D01*
X73497366Y-93931124D01*
X73499490Y-93945442D01*
X73500200Y-93959900D01*
X73500200Y-94304900D01*
X73499490Y-94319358D01*
X73497366Y-94333676D01*
X73493849Y-94347717D01*
X73488972Y-94361346D01*
X73482783Y-94374431D01*
X73475342Y-94386847D01*
X73466719Y-94398473D01*
X73456998Y-94409198D01*
X73446273Y-94418919D01*
X73434647Y-94427542D01*
X73422231Y-94434983D01*
X73409146Y-94441172D01*
X73395517Y-94446049D01*
X73381476Y-94449566D01*
X73367158Y-94451690D01*
X73352700Y-94452400D01*
X73057700Y-94452400D01*
X73043242Y-94451690D01*
X73028924Y-94449566D01*
X73014883Y-94446049D01*
X73001254Y-94441172D01*
X72988169Y-94434983D01*
X72975753Y-94427542D01*
X72964127Y-94418919D01*
X72953402Y-94409198D01*
X72943681Y-94398473D01*
X72935058Y-94386847D01*
X72927617Y-94374431D01*
X72921428Y-94361346D01*
X72916551Y-94347717D01*
X72913034Y-94333676D01*
X72910910Y-94319358D01*
X72910200Y-94304900D01*
X72910200Y-93959900D01*
X72910910Y-93945442D01*
X72913034Y-93931124D01*
X72916551Y-93917083D01*
X72921428Y-93903454D01*
X72927617Y-93890369D01*
X72935058Y-93877953D01*
X72943681Y-93866327D01*
X72953402Y-93855602D01*
X72964127Y-93845881D01*
X72975753Y-93837258D01*
X72988169Y-93829817D01*
X73001254Y-93823628D01*
X73014883Y-93818751D01*
X73028924Y-93815234D01*
X73043242Y-93813110D01*
X73057700Y-93812400D01*
X73352700Y-93812400D01*
X73367158Y-93813110D01*
X73367158Y-93813110D01*
G37*
D12*
X73205200Y-94132400D03*
D21*
X81692500Y-91884500D03*
X81692500Y-94424500D03*
X81692500Y-96964500D03*
X81692500Y-99504500D03*
X81692500Y-102044500D03*
X81692500Y-104584500D03*
X81692500Y-107124500D03*
X75882500Y-91884500D03*
X75882500Y-94424500D03*
X75882500Y-96964500D03*
X75882500Y-99504500D03*
X75882500Y-102044500D03*
X75882500Y-104584500D03*
X75882500Y-107124500D03*
D11*
G36*
X71406558Y-98740710D02*
G01*
X71420876Y-98742834D01*
X71434917Y-98746351D01*
X71448546Y-98751228D01*
X71461631Y-98757417D01*
X71474047Y-98764858D01*
X71485673Y-98773481D01*
X71496398Y-98783202D01*
X71506119Y-98793927D01*
X71514742Y-98805553D01*
X71522183Y-98817969D01*
X71528372Y-98831054D01*
X71533249Y-98844683D01*
X71536766Y-98858724D01*
X71538890Y-98873042D01*
X71539600Y-98887500D01*
X71539600Y-99232500D01*
X71538890Y-99246958D01*
X71536766Y-99261276D01*
X71533249Y-99275317D01*
X71528372Y-99288946D01*
X71522183Y-99302031D01*
X71514742Y-99314447D01*
X71506119Y-99326073D01*
X71496398Y-99336798D01*
X71485673Y-99346519D01*
X71474047Y-99355142D01*
X71461631Y-99362583D01*
X71448546Y-99368772D01*
X71434917Y-99373649D01*
X71420876Y-99377166D01*
X71406558Y-99379290D01*
X71392100Y-99380000D01*
X71097100Y-99380000D01*
X71082642Y-99379290D01*
X71068324Y-99377166D01*
X71054283Y-99373649D01*
X71040654Y-99368772D01*
X71027569Y-99362583D01*
X71015153Y-99355142D01*
X71003527Y-99346519D01*
X70992802Y-99336798D01*
X70983081Y-99326073D01*
X70974458Y-99314447D01*
X70967017Y-99302031D01*
X70960828Y-99288946D01*
X70955951Y-99275317D01*
X70952434Y-99261276D01*
X70950310Y-99246958D01*
X70949600Y-99232500D01*
X70949600Y-98887500D01*
X70950310Y-98873042D01*
X70952434Y-98858724D01*
X70955951Y-98844683D01*
X70960828Y-98831054D01*
X70967017Y-98817969D01*
X70974458Y-98805553D01*
X70983081Y-98793927D01*
X70992802Y-98783202D01*
X71003527Y-98773481D01*
X71015153Y-98764858D01*
X71027569Y-98757417D01*
X71040654Y-98751228D01*
X71054283Y-98746351D01*
X71068324Y-98742834D01*
X71082642Y-98740710D01*
X71097100Y-98740000D01*
X71392100Y-98740000D01*
X71406558Y-98740710D01*
X71406558Y-98740710D01*
G37*
D12*
X71244600Y-99060000D03*
D11*
G36*
X72376558Y-98740710D02*
G01*
X72390876Y-98742834D01*
X72404917Y-98746351D01*
X72418546Y-98751228D01*
X72431631Y-98757417D01*
X72444047Y-98764858D01*
X72455673Y-98773481D01*
X72466398Y-98783202D01*
X72476119Y-98793927D01*
X72484742Y-98805553D01*
X72492183Y-98817969D01*
X72498372Y-98831054D01*
X72503249Y-98844683D01*
X72506766Y-98858724D01*
X72508890Y-98873042D01*
X72509600Y-98887500D01*
X72509600Y-99232500D01*
X72508890Y-99246958D01*
X72506766Y-99261276D01*
X72503249Y-99275317D01*
X72498372Y-99288946D01*
X72492183Y-99302031D01*
X72484742Y-99314447D01*
X72476119Y-99326073D01*
X72466398Y-99336798D01*
X72455673Y-99346519D01*
X72444047Y-99355142D01*
X72431631Y-99362583D01*
X72418546Y-99368772D01*
X72404917Y-99373649D01*
X72390876Y-99377166D01*
X72376558Y-99379290D01*
X72362100Y-99380000D01*
X72067100Y-99380000D01*
X72052642Y-99379290D01*
X72038324Y-99377166D01*
X72024283Y-99373649D01*
X72010654Y-99368772D01*
X71997569Y-99362583D01*
X71985153Y-99355142D01*
X71973527Y-99346519D01*
X71962802Y-99336798D01*
X71953081Y-99326073D01*
X71944458Y-99314447D01*
X71937017Y-99302031D01*
X71930828Y-99288946D01*
X71925951Y-99275317D01*
X71922434Y-99261276D01*
X71920310Y-99246958D01*
X71919600Y-99232500D01*
X71919600Y-98887500D01*
X71920310Y-98873042D01*
X71922434Y-98858724D01*
X71925951Y-98844683D01*
X71930828Y-98831054D01*
X71937017Y-98817969D01*
X71944458Y-98805553D01*
X71953081Y-98793927D01*
X71962802Y-98783202D01*
X71973527Y-98773481D01*
X71985153Y-98764858D01*
X71997569Y-98757417D01*
X72010654Y-98751228D01*
X72024283Y-98746351D01*
X72038324Y-98742834D01*
X72052642Y-98740710D01*
X72067100Y-98740000D01*
X72362100Y-98740000D01*
X72376558Y-98740710D01*
X72376558Y-98740710D01*
G37*
D12*
X72214600Y-99060000D03*
D22*
X71343900Y-97597000D03*
X71343900Y-95697000D03*
X73944100Y-95697000D03*
X73944100Y-96647000D03*
X73944100Y-97597000D03*
D11*
G36*
X69872258Y-93813110D02*
G01*
X69886576Y-93815234D01*
X69900617Y-93818751D01*
X69914246Y-93823628D01*
X69927331Y-93829817D01*
X69939747Y-93837258D01*
X69951373Y-93845881D01*
X69962098Y-93855602D01*
X69971819Y-93866327D01*
X69980442Y-93877953D01*
X69987883Y-93890369D01*
X69994072Y-93903454D01*
X69998949Y-93917083D01*
X70002466Y-93931124D01*
X70004590Y-93945442D01*
X70005300Y-93959900D01*
X70005300Y-94304900D01*
X70004590Y-94319358D01*
X70002466Y-94333676D01*
X69998949Y-94347717D01*
X69994072Y-94361346D01*
X69987883Y-94374431D01*
X69980442Y-94386847D01*
X69971819Y-94398473D01*
X69962098Y-94409198D01*
X69951373Y-94418919D01*
X69939747Y-94427542D01*
X69927331Y-94434983D01*
X69914246Y-94441172D01*
X69900617Y-94446049D01*
X69886576Y-94449566D01*
X69872258Y-94451690D01*
X69857800Y-94452400D01*
X69562800Y-94452400D01*
X69548342Y-94451690D01*
X69534024Y-94449566D01*
X69519983Y-94446049D01*
X69506354Y-94441172D01*
X69493269Y-94434983D01*
X69480853Y-94427542D01*
X69469227Y-94418919D01*
X69458502Y-94409198D01*
X69448781Y-94398473D01*
X69440158Y-94386847D01*
X69432717Y-94374431D01*
X69426528Y-94361346D01*
X69421651Y-94347717D01*
X69418134Y-94333676D01*
X69416010Y-94319358D01*
X69415300Y-94304900D01*
X69415300Y-93959900D01*
X69416010Y-93945442D01*
X69418134Y-93931124D01*
X69421651Y-93917083D01*
X69426528Y-93903454D01*
X69432717Y-93890369D01*
X69440158Y-93877953D01*
X69448781Y-93866327D01*
X69458502Y-93855602D01*
X69469227Y-93845881D01*
X69480853Y-93837258D01*
X69493269Y-93829817D01*
X69506354Y-93823628D01*
X69519983Y-93818751D01*
X69534024Y-93815234D01*
X69548342Y-93813110D01*
X69562800Y-93812400D01*
X69857800Y-93812400D01*
X69872258Y-93813110D01*
X69872258Y-93813110D01*
G37*
D12*
X69710300Y-94132400D03*
D11*
G36*
X70842258Y-93813110D02*
G01*
X70856576Y-93815234D01*
X70870617Y-93818751D01*
X70884246Y-93823628D01*
X70897331Y-93829817D01*
X70909747Y-93837258D01*
X70921373Y-93845881D01*
X70932098Y-93855602D01*
X70941819Y-93866327D01*
X70950442Y-93877953D01*
X70957883Y-93890369D01*
X70964072Y-93903454D01*
X70968949Y-93917083D01*
X70972466Y-93931124D01*
X70974590Y-93945442D01*
X70975300Y-93959900D01*
X70975300Y-94304900D01*
X70974590Y-94319358D01*
X70972466Y-94333676D01*
X70968949Y-94347717D01*
X70964072Y-94361346D01*
X70957883Y-94374431D01*
X70950442Y-94386847D01*
X70941819Y-94398473D01*
X70932098Y-94409198D01*
X70921373Y-94418919D01*
X70909747Y-94427542D01*
X70897331Y-94434983D01*
X70884246Y-94441172D01*
X70870617Y-94446049D01*
X70856576Y-94449566D01*
X70842258Y-94451690D01*
X70827800Y-94452400D01*
X70532800Y-94452400D01*
X70518342Y-94451690D01*
X70504024Y-94449566D01*
X70489983Y-94446049D01*
X70476354Y-94441172D01*
X70463269Y-94434983D01*
X70450853Y-94427542D01*
X70439227Y-94418919D01*
X70428502Y-94409198D01*
X70418781Y-94398473D01*
X70410158Y-94386847D01*
X70402717Y-94374431D01*
X70396528Y-94361346D01*
X70391651Y-94347717D01*
X70388134Y-94333676D01*
X70386010Y-94319358D01*
X70385300Y-94304900D01*
X70385300Y-93959900D01*
X70386010Y-93945442D01*
X70388134Y-93931124D01*
X70391651Y-93917083D01*
X70396528Y-93903454D01*
X70402717Y-93890369D01*
X70410158Y-93877953D01*
X70418781Y-93866327D01*
X70428502Y-93855602D01*
X70439227Y-93845881D01*
X70450853Y-93837258D01*
X70463269Y-93829817D01*
X70476354Y-93823628D01*
X70489983Y-93818751D01*
X70504024Y-93815234D01*
X70518342Y-93813110D01*
X70532800Y-93812400D01*
X70827800Y-93812400D01*
X70842258Y-93813110D01*
X70842258Y-93813110D01*
G37*
D12*
X70680300Y-94132400D03*
D23*
X67767200Y-100117400D03*
X68717200Y-102117400D03*
X66817200Y-102117400D03*
D22*
X70200900Y-101094500D03*
X70200900Y-102044500D03*
X70200900Y-102994500D03*
X72801100Y-102994500D03*
X72801100Y-101094500D03*
D24*
X101746060Y-107905440D03*
X100476060Y-107905440D03*
X99206060Y-107905440D03*
X97936060Y-107905440D03*
X96666060Y-107905440D03*
X95396060Y-107905440D03*
X94126060Y-107905440D03*
X92856060Y-107905440D03*
X91586060Y-107905440D03*
X90316060Y-107905440D03*
X89046060Y-107905440D03*
X87776060Y-107905440D03*
X86506060Y-107905440D03*
X85236060Y-107905440D03*
D25*
X83846060Y-105135440D03*
X83846060Y-103865440D03*
X83846060Y-102595440D03*
X83846060Y-101325440D03*
X83846060Y-100055440D03*
X83846060Y-98785440D03*
X83846060Y-97515440D03*
X83846060Y-96245440D03*
X83846060Y-94975440D03*
X83846060Y-93705440D03*
D24*
X85236060Y-90905440D03*
X86506060Y-90905440D03*
X87776060Y-90905440D03*
X89046060Y-90905440D03*
X90316060Y-90905440D03*
X91586060Y-90905440D03*
X92856060Y-90905440D03*
X94126060Y-90905440D03*
X95396060Y-90905440D03*
X96666060Y-90905440D03*
X97936060Y-90905440D03*
X99206060Y-90905440D03*
X100476060Y-90905440D03*
X101746060Y-90905440D03*
D11*
G36*
X68515758Y-96698550D02*
G01*
X68530076Y-96700674D01*
X68544117Y-96704191D01*
X68557746Y-96709068D01*
X68570831Y-96715257D01*
X68583247Y-96722698D01*
X68594873Y-96731321D01*
X68605598Y-96741042D01*
X68615319Y-96751767D01*
X68623942Y-96763393D01*
X68631383Y-96775809D01*
X68637572Y-96788894D01*
X68642449Y-96802523D01*
X68645966Y-96816564D01*
X68648090Y-96830882D01*
X68648800Y-96845340D01*
X68648800Y-97190340D01*
X68648090Y-97204798D01*
X68645966Y-97219116D01*
X68642449Y-97233157D01*
X68637572Y-97246786D01*
X68631383Y-97259871D01*
X68623942Y-97272287D01*
X68615319Y-97283913D01*
X68605598Y-97294638D01*
X68594873Y-97304359D01*
X68583247Y-97312982D01*
X68570831Y-97320423D01*
X68557746Y-97326612D01*
X68544117Y-97331489D01*
X68530076Y-97335006D01*
X68515758Y-97337130D01*
X68501300Y-97337840D01*
X68206300Y-97337840D01*
X68191842Y-97337130D01*
X68177524Y-97335006D01*
X68163483Y-97331489D01*
X68149854Y-97326612D01*
X68136769Y-97320423D01*
X68124353Y-97312982D01*
X68112727Y-97304359D01*
X68102002Y-97294638D01*
X68092281Y-97283913D01*
X68083658Y-97272287D01*
X68076217Y-97259871D01*
X68070028Y-97246786D01*
X68065151Y-97233157D01*
X68061634Y-97219116D01*
X68059510Y-97204798D01*
X68058800Y-97190340D01*
X68058800Y-96845340D01*
X68059510Y-96830882D01*
X68061634Y-96816564D01*
X68065151Y-96802523D01*
X68070028Y-96788894D01*
X68076217Y-96775809D01*
X68083658Y-96763393D01*
X68092281Y-96751767D01*
X68102002Y-96741042D01*
X68112727Y-96731321D01*
X68124353Y-96722698D01*
X68136769Y-96715257D01*
X68149854Y-96709068D01*
X68163483Y-96704191D01*
X68177524Y-96700674D01*
X68191842Y-96698550D01*
X68206300Y-96697840D01*
X68501300Y-96697840D01*
X68515758Y-96698550D01*
X68515758Y-96698550D01*
G37*
D12*
X68353800Y-97017840D03*
D11*
G36*
X67545758Y-96698550D02*
G01*
X67560076Y-96700674D01*
X67574117Y-96704191D01*
X67587746Y-96709068D01*
X67600831Y-96715257D01*
X67613247Y-96722698D01*
X67624873Y-96731321D01*
X67635598Y-96741042D01*
X67645319Y-96751767D01*
X67653942Y-96763393D01*
X67661383Y-96775809D01*
X67667572Y-96788894D01*
X67672449Y-96802523D01*
X67675966Y-96816564D01*
X67678090Y-96830882D01*
X67678800Y-96845340D01*
X67678800Y-97190340D01*
X67678090Y-97204798D01*
X67675966Y-97219116D01*
X67672449Y-97233157D01*
X67667572Y-97246786D01*
X67661383Y-97259871D01*
X67653942Y-97272287D01*
X67645319Y-97283913D01*
X67635598Y-97294638D01*
X67624873Y-97304359D01*
X67613247Y-97312982D01*
X67600831Y-97320423D01*
X67587746Y-97326612D01*
X67574117Y-97331489D01*
X67560076Y-97335006D01*
X67545758Y-97337130D01*
X67531300Y-97337840D01*
X67236300Y-97337840D01*
X67221842Y-97337130D01*
X67207524Y-97335006D01*
X67193483Y-97331489D01*
X67179854Y-97326612D01*
X67166769Y-97320423D01*
X67154353Y-97312982D01*
X67142727Y-97304359D01*
X67132002Y-97294638D01*
X67122281Y-97283913D01*
X67113658Y-97272287D01*
X67106217Y-97259871D01*
X67100028Y-97246786D01*
X67095151Y-97233157D01*
X67091634Y-97219116D01*
X67089510Y-97204798D01*
X67088800Y-97190340D01*
X67088800Y-96845340D01*
X67089510Y-96830882D01*
X67091634Y-96816564D01*
X67095151Y-96802523D01*
X67100028Y-96788894D01*
X67106217Y-96775809D01*
X67113658Y-96763393D01*
X67122281Y-96751767D01*
X67132002Y-96741042D01*
X67142727Y-96731321D01*
X67154353Y-96722698D01*
X67166769Y-96715257D01*
X67179854Y-96709068D01*
X67193483Y-96704191D01*
X67207524Y-96700674D01*
X67221842Y-96698550D01*
X67236300Y-96697840D01*
X67531300Y-96697840D01*
X67545758Y-96698550D01*
X67545758Y-96698550D01*
G37*
D12*
X67383800Y-97017840D03*
D11*
G36*
X73608458Y-105408210D02*
G01*
X73622776Y-105410334D01*
X73636817Y-105413851D01*
X73650446Y-105418728D01*
X73663531Y-105424917D01*
X73675947Y-105432358D01*
X73687573Y-105440981D01*
X73698298Y-105450702D01*
X73708019Y-105461427D01*
X73716642Y-105473053D01*
X73724083Y-105485469D01*
X73730272Y-105498554D01*
X73735149Y-105512183D01*
X73738666Y-105526224D01*
X73740790Y-105540542D01*
X73741500Y-105555000D01*
X73741500Y-105900000D01*
X73740790Y-105914458D01*
X73738666Y-105928776D01*
X73735149Y-105942817D01*
X73730272Y-105956446D01*
X73724083Y-105969531D01*
X73716642Y-105981947D01*
X73708019Y-105993573D01*
X73698298Y-106004298D01*
X73687573Y-106014019D01*
X73675947Y-106022642D01*
X73663531Y-106030083D01*
X73650446Y-106036272D01*
X73636817Y-106041149D01*
X73622776Y-106044666D01*
X73608458Y-106046790D01*
X73594000Y-106047500D01*
X73299000Y-106047500D01*
X73284542Y-106046790D01*
X73270224Y-106044666D01*
X73256183Y-106041149D01*
X73242554Y-106036272D01*
X73229469Y-106030083D01*
X73217053Y-106022642D01*
X73205427Y-106014019D01*
X73194702Y-106004298D01*
X73184981Y-105993573D01*
X73176358Y-105981947D01*
X73168917Y-105969531D01*
X73162728Y-105956446D01*
X73157851Y-105942817D01*
X73154334Y-105928776D01*
X73152210Y-105914458D01*
X73151500Y-105900000D01*
X73151500Y-105555000D01*
X73152210Y-105540542D01*
X73154334Y-105526224D01*
X73157851Y-105512183D01*
X73162728Y-105498554D01*
X73168917Y-105485469D01*
X73176358Y-105473053D01*
X73184981Y-105461427D01*
X73194702Y-105450702D01*
X73205427Y-105440981D01*
X73217053Y-105432358D01*
X73229469Y-105424917D01*
X73242554Y-105418728D01*
X73256183Y-105413851D01*
X73270224Y-105410334D01*
X73284542Y-105408210D01*
X73299000Y-105407500D01*
X73594000Y-105407500D01*
X73608458Y-105408210D01*
X73608458Y-105408210D01*
G37*
D12*
X73446500Y-105727500D03*
D11*
G36*
X72638458Y-105408210D02*
G01*
X72652776Y-105410334D01*
X72666817Y-105413851D01*
X72680446Y-105418728D01*
X72693531Y-105424917D01*
X72705947Y-105432358D01*
X72717573Y-105440981D01*
X72728298Y-105450702D01*
X72738019Y-105461427D01*
X72746642Y-105473053D01*
X72754083Y-105485469D01*
X72760272Y-105498554D01*
X72765149Y-105512183D01*
X72768666Y-105526224D01*
X72770790Y-105540542D01*
X72771500Y-105555000D01*
X72771500Y-105900000D01*
X72770790Y-105914458D01*
X72768666Y-105928776D01*
X72765149Y-105942817D01*
X72760272Y-105956446D01*
X72754083Y-105969531D01*
X72746642Y-105981947D01*
X72738019Y-105993573D01*
X72728298Y-106004298D01*
X72717573Y-106014019D01*
X72705947Y-106022642D01*
X72693531Y-106030083D01*
X72680446Y-106036272D01*
X72666817Y-106041149D01*
X72652776Y-106044666D01*
X72638458Y-106046790D01*
X72624000Y-106047500D01*
X72329000Y-106047500D01*
X72314542Y-106046790D01*
X72300224Y-106044666D01*
X72286183Y-106041149D01*
X72272554Y-106036272D01*
X72259469Y-106030083D01*
X72247053Y-106022642D01*
X72235427Y-106014019D01*
X72224702Y-106004298D01*
X72214981Y-105993573D01*
X72206358Y-105981947D01*
X72198917Y-105969531D01*
X72192728Y-105956446D01*
X72187851Y-105942817D01*
X72184334Y-105928776D01*
X72182210Y-105914458D01*
X72181500Y-105900000D01*
X72181500Y-105555000D01*
X72182210Y-105540542D01*
X72184334Y-105526224D01*
X72187851Y-105512183D01*
X72192728Y-105498554D01*
X72198917Y-105485469D01*
X72206358Y-105473053D01*
X72214981Y-105461427D01*
X72224702Y-105450702D01*
X72235427Y-105440981D01*
X72247053Y-105432358D01*
X72259469Y-105424917D01*
X72272554Y-105418728D01*
X72286183Y-105413851D01*
X72300224Y-105410334D01*
X72314542Y-105408210D01*
X72329000Y-105407500D01*
X72624000Y-105407500D01*
X72638458Y-105408210D01*
X72638458Y-105408210D01*
G37*
D12*
X72476500Y-105727500D03*
M02*
