%TF.GenerationSoftware,KiCad,Pcbnew,(6.0.0-rc1-dev-1614-ge850a482d)*%
%TF.CreationDate,2019-02-21T20:22:14-08:00*%
%TF.ProjectId,SAM32,53414d33-322e-46b6-9963-61645f706362,rev?*%
%TF.SameCoordinates,Original*%
%TF.FileFunction,Legend,Bot*%
%TF.FilePolarity,Positive*%
%FSLAX46Y46*%
G04 Gerber Fmt 4.6, Leading zero omitted, Abs format (unit mm)*
G04 Created by KiCad (PCBNEW (6.0.0-rc1-dev-1614-ge850a482d)) date 2019-02-21 20:22:14*
%MOMM*%
%LPD*%
G04 APERTURE LIST*
%ADD10C,0.150000*%
%ADD11C,0.381000*%
%ADD12C,0.127000*%
%ADD13C,0.508000*%
%ADD14C,0.172720*%
%ADD15C,0.177800*%
%ADD16C,0.177000*%
%ADD17C,0.240000*%
%ADD18C,0.200000*%
%ADD19C,0.120000*%
%ADD20C,0.088900*%
G04 APERTURE END LIST*
D10*
X73914000Y-95783400D02*
X74041000Y-95707200D01*
X73914000Y-95580200D02*
X73914000Y-95783400D01*
X74091800Y-95681800D02*
X73914000Y-95580200D01*
X73812400Y-95961200D02*
X74218800Y-95681800D01*
X73812400Y-95402400D02*
X73812400Y-95961200D01*
X74218800Y-95681800D02*
X73812400Y-95402400D01*
D11*
X86464140Y-107246420D02*
X86464140Y-110528100D01*
X94086680Y-107127040D02*
X94086680Y-110408720D01*
D12*
X73411019Y-107983261D02*
X73411019Y-107348261D01*
X73259829Y-107348261D01*
X73169114Y-107378500D01*
X73108638Y-107438976D01*
X73078400Y-107499452D01*
X73048162Y-107620404D01*
X73048162Y-107711119D01*
X73078400Y-107832071D01*
X73108638Y-107892547D01*
X73169114Y-107953023D01*
X73259829Y-107983261D01*
X73411019Y-107983261D01*
X72503876Y-107559928D02*
X72503876Y-107983261D01*
X72655067Y-107318023D02*
X72806257Y-107771595D01*
X72413162Y-107771595D01*
X72201495Y-107408738D02*
X72171257Y-107378500D01*
X72110781Y-107348261D01*
X71959590Y-107348261D01*
X71899114Y-107378500D01*
X71868876Y-107408738D01*
X71838638Y-107469214D01*
X71838638Y-107529690D01*
X71868876Y-107620404D01*
X72231733Y-107983261D01*
X71838638Y-107983261D01*
X75857039Y-107983261D02*
X75857039Y-107348261D01*
X75705849Y-107348261D01*
X75615134Y-107378500D01*
X75554658Y-107438976D01*
X75524420Y-107499452D01*
X75494182Y-107620404D01*
X75494182Y-107711119D01*
X75524420Y-107832071D01*
X75554658Y-107892547D01*
X75615134Y-107953023D01*
X75705849Y-107983261D01*
X75857039Y-107983261D01*
X74949896Y-107559928D02*
X74949896Y-107983261D01*
X75101087Y-107318023D02*
X75252277Y-107771595D01*
X74859182Y-107771595D01*
X74284658Y-107983261D02*
X74647515Y-107983261D01*
X74466087Y-107983261D02*
X74466087Y-107348261D01*
X74526563Y-107438976D01*
X74587039Y-107499452D01*
X74647515Y-107529690D01*
X83586259Y-107983261D02*
X83586259Y-107348261D01*
X83435069Y-107348261D01*
X83344354Y-107378500D01*
X83283878Y-107438976D01*
X83253640Y-107499452D01*
X83223402Y-107620404D01*
X83223402Y-107711119D01*
X83253640Y-107832071D01*
X83283878Y-107892547D01*
X83344354Y-107953023D01*
X83435069Y-107983261D01*
X83586259Y-107983261D01*
X83011735Y-107348261D02*
X82618640Y-107348261D01*
X82830307Y-107590166D01*
X82739592Y-107590166D01*
X82679116Y-107620404D01*
X82648878Y-107650642D01*
X82618640Y-107711119D01*
X82618640Y-107862309D01*
X82648878Y-107922785D01*
X82679116Y-107953023D01*
X82739592Y-107983261D01*
X82921021Y-107983261D01*
X82981497Y-107953023D01*
X83011735Y-107922785D01*
X82044116Y-107348261D02*
X82346497Y-107348261D01*
X82376735Y-107650642D01*
X82346497Y-107620404D01*
X82286021Y-107590166D01*
X82134830Y-107590166D01*
X82074354Y-107620404D01*
X82044116Y-107650642D01*
X82013878Y-107711119D01*
X82013878Y-107862309D01*
X82044116Y-107922785D01*
X82074354Y-107953023D01*
X82134830Y-107983261D01*
X82286021Y-107983261D01*
X82346497Y-107953023D01*
X82376735Y-107922785D01*
X85872259Y-107983261D02*
X85872259Y-107348261D01*
X85721069Y-107348261D01*
X85630354Y-107378500D01*
X85569878Y-107438976D01*
X85539640Y-107499452D01*
X85509402Y-107620404D01*
X85509402Y-107711119D01*
X85539640Y-107832071D01*
X85569878Y-107892547D01*
X85630354Y-107953023D01*
X85721069Y-107983261D01*
X85872259Y-107983261D01*
X85297735Y-107348261D02*
X84904640Y-107348261D01*
X85116307Y-107590166D01*
X85025592Y-107590166D01*
X84965116Y-107620404D01*
X84934878Y-107650642D01*
X84904640Y-107711119D01*
X84904640Y-107862309D01*
X84934878Y-107922785D01*
X84965116Y-107953023D01*
X85025592Y-107983261D01*
X85207021Y-107983261D01*
X85267497Y-107953023D01*
X85297735Y-107922785D01*
X84299878Y-107983261D02*
X84662735Y-107983261D01*
X84481307Y-107983261D02*
X84481307Y-107348261D01*
X84541783Y-107438976D01*
X84602259Y-107499452D01*
X84662735Y-107529690D01*
X96125997Y-107953023D02*
X96035283Y-107983261D01*
X95884092Y-107983261D01*
X95823616Y-107953023D01*
X95793378Y-107922785D01*
X95763140Y-107862309D01*
X95763140Y-107801833D01*
X95793378Y-107741357D01*
X95823616Y-107711119D01*
X95884092Y-107680880D01*
X96005045Y-107650642D01*
X96065521Y-107620404D01*
X96095759Y-107590166D01*
X96125997Y-107529690D01*
X96125997Y-107469214D01*
X96095759Y-107408738D01*
X96065521Y-107378500D01*
X96005045Y-107348261D01*
X95853854Y-107348261D01*
X95763140Y-107378500D01*
X95128140Y-107922785D02*
X95158378Y-107953023D01*
X95249092Y-107983261D01*
X95309569Y-107983261D01*
X95400283Y-107953023D01*
X95460759Y-107892547D01*
X95490997Y-107832071D01*
X95521235Y-107711119D01*
X95521235Y-107620404D01*
X95490997Y-107499452D01*
X95460759Y-107438976D01*
X95400283Y-107378500D01*
X95309569Y-107348261D01*
X95249092Y-107348261D01*
X95158378Y-107378500D01*
X95128140Y-107408738D01*
X94553616Y-107983261D02*
X94855997Y-107983261D01*
X94855997Y-107348261D01*
X103652259Y-107983261D02*
X103652259Y-107348261D01*
X103501069Y-107348261D01*
X103410354Y-107378500D01*
X103349878Y-107438976D01*
X103319640Y-107499452D01*
X103289402Y-107620404D01*
X103289402Y-107711119D01*
X103319640Y-107832071D01*
X103349878Y-107892547D01*
X103410354Y-107953023D01*
X103501069Y-107983261D01*
X103652259Y-107983261D01*
X102684640Y-107983261D02*
X103047497Y-107983261D01*
X102866069Y-107983261D02*
X102866069Y-107348261D01*
X102926545Y-107438976D01*
X102987021Y-107499452D01*
X103047497Y-107529690D01*
X102140354Y-107348261D02*
X102261307Y-107348261D01*
X102321783Y-107378500D01*
X102352021Y-107408738D01*
X102412497Y-107499452D01*
X102442735Y-107620404D01*
X102442735Y-107862309D01*
X102412497Y-107922785D01*
X102382259Y-107953023D01*
X102321783Y-107983261D01*
X102200830Y-107983261D01*
X102140354Y-107953023D01*
X102110116Y-107922785D01*
X102079878Y-107862309D01*
X102079878Y-107711119D01*
X102110116Y-107650642D01*
X102140354Y-107620404D01*
X102200830Y-107590166D01*
X102321783Y-107590166D01*
X102382259Y-107620404D01*
X102412497Y-107650642D01*
X102442735Y-107711119D01*
X98665997Y-107953023D02*
X98575283Y-107983261D01*
X98424092Y-107983261D01*
X98363616Y-107953023D01*
X98333378Y-107922785D01*
X98303140Y-107862309D01*
X98303140Y-107801833D01*
X98333378Y-107741357D01*
X98363616Y-107711119D01*
X98424092Y-107680880D01*
X98545045Y-107650642D01*
X98605521Y-107620404D01*
X98635759Y-107590166D01*
X98665997Y-107529690D01*
X98665997Y-107469214D01*
X98635759Y-107408738D01*
X98605521Y-107378500D01*
X98545045Y-107348261D01*
X98393854Y-107348261D01*
X98303140Y-107378500D01*
X98030997Y-107983261D02*
X98030997Y-107348261D01*
X97879807Y-107348261D01*
X97789092Y-107378500D01*
X97728616Y-107438976D01*
X97698378Y-107499452D01*
X97668140Y-107620404D01*
X97668140Y-107711119D01*
X97698378Y-107832071D01*
X97728616Y-107892547D01*
X97789092Y-107953023D01*
X97879807Y-107983261D01*
X98030997Y-107983261D01*
X97426235Y-107801833D02*
X97123854Y-107801833D01*
X97486711Y-107983261D02*
X97275045Y-107348261D01*
X97063378Y-107983261D01*
D13*
X109192060Y-106945080D02*
X109192060Y-108498640D01*
X106652060Y-111038640D02*
G75*
G03X109192060Y-108498640I0J2540000D01*
G01*
X103755076Y-102181768D02*
X109192060Y-106945080D01*
X55852060Y-96296067D02*
X56300000Y-96740000D01*
X103758052Y-96469398D02*
X109220013Y-91690000D01*
X103758039Y-96469407D02*
G75*
G03X103628512Y-96721166I160472J-241760D01*
G01*
X103755063Y-102181759D02*
G75*
G02X103625536Y-101930000I160472J241760D01*
G01*
X103625536Y-101930000D02*
X103628512Y-96721166D01*
X55852060Y-102438136D02*
X56300000Y-101994203D01*
X56300000Y-101994203D02*
G75*
G03X56361488Y-101805369I-228511J178835D01*
G01*
X56300000Y-96740000D02*
G75*
G02X56361488Y-96928834I-228511J-178835D01*
G01*
D12*
X102983928Y-104665883D02*
X103407261Y-104665883D01*
X102983928Y-104393740D02*
X103316547Y-104393740D01*
X103377023Y-104423978D01*
X103407261Y-104484454D01*
X103407261Y-104575169D01*
X103377023Y-104635645D01*
X103346785Y-104665883D01*
X103377023Y-104938026D02*
X103407261Y-105028740D01*
X103407261Y-105179930D01*
X103377023Y-105240407D01*
X103346785Y-105270645D01*
X103286309Y-105300883D01*
X103225833Y-105300883D01*
X103165357Y-105270645D01*
X103135119Y-105240407D01*
X103104880Y-105179930D01*
X103074642Y-105058978D01*
X103044404Y-104998502D01*
X103014166Y-104968264D01*
X102953690Y-104938026D01*
X102893214Y-104938026D01*
X102832738Y-104968264D01*
X102802500Y-104998502D01*
X102772261Y-105058978D01*
X102772261Y-105210169D01*
X102802500Y-105300883D01*
X103407261Y-105573026D02*
X102772261Y-105573026D01*
X102772261Y-105724216D01*
X102802500Y-105814930D01*
X102862976Y-105875407D01*
X102923452Y-105905645D01*
X103044404Y-105935883D01*
X103135119Y-105935883D01*
X103256071Y-105905645D01*
X103316547Y-105875407D01*
X103377023Y-105814930D01*
X103407261Y-105724216D01*
X103407261Y-105573026D01*
D14*
X82502828Y-100812382D02*
X83044695Y-101005906D01*
X82502828Y-101199429D01*
X82309304Y-101470363D02*
X82270600Y-101509068D01*
X82231895Y-101586477D01*
X82231895Y-101780001D01*
X82270600Y-101857410D01*
X82309304Y-101896115D01*
X82386714Y-101934820D01*
X82464123Y-101934820D01*
X82580238Y-101896115D01*
X83044695Y-101431658D01*
X83044695Y-101934820D01*
X82309304Y-102244458D02*
X82270600Y-102283163D01*
X82231895Y-102360572D01*
X82231895Y-102554096D01*
X82270600Y-102631506D01*
X82309304Y-102670210D01*
X82386714Y-102708915D01*
X82464123Y-102708915D01*
X82580238Y-102670210D01*
X83044695Y-102205753D01*
X83044695Y-102708915D01*
D12*
X84498240Y-90644738D02*
X84498240Y-91279738D01*
X84649430Y-91279738D01*
X84740145Y-91249500D01*
X84800621Y-91189023D01*
X84830859Y-91128547D01*
X84861097Y-91007595D01*
X84861097Y-90916880D01*
X84830859Y-90795928D01*
X84800621Y-90735452D01*
X84740145Y-90674976D01*
X84649430Y-90644738D01*
X84498240Y-90644738D01*
X85405383Y-91279738D02*
X85284430Y-91279738D01*
X85223954Y-91249500D01*
X85193716Y-91219261D01*
X85133240Y-91128547D01*
X85103002Y-91007595D01*
X85103002Y-90765690D01*
X85133240Y-90705214D01*
X85163478Y-90674976D01*
X85223954Y-90644738D01*
X85344907Y-90644738D01*
X85405383Y-90674976D01*
X85435621Y-90705214D01*
X85465859Y-90765690D01*
X85465859Y-90916880D01*
X85435621Y-90977357D01*
X85405383Y-91007595D01*
X85344907Y-91037833D01*
X85223954Y-91037833D01*
X85163478Y-91007595D01*
X85133240Y-90977357D01*
X85103002Y-90916880D01*
X86010145Y-91068071D02*
X86010145Y-90644738D01*
X85858954Y-91309976D02*
X85707764Y-90856404D01*
X86100859Y-90856404D01*
X92088002Y-90826166D02*
X92390383Y-90826166D01*
X92027526Y-90644738D02*
X92239192Y-91279738D01*
X92450859Y-90644738D01*
X92662526Y-90644738D02*
X92662526Y-91279738D01*
X92964907Y-90644738D02*
X92964907Y-91279738D01*
X93327764Y-90644738D01*
X93327764Y-91279738D01*
X93569669Y-91279738D02*
X93993002Y-91279738D01*
X93720859Y-90644738D01*
X102248002Y-90674976D02*
X102338716Y-90644738D01*
X102489907Y-90644738D01*
X102550383Y-90674976D01*
X102580621Y-90705214D01*
X102610859Y-90765690D01*
X102610859Y-90826166D01*
X102580621Y-90886642D01*
X102550383Y-90916880D01*
X102489907Y-90947119D01*
X102368954Y-90977357D01*
X102308478Y-91007595D01*
X102278240Y-91037833D01*
X102248002Y-91098309D01*
X102248002Y-91158785D01*
X102278240Y-91219261D01*
X102308478Y-91249500D01*
X102368954Y-91279738D01*
X102520145Y-91279738D01*
X102610859Y-91249500D01*
X102883002Y-90644738D02*
X102883002Y-91279738D01*
X103034192Y-91279738D01*
X103124907Y-91249500D01*
X103185383Y-91189023D01*
X103215621Y-91128547D01*
X103245859Y-91007595D01*
X103245859Y-90916880D01*
X103215621Y-90795928D01*
X103185383Y-90735452D01*
X103124907Y-90674976D01*
X103034192Y-90644738D01*
X102883002Y-90644738D01*
X103487764Y-90826166D02*
X103790145Y-90826166D01*
X103427288Y-90644738D02*
X103638954Y-91279738D01*
X103850621Y-90644738D01*
X81958240Y-90644738D02*
X81958240Y-91279738D01*
X82109430Y-91279738D01*
X82200145Y-91249500D01*
X82260621Y-91189023D01*
X82290859Y-91128547D01*
X82321097Y-91007595D01*
X82321097Y-90916880D01*
X82290859Y-90795928D01*
X82260621Y-90735452D01*
X82200145Y-90674976D01*
X82109430Y-90644738D01*
X81958240Y-90644738D01*
X82865383Y-91279738D02*
X82744430Y-91279738D01*
X82683954Y-91249500D01*
X82653716Y-91219261D01*
X82593240Y-91128547D01*
X82563002Y-91007595D01*
X82563002Y-90765690D01*
X82593240Y-90705214D01*
X82623478Y-90674976D01*
X82683954Y-90644738D01*
X82804907Y-90644738D01*
X82865383Y-90674976D01*
X82895621Y-90705214D01*
X82925859Y-90765690D01*
X82925859Y-90916880D01*
X82895621Y-90977357D01*
X82865383Y-91007595D01*
X82804907Y-91037833D01*
X82683954Y-91037833D01*
X82623478Y-91007595D01*
X82593240Y-90977357D01*
X82563002Y-90916880D01*
X83318954Y-91279738D02*
X83379430Y-91279738D01*
X83439907Y-91249500D01*
X83470145Y-91219261D01*
X83500383Y-91158785D01*
X83530621Y-91037833D01*
X83530621Y-90886642D01*
X83500383Y-90765690D01*
X83470145Y-90705214D01*
X83439907Y-90674976D01*
X83379430Y-90644738D01*
X83318954Y-90644738D01*
X83258478Y-90674976D01*
X83228240Y-90705214D01*
X83198002Y-90765690D01*
X83167764Y-90886642D01*
X83167764Y-91037833D01*
X83198002Y-91158785D01*
X83228240Y-91219261D01*
X83258478Y-91249500D01*
X83318954Y-91279738D01*
X94628002Y-90826166D02*
X94930383Y-90826166D01*
X94567526Y-90644738D02*
X94779192Y-91279738D01*
X94990859Y-90644738D01*
X95202526Y-90644738D02*
X95202526Y-91279738D01*
X95504907Y-90644738D02*
X95504907Y-91279738D01*
X95867764Y-90644738D01*
X95867764Y-91279738D01*
X96260859Y-91007595D02*
X96200383Y-91037833D01*
X96170145Y-91068071D01*
X96139907Y-91128547D01*
X96139907Y-91158785D01*
X96170145Y-91219261D01*
X96200383Y-91249500D01*
X96260859Y-91279738D01*
X96381811Y-91279738D01*
X96442288Y-91249500D01*
X96472526Y-91219261D01*
X96502764Y-91158785D01*
X96502764Y-91128547D01*
X96472526Y-91068071D01*
X96442288Y-91037833D01*
X96381811Y-91007595D01*
X96260859Y-91007595D01*
X96200383Y-90977357D01*
X96170145Y-90947119D01*
X96139907Y-90886642D01*
X96139907Y-90765690D01*
X96170145Y-90705214D01*
X96200383Y-90674976D01*
X96260859Y-90644738D01*
X96381811Y-90644738D01*
X96442288Y-90674976D01*
X96472526Y-90705214D01*
X96502764Y-90765690D01*
X96502764Y-90886642D01*
X96472526Y-90947119D01*
X96442288Y-90977357D01*
X96381811Y-91007595D01*
X86847740Y-90644738D02*
X86847740Y-91279738D01*
X86998930Y-91279738D01*
X87089645Y-91249500D01*
X87150121Y-91189023D01*
X87180359Y-91128547D01*
X87210597Y-91007595D01*
X87210597Y-90916880D01*
X87180359Y-90795928D01*
X87150121Y-90735452D01*
X87089645Y-90674976D01*
X86998930Y-90644738D01*
X86847740Y-90644738D01*
X87452502Y-90826166D02*
X87754883Y-90826166D01*
X87392026Y-90644738D02*
X87603692Y-91279738D01*
X87815359Y-90644738D01*
X88389883Y-90705214D02*
X88359645Y-90674976D01*
X88268930Y-90644738D01*
X88208454Y-90644738D01*
X88117740Y-90674976D01*
X88057264Y-90735452D01*
X88027026Y-90795928D01*
X87996788Y-90916880D01*
X87996788Y-91007595D01*
X88027026Y-91128547D01*
X88057264Y-91189023D01*
X88117740Y-91249500D01*
X88208454Y-91279738D01*
X88268930Y-91279738D01*
X88359645Y-91249500D01*
X88389883Y-91219261D01*
X88782978Y-91279738D02*
X88843454Y-91279738D01*
X88903930Y-91249500D01*
X88934169Y-91219261D01*
X88964407Y-91158785D01*
X88994645Y-91037833D01*
X88994645Y-90886642D01*
X88964407Y-90765690D01*
X88934169Y-90705214D01*
X88903930Y-90674976D01*
X88843454Y-90644738D01*
X88782978Y-90644738D01*
X88722502Y-90674976D01*
X88692264Y-90705214D01*
X88662026Y-90765690D01*
X88631788Y-90886642D01*
X88631788Y-91037833D01*
X88662026Y-91158785D01*
X88692264Y-91219261D01*
X88722502Y-91249500D01*
X88782978Y-91279738D01*
X99708002Y-90674976D02*
X99798716Y-90644738D01*
X99949907Y-90644738D01*
X100010383Y-90674976D01*
X100040621Y-90705214D01*
X100070859Y-90765690D01*
X100070859Y-90826166D01*
X100040621Y-90886642D01*
X100010383Y-90916880D01*
X99949907Y-90947119D01*
X99828954Y-90977357D01*
X99768478Y-91007595D01*
X99738240Y-91037833D01*
X99708002Y-91098309D01*
X99708002Y-91158785D01*
X99738240Y-91219261D01*
X99768478Y-91249500D01*
X99828954Y-91279738D01*
X99980145Y-91279738D01*
X100070859Y-91249500D01*
X100705859Y-90705214D02*
X100675621Y-90674976D01*
X100584907Y-90644738D01*
X100524430Y-90644738D01*
X100433716Y-90674976D01*
X100373240Y-90735452D01*
X100343002Y-90795928D01*
X100312764Y-90916880D01*
X100312764Y-91007595D01*
X100343002Y-91128547D01*
X100373240Y-91189023D01*
X100433716Y-91249500D01*
X100524430Y-91279738D01*
X100584907Y-91279738D01*
X100675621Y-91249500D01*
X100705859Y-91219261D01*
X101280383Y-90644738D02*
X100978002Y-90644738D01*
X100978002Y-91279738D01*
X79418240Y-90644738D02*
X79418240Y-91279738D01*
X79569430Y-91279738D01*
X79660145Y-91249500D01*
X79720621Y-91189023D01*
X79750859Y-91128547D01*
X79781097Y-91007595D01*
X79781097Y-90916880D01*
X79750859Y-90795928D01*
X79720621Y-90735452D01*
X79660145Y-90674976D01*
X79569430Y-90644738D01*
X79418240Y-90644738D01*
X80355621Y-91279738D02*
X80053240Y-91279738D01*
X80023002Y-90977357D01*
X80053240Y-91007595D01*
X80113716Y-91037833D01*
X80264907Y-91037833D01*
X80325383Y-91007595D01*
X80355621Y-90977357D01*
X80385859Y-90916880D01*
X80385859Y-90765690D01*
X80355621Y-90705214D01*
X80325383Y-90674976D01*
X80264907Y-90644738D01*
X80113716Y-90644738D01*
X80053240Y-90674976D01*
X80023002Y-90705214D01*
X80688240Y-90644738D02*
X80809192Y-90644738D01*
X80869669Y-90674976D01*
X80899907Y-90705214D01*
X80960383Y-90795928D01*
X80990621Y-90916880D01*
X80990621Y-91158785D01*
X80960383Y-91219261D01*
X80930145Y-91249500D01*
X80869669Y-91279738D01*
X80748716Y-91279738D01*
X80688240Y-91249500D01*
X80658002Y-91219261D01*
X80627764Y-91158785D01*
X80627764Y-91007595D01*
X80658002Y-90947119D01*
X80688240Y-90916880D01*
X80748716Y-90886642D01*
X80869669Y-90886642D01*
X80930145Y-90916880D01*
X80960383Y-90947119D01*
X80990621Y-91007595D01*
X76560740Y-90644738D02*
X76560740Y-91279738D01*
X76711930Y-91279738D01*
X76802645Y-91249500D01*
X76863121Y-91189023D01*
X76893359Y-91128547D01*
X76923597Y-91007595D01*
X76923597Y-90916880D01*
X76893359Y-90795928D01*
X76863121Y-90735452D01*
X76802645Y-90674976D01*
X76711930Y-90644738D01*
X76560740Y-90644738D01*
X77165502Y-90826166D02*
X77467883Y-90826166D01*
X77105026Y-90644738D02*
X77316692Y-91279738D01*
X77528359Y-90644738D01*
X78102883Y-90705214D02*
X78072645Y-90674976D01*
X77981930Y-90644738D01*
X77921454Y-90644738D01*
X77830740Y-90674976D01*
X77770264Y-90735452D01*
X77740026Y-90795928D01*
X77709788Y-90916880D01*
X77709788Y-91007595D01*
X77740026Y-91128547D01*
X77770264Y-91189023D01*
X77830740Y-91249500D01*
X77921454Y-91279738D01*
X77981930Y-91279738D01*
X78072645Y-91249500D01*
X78102883Y-91219261D01*
X78707645Y-90644738D02*
X78344788Y-90644738D01*
X78526216Y-90644738D02*
X78526216Y-91279738D01*
X78465740Y-91189023D01*
X78405264Y-91128547D01*
X78344788Y-91098309D01*
X68723026Y-91279738D02*
X68934692Y-90644738D01*
X69146359Y-91279738D01*
X69569692Y-90977357D02*
X69660407Y-90947119D01*
X69690645Y-90916880D01*
X69720883Y-90856404D01*
X69720883Y-90765690D01*
X69690645Y-90705214D01*
X69660407Y-90674976D01*
X69599930Y-90644738D01*
X69358026Y-90644738D01*
X69358026Y-91279738D01*
X69569692Y-91279738D01*
X69630169Y-91249500D01*
X69660407Y-91219261D01*
X69690645Y-91158785D01*
X69690645Y-91098309D01*
X69660407Y-91037833D01*
X69630169Y-91007595D01*
X69569692Y-90977357D01*
X69358026Y-90977357D01*
X69962788Y-90826166D02*
X70265169Y-90826166D01*
X69902311Y-90644738D02*
X70113978Y-91279738D01*
X70325645Y-90644738D01*
X70446597Y-91279738D02*
X70809454Y-91279738D01*
X70628026Y-90644738D02*
X70628026Y-91279738D01*
X71798240Y-90644738D02*
X71798240Y-91279738D01*
X71949430Y-91279738D01*
X72040145Y-91249500D01*
X72100621Y-91189023D01*
X72130859Y-91128547D01*
X72161097Y-91007595D01*
X72161097Y-90916880D01*
X72130859Y-90795928D01*
X72100621Y-90735452D01*
X72040145Y-90674976D01*
X71949430Y-90644738D01*
X71798240Y-90644738D01*
X72705383Y-91068071D02*
X72705383Y-90644738D01*
X72554192Y-91309976D02*
X72403002Y-90856404D01*
X72796097Y-90856404D01*
X73068240Y-90644738D02*
X73189192Y-90644738D01*
X73249669Y-90674976D01*
X73279907Y-90705214D01*
X73340383Y-90795928D01*
X73370621Y-90916880D01*
X73370621Y-91158785D01*
X73340383Y-91219261D01*
X73310145Y-91249500D01*
X73249669Y-91279738D01*
X73128716Y-91279738D01*
X73068240Y-91249500D01*
X73038002Y-91219261D01*
X73007764Y-91158785D01*
X73007764Y-91007595D01*
X73038002Y-90947119D01*
X73068240Y-90916880D01*
X73128716Y-90886642D01*
X73249669Y-90886642D01*
X73310145Y-90916880D01*
X73340383Y-90947119D01*
X73370621Y-91007595D01*
X74338240Y-91279738D02*
X74338240Y-90765690D01*
X74368478Y-90705214D01*
X74398716Y-90674976D01*
X74459192Y-90644738D01*
X74580145Y-90644738D01*
X74640621Y-90674976D01*
X74670859Y-90705214D01*
X74701097Y-90765690D01*
X74701097Y-91279738D01*
X74973240Y-90674976D02*
X75063954Y-90644738D01*
X75215145Y-90644738D01*
X75275621Y-90674976D01*
X75305859Y-90705214D01*
X75336097Y-90765690D01*
X75336097Y-90826166D01*
X75305859Y-90886642D01*
X75275621Y-90916880D01*
X75215145Y-90947119D01*
X75094192Y-90977357D01*
X75033716Y-91007595D01*
X75003478Y-91037833D01*
X74973240Y-91098309D01*
X74973240Y-91158785D01*
X75003478Y-91219261D01*
X75033716Y-91249500D01*
X75094192Y-91279738D01*
X75245383Y-91279738D01*
X75336097Y-91249500D01*
X75819907Y-90977357D02*
X75910621Y-90947119D01*
X75940859Y-90916880D01*
X75971097Y-90856404D01*
X75971097Y-90765690D01*
X75940859Y-90705214D01*
X75910621Y-90674976D01*
X75850145Y-90644738D01*
X75608240Y-90644738D01*
X75608240Y-91279738D01*
X75819907Y-91279738D01*
X75880383Y-91249500D01*
X75910621Y-91219261D01*
X75940859Y-91158785D01*
X75940859Y-91098309D01*
X75910621Y-91037833D01*
X75880383Y-91007595D01*
X75819907Y-90977357D01*
X75608240Y-90977357D01*
X89548002Y-90826166D02*
X89850383Y-90826166D01*
X89487526Y-90644738D02*
X89699192Y-91279738D01*
X89910859Y-90644738D01*
X90122526Y-90644738D02*
X90122526Y-91279738D01*
X90424907Y-90644738D02*
X90424907Y-91279738D01*
X90787764Y-90644738D01*
X90787764Y-91279738D01*
X91362288Y-91279738D02*
X91241335Y-91279738D01*
X91180859Y-91249500D01*
X91150621Y-91219261D01*
X91090145Y-91128547D01*
X91059907Y-91007595D01*
X91059907Y-90765690D01*
X91090145Y-90705214D01*
X91120383Y-90674976D01*
X91180859Y-90644738D01*
X91301811Y-90644738D01*
X91362288Y-90674976D01*
X91392526Y-90705214D01*
X91422764Y-90765690D01*
X91422764Y-90916880D01*
X91392526Y-90977357D01*
X91362288Y-91007595D01*
X91301811Y-91037833D01*
X91180859Y-91037833D01*
X91120383Y-91007595D01*
X91090145Y-90977357D01*
X91059907Y-90916880D01*
X97168002Y-90826166D02*
X97470383Y-90826166D01*
X97107526Y-90644738D02*
X97319192Y-91279738D01*
X97530859Y-90644738D01*
X97742526Y-90644738D02*
X97742526Y-91279738D01*
X98044907Y-90644738D02*
X98044907Y-91279738D01*
X98407764Y-90644738D01*
X98407764Y-91279738D01*
X98740383Y-90644738D02*
X98861335Y-90644738D01*
X98921811Y-90674976D01*
X98952050Y-90705214D01*
X99012526Y-90795928D01*
X99042764Y-90916880D01*
X99042764Y-91158785D01*
X99012526Y-91219261D01*
X98982288Y-91249500D01*
X98921811Y-91279738D01*
X98800859Y-91279738D01*
X98740383Y-91249500D01*
X98710145Y-91219261D01*
X98679907Y-91158785D01*
X98679907Y-91007595D01*
X98710145Y-90947119D01*
X98740383Y-90916880D01*
X98800859Y-90886642D01*
X98921811Y-90886642D01*
X98982288Y-90916880D01*
X99012526Y-90947119D01*
X99042764Y-91007595D01*
X100983640Y-107378500D02*
X101044116Y-107348261D01*
X101134830Y-107348261D01*
X101225545Y-107378500D01*
X101286021Y-107438976D01*
X101316259Y-107499452D01*
X101346497Y-107620404D01*
X101346497Y-107711119D01*
X101316259Y-107832071D01*
X101286021Y-107892547D01*
X101225545Y-107953023D01*
X101134830Y-107983261D01*
X101074354Y-107983261D01*
X100983640Y-107953023D01*
X100953402Y-107922785D01*
X100953402Y-107711119D01*
X101074354Y-107711119D01*
X100681259Y-107983261D02*
X100681259Y-107348261D01*
X100318402Y-107983261D01*
X100318402Y-107348261D01*
X100016021Y-107983261D02*
X100016021Y-107348261D01*
X99864830Y-107348261D01*
X99774116Y-107378500D01*
X99713640Y-107438976D01*
X99683402Y-107499452D01*
X99653164Y-107620404D01*
X99653164Y-107711119D01*
X99683402Y-107832071D01*
X99713640Y-107892547D01*
X99774116Y-107953023D01*
X99864830Y-107983261D01*
X100016021Y-107983261D01*
X93746259Y-107983261D02*
X93746259Y-107348261D01*
X93534592Y-107801833D01*
X93322926Y-107348261D01*
X93322926Y-107983261D01*
X93020545Y-107983261D02*
X93020545Y-107348261D01*
X92748402Y-107953023D02*
X92657688Y-107983261D01*
X92506497Y-107983261D01*
X92446021Y-107953023D01*
X92415783Y-107922785D01*
X92385545Y-107862309D01*
X92385545Y-107801833D01*
X92415783Y-107741357D01*
X92446021Y-107711119D01*
X92506497Y-107680880D01*
X92627450Y-107650642D01*
X92687926Y-107620404D01*
X92718164Y-107590166D01*
X92748402Y-107529690D01*
X92748402Y-107469214D01*
X92718164Y-107408738D01*
X92687926Y-107378500D01*
X92627450Y-107348261D01*
X92476259Y-107348261D01*
X92385545Y-107378500D01*
X91992450Y-107348261D02*
X91871497Y-107348261D01*
X91811021Y-107378500D01*
X91750545Y-107438976D01*
X91720307Y-107559928D01*
X91720307Y-107771595D01*
X91750545Y-107892547D01*
X91811021Y-107953023D01*
X91871497Y-107983261D01*
X91992450Y-107983261D01*
X92052926Y-107953023D01*
X92113402Y-107892547D01*
X92143640Y-107771595D01*
X92143640Y-107559928D01*
X92113402Y-107438976D01*
X92052926Y-107378500D01*
X91992450Y-107348261D01*
X91206259Y-107983261D02*
X91206259Y-107348261D01*
X90994592Y-107801833D01*
X90782926Y-107348261D01*
X90782926Y-107983261D01*
X90359592Y-107348261D02*
X90238640Y-107348261D01*
X90178164Y-107378500D01*
X90117688Y-107438976D01*
X90087450Y-107559928D01*
X90087450Y-107771595D01*
X90117688Y-107892547D01*
X90178164Y-107953023D01*
X90238640Y-107983261D01*
X90359592Y-107983261D01*
X90420069Y-107953023D01*
X90480545Y-107892547D01*
X90510783Y-107771595D01*
X90510783Y-107559928D01*
X90480545Y-107438976D01*
X90420069Y-107378500D01*
X90359592Y-107348261D01*
X89845545Y-107953023D02*
X89754830Y-107983261D01*
X89603640Y-107983261D01*
X89543164Y-107953023D01*
X89512926Y-107922785D01*
X89482688Y-107862309D01*
X89482688Y-107801833D01*
X89512926Y-107741357D01*
X89543164Y-107711119D01*
X89603640Y-107680880D01*
X89724592Y-107650642D01*
X89785069Y-107620404D01*
X89815307Y-107590166D01*
X89845545Y-107529690D01*
X89845545Y-107469214D01*
X89815307Y-107408738D01*
X89785069Y-107378500D01*
X89724592Y-107348261D01*
X89573402Y-107348261D01*
X89482688Y-107378500D01*
X89210545Y-107983261D02*
X89210545Y-107348261D01*
X88460277Y-107953023D02*
X88369563Y-107983261D01*
X88218372Y-107983261D01*
X88157896Y-107953023D01*
X88127658Y-107922785D01*
X88097420Y-107862309D01*
X88097420Y-107801833D01*
X88127658Y-107741357D01*
X88157896Y-107711119D01*
X88218372Y-107680880D01*
X88339325Y-107650642D01*
X88399801Y-107620404D01*
X88430039Y-107590166D01*
X88460277Y-107529690D01*
X88460277Y-107469214D01*
X88430039Y-107408738D01*
X88399801Y-107378500D01*
X88339325Y-107348261D01*
X88188134Y-107348261D01*
X88097420Y-107378500D01*
X87462420Y-107922785D02*
X87492658Y-107953023D01*
X87583372Y-107983261D01*
X87643849Y-107983261D01*
X87734563Y-107953023D01*
X87795039Y-107892547D01*
X87825277Y-107832071D01*
X87855515Y-107711119D01*
X87855515Y-107620404D01*
X87825277Y-107499452D01*
X87795039Y-107438976D01*
X87734563Y-107378500D01*
X87643849Y-107348261D01*
X87583372Y-107348261D01*
X87492658Y-107378500D01*
X87462420Y-107408738D01*
X87190277Y-107983261D02*
X87190277Y-107348261D01*
X86827420Y-107983261D02*
X87099563Y-107620404D01*
X86827420Y-107348261D02*
X87190277Y-107711119D01*
X81046259Y-107983261D02*
X81046259Y-107348261D01*
X80895069Y-107348261D01*
X80804354Y-107378500D01*
X80743878Y-107438976D01*
X80713640Y-107499452D01*
X80683402Y-107620404D01*
X80683402Y-107711119D01*
X80713640Y-107832071D01*
X80743878Y-107892547D01*
X80804354Y-107953023D01*
X80895069Y-107983261D01*
X81046259Y-107983261D01*
X80471735Y-107348261D02*
X80078640Y-107348261D01*
X80290307Y-107590166D01*
X80199592Y-107590166D01*
X80139116Y-107620404D01*
X80108878Y-107650642D01*
X80078640Y-107711119D01*
X80078640Y-107862309D01*
X80108878Y-107922785D01*
X80139116Y-107953023D01*
X80199592Y-107983261D01*
X80381021Y-107983261D01*
X80441497Y-107953023D01*
X80471735Y-107922785D01*
X79534354Y-107348261D02*
X79655307Y-107348261D01*
X79715783Y-107378500D01*
X79746021Y-107408738D01*
X79806497Y-107499452D01*
X79836735Y-107620404D01*
X79836735Y-107862309D01*
X79806497Y-107922785D01*
X79776259Y-107953023D01*
X79715783Y-107983261D01*
X79594830Y-107983261D01*
X79534354Y-107953023D01*
X79504116Y-107922785D01*
X79473878Y-107862309D01*
X79473878Y-107711119D01*
X79504116Y-107650642D01*
X79534354Y-107620404D01*
X79594830Y-107590166D01*
X79715783Y-107590166D01*
X79776259Y-107620404D01*
X79806497Y-107650642D01*
X79836735Y-107711119D01*
X78506259Y-107983261D02*
X78506259Y-107348261D01*
X78355069Y-107348261D01*
X78264354Y-107378500D01*
X78203878Y-107438976D01*
X78173640Y-107499452D01*
X78143402Y-107620404D01*
X78143402Y-107711119D01*
X78173640Y-107832071D01*
X78203878Y-107892547D01*
X78264354Y-107953023D01*
X78355069Y-107983261D01*
X78506259Y-107983261D01*
X77931735Y-107348261D02*
X77538640Y-107348261D01*
X77750307Y-107590166D01*
X77659592Y-107590166D01*
X77599116Y-107620404D01*
X77568878Y-107650642D01*
X77538640Y-107711119D01*
X77538640Y-107862309D01*
X77568878Y-107922785D01*
X77599116Y-107953023D01*
X77659592Y-107983261D01*
X77841021Y-107983261D01*
X77901497Y-107953023D01*
X77931735Y-107922785D01*
X77326973Y-107348261D02*
X76903640Y-107348261D01*
X77175783Y-107983261D01*
X70553640Y-107378500D02*
X70614116Y-107348261D01*
X70704830Y-107348261D01*
X70795545Y-107378500D01*
X70856021Y-107438976D01*
X70886259Y-107499452D01*
X70916497Y-107620404D01*
X70916497Y-107711119D01*
X70886259Y-107832071D01*
X70856021Y-107892547D01*
X70795545Y-107953023D01*
X70704830Y-107983261D01*
X70644354Y-107983261D01*
X70553640Y-107953023D01*
X70523402Y-107922785D01*
X70523402Y-107711119D01*
X70644354Y-107711119D01*
X70251259Y-107983261D02*
X70251259Y-107348261D01*
X69888402Y-107983261D01*
X69888402Y-107348261D01*
X69586021Y-107983261D02*
X69586021Y-107348261D01*
X69434830Y-107348261D01*
X69344116Y-107378500D01*
X69283640Y-107438976D01*
X69253402Y-107499452D01*
X69223164Y-107620404D01*
X69223164Y-107711119D01*
X69253402Y-107832071D01*
X69283640Y-107892547D01*
X69344116Y-107953023D01*
X69434830Y-107983261D01*
X69586021Y-107983261D01*
X68346259Y-107983261D02*
X68346259Y-107348261D01*
X68195069Y-107348261D01*
X68104354Y-107378500D01*
X68043878Y-107438976D01*
X68013640Y-107499452D01*
X67983402Y-107620404D01*
X67983402Y-107711119D01*
X68013640Y-107832071D01*
X68043878Y-107892547D01*
X68104354Y-107953023D01*
X68195069Y-107983261D01*
X68346259Y-107983261D01*
X67439116Y-107559928D02*
X67439116Y-107983261D01*
X67590307Y-107318023D02*
X67741497Y-107771595D01*
X67348402Y-107771595D01*
X67166973Y-107348261D02*
X66773878Y-107348261D01*
X66985545Y-107590166D01*
X66894830Y-107590166D01*
X66834354Y-107620404D01*
X66804116Y-107650642D01*
X66773878Y-107711119D01*
X66773878Y-107862309D01*
X66804116Y-107922785D01*
X66834354Y-107953023D01*
X66894830Y-107983261D01*
X67076259Y-107983261D01*
X67136735Y-107953023D01*
X67166973Y-107922785D01*
X65866735Y-107348261D02*
X65473640Y-107348261D01*
X65685307Y-107590166D01*
X65594592Y-107590166D01*
X65534116Y-107620404D01*
X65503878Y-107650642D01*
X65473640Y-107711119D01*
X65473640Y-107862309D01*
X65503878Y-107922785D01*
X65534116Y-107953023D01*
X65594592Y-107983261D01*
X65776021Y-107983261D01*
X65836497Y-107953023D01*
X65866735Y-107922785D01*
X65201497Y-107922785D02*
X65171259Y-107953023D01*
X65201497Y-107983261D01*
X65231735Y-107953023D01*
X65201497Y-107922785D01*
X65201497Y-107983261D01*
X64959592Y-107348261D02*
X64566497Y-107348261D01*
X64778164Y-107590166D01*
X64687450Y-107590166D01*
X64626973Y-107620404D01*
X64596735Y-107650642D01*
X64566497Y-107711119D01*
X64566497Y-107862309D01*
X64596735Y-107922785D01*
X64626973Y-107953023D01*
X64687450Y-107983261D01*
X64868878Y-107983261D01*
X64929354Y-107953023D01*
X64959592Y-107922785D01*
X64385069Y-107348261D02*
X64173402Y-107983261D01*
X63961735Y-107348261D01*
X63266259Y-107983261D02*
X63266259Y-107348261D01*
X63115069Y-107348261D01*
X63024354Y-107378500D01*
X62963878Y-107438976D01*
X62933640Y-107499452D01*
X62903402Y-107620404D01*
X62903402Y-107711119D01*
X62933640Y-107832071D01*
X62963878Y-107892547D01*
X63024354Y-107953023D01*
X63115069Y-107983261D01*
X63266259Y-107983261D01*
X62359116Y-107559928D02*
X62359116Y-107983261D01*
X62510307Y-107318023D02*
X62661497Y-107771595D01*
X62268402Y-107771595D01*
X61754354Y-107559928D02*
X61754354Y-107983261D01*
X61905545Y-107318023D02*
X62056735Y-107771595D01*
X61663640Y-107771595D01*
X67300833Y-88302261D02*
X66907738Y-88302261D01*
X67119404Y-88544166D01*
X67028690Y-88544166D01*
X66968214Y-88574404D01*
X66937976Y-88604642D01*
X66907738Y-88665119D01*
X66907738Y-88816309D01*
X66937976Y-88876785D01*
X66968214Y-88907023D01*
X67028690Y-88937261D01*
X67210119Y-88937261D01*
X67270595Y-88907023D01*
X67300833Y-88876785D01*
X66635595Y-88876785D02*
X66605357Y-88907023D01*
X66635595Y-88937261D01*
X66665833Y-88907023D01*
X66635595Y-88876785D01*
X66635595Y-88937261D01*
X66393690Y-88302261D02*
X65970357Y-88302261D01*
X66242500Y-88937261D01*
X65274880Y-88272023D02*
X65819166Y-89088452D01*
X64791071Y-88513928D02*
X64791071Y-88937261D01*
X64942261Y-88272023D02*
X65093452Y-88725595D01*
X64700357Y-88725595D01*
X64458452Y-88876785D02*
X64428214Y-88907023D01*
X64458452Y-88937261D01*
X64488690Y-88907023D01*
X64458452Y-88876785D01*
X64458452Y-88937261D01*
X64186309Y-88362738D02*
X64156071Y-88332500D01*
X64095595Y-88302261D01*
X63944404Y-88302261D01*
X63883928Y-88332500D01*
X63853690Y-88362738D01*
X63823452Y-88423214D01*
X63823452Y-88483690D01*
X63853690Y-88574404D01*
X64216547Y-88937261D01*
X63823452Y-88937261D01*
X63642023Y-88302261D02*
X63430357Y-88937261D01*
X63218690Y-88302261D01*
X62220833Y-88937261D02*
X62523214Y-88937261D01*
X62523214Y-88302261D01*
X62009166Y-88937261D02*
X62009166Y-88513928D01*
X62009166Y-88302261D02*
X62039404Y-88332500D01*
X62009166Y-88362738D01*
X61978928Y-88332500D01*
X62009166Y-88302261D01*
X62009166Y-88362738D01*
X61706785Y-88937261D02*
X61706785Y-88302261D01*
X61464880Y-88302261D01*
X61404404Y-88332500D01*
X61374166Y-88362738D01*
X61343928Y-88423214D01*
X61343928Y-88513928D01*
X61374166Y-88574404D01*
X61404404Y-88604642D01*
X61464880Y-88634880D01*
X61706785Y-88634880D01*
X60981071Y-88937261D02*
X61041547Y-88907023D01*
X61071785Y-88876785D01*
X61102023Y-88816309D01*
X61102023Y-88634880D01*
X61071785Y-88574404D01*
X61041547Y-88544166D01*
X60981071Y-88513928D01*
X60890357Y-88513928D01*
X60829880Y-88544166D01*
X60799642Y-88574404D01*
X60769404Y-88634880D01*
X60769404Y-88816309D01*
X60799642Y-88876785D01*
X60829880Y-88907023D01*
X60890357Y-88937261D01*
X60981071Y-88937261D01*
X75283785Y-105117597D02*
X75314023Y-105087359D01*
X75344261Y-104996645D01*
X75344261Y-104936169D01*
X75314023Y-104845454D01*
X75253547Y-104784978D01*
X75193071Y-104754740D01*
X75072119Y-104724502D01*
X74981404Y-104724502D01*
X74860452Y-104754740D01*
X74799976Y-104784978D01*
X74739500Y-104845454D01*
X74709261Y-104936169D01*
X74709261Y-104996645D01*
X74739500Y-105087359D01*
X74769738Y-105117597D01*
X75102357Y-105389740D02*
X75102357Y-105873550D01*
X75344261Y-105631645D02*
X74860452Y-105631645D01*
X75344261Y-106175930D02*
X74709261Y-106175930D01*
X75162833Y-106387597D01*
X74709261Y-106599264D01*
X75344261Y-106599264D01*
D13*
X108205221Y-90615720D02*
G75*
G03X108205221Y-90615720I-1652221J0D01*
G01*
X108205221Y-108205220D02*
G75*
G03X108205221Y-108205220I-1652221J0D01*
G01*
D15*
X83091238Y-95319093D02*
X83139619Y-95464236D01*
X83139619Y-95706141D01*
X83091238Y-95802903D01*
X83042857Y-95851284D01*
X82946095Y-95899665D01*
X82849333Y-95899665D01*
X82752571Y-95851284D01*
X82704190Y-95802903D01*
X82655809Y-95706141D01*
X82607428Y-95512617D01*
X82559047Y-95415855D01*
X82510666Y-95367474D01*
X82413904Y-95319093D01*
X82317142Y-95319093D01*
X82220380Y-95367474D01*
X82172000Y-95415855D01*
X82123619Y-95512617D01*
X82123619Y-95754522D01*
X82172000Y-95899665D01*
X82849333Y-96286712D02*
X82849333Y-96770522D01*
X83139619Y-96189950D02*
X82123619Y-96528617D01*
X83139619Y-96867284D01*
X83139619Y-97205950D02*
X82123619Y-97205950D01*
X82849333Y-97544617D01*
X82123619Y-97883284D01*
X83139619Y-97883284D01*
X82123619Y-98270331D02*
X82123619Y-98899284D01*
X82510666Y-98560617D01*
X82510666Y-98705760D01*
X82559047Y-98802522D01*
X82607428Y-98850903D01*
X82704190Y-98899284D01*
X82946095Y-98899284D01*
X83042857Y-98850903D01*
X83091238Y-98802522D01*
X83139619Y-98705760D01*
X83139619Y-98415474D01*
X83091238Y-98318712D01*
X83042857Y-98270331D01*
X82220380Y-99286331D02*
X82172000Y-99334712D01*
X82123619Y-99431474D01*
X82123619Y-99673379D01*
X82172000Y-99770141D01*
X82220380Y-99818522D01*
X82317142Y-99866903D01*
X82413904Y-99866903D01*
X82559047Y-99818522D01*
X83139619Y-99237950D01*
X83139619Y-99866903D01*
D16*
X84593571Y-94524716D02*
X85269523Y-94524716D01*
X85349047Y-94484954D01*
X85388809Y-94445192D01*
X85428571Y-94365669D01*
X85428571Y-94246383D01*
X85388809Y-94166859D01*
X85110476Y-94524716D02*
X85150238Y-94445192D01*
X85150238Y-94286145D01*
X85110476Y-94206621D01*
X85070714Y-94166859D01*
X84991190Y-94127097D01*
X84752619Y-94127097D01*
X84673095Y-94166859D01*
X84633333Y-94206621D01*
X84593571Y-94286145D01*
X84593571Y-94445192D01*
X84633333Y-94524716D01*
X85150238Y-94922335D02*
X84593571Y-94922335D01*
X84315238Y-94922335D02*
X84355000Y-94882573D01*
X84394761Y-94922335D01*
X84355000Y-94962097D01*
X84315238Y-94922335D01*
X84394761Y-94922335D01*
X84593571Y-95200669D02*
X84593571Y-95518764D01*
X84315238Y-95319954D02*
X85030952Y-95319954D01*
X85110476Y-95359716D01*
X85150238Y-95439240D01*
X85150238Y-95518764D01*
X85150238Y-95797097D02*
X84315238Y-95797097D01*
X85150238Y-96154954D02*
X84712857Y-96154954D01*
X84633333Y-96115192D01*
X84593571Y-96035669D01*
X84593571Y-95916383D01*
X84633333Y-95836859D01*
X84673095Y-95797097D01*
X84593571Y-96910430D02*
X85150238Y-96910430D01*
X84593571Y-96552573D02*
X85030952Y-96552573D01*
X85110476Y-96592335D01*
X85150238Y-96671859D01*
X85150238Y-96791145D01*
X85110476Y-96870669D01*
X85070714Y-96910430D01*
X85150238Y-97308050D02*
X84315238Y-97308050D01*
X84633333Y-97308050D02*
X84593571Y-97387573D01*
X84593571Y-97546621D01*
X84633333Y-97626145D01*
X84673095Y-97665907D01*
X84752619Y-97705669D01*
X84991190Y-97705669D01*
X85070714Y-97665907D01*
X85110476Y-97626145D01*
X85150238Y-97546621D01*
X85150238Y-97387573D01*
X85110476Y-97308050D01*
X84275476Y-98659954D02*
X85349047Y-97944240D01*
X85150238Y-98938288D02*
X84593571Y-98938288D01*
X84673095Y-98938288D02*
X84633333Y-98978050D01*
X84593571Y-99057573D01*
X84593571Y-99176859D01*
X84633333Y-99256383D01*
X84712857Y-99296145D01*
X85150238Y-99296145D01*
X84712857Y-99296145D02*
X84633333Y-99335907D01*
X84593571Y-99415430D01*
X84593571Y-99534716D01*
X84633333Y-99614240D01*
X84712857Y-99654002D01*
X85150238Y-99654002D01*
X85150238Y-100409478D02*
X84712857Y-100409478D01*
X84633333Y-100369716D01*
X84593571Y-100290192D01*
X84593571Y-100131145D01*
X84633333Y-100051621D01*
X85110476Y-100409478D02*
X85150238Y-100329954D01*
X85150238Y-100131145D01*
X85110476Y-100051621D01*
X85030952Y-100011859D01*
X84951428Y-100011859D01*
X84871904Y-100051621D01*
X84832142Y-100131145D01*
X84832142Y-100329954D01*
X84792380Y-100409478D01*
X85150238Y-100807097D02*
X84315238Y-100807097D01*
X85150238Y-101164954D02*
X84712857Y-101164954D01*
X84633333Y-101125192D01*
X84593571Y-101045669D01*
X84593571Y-100926383D01*
X84633333Y-100846859D01*
X84673095Y-100807097D01*
X85150238Y-101681859D02*
X85110476Y-101602335D01*
X85070714Y-101562573D01*
X84991190Y-101522811D01*
X84752619Y-101522811D01*
X84673095Y-101562573D01*
X84633333Y-101602335D01*
X84593571Y-101681859D01*
X84593571Y-101801145D01*
X84633333Y-101880669D01*
X84673095Y-101920430D01*
X84752619Y-101960192D01*
X84991190Y-101960192D01*
X85070714Y-101920430D01*
X85110476Y-101880669D01*
X85150238Y-101801145D01*
X85150238Y-101681859D01*
X85150238Y-102437335D02*
X85110476Y-102357811D01*
X85030952Y-102318050D01*
X84315238Y-102318050D01*
X85150238Y-102874716D02*
X85110476Y-102795192D01*
X85030952Y-102755430D01*
X84315238Y-102755430D01*
X85150238Y-103192811D02*
X84593571Y-103192811D01*
X84315238Y-103192811D02*
X84355000Y-103153050D01*
X84394761Y-103192811D01*
X84355000Y-103232573D01*
X84315238Y-103192811D01*
X84394761Y-103192811D01*
D13*
X109220013Y-90136440D02*
X109220013Y-91690000D01*
X55852060Y-90136440D02*
X55852060Y-96296067D01*
X106680013Y-87596440D02*
G75*
G02X109220013Y-90136440I0J-2540000D01*
G01*
X55852060Y-102438136D02*
X55852060Y-108498640D01*
X106680013Y-87596440D02*
X58392060Y-87596440D01*
X58392060Y-111038640D02*
X106652060Y-111038640D01*
X55852060Y-90136440D02*
G75*
G02X58392060Y-87596440I2540000J0D01*
G01*
X56361488Y-96928834D02*
X56361488Y-101805369D01*
X58392060Y-111038640D02*
G75*
G02X55852060Y-108498640I0J2540000D01*
G01*
D12*
X101355500Y-106850500D02*
X102280500Y-106850500D01*
X102280500Y-106850500D02*
X102280500Y-91650500D01*
X102280500Y-91650500D02*
X101355500Y-91650500D01*
X96755500Y-91650500D02*
X87330500Y-91650500D01*
X87330500Y-91650500D02*
X87330500Y-93020500D01*
X98085500Y-106850500D02*
X89955500Y-106850500D01*
X87330500Y-105250500D02*
X87330500Y-103360500D01*
X87330500Y-100810500D02*
X87330500Y-95600500D01*
D17*
X102825500Y-102250500D02*
G75*
G03X102825500Y-102250500I-120000J0D01*
G01*
D12*
X73532500Y-94441000D02*
X74532500Y-94441000D01*
X74532500Y-94441000D02*
X74532500Y-95441000D01*
X65532500Y-94441000D02*
X64532500Y-94441000D01*
X64532500Y-94441000D02*
X64532500Y-95441000D01*
X64532500Y-103441000D02*
X64532500Y-104441000D01*
X64532500Y-104441000D02*
X65532500Y-104441000D01*
X74532500Y-103441000D02*
X74532500Y-104441000D01*
X74532500Y-104441000D02*
X73532500Y-104441000D01*
D18*
X75432500Y-95091000D02*
G75*
G03X75432500Y-95091000I-100000J0D01*
G01*
D19*
X67702500Y-91694000D02*
X67702500Y-91176844D01*
X66282500Y-91694000D02*
X66282500Y-91176844D01*
X78801000Y-96562000D02*
X78801000Y-95462000D01*
X76901000Y-96562000D02*
X76901000Y-95462000D01*
X78751000Y-97962000D02*
X76951000Y-97962000D01*
D20*
X90971309Y-97067309D02*
X90971309Y-96825404D01*
X91213214Y-96801214D01*
X91189023Y-96825404D01*
X91164833Y-96873785D01*
X91164833Y-96994738D01*
X91189023Y-97043119D01*
X91213214Y-97067309D01*
X91261595Y-97091500D01*
X91382547Y-97091500D01*
X91430928Y-97067309D01*
X91455119Y-97043119D01*
X91479309Y-96994738D01*
X91479309Y-96873785D01*
X91455119Y-96825404D01*
X91430928Y-96801214D01*
X90971309Y-97405976D02*
X90971309Y-97454357D01*
X90995500Y-97502738D01*
X91019690Y-97526928D01*
X91068071Y-97551119D01*
X91164833Y-97575309D01*
X91285785Y-97575309D01*
X91382547Y-97551119D01*
X91430928Y-97526928D01*
X91455119Y-97502738D01*
X91479309Y-97454357D01*
X91479309Y-97405976D01*
X91455119Y-97357595D01*
X91430928Y-97333404D01*
X91382547Y-97309214D01*
X91285785Y-97285023D01*
X91164833Y-97285023D01*
X91068071Y-97309214D01*
X91019690Y-97333404D01*
X90995500Y-97357595D01*
X90971309Y-97405976D01*
X90971309Y-97744642D02*
X90971309Y-98059119D01*
X91164833Y-97889785D01*
X91164833Y-97962357D01*
X91189023Y-98010738D01*
X91213214Y-98034928D01*
X91261595Y-98059119D01*
X91382547Y-98059119D01*
X91430928Y-98034928D01*
X91455119Y-98010738D01*
X91479309Y-97962357D01*
X91479309Y-97817214D01*
X91455119Y-97768833D01*
X91430928Y-97744642D01*
X91479309Y-98542928D02*
X91479309Y-98252642D01*
X91479309Y-98397785D02*
X90971309Y-98397785D01*
X91043880Y-98349404D01*
X91092261Y-98301023D01*
X91116452Y-98252642D01*
X91189023Y-98833214D02*
X91164833Y-98784833D01*
X91140642Y-98760642D01*
X91092261Y-98736452D01*
X91068071Y-98736452D01*
X91019690Y-98760642D01*
X90995500Y-98784833D01*
X90971309Y-98833214D01*
X90971309Y-98929976D01*
X90995500Y-98978357D01*
X91019690Y-99002547D01*
X91068071Y-99026738D01*
X91092261Y-99026738D01*
X91140642Y-99002547D01*
X91164833Y-98978357D01*
X91189023Y-98929976D01*
X91189023Y-98833214D01*
X91213214Y-98784833D01*
X91237404Y-98760642D01*
X91285785Y-98736452D01*
X91382547Y-98736452D01*
X91430928Y-98760642D01*
X91455119Y-98784833D01*
X91479309Y-98833214D01*
X91479309Y-98929976D01*
X91455119Y-98978357D01*
X91430928Y-99002547D01*
X91382547Y-99026738D01*
X91285785Y-99026738D01*
X91237404Y-99002547D01*
X91213214Y-98978357D01*
X91189023Y-98929976D01*
X91019690Y-99220261D02*
X90995500Y-99244452D01*
X90971309Y-99292833D01*
X90971309Y-99413785D01*
X90995500Y-99462166D01*
X91019690Y-99486357D01*
X91068071Y-99510547D01*
X91116452Y-99510547D01*
X91189023Y-99486357D01*
X91479309Y-99196071D01*
X91479309Y-99510547D01*
X91479309Y-99994357D02*
X91479309Y-99704071D01*
X91479309Y-99849214D02*
X90971309Y-99849214D01*
X91043880Y-99800833D01*
X91092261Y-99752452D01*
X91116452Y-99704071D01*
X91189023Y-100284642D02*
X91164833Y-100236261D01*
X91140642Y-100212071D01*
X91092261Y-100187880D01*
X91068071Y-100187880D01*
X91019690Y-100212071D01*
X90995500Y-100236261D01*
X90971309Y-100284642D01*
X90971309Y-100381404D01*
X90995500Y-100429785D01*
X91019690Y-100453976D01*
X91068071Y-100478166D01*
X91092261Y-100478166D01*
X91140642Y-100453976D01*
X91164833Y-100429785D01*
X91189023Y-100381404D01*
X91189023Y-100284642D01*
X91213214Y-100236261D01*
X91237404Y-100212071D01*
X91285785Y-100187880D01*
X91382547Y-100187880D01*
X91430928Y-100212071D01*
X91455119Y-100236261D01*
X91479309Y-100284642D01*
X91479309Y-100381404D01*
X91455119Y-100429785D01*
X91430928Y-100453976D01*
X91382547Y-100478166D01*
X91285785Y-100478166D01*
X91237404Y-100453976D01*
X91213214Y-100429785D01*
X91189023Y-100381404D01*
X90971309Y-100937785D02*
X90971309Y-100695880D01*
X91213214Y-100671690D01*
X91189023Y-100695880D01*
X91164833Y-100744261D01*
X91164833Y-100865214D01*
X91189023Y-100913595D01*
X91213214Y-100937785D01*
X91261595Y-100961976D01*
X91382547Y-100961976D01*
X91430928Y-100937785D01*
X91455119Y-100913595D01*
X91479309Y-100865214D01*
X91479309Y-100744261D01*
X91455119Y-100695880D01*
X91430928Y-100671690D01*
X91019690Y-101155499D02*
X90995500Y-101179690D01*
X90971309Y-101228071D01*
X90971309Y-101349023D01*
X90995500Y-101397404D01*
X91019690Y-101421595D01*
X91068071Y-101445785D01*
X91116452Y-101445785D01*
X91189023Y-101421595D01*
X91479309Y-101131309D01*
X91479309Y-101445785D01*
D12*
X82323214Y-105189261D02*
X82534880Y-104886880D01*
X82686071Y-105189261D02*
X82686071Y-104554261D01*
X82444166Y-104554261D01*
X82383690Y-104584500D01*
X82353452Y-104614738D01*
X82323214Y-104675214D01*
X82323214Y-104765928D01*
X82353452Y-104826404D01*
X82383690Y-104856642D01*
X82444166Y-104886880D01*
X82686071Y-104886880D01*
X81718452Y-105189261D02*
X82081309Y-105189261D01*
X81899880Y-105189261D02*
X81899880Y-104554261D01*
X81960357Y-104644976D01*
X82020833Y-104705452D01*
X82081309Y-104735690D01*
X81174166Y-104765928D02*
X81174166Y-105189261D01*
X81325357Y-104524023D02*
X81476547Y-104977595D01*
X81083452Y-104977595D01*
X82323214Y-106205261D02*
X82534880Y-105902880D01*
X82686071Y-106205261D02*
X82686071Y-105570261D01*
X82444166Y-105570261D01*
X82383690Y-105600500D01*
X82353452Y-105630738D01*
X82323214Y-105691214D01*
X82323214Y-105781928D01*
X82353452Y-105842404D01*
X82383690Y-105872642D01*
X82444166Y-105902880D01*
X82686071Y-105902880D01*
X81718452Y-106205261D02*
X82081309Y-106205261D01*
X81899880Y-106205261D02*
X81899880Y-105570261D01*
X81960357Y-105660976D01*
X82020833Y-105721452D01*
X82081309Y-105751690D01*
X81506785Y-105570261D02*
X81113690Y-105570261D01*
X81325357Y-105812166D01*
X81234642Y-105812166D01*
X81174166Y-105842404D01*
X81143928Y-105872642D01*
X81113690Y-105933119D01*
X81113690Y-106084309D01*
X81143928Y-106144785D01*
X81174166Y-106175023D01*
X81234642Y-106205261D01*
X81416071Y-106205261D01*
X81476547Y-106175023D01*
X81506785Y-106144785D01*
X77751214Y-93632261D02*
X77962880Y-93329880D01*
X78114071Y-93632261D02*
X78114071Y-92997261D01*
X77872166Y-92997261D01*
X77811690Y-93027500D01*
X77781452Y-93057738D01*
X77751214Y-93118214D01*
X77751214Y-93208928D01*
X77781452Y-93269404D01*
X77811690Y-93299642D01*
X77872166Y-93329880D01*
X78114071Y-93329880D01*
X77146452Y-93632261D02*
X77509309Y-93632261D01*
X77327880Y-93632261D02*
X77327880Y-92997261D01*
X77388357Y-93087976D01*
X77448833Y-93148452D01*
X77509309Y-93178690D01*
X76934785Y-92997261D02*
X76511452Y-92997261D01*
X76783595Y-93632261D01*
X82958214Y-92616261D02*
X83169880Y-92313880D01*
X83321071Y-92616261D02*
X83321071Y-91981261D01*
X83079166Y-91981261D01*
X83018690Y-92011500D01*
X82988452Y-92041738D01*
X82958214Y-92102214D01*
X82958214Y-92192928D01*
X82988452Y-92253404D01*
X83018690Y-92283642D01*
X83079166Y-92313880D01*
X83321071Y-92313880D01*
X82353452Y-92616261D02*
X82716309Y-92616261D01*
X82534880Y-92616261D02*
X82534880Y-91981261D01*
X82595357Y-92071976D01*
X82655833Y-92132452D01*
X82716309Y-92162690D01*
X81809166Y-91981261D02*
X81930119Y-91981261D01*
X81990595Y-92011500D01*
X82020833Y-92041738D01*
X82081309Y-92132452D01*
X82111547Y-92253404D01*
X82111547Y-92495309D01*
X82081309Y-92555785D01*
X82051071Y-92586023D01*
X81990595Y-92616261D01*
X81869642Y-92616261D01*
X81809166Y-92586023D01*
X81778928Y-92555785D01*
X81748690Y-92495309D01*
X81748690Y-92344119D01*
X81778928Y-92283642D01*
X81809166Y-92253404D01*
X81869642Y-92223166D01*
X81990595Y-92223166D01*
X82051071Y-92253404D01*
X82081309Y-92283642D01*
X82111547Y-92344119D01*
X77751214Y-92362261D02*
X77962880Y-92059880D01*
X78114071Y-92362261D02*
X78114071Y-91727261D01*
X77872166Y-91727261D01*
X77811690Y-91757500D01*
X77781452Y-91787738D01*
X77751214Y-91848214D01*
X77751214Y-91938928D01*
X77781452Y-91999404D01*
X77811690Y-92029642D01*
X77872166Y-92059880D01*
X78114071Y-92059880D01*
X77146452Y-92362261D02*
X77509309Y-92362261D01*
X77327880Y-92362261D02*
X77327880Y-91727261D01*
X77388357Y-91817976D01*
X77448833Y-91878452D01*
X77509309Y-91908690D01*
X76571928Y-91727261D02*
X76874309Y-91727261D01*
X76904547Y-92029642D01*
X76874309Y-91999404D01*
X76813833Y-91969166D01*
X76662642Y-91969166D01*
X76602166Y-91999404D01*
X76571928Y-92029642D01*
X76541690Y-92090119D01*
X76541690Y-92241309D01*
X76571928Y-92301785D01*
X76602166Y-92332023D01*
X76662642Y-92362261D01*
X76813833Y-92362261D01*
X76874309Y-92332023D01*
X76904547Y-92301785D01*
X77059254Y-104898921D02*
X77270920Y-104596540D01*
X77422111Y-104898921D02*
X77422111Y-104263921D01*
X77180206Y-104263921D01*
X77119730Y-104294160D01*
X77089492Y-104324398D01*
X77059254Y-104384874D01*
X77059254Y-104475588D01*
X77089492Y-104536064D01*
X77119730Y-104566302D01*
X77180206Y-104596540D01*
X77422111Y-104596540D01*
X76454492Y-104898921D02*
X76817349Y-104898921D01*
X76635920Y-104898921D02*
X76635920Y-104263921D01*
X76696397Y-104354636D01*
X76756873Y-104415112D01*
X76817349Y-104445350D01*
X76212587Y-104324398D02*
X76182349Y-104294160D01*
X76121873Y-104263921D01*
X75970682Y-104263921D01*
X75910206Y-104294160D01*
X75879968Y-104324398D01*
X75849730Y-104384874D01*
X75849730Y-104445350D01*
X75879968Y-104536064D01*
X76242825Y-104898921D01*
X75849730Y-104898921D01*
X77032394Y-106394101D02*
X77244060Y-106091720D01*
X77395251Y-106394101D02*
X77395251Y-105759101D01*
X77153346Y-105759101D01*
X77092870Y-105789340D01*
X77062632Y-105819578D01*
X77032394Y-105880054D01*
X77032394Y-105970768D01*
X77062632Y-106031244D01*
X77092870Y-106061482D01*
X77153346Y-106091720D01*
X77395251Y-106091720D01*
X76427632Y-106394101D02*
X76790489Y-106394101D01*
X76609060Y-106394101D02*
X76609060Y-105759101D01*
X76669537Y-105849816D01*
X76730013Y-105910292D01*
X76790489Y-105940530D01*
X75822870Y-106394101D02*
X76185727Y-106394101D01*
X76004299Y-106394101D02*
X76004299Y-105759101D01*
X76064775Y-105849816D01*
X76125251Y-105910292D01*
X76185727Y-105940530D01*
X71911754Y-92443541D02*
X72123420Y-92141160D01*
X72274611Y-92443541D02*
X72274611Y-91808541D01*
X72032706Y-91808541D01*
X71972230Y-91838780D01*
X71941992Y-91869018D01*
X71911754Y-91929494D01*
X71911754Y-92020208D01*
X71941992Y-92080684D01*
X71972230Y-92110922D01*
X72032706Y-92141160D01*
X72274611Y-92141160D01*
X71306992Y-92443541D02*
X71669849Y-92443541D01*
X71488420Y-92443541D02*
X71488420Y-91808541D01*
X71548897Y-91899256D01*
X71609373Y-91959732D01*
X71669849Y-91989970D01*
X70913897Y-91808541D02*
X70853420Y-91808541D01*
X70792944Y-91838780D01*
X70762706Y-91869018D01*
X70732468Y-91929494D01*
X70702230Y-92050446D01*
X70702230Y-92201637D01*
X70732468Y-92322589D01*
X70762706Y-92383065D01*
X70792944Y-92413303D01*
X70853420Y-92443541D01*
X70913897Y-92443541D01*
X70974373Y-92413303D01*
X71004611Y-92383065D01*
X71034849Y-92322589D01*
X71065087Y-92201637D01*
X71065087Y-92050446D01*
X71034849Y-91929494D01*
X71004611Y-91869018D01*
X70974373Y-91838780D01*
X70913897Y-91808541D01*
X60095553Y-94498401D02*
X60307220Y-94196020D01*
X60458410Y-94498401D02*
X60458410Y-93863401D01*
X60216505Y-93863401D01*
X60156029Y-93893640D01*
X60125791Y-93923878D01*
X60095553Y-93984354D01*
X60095553Y-94075068D01*
X60125791Y-94135544D01*
X60156029Y-94165782D01*
X60216505Y-94196020D01*
X60458410Y-94196020D01*
X59793172Y-94498401D02*
X59672220Y-94498401D01*
X59611743Y-94468163D01*
X59581505Y-94437925D01*
X59521029Y-94347211D01*
X59490791Y-94226259D01*
X59490791Y-93984354D01*
X59521029Y-93923878D01*
X59551267Y-93893640D01*
X59611743Y-93863401D01*
X59732696Y-93863401D01*
X59793172Y-93893640D01*
X59823410Y-93923878D01*
X59853648Y-93984354D01*
X59853648Y-94135544D01*
X59823410Y-94196020D01*
X59793172Y-94226259D01*
X59732696Y-94256497D01*
X59611743Y-94256497D01*
X59551267Y-94226259D01*
X59521029Y-94196020D01*
X59490791Y-94135544D01*
X60101721Y-101189366D02*
X59799340Y-100977700D01*
X60101721Y-100826509D02*
X59466721Y-100826509D01*
X59466721Y-101068414D01*
X59496960Y-101128890D01*
X59527198Y-101159128D01*
X59587674Y-101189366D01*
X59678388Y-101189366D01*
X59738864Y-101159128D01*
X59769102Y-101128890D01*
X59799340Y-101068414D01*
X59799340Y-100826509D01*
X59738864Y-101552223D02*
X59708626Y-101491747D01*
X59678388Y-101461509D01*
X59617912Y-101431271D01*
X59587674Y-101431271D01*
X59527198Y-101461509D01*
X59496960Y-101491747D01*
X59466721Y-101552223D01*
X59466721Y-101673176D01*
X59496960Y-101733652D01*
X59527198Y-101763890D01*
X59587674Y-101794128D01*
X59617912Y-101794128D01*
X59678388Y-101763890D01*
X59708626Y-101733652D01*
X59738864Y-101673176D01*
X59738864Y-101552223D01*
X59769102Y-101491747D01*
X59799340Y-101461509D01*
X59859817Y-101431271D01*
X59980769Y-101431271D01*
X60041245Y-101461509D01*
X60071483Y-101491747D01*
X60101721Y-101552223D01*
X60101721Y-101673176D01*
X60071483Y-101733652D01*
X60041245Y-101763890D01*
X59980769Y-101794128D01*
X59859817Y-101794128D01*
X59799340Y-101763890D01*
X59769102Y-101733652D01*
X59738864Y-101673176D01*
X76968773Y-103769401D02*
X77180440Y-103467020D01*
X77331630Y-103769401D02*
X77331630Y-103134401D01*
X77089725Y-103134401D01*
X77029249Y-103164640D01*
X76999011Y-103194878D01*
X76968773Y-103255354D01*
X76968773Y-103346068D01*
X76999011Y-103406544D01*
X77029249Y-103436782D01*
X77089725Y-103467020D01*
X77331630Y-103467020D01*
X76364011Y-103769401D02*
X76726868Y-103769401D01*
X76545440Y-103769401D02*
X76545440Y-103134401D01*
X76605916Y-103225116D01*
X76666392Y-103285592D01*
X76726868Y-103315830D01*
X60100633Y-93403661D02*
X60312300Y-93101280D01*
X60463490Y-93403661D02*
X60463490Y-92768661D01*
X60221585Y-92768661D01*
X60161109Y-92798900D01*
X60130871Y-92829138D01*
X60100633Y-92889614D01*
X60100633Y-92980328D01*
X60130871Y-93040804D01*
X60161109Y-93071042D01*
X60221585Y-93101280D01*
X60463490Y-93101280D01*
X59858728Y-92829138D02*
X59828490Y-92798900D01*
X59768014Y-92768661D01*
X59616823Y-92768661D01*
X59556347Y-92798900D01*
X59526109Y-92829138D01*
X59495871Y-92889614D01*
X59495871Y-92950090D01*
X59526109Y-93040804D01*
X59888966Y-93403661D01*
X59495871Y-93403661D01*
X62409614Y-91031785D02*
X62439852Y-91062023D01*
X62530566Y-91092261D01*
X62591042Y-91092261D01*
X62681757Y-91062023D01*
X62742233Y-91001547D01*
X62772471Y-90941071D01*
X62802709Y-90820119D01*
X62802709Y-90729404D01*
X62772471Y-90608452D01*
X62742233Y-90547976D01*
X62681757Y-90487500D01*
X62591042Y-90457261D01*
X62530566Y-90457261D01*
X62439852Y-90487500D01*
X62409614Y-90517738D01*
X61804852Y-91092261D02*
X62167709Y-91092261D01*
X61986280Y-91092261D02*
X61986280Y-90457261D01*
X62046757Y-90547976D01*
X62107233Y-90608452D01*
X62167709Y-90638690D01*
X61562947Y-90517738D02*
X61532709Y-90487500D01*
X61472233Y-90457261D01*
X61321042Y-90457261D01*
X61260566Y-90487500D01*
X61230328Y-90517738D01*
X61200090Y-90578214D01*
X61200090Y-90638690D01*
X61230328Y-90729404D01*
X61593185Y-91092261D01*
X61200090Y-91092261D01*
X62282614Y-92123985D02*
X62312852Y-92154223D01*
X62403566Y-92184461D01*
X62464042Y-92184461D01*
X62554757Y-92154223D01*
X62615233Y-92093747D01*
X62645471Y-92033271D01*
X62675709Y-91912319D01*
X62675709Y-91821604D01*
X62645471Y-91700652D01*
X62615233Y-91640176D01*
X62554757Y-91579700D01*
X62464042Y-91549461D01*
X62403566Y-91549461D01*
X62312852Y-91579700D01*
X62282614Y-91609938D01*
X61677852Y-92184461D02*
X62040709Y-92184461D01*
X61859280Y-92184461D02*
X61859280Y-91549461D01*
X61919757Y-91640176D01*
X61980233Y-91700652D01*
X62040709Y-91730890D01*
X61073090Y-92184461D02*
X61435947Y-92184461D01*
X61254519Y-92184461D02*
X61254519Y-91549461D01*
X61314995Y-91640176D01*
X61375471Y-91700652D01*
X61435947Y-91730890D01*
X75858309Y-93060761D02*
X75858309Y-93574809D01*
X75828071Y-93635285D01*
X75797833Y-93665523D01*
X75737357Y-93695761D01*
X75616404Y-93695761D01*
X75555928Y-93665523D01*
X75525690Y-93635285D01*
X75495452Y-93574809D01*
X75495452Y-93060761D01*
X75223309Y-93121238D02*
X75193071Y-93091000D01*
X75132595Y-93060761D01*
X74981404Y-93060761D01*
X74920928Y-93091000D01*
X74890690Y-93121238D01*
X74860452Y-93181714D01*
X74860452Y-93242190D01*
X74890690Y-93332904D01*
X75253547Y-93695761D01*
X74860452Y-93695761D01*
D20*
X67902666Y-96199476D02*
X67902666Y-96441380D01*
X68047809Y-96151095D02*
X67539809Y-96320428D01*
X68047809Y-96489761D01*
X67539809Y-96586523D02*
X67539809Y-96876809D01*
X68047809Y-96731666D02*
X67539809Y-96731666D01*
X68023619Y-97021952D02*
X68047809Y-97094523D01*
X68047809Y-97215476D01*
X68023619Y-97263857D01*
X67999428Y-97288047D01*
X67951047Y-97312238D01*
X67902666Y-97312238D01*
X67854285Y-97288047D01*
X67830095Y-97263857D01*
X67805904Y-97215476D01*
X67781714Y-97118714D01*
X67757523Y-97070333D01*
X67733333Y-97046142D01*
X67684952Y-97021952D01*
X67636571Y-97021952D01*
X67588190Y-97046142D01*
X67564000Y-97070333D01*
X67539809Y-97118714D01*
X67539809Y-97239666D01*
X67564000Y-97312238D01*
X67902666Y-97505761D02*
X67902666Y-97747666D01*
X68047809Y-97457380D02*
X67539809Y-97626714D01*
X68047809Y-97796047D01*
X68047809Y-97965380D02*
X67539809Y-97965380D01*
X67902666Y-98134714D01*
X67539809Y-98304047D01*
X68047809Y-98304047D01*
X68047809Y-98545952D02*
X67539809Y-98545952D01*
X67539809Y-98666904D01*
X67564000Y-98739476D01*
X67612380Y-98787857D01*
X67660761Y-98812047D01*
X67757523Y-98836238D01*
X67830095Y-98836238D01*
X67926857Y-98812047D01*
X67975238Y-98787857D01*
X68023619Y-98739476D01*
X68047809Y-98666904D01*
X68047809Y-98545952D01*
X67539809Y-99295857D02*
X67539809Y-99053952D01*
X67781714Y-99029761D01*
X67757523Y-99053952D01*
X67733333Y-99102333D01*
X67733333Y-99223285D01*
X67757523Y-99271666D01*
X67781714Y-99295857D01*
X67830095Y-99320047D01*
X67951047Y-99320047D01*
X67999428Y-99295857D01*
X68023619Y-99271666D01*
X68047809Y-99223285D01*
X68047809Y-99102333D01*
X68023619Y-99053952D01*
X67999428Y-99029761D01*
X68047809Y-99803857D02*
X68047809Y-99513571D01*
X68047809Y-99658714D02*
X67539809Y-99658714D01*
X67612380Y-99610333D01*
X67660761Y-99561952D01*
X67684952Y-99513571D01*
X67539809Y-100166714D02*
X67902666Y-100166714D01*
X67975238Y-100142523D01*
X68023619Y-100094142D01*
X68047809Y-100021571D01*
X68047809Y-99973190D01*
X67588190Y-100384428D02*
X67564000Y-100408619D01*
X67539809Y-100457000D01*
X67539809Y-100577952D01*
X67564000Y-100626333D01*
X67588190Y-100650523D01*
X67636571Y-100674714D01*
X67684952Y-100674714D01*
X67757523Y-100650523D01*
X68047809Y-100360238D01*
X68047809Y-100674714D01*
X67539809Y-100989190D02*
X67539809Y-101037571D01*
X67564000Y-101085952D01*
X67588190Y-101110142D01*
X67636571Y-101134333D01*
X67733333Y-101158523D01*
X67854285Y-101158523D01*
X67951047Y-101134333D01*
X67999428Y-101110142D01*
X68023619Y-101085952D01*
X68047809Y-101037571D01*
X68047809Y-100989190D01*
X68023619Y-100940809D01*
X67999428Y-100916619D01*
X67951047Y-100892428D01*
X67854285Y-100868238D01*
X67733333Y-100868238D01*
X67636571Y-100892428D01*
X67588190Y-100916619D01*
X67564000Y-100940809D01*
X67539809Y-100989190D01*
X67902666Y-101352047D02*
X67902666Y-101593952D01*
X68047809Y-101303666D02*
X67539809Y-101473000D01*
X68047809Y-101642333D01*
X67854285Y-101811666D02*
X67854285Y-102198714D01*
X67902666Y-102416428D02*
X67902666Y-102658333D01*
X68047809Y-102368047D02*
X67539809Y-102537380D01*
X68047809Y-102706714D01*
X67539809Y-102876047D02*
X67951047Y-102876047D01*
X67999428Y-102900238D01*
X68023619Y-102924428D01*
X68047809Y-102972809D01*
X68047809Y-103069571D01*
X68023619Y-103117952D01*
X67999428Y-103142142D01*
X67951047Y-103166333D01*
X67539809Y-103166333D01*
D12*
X80871785Y-94841785D02*
X80902023Y-94811547D01*
X80932261Y-94720833D01*
X80932261Y-94660357D01*
X80902023Y-94569642D01*
X80841547Y-94509166D01*
X80781071Y-94478928D01*
X80660119Y-94448690D01*
X80569404Y-94448690D01*
X80448452Y-94478928D01*
X80387976Y-94509166D01*
X80327500Y-94569642D01*
X80297261Y-94660357D01*
X80297261Y-94720833D01*
X80327500Y-94811547D01*
X80357738Y-94841785D01*
X80932261Y-95446547D02*
X80932261Y-95083690D01*
X80932261Y-95265119D02*
X80297261Y-95265119D01*
X80387976Y-95204642D01*
X80448452Y-95144166D01*
X80478690Y-95083690D01*
X80297261Y-95658214D02*
X80297261Y-96051309D01*
X80539166Y-95839642D01*
X80539166Y-95930357D01*
X80569404Y-95990833D01*
X80599642Y-96021071D01*
X80660119Y-96051309D01*
X80811309Y-96051309D01*
X80871785Y-96021071D01*
X80902023Y-95990833D01*
X80932261Y-95930357D01*
X80932261Y-95748928D01*
X80902023Y-95688452D01*
X80871785Y-95658214D01*
X80938285Y-97254785D02*
X80968523Y-97224547D01*
X80998761Y-97133833D01*
X80998761Y-97073357D01*
X80968523Y-96982642D01*
X80908047Y-96922166D01*
X80847571Y-96891928D01*
X80726619Y-96861690D01*
X80635904Y-96861690D01*
X80514952Y-96891928D01*
X80454476Y-96922166D01*
X80394000Y-96982642D01*
X80363761Y-97073357D01*
X80363761Y-97133833D01*
X80394000Y-97224547D01*
X80424238Y-97254785D01*
X80998761Y-97859547D02*
X80998761Y-97496690D01*
X80998761Y-97678119D02*
X80363761Y-97678119D01*
X80454476Y-97617642D01*
X80514952Y-97557166D01*
X80545190Y-97496690D01*
X80575428Y-98403833D02*
X80998761Y-98403833D01*
X80333523Y-98252642D02*
X80787095Y-98101452D01*
X80787095Y-98494547D01*
X64195113Y-93495585D02*
X64225351Y-93525823D01*
X64316065Y-93556061D01*
X64376541Y-93556061D01*
X64467256Y-93525823D01*
X64527732Y-93465347D01*
X64557970Y-93404871D01*
X64588208Y-93283919D01*
X64588208Y-93193204D01*
X64557970Y-93072252D01*
X64527732Y-93011776D01*
X64467256Y-92951300D01*
X64376541Y-92921061D01*
X64316065Y-92921061D01*
X64225351Y-92951300D01*
X64195113Y-92981538D01*
X63892732Y-93556061D02*
X63771780Y-93556061D01*
X63711303Y-93525823D01*
X63681065Y-93495585D01*
X63620589Y-93404871D01*
X63590351Y-93283919D01*
X63590351Y-93042014D01*
X63620589Y-92981538D01*
X63650827Y-92951300D01*
X63711303Y-92921061D01*
X63832256Y-92921061D01*
X63892732Y-92951300D01*
X63922970Y-92981538D01*
X63953208Y-93042014D01*
X63953208Y-93193204D01*
X63922970Y-93253680D01*
X63892732Y-93283919D01*
X63832256Y-93314157D01*
X63711303Y-93314157D01*
X63650827Y-93283919D01*
X63620589Y-93253680D01*
X63590351Y-93193204D01*
X62466985Y-104596385D02*
X62497223Y-104566147D01*
X62527461Y-104475433D01*
X62527461Y-104414957D01*
X62497223Y-104324242D01*
X62436747Y-104263766D01*
X62376271Y-104233528D01*
X62255319Y-104203290D01*
X62164604Y-104203290D01*
X62043652Y-104233528D01*
X61983176Y-104263766D01*
X61922700Y-104324242D01*
X61892461Y-104414957D01*
X61892461Y-104475433D01*
X61922700Y-104566147D01*
X61952938Y-104596385D01*
X62527461Y-105201147D02*
X62527461Y-104838290D01*
X62527461Y-105019719D02*
X61892461Y-105019719D01*
X61983176Y-104959242D01*
X62043652Y-104898766D01*
X62073890Y-104838290D01*
X61892461Y-105594242D02*
X61892461Y-105654719D01*
X61922700Y-105715195D01*
X61952938Y-105745433D01*
X62013414Y-105775671D01*
X62134366Y-105805909D01*
X62285557Y-105805909D01*
X62406509Y-105775671D01*
X62466985Y-105745433D01*
X62497223Y-105715195D01*
X62527461Y-105654719D01*
X62527461Y-105594242D01*
X62497223Y-105533766D01*
X62466985Y-105503528D01*
X62406509Y-105473290D01*
X62285557Y-105443052D01*
X62134366Y-105443052D01*
X62013414Y-105473290D01*
X61952938Y-105503528D01*
X61922700Y-105533766D01*
X61892461Y-105594242D01*
X67034833Y-89949261D02*
X67337214Y-89949261D01*
X67337214Y-89314261D01*
X66490547Y-89949261D02*
X66853404Y-89949261D01*
X66671976Y-89949261D02*
X66671976Y-89314261D01*
X66732452Y-89404976D01*
X66792928Y-89465452D01*
X66853404Y-89495690D01*
X58668233Y-99407585D02*
X58698471Y-99437823D01*
X58789185Y-99468061D01*
X58849661Y-99468061D01*
X58940376Y-99437823D01*
X59000852Y-99377347D01*
X59031090Y-99316871D01*
X59061328Y-99195919D01*
X59061328Y-99105204D01*
X59031090Y-98984252D01*
X59000852Y-98923776D01*
X58940376Y-98863300D01*
X58849661Y-98833061D01*
X58789185Y-98833061D01*
X58698471Y-98863300D01*
X58668233Y-98893538D01*
X58305376Y-99105204D02*
X58365852Y-99074966D01*
X58396090Y-99044728D01*
X58426328Y-98984252D01*
X58426328Y-98954014D01*
X58396090Y-98893538D01*
X58365852Y-98863300D01*
X58305376Y-98833061D01*
X58184423Y-98833061D01*
X58123947Y-98863300D01*
X58093709Y-98893538D01*
X58063471Y-98954014D01*
X58063471Y-98984252D01*
X58093709Y-99044728D01*
X58123947Y-99074966D01*
X58184423Y-99105204D01*
X58305376Y-99105204D01*
X58365852Y-99135442D01*
X58396090Y-99165680D01*
X58426328Y-99226157D01*
X58426328Y-99347109D01*
X58396090Y-99407585D01*
X58365852Y-99437823D01*
X58305376Y-99468061D01*
X58184423Y-99468061D01*
X58123947Y-99437823D01*
X58093709Y-99407585D01*
X58063471Y-99347109D01*
X58063471Y-99226157D01*
X58093709Y-99165680D01*
X58123947Y-99135442D01*
X58184423Y-99105204D01*
X77630261Y-98291952D02*
X78265261Y-98715285D01*
X77630261Y-98715285D02*
X78265261Y-98291952D01*
X78265261Y-99289809D02*
X78265261Y-98926952D01*
X78265261Y-99108380D02*
X77630261Y-99108380D01*
X77720976Y-99047904D01*
X77781452Y-98987428D01*
X77811690Y-98926952D01*
M02*
