%TF.GenerationSoftware,KiCad,Pcbnew,(6.0.0-rc1-dev-1614-ge850a482d)*%
%TF.CreationDate,2019-03-08T08:34:45-08:00*%
%TF.ProjectId,SAM32,53414d33-322e-46b6-9963-61645f706362,rev?*%
%TF.SameCoordinates,Original*%
%TF.FileFunction,Copper,L2,Inr*%
%TF.FilePolarity,Positive*%
%FSLAX46Y46*%
G04 Gerber Fmt 4.6, Leading zero omitted, Abs format (unit mm)*
G04 Created by KiCad (PCBNEW (6.0.0-rc1-dev-1614-ge850a482d)) date 2019-03-08 08:34:45*
%MOMM*%
%LPD*%
G04 APERTURE LIST*
%ADD10C,0.508000*%
%ADD11C,1.800000*%
%ADD12C,1.408000*%
%ADD13C,1.574800*%
%ADD14O,1.700000X1.700000*%
%ADD15C,3.200000*%
%ADD16C,0.508000*%
%ADD17C,0.127000*%
G04 APERTURE END LIST*
D10*
X109192060Y-106945080D02*
X109192060Y-108498640D01*
X106652060Y-111038640D02*
G75*
G03X109192060Y-108498640I0J2540000D01*
G01*
X103755076Y-102181768D02*
X109192060Y-106945080D01*
X55852060Y-96296067D02*
X56300000Y-96740000D01*
X103758052Y-96469398D02*
X109220013Y-91690000D01*
X103758039Y-96469407D02*
G75*
G03X103628512Y-96721166I160472J-241760D01*
G01*
X103755063Y-102181759D02*
G75*
G02X103625536Y-101930000I160472J241760D01*
G01*
X103625536Y-101930000D02*
X103628512Y-96721166D01*
X55852060Y-102438136D02*
X56300000Y-101994203D01*
X56300000Y-101994203D02*
G75*
G03X56361488Y-101805369I-228511J178835D01*
G01*
X56300000Y-96740000D02*
G75*
G02X56361488Y-96928834I-228511J-178835D01*
G01*
X108205221Y-90615720D02*
G75*
G03X108205221Y-90615720I-1652221J0D01*
G01*
X108205221Y-108205220D02*
G75*
G03X108205221Y-108205220I-1652221J0D01*
G01*
X109220013Y-90136440D02*
X109220013Y-91690000D01*
X55852060Y-90136440D02*
X55852060Y-96296067D01*
X106680013Y-87596440D02*
G75*
G02X109220013Y-90136440I0J-2540000D01*
G01*
X55852060Y-102438136D02*
X55852060Y-108498640D01*
X106680013Y-87596440D02*
X58392060Y-87596440D01*
X58392060Y-111038640D02*
X106652060Y-111038640D01*
X55852060Y-90136440D02*
G75*
G02X58392060Y-87596440I2540000J0D01*
G01*
X56361488Y-96928834D02*
X56361488Y-101805369D01*
X58392060Y-111038640D02*
G75*
G02X55852060Y-108498640I0J2540000D01*
G01*
D11*
X58160920Y-102905440D03*
X58160920Y-95905440D03*
D12*
X60860920Y-101905440D03*
X60860920Y-96905440D03*
D13*
X62357000Y-109565440D03*
X64897000Y-109565440D03*
X67437000Y-109565440D03*
X69977000Y-109565440D03*
X72517000Y-109565440D03*
X75057000Y-109565440D03*
X77597000Y-109565440D03*
X80137000Y-109565440D03*
X82677000Y-109565440D03*
X85217000Y-109565440D03*
X87757000Y-109565440D03*
X90297000Y-109565440D03*
X92837000Y-109565440D03*
X95377000Y-109565440D03*
X97917000Y-109565440D03*
X100457000Y-109565440D03*
X102997000Y-109565440D03*
D14*
X69977000Y-89245440D03*
X72517000Y-89245440D03*
X75057000Y-89245440D03*
X77597000Y-89245440D03*
X80137000Y-89245440D03*
X82677000Y-89245440D03*
X85217000Y-89245440D03*
X87757000Y-89245440D03*
X90297000Y-89245440D03*
X92837000Y-89245440D03*
X95377000Y-89245440D03*
X97917000Y-89245440D03*
X100457000Y-89245440D03*
X102997000Y-89245440D03*
D15*
X58420000Y-108204000D03*
X58420000Y-90487500D03*
D16*
X60832893Y-98765844D03*
X59750000Y-99119999D03*
X99780500Y-106495500D03*
X87655500Y-102090500D03*
X88450500Y-106395500D03*
X99930500Y-92105500D03*
X95758000Y-98171000D03*
X92456000Y-98171000D03*
X99260000Y-96650000D03*
X73579624Y-102008287D03*
X69710300Y-94830900D03*
X60835920Y-100705440D03*
X68376800Y-95189040D03*
X68044200Y-103962200D03*
X63855600Y-103733600D03*
X62616236Y-96215851D03*
X74061082Y-98298000D03*
X73974960Y-99872800D03*
X72542400Y-98120200D03*
X70200900Y-102044456D03*
X63060000Y-94980000D03*
X64840000Y-94160004D03*
X78930000Y-95780000D03*
X83845974Y-93705440D03*
X95909428Y-101594509D03*
X92540458Y-101594509D03*
X68180002Y-92600000D03*
X73944100Y-96647042D03*
X101809998Y-90930000D03*
X65799890Y-106339999D03*
X87655500Y-94187390D03*
X69829680Y-95483680D03*
X58240000Y-92779998D03*
X63320000Y-92260000D03*
X63319996Y-91050000D03*
X78930000Y-98200000D03*
X70730309Y-106209155D03*
X74240000Y-104920000D03*
X73862914Y-106522610D03*
X63281600Y-104651600D03*
X101590000Y-106700000D03*
X99187000Y-98869500D03*
X70844494Y-94810812D03*
X62495289Y-95548075D03*
X64987118Y-102680718D03*
X73924450Y-98905983D03*
X71343900Y-97597000D03*
X61264800Y-94996000D03*
X71247000Y-98298000D03*
X67659625Y-95072202D03*
X66689998Y-96620000D03*
X79631920Y-103775500D03*
X100470000Y-91124054D03*
X85780000Y-104590000D03*
X69270000Y-92590000D03*
X63281600Y-105616600D03*
X83005898Y-105913289D03*
X61041280Y-103515160D03*
X77088074Y-99172497D03*
X71421238Y-106229997D03*
X72575305Y-106355591D03*
X65836800Y-99881978D03*
X65003996Y-97700000D03*
X63020000Y-93210000D03*
X71089998Y-91410000D03*
X69100000Y-96780000D03*
X99186980Y-99949000D03*
X91530000Y-106370000D03*
X99250500Y-97790000D03*
X90694133Y-106854131D03*
X99220000Y-95549996D03*
X92949871Y-107752199D03*
X72540279Y-90802579D03*
X99206060Y-107905440D03*
X101320000Y-93330002D03*
X74062525Y-100516974D03*
X100480000Y-107640000D03*
X66789998Y-106820000D03*
X64210000Y-104850000D03*
X64209994Y-106080000D03*
X64058794Y-106934000D03*
X63113920Y-106776520D03*
X66612912Y-95171314D03*
X75920000Y-93302610D03*
X85598000Y-97472500D03*
X77760000Y-99840000D03*
X81724500Y-96012000D03*
X85661500Y-95694500D03*
X81692500Y-94424500D03*
X85610000Y-94670000D03*
X81692500Y-104584500D03*
X95390000Y-106757390D03*
X86944054Y-106489239D03*
X78870000Y-106819998D03*
X85598000Y-99631500D03*
X81279998Y-100660000D03*
X82420000Y-100879998D03*
X85300000Y-100880000D03*
X73807566Y-102743000D03*
X80390000Y-92080000D03*
X83846060Y-94975440D03*
X80390000Y-93280000D03*
X97790022Y-106426000D03*
X59817100Y-93755718D03*
X85724970Y-106362500D03*
X94450000Y-106130000D03*
X96774000Y-106426000D03*
X66497200Y-103911396D03*
X81480000Y-91910000D03*
X75882500Y-91884500D03*
X75882500Y-94424500D03*
D17*
G36*
X103186500Y-88193047D02*
G01*
X103049360Y-88179540D01*
X102944640Y-88179540D01*
X102788047Y-88194963D01*
X102587124Y-88255912D01*
X102401953Y-88354889D01*
X102239648Y-88488088D01*
X102106449Y-88650393D01*
X102007472Y-88835564D01*
X101946523Y-89036487D01*
X101925943Y-89245440D01*
X101946523Y-89454393D01*
X102007472Y-89655316D01*
X102106449Y-89840487D01*
X102239648Y-90002792D01*
X102401953Y-90135991D01*
X102587124Y-90234968D01*
X102788047Y-90295917D01*
X102944640Y-90311340D01*
X103049360Y-90311340D01*
X103186500Y-90297833D01*
X103186500Y-108580178D01*
X103095816Y-108562140D01*
X102898184Y-108562140D01*
X102704348Y-108600696D01*
X102521759Y-108676327D01*
X102357433Y-108786126D01*
X102217686Y-108925873D01*
X102107887Y-109090199D01*
X102032256Y-109272788D01*
X101993700Y-109466624D01*
X101993700Y-109664256D01*
X102032256Y-109858092D01*
X102107887Y-110040681D01*
X102217686Y-110205007D01*
X102357433Y-110344754D01*
X102521759Y-110454553D01*
X102704348Y-110530184D01*
X102898184Y-110568740D01*
X103095816Y-110568740D01*
X103186500Y-110550702D01*
X103186500Y-110721140D01*
X58407592Y-110721140D01*
X57960669Y-110677319D01*
X57545711Y-110552036D01*
X57162992Y-110348540D01*
X56827083Y-110074581D01*
X56550786Y-109740594D01*
X56344624Y-109359305D01*
X56216446Y-108945231D01*
X56169564Y-108499175D01*
X56169560Y-108498102D01*
X56169560Y-108025149D01*
X56604100Y-108025149D01*
X56604100Y-108382851D01*
X56673884Y-108733678D01*
X56810771Y-109064151D01*
X57009499Y-109361569D01*
X57262431Y-109614501D01*
X57559849Y-109813229D01*
X57890322Y-109950116D01*
X58241149Y-110019900D01*
X58598851Y-110019900D01*
X58949678Y-109950116D01*
X59280151Y-109813229D01*
X59577569Y-109614501D01*
X59725446Y-109466624D01*
X61353700Y-109466624D01*
X61353700Y-109664256D01*
X61392256Y-109858092D01*
X61467887Y-110040681D01*
X61577686Y-110205007D01*
X61717433Y-110344754D01*
X61881759Y-110454553D01*
X62064348Y-110530184D01*
X62258184Y-110568740D01*
X62455816Y-110568740D01*
X62649652Y-110530184D01*
X62832241Y-110454553D01*
X62996567Y-110344754D01*
X63136314Y-110205007D01*
X63246113Y-110040681D01*
X63321744Y-109858092D01*
X63360300Y-109664256D01*
X63360300Y-109466624D01*
X63893700Y-109466624D01*
X63893700Y-109664256D01*
X63932256Y-109858092D01*
X64007887Y-110040681D01*
X64117686Y-110205007D01*
X64257433Y-110344754D01*
X64421759Y-110454553D01*
X64604348Y-110530184D01*
X64798184Y-110568740D01*
X64995816Y-110568740D01*
X65189652Y-110530184D01*
X65372241Y-110454553D01*
X65536567Y-110344754D01*
X65676314Y-110205007D01*
X65786113Y-110040681D01*
X65861744Y-109858092D01*
X65900300Y-109664256D01*
X65900300Y-109466624D01*
X66433700Y-109466624D01*
X66433700Y-109664256D01*
X66472256Y-109858092D01*
X66547887Y-110040681D01*
X66657686Y-110205007D01*
X66797433Y-110344754D01*
X66961759Y-110454553D01*
X67144348Y-110530184D01*
X67338184Y-110568740D01*
X67535816Y-110568740D01*
X67729652Y-110530184D01*
X67912241Y-110454553D01*
X68076567Y-110344754D01*
X68127637Y-110293684D01*
X69302637Y-110293684D01*
X69385644Y-110444191D01*
X69568442Y-110542674D01*
X69766941Y-110603603D01*
X69973513Y-110624635D01*
X70180218Y-110604963D01*
X70379115Y-110545343D01*
X70562557Y-110448066D01*
X70568356Y-110444191D01*
X70651363Y-110293684D01*
X69977000Y-109619322D01*
X69302637Y-110293684D01*
X68127637Y-110293684D01*
X68216314Y-110205007D01*
X68326113Y-110040681D01*
X68401744Y-109858092D01*
X68440300Y-109664256D01*
X68440300Y-109561953D01*
X68917805Y-109561953D01*
X68937477Y-109768658D01*
X68997097Y-109967555D01*
X69094374Y-110150997D01*
X69098249Y-110156796D01*
X69248756Y-110239803D01*
X69923118Y-109565440D01*
X70030882Y-109565440D01*
X70705244Y-110239803D01*
X70855751Y-110156796D01*
X70954234Y-109973998D01*
X71015163Y-109775499D01*
X71036195Y-109568927D01*
X71026459Y-109466624D01*
X71513700Y-109466624D01*
X71513700Y-109664256D01*
X71552256Y-109858092D01*
X71627887Y-110040681D01*
X71737686Y-110205007D01*
X71877433Y-110344754D01*
X72041759Y-110454553D01*
X72224348Y-110530184D01*
X72418184Y-110568740D01*
X72615816Y-110568740D01*
X72809652Y-110530184D01*
X72992241Y-110454553D01*
X73156567Y-110344754D01*
X73296314Y-110205007D01*
X73406113Y-110040681D01*
X73481744Y-109858092D01*
X73520300Y-109664256D01*
X73520300Y-109466624D01*
X74053700Y-109466624D01*
X74053700Y-109664256D01*
X74092256Y-109858092D01*
X74167887Y-110040681D01*
X74277686Y-110205007D01*
X74417433Y-110344754D01*
X74581759Y-110454553D01*
X74764348Y-110530184D01*
X74958184Y-110568740D01*
X75155816Y-110568740D01*
X75349652Y-110530184D01*
X75532241Y-110454553D01*
X75696567Y-110344754D01*
X75836314Y-110205007D01*
X75946113Y-110040681D01*
X76021744Y-109858092D01*
X76060300Y-109664256D01*
X76060300Y-109466624D01*
X76593700Y-109466624D01*
X76593700Y-109664256D01*
X76632256Y-109858092D01*
X76707887Y-110040681D01*
X76817686Y-110205007D01*
X76957433Y-110344754D01*
X77121759Y-110454553D01*
X77304348Y-110530184D01*
X77498184Y-110568740D01*
X77695816Y-110568740D01*
X77889652Y-110530184D01*
X78072241Y-110454553D01*
X78236567Y-110344754D01*
X78376314Y-110205007D01*
X78486113Y-110040681D01*
X78561744Y-109858092D01*
X78600300Y-109664256D01*
X78600300Y-109466624D01*
X79133700Y-109466624D01*
X79133700Y-109664256D01*
X79172256Y-109858092D01*
X79247887Y-110040681D01*
X79357686Y-110205007D01*
X79497433Y-110344754D01*
X79661759Y-110454553D01*
X79844348Y-110530184D01*
X80038184Y-110568740D01*
X80235816Y-110568740D01*
X80429652Y-110530184D01*
X80612241Y-110454553D01*
X80776567Y-110344754D01*
X80916314Y-110205007D01*
X81026113Y-110040681D01*
X81101744Y-109858092D01*
X81140300Y-109664256D01*
X81140300Y-109466624D01*
X81673700Y-109466624D01*
X81673700Y-109664256D01*
X81712256Y-109858092D01*
X81787887Y-110040681D01*
X81897686Y-110205007D01*
X82037433Y-110344754D01*
X82201759Y-110454553D01*
X82384348Y-110530184D01*
X82578184Y-110568740D01*
X82775816Y-110568740D01*
X82969652Y-110530184D01*
X83152241Y-110454553D01*
X83316567Y-110344754D01*
X83456314Y-110205007D01*
X83566113Y-110040681D01*
X83641744Y-109858092D01*
X83680300Y-109664256D01*
X83680300Y-109466624D01*
X84213700Y-109466624D01*
X84213700Y-109664256D01*
X84252256Y-109858092D01*
X84327887Y-110040681D01*
X84437686Y-110205007D01*
X84577433Y-110344754D01*
X84741759Y-110454553D01*
X84924348Y-110530184D01*
X85118184Y-110568740D01*
X85315816Y-110568740D01*
X85509652Y-110530184D01*
X85692241Y-110454553D01*
X85856567Y-110344754D01*
X85996314Y-110205007D01*
X86106113Y-110040681D01*
X86181744Y-109858092D01*
X86220300Y-109664256D01*
X86220300Y-109466624D01*
X86753700Y-109466624D01*
X86753700Y-109664256D01*
X86792256Y-109858092D01*
X86867887Y-110040681D01*
X86977686Y-110205007D01*
X87117433Y-110344754D01*
X87281759Y-110454553D01*
X87464348Y-110530184D01*
X87658184Y-110568740D01*
X87855816Y-110568740D01*
X88049652Y-110530184D01*
X88232241Y-110454553D01*
X88396567Y-110344754D01*
X88536314Y-110205007D01*
X88646113Y-110040681D01*
X88721744Y-109858092D01*
X88760300Y-109664256D01*
X88760300Y-109466624D01*
X89293700Y-109466624D01*
X89293700Y-109664256D01*
X89332256Y-109858092D01*
X89407887Y-110040681D01*
X89517686Y-110205007D01*
X89657433Y-110344754D01*
X89821759Y-110454553D01*
X90004348Y-110530184D01*
X90198184Y-110568740D01*
X90395816Y-110568740D01*
X90589652Y-110530184D01*
X90772241Y-110454553D01*
X90936567Y-110344754D01*
X91076314Y-110205007D01*
X91186113Y-110040681D01*
X91261744Y-109858092D01*
X91300300Y-109664256D01*
X91300300Y-109466624D01*
X91833700Y-109466624D01*
X91833700Y-109664256D01*
X91872256Y-109858092D01*
X91947887Y-110040681D01*
X92057686Y-110205007D01*
X92197433Y-110344754D01*
X92361759Y-110454553D01*
X92544348Y-110530184D01*
X92738184Y-110568740D01*
X92935816Y-110568740D01*
X93129652Y-110530184D01*
X93312241Y-110454553D01*
X93476567Y-110344754D01*
X93616314Y-110205007D01*
X93726113Y-110040681D01*
X93801744Y-109858092D01*
X93840300Y-109664256D01*
X93840300Y-109466624D01*
X94373700Y-109466624D01*
X94373700Y-109664256D01*
X94412256Y-109858092D01*
X94487887Y-110040681D01*
X94597686Y-110205007D01*
X94737433Y-110344754D01*
X94901759Y-110454553D01*
X95084348Y-110530184D01*
X95278184Y-110568740D01*
X95475816Y-110568740D01*
X95669652Y-110530184D01*
X95852241Y-110454553D01*
X96016567Y-110344754D01*
X96156314Y-110205007D01*
X96266113Y-110040681D01*
X96341744Y-109858092D01*
X96380300Y-109664256D01*
X96380300Y-109466624D01*
X96913700Y-109466624D01*
X96913700Y-109664256D01*
X96952256Y-109858092D01*
X97027887Y-110040681D01*
X97137686Y-110205007D01*
X97277433Y-110344754D01*
X97441759Y-110454553D01*
X97624348Y-110530184D01*
X97818184Y-110568740D01*
X98015816Y-110568740D01*
X98209652Y-110530184D01*
X98392241Y-110454553D01*
X98556567Y-110344754D01*
X98607637Y-110293684D01*
X99782637Y-110293684D01*
X99865644Y-110444191D01*
X100048442Y-110542674D01*
X100246941Y-110603603D01*
X100453513Y-110624635D01*
X100660218Y-110604963D01*
X100859115Y-110545343D01*
X101042557Y-110448066D01*
X101048356Y-110444191D01*
X101131363Y-110293684D01*
X100457000Y-109619322D01*
X99782637Y-110293684D01*
X98607637Y-110293684D01*
X98696314Y-110205007D01*
X98806113Y-110040681D01*
X98881744Y-109858092D01*
X98920300Y-109664256D01*
X98920300Y-109561953D01*
X99397805Y-109561953D01*
X99417477Y-109768658D01*
X99477097Y-109967555D01*
X99574374Y-110150997D01*
X99578249Y-110156796D01*
X99728756Y-110239803D01*
X100403118Y-109565440D01*
X100510882Y-109565440D01*
X101185244Y-110239803D01*
X101335751Y-110156796D01*
X101434234Y-109973998D01*
X101495163Y-109775499D01*
X101516195Y-109568927D01*
X101496523Y-109362222D01*
X101436903Y-109163325D01*
X101339626Y-108979883D01*
X101335751Y-108974084D01*
X101185244Y-108891077D01*
X100510882Y-109565440D01*
X100403118Y-109565440D01*
X99728756Y-108891077D01*
X99578249Y-108974084D01*
X99479766Y-109156882D01*
X99418837Y-109355381D01*
X99397805Y-109561953D01*
X98920300Y-109561953D01*
X98920300Y-109466624D01*
X98881744Y-109272788D01*
X98806113Y-109090199D01*
X98696314Y-108925873D01*
X98607637Y-108837196D01*
X99782637Y-108837196D01*
X100457000Y-109511558D01*
X101131363Y-108837196D01*
X101048356Y-108686689D01*
X100865558Y-108588206D01*
X100667059Y-108527277D01*
X100460487Y-108506245D01*
X100253782Y-108525917D01*
X100054885Y-108585537D01*
X99871443Y-108682814D01*
X99865644Y-108686689D01*
X99782637Y-108837196D01*
X98607637Y-108837196D01*
X98556567Y-108786126D01*
X98392241Y-108676327D01*
X98209652Y-108600696D01*
X98015816Y-108562140D01*
X97818184Y-108562140D01*
X97624348Y-108600696D01*
X97441759Y-108676327D01*
X97277433Y-108786126D01*
X97137686Y-108925873D01*
X97027887Y-109090199D01*
X96952256Y-109272788D01*
X96913700Y-109466624D01*
X96380300Y-109466624D01*
X96341744Y-109272788D01*
X96266113Y-109090199D01*
X96156314Y-108925873D01*
X96016567Y-108786126D01*
X95852241Y-108676327D01*
X95669652Y-108600696D01*
X95475816Y-108562140D01*
X95278184Y-108562140D01*
X95084348Y-108600696D01*
X94901759Y-108676327D01*
X94737433Y-108786126D01*
X94597686Y-108925873D01*
X94487887Y-109090199D01*
X94412256Y-109272788D01*
X94373700Y-109466624D01*
X93840300Y-109466624D01*
X93801744Y-109272788D01*
X93726113Y-109090199D01*
X93616314Y-108925873D01*
X93476567Y-108786126D01*
X93312241Y-108676327D01*
X93129652Y-108600696D01*
X92935816Y-108562140D01*
X92738184Y-108562140D01*
X92544348Y-108600696D01*
X92361759Y-108676327D01*
X92197433Y-108786126D01*
X92057686Y-108925873D01*
X91947887Y-109090199D01*
X91872256Y-109272788D01*
X91833700Y-109466624D01*
X91300300Y-109466624D01*
X91261744Y-109272788D01*
X91186113Y-109090199D01*
X91076314Y-108925873D01*
X90936567Y-108786126D01*
X90772241Y-108676327D01*
X90589652Y-108600696D01*
X90395816Y-108562140D01*
X90198184Y-108562140D01*
X90004348Y-108600696D01*
X89821759Y-108676327D01*
X89657433Y-108786126D01*
X89517686Y-108925873D01*
X89407887Y-109090199D01*
X89332256Y-109272788D01*
X89293700Y-109466624D01*
X88760300Y-109466624D01*
X88721744Y-109272788D01*
X88646113Y-109090199D01*
X88536314Y-108925873D01*
X88396567Y-108786126D01*
X88232241Y-108676327D01*
X88049652Y-108600696D01*
X87855816Y-108562140D01*
X87658184Y-108562140D01*
X87464348Y-108600696D01*
X87281759Y-108676327D01*
X87117433Y-108786126D01*
X86977686Y-108925873D01*
X86867887Y-109090199D01*
X86792256Y-109272788D01*
X86753700Y-109466624D01*
X86220300Y-109466624D01*
X86181744Y-109272788D01*
X86106113Y-109090199D01*
X85996314Y-108925873D01*
X85856567Y-108786126D01*
X85692241Y-108676327D01*
X85509652Y-108600696D01*
X85315816Y-108562140D01*
X85118184Y-108562140D01*
X84924348Y-108600696D01*
X84741759Y-108676327D01*
X84577433Y-108786126D01*
X84437686Y-108925873D01*
X84327887Y-109090199D01*
X84252256Y-109272788D01*
X84213700Y-109466624D01*
X83680300Y-109466624D01*
X83641744Y-109272788D01*
X83566113Y-109090199D01*
X83456314Y-108925873D01*
X83316567Y-108786126D01*
X83152241Y-108676327D01*
X82969652Y-108600696D01*
X82775816Y-108562140D01*
X82578184Y-108562140D01*
X82384348Y-108600696D01*
X82201759Y-108676327D01*
X82037433Y-108786126D01*
X81897686Y-108925873D01*
X81787887Y-109090199D01*
X81712256Y-109272788D01*
X81673700Y-109466624D01*
X81140300Y-109466624D01*
X81101744Y-109272788D01*
X81026113Y-109090199D01*
X80916314Y-108925873D01*
X80776567Y-108786126D01*
X80612241Y-108676327D01*
X80429652Y-108600696D01*
X80235816Y-108562140D01*
X80038184Y-108562140D01*
X79844348Y-108600696D01*
X79661759Y-108676327D01*
X79497433Y-108786126D01*
X79357686Y-108925873D01*
X79247887Y-109090199D01*
X79172256Y-109272788D01*
X79133700Y-109466624D01*
X78600300Y-109466624D01*
X78561744Y-109272788D01*
X78486113Y-109090199D01*
X78376314Y-108925873D01*
X78236567Y-108786126D01*
X78072241Y-108676327D01*
X77889652Y-108600696D01*
X77695816Y-108562140D01*
X77498184Y-108562140D01*
X77304348Y-108600696D01*
X77121759Y-108676327D01*
X76957433Y-108786126D01*
X76817686Y-108925873D01*
X76707887Y-109090199D01*
X76632256Y-109272788D01*
X76593700Y-109466624D01*
X76060300Y-109466624D01*
X76021744Y-109272788D01*
X75946113Y-109090199D01*
X75836314Y-108925873D01*
X75696567Y-108786126D01*
X75532241Y-108676327D01*
X75349652Y-108600696D01*
X75155816Y-108562140D01*
X74958184Y-108562140D01*
X74764348Y-108600696D01*
X74581759Y-108676327D01*
X74417433Y-108786126D01*
X74277686Y-108925873D01*
X74167887Y-109090199D01*
X74092256Y-109272788D01*
X74053700Y-109466624D01*
X73520300Y-109466624D01*
X73481744Y-109272788D01*
X73406113Y-109090199D01*
X73296314Y-108925873D01*
X73156567Y-108786126D01*
X72992241Y-108676327D01*
X72809652Y-108600696D01*
X72615816Y-108562140D01*
X72418184Y-108562140D01*
X72224348Y-108600696D01*
X72041759Y-108676327D01*
X71877433Y-108786126D01*
X71737686Y-108925873D01*
X71627887Y-109090199D01*
X71552256Y-109272788D01*
X71513700Y-109466624D01*
X71026459Y-109466624D01*
X71016523Y-109362222D01*
X70956903Y-109163325D01*
X70859626Y-108979883D01*
X70855751Y-108974084D01*
X70705244Y-108891077D01*
X70030882Y-109565440D01*
X69923118Y-109565440D01*
X69248756Y-108891077D01*
X69098249Y-108974084D01*
X68999766Y-109156882D01*
X68938837Y-109355381D01*
X68917805Y-109561953D01*
X68440300Y-109561953D01*
X68440300Y-109466624D01*
X68401744Y-109272788D01*
X68326113Y-109090199D01*
X68216314Y-108925873D01*
X68127637Y-108837196D01*
X69302637Y-108837196D01*
X69977000Y-109511558D01*
X70651363Y-108837196D01*
X70568356Y-108686689D01*
X70385558Y-108588206D01*
X70187059Y-108527277D01*
X69980487Y-108506245D01*
X69773782Y-108525917D01*
X69574885Y-108585537D01*
X69391443Y-108682814D01*
X69385644Y-108686689D01*
X69302637Y-108837196D01*
X68127637Y-108837196D01*
X68076567Y-108786126D01*
X67912241Y-108676327D01*
X67729652Y-108600696D01*
X67535816Y-108562140D01*
X67338184Y-108562140D01*
X67144348Y-108600696D01*
X66961759Y-108676327D01*
X66797433Y-108786126D01*
X66657686Y-108925873D01*
X66547887Y-109090199D01*
X66472256Y-109272788D01*
X66433700Y-109466624D01*
X65900300Y-109466624D01*
X65861744Y-109272788D01*
X65786113Y-109090199D01*
X65676314Y-108925873D01*
X65536567Y-108786126D01*
X65372241Y-108676327D01*
X65189652Y-108600696D01*
X64995816Y-108562140D01*
X64798184Y-108562140D01*
X64604348Y-108600696D01*
X64421759Y-108676327D01*
X64257433Y-108786126D01*
X64117686Y-108925873D01*
X64007887Y-109090199D01*
X63932256Y-109272788D01*
X63893700Y-109466624D01*
X63360300Y-109466624D01*
X63321744Y-109272788D01*
X63246113Y-109090199D01*
X63136314Y-108925873D01*
X62996567Y-108786126D01*
X62832241Y-108676327D01*
X62649652Y-108600696D01*
X62455816Y-108562140D01*
X62258184Y-108562140D01*
X62064348Y-108600696D01*
X61881759Y-108676327D01*
X61717433Y-108786126D01*
X61577686Y-108925873D01*
X61467887Y-109090199D01*
X61392256Y-109272788D01*
X61353700Y-109466624D01*
X59725446Y-109466624D01*
X59830501Y-109361569D01*
X60029229Y-109064151D01*
X60166116Y-108733678D01*
X60235900Y-108382851D01*
X60235900Y-108025149D01*
X60172401Y-107705918D01*
X92479971Y-107705918D01*
X92479971Y-107798480D01*
X92498029Y-107889264D01*
X92533451Y-107974780D01*
X92584876Y-108051743D01*
X92650327Y-108117194D01*
X92727290Y-108168619D01*
X92812806Y-108204041D01*
X92903590Y-108222099D01*
X92996152Y-108222099D01*
X93086936Y-108204041D01*
X93172452Y-108168619D01*
X93249415Y-108117194D01*
X93314866Y-108051743D01*
X93366291Y-107974780D01*
X93401713Y-107889264D01*
X93407701Y-107859159D01*
X98736160Y-107859159D01*
X98736160Y-107951721D01*
X98754218Y-108042505D01*
X98789640Y-108128021D01*
X98841065Y-108204984D01*
X98906516Y-108270435D01*
X98983479Y-108321860D01*
X99068995Y-108357282D01*
X99159779Y-108375340D01*
X99252341Y-108375340D01*
X99343125Y-108357282D01*
X99428641Y-108321860D01*
X99505604Y-108270435D01*
X99571055Y-108204984D01*
X99622480Y-108128021D01*
X99657902Y-108042505D01*
X99675960Y-107951721D01*
X99675960Y-107859159D01*
X99657902Y-107768375D01*
X99622480Y-107682859D01*
X99571055Y-107605896D01*
X99558878Y-107593719D01*
X100010100Y-107593719D01*
X100010100Y-107686281D01*
X100028158Y-107777065D01*
X100063580Y-107862581D01*
X100115005Y-107939544D01*
X100180456Y-108004995D01*
X100257419Y-108056420D01*
X100342935Y-108091842D01*
X100433719Y-108109900D01*
X100526281Y-108109900D01*
X100617065Y-108091842D01*
X100702581Y-108056420D01*
X100779544Y-108004995D01*
X100844995Y-107939544D01*
X100896420Y-107862581D01*
X100931842Y-107777065D01*
X100949900Y-107686281D01*
X100949900Y-107593719D01*
X100931842Y-107502935D01*
X100896420Y-107417419D01*
X100844995Y-107340456D01*
X100779544Y-107275005D01*
X100702581Y-107223580D01*
X100617065Y-107188158D01*
X100526281Y-107170100D01*
X100433719Y-107170100D01*
X100342935Y-107188158D01*
X100257419Y-107223580D01*
X100180456Y-107275005D01*
X100115005Y-107340456D01*
X100063580Y-107417419D01*
X100028158Y-107502935D01*
X100010100Y-107593719D01*
X99558878Y-107593719D01*
X99505604Y-107540445D01*
X99428641Y-107489020D01*
X99343125Y-107453598D01*
X99252341Y-107435540D01*
X99159779Y-107435540D01*
X99068995Y-107453598D01*
X98983479Y-107489020D01*
X98906516Y-107540445D01*
X98841065Y-107605896D01*
X98789640Y-107682859D01*
X98754218Y-107768375D01*
X98736160Y-107859159D01*
X93407701Y-107859159D01*
X93419771Y-107798480D01*
X93419771Y-107705918D01*
X93401713Y-107615134D01*
X93366291Y-107529618D01*
X93314866Y-107452655D01*
X93249415Y-107387204D01*
X93172452Y-107335779D01*
X93086936Y-107300357D01*
X92996152Y-107282299D01*
X92903590Y-107282299D01*
X92812806Y-107300357D01*
X92727290Y-107335779D01*
X92650327Y-107387204D01*
X92584876Y-107452655D01*
X92533451Y-107529618D01*
X92498029Y-107615134D01*
X92479971Y-107705918D01*
X60172401Y-107705918D01*
X60166116Y-107674322D01*
X60029229Y-107343849D01*
X59830501Y-107046431D01*
X59577569Y-106793499D01*
X59482894Y-106730239D01*
X62644020Y-106730239D01*
X62644020Y-106822801D01*
X62662078Y-106913585D01*
X62697500Y-106999101D01*
X62748925Y-107076064D01*
X62814376Y-107141515D01*
X62891339Y-107192940D01*
X62976855Y-107228362D01*
X63067639Y-107246420D01*
X63160201Y-107246420D01*
X63250985Y-107228362D01*
X63336501Y-107192940D01*
X63413464Y-107141515D01*
X63478915Y-107076064D01*
X63530340Y-106999101D01*
X63565762Y-106913585D01*
X63570907Y-106887719D01*
X63588894Y-106887719D01*
X63588894Y-106980281D01*
X63606952Y-107071065D01*
X63642374Y-107156581D01*
X63693799Y-107233544D01*
X63759250Y-107298995D01*
X63836213Y-107350420D01*
X63921729Y-107385842D01*
X64012513Y-107403900D01*
X64105075Y-107403900D01*
X64195859Y-107385842D01*
X64281375Y-107350420D01*
X64358338Y-107298995D01*
X64423789Y-107233544D01*
X64475214Y-107156581D01*
X64510636Y-107071065D01*
X64528694Y-106980281D01*
X64528694Y-106887719D01*
X64510636Y-106796935D01*
X64501020Y-106773719D01*
X66320098Y-106773719D01*
X66320098Y-106866281D01*
X66338156Y-106957065D01*
X66373578Y-107042581D01*
X66425003Y-107119544D01*
X66490454Y-107184995D01*
X66567417Y-107236420D01*
X66652933Y-107271842D01*
X66743717Y-107289900D01*
X66836279Y-107289900D01*
X66927063Y-107271842D01*
X67012579Y-107236420D01*
X67089542Y-107184995D01*
X67154993Y-107119544D01*
X67206418Y-107042581D01*
X67241840Y-106957065D01*
X67259898Y-106866281D01*
X67259898Y-106773719D01*
X67241840Y-106682935D01*
X67206418Y-106597419D01*
X67154993Y-106520456D01*
X67089542Y-106455005D01*
X67012579Y-106403580D01*
X66927063Y-106368158D01*
X66836279Y-106350100D01*
X66743717Y-106350100D01*
X66652933Y-106368158D01*
X66567417Y-106403580D01*
X66490454Y-106455005D01*
X66425003Y-106520456D01*
X66373578Y-106597419D01*
X66338156Y-106682935D01*
X66320098Y-106773719D01*
X64501020Y-106773719D01*
X64475214Y-106711419D01*
X64423789Y-106634456D01*
X64358338Y-106569005D01*
X64312891Y-106538638D01*
X64347059Y-106531842D01*
X64432575Y-106496420D01*
X64509538Y-106444995D01*
X64574989Y-106379544D01*
X64626414Y-106302581D01*
X64661836Y-106217065D01*
X64668469Y-106183716D01*
X70951338Y-106183716D01*
X70951338Y-106276278D01*
X70969396Y-106367062D01*
X71004818Y-106452578D01*
X71056243Y-106529541D01*
X71121694Y-106594992D01*
X71198657Y-106646417D01*
X71284173Y-106681839D01*
X71374957Y-106699897D01*
X71467519Y-106699897D01*
X71558303Y-106681839D01*
X71643819Y-106646417D01*
X71720782Y-106594992D01*
X71786233Y-106529541D01*
X71837658Y-106452578D01*
X71873080Y-106367062D01*
X71884567Y-106309310D01*
X72105405Y-106309310D01*
X72105405Y-106401872D01*
X72123463Y-106492656D01*
X72158885Y-106578172D01*
X72210310Y-106655135D01*
X72275761Y-106720586D01*
X72352724Y-106772011D01*
X72438240Y-106807433D01*
X72529024Y-106825491D01*
X72621586Y-106825491D01*
X72712370Y-106807433D01*
X72793767Y-106773717D01*
X78400100Y-106773717D01*
X78400100Y-106866279D01*
X78418158Y-106957063D01*
X78453580Y-107042579D01*
X78505005Y-107119542D01*
X78570456Y-107184993D01*
X78647419Y-107236418D01*
X78732935Y-107271840D01*
X78823719Y-107289898D01*
X78916281Y-107289898D01*
X79007065Y-107271840D01*
X79092581Y-107236418D01*
X79169544Y-107184993D01*
X79234995Y-107119542D01*
X79286420Y-107042579D01*
X79321842Y-106957063D01*
X79339900Y-106866279D01*
X79339900Y-106773717D01*
X79321842Y-106682933D01*
X79286420Y-106597417D01*
X79234995Y-106520454D01*
X79169544Y-106455003D01*
X79092581Y-106403578D01*
X79007065Y-106368156D01*
X78916281Y-106350098D01*
X78823719Y-106350098D01*
X78732935Y-106368156D01*
X78647419Y-106403578D01*
X78570456Y-106455003D01*
X78505005Y-106520454D01*
X78453580Y-106597417D01*
X78418158Y-106682933D01*
X78400100Y-106773717D01*
X72793767Y-106773717D01*
X72797886Y-106772011D01*
X72874849Y-106720586D01*
X72940300Y-106655135D01*
X72991725Y-106578172D01*
X73027147Y-106492656D01*
X73045205Y-106401872D01*
X73045205Y-106309310D01*
X73027147Y-106218526D01*
X72991725Y-106133010D01*
X72940300Y-106056047D01*
X72874849Y-105990596D01*
X72797886Y-105939171D01*
X72712370Y-105903749D01*
X72621586Y-105885691D01*
X72529024Y-105885691D01*
X72438240Y-105903749D01*
X72352724Y-105939171D01*
X72275761Y-105990596D01*
X72210310Y-106056047D01*
X72158885Y-106133010D01*
X72123463Y-106218526D01*
X72105405Y-106309310D01*
X71884567Y-106309310D01*
X71891138Y-106276278D01*
X71891138Y-106183716D01*
X71873080Y-106092932D01*
X71837658Y-106007416D01*
X71786233Y-105930453D01*
X71722788Y-105867008D01*
X82535998Y-105867008D01*
X82535998Y-105959570D01*
X82554056Y-106050354D01*
X82589478Y-106135870D01*
X82640903Y-106212833D01*
X82706354Y-106278284D01*
X82783317Y-106329709D01*
X82868833Y-106365131D01*
X82959617Y-106383189D01*
X83052179Y-106383189D01*
X83142963Y-106365131D01*
X83228479Y-106329709D01*
X83248668Y-106316219D01*
X85255070Y-106316219D01*
X85255070Y-106408781D01*
X85273128Y-106499565D01*
X85308550Y-106585081D01*
X85359975Y-106662044D01*
X85425426Y-106727495D01*
X85502389Y-106778920D01*
X85587905Y-106814342D01*
X85678689Y-106832400D01*
X85771251Y-106832400D01*
X85862035Y-106814342D01*
X85947551Y-106778920D01*
X86024514Y-106727495D01*
X86089965Y-106662044D01*
X86141390Y-106585081D01*
X86176812Y-106499565D01*
X86188071Y-106442958D01*
X86474154Y-106442958D01*
X86474154Y-106535520D01*
X86492212Y-106626304D01*
X86527634Y-106711820D01*
X86579059Y-106788783D01*
X86644510Y-106854234D01*
X86721473Y-106905659D01*
X86806989Y-106941081D01*
X86897773Y-106959139D01*
X86990335Y-106959139D01*
X87081119Y-106941081D01*
X87166635Y-106905659D01*
X87243598Y-106854234D01*
X87289982Y-106807850D01*
X90224233Y-106807850D01*
X90224233Y-106900412D01*
X90242291Y-106991196D01*
X90277713Y-107076712D01*
X90329138Y-107153675D01*
X90394589Y-107219126D01*
X90471552Y-107270551D01*
X90557068Y-107305973D01*
X90647852Y-107324031D01*
X90740414Y-107324031D01*
X90831198Y-107305973D01*
X90916714Y-107270551D01*
X90993677Y-107219126D01*
X91059128Y-107153675D01*
X91110553Y-107076712D01*
X91145975Y-106991196D01*
X91164033Y-106900412D01*
X91164033Y-106807850D01*
X91145975Y-106717066D01*
X91110553Y-106631550D01*
X91059128Y-106554587D01*
X90993677Y-106489136D01*
X90916714Y-106437711D01*
X90831198Y-106402289D01*
X90740414Y-106384231D01*
X90647852Y-106384231D01*
X90557068Y-106402289D01*
X90471552Y-106437711D01*
X90394589Y-106489136D01*
X90329138Y-106554587D01*
X90277713Y-106631550D01*
X90242291Y-106717066D01*
X90224233Y-106807850D01*
X87289982Y-106807850D01*
X87309049Y-106788783D01*
X87360474Y-106711820D01*
X87395896Y-106626304D01*
X87413954Y-106535520D01*
X87413954Y-106442958D01*
X87395896Y-106352174D01*
X87384110Y-106323719D01*
X91060100Y-106323719D01*
X91060100Y-106416281D01*
X91078158Y-106507065D01*
X91113580Y-106592581D01*
X91165005Y-106669544D01*
X91230456Y-106734995D01*
X91307419Y-106786420D01*
X91392935Y-106821842D01*
X91483719Y-106839900D01*
X91576281Y-106839900D01*
X91667065Y-106821842D01*
X91752581Y-106786420D01*
X91829544Y-106734995D01*
X91853430Y-106711109D01*
X94920100Y-106711109D01*
X94920100Y-106803671D01*
X94938158Y-106894455D01*
X94973580Y-106979971D01*
X95025005Y-107056934D01*
X95090456Y-107122385D01*
X95167419Y-107173810D01*
X95252935Y-107209232D01*
X95343719Y-107227290D01*
X95436281Y-107227290D01*
X95527065Y-107209232D01*
X95612581Y-107173810D01*
X95689544Y-107122385D01*
X95754995Y-107056934D01*
X95806420Y-106979971D01*
X95841842Y-106894455D01*
X95859900Y-106803671D01*
X95859900Y-106711109D01*
X95841842Y-106620325D01*
X95806420Y-106534809D01*
X95754995Y-106457846D01*
X95689544Y-106392395D01*
X95670574Y-106379719D01*
X96304100Y-106379719D01*
X96304100Y-106472281D01*
X96322158Y-106563065D01*
X96357580Y-106648581D01*
X96409005Y-106725544D01*
X96474456Y-106790995D01*
X96551419Y-106842420D01*
X96636935Y-106877842D01*
X96727719Y-106895900D01*
X96820281Y-106895900D01*
X96911065Y-106877842D01*
X96996581Y-106842420D01*
X97073544Y-106790995D01*
X97138995Y-106725544D01*
X97190420Y-106648581D01*
X97225842Y-106563065D01*
X97243900Y-106472281D01*
X97243900Y-106379719D01*
X97320122Y-106379719D01*
X97320122Y-106472281D01*
X97338180Y-106563065D01*
X97373602Y-106648581D01*
X97425027Y-106725544D01*
X97490478Y-106790995D01*
X97567441Y-106842420D01*
X97652957Y-106877842D01*
X97743741Y-106895900D01*
X97836303Y-106895900D01*
X97927087Y-106877842D01*
X98012603Y-106842420D01*
X98089566Y-106790995D01*
X98155017Y-106725544D01*
X98206442Y-106648581D01*
X98241864Y-106563065D01*
X98259922Y-106472281D01*
X98259922Y-106379719D01*
X98241864Y-106288935D01*
X98206442Y-106203419D01*
X98155017Y-106126456D01*
X98089566Y-106061005D01*
X98012603Y-106009580D01*
X97927087Y-105974158D01*
X97836303Y-105956100D01*
X97743741Y-105956100D01*
X97652957Y-105974158D01*
X97567441Y-106009580D01*
X97490478Y-106061005D01*
X97425027Y-106126456D01*
X97373602Y-106203419D01*
X97338180Y-106288935D01*
X97320122Y-106379719D01*
X97243900Y-106379719D01*
X97225842Y-106288935D01*
X97190420Y-106203419D01*
X97138995Y-106126456D01*
X97073544Y-106061005D01*
X96996581Y-106009580D01*
X96911065Y-105974158D01*
X96820281Y-105956100D01*
X96727719Y-105956100D01*
X96636935Y-105974158D01*
X96551419Y-106009580D01*
X96474456Y-106061005D01*
X96409005Y-106126456D01*
X96357580Y-106203419D01*
X96322158Y-106288935D01*
X96304100Y-106379719D01*
X95670574Y-106379719D01*
X95612581Y-106340970D01*
X95527065Y-106305548D01*
X95436281Y-106287490D01*
X95343719Y-106287490D01*
X95252935Y-106305548D01*
X95167419Y-106340970D01*
X95090456Y-106392395D01*
X95025005Y-106457846D01*
X94973580Y-106534809D01*
X94938158Y-106620325D01*
X94920100Y-106711109D01*
X91853430Y-106711109D01*
X91894995Y-106669544D01*
X91946420Y-106592581D01*
X91981842Y-106507065D01*
X91999900Y-106416281D01*
X91999900Y-106323719D01*
X91981842Y-106232935D01*
X91946420Y-106147419D01*
X91903858Y-106083719D01*
X93980100Y-106083719D01*
X93980100Y-106176281D01*
X93998158Y-106267065D01*
X94033580Y-106352581D01*
X94085005Y-106429544D01*
X94150456Y-106494995D01*
X94227419Y-106546420D01*
X94312935Y-106581842D01*
X94403719Y-106599900D01*
X94496281Y-106599900D01*
X94587065Y-106581842D01*
X94672581Y-106546420D01*
X94749544Y-106494995D01*
X94814995Y-106429544D01*
X94866420Y-106352581D01*
X94901842Y-106267065D01*
X94919900Y-106176281D01*
X94919900Y-106083719D01*
X94901842Y-105992935D01*
X94866420Y-105907419D01*
X94814995Y-105830456D01*
X94749544Y-105765005D01*
X94672581Y-105713580D01*
X94587065Y-105678158D01*
X94496281Y-105660100D01*
X94403719Y-105660100D01*
X94312935Y-105678158D01*
X94227419Y-105713580D01*
X94150456Y-105765005D01*
X94085005Y-105830456D01*
X94033580Y-105907419D01*
X93998158Y-105992935D01*
X93980100Y-106083719D01*
X91903858Y-106083719D01*
X91894995Y-106070456D01*
X91829544Y-106005005D01*
X91752581Y-105953580D01*
X91667065Y-105918158D01*
X91576281Y-105900100D01*
X91483719Y-105900100D01*
X91392935Y-105918158D01*
X91307419Y-105953580D01*
X91230456Y-106005005D01*
X91165005Y-106070456D01*
X91113580Y-106147419D01*
X91078158Y-106232935D01*
X91060100Y-106323719D01*
X87384110Y-106323719D01*
X87360474Y-106266658D01*
X87309049Y-106189695D01*
X87243598Y-106124244D01*
X87166635Y-106072819D01*
X87081119Y-106037397D01*
X86990335Y-106019339D01*
X86897773Y-106019339D01*
X86806989Y-106037397D01*
X86721473Y-106072819D01*
X86644510Y-106124244D01*
X86579059Y-106189695D01*
X86527634Y-106266658D01*
X86492212Y-106352174D01*
X86474154Y-106442958D01*
X86188071Y-106442958D01*
X86194870Y-106408781D01*
X86194870Y-106316219D01*
X86176812Y-106225435D01*
X86141390Y-106139919D01*
X86089965Y-106062956D01*
X86024514Y-105997505D01*
X85947551Y-105946080D01*
X85862035Y-105910658D01*
X85771251Y-105892600D01*
X85678689Y-105892600D01*
X85587905Y-105910658D01*
X85502389Y-105946080D01*
X85425426Y-105997505D01*
X85359975Y-106062956D01*
X85308550Y-106139919D01*
X85273128Y-106225435D01*
X85255070Y-106316219D01*
X83248668Y-106316219D01*
X83305442Y-106278284D01*
X83370893Y-106212833D01*
X83422318Y-106135870D01*
X83457740Y-106050354D01*
X83475798Y-105959570D01*
X83475798Y-105867008D01*
X83457740Y-105776224D01*
X83422318Y-105690708D01*
X83370893Y-105613745D01*
X83305442Y-105548294D01*
X83228479Y-105496869D01*
X83142963Y-105461447D01*
X83052179Y-105443389D01*
X82959617Y-105443389D01*
X82868833Y-105461447D01*
X82783317Y-105496869D01*
X82706354Y-105548294D01*
X82640903Y-105613745D01*
X82589478Y-105690708D01*
X82554056Y-105776224D01*
X82535998Y-105867008D01*
X71722788Y-105867008D01*
X71720782Y-105865002D01*
X71643819Y-105813577D01*
X71558303Y-105778155D01*
X71467519Y-105760097D01*
X71374957Y-105760097D01*
X71284173Y-105778155D01*
X71198657Y-105813577D01*
X71121694Y-105865002D01*
X71056243Y-105930453D01*
X71004818Y-106007416D01*
X70969396Y-106092932D01*
X70951338Y-106183716D01*
X64668469Y-106183716D01*
X64679894Y-106126281D01*
X64679894Y-106033719D01*
X64661836Y-105942935D01*
X64626414Y-105857419D01*
X64574989Y-105780456D01*
X64509538Y-105715005D01*
X64432575Y-105663580D01*
X64347059Y-105628158D01*
X64256275Y-105610100D01*
X64163713Y-105610100D01*
X64072929Y-105628158D01*
X63987413Y-105663580D01*
X63910450Y-105715005D01*
X63844999Y-105780456D01*
X63793574Y-105857419D01*
X63758152Y-105942935D01*
X63740094Y-106033719D01*
X63740094Y-106126281D01*
X63758152Y-106217065D01*
X63793574Y-106302581D01*
X63844999Y-106379544D01*
X63910450Y-106444995D01*
X63955897Y-106475362D01*
X63921729Y-106482158D01*
X63836213Y-106517580D01*
X63759250Y-106569005D01*
X63693799Y-106634456D01*
X63642374Y-106711419D01*
X63606952Y-106796935D01*
X63588894Y-106887719D01*
X63570907Y-106887719D01*
X63583820Y-106822801D01*
X63583820Y-106730239D01*
X63565762Y-106639455D01*
X63530340Y-106553939D01*
X63478915Y-106476976D01*
X63413464Y-106411525D01*
X63336501Y-106360100D01*
X63250985Y-106324678D01*
X63160201Y-106306620D01*
X63067639Y-106306620D01*
X62976855Y-106324678D01*
X62891339Y-106360100D01*
X62814376Y-106411525D01*
X62748925Y-106476976D01*
X62697500Y-106553939D01*
X62662078Y-106639455D01*
X62644020Y-106730239D01*
X59482894Y-106730239D01*
X59280151Y-106594771D01*
X58949678Y-106457884D01*
X58598851Y-106388100D01*
X58241149Y-106388100D01*
X57890322Y-106457884D01*
X57559849Y-106594771D01*
X57262431Y-106793499D01*
X57009499Y-107046431D01*
X56810771Y-107343849D01*
X56673884Y-107674322D01*
X56604100Y-108025149D01*
X56169560Y-108025149D01*
X56169560Y-105570319D01*
X62811700Y-105570319D01*
X62811700Y-105662881D01*
X62829758Y-105753665D01*
X62865180Y-105839181D01*
X62916605Y-105916144D01*
X62982056Y-105981595D01*
X63059019Y-106033020D01*
X63144535Y-106068442D01*
X63235319Y-106086500D01*
X63327881Y-106086500D01*
X63418665Y-106068442D01*
X63504181Y-106033020D01*
X63581144Y-105981595D01*
X63646595Y-105916144D01*
X63698020Y-105839181D01*
X63733442Y-105753665D01*
X63751500Y-105662881D01*
X63751500Y-105570319D01*
X63733442Y-105479535D01*
X63698020Y-105394019D01*
X63646595Y-105317056D01*
X63581144Y-105251605D01*
X63504181Y-105200180D01*
X63418665Y-105164758D01*
X63327881Y-105146700D01*
X63235319Y-105146700D01*
X63144535Y-105164758D01*
X63059019Y-105200180D01*
X62982056Y-105251605D01*
X62916605Y-105317056D01*
X62865180Y-105394019D01*
X62829758Y-105479535D01*
X62811700Y-105570319D01*
X56169560Y-105570319D01*
X56169560Y-104803719D01*
X63740100Y-104803719D01*
X63740100Y-104896281D01*
X63758158Y-104987065D01*
X63793580Y-105072581D01*
X63845005Y-105149544D01*
X63910456Y-105214995D01*
X63987419Y-105266420D01*
X64072935Y-105301842D01*
X64163719Y-105319900D01*
X64256281Y-105319900D01*
X64347065Y-105301842D01*
X64432581Y-105266420D01*
X64509544Y-105214995D01*
X64574995Y-105149544D01*
X64626420Y-105072581D01*
X64661842Y-104987065D01*
X64679900Y-104896281D01*
X64679900Y-104803719D01*
X64661842Y-104712935D01*
X64626420Y-104627419D01*
X64574995Y-104550456D01*
X64562758Y-104538219D01*
X81222600Y-104538219D01*
X81222600Y-104630781D01*
X81240658Y-104721565D01*
X81276080Y-104807081D01*
X81327505Y-104884044D01*
X81392956Y-104949495D01*
X81469919Y-105000920D01*
X81555435Y-105036342D01*
X81646219Y-105054400D01*
X81738781Y-105054400D01*
X81829565Y-105036342D01*
X81915081Y-105000920D01*
X81992044Y-104949495D01*
X82057495Y-104884044D01*
X82108920Y-104807081D01*
X82144342Y-104721565D01*
X82162400Y-104630781D01*
X82162400Y-104543719D01*
X85310100Y-104543719D01*
X85310100Y-104636281D01*
X85328158Y-104727065D01*
X85363580Y-104812581D01*
X85415005Y-104889544D01*
X85480456Y-104954995D01*
X85557419Y-105006420D01*
X85642935Y-105041842D01*
X85733719Y-105059900D01*
X85826281Y-105059900D01*
X85917065Y-105041842D01*
X86002581Y-105006420D01*
X86079544Y-104954995D01*
X86144995Y-104889544D01*
X86196420Y-104812581D01*
X86231842Y-104727065D01*
X86249900Y-104636281D01*
X86249900Y-104543719D01*
X86231842Y-104452935D01*
X86196420Y-104367419D01*
X86144995Y-104290456D01*
X86079544Y-104225005D01*
X86002581Y-104173580D01*
X85917065Y-104138158D01*
X85826281Y-104120100D01*
X85733719Y-104120100D01*
X85642935Y-104138158D01*
X85557419Y-104173580D01*
X85480456Y-104225005D01*
X85415005Y-104290456D01*
X85363580Y-104367419D01*
X85328158Y-104452935D01*
X85310100Y-104543719D01*
X82162400Y-104543719D01*
X82162400Y-104538219D01*
X82144342Y-104447435D01*
X82108920Y-104361919D01*
X82057495Y-104284956D01*
X81992044Y-104219505D01*
X81915081Y-104168080D01*
X81829565Y-104132658D01*
X81738781Y-104114600D01*
X81646219Y-104114600D01*
X81555435Y-104132658D01*
X81469919Y-104168080D01*
X81392956Y-104219505D01*
X81327505Y-104284956D01*
X81276080Y-104361919D01*
X81240658Y-104447435D01*
X81222600Y-104538219D01*
X64562758Y-104538219D01*
X64509544Y-104485005D01*
X64432581Y-104433580D01*
X64347065Y-104398158D01*
X64256281Y-104380100D01*
X64163719Y-104380100D01*
X64072935Y-104398158D01*
X63987419Y-104433580D01*
X63910456Y-104485005D01*
X63845005Y-104550456D01*
X63793580Y-104627419D01*
X63758158Y-104712935D01*
X63740100Y-104803719D01*
X56169560Y-104803719D01*
X56169560Y-102795533D01*
X57045020Y-102795533D01*
X57045020Y-103015347D01*
X57087904Y-103230936D01*
X57172023Y-103434017D01*
X57294144Y-103616785D01*
X57449575Y-103772216D01*
X57632343Y-103894337D01*
X57835424Y-103978456D01*
X58051013Y-104021340D01*
X58270827Y-104021340D01*
X58486416Y-103978456D01*
X58689497Y-103894337D01*
X58872265Y-103772216D01*
X59027696Y-103616785D01*
X59126523Y-103468879D01*
X60571380Y-103468879D01*
X60571380Y-103561441D01*
X60589438Y-103652225D01*
X60624860Y-103737741D01*
X60676285Y-103814704D01*
X60741736Y-103880155D01*
X60818699Y-103931580D01*
X60904215Y-103967002D01*
X60994999Y-103985060D01*
X61087561Y-103985060D01*
X61178345Y-103967002D01*
X61263861Y-103931580D01*
X61340824Y-103880155D01*
X61355864Y-103865115D01*
X66027300Y-103865115D01*
X66027300Y-103957677D01*
X66045358Y-104048461D01*
X66080780Y-104133977D01*
X66132205Y-104210940D01*
X66197656Y-104276391D01*
X66274619Y-104327816D01*
X66360135Y-104363238D01*
X66450919Y-104381296D01*
X66543481Y-104381296D01*
X66634265Y-104363238D01*
X66719781Y-104327816D01*
X66796744Y-104276391D01*
X66862195Y-104210940D01*
X66913620Y-104133977D01*
X66949042Y-104048461D01*
X66967100Y-103957677D01*
X66967100Y-103865115D01*
X66949042Y-103774331D01*
X66930356Y-103729219D01*
X79162020Y-103729219D01*
X79162020Y-103821781D01*
X79180078Y-103912565D01*
X79215500Y-103998081D01*
X79266925Y-104075044D01*
X79332376Y-104140495D01*
X79409339Y-104191920D01*
X79494855Y-104227342D01*
X79585639Y-104245400D01*
X79678201Y-104245400D01*
X79768985Y-104227342D01*
X79854501Y-104191920D01*
X79931464Y-104140495D01*
X79996915Y-104075044D01*
X80048340Y-103998081D01*
X80083762Y-103912565D01*
X80101820Y-103821781D01*
X80101820Y-103729219D01*
X80083762Y-103638435D01*
X80048340Y-103552919D01*
X79996915Y-103475956D01*
X79931464Y-103410505D01*
X79854501Y-103359080D01*
X79768985Y-103323658D01*
X79678201Y-103305600D01*
X79585639Y-103305600D01*
X79494855Y-103323658D01*
X79409339Y-103359080D01*
X79332376Y-103410505D01*
X79266925Y-103475956D01*
X79215500Y-103552919D01*
X79180078Y-103638435D01*
X79162020Y-103729219D01*
X66930356Y-103729219D01*
X66913620Y-103688815D01*
X66862195Y-103611852D01*
X66796744Y-103546401D01*
X66719781Y-103494976D01*
X66634265Y-103459554D01*
X66543481Y-103441496D01*
X66450919Y-103441496D01*
X66360135Y-103459554D01*
X66274619Y-103494976D01*
X66197656Y-103546401D01*
X66132205Y-103611852D01*
X66080780Y-103688815D01*
X66045358Y-103774331D01*
X66027300Y-103865115D01*
X61355864Y-103865115D01*
X61406275Y-103814704D01*
X61457700Y-103737741D01*
X61493122Y-103652225D01*
X61511180Y-103561441D01*
X61511180Y-103468879D01*
X61493122Y-103378095D01*
X61457700Y-103292579D01*
X61406275Y-103215616D01*
X61340824Y-103150165D01*
X61263861Y-103098740D01*
X61178345Y-103063318D01*
X61087561Y-103045260D01*
X60994999Y-103045260D01*
X60904215Y-103063318D01*
X60818699Y-103098740D01*
X60741736Y-103150165D01*
X60676285Y-103215616D01*
X60624860Y-103292579D01*
X60589438Y-103378095D01*
X60571380Y-103468879D01*
X59126523Y-103468879D01*
X59149817Y-103434017D01*
X59233936Y-103230936D01*
X59276820Y-103015347D01*
X59276820Y-102795533D01*
X59233936Y-102579944D01*
X59149817Y-102376863D01*
X59027696Y-102194095D01*
X58872265Y-102038664D01*
X58689497Y-101916543D01*
X58486416Y-101832424D01*
X58398007Y-101814838D01*
X59941020Y-101814838D01*
X59941020Y-101996042D01*
X59976371Y-102173765D01*
X60045715Y-102341176D01*
X60146387Y-102491842D01*
X60274518Y-102619973D01*
X60425184Y-102720645D01*
X60592595Y-102789989D01*
X60770318Y-102825340D01*
X60951522Y-102825340D01*
X61129245Y-102789989D01*
X61296656Y-102720645D01*
X61425675Y-102634437D01*
X64517218Y-102634437D01*
X64517218Y-102726999D01*
X64535276Y-102817783D01*
X64570698Y-102903299D01*
X64622123Y-102980262D01*
X64687574Y-103045713D01*
X64764537Y-103097138D01*
X64850053Y-103132560D01*
X64940837Y-103150618D01*
X65033399Y-103150618D01*
X65124183Y-103132560D01*
X65209699Y-103097138D01*
X65286662Y-103045713D01*
X65352113Y-102980262D01*
X65403538Y-102903299D01*
X65438960Y-102817783D01*
X65457018Y-102726999D01*
X65457018Y-102696719D01*
X73337666Y-102696719D01*
X73337666Y-102789281D01*
X73355724Y-102880065D01*
X73391146Y-102965581D01*
X73442571Y-103042544D01*
X73508022Y-103107995D01*
X73584985Y-103159420D01*
X73670501Y-103194842D01*
X73761285Y-103212900D01*
X73853847Y-103212900D01*
X73944631Y-103194842D01*
X74030147Y-103159420D01*
X74107110Y-103107995D01*
X74172561Y-103042544D01*
X74223986Y-102965581D01*
X74259408Y-102880065D01*
X74277466Y-102789281D01*
X74277466Y-102696719D01*
X74259408Y-102605935D01*
X74223986Y-102520419D01*
X74172561Y-102443456D01*
X74107110Y-102378005D01*
X74030147Y-102326580D01*
X73944631Y-102291158D01*
X73853847Y-102273100D01*
X73761285Y-102273100D01*
X73670501Y-102291158D01*
X73584985Y-102326580D01*
X73508022Y-102378005D01*
X73442571Y-102443456D01*
X73391146Y-102520419D01*
X73355724Y-102605935D01*
X73337666Y-102696719D01*
X65457018Y-102696719D01*
X65457018Y-102634437D01*
X65438960Y-102543653D01*
X65403538Y-102458137D01*
X65352113Y-102381174D01*
X65286662Y-102315723D01*
X65209699Y-102264298D01*
X65124183Y-102228876D01*
X65033399Y-102210818D01*
X64940837Y-102210818D01*
X64850053Y-102228876D01*
X64764537Y-102264298D01*
X64687574Y-102315723D01*
X64622123Y-102381174D01*
X64570698Y-102458137D01*
X64535276Y-102543653D01*
X64517218Y-102634437D01*
X61425675Y-102634437D01*
X61447322Y-102619973D01*
X61575453Y-102491842D01*
X61676125Y-102341176D01*
X61745469Y-102173765D01*
X61780820Y-101996042D01*
X61780820Y-101814838D01*
X61745469Y-101637115D01*
X61676125Y-101469704D01*
X61575453Y-101319038D01*
X61447322Y-101190907D01*
X61296656Y-101090235D01*
X61129245Y-101020891D01*
X60951522Y-100985540D01*
X60770318Y-100985540D01*
X60592595Y-101020891D01*
X60425184Y-101090235D01*
X60274518Y-101190907D01*
X60146387Y-101319038D01*
X60045715Y-101469704D01*
X59976371Y-101637115D01*
X59941020Y-101814838D01*
X58398007Y-101814838D01*
X58270827Y-101789540D01*
X58051013Y-101789540D01*
X57835424Y-101832424D01*
X57632343Y-101916543D01*
X57449575Y-102038664D01*
X57294144Y-102194095D01*
X57172023Y-102376863D01*
X57087904Y-102579944D01*
X57045020Y-102795533D01*
X56169560Y-102795533D01*
X56169560Y-102570485D01*
X56534573Y-102208738D01*
X56564470Y-102172640D01*
X56570825Y-102160878D01*
X56579165Y-102148895D01*
X56590002Y-102129534D01*
X56601903Y-102110799D01*
X56603876Y-102106829D01*
X56628724Y-102055940D01*
X56638764Y-102028977D01*
X56649184Y-102002148D01*
X56650348Y-101997871D01*
X56664838Y-101943125D01*
X56669449Y-101914729D01*
X56674460Y-101886386D01*
X56674772Y-101881964D01*
X56678004Y-101830959D01*
X56678988Y-101820965D01*
X56678988Y-100470693D01*
X73592625Y-100470693D01*
X73592625Y-100563255D01*
X73610683Y-100654039D01*
X73646105Y-100739555D01*
X73697530Y-100816518D01*
X73762981Y-100881969D01*
X73839944Y-100933394D01*
X73925460Y-100968816D01*
X74016244Y-100986874D01*
X74108806Y-100986874D01*
X74199590Y-100968816D01*
X74285106Y-100933394D01*
X74362069Y-100881969D01*
X74427520Y-100816518D01*
X74478945Y-100739555D01*
X74514367Y-100654039D01*
X74522387Y-100613719D01*
X80810098Y-100613719D01*
X80810098Y-100706281D01*
X80828156Y-100797065D01*
X80863578Y-100882581D01*
X80915003Y-100959544D01*
X80980454Y-101024995D01*
X81057417Y-101076420D01*
X81142933Y-101111842D01*
X81233717Y-101129900D01*
X81326279Y-101129900D01*
X81417063Y-101111842D01*
X81502579Y-101076420D01*
X81579542Y-101024995D01*
X81644993Y-100959544D01*
X81696418Y-100882581D01*
X81716658Y-100833717D01*
X81950100Y-100833717D01*
X81950100Y-100926279D01*
X81968158Y-101017063D01*
X82003580Y-101102579D01*
X82055005Y-101179542D01*
X82120456Y-101244993D01*
X82197419Y-101296418D01*
X82282935Y-101331840D01*
X82373719Y-101349898D01*
X82466281Y-101349898D01*
X82557065Y-101331840D01*
X82642581Y-101296418D01*
X82719544Y-101244993D01*
X82784995Y-101179542D01*
X82836420Y-101102579D01*
X82871842Y-101017063D01*
X82889900Y-100926279D01*
X82889900Y-100833719D01*
X84830100Y-100833719D01*
X84830100Y-100926281D01*
X84848158Y-101017065D01*
X84883580Y-101102581D01*
X84935005Y-101179544D01*
X85000456Y-101244995D01*
X85077419Y-101296420D01*
X85162935Y-101331842D01*
X85253719Y-101349900D01*
X85346281Y-101349900D01*
X85437065Y-101331842D01*
X85522581Y-101296420D01*
X85599544Y-101244995D01*
X85664995Y-101179544D01*
X85716420Y-101102581D01*
X85751842Y-101017065D01*
X85769900Y-100926281D01*
X85769900Y-100833719D01*
X85751842Y-100742935D01*
X85716420Y-100657419D01*
X85664995Y-100580456D01*
X85599544Y-100515005D01*
X85522581Y-100463580D01*
X85437065Y-100428158D01*
X85346281Y-100410100D01*
X85253719Y-100410100D01*
X85162935Y-100428158D01*
X85077419Y-100463580D01*
X85000456Y-100515005D01*
X84935005Y-100580456D01*
X84883580Y-100657419D01*
X84848158Y-100742935D01*
X84830100Y-100833719D01*
X82889900Y-100833719D01*
X82889900Y-100833717D01*
X82871842Y-100742933D01*
X82836420Y-100657417D01*
X82784995Y-100580454D01*
X82719544Y-100515003D01*
X82642581Y-100463578D01*
X82557065Y-100428156D01*
X82466281Y-100410098D01*
X82373719Y-100410098D01*
X82282935Y-100428156D01*
X82197419Y-100463578D01*
X82120456Y-100515003D01*
X82055005Y-100580454D01*
X82003580Y-100657417D01*
X81968158Y-100742933D01*
X81950100Y-100833717D01*
X81716658Y-100833717D01*
X81731840Y-100797065D01*
X81749898Y-100706281D01*
X81749898Y-100613719D01*
X81731840Y-100522935D01*
X81696418Y-100437419D01*
X81644993Y-100360456D01*
X81579542Y-100295005D01*
X81502579Y-100243580D01*
X81417063Y-100208158D01*
X81326279Y-100190100D01*
X81233717Y-100190100D01*
X81142933Y-100208158D01*
X81057417Y-100243580D01*
X80980454Y-100295005D01*
X80915003Y-100360456D01*
X80863578Y-100437419D01*
X80828156Y-100522935D01*
X80810098Y-100613719D01*
X74522387Y-100613719D01*
X74532425Y-100563255D01*
X74532425Y-100470693D01*
X74514367Y-100379909D01*
X74478945Y-100294393D01*
X74427520Y-100217430D01*
X74362069Y-100151979D01*
X74285106Y-100100554D01*
X74199590Y-100065132D01*
X74108806Y-100047074D01*
X74016244Y-100047074D01*
X73925460Y-100065132D01*
X73839944Y-100100554D01*
X73762981Y-100151979D01*
X73697530Y-100217430D01*
X73646105Y-100294393D01*
X73610683Y-100379909D01*
X73592625Y-100470693D01*
X56678988Y-100470693D01*
X56678988Y-99835697D01*
X65366900Y-99835697D01*
X65366900Y-99928259D01*
X65384958Y-100019043D01*
X65420380Y-100104559D01*
X65471805Y-100181522D01*
X65537256Y-100246973D01*
X65614219Y-100298398D01*
X65699735Y-100333820D01*
X65790519Y-100351878D01*
X65883081Y-100351878D01*
X65973865Y-100333820D01*
X66059381Y-100298398D01*
X66136344Y-100246973D01*
X66201795Y-100181522D01*
X66253220Y-100104559D01*
X66288642Y-100019043D01*
X66306700Y-99928259D01*
X66306700Y-99835697D01*
X66298351Y-99793719D01*
X77290100Y-99793719D01*
X77290100Y-99886281D01*
X77308158Y-99977065D01*
X77343580Y-100062581D01*
X77395005Y-100139544D01*
X77460456Y-100204995D01*
X77537419Y-100256420D01*
X77622935Y-100291842D01*
X77713719Y-100309900D01*
X77806281Y-100309900D01*
X77897065Y-100291842D01*
X77982581Y-100256420D01*
X78059544Y-100204995D01*
X78124995Y-100139544D01*
X78176420Y-100062581D01*
X78211842Y-99977065D01*
X78229900Y-99886281D01*
X78229900Y-99793719D01*
X78211842Y-99702935D01*
X78176420Y-99617419D01*
X78154905Y-99585219D01*
X85128100Y-99585219D01*
X85128100Y-99677781D01*
X85146158Y-99768565D01*
X85181580Y-99854081D01*
X85233005Y-99931044D01*
X85298456Y-99996495D01*
X85375419Y-100047920D01*
X85460935Y-100083342D01*
X85551719Y-100101400D01*
X85644281Y-100101400D01*
X85735065Y-100083342D01*
X85820581Y-100047920D01*
X85897544Y-99996495D01*
X85962995Y-99931044D01*
X85981921Y-99902719D01*
X98717080Y-99902719D01*
X98717080Y-99995281D01*
X98735138Y-100086065D01*
X98770560Y-100171581D01*
X98821985Y-100248544D01*
X98887436Y-100313995D01*
X98964399Y-100365420D01*
X99049915Y-100400842D01*
X99140699Y-100418900D01*
X99233261Y-100418900D01*
X99324045Y-100400842D01*
X99409561Y-100365420D01*
X99486524Y-100313995D01*
X99551975Y-100248544D01*
X99603400Y-100171581D01*
X99638822Y-100086065D01*
X99656880Y-99995281D01*
X99656880Y-99902719D01*
X99638822Y-99811935D01*
X99603400Y-99726419D01*
X99551975Y-99649456D01*
X99486524Y-99584005D01*
X99409561Y-99532580D01*
X99324045Y-99497158D01*
X99233261Y-99479100D01*
X99140699Y-99479100D01*
X99049915Y-99497158D01*
X98964399Y-99532580D01*
X98887436Y-99584005D01*
X98821985Y-99649456D01*
X98770560Y-99726419D01*
X98735138Y-99811935D01*
X98717080Y-99902719D01*
X85981921Y-99902719D01*
X86014420Y-99854081D01*
X86049842Y-99768565D01*
X86067900Y-99677781D01*
X86067900Y-99585219D01*
X86049842Y-99494435D01*
X86014420Y-99408919D01*
X85962995Y-99331956D01*
X85897544Y-99266505D01*
X85820581Y-99215080D01*
X85735065Y-99179658D01*
X85644281Y-99161600D01*
X85551719Y-99161600D01*
X85460935Y-99179658D01*
X85375419Y-99215080D01*
X85298456Y-99266505D01*
X85233005Y-99331956D01*
X85181580Y-99408919D01*
X85146158Y-99494435D01*
X85128100Y-99585219D01*
X78154905Y-99585219D01*
X78124995Y-99540456D01*
X78059544Y-99475005D01*
X77982581Y-99423580D01*
X77897065Y-99388158D01*
X77806281Y-99370100D01*
X77713719Y-99370100D01*
X77622935Y-99388158D01*
X77537419Y-99423580D01*
X77460456Y-99475005D01*
X77395005Y-99540456D01*
X77343580Y-99617419D01*
X77308158Y-99702935D01*
X77290100Y-99793719D01*
X66298351Y-99793719D01*
X66288642Y-99744913D01*
X66253220Y-99659397D01*
X66201795Y-99582434D01*
X66136344Y-99516983D01*
X66059381Y-99465558D01*
X65973865Y-99430136D01*
X65883081Y-99412078D01*
X65790519Y-99412078D01*
X65699735Y-99430136D01*
X65614219Y-99465558D01*
X65537256Y-99516983D01*
X65471805Y-99582434D01*
X65420380Y-99659397D01*
X65384958Y-99744913D01*
X65366900Y-99835697D01*
X56678988Y-99835697D01*
X56678988Y-99073718D01*
X59280100Y-99073718D01*
X59280100Y-99166280D01*
X59298158Y-99257064D01*
X59333580Y-99342580D01*
X59385005Y-99419543D01*
X59450456Y-99484994D01*
X59527419Y-99536419D01*
X59612935Y-99571841D01*
X59703719Y-99589899D01*
X59796281Y-99589899D01*
X59887065Y-99571841D01*
X59972581Y-99536419D01*
X60049544Y-99484994D01*
X60114995Y-99419543D01*
X60166420Y-99342580D01*
X60201842Y-99257064D01*
X60219900Y-99166280D01*
X60219900Y-99073718D01*
X60201842Y-98982934D01*
X60166420Y-98897418D01*
X60114995Y-98820455D01*
X60049544Y-98755004D01*
X59996503Y-98719563D01*
X60362993Y-98719563D01*
X60362993Y-98812125D01*
X60381051Y-98902909D01*
X60416473Y-98988425D01*
X60467898Y-99065388D01*
X60533349Y-99130839D01*
X60610312Y-99182264D01*
X60695828Y-99217686D01*
X60786612Y-99235744D01*
X60879174Y-99235744D01*
X60969958Y-99217686D01*
X61055474Y-99182264D01*
X61132437Y-99130839D01*
X61197888Y-99065388D01*
X61249313Y-98988425D01*
X61284735Y-98902909D01*
X61293329Y-98859702D01*
X73454550Y-98859702D01*
X73454550Y-98952264D01*
X73472608Y-99043048D01*
X73508030Y-99128564D01*
X73559455Y-99205527D01*
X73624906Y-99270978D01*
X73701869Y-99322403D01*
X73787385Y-99357825D01*
X73878169Y-99375883D01*
X73970731Y-99375883D01*
X74061515Y-99357825D01*
X74147031Y-99322403D01*
X74223994Y-99270978D01*
X74289445Y-99205527D01*
X74340870Y-99128564D01*
X74341842Y-99126216D01*
X76618174Y-99126216D01*
X76618174Y-99218778D01*
X76636232Y-99309562D01*
X76671654Y-99395078D01*
X76723079Y-99472041D01*
X76788530Y-99537492D01*
X76865493Y-99588917D01*
X76951009Y-99624339D01*
X77041793Y-99642397D01*
X77134355Y-99642397D01*
X77225139Y-99624339D01*
X77310655Y-99588917D01*
X77387618Y-99537492D01*
X77453069Y-99472041D01*
X77504494Y-99395078D01*
X77539916Y-99309562D01*
X77557974Y-99218778D01*
X77557974Y-99126216D01*
X77539916Y-99035432D01*
X77504494Y-98949916D01*
X77453069Y-98872953D01*
X77403335Y-98823219D01*
X98717100Y-98823219D01*
X98717100Y-98915781D01*
X98735158Y-99006565D01*
X98770580Y-99092081D01*
X98822005Y-99169044D01*
X98887456Y-99234495D01*
X98964419Y-99285920D01*
X99049935Y-99321342D01*
X99140719Y-99339400D01*
X99233281Y-99339400D01*
X99324065Y-99321342D01*
X99409581Y-99285920D01*
X99486544Y-99234495D01*
X99551995Y-99169044D01*
X99603420Y-99092081D01*
X99638842Y-99006565D01*
X99656900Y-98915781D01*
X99656900Y-98823219D01*
X99638842Y-98732435D01*
X99603420Y-98646919D01*
X99551995Y-98569956D01*
X99486544Y-98504505D01*
X99409581Y-98453080D01*
X99324065Y-98417658D01*
X99233281Y-98399600D01*
X99140719Y-98399600D01*
X99049935Y-98417658D01*
X98964419Y-98453080D01*
X98887456Y-98504505D01*
X98822005Y-98569956D01*
X98770580Y-98646919D01*
X98735158Y-98732435D01*
X98717100Y-98823219D01*
X77403335Y-98823219D01*
X77387618Y-98807502D01*
X77310655Y-98756077D01*
X77225139Y-98720655D01*
X77134355Y-98702597D01*
X77041793Y-98702597D01*
X76951009Y-98720655D01*
X76865493Y-98756077D01*
X76788530Y-98807502D01*
X76723079Y-98872953D01*
X76671654Y-98949916D01*
X76636232Y-99035432D01*
X76618174Y-99126216D01*
X74341842Y-99126216D01*
X74376292Y-99043048D01*
X74394350Y-98952264D01*
X74394350Y-98859702D01*
X74376292Y-98768918D01*
X74340870Y-98683402D01*
X74289445Y-98606439D01*
X74223994Y-98540988D01*
X74147031Y-98489563D01*
X74061515Y-98454141D01*
X73970731Y-98436083D01*
X73878169Y-98436083D01*
X73787385Y-98454141D01*
X73701869Y-98489563D01*
X73624906Y-98540988D01*
X73559455Y-98606439D01*
X73508030Y-98683402D01*
X73472608Y-98768918D01*
X73454550Y-98859702D01*
X61293329Y-98859702D01*
X61302793Y-98812125D01*
X61302793Y-98719563D01*
X61284735Y-98628779D01*
X61249313Y-98543263D01*
X61197888Y-98466300D01*
X61132437Y-98400849D01*
X61055474Y-98349424D01*
X60969958Y-98314002D01*
X60879174Y-98295944D01*
X60786612Y-98295944D01*
X60695828Y-98314002D01*
X60610312Y-98349424D01*
X60533349Y-98400849D01*
X60467898Y-98466300D01*
X60416473Y-98543263D01*
X60381051Y-98628779D01*
X60362993Y-98719563D01*
X59996503Y-98719563D01*
X59972581Y-98703579D01*
X59887065Y-98668157D01*
X59796281Y-98650099D01*
X59703719Y-98650099D01*
X59612935Y-98668157D01*
X59527419Y-98703579D01*
X59450456Y-98755004D01*
X59385005Y-98820455D01*
X59333580Y-98897418D01*
X59298158Y-98982934D01*
X59280100Y-99073718D01*
X56678988Y-99073718D01*
X56678988Y-98251719D01*
X70777100Y-98251719D01*
X70777100Y-98344281D01*
X70795158Y-98435065D01*
X70830580Y-98520581D01*
X70882005Y-98597544D01*
X70947456Y-98662995D01*
X71024419Y-98714420D01*
X71109935Y-98749842D01*
X71200719Y-98767900D01*
X71293281Y-98767900D01*
X71384065Y-98749842D01*
X71469581Y-98714420D01*
X71546544Y-98662995D01*
X71611995Y-98597544D01*
X71663420Y-98520581D01*
X71698842Y-98435065D01*
X71716900Y-98344281D01*
X71716900Y-98251719D01*
X71698842Y-98160935D01*
X71663420Y-98075419D01*
X71611995Y-97998456D01*
X71602735Y-97989196D01*
X71643444Y-97961995D01*
X71708895Y-97896544D01*
X71760320Y-97819581D01*
X71795742Y-97734065D01*
X71813800Y-97643281D01*
X71813800Y-97550719D01*
X71795742Y-97459935D01*
X71781777Y-97426219D01*
X85128100Y-97426219D01*
X85128100Y-97518781D01*
X85146158Y-97609565D01*
X85181580Y-97695081D01*
X85233005Y-97772044D01*
X85298456Y-97837495D01*
X85375419Y-97888920D01*
X85460935Y-97924342D01*
X85551719Y-97942400D01*
X85644281Y-97942400D01*
X85735065Y-97924342D01*
X85820581Y-97888920D01*
X85897544Y-97837495D01*
X85962995Y-97772044D01*
X85981921Y-97743719D01*
X98780600Y-97743719D01*
X98780600Y-97836281D01*
X98798658Y-97927065D01*
X98834080Y-98012581D01*
X98885505Y-98089544D01*
X98950956Y-98154995D01*
X99027919Y-98206420D01*
X99113435Y-98241842D01*
X99204219Y-98259900D01*
X99296781Y-98259900D01*
X99387565Y-98241842D01*
X99473081Y-98206420D01*
X99550044Y-98154995D01*
X99615495Y-98089544D01*
X99666920Y-98012581D01*
X99702342Y-97927065D01*
X99720400Y-97836281D01*
X99720400Y-97743719D01*
X99702342Y-97652935D01*
X99666920Y-97567419D01*
X99615495Y-97490456D01*
X99550044Y-97425005D01*
X99473081Y-97373580D01*
X99387565Y-97338158D01*
X99296781Y-97320100D01*
X99204219Y-97320100D01*
X99113435Y-97338158D01*
X99027919Y-97373580D01*
X98950956Y-97425005D01*
X98885505Y-97490456D01*
X98834080Y-97567419D01*
X98798658Y-97652935D01*
X98780600Y-97743719D01*
X85981921Y-97743719D01*
X86014420Y-97695081D01*
X86049842Y-97609565D01*
X86067900Y-97518781D01*
X86067900Y-97426219D01*
X86049842Y-97335435D01*
X86014420Y-97249919D01*
X85962995Y-97172956D01*
X85897544Y-97107505D01*
X85820581Y-97056080D01*
X85735065Y-97020658D01*
X85644281Y-97002600D01*
X85551719Y-97002600D01*
X85460935Y-97020658D01*
X85375419Y-97056080D01*
X85298456Y-97107505D01*
X85233005Y-97172956D01*
X85181580Y-97249919D01*
X85146158Y-97335435D01*
X85128100Y-97426219D01*
X71781777Y-97426219D01*
X71760320Y-97374419D01*
X71708895Y-97297456D01*
X71643444Y-97232005D01*
X71566481Y-97180580D01*
X71480965Y-97145158D01*
X71390181Y-97127100D01*
X71297619Y-97127100D01*
X71206835Y-97145158D01*
X71121319Y-97180580D01*
X71044356Y-97232005D01*
X70978905Y-97297456D01*
X70927480Y-97374419D01*
X70892058Y-97459935D01*
X70874000Y-97550719D01*
X70874000Y-97643281D01*
X70892058Y-97734065D01*
X70927480Y-97819581D01*
X70978905Y-97896544D01*
X70988165Y-97905804D01*
X70947456Y-97933005D01*
X70882005Y-97998456D01*
X70830580Y-98075419D01*
X70795158Y-98160935D01*
X70777100Y-98251719D01*
X56678988Y-98251719D01*
X56678988Y-96913238D01*
X56678651Y-96909820D01*
X56678212Y-96889479D01*
X56675572Y-96867462D01*
X56674161Y-96845320D01*
X56673418Y-96840950D01*
X56663539Y-96785187D01*
X56655780Y-96757485D01*
X56648403Y-96729656D01*
X56646825Y-96725513D01*
X56626302Y-96672731D01*
X56613324Y-96647092D01*
X56600671Y-96621204D01*
X56598319Y-96617447D01*
X56573978Y-96579162D01*
X56564470Y-96561563D01*
X56534573Y-96525465D01*
X56169560Y-96163718D01*
X56169560Y-95795533D01*
X57045020Y-95795533D01*
X57045020Y-96015347D01*
X57087904Y-96230936D01*
X57172023Y-96434017D01*
X57294144Y-96616785D01*
X57449575Y-96772216D01*
X57632343Y-96894337D01*
X57835424Y-96978456D01*
X58051013Y-97021340D01*
X58270827Y-97021340D01*
X58486416Y-96978456D01*
X58689497Y-96894337D01*
X58808476Y-96814838D01*
X59941020Y-96814838D01*
X59941020Y-96996042D01*
X59976371Y-97173765D01*
X60045715Y-97341176D01*
X60146387Y-97491842D01*
X60274518Y-97619973D01*
X60425184Y-97720645D01*
X60592595Y-97789989D01*
X60770318Y-97825340D01*
X60951522Y-97825340D01*
X61129245Y-97789989D01*
X61296656Y-97720645D01*
X61396817Y-97653719D01*
X64534096Y-97653719D01*
X64534096Y-97746281D01*
X64552154Y-97837065D01*
X64587576Y-97922581D01*
X64639001Y-97999544D01*
X64704452Y-98064995D01*
X64781415Y-98116420D01*
X64866931Y-98151842D01*
X64957715Y-98169900D01*
X65050277Y-98169900D01*
X65141061Y-98151842D01*
X65226577Y-98116420D01*
X65303540Y-98064995D01*
X65368991Y-97999544D01*
X65420416Y-97922581D01*
X65455838Y-97837065D01*
X65473896Y-97746281D01*
X65473896Y-97653719D01*
X65455838Y-97562935D01*
X65420416Y-97477419D01*
X65368991Y-97400456D01*
X65303540Y-97335005D01*
X65226577Y-97283580D01*
X65141061Y-97248158D01*
X65050277Y-97230100D01*
X64957715Y-97230100D01*
X64866931Y-97248158D01*
X64781415Y-97283580D01*
X64704452Y-97335005D01*
X64639001Y-97400456D01*
X64587576Y-97477419D01*
X64552154Y-97562935D01*
X64534096Y-97653719D01*
X61396817Y-97653719D01*
X61447322Y-97619973D01*
X61575453Y-97491842D01*
X61676125Y-97341176D01*
X61745469Y-97173765D01*
X61780820Y-96996042D01*
X61780820Y-96814838D01*
X61745469Y-96637115D01*
X61719210Y-96573719D01*
X66220098Y-96573719D01*
X66220098Y-96666281D01*
X66238156Y-96757065D01*
X66273578Y-96842581D01*
X66325003Y-96919544D01*
X66390454Y-96984995D01*
X66467417Y-97036420D01*
X66552933Y-97071842D01*
X66643717Y-97089900D01*
X66736279Y-97089900D01*
X66827063Y-97071842D01*
X66912579Y-97036420D01*
X66989542Y-96984995D01*
X67054993Y-96919544D01*
X67106418Y-96842581D01*
X67141840Y-96757065D01*
X67146483Y-96733719D01*
X68630100Y-96733719D01*
X68630100Y-96826281D01*
X68648158Y-96917065D01*
X68683580Y-97002581D01*
X68735005Y-97079544D01*
X68800456Y-97144995D01*
X68877419Y-97196420D01*
X68962935Y-97231842D01*
X69053719Y-97249900D01*
X69146281Y-97249900D01*
X69237065Y-97231842D01*
X69322581Y-97196420D01*
X69399544Y-97144995D01*
X69464995Y-97079544D01*
X69516420Y-97002581D01*
X69551842Y-96917065D01*
X69569900Y-96826281D01*
X69569900Y-96733719D01*
X69551842Y-96642935D01*
X69516420Y-96557419D01*
X69464995Y-96480456D01*
X69399544Y-96415005D01*
X69322581Y-96363580D01*
X69237065Y-96328158D01*
X69146281Y-96310100D01*
X69053719Y-96310100D01*
X68962935Y-96328158D01*
X68877419Y-96363580D01*
X68800456Y-96415005D01*
X68735005Y-96480456D01*
X68683580Y-96557419D01*
X68648158Y-96642935D01*
X68630100Y-96733719D01*
X67146483Y-96733719D01*
X67159898Y-96666281D01*
X67159898Y-96573719D01*
X67141840Y-96482935D01*
X67106418Y-96397419D01*
X67054993Y-96320456D01*
X66989542Y-96255005D01*
X66912579Y-96203580D01*
X66827063Y-96168158D01*
X66736279Y-96150100D01*
X66643717Y-96150100D01*
X66552933Y-96168158D01*
X66467417Y-96203580D01*
X66390454Y-96255005D01*
X66325003Y-96320456D01*
X66273578Y-96397419D01*
X66238156Y-96482935D01*
X66220098Y-96573719D01*
X61719210Y-96573719D01*
X61676125Y-96469704D01*
X61575453Y-96319038D01*
X61447322Y-96190907D01*
X61296656Y-96090235D01*
X61129245Y-96020891D01*
X60951522Y-95985540D01*
X60770318Y-95985540D01*
X60592595Y-96020891D01*
X60425184Y-96090235D01*
X60274518Y-96190907D01*
X60146387Y-96319038D01*
X60045715Y-96469704D01*
X59976371Y-96637115D01*
X59941020Y-96814838D01*
X58808476Y-96814838D01*
X58872265Y-96772216D01*
X59027696Y-96616785D01*
X59149817Y-96434017D01*
X59233936Y-96230936D01*
X59276820Y-96015347D01*
X59276820Y-95795533D01*
X59233936Y-95579944D01*
X59201566Y-95501794D01*
X62025389Y-95501794D01*
X62025389Y-95594356D01*
X62043447Y-95685140D01*
X62078869Y-95770656D01*
X62130294Y-95847619D01*
X62195745Y-95913070D01*
X62272708Y-95964495D01*
X62358224Y-95999917D01*
X62449008Y-96017975D01*
X62541570Y-96017975D01*
X62632354Y-95999917D01*
X62714915Y-95965719D01*
X81254600Y-95965719D01*
X81254600Y-96058281D01*
X81272658Y-96149065D01*
X81308080Y-96234581D01*
X81359505Y-96311544D01*
X81424956Y-96376995D01*
X81501919Y-96428420D01*
X81587435Y-96463842D01*
X81678219Y-96481900D01*
X81770781Y-96481900D01*
X81861565Y-96463842D01*
X81947081Y-96428420D01*
X82024044Y-96376995D01*
X82089495Y-96311544D01*
X82140920Y-96234581D01*
X82176342Y-96149065D01*
X82194400Y-96058281D01*
X82194400Y-95965719D01*
X82176342Y-95874935D01*
X82140920Y-95789419D01*
X82089495Y-95712456D01*
X82025258Y-95648219D01*
X85191600Y-95648219D01*
X85191600Y-95740781D01*
X85209658Y-95831565D01*
X85245080Y-95917081D01*
X85296505Y-95994044D01*
X85361956Y-96059495D01*
X85438919Y-96110920D01*
X85524435Y-96146342D01*
X85615219Y-96164400D01*
X85707781Y-96164400D01*
X85798565Y-96146342D01*
X85884081Y-96110920D01*
X85961044Y-96059495D01*
X86026495Y-95994044D01*
X86077920Y-95917081D01*
X86113342Y-95831565D01*
X86131400Y-95740781D01*
X86131400Y-95648219D01*
X86113342Y-95557435D01*
X86091091Y-95503715D01*
X98750100Y-95503715D01*
X98750100Y-95596277D01*
X98768158Y-95687061D01*
X98803580Y-95772577D01*
X98855005Y-95849540D01*
X98920456Y-95914991D01*
X98997419Y-95966416D01*
X99082935Y-96001838D01*
X99173719Y-96019896D01*
X99266281Y-96019896D01*
X99357065Y-96001838D01*
X99442581Y-95966416D01*
X99519544Y-95914991D01*
X99584995Y-95849540D01*
X99636420Y-95772577D01*
X99671842Y-95687061D01*
X99689900Y-95596277D01*
X99689900Y-95503715D01*
X99671842Y-95412931D01*
X99636420Y-95327415D01*
X99584995Y-95250452D01*
X99519544Y-95185001D01*
X99442581Y-95133576D01*
X99357065Y-95098154D01*
X99266281Y-95080096D01*
X99173719Y-95080096D01*
X99082935Y-95098154D01*
X98997419Y-95133576D01*
X98920456Y-95185001D01*
X98855005Y-95250452D01*
X98803580Y-95327415D01*
X98768158Y-95412931D01*
X98750100Y-95503715D01*
X86091091Y-95503715D01*
X86077920Y-95471919D01*
X86026495Y-95394956D01*
X85961044Y-95329505D01*
X85884081Y-95278080D01*
X85798565Y-95242658D01*
X85707781Y-95224600D01*
X85615219Y-95224600D01*
X85524435Y-95242658D01*
X85438919Y-95278080D01*
X85361956Y-95329505D01*
X85296505Y-95394956D01*
X85245080Y-95471919D01*
X85209658Y-95557435D01*
X85191600Y-95648219D01*
X82025258Y-95648219D01*
X82024044Y-95647005D01*
X81947081Y-95595580D01*
X81861565Y-95560158D01*
X81770781Y-95542100D01*
X81678219Y-95542100D01*
X81587435Y-95560158D01*
X81501919Y-95595580D01*
X81424956Y-95647005D01*
X81359505Y-95712456D01*
X81308080Y-95789419D01*
X81272658Y-95874935D01*
X81254600Y-95965719D01*
X62714915Y-95965719D01*
X62717870Y-95964495D01*
X62794833Y-95913070D01*
X62860284Y-95847619D01*
X62911709Y-95770656D01*
X62947131Y-95685140D01*
X62965189Y-95594356D01*
X62965189Y-95501794D01*
X62947131Y-95411010D01*
X62911709Y-95325494D01*
X62860284Y-95248531D01*
X62794833Y-95183080D01*
X62717870Y-95131655D01*
X62701884Y-95125033D01*
X66143012Y-95125033D01*
X66143012Y-95217595D01*
X66161070Y-95308379D01*
X66196492Y-95393895D01*
X66247917Y-95470858D01*
X66313368Y-95536309D01*
X66390331Y-95587734D01*
X66475847Y-95623156D01*
X66566631Y-95641214D01*
X66659193Y-95641214D01*
X66749977Y-95623156D01*
X66835493Y-95587734D01*
X66912456Y-95536309D01*
X66977907Y-95470858D01*
X67029332Y-95393895D01*
X67064754Y-95308379D01*
X67082812Y-95217595D01*
X67082812Y-95125033D01*
X67064754Y-95034249D01*
X67061305Y-95025921D01*
X67189725Y-95025921D01*
X67189725Y-95118483D01*
X67207783Y-95209267D01*
X67243205Y-95294783D01*
X67294630Y-95371746D01*
X67360081Y-95437197D01*
X67437044Y-95488622D01*
X67522560Y-95524044D01*
X67613344Y-95542102D01*
X67705906Y-95542102D01*
X67796690Y-95524044D01*
X67882206Y-95488622D01*
X67959169Y-95437197D01*
X68024620Y-95371746D01*
X68076045Y-95294783D01*
X68111467Y-95209267D01*
X68129525Y-95118483D01*
X68129525Y-95025921D01*
X68111467Y-94935137D01*
X68076045Y-94849621D01*
X68024620Y-94772658D01*
X68016493Y-94764531D01*
X70374594Y-94764531D01*
X70374594Y-94857093D01*
X70392652Y-94947877D01*
X70428074Y-95033393D01*
X70479499Y-95110356D01*
X70544950Y-95175807D01*
X70621913Y-95227232D01*
X70707429Y-95262654D01*
X70798213Y-95280712D01*
X70890775Y-95280712D01*
X70981559Y-95262654D01*
X71067075Y-95227232D01*
X71144038Y-95175807D01*
X71209489Y-95110356D01*
X71260914Y-95033393D01*
X71296336Y-94947877D01*
X71300059Y-94929159D01*
X83376160Y-94929159D01*
X83376160Y-95021721D01*
X83394218Y-95112505D01*
X83429640Y-95198021D01*
X83481065Y-95274984D01*
X83546516Y-95340435D01*
X83623479Y-95391860D01*
X83708995Y-95427282D01*
X83799779Y-95445340D01*
X83892341Y-95445340D01*
X83983125Y-95427282D01*
X84068641Y-95391860D01*
X84145604Y-95340435D01*
X84211055Y-95274984D01*
X84262480Y-95198021D01*
X84297902Y-95112505D01*
X84315960Y-95021721D01*
X84315960Y-94929159D01*
X84297902Y-94838375D01*
X84262480Y-94752859D01*
X84211055Y-94675896D01*
X84158878Y-94623719D01*
X85140100Y-94623719D01*
X85140100Y-94716281D01*
X85158158Y-94807065D01*
X85193580Y-94892581D01*
X85245005Y-94969544D01*
X85310456Y-95034995D01*
X85387419Y-95086420D01*
X85472935Y-95121842D01*
X85563719Y-95139900D01*
X85656281Y-95139900D01*
X85747065Y-95121842D01*
X85832581Y-95086420D01*
X85909544Y-95034995D01*
X85974995Y-94969544D01*
X86026420Y-94892581D01*
X86061842Y-94807065D01*
X86079900Y-94716281D01*
X86079900Y-94623719D01*
X86061842Y-94532935D01*
X86026420Y-94447419D01*
X85974995Y-94370456D01*
X85909544Y-94305005D01*
X85832581Y-94253580D01*
X85747065Y-94218158D01*
X85656281Y-94200100D01*
X85563719Y-94200100D01*
X85472935Y-94218158D01*
X85387419Y-94253580D01*
X85310456Y-94305005D01*
X85245005Y-94370456D01*
X85193580Y-94447419D01*
X85158158Y-94532935D01*
X85140100Y-94623719D01*
X84158878Y-94623719D01*
X84145604Y-94610445D01*
X84068641Y-94559020D01*
X83983125Y-94523598D01*
X83892341Y-94505540D01*
X83799779Y-94505540D01*
X83708995Y-94523598D01*
X83623479Y-94559020D01*
X83546516Y-94610445D01*
X83481065Y-94675896D01*
X83429640Y-94752859D01*
X83394218Y-94838375D01*
X83376160Y-94929159D01*
X71300059Y-94929159D01*
X71314394Y-94857093D01*
X71314394Y-94764531D01*
X71296336Y-94673747D01*
X71260914Y-94588231D01*
X71209489Y-94511268D01*
X71144038Y-94445817D01*
X71067075Y-94394392D01*
X71028031Y-94378219D01*
X75412600Y-94378219D01*
X75412600Y-94470781D01*
X75430658Y-94561565D01*
X75466080Y-94647081D01*
X75517505Y-94724044D01*
X75582956Y-94789495D01*
X75659919Y-94840920D01*
X75745435Y-94876342D01*
X75836219Y-94894400D01*
X75928781Y-94894400D01*
X76019565Y-94876342D01*
X76105081Y-94840920D01*
X76182044Y-94789495D01*
X76247495Y-94724044D01*
X76298920Y-94647081D01*
X76334342Y-94561565D01*
X76352400Y-94470781D01*
X76352400Y-94378219D01*
X81222600Y-94378219D01*
X81222600Y-94470781D01*
X81240658Y-94561565D01*
X81276080Y-94647081D01*
X81327505Y-94724044D01*
X81392956Y-94789495D01*
X81469919Y-94840920D01*
X81555435Y-94876342D01*
X81646219Y-94894400D01*
X81738781Y-94894400D01*
X81829565Y-94876342D01*
X81915081Y-94840920D01*
X81992044Y-94789495D01*
X82057495Y-94724044D01*
X82108920Y-94647081D01*
X82144342Y-94561565D01*
X82162400Y-94470781D01*
X82162400Y-94378219D01*
X82144342Y-94287435D01*
X82108920Y-94201919D01*
X82057495Y-94124956D01*
X81992044Y-94059505D01*
X81915081Y-94008080D01*
X81829565Y-93972658D01*
X81738781Y-93954600D01*
X81646219Y-93954600D01*
X81555435Y-93972658D01*
X81469919Y-94008080D01*
X81392956Y-94059505D01*
X81327505Y-94124956D01*
X81276080Y-94201919D01*
X81240658Y-94287435D01*
X81222600Y-94378219D01*
X76352400Y-94378219D01*
X76334342Y-94287435D01*
X76298920Y-94201919D01*
X76247495Y-94124956D01*
X76182044Y-94059505D01*
X76105081Y-94008080D01*
X76019565Y-93972658D01*
X75928781Y-93954600D01*
X75836219Y-93954600D01*
X75745435Y-93972658D01*
X75659919Y-94008080D01*
X75582956Y-94059505D01*
X75517505Y-94124956D01*
X75466080Y-94201919D01*
X75430658Y-94287435D01*
X75412600Y-94378219D01*
X71028031Y-94378219D01*
X70981559Y-94358970D01*
X70890775Y-94340912D01*
X70798213Y-94340912D01*
X70707429Y-94358970D01*
X70621913Y-94394392D01*
X70544950Y-94445817D01*
X70479499Y-94511268D01*
X70428074Y-94588231D01*
X70392652Y-94673747D01*
X70374594Y-94764531D01*
X68016493Y-94764531D01*
X67959169Y-94707207D01*
X67882206Y-94655782D01*
X67796690Y-94620360D01*
X67705906Y-94602302D01*
X67613344Y-94602302D01*
X67522560Y-94620360D01*
X67437044Y-94655782D01*
X67360081Y-94707207D01*
X67294630Y-94772658D01*
X67243205Y-94849621D01*
X67207783Y-94935137D01*
X67189725Y-95025921D01*
X67061305Y-95025921D01*
X67029332Y-94948733D01*
X66977907Y-94871770D01*
X66912456Y-94806319D01*
X66835493Y-94754894D01*
X66749977Y-94719472D01*
X66659193Y-94701414D01*
X66566631Y-94701414D01*
X66475847Y-94719472D01*
X66390331Y-94754894D01*
X66313368Y-94806319D01*
X66247917Y-94871770D01*
X66196492Y-94948733D01*
X66161070Y-95034249D01*
X66143012Y-95125033D01*
X62701884Y-95125033D01*
X62632354Y-95096233D01*
X62541570Y-95078175D01*
X62449008Y-95078175D01*
X62358224Y-95096233D01*
X62272708Y-95131655D01*
X62195745Y-95183080D01*
X62130294Y-95248531D01*
X62078869Y-95325494D01*
X62043447Y-95411010D01*
X62025389Y-95501794D01*
X59201566Y-95501794D01*
X59149817Y-95376863D01*
X59027696Y-95194095D01*
X58872265Y-95038664D01*
X58739149Y-94949719D01*
X60794900Y-94949719D01*
X60794900Y-95042281D01*
X60812958Y-95133065D01*
X60848380Y-95218581D01*
X60899805Y-95295544D01*
X60965256Y-95360995D01*
X61042219Y-95412420D01*
X61127735Y-95447842D01*
X61218519Y-95465900D01*
X61311081Y-95465900D01*
X61401865Y-95447842D01*
X61487381Y-95412420D01*
X61564344Y-95360995D01*
X61629795Y-95295544D01*
X61681220Y-95218581D01*
X61716642Y-95133065D01*
X61734700Y-95042281D01*
X61734700Y-94949719D01*
X61716642Y-94858935D01*
X61681220Y-94773419D01*
X61629795Y-94696456D01*
X61564344Y-94631005D01*
X61487381Y-94579580D01*
X61401865Y-94544158D01*
X61311081Y-94526100D01*
X61218519Y-94526100D01*
X61127735Y-94544158D01*
X61042219Y-94579580D01*
X60965256Y-94631005D01*
X60899805Y-94696456D01*
X60848380Y-94773419D01*
X60812958Y-94858935D01*
X60794900Y-94949719D01*
X58739149Y-94949719D01*
X58689497Y-94916543D01*
X58486416Y-94832424D01*
X58270827Y-94789540D01*
X58051013Y-94789540D01*
X57835424Y-94832424D01*
X57632343Y-94916543D01*
X57449575Y-95038664D01*
X57294144Y-95194095D01*
X57172023Y-95376863D01*
X57087904Y-95579944D01*
X57045020Y-95795533D01*
X56169560Y-95795533D01*
X56169560Y-93709437D01*
X59347200Y-93709437D01*
X59347200Y-93801999D01*
X59365258Y-93892783D01*
X59400680Y-93978299D01*
X59452105Y-94055262D01*
X59517556Y-94120713D01*
X59594519Y-94172138D01*
X59680035Y-94207560D01*
X59770819Y-94225618D01*
X59863381Y-94225618D01*
X59954165Y-94207560D01*
X60039681Y-94172138D01*
X60116644Y-94120713D01*
X60182095Y-94055262D01*
X60233520Y-93978299D01*
X60268942Y-93892783D01*
X60287000Y-93801999D01*
X60287000Y-93709437D01*
X60268942Y-93618653D01*
X60233520Y-93533137D01*
X60182095Y-93456174D01*
X60116644Y-93390723D01*
X60039681Y-93339298D01*
X59954165Y-93303876D01*
X59863381Y-93285818D01*
X59770819Y-93285818D01*
X59680035Y-93303876D01*
X59594519Y-93339298D01*
X59517556Y-93390723D01*
X59452105Y-93456174D01*
X59400680Y-93533137D01*
X59365258Y-93618653D01*
X59347200Y-93709437D01*
X56169560Y-93709437D01*
X56169560Y-93163719D01*
X62550100Y-93163719D01*
X62550100Y-93256281D01*
X62568158Y-93347065D01*
X62603580Y-93432581D01*
X62655005Y-93509544D01*
X62720456Y-93574995D01*
X62797419Y-93626420D01*
X62882935Y-93661842D01*
X62973719Y-93679900D01*
X63066281Y-93679900D01*
X63157065Y-93661842D01*
X63242581Y-93626420D01*
X63319544Y-93574995D01*
X63384995Y-93509544D01*
X63436420Y-93432581D01*
X63471842Y-93347065D01*
X63489890Y-93256329D01*
X75450100Y-93256329D01*
X75450100Y-93348891D01*
X75468158Y-93439675D01*
X75503580Y-93525191D01*
X75555005Y-93602154D01*
X75620456Y-93667605D01*
X75697419Y-93719030D01*
X75782935Y-93754452D01*
X75873719Y-93772510D01*
X75966281Y-93772510D01*
X76057065Y-93754452D01*
X76142581Y-93719030D01*
X76219544Y-93667605D01*
X76284995Y-93602154D01*
X76336420Y-93525191D01*
X76371842Y-93439675D01*
X76389900Y-93348891D01*
X76389900Y-93256329D01*
X76385403Y-93233719D01*
X79920100Y-93233719D01*
X79920100Y-93326281D01*
X79938158Y-93417065D01*
X79973580Y-93502581D01*
X80025005Y-93579544D01*
X80090456Y-93644995D01*
X80167419Y-93696420D01*
X80252935Y-93731842D01*
X80343719Y-93749900D01*
X80436281Y-93749900D01*
X80527065Y-93731842D01*
X80612581Y-93696420D01*
X80689544Y-93644995D01*
X80754995Y-93579544D01*
X80806420Y-93502581D01*
X80841842Y-93417065D01*
X80859900Y-93326281D01*
X80859900Y-93283721D01*
X100850100Y-93283721D01*
X100850100Y-93376283D01*
X100868158Y-93467067D01*
X100903580Y-93552583D01*
X100955005Y-93629546D01*
X101020456Y-93694997D01*
X101097419Y-93746422D01*
X101182935Y-93781844D01*
X101273719Y-93799902D01*
X101366281Y-93799902D01*
X101457065Y-93781844D01*
X101542581Y-93746422D01*
X101619544Y-93694997D01*
X101684995Y-93629546D01*
X101736420Y-93552583D01*
X101771842Y-93467067D01*
X101789900Y-93376283D01*
X101789900Y-93283721D01*
X101771842Y-93192937D01*
X101736420Y-93107421D01*
X101684995Y-93030458D01*
X101619544Y-92965007D01*
X101542581Y-92913582D01*
X101457065Y-92878160D01*
X101366281Y-92860102D01*
X101273719Y-92860102D01*
X101182935Y-92878160D01*
X101097419Y-92913582D01*
X101020456Y-92965007D01*
X100955005Y-93030458D01*
X100903580Y-93107421D01*
X100868158Y-93192937D01*
X100850100Y-93283721D01*
X80859900Y-93283721D01*
X80859900Y-93233719D01*
X80841842Y-93142935D01*
X80806420Y-93057419D01*
X80754995Y-92980456D01*
X80689544Y-92915005D01*
X80612581Y-92863580D01*
X80527065Y-92828158D01*
X80436281Y-92810100D01*
X80343719Y-92810100D01*
X80252935Y-92828158D01*
X80167419Y-92863580D01*
X80090456Y-92915005D01*
X80025005Y-92980456D01*
X79973580Y-93057419D01*
X79938158Y-93142935D01*
X79920100Y-93233719D01*
X76385403Y-93233719D01*
X76371842Y-93165545D01*
X76336420Y-93080029D01*
X76284995Y-93003066D01*
X76219544Y-92937615D01*
X76142581Y-92886190D01*
X76057065Y-92850768D01*
X75966281Y-92832710D01*
X75873719Y-92832710D01*
X75782935Y-92850768D01*
X75697419Y-92886190D01*
X75620456Y-92937615D01*
X75555005Y-93003066D01*
X75503580Y-93080029D01*
X75468158Y-93165545D01*
X75450100Y-93256329D01*
X63489890Y-93256329D01*
X63489900Y-93256281D01*
X63489900Y-93163719D01*
X63471842Y-93072935D01*
X63436420Y-92987419D01*
X63384995Y-92910456D01*
X63319544Y-92845005D01*
X63242581Y-92793580D01*
X63157065Y-92758158D01*
X63066281Y-92740100D01*
X62973719Y-92740100D01*
X62882935Y-92758158D01*
X62797419Y-92793580D01*
X62720456Y-92845005D01*
X62655005Y-92910456D01*
X62603580Y-92987419D01*
X62568158Y-93072935D01*
X62550100Y-93163719D01*
X56169560Y-93163719D01*
X56169560Y-92543719D01*
X68800100Y-92543719D01*
X68800100Y-92636281D01*
X68818158Y-92727065D01*
X68853580Y-92812581D01*
X68905005Y-92889544D01*
X68970456Y-92954995D01*
X69047419Y-93006420D01*
X69132935Y-93041842D01*
X69223719Y-93059900D01*
X69316281Y-93059900D01*
X69407065Y-93041842D01*
X69492581Y-93006420D01*
X69569544Y-92954995D01*
X69634995Y-92889544D01*
X69686420Y-92812581D01*
X69721842Y-92727065D01*
X69739900Y-92636281D01*
X69739900Y-92543719D01*
X69721842Y-92452935D01*
X69686420Y-92367419D01*
X69634995Y-92290456D01*
X69569544Y-92225005D01*
X69492581Y-92173580D01*
X69407065Y-92138158D01*
X69316281Y-92120100D01*
X69223719Y-92120100D01*
X69132935Y-92138158D01*
X69047419Y-92173580D01*
X68970456Y-92225005D01*
X68905005Y-92290456D01*
X68853580Y-92367419D01*
X68818158Y-92452935D01*
X68800100Y-92543719D01*
X56169560Y-92543719D01*
X56169560Y-90308649D01*
X56604100Y-90308649D01*
X56604100Y-90666351D01*
X56673884Y-91017178D01*
X56810771Y-91347651D01*
X57009499Y-91645069D01*
X57262431Y-91898001D01*
X57559849Y-92096729D01*
X57890322Y-92233616D01*
X58241149Y-92303400D01*
X58598851Y-92303400D01*
X58949678Y-92233616D01*
X59280151Y-92096729D01*
X59577569Y-91898001D01*
X59830501Y-91645069D01*
X60018492Y-91363719D01*
X70620098Y-91363719D01*
X70620098Y-91456281D01*
X70638156Y-91547065D01*
X70673578Y-91632581D01*
X70725003Y-91709544D01*
X70790454Y-91774995D01*
X70867417Y-91826420D01*
X70952933Y-91861842D01*
X71043717Y-91879900D01*
X71136279Y-91879900D01*
X71227063Y-91861842D01*
X71284093Y-91838219D01*
X75412600Y-91838219D01*
X75412600Y-91930781D01*
X75430658Y-92021565D01*
X75466080Y-92107081D01*
X75517505Y-92184044D01*
X75582956Y-92249495D01*
X75659919Y-92300920D01*
X75745435Y-92336342D01*
X75836219Y-92354400D01*
X75928781Y-92354400D01*
X76019565Y-92336342D01*
X76105081Y-92300920D01*
X76182044Y-92249495D01*
X76247495Y-92184044D01*
X76298920Y-92107081D01*
X76329307Y-92033719D01*
X79920100Y-92033719D01*
X79920100Y-92126281D01*
X79938158Y-92217065D01*
X79973580Y-92302581D01*
X80025005Y-92379544D01*
X80090456Y-92444995D01*
X80167419Y-92496420D01*
X80252935Y-92531842D01*
X80343719Y-92549900D01*
X80436281Y-92549900D01*
X80527065Y-92531842D01*
X80612581Y-92496420D01*
X80689544Y-92444995D01*
X80754995Y-92379544D01*
X80806420Y-92302581D01*
X80841842Y-92217065D01*
X80859900Y-92126281D01*
X80859900Y-92033719D01*
X80841842Y-91942935D01*
X80809030Y-91863719D01*
X81010100Y-91863719D01*
X81010100Y-91956281D01*
X81028158Y-92047065D01*
X81063580Y-92132581D01*
X81115005Y-92209544D01*
X81180456Y-92274995D01*
X81257419Y-92326420D01*
X81342935Y-92361842D01*
X81433719Y-92379900D01*
X81526281Y-92379900D01*
X81617065Y-92361842D01*
X81702581Y-92326420D01*
X81779544Y-92274995D01*
X81844995Y-92209544D01*
X81896420Y-92132581D01*
X81931842Y-92047065D01*
X81949900Y-91956281D01*
X81949900Y-91863719D01*
X81931842Y-91772935D01*
X81896420Y-91687419D01*
X81844995Y-91610456D01*
X81779544Y-91545005D01*
X81702581Y-91493580D01*
X81617065Y-91458158D01*
X81526281Y-91440100D01*
X81433719Y-91440100D01*
X81342935Y-91458158D01*
X81257419Y-91493580D01*
X81180456Y-91545005D01*
X81115005Y-91610456D01*
X81063580Y-91687419D01*
X81028158Y-91772935D01*
X81010100Y-91863719D01*
X80809030Y-91863719D01*
X80806420Y-91857419D01*
X80754995Y-91780456D01*
X80689544Y-91715005D01*
X80612581Y-91663580D01*
X80527065Y-91628158D01*
X80436281Y-91610100D01*
X80343719Y-91610100D01*
X80252935Y-91628158D01*
X80167419Y-91663580D01*
X80090456Y-91715005D01*
X80025005Y-91780456D01*
X79973580Y-91857419D01*
X79938158Y-91942935D01*
X79920100Y-92033719D01*
X76329307Y-92033719D01*
X76334342Y-92021565D01*
X76352400Y-91930781D01*
X76352400Y-91838219D01*
X76334342Y-91747435D01*
X76298920Y-91661919D01*
X76247495Y-91584956D01*
X76182044Y-91519505D01*
X76105081Y-91468080D01*
X76019565Y-91432658D01*
X75928781Y-91414600D01*
X75836219Y-91414600D01*
X75745435Y-91432658D01*
X75659919Y-91468080D01*
X75582956Y-91519505D01*
X75517505Y-91584956D01*
X75466080Y-91661919D01*
X75430658Y-91747435D01*
X75412600Y-91838219D01*
X71284093Y-91838219D01*
X71312579Y-91826420D01*
X71389542Y-91774995D01*
X71454993Y-91709544D01*
X71506418Y-91632581D01*
X71541840Y-91547065D01*
X71559898Y-91456281D01*
X71559898Y-91363719D01*
X71541840Y-91272935D01*
X71506418Y-91187419D01*
X71454993Y-91110456D01*
X71389542Y-91045005D01*
X71312579Y-90993580D01*
X71227063Y-90958158D01*
X71136279Y-90940100D01*
X71043717Y-90940100D01*
X70952933Y-90958158D01*
X70867417Y-90993580D01*
X70790454Y-91045005D01*
X70725003Y-91110456D01*
X70673578Y-91187419D01*
X70638156Y-91272935D01*
X70620098Y-91363719D01*
X60018492Y-91363719D01*
X60029229Y-91347651D01*
X60166116Y-91017178D01*
X60218008Y-90756298D01*
X72070379Y-90756298D01*
X72070379Y-90848860D01*
X72088437Y-90939644D01*
X72123859Y-91025160D01*
X72175284Y-91102123D01*
X72240735Y-91167574D01*
X72317698Y-91218999D01*
X72403214Y-91254421D01*
X72493998Y-91272479D01*
X72586560Y-91272479D01*
X72677344Y-91254421D01*
X72762860Y-91218999D01*
X72839823Y-91167574D01*
X72905274Y-91102123D01*
X72921544Y-91077773D01*
X100000100Y-91077773D01*
X100000100Y-91170335D01*
X100018158Y-91261119D01*
X100053580Y-91346635D01*
X100105005Y-91423598D01*
X100170456Y-91489049D01*
X100247419Y-91540474D01*
X100332935Y-91575896D01*
X100423719Y-91593954D01*
X100516281Y-91593954D01*
X100607065Y-91575896D01*
X100692581Y-91540474D01*
X100769544Y-91489049D01*
X100834995Y-91423598D01*
X100886420Y-91346635D01*
X100921842Y-91261119D01*
X100939900Y-91170335D01*
X100939900Y-91077773D01*
X100921842Y-90986989D01*
X100886420Y-90901473D01*
X100834995Y-90824510D01*
X100769544Y-90759059D01*
X100692581Y-90707634D01*
X100607065Y-90672212D01*
X100516281Y-90654154D01*
X100423719Y-90654154D01*
X100332935Y-90672212D01*
X100247419Y-90707634D01*
X100170456Y-90759059D01*
X100105005Y-90824510D01*
X100053580Y-90901473D01*
X100018158Y-90986989D01*
X100000100Y-91077773D01*
X72921544Y-91077773D01*
X72956699Y-91025160D01*
X72992121Y-90939644D01*
X73010179Y-90848860D01*
X73010179Y-90756298D01*
X72992121Y-90665514D01*
X72956699Y-90579998D01*
X72905274Y-90503035D01*
X72839823Y-90437584D01*
X72762860Y-90386159D01*
X72677344Y-90350737D01*
X72586560Y-90332679D01*
X72493998Y-90332679D01*
X72403214Y-90350737D01*
X72317698Y-90386159D01*
X72240735Y-90437584D01*
X72175284Y-90503035D01*
X72123859Y-90579998D01*
X72088437Y-90665514D01*
X72070379Y-90756298D01*
X60218008Y-90756298D01*
X60235900Y-90666351D01*
X60235900Y-90308649D01*
X60166116Y-89957822D01*
X60029229Y-89627349D01*
X59830501Y-89329931D01*
X59746010Y-89245440D01*
X68905943Y-89245440D01*
X68926523Y-89454393D01*
X68987472Y-89655316D01*
X69086449Y-89840487D01*
X69219648Y-90002792D01*
X69381953Y-90135991D01*
X69567124Y-90234968D01*
X69768047Y-90295917D01*
X69924640Y-90311340D01*
X70029360Y-90311340D01*
X70185953Y-90295917D01*
X70386876Y-90234968D01*
X70572047Y-90135991D01*
X70734352Y-90002792D01*
X70867551Y-89840487D01*
X70966528Y-89655316D01*
X71027477Y-89454393D01*
X71048057Y-89245440D01*
X71445943Y-89245440D01*
X71466523Y-89454393D01*
X71527472Y-89655316D01*
X71626449Y-89840487D01*
X71759648Y-90002792D01*
X71921953Y-90135991D01*
X72107124Y-90234968D01*
X72308047Y-90295917D01*
X72464640Y-90311340D01*
X72569360Y-90311340D01*
X72725953Y-90295917D01*
X72926876Y-90234968D01*
X73112047Y-90135991D01*
X73274352Y-90002792D01*
X73407551Y-89840487D01*
X73506528Y-89655316D01*
X73567477Y-89454393D01*
X73588057Y-89245440D01*
X73985943Y-89245440D01*
X74006523Y-89454393D01*
X74067472Y-89655316D01*
X74166449Y-89840487D01*
X74299648Y-90002792D01*
X74461953Y-90135991D01*
X74647124Y-90234968D01*
X74848047Y-90295917D01*
X75004640Y-90311340D01*
X75109360Y-90311340D01*
X75265953Y-90295917D01*
X75466876Y-90234968D01*
X75652047Y-90135991D01*
X75814352Y-90002792D01*
X75947551Y-89840487D01*
X76046528Y-89655316D01*
X76107477Y-89454393D01*
X76128057Y-89245440D01*
X76525943Y-89245440D01*
X76546523Y-89454393D01*
X76607472Y-89655316D01*
X76706449Y-89840487D01*
X76839648Y-90002792D01*
X77001953Y-90135991D01*
X77187124Y-90234968D01*
X77388047Y-90295917D01*
X77544640Y-90311340D01*
X77649360Y-90311340D01*
X77805953Y-90295917D01*
X78006876Y-90234968D01*
X78192047Y-90135991D01*
X78354352Y-90002792D01*
X78487551Y-89840487D01*
X78586528Y-89655316D01*
X78647477Y-89454393D01*
X78668057Y-89245440D01*
X79065943Y-89245440D01*
X79086523Y-89454393D01*
X79147472Y-89655316D01*
X79246449Y-89840487D01*
X79379648Y-90002792D01*
X79541953Y-90135991D01*
X79727124Y-90234968D01*
X79928047Y-90295917D01*
X80084640Y-90311340D01*
X80189360Y-90311340D01*
X80345953Y-90295917D01*
X80546876Y-90234968D01*
X80732047Y-90135991D01*
X80894352Y-90002792D01*
X81027551Y-89840487D01*
X81126528Y-89655316D01*
X81187477Y-89454393D01*
X81208057Y-89245440D01*
X81605943Y-89245440D01*
X81626523Y-89454393D01*
X81687472Y-89655316D01*
X81786449Y-89840487D01*
X81919648Y-90002792D01*
X82081953Y-90135991D01*
X82267124Y-90234968D01*
X82468047Y-90295917D01*
X82624640Y-90311340D01*
X82729360Y-90311340D01*
X82885953Y-90295917D01*
X83086876Y-90234968D01*
X83272047Y-90135991D01*
X83434352Y-90002792D01*
X83567551Y-89840487D01*
X83666528Y-89655316D01*
X83727477Y-89454393D01*
X83748057Y-89245440D01*
X84145943Y-89245440D01*
X84166523Y-89454393D01*
X84227472Y-89655316D01*
X84326449Y-89840487D01*
X84459648Y-90002792D01*
X84621953Y-90135991D01*
X84807124Y-90234968D01*
X85008047Y-90295917D01*
X85164640Y-90311340D01*
X85269360Y-90311340D01*
X85425953Y-90295917D01*
X85626876Y-90234968D01*
X85812047Y-90135991D01*
X85974352Y-90002792D01*
X86107551Y-89840487D01*
X86206528Y-89655316D01*
X86267477Y-89454393D01*
X86288057Y-89245440D01*
X86685943Y-89245440D01*
X86706523Y-89454393D01*
X86767472Y-89655316D01*
X86866449Y-89840487D01*
X86999648Y-90002792D01*
X87161953Y-90135991D01*
X87347124Y-90234968D01*
X87548047Y-90295917D01*
X87704640Y-90311340D01*
X87809360Y-90311340D01*
X87965953Y-90295917D01*
X88166876Y-90234968D01*
X88352047Y-90135991D01*
X88514352Y-90002792D01*
X88647551Y-89840487D01*
X88746528Y-89655316D01*
X88807477Y-89454393D01*
X88828057Y-89245440D01*
X89225943Y-89245440D01*
X89246523Y-89454393D01*
X89307472Y-89655316D01*
X89406449Y-89840487D01*
X89539648Y-90002792D01*
X89701953Y-90135991D01*
X89887124Y-90234968D01*
X90088047Y-90295917D01*
X90244640Y-90311340D01*
X90349360Y-90311340D01*
X90505953Y-90295917D01*
X90706876Y-90234968D01*
X90892047Y-90135991D01*
X91054352Y-90002792D01*
X91187551Y-89840487D01*
X91286528Y-89655316D01*
X91347477Y-89454393D01*
X91368057Y-89245440D01*
X91765943Y-89245440D01*
X91786523Y-89454393D01*
X91847472Y-89655316D01*
X91946449Y-89840487D01*
X92079648Y-90002792D01*
X92241953Y-90135991D01*
X92427124Y-90234968D01*
X92628047Y-90295917D01*
X92784640Y-90311340D01*
X92889360Y-90311340D01*
X93045953Y-90295917D01*
X93246876Y-90234968D01*
X93432047Y-90135991D01*
X93594352Y-90002792D01*
X93727551Y-89840487D01*
X93826528Y-89655316D01*
X93887477Y-89454393D01*
X93908057Y-89245440D01*
X94305943Y-89245440D01*
X94326523Y-89454393D01*
X94387472Y-89655316D01*
X94486449Y-89840487D01*
X94619648Y-90002792D01*
X94781953Y-90135991D01*
X94967124Y-90234968D01*
X95168047Y-90295917D01*
X95324640Y-90311340D01*
X95429360Y-90311340D01*
X95585953Y-90295917D01*
X95786876Y-90234968D01*
X95972047Y-90135991D01*
X96134352Y-90002792D01*
X96267551Y-89840487D01*
X96366528Y-89655316D01*
X96427477Y-89454393D01*
X96448057Y-89245440D01*
X96845943Y-89245440D01*
X96866523Y-89454393D01*
X96927472Y-89655316D01*
X97026449Y-89840487D01*
X97159648Y-90002792D01*
X97321953Y-90135991D01*
X97507124Y-90234968D01*
X97708047Y-90295917D01*
X97864640Y-90311340D01*
X97969360Y-90311340D01*
X98125953Y-90295917D01*
X98326876Y-90234968D01*
X98512047Y-90135991D01*
X98674352Y-90002792D01*
X98807551Y-89840487D01*
X98906528Y-89655316D01*
X98967477Y-89454393D01*
X98988057Y-89245440D01*
X99385943Y-89245440D01*
X99406523Y-89454393D01*
X99467472Y-89655316D01*
X99566449Y-89840487D01*
X99699648Y-90002792D01*
X99861953Y-90135991D01*
X100047124Y-90234968D01*
X100248047Y-90295917D01*
X100404640Y-90311340D01*
X100509360Y-90311340D01*
X100665953Y-90295917D01*
X100866876Y-90234968D01*
X101052047Y-90135991D01*
X101214352Y-90002792D01*
X101347551Y-89840487D01*
X101446528Y-89655316D01*
X101507477Y-89454393D01*
X101528057Y-89245440D01*
X101507477Y-89036487D01*
X101446528Y-88835564D01*
X101347551Y-88650393D01*
X101214352Y-88488088D01*
X101052047Y-88354889D01*
X100866876Y-88255912D01*
X100665953Y-88194963D01*
X100509360Y-88179540D01*
X100404640Y-88179540D01*
X100248047Y-88194963D01*
X100047124Y-88255912D01*
X99861953Y-88354889D01*
X99699648Y-88488088D01*
X99566449Y-88650393D01*
X99467472Y-88835564D01*
X99406523Y-89036487D01*
X99385943Y-89245440D01*
X98988057Y-89245440D01*
X98967477Y-89036487D01*
X98906528Y-88835564D01*
X98807551Y-88650393D01*
X98674352Y-88488088D01*
X98512047Y-88354889D01*
X98326876Y-88255912D01*
X98125953Y-88194963D01*
X97969360Y-88179540D01*
X97864640Y-88179540D01*
X97708047Y-88194963D01*
X97507124Y-88255912D01*
X97321953Y-88354889D01*
X97159648Y-88488088D01*
X97026449Y-88650393D01*
X96927472Y-88835564D01*
X96866523Y-89036487D01*
X96845943Y-89245440D01*
X96448057Y-89245440D01*
X96427477Y-89036487D01*
X96366528Y-88835564D01*
X96267551Y-88650393D01*
X96134352Y-88488088D01*
X95972047Y-88354889D01*
X95786876Y-88255912D01*
X95585953Y-88194963D01*
X95429360Y-88179540D01*
X95324640Y-88179540D01*
X95168047Y-88194963D01*
X94967124Y-88255912D01*
X94781953Y-88354889D01*
X94619648Y-88488088D01*
X94486449Y-88650393D01*
X94387472Y-88835564D01*
X94326523Y-89036487D01*
X94305943Y-89245440D01*
X93908057Y-89245440D01*
X93887477Y-89036487D01*
X93826528Y-88835564D01*
X93727551Y-88650393D01*
X93594352Y-88488088D01*
X93432047Y-88354889D01*
X93246876Y-88255912D01*
X93045953Y-88194963D01*
X92889360Y-88179540D01*
X92784640Y-88179540D01*
X92628047Y-88194963D01*
X92427124Y-88255912D01*
X92241953Y-88354889D01*
X92079648Y-88488088D01*
X91946449Y-88650393D01*
X91847472Y-88835564D01*
X91786523Y-89036487D01*
X91765943Y-89245440D01*
X91368057Y-89245440D01*
X91347477Y-89036487D01*
X91286528Y-88835564D01*
X91187551Y-88650393D01*
X91054352Y-88488088D01*
X90892047Y-88354889D01*
X90706876Y-88255912D01*
X90505953Y-88194963D01*
X90349360Y-88179540D01*
X90244640Y-88179540D01*
X90088047Y-88194963D01*
X89887124Y-88255912D01*
X89701953Y-88354889D01*
X89539648Y-88488088D01*
X89406449Y-88650393D01*
X89307472Y-88835564D01*
X89246523Y-89036487D01*
X89225943Y-89245440D01*
X88828057Y-89245440D01*
X88807477Y-89036487D01*
X88746528Y-88835564D01*
X88647551Y-88650393D01*
X88514352Y-88488088D01*
X88352047Y-88354889D01*
X88166876Y-88255912D01*
X87965953Y-88194963D01*
X87809360Y-88179540D01*
X87704640Y-88179540D01*
X87548047Y-88194963D01*
X87347124Y-88255912D01*
X87161953Y-88354889D01*
X86999648Y-88488088D01*
X86866449Y-88650393D01*
X86767472Y-88835564D01*
X86706523Y-89036487D01*
X86685943Y-89245440D01*
X86288057Y-89245440D01*
X86267477Y-89036487D01*
X86206528Y-88835564D01*
X86107551Y-88650393D01*
X85974352Y-88488088D01*
X85812047Y-88354889D01*
X85626876Y-88255912D01*
X85425953Y-88194963D01*
X85269360Y-88179540D01*
X85164640Y-88179540D01*
X85008047Y-88194963D01*
X84807124Y-88255912D01*
X84621953Y-88354889D01*
X84459648Y-88488088D01*
X84326449Y-88650393D01*
X84227472Y-88835564D01*
X84166523Y-89036487D01*
X84145943Y-89245440D01*
X83748057Y-89245440D01*
X83727477Y-89036487D01*
X83666528Y-88835564D01*
X83567551Y-88650393D01*
X83434352Y-88488088D01*
X83272047Y-88354889D01*
X83086876Y-88255912D01*
X82885953Y-88194963D01*
X82729360Y-88179540D01*
X82624640Y-88179540D01*
X82468047Y-88194963D01*
X82267124Y-88255912D01*
X82081953Y-88354889D01*
X81919648Y-88488088D01*
X81786449Y-88650393D01*
X81687472Y-88835564D01*
X81626523Y-89036487D01*
X81605943Y-89245440D01*
X81208057Y-89245440D01*
X81187477Y-89036487D01*
X81126528Y-88835564D01*
X81027551Y-88650393D01*
X80894352Y-88488088D01*
X80732047Y-88354889D01*
X80546876Y-88255912D01*
X80345953Y-88194963D01*
X80189360Y-88179540D01*
X80084640Y-88179540D01*
X79928047Y-88194963D01*
X79727124Y-88255912D01*
X79541953Y-88354889D01*
X79379648Y-88488088D01*
X79246449Y-88650393D01*
X79147472Y-88835564D01*
X79086523Y-89036487D01*
X79065943Y-89245440D01*
X78668057Y-89245440D01*
X78647477Y-89036487D01*
X78586528Y-88835564D01*
X78487551Y-88650393D01*
X78354352Y-88488088D01*
X78192047Y-88354889D01*
X78006876Y-88255912D01*
X77805953Y-88194963D01*
X77649360Y-88179540D01*
X77544640Y-88179540D01*
X77388047Y-88194963D01*
X77187124Y-88255912D01*
X77001953Y-88354889D01*
X76839648Y-88488088D01*
X76706449Y-88650393D01*
X76607472Y-88835564D01*
X76546523Y-89036487D01*
X76525943Y-89245440D01*
X76128057Y-89245440D01*
X76107477Y-89036487D01*
X76046528Y-88835564D01*
X75947551Y-88650393D01*
X75814352Y-88488088D01*
X75652047Y-88354889D01*
X75466876Y-88255912D01*
X75265953Y-88194963D01*
X75109360Y-88179540D01*
X75004640Y-88179540D01*
X74848047Y-88194963D01*
X74647124Y-88255912D01*
X74461953Y-88354889D01*
X74299648Y-88488088D01*
X74166449Y-88650393D01*
X74067472Y-88835564D01*
X74006523Y-89036487D01*
X73985943Y-89245440D01*
X73588057Y-89245440D01*
X73567477Y-89036487D01*
X73506528Y-88835564D01*
X73407551Y-88650393D01*
X73274352Y-88488088D01*
X73112047Y-88354889D01*
X72926876Y-88255912D01*
X72725953Y-88194963D01*
X72569360Y-88179540D01*
X72464640Y-88179540D01*
X72308047Y-88194963D01*
X72107124Y-88255912D01*
X71921953Y-88354889D01*
X71759648Y-88488088D01*
X71626449Y-88650393D01*
X71527472Y-88835564D01*
X71466523Y-89036487D01*
X71445943Y-89245440D01*
X71048057Y-89245440D01*
X71027477Y-89036487D01*
X70966528Y-88835564D01*
X70867551Y-88650393D01*
X70734352Y-88488088D01*
X70572047Y-88354889D01*
X70386876Y-88255912D01*
X70185953Y-88194963D01*
X70029360Y-88179540D01*
X69924640Y-88179540D01*
X69768047Y-88194963D01*
X69567124Y-88255912D01*
X69381953Y-88354889D01*
X69219648Y-88488088D01*
X69086449Y-88650393D01*
X68987472Y-88835564D01*
X68926523Y-89036487D01*
X68905943Y-89245440D01*
X59746010Y-89245440D01*
X59577569Y-89076999D01*
X59280151Y-88878271D01*
X58949678Y-88741384D01*
X58598851Y-88671600D01*
X58241149Y-88671600D01*
X57890322Y-88741384D01*
X57559849Y-88878271D01*
X57262431Y-89076999D01*
X57009499Y-89329931D01*
X56810771Y-89627349D01*
X56673884Y-89957822D01*
X56604100Y-90308649D01*
X56169560Y-90308649D01*
X56169560Y-90151972D01*
X56213381Y-89705048D01*
X56338664Y-89290092D01*
X56542161Y-88907369D01*
X56816119Y-88571464D01*
X57150106Y-88295166D01*
X57531395Y-88089004D01*
X57945470Y-87960826D01*
X58391525Y-87913944D01*
X58392598Y-87913940D01*
X103186500Y-87913940D01*
X103186500Y-88193047D01*
X103186500Y-88193047D01*
G37*
X103186500Y-88193047D02*
X103049360Y-88179540D01*
X102944640Y-88179540D01*
X102788047Y-88194963D01*
X102587124Y-88255912D01*
X102401953Y-88354889D01*
X102239648Y-88488088D01*
X102106449Y-88650393D01*
X102007472Y-88835564D01*
X101946523Y-89036487D01*
X101925943Y-89245440D01*
X101946523Y-89454393D01*
X102007472Y-89655316D01*
X102106449Y-89840487D01*
X102239648Y-90002792D01*
X102401953Y-90135991D01*
X102587124Y-90234968D01*
X102788047Y-90295917D01*
X102944640Y-90311340D01*
X103049360Y-90311340D01*
X103186500Y-90297833D01*
X103186500Y-108580178D01*
X103095816Y-108562140D01*
X102898184Y-108562140D01*
X102704348Y-108600696D01*
X102521759Y-108676327D01*
X102357433Y-108786126D01*
X102217686Y-108925873D01*
X102107887Y-109090199D01*
X102032256Y-109272788D01*
X101993700Y-109466624D01*
X101993700Y-109664256D01*
X102032256Y-109858092D01*
X102107887Y-110040681D01*
X102217686Y-110205007D01*
X102357433Y-110344754D01*
X102521759Y-110454553D01*
X102704348Y-110530184D01*
X102898184Y-110568740D01*
X103095816Y-110568740D01*
X103186500Y-110550702D01*
X103186500Y-110721140D01*
X58407592Y-110721140D01*
X57960669Y-110677319D01*
X57545711Y-110552036D01*
X57162992Y-110348540D01*
X56827083Y-110074581D01*
X56550786Y-109740594D01*
X56344624Y-109359305D01*
X56216446Y-108945231D01*
X56169564Y-108499175D01*
X56169560Y-108498102D01*
X56169560Y-108025149D01*
X56604100Y-108025149D01*
X56604100Y-108382851D01*
X56673884Y-108733678D01*
X56810771Y-109064151D01*
X57009499Y-109361569D01*
X57262431Y-109614501D01*
X57559849Y-109813229D01*
X57890322Y-109950116D01*
X58241149Y-110019900D01*
X58598851Y-110019900D01*
X58949678Y-109950116D01*
X59280151Y-109813229D01*
X59577569Y-109614501D01*
X59725446Y-109466624D01*
X61353700Y-109466624D01*
X61353700Y-109664256D01*
X61392256Y-109858092D01*
X61467887Y-110040681D01*
X61577686Y-110205007D01*
X61717433Y-110344754D01*
X61881759Y-110454553D01*
X62064348Y-110530184D01*
X62258184Y-110568740D01*
X62455816Y-110568740D01*
X62649652Y-110530184D01*
X62832241Y-110454553D01*
X62996567Y-110344754D01*
X63136314Y-110205007D01*
X63246113Y-110040681D01*
X63321744Y-109858092D01*
X63360300Y-109664256D01*
X63360300Y-109466624D01*
X63893700Y-109466624D01*
X63893700Y-109664256D01*
X63932256Y-109858092D01*
X64007887Y-110040681D01*
X64117686Y-110205007D01*
X64257433Y-110344754D01*
X64421759Y-110454553D01*
X64604348Y-110530184D01*
X64798184Y-110568740D01*
X64995816Y-110568740D01*
X65189652Y-110530184D01*
X65372241Y-110454553D01*
X65536567Y-110344754D01*
X65676314Y-110205007D01*
X65786113Y-110040681D01*
X65861744Y-109858092D01*
X65900300Y-109664256D01*
X65900300Y-109466624D01*
X66433700Y-109466624D01*
X66433700Y-109664256D01*
X66472256Y-109858092D01*
X66547887Y-110040681D01*
X66657686Y-110205007D01*
X66797433Y-110344754D01*
X66961759Y-110454553D01*
X67144348Y-110530184D01*
X67338184Y-110568740D01*
X67535816Y-110568740D01*
X67729652Y-110530184D01*
X67912241Y-110454553D01*
X68076567Y-110344754D01*
X68127637Y-110293684D01*
X69302637Y-110293684D01*
X69385644Y-110444191D01*
X69568442Y-110542674D01*
X69766941Y-110603603D01*
X69973513Y-110624635D01*
X70180218Y-110604963D01*
X70379115Y-110545343D01*
X70562557Y-110448066D01*
X70568356Y-110444191D01*
X70651363Y-110293684D01*
X69977000Y-109619322D01*
X69302637Y-110293684D01*
X68127637Y-110293684D01*
X68216314Y-110205007D01*
X68326113Y-110040681D01*
X68401744Y-109858092D01*
X68440300Y-109664256D01*
X68440300Y-109561953D01*
X68917805Y-109561953D01*
X68937477Y-109768658D01*
X68997097Y-109967555D01*
X69094374Y-110150997D01*
X69098249Y-110156796D01*
X69248756Y-110239803D01*
X69923118Y-109565440D01*
X70030882Y-109565440D01*
X70705244Y-110239803D01*
X70855751Y-110156796D01*
X70954234Y-109973998D01*
X71015163Y-109775499D01*
X71036195Y-109568927D01*
X71026459Y-109466624D01*
X71513700Y-109466624D01*
X71513700Y-109664256D01*
X71552256Y-109858092D01*
X71627887Y-110040681D01*
X71737686Y-110205007D01*
X71877433Y-110344754D01*
X72041759Y-110454553D01*
X72224348Y-110530184D01*
X72418184Y-110568740D01*
X72615816Y-110568740D01*
X72809652Y-110530184D01*
X72992241Y-110454553D01*
X73156567Y-110344754D01*
X73296314Y-110205007D01*
X73406113Y-110040681D01*
X73481744Y-109858092D01*
X73520300Y-109664256D01*
X73520300Y-109466624D01*
X74053700Y-109466624D01*
X74053700Y-109664256D01*
X74092256Y-109858092D01*
X74167887Y-110040681D01*
X74277686Y-110205007D01*
X74417433Y-110344754D01*
X74581759Y-110454553D01*
X74764348Y-110530184D01*
X74958184Y-110568740D01*
X75155816Y-110568740D01*
X75349652Y-110530184D01*
X75532241Y-110454553D01*
X75696567Y-110344754D01*
X75836314Y-110205007D01*
X75946113Y-110040681D01*
X76021744Y-109858092D01*
X76060300Y-109664256D01*
X76060300Y-109466624D01*
X76593700Y-109466624D01*
X76593700Y-109664256D01*
X76632256Y-109858092D01*
X76707887Y-110040681D01*
X76817686Y-110205007D01*
X76957433Y-110344754D01*
X77121759Y-110454553D01*
X77304348Y-110530184D01*
X77498184Y-110568740D01*
X77695816Y-110568740D01*
X77889652Y-110530184D01*
X78072241Y-110454553D01*
X78236567Y-110344754D01*
X78376314Y-110205007D01*
X78486113Y-110040681D01*
X78561744Y-109858092D01*
X78600300Y-109664256D01*
X78600300Y-109466624D01*
X79133700Y-109466624D01*
X79133700Y-109664256D01*
X79172256Y-109858092D01*
X79247887Y-110040681D01*
X79357686Y-110205007D01*
X79497433Y-110344754D01*
X79661759Y-110454553D01*
X79844348Y-110530184D01*
X80038184Y-110568740D01*
X80235816Y-110568740D01*
X80429652Y-110530184D01*
X80612241Y-110454553D01*
X80776567Y-110344754D01*
X80916314Y-110205007D01*
X81026113Y-110040681D01*
X81101744Y-109858092D01*
X81140300Y-109664256D01*
X81140300Y-109466624D01*
X81673700Y-109466624D01*
X81673700Y-109664256D01*
X81712256Y-109858092D01*
X81787887Y-110040681D01*
X81897686Y-110205007D01*
X82037433Y-110344754D01*
X82201759Y-110454553D01*
X82384348Y-110530184D01*
X82578184Y-110568740D01*
X82775816Y-110568740D01*
X82969652Y-110530184D01*
X83152241Y-110454553D01*
X83316567Y-110344754D01*
X83456314Y-110205007D01*
X83566113Y-110040681D01*
X83641744Y-109858092D01*
X83680300Y-109664256D01*
X83680300Y-109466624D01*
X84213700Y-109466624D01*
X84213700Y-109664256D01*
X84252256Y-109858092D01*
X84327887Y-110040681D01*
X84437686Y-110205007D01*
X84577433Y-110344754D01*
X84741759Y-110454553D01*
X84924348Y-110530184D01*
X85118184Y-110568740D01*
X85315816Y-110568740D01*
X85509652Y-110530184D01*
X85692241Y-110454553D01*
X85856567Y-110344754D01*
X85996314Y-110205007D01*
X86106113Y-110040681D01*
X86181744Y-109858092D01*
X86220300Y-109664256D01*
X86220300Y-109466624D01*
X86753700Y-109466624D01*
X86753700Y-109664256D01*
X86792256Y-109858092D01*
X86867887Y-110040681D01*
X86977686Y-110205007D01*
X87117433Y-110344754D01*
X87281759Y-110454553D01*
X87464348Y-110530184D01*
X87658184Y-110568740D01*
X87855816Y-110568740D01*
X88049652Y-110530184D01*
X88232241Y-110454553D01*
X88396567Y-110344754D01*
X88536314Y-110205007D01*
X88646113Y-110040681D01*
X88721744Y-109858092D01*
X88760300Y-109664256D01*
X88760300Y-109466624D01*
X89293700Y-109466624D01*
X89293700Y-109664256D01*
X89332256Y-109858092D01*
X89407887Y-110040681D01*
X89517686Y-110205007D01*
X89657433Y-110344754D01*
X89821759Y-110454553D01*
X90004348Y-110530184D01*
X90198184Y-110568740D01*
X90395816Y-110568740D01*
X90589652Y-110530184D01*
X90772241Y-110454553D01*
X90936567Y-110344754D01*
X91076314Y-110205007D01*
X91186113Y-110040681D01*
X91261744Y-109858092D01*
X91300300Y-109664256D01*
X91300300Y-109466624D01*
X91833700Y-109466624D01*
X91833700Y-109664256D01*
X91872256Y-109858092D01*
X91947887Y-110040681D01*
X92057686Y-110205007D01*
X92197433Y-110344754D01*
X92361759Y-110454553D01*
X92544348Y-110530184D01*
X92738184Y-110568740D01*
X92935816Y-110568740D01*
X93129652Y-110530184D01*
X93312241Y-110454553D01*
X93476567Y-110344754D01*
X93616314Y-110205007D01*
X93726113Y-110040681D01*
X93801744Y-109858092D01*
X93840300Y-109664256D01*
X93840300Y-109466624D01*
X94373700Y-109466624D01*
X94373700Y-109664256D01*
X94412256Y-109858092D01*
X94487887Y-110040681D01*
X94597686Y-110205007D01*
X94737433Y-110344754D01*
X94901759Y-110454553D01*
X95084348Y-110530184D01*
X95278184Y-110568740D01*
X95475816Y-110568740D01*
X95669652Y-110530184D01*
X95852241Y-110454553D01*
X96016567Y-110344754D01*
X96156314Y-110205007D01*
X96266113Y-110040681D01*
X96341744Y-109858092D01*
X96380300Y-109664256D01*
X96380300Y-109466624D01*
X96913700Y-109466624D01*
X96913700Y-109664256D01*
X96952256Y-109858092D01*
X97027887Y-110040681D01*
X97137686Y-110205007D01*
X97277433Y-110344754D01*
X97441759Y-110454553D01*
X97624348Y-110530184D01*
X97818184Y-110568740D01*
X98015816Y-110568740D01*
X98209652Y-110530184D01*
X98392241Y-110454553D01*
X98556567Y-110344754D01*
X98607637Y-110293684D01*
X99782637Y-110293684D01*
X99865644Y-110444191D01*
X100048442Y-110542674D01*
X100246941Y-110603603D01*
X100453513Y-110624635D01*
X100660218Y-110604963D01*
X100859115Y-110545343D01*
X101042557Y-110448066D01*
X101048356Y-110444191D01*
X101131363Y-110293684D01*
X100457000Y-109619322D01*
X99782637Y-110293684D01*
X98607637Y-110293684D01*
X98696314Y-110205007D01*
X98806113Y-110040681D01*
X98881744Y-109858092D01*
X98920300Y-109664256D01*
X98920300Y-109561953D01*
X99397805Y-109561953D01*
X99417477Y-109768658D01*
X99477097Y-109967555D01*
X99574374Y-110150997D01*
X99578249Y-110156796D01*
X99728756Y-110239803D01*
X100403118Y-109565440D01*
X100510882Y-109565440D01*
X101185244Y-110239803D01*
X101335751Y-110156796D01*
X101434234Y-109973998D01*
X101495163Y-109775499D01*
X101516195Y-109568927D01*
X101496523Y-109362222D01*
X101436903Y-109163325D01*
X101339626Y-108979883D01*
X101335751Y-108974084D01*
X101185244Y-108891077D01*
X100510882Y-109565440D01*
X100403118Y-109565440D01*
X99728756Y-108891077D01*
X99578249Y-108974084D01*
X99479766Y-109156882D01*
X99418837Y-109355381D01*
X99397805Y-109561953D01*
X98920300Y-109561953D01*
X98920300Y-109466624D01*
X98881744Y-109272788D01*
X98806113Y-109090199D01*
X98696314Y-108925873D01*
X98607637Y-108837196D01*
X99782637Y-108837196D01*
X100457000Y-109511558D01*
X101131363Y-108837196D01*
X101048356Y-108686689D01*
X100865558Y-108588206D01*
X100667059Y-108527277D01*
X100460487Y-108506245D01*
X100253782Y-108525917D01*
X100054885Y-108585537D01*
X99871443Y-108682814D01*
X99865644Y-108686689D01*
X99782637Y-108837196D01*
X98607637Y-108837196D01*
X98556567Y-108786126D01*
X98392241Y-108676327D01*
X98209652Y-108600696D01*
X98015816Y-108562140D01*
X97818184Y-108562140D01*
X97624348Y-108600696D01*
X97441759Y-108676327D01*
X97277433Y-108786126D01*
X97137686Y-108925873D01*
X97027887Y-109090199D01*
X96952256Y-109272788D01*
X96913700Y-109466624D01*
X96380300Y-109466624D01*
X96341744Y-109272788D01*
X96266113Y-109090199D01*
X96156314Y-108925873D01*
X96016567Y-108786126D01*
X95852241Y-108676327D01*
X95669652Y-108600696D01*
X95475816Y-108562140D01*
X95278184Y-108562140D01*
X95084348Y-108600696D01*
X94901759Y-108676327D01*
X94737433Y-108786126D01*
X94597686Y-108925873D01*
X94487887Y-109090199D01*
X94412256Y-109272788D01*
X94373700Y-109466624D01*
X93840300Y-109466624D01*
X93801744Y-109272788D01*
X93726113Y-109090199D01*
X93616314Y-108925873D01*
X93476567Y-108786126D01*
X93312241Y-108676327D01*
X93129652Y-108600696D01*
X92935816Y-108562140D01*
X92738184Y-108562140D01*
X92544348Y-108600696D01*
X92361759Y-108676327D01*
X92197433Y-108786126D01*
X92057686Y-108925873D01*
X91947887Y-109090199D01*
X91872256Y-109272788D01*
X91833700Y-109466624D01*
X91300300Y-109466624D01*
X91261744Y-109272788D01*
X91186113Y-109090199D01*
X91076314Y-108925873D01*
X90936567Y-108786126D01*
X90772241Y-108676327D01*
X90589652Y-108600696D01*
X90395816Y-108562140D01*
X90198184Y-108562140D01*
X90004348Y-108600696D01*
X89821759Y-108676327D01*
X89657433Y-108786126D01*
X89517686Y-108925873D01*
X89407887Y-109090199D01*
X89332256Y-109272788D01*
X89293700Y-109466624D01*
X88760300Y-109466624D01*
X88721744Y-109272788D01*
X88646113Y-109090199D01*
X88536314Y-108925873D01*
X88396567Y-108786126D01*
X88232241Y-108676327D01*
X88049652Y-108600696D01*
X87855816Y-108562140D01*
X87658184Y-108562140D01*
X87464348Y-108600696D01*
X87281759Y-108676327D01*
X87117433Y-108786126D01*
X86977686Y-108925873D01*
X86867887Y-109090199D01*
X86792256Y-109272788D01*
X86753700Y-109466624D01*
X86220300Y-109466624D01*
X86181744Y-109272788D01*
X86106113Y-109090199D01*
X85996314Y-108925873D01*
X85856567Y-108786126D01*
X85692241Y-108676327D01*
X85509652Y-108600696D01*
X85315816Y-108562140D01*
X85118184Y-108562140D01*
X84924348Y-108600696D01*
X84741759Y-108676327D01*
X84577433Y-108786126D01*
X84437686Y-108925873D01*
X84327887Y-109090199D01*
X84252256Y-109272788D01*
X84213700Y-109466624D01*
X83680300Y-109466624D01*
X83641744Y-109272788D01*
X83566113Y-109090199D01*
X83456314Y-108925873D01*
X83316567Y-108786126D01*
X83152241Y-108676327D01*
X82969652Y-108600696D01*
X82775816Y-108562140D01*
X82578184Y-108562140D01*
X82384348Y-108600696D01*
X82201759Y-108676327D01*
X82037433Y-108786126D01*
X81897686Y-108925873D01*
X81787887Y-109090199D01*
X81712256Y-109272788D01*
X81673700Y-109466624D01*
X81140300Y-109466624D01*
X81101744Y-109272788D01*
X81026113Y-109090199D01*
X80916314Y-108925873D01*
X80776567Y-108786126D01*
X80612241Y-108676327D01*
X80429652Y-108600696D01*
X80235816Y-108562140D01*
X80038184Y-108562140D01*
X79844348Y-108600696D01*
X79661759Y-108676327D01*
X79497433Y-108786126D01*
X79357686Y-108925873D01*
X79247887Y-109090199D01*
X79172256Y-109272788D01*
X79133700Y-109466624D01*
X78600300Y-109466624D01*
X78561744Y-109272788D01*
X78486113Y-109090199D01*
X78376314Y-108925873D01*
X78236567Y-108786126D01*
X78072241Y-108676327D01*
X77889652Y-108600696D01*
X77695816Y-108562140D01*
X77498184Y-108562140D01*
X77304348Y-108600696D01*
X77121759Y-108676327D01*
X76957433Y-108786126D01*
X76817686Y-108925873D01*
X76707887Y-109090199D01*
X76632256Y-109272788D01*
X76593700Y-109466624D01*
X76060300Y-109466624D01*
X76021744Y-109272788D01*
X75946113Y-109090199D01*
X75836314Y-108925873D01*
X75696567Y-108786126D01*
X75532241Y-108676327D01*
X75349652Y-108600696D01*
X75155816Y-108562140D01*
X74958184Y-108562140D01*
X74764348Y-108600696D01*
X74581759Y-108676327D01*
X74417433Y-108786126D01*
X74277686Y-108925873D01*
X74167887Y-109090199D01*
X74092256Y-109272788D01*
X74053700Y-109466624D01*
X73520300Y-109466624D01*
X73481744Y-109272788D01*
X73406113Y-109090199D01*
X73296314Y-108925873D01*
X73156567Y-108786126D01*
X72992241Y-108676327D01*
X72809652Y-108600696D01*
X72615816Y-108562140D01*
X72418184Y-108562140D01*
X72224348Y-108600696D01*
X72041759Y-108676327D01*
X71877433Y-108786126D01*
X71737686Y-108925873D01*
X71627887Y-109090199D01*
X71552256Y-109272788D01*
X71513700Y-109466624D01*
X71026459Y-109466624D01*
X71016523Y-109362222D01*
X70956903Y-109163325D01*
X70859626Y-108979883D01*
X70855751Y-108974084D01*
X70705244Y-108891077D01*
X70030882Y-109565440D01*
X69923118Y-109565440D01*
X69248756Y-108891077D01*
X69098249Y-108974084D01*
X68999766Y-109156882D01*
X68938837Y-109355381D01*
X68917805Y-109561953D01*
X68440300Y-109561953D01*
X68440300Y-109466624D01*
X68401744Y-109272788D01*
X68326113Y-109090199D01*
X68216314Y-108925873D01*
X68127637Y-108837196D01*
X69302637Y-108837196D01*
X69977000Y-109511558D01*
X70651363Y-108837196D01*
X70568356Y-108686689D01*
X70385558Y-108588206D01*
X70187059Y-108527277D01*
X69980487Y-108506245D01*
X69773782Y-108525917D01*
X69574885Y-108585537D01*
X69391443Y-108682814D01*
X69385644Y-108686689D01*
X69302637Y-108837196D01*
X68127637Y-108837196D01*
X68076567Y-108786126D01*
X67912241Y-108676327D01*
X67729652Y-108600696D01*
X67535816Y-108562140D01*
X67338184Y-108562140D01*
X67144348Y-108600696D01*
X66961759Y-108676327D01*
X66797433Y-108786126D01*
X66657686Y-108925873D01*
X66547887Y-109090199D01*
X66472256Y-109272788D01*
X66433700Y-109466624D01*
X65900300Y-109466624D01*
X65861744Y-109272788D01*
X65786113Y-109090199D01*
X65676314Y-108925873D01*
X65536567Y-108786126D01*
X65372241Y-108676327D01*
X65189652Y-108600696D01*
X64995816Y-108562140D01*
X64798184Y-108562140D01*
X64604348Y-108600696D01*
X64421759Y-108676327D01*
X64257433Y-108786126D01*
X64117686Y-108925873D01*
X64007887Y-109090199D01*
X63932256Y-109272788D01*
X63893700Y-109466624D01*
X63360300Y-109466624D01*
X63321744Y-109272788D01*
X63246113Y-109090199D01*
X63136314Y-108925873D01*
X62996567Y-108786126D01*
X62832241Y-108676327D01*
X62649652Y-108600696D01*
X62455816Y-108562140D01*
X62258184Y-108562140D01*
X62064348Y-108600696D01*
X61881759Y-108676327D01*
X61717433Y-108786126D01*
X61577686Y-108925873D01*
X61467887Y-109090199D01*
X61392256Y-109272788D01*
X61353700Y-109466624D01*
X59725446Y-109466624D01*
X59830501Y-109361569D01*
X60029229Y-109064151D01*
X60166116Y-108733678D01*
X60235900Y-108382851D01*
X60235900Y-108025149D01*
X60172401Y-107705918D01*
X92479971Y-107705918D01*
X92479971Y-107798480D01*
X92498029Y-107889264D01*
X92533451Y-107974780D01*
X92584876Y-108051743D01*
X92650327Y-108117194D01*
X92727290Y-108168619D01*
X92812806Y-108204041D01*
X92903590Y-108222099D01*
X92996152Y-108222099D01*
X93086936Y-108204041D01*
X93172452Y-108168619D01*
X93249415Y-108117194D01*
X93314866Y-108051743D01*
X93366291Y-107974780D01*
X93401713Y-107889264D01*
X93407701Y-107859159D01*
X98736160Y-107859159D01*
X98736160Y-107951721D01*
X98754218Y-108042505D01*
X98789640Y-108128021D01*
X98841065Y-108204984D01*
X98906516Y-108270435D01*
X98983479Y-108321860D01*
X99068995Y-108357282D01*
X99159779Y-108375340D01*
X99252341Y-108375340D01*
X99343125Y-108357282D01*
X99428641Y-108321860D01*
X99505604Y-108270435D01*
X99571055Y-108204984D01*
X99622480Y-108128021D01*
X99657902Y-108042505D01*
X99675960Y-107951721D01*
X99675960Y-107859159D01*
X99657902Y-107768375D01*
X99622480Y-107682859D01*
X99571055Y-107605896D01*
X99558878Y-107593719D01*
X100010100Y-107593719D01*
X100010100Y-107686281D01*
X100028158Y-107777065D01*
X100063580Y-107862581D01*
X100115005Y-107939544D01*
X100180456Y-108004995D01*
X100257419Y-108056420D01*
X100342935Y-108091842D01*
X100433719Y-108109900D01*
X100526281Y-108109900D01*
X100617065Y-108091842D01*
X100702581Y-108056420D01*
X100779544Y-108004995D01*
X100844995Y-107939544D01*
X100896420Y-107862581D01*
X100931842Y-107777065D01*
X100949900Y-107686281D01*
X100949900Y-107593719D01*
X100931842Y-107502935D01*
X100896420Y-107417419D01*
X100844995Y-107340456D01*
X100779544Y-107275005D01*
X100702581Y-107223580D01*
X100617065Y-107188158D01*
X100526281Y-107170100D01*
X100433719Y-107170100D01*
X100342935Y-107188158D01*
X100257419Y-107223580D01*
X100180456Y-107275005D01*
X100115005Y-107340456D01*
X100063580Y-107417419D01*
X100028158Y-107502935D01*
X100010100Y-107593719D01*
X99558878Y-107593719D01*
X99505604Y-107540445D01*
X99428641Y-107489020D01*
X99343125Y-107453598D01*
X99252341Y-107435540D01*
X99159779Y-107435540D01*
X99068995Y-107453598D01*
X98983479Y-107489020D01*
X98906516Y-107540445D01*
X98841065Y-107605896D01*
X98789640Y-107682859D01*
X98754218Y-107768375D01*
X98736160Y-107859159D01*
X93407701Y-107859159D01*
X93419771Y-107798480D01*
X93419771Y-107705918D01*
X93401713Y-107615134D01*
X93366291Y-107529618D01*
X93314866Y-107452655D01*
X93249415Y-107387204D01*
X93172452Y-107335779D01*
X93086936Y-107300357D01*
X92996152Y-107282299D01*
X92903590Y-107282299D01*
X92812806Y-107300357D01*
X92727290Y-107335779D01*
X92650327Y-107387204D01*
X92584876Y-107452655D01*
X92533451Y-107529618D01*
X92498029Y-107615134D01*
X92479971Y-107705918D01*
X60172401Y-107705918D01*
X60166116Y-107674322D01*
X60029229Y-107343849D01*
X59830501Y-107046431D01*
X59577569Y-106793499D01*
X59482894Y-106730239D01*
X62644020Y-106730239D01*
X62644020Y-106822801D01*
X62662078Y-106913585D01*
X62697500Y-106999101D01*
X62748925Y-107076064D01*
X62814376Y-107141515D01*
X62891339Y-107192940D01*
X62976855Y-107228362D01*
X63067639Y-107246420D01*
X63160201Y-107246420D01*
X63250985Y-107228362D01*
X63336501Y-107192940D01*
X63413464Y-107141515D01*
X63478915Y-107076064D01*
X63530340Y-106999101D01*
X63565762Y-106913585D01*
X63570907Y-106887719D01*
X63588894Y-106887719D01*
X63588894Y-106980281D01*
X63606952Y-107071065D01*
X63642374Y-107156581D01*
X63693799Y-107233544D01*
X63759250Y-107298995D01*
X63836213Y-107350420D01*
X63921729Y-107385842D01*
X64012513Y-107403900D01*
X64105075Y-107403900D01*
X64195859Y-107385842D01*
X64281375Y-107350420D01*
X64358338Y-107298995D01*
X64423789Y-107233544D01*
X64475214Y-107156581D01*
X64510636Y-107071065D01*
X64528694Y-106980281D01*
X64528694Y-106887719D01*
X64510636Y-106796935D01*
X64501020Y-106773719D01*
X66320098Y-106773719D01*
X66320098Y-106866281D01*
X66338156Y-106957065D01*
X66373578Y-107042581D01*
X66425003Y-107119544D01*
X66490454Y-107184995D01*
X66567417Y-107236420D01*
X66652933Y-107271842D01*
X66743717Y-107289900D01*
X66836279Y-107289900D01*
X66927063Y-107271842D01*
X67012579Y-107236420D01*
X67089542Y-107184995D01*
X67154993Y-107119544D01*
X67206418Y-107042581D01*
X67241840Y-106957065D01*
X67259898Y-106866281D01*
X67259898Y-106773719D01*
X67241840Y-106682935D01*
X67206418Y-106597419D01*
X67154993Y-106520456D01*
X67089542Y-106455005D01*
X67012579Y-106403580D01*
X66927063Y-106368158D01*
X66836279Y-106350100D01*
X66743717Y-106350100D01*
X66652933Y-106368158D01*
X66567417Y-106403580D01*
X66490454Y-106455005D01*
X66425003Y-106520456D01*
X66373578Y-106597419D01*
X66338156Y-106682935D01*
X66320098Y-106773719D01*
X64501020Y-106773719D01*
X64475214Y-106711419D01*
X64423789Y-106634456D01*
X64358338Y-106569005D01*
X64312891Y-106538638D01*
X64347059Y-106531842D01*
X64432575Y-106496420D01*
X64509538Y-106444995D01*
X64574989Y-106379544D01*
X64626414Y-106302581D01*
X64661836Y-106217065D01*
X64668469Y-106183716D01*
X70951338Y-106183716D01*
X70951338Y-106276278D01*
X70969396Y-106367062D01*
X71004818Y-106452578D01*
X71056243Y-106529541D01*
X71121694Y-106594992D01*
X71198657Y-106646417D01*
X71284173Y-106681839D01*
X71374957Y-106699897D01*
X71467519Y-106699897D01*
X71558303Y-106681839D01*
X71643819Y-106646417D01*
X71720782Y-106594992D01*
X71786233Y-106529541D01*
X71837658Y-106452578D01*
X71873080Y-106367062D01*
X71884567Y-106309310D01*
X72105405Y-106309310D01*
X72105405Y-106401872D01*
X72123463Y-106492656D01*
X72158885Y-106578172D01*
X72210310Y-106655135D01*
X72275761Y-106720586D01*
X72352724Y-106772011D01*
X72438240Y-106807433D01*
X72529024Y-106825491D01*
X72621586Y-106825491D01*
X72712370Y-106807433D01*
X72793767Y-106773717D01*
X78400100Y-106773717D01*
X78400100Y-106866279D01*
X78418158Y-106957063D01*
X78453580Y-107042579D01*
X78505005Y-107119542D01*
X78570456Y-107184993D01*
X78647419Y-107236418D01*
X78732935Y-107271840D01*
X78823719Y-107289898D01*
X78916281Y-107289898D01*
X79007065Y-107271840D01*
X79092581Y-107236418D01*
X79169544Y-107184993D01*
X79234995Y-107119542D01*
X79286420Y-107042579D01*
X79321842Y-106957063D01*
X79339900Y-106866279D01*
X79339900Y-106773717D01*
X79321842Y-106682933D01*
X79286420Y-106597417D01*
X79234995Y-106520454D01*
X79169544Y-106455003D01*
X79092581Y-106403578D01*
X79007065Y-106368156D01*
X78916281Y-106350098D01*
X78823719Y-106350098D01*
X78732935Y-106368156D01*
X78647419Y-106403578D01*
X78570456Y-106455003D01*
X78505005Y-106520454D01*
X78453580Y-106597417D01*
X78418158Y-106682933D01*
X78400100Y-106773717D01*
X72793767Y-106773717D01*
X72797886Y-106772011D01*
X72874849Y-106720586D01*
X72940300Y-106655135D01*
X72991725Y-106578172D01*
X73027147Y-106492656D01*
X73045205Y-106401872D01*
X73045205Y-106309310D01*
X73027147Y-106218526D01*
X72991725Y-106133010D01*
X72940300Y-106056047D01*
X72874849Y-105990596D01*
X72797886Y-105939171D01*
X72712370Y-105903749D01*
X72621586Y-105885691D01*
X72529024Y-105885691D01*
X72438240Y-105903749D01*
X72352724Y-105939171D01*
X72275761Y-105990596D01*
X72210310Y-106056047D01*
X72158885Y-106133010D01*
X72123463Y-106218526D01*
X72105405Y-106309310D01*
X71884567Y-106309310D01*
X71891138Y-106276278D01*
X71891138Y-106183716D01*
X71873080Y-106092932D01*
X71837658Y-106007416D01*
X71786233Y-105930453D01*
X71722788Y-105867008D01*
X82535998Y-105867008D01*
X82535998Y-105959570D01*
X82554056Y-106050354D01*
X82589478Y-106135870D01*
X82640903Y-106212833D01*
X82706354Y-106278284D01*
X82783317Y-106329709D01*
X82868833Y-106365131D01*
X82959617Y-106383189D01*
X83052179Y-106383189D01*
X83142963Y-106365131D01*
X83228479Y-106329709D01*
X83248668Y-106316219D01*
X85255070Y-106316219D01*
X85255070Y-106408781D01*
X85273128Y-106499565D01*
X85308550Y-106585081D01*
X85359975Y-106662044D01*
X85425426Y-106727495D01*
X85502389Y-106778920D01*
X85587905Y-106814342D01*
X85678689Y-106832400D01*
X85771251Y-106832400D01*
X85862035Y-106814342D01*
X85947551Y-106778920D01*
X86024514Y-106727495D01*
X86089965Y-106662044D01*
X86141390Y-106585081D01*
X86176812Y-106499565D01*
X86188071Y-106442958D01*
X86474154Y-106442958D01*
X86474154Y-106535520D01*
X86492212Y-106626304D01*
X86527634Y-106711820D01*
X86579059Y-106788783D01*
X86644510Y-106854234D01*
X86721473Y-106905659D01*
X86806989Y-106941081D01*
X86897773Y-106959139D01*
X86990335Y-106959139D01*
X87081119Y-106941081D01*
X87166635Y-106905659D01*
X87243598Y-106854234D01*
X87289982Y-106807850D01*
X90224233Y-106807850D01*
X90224233Y-106900412D01*
X90242291Y-106991196D01*
X90277713Y-107076712D01*
X90329138Y-107153675D01*
X90394589Y-107219126D01*
X90471552Y-107270551D01*
X90557068Y-107305973D01*
X90647852Y-107324031D01*
X90740414Y-107324031D01*
X90831198Y-107305973D01*
X90916714Y-107270551D01*
X90993677Y-107219126D01*
X91059128Y-107153675D01*
X91110553Y-107076712D01*
X91145975Y-106991196D01*
X91164033Y-106900412D01*
X91164033Y-106807850D01*
X91145975Y-106717066D01*
X91110553Y-106631550D01*
X91059128Y-106554587D01*
X90993677Y-106489136D01*
X90916714Y-106437711D01*
X90831198Y-106402289D01*
X90740414Y-106384231D01*
X90647852Y-106384231D01*
X90557068Y-106402289D01*
X90471552Y-106437711D01*
X90394589Y-106489136D01*
X90329138Y-106554587D01*
X90277713Y-106631550D01*
X90242291Y-106717066D01*
X90224233Y-106807850D01*
X87289982Y-106807850D01*
X87309049Y-106788783D01*
X87360474Y-106711820D01*
X87395896Y-106626304D01*
X87413954Y-106535520D01*
X87413954Y-106442958D01*
X87395896Y-106352174D01*
X87384110Y-106323719D01*
X91060100Y-106323719D01*
X91060100Y-106416281D01*
X91078158Y-106507065D01*
X91113580Y-106592581D01*
X91165005Y-106669544D01*
X91230456Y-106734995D01*
X91307419Y-106786420D01*
X91392935Y-106821842D01*
X91483719Y-106839900D01*
X91576281Y-106839900D01*
X91667065Y-106821842D01*
X91752581Y-106786420D01*
X91829544Y-106734995D01*
X91853430Y-106711109D01*
X94920100Y-106711109D01*
X94920100Y-106803671D01*
X94938158Y-106894455D01*
X94973580Y-106979971D01*
X95025005Y-107056934D01*
X95090456Y-107122385D01*
X95167419Y-107173810D01*
X95252935Y-107209232D01*
X95343719Y-107227290D01*
X95436281Y-107227290D01*
X95527065Y-107209232D01*
X95612581Y-107173810D01*
X95689544Y-107122385D01*
X95754995Y-107056934D01*
X95806420Y-106979971D01*
X95841842Y-106894455D01*
X95859900Y-106803671D01*
X95859900Y-106711109D01*
X95841842Y-106620325D01*
X95806420Y-106534809D01*
X95754995Y-106457846D01*
X95689544Y-106392395D01*
X95670574Y-106379719D01*
X96304100Y-106379719D01*
X96304100Y-106472281D01*
X96322158Y-106563065D01*
X96357580Y-106648581D01*
X96409005Y-106725544D01*
X96474456Y-106790995D01*
X96551419Y-106842420D01*
X96636935Y-106877842D01*
X96727719Y-106895900D01*
X96820281Y-106895900D01*
X96911065Y-106877842D01*
X96996581Y-106842420D01*
X97073544Y-106790995D01*
X97138995Y-106725544D01*
X97190420Y-106648581D01*
X97225842Y-106563065D01*
X97243900Y-106472281D01*
X97243900Y-106379719D01*
X97320122Y-106379719D01*
X97320122Y-106472281D01*
X97338180Y-106563065D01*
X97373602Y-106648581D01*
X97425027Y-106725544D01*
X97490478Y-106790995D01*
X97567441Y-106842420D01*
X97652957Y-106877842D01*
X97743741Y-106895900D01*
X97836303Y-106895900D01*
X97927087Y-106877842D01*
X98012603Y-106842420D01*
X98089566Y-106790995D01*
X98155017Y-106725544D01*
X98206442Y-106648581D01*
X98241864Y-106563065D01*
X98259922Y-106472281D01*
X98259922Y-106379719D01*
X98241864Y-106288935D01*
X98206442Y-106203419D01*
X98155017Y-106126456D01*
X98089566Y-106061005D01*
X98012603Y-106009580D01*
X97927087Y-105974158D01*
X97836303Y-105956100D01*
X97743741Y-105956100D01*
X97652957Y-105974158D01*
X97567441Y-106009580D01*
X97490478Y-106061005D01*
X97425027Y-106126456D01*
X97373602Y-106203419D01*
X97338180Y-106288935D01*
X97320122Y-106379719D01*
X97243900Y-106379719D01*
X97225842Y-106288935D01*
X97190420Y-106203419D01*
X97138995Y-106126456D01*
X97073544Y-106061005D01*
X96996581Y-106009580D01*
X96911065Y-105974158D01*
X96820281Y-105956100D01*
X96727719Y-105956100D01*
X96636935Y-105974158D01*
X96551419Y-106009580D01*
X96474456Y-106061005D01*
X96409005Y-106126456D01*
X96357580Y-106203419D01*
X96322158Y-106288935D01*
X96304100Y-106379719D01*
X95670574Y-106379719D01*
X95612581Y-106340970D01*
X95527065Y-106305548D01*
X95436281Y-106287490D01*
X95343719Y-106287490D01*
X95252935Y-106305548D01*
X95167419Y-106340970D01*
X95090456Y-106392395D01*
X95025005Y-106457846D01*
X94973580Y-106534809D01*
X94938158Y-106620325D01*
X94920100Y-106711109D01*
X91853430Y-106711109D01*
X91894995Y-106669544D01*
X91946420Y-106592581D01*
X91981842Y-106507065D01*
X91999900Y-106416281D01*
X91999900Y-106323719D01*
X91981842Y-106232935D01*
X91946420Y-106147419D01*
X91903858Y-106083719D01*
X93980100Y-106083719D01*
X93980100Y-106176281D01*
X93998158Y-106267065D01*
X94033580Y-106352581D01*
X94085005Y-106429544D01*
X94150456Y-106494995D01*
X94227419Y-106546420D01*
X94312935Y-106581842D01*
X94403719Y-106599900D01*
X94496281Y-106599900D01*
X94587065Y-106581842D01*
X94672581Y-106546420D01*
X94749544Y-106494995D01*
X94814995Y-106429544D01*
X94866420Y-106352581D01*
X94901842Y-106267065D01*
X94919900Y-106176281D01*
X94919900Y-106083719D01*
X94901842Y-105992935D01*
X94866420Y-105907419D01*
X94814995Y-105830456D01*
X94749544Y-105765005D01*
X94672581Y-105713580D01*
X94587065Y-105678158D01*
X94496281Y-105660100D01*
X94403719Y-105660100D01*
X94312935Y-105678158D01*
X94227419Y-105713580D01*
X94150456Y-105765005D01*
X94085005Y-105830456D01*
X94033580Y-105907419D01*
X93998158Y-105992935D01*
X93980100Y-106083719D01*
X91903858Y-106083719D01*
X91894995Y-106070456D01*
X91829544Y-106005005D01*
X91752581Y-105953580D01*
X91667065Y-105918158D01*
X91576281Y-105900100D01*
X91483719Y-105900100D01*
X91392935Y-105918158D01*
X91307419Y-105953580D01*
X91230456Y-106005005D01*
X91165005Y-106070456D01*
X91113580Y-106147419D01*
X91078158Y-106232935D01*
X91060100Y-106323719D01*
X87384110Y-106323719D01*
X87360474Y-106266658D01*
X87309049Y-106189695D01*
X87243598Y-106124244D01*
X87166635Y-106072819D01*
X87081119Y-106037397D01*
X86990335Y-106019339D01*
X86897773Y-106019339D01*
X86806989Y-106037397D01*
X86721473Y-106072819D01*
X86644510Y-106124244D01*
X86579059Y-106189695D01*
X86527634Y-106266658D01*
X86492212Y-106352174D01*
X86474154Y-106442958D01*
X86188071Y-106442958D01*
X86194870Y-106408781D01*
X86194870Y-106316219D01*
X86176812Y-106225435D01*
X86141390Y-106139919D01*
X86089965Y-106062956D01*
X86024514Y-105997505D01*
X85947551Y-105946080D01*
X85862035Y-105910658D01*
X85771251Y-105892600D01*
X85678689Y-105892600D01*
X85587905Y-105910658D01*
X85502389Y-105946080D01*
X85425426Y-105997505D01*
X85359975Y-106062956D01*
X85308550Y-106139919D01*
X85273128Y-106225435D01*
X85255070Y-106316219D01*
X83248668Y-106316219D01*
X83305442Y-106278284D01*
X83370893Y-106212833D01*
X83422318Y-106135870D01*
X83457740Y-106050354D01*
X83475798Y-105959570D01*
X83475798Y-105867008D01*
X83457740Y-105776224D01*
X83422318Y-105690708D01*
X83370893Y-105613745D01*
X83305442Y-105548294D01*
X83228479Y-105496869D01*
X83142963Y-105461447D01*
X83052179Y-105443389D01*
X82959617Y-105443389D01*
X82868833Y-105461447D01*
X82783317Y-105496869D01*
X82706354Y-105548294D01*
X82640903Y-105613745D01*
X82589478Y-105690708D01*
X82554056Y-105776224D01*
X82535998Y-105867008D01*
X71722788Y-105867008D01*
X71720782Y-105865002D01*
X71643819Y-105813577D01*
X71558303Y-105778155D01*
X71467519Y-105760097D01*
X71374957Y-105760097D01*
X71284173Y-105778155D01*
X71198657Y-105813577D01*
X71121694Y-105865002D01*
X71056243Y-105930453D01*
X71004818Y-106007416D01*
X70969396Y-106092932D01*
X70951338Y-106183716D01*
X64668469Y-106183716D01*
X64679894Y-106126281D01*
X64679894Y-106033719D01*
X64661836Y-105942935D01*
X64626414Y-105857419D01*
X64574989Y-105780456D01*
X64509538Y-105715005D01*
X64432575Y-105663580D01*
X64347059Y-105628158D01*
X64256275Y-105610100D01*
X64163713Y-105610100D01*
X64072929Y-105628158D01*
X63987413Y-105663580D01*
X63910450Y-105715005D01*
X63844999Y-105780456D01*
X63793574Y-105857419D01*
X63758152Y-105942935D01*
X63740094Y-106033719D01*
X63740094Y-106126281D01*
X63758152Y-106217065D01*
X63793574Y-106302581D01*
X63844999Y-106379544D01*
X63910450Y-106444995D01*
X63955897Y-106475362D01*
X63921729Y-106482158D01*
X63836213Y-106517580D01*
X63759250Y-106569005D01*
X63693799Y-106634456D01*
X63642374Y-106711419D01*
X63606952Y-106796935D01*
X63588894Y-106887719D01*
X63570907Y-106887719D01*
X63583820Y-106822801D01*
X63583820Y-106730239D01*
X63565762Y-106639455D01*
X63530340Y-106553939D01*
X63478915Y-106476976D01*
X63413464Y-106411525D01*
X63336501Y-106360100D01*
X63250985Y-106324678D01*
X63160201Y-106306620D01*
X63067639Y-106306620D01*
X62976855Y-106324678D01*
X62891339Y-106360100D01*
X62814376Y-106411525D01*
X62748925Y-106476976D01*
X62697500Y-106553939D01*
X62662078Y-106639455D01*
X62644020Y-106730239D01*
X59482894Y-106730239D01*
X59280151Y-106594771D01*
X58949678Y-106457884D01*
X58598851Y-106388100D01*
X58241149Y-106388100D01*
X57890322Y-106457884D01*
X57559849Y-106594771D01*
X57262431Y-106793499D01*
X57009499Y-107046431D01*
X56810771Y-107343849D01*
X56673884Y-107674322D01*
X56604100Y-108025149D01*
X56169560Y-108025149D01*
X56169560Y-105570319D01*
X62811700Y-105570319D01*
X62811700Y-105662881D01*
X62829758Y-105753665D01*
X62865180Y-105839181D01*
X62916605Y-105916144D01*
X62982056Y-105981595D01*
X63059019Y-106033020D01*
X63144535Y-106068442D01*
X63235319Y-106086500D01*
X63327881Y-106086500D01*
X63418665Y-106068442D01*
X63504181Y-106033020D01*
X63581144Y-105981595D01*
X63646595Y-105916144D01*
X63698020Y-105839181D01*
X63733442Y-105753665D01*
X63751500Y-105662881D01*
X63751500Y-105570319D01*
X63733442Y-105479535D01*
X63698020Y-105394019D01*
X63646595Y-105317056D01*
X63581144Y-105251605D01*
X63504181Y-105200180D01*
X63418665Y-105164758D01*
X63327881Y-105146700D01*
X63235319Y-105146700D01*
X63144535Y-105164758D01*
X63059019Y-105200180D01*
X62982056Y-105251605D01*
X62916605Y-105317056D01*
X62865180Y-105394019D01*
X62829758Y-105479535D01*
X62811700Y-105570319D01*
X56169560Y-105570319D01*
X56169560Y-104803719D01*
X63740100Y-104803719D01*
X63740100Y-104896281D01*
X63758158Y-104987065D01*
X63793580Y-105072581D01*
X63845005Y-105149544D01*
X63910456Y-105214995D01*
X63987419Y-105266420D01*
X64072935Y-105301842D01*
X64163719Y-105319900D01*
X64256281Y-105319900D01*
X64347065Y-105301842D01*
X64432581Y-105266420D01*
X64509544Y-105214995D01*
X64574995Y-105149544D01*
X64626420Y-105072581D01*
X64661842Y-104987065D01*
X64679900Y-104896281D01*
X64679900Y-104803719D01*
X64661842Y-104712935D01*
X64626420Y-104627419D01*
X64574995Y-104550456D01*
X64562758Y-104538219D01*
X81222600Y-104538219D01*
X81222600Y-104630781D01*
X81240658Y-104721565D01*
X81276080Y-104807081D01*
X81327505Y-104884044D01*
X81392956Y-104949495D01*
X81469919Y-105000920D01*
X81555435Y-105036342D01*
X81646219Y-105054400D01*
X81738781Y-105054400D01*
X81829565Y-105036342D01*
X81915081Y-105000920D01*
X81992044Y-104949495D01*
X82057495Y-104884044D01*
X82108920Y-104807081D01*
X82144342Y-104721565D01*
X82162400Y-104630781D01*
X82162400Y-104543719D01*
X85310100Y-104543719D01*
X85310100Y-104636281D01*
X85328158Y-104727065D01*
X85363580Y-104812581D01*
X85415005Y-104889544D01*
X85480456Y-104954995D01*
X85557419Y-105006420D01*
X85642935Y-105041842D01*
X85733719Y-105059900D01*
X85826281Y-105059900D01*
X85917065Y-105041842D01*
X86002581Y-105006420D01*
X86079544Y-104954995D01*
X86144995Y-104889544D01*
X86196420Y-104812581D01*
X86231842Y-104727065D01*
X86249900Y-104636281D01*
X86249900Y-104543719D01*
X86231842Y-104452935D01*
X86196420Y-104367419D01*
X86144995Y-104290456D01*
X86079544Y-104225005D01*
X86002581Y-104173580D01*
X85917065Y-104138158D01*
X85826281Y-104120100D01*
X85733719Y-104120100D01*
X85642935Y-104138158D01*
X85557419Y-104173580D01*
X85480456Y-104225005D01*
X85415005Y-104290456D01*
X85363580Y-104367419D01*
X85328158Y-104452935D01*
X85310100Y-104543719D01*
X82162400Y-104543719D01*
X82162400Y-104538219D01*
X82144342Y-104447435D01*
X82108920Y-104361919D01*
X82057495Y-104284956D01*
X81992044Y-104219505D01*
X81915081Y-104168080D01*
X81829565Y-104132658D01*
X81738781Y-104114600D01*
X81646219Y-104114600D01*
X81555435Y-104132658D01*
X81469919Y-104168080D01*
X81392956Y-104219505D01*
X81327505Y-104284956D01*
X81276080Y-104361919D01*
X81240658Y-104447435D01*
X81222600Y-104538219D01*
X64562758Y-104538219D01*
X64509544Y-104485005D01*
X64432581Y-104433580D01*
X64347065Y-104398158D01*
X64256281Y-104380100D01*
X64163719Y-104380100D01*
X64072935Y-104398158D01*
X63987419Y-104433580D01*
X63910456Y-104485005D01*
X63845005Y-104550456D01*
X63793580Y-104627419D01*
X63758158Y-104712935D01*
X63740100Y-104803719D01*
X56169560Y-104803719D01*
X56169560Y-102795533D01*
X57045020Y-102795533D01*
X57045020Y-103015347D01*
X57087904Y-103230936D01*
X57172023Y-103434017D01*
X57294144Y-103616785D01*
X57449575Y-103772216D01*
X57632343Y-103894337D01*
X57835424Y-103978456D01*
X58051013Y-104021340D01*
X58270827Y-104021340D01*
X58486416Y-103978456D01*
X58689497Y-103894337D01*
X58872265Y-103772216D01*
X59027696Y-103616785D01*
X59126523Y-103468879D01*
X60571380Y-103468879D01*
X60571380Y-103561441D01*
X60589438Y-103652225D01*
X60624860Y-103737741D01*
X60676285Y-103814704D01*
X60741736Y-103880155D01*
X60818699Y-103931580D01*
X60904215Y-103967002D01*
X60994999Y-103985060D01*
X61087561Y-103985060D01*
X61178345Y-103967002D01*
X61263861Y-103931580D01*
X61340824Y-103880155D01*
X61355864Y-103865115D01*
X66027300Y-103865115D01*
X66027300Y-103957677D01*
X66045358Y-104048461D01*
X66080780Y-104133977D01*
X66132205Y-104210940D01*
X66197656Y-104276391D01*
X66274619Y-104327816D01*
X66360135Y-104363238D01*
X66450919Y-104381296D01*
X66543481Y-104381296D01*
X66634265Y-104363238D01*
X66719781Y-104327816D01*
X66796744Y-104276391D01*
X66862195Y-104210940D01*
X66913620Y-104133977D01*
X66949042Y-104048461D01*
X66967100Y-103957677D01*
X66967100Y-103865115D01*
X66949042Y-103774331D01*
X66930356Y-103729219D01*
X79162020Y-103729219D01*
X79162020Y-103821781D01*
X79180078Y-103912565D01*
X79215500Y-103998081D01*
X79266925Y-104075044D01*
X79332376Y-104140495D01*
X79409339Y-104191920D01*
X79494855Y-104227342D01*
X79585639Y-104245400D01*
X79678201Y-104245400D01*
X79768985Y-104227342D01*
X79854501Y-104191920D01*
X79931464Y-104140495D01*
X79996915Y-104075044D01*
X80048340Y-103998081D01*
X80083762Y-103912565D01*
X80101820Y-103821781D01*
X80101820Y-103729219D01*
X80083762Y-103638435D01*
X80048340Y-103552919D01*
X79996915Y-103475956D01*
X79931464Y-103410505D01*
X79854501Y-103359080D01*
X79768985Y-103323658D01*
X79678201Y-103305600D01*
X79585639Y-103305600D01*
X79494855Y-103323658D01*
X79409339Y-103359080D01*
X79332376Y-103410505D01*
X79266925Y-103475956D01*
X79215500Y-103552919D01*
X79180078Y-103638435D01*
X79162020Y-103729219D01*
X66930356Y-103729219D01*
X66913620Y-103688815D01*
X66862195Y-103611852D01*
X66796744Y-103546401D01*
X66719781Y-103494976D01*
X66634265Y-103459554D01*
X66543481Y-103441496D01*
X66450919Y-103441496D01*
X66360135Y-103459554D01*
X66274619Y-103494976D01*
X66197656Y-103546401D01*
X66132205Y-103611852D01*
X66080780Y-103688815D01*
X66045358Y-103774331D01*
X66027300Y-103865115D01*
X61355864Y-103865115D01*
X61406275Y-103814704D01*
X61457700Y-103737741D01*
X61493122Y-103652225D01*
X61511180Y-103561441D01*
X61511180Y-103468879D01*
X61493122Y-103378095D01*
X61457700Y-103292579D01*
X61406275Y-103215616D01*
X61340824Y-103150165D01*
X61263861Y-103098740D01*
X61178345Y-103063318D01*
X61087561Y-103045260D01*
X60994999Y-103045260D01*
X60904215Y-103063318D01*
X60818699Y-103098740D01*
X60741736Y-103150165D01*
X60676285Y-103215616D01*
X60624860Y-103292579D01*
X60589438Y-103378095D01*
X60571380Y-103468879D01*
X59126523Y-103468879D01*
X59149817Y-103434017D01*
X59233936Y-103230936D01*
X59276820Y-103015347D01*
X59276820Y-102795533D01*
X59233936Y-102579944D01*
X59149817Y-102376863D01*
X59027696Y-102194095D01*
X58872265Y-102038664D01*
X58689497Y-101916543D01*
X58486416Y-101832424D01*
X58398007Y-101814838D01*
X59941020Y-101814838D01*
X59941020Y-101996042D01*
X59976371Y-102173765D01*
X60045715Y-102341176D01*
X60146387Y-102491842D01*
X60274518Y-102619973D01*
X60425184Y-102720645D01*
X60592595Y-102789989D01*
X60770318Y-102825340D01*
X60951522Y-102825340D01*
X61129245Y-102789989D01*
X61296656Y-102720645D01*
X61425675Y-102634437D01*
X64517218Y-102634437D01*
X64517218Y-102726999D01*
X64535276Y-102817783D01*
X64570698Y-102903299D01*
X64622123Y-102980262D01*
X64687574Y-103045713D01*
X64764537Y-103097138D01*
X64850053Y-103132560D01*
X64940837Y-103150618D01*
X65033399Y-103150618D01*
X65124183Y-103132560D01*
X65209699Y-103097138D01*
X65286662Y-103045713D01*
X65352113Y-102980262D01*
X65403538Y-102903299D01*
X65438960Y-102817783D01*
X65457018Y-102726999D01*
X65457018Y-102696719D01*
X73337666Y-102696719D01*
X73337666Y-102789281D01*
X73355724Y-102880065D01*
X73391146Y-102965581D01*
X73442571Y-103042544D01*
X73508022Y-103107995D01*
X73584985Y-103159420D01*
X73670501Y-103194842D01*
X73761285Y-103212900D01*
X73853847Y-103212900D01*
X73944631Y-103194842D01*
X74030147Y-103159420D01*
X74107110Y-103107995D01*
X74172561Y-103042544D01*
X74223986Y-102965581D01*
X74259408Y-102880065D01*
X74277466Y-102789281D01*
X74277466Y-102696719D01*
X74259408Y-102605935D01*
X74223986Y-102520419D01*
X74172561Y-102443456D01*
X74107110Y-102378005D01*
X74030147Y-102326580D01*
X73944631Y-102291158D01*
X73853847Y-102273100D01*
X73761285Y-102273100D01*
X73670501Y-102291158D01*
X73584985Y-102326580D01*
X73508022Y-102378005D01*
X73442571Y-102443456D01*
X73391146Y-102520419D01*
X73355724Y-102605935D01*
X73337666Y-102696719D01*
X65457018Y-102696719D01*
X65457018Y-102634437D01*
X65438960Y-102543653D01*
X65403538Y-102458137D01*
X65352113Y-102381174D01*
X65286662Y-102315723D01*
X65209699Y-102264298D01*
X65124183Y-102228876D01*
X65033399Y-102210818D01*
X64940837Y-102210818D01*
X64850053Y-102228876D01*
X64764537Y-102264298D01*
X64687574Y-102315723D01*
X64622123Y-102381174D01*
X64570698Y-102458137D01*
X64535276Y-102543653D01*
X64517218Y-102634437D01*
X61425675Y-102634437D01*
X61447322Y-102619973D01*
X61575453Y-102491842D01*
X61676125Y-102341176D01*
X61745469Y-102173765D01*
X61780820Y-101996042D01*
X61780820Y-101814838D01*
X61745469Y-101637115D01*
X61676125Y-101469704D01*
X61575453Y-101319038D01*
X61447322Y-101190907D01*
X61296656Y-101090235D01*
X61129245Y-101020891D01*
X60951522Y-100985540D01*
X60770318Y-100985540D01*
X60592595Y-101020891D01*
X60425184Y-101090235D01*
X60274518Y-101190907D01*
X60146387Y-101319038D01*
X60045715Y-101469704D01*
X59976371Y-101637115D01*
X59941020Y-101814838D01*
X58398007Y-101814838D01*
X58270827Y-101789540D01*
X58051013Y-101789540D01*
X57835424Y-101832424D01*
X57632343Y-101916543D01*
X57449575Y-102038664D01*
X57294144Y-102194095D01*
X57172023Y-102376863D01*
X57087904Y-102579944D01*
X57045020Y-102795533D01*
X56169560Y-102795533D01*
X56169560Y-102570485D01*
X56534573Y-102208738D01*
X56564470Y-102172640D01*
X56570825Y-102160878D01*
X56579165Y-102148895D01*
X56590002Y-102129534D01*
X56601903Y-102110799D01*
X56603876Y-102106829D01*
X56628724Y-102055940D01*
X56638764Y-102028977D01*
X56649184Y-102002148D01*
X56650348Y-101997871D01*
X56664838Y-101943125D01*
X56669449Y-101914729D01*
X56674460Y-101886386D01*
X56674772Y-101881964D01*
X56678004Y-101830959D01*
X56678988Y-101820965D01*
X56678988Y-100470693D01*
X73592625Y-100470693D01*
X73592625Y-100563255D01*
X73610683Y-100654039D01*
X73646105Y-100739555D01*
X73697530Y-100816518D01*
X73762981Y-100881969D01*
X73839944Y-100933394D01*
X73925460Y-100968816D01*
X74016244Y-100986874D01*
X74108806Y-100986874D01*
X74199590Y-100968816D01*
X74285106Y-100933394D01*
X74362069Y-100881969D01*
X74427520Y-100816518D01*
X74478945Y-100739555D01*
X74514367Y-100654039D01*
X74522387Y-100613719D01*
X80810098Y-100613719D01*
X80810098Y-100706281D01*
X80828156Y-100797065D01*
X80863578Y-100882581D01*
X80915003Y-100959544D01*
X80980454Y-101024995D01*
X81057417Y-101076420D01*
X81142933Y-101111842D01*
X81233717Y-101129900D01*
X81326279Y-101129900D01*
X81417063Y-101111842D01*
X81502579Y-101076420D01*
X81579542Y-101024995D01*
X81644993Y-100959544D01*
X81696418Y-100882581D01*
X81716658Y-100833717D01*
X81950100Y-100833717D01*
X81950100Y-100926279D01*
X81968158Y-101017063D01*
X82003580Y-101102579D01*
X82055005Y-101179542D01*
X82120456Y-101244993D01*
X82197419Y-101296418D01*
X82282935Y-101331840D01*
X82373719Y-101349898D01*
X82466281Y-101349898D01*
X82557065Y-101331840D01*
X82642581Y-101296418D01*
X82719544Y-101244993D01*
X82784995Y-101179542D01*
X82836420Y-101102579D01*
X82871842Y-101017063D01*
X82889900Y-100926279D01*
X82889900Y-100833719D01*
X84830100Y-100833719D01*
X84830100Y-100926281D01*
X84848158Y-101017065D01*
X84883580Y-101102581D01*
X84935005Y-101179544D01*
X85000456Y-101244995D01*
X85077419Y-101296420D01*
X85162935Y-101331842D01*
X85253719Y-101349900D01*
X85346281Y-101349900D01*
X85437065Y-101331842D01*
X85522581Y-101296420D01*
X85599544Y-101244995D01*
X85664995Y-101179544D01*
X85716420Y-101102581D01*
X85751842Y-101017065D01*
X85769900Y-100926281D01*
X85769900Y-100833719D01*
X85751842Y-100742935D01*
X85716420Y-100657419D01*
X85664995Y-100580456D01*
X85599544Y-100515005D01*
X85522581Y-100463580D01*
X85437065Y-100428158D01*
X85346281Y-100410100D01*
X85253719Y-100410100D01*
X85162935Y-100428158D01*
X85077419Y-100463580D01*
X85000456Y-100515005D01*
X84935005Y-100580456D01*
X84883580Y-100657419D01*
X84848158Y-100742935D01*
X84830100Y-100833719D01*
X82889900Y-100833719D01*
X82889900Y-100833717D01*
X82871842Y-100742933D01*
X82836420Y-100657417D01*
X82784995Y-100580454D01*
X82719544Y-100515003D01*
X82642581Y-100463578D01*
X82557065Y-100428156D01*
X82466281Y-100410098D01*
X82373719Y-100410098D01*
X82282935Y-100428156D01*
X82197419Y-100463578D01*
X82120456Y-100515003D01*
X82055005Y-100580454D01*
X82003580Y-100657417D01*
X81968158Y-100742933D01*
X81950100Y-100833717D01*
X81716658Y-100833717D01*
X81731840Y-100797065D01*
X81749898Y-100706281D01*
X81749898Y-100613719D01*
X81731840Y-100522935D01*
X81696418Y-100437419D01*
X81644993Y-100360456D01*
X81579542Y-100295005D01*
X81502579Y-100243580D01*
X81417063Y-100208158D01*
X81326279Y-100190100D01*
X81233717Y-100190100D01*
X81142933Y-100208158D01*
X81057417Y-100243580D01*
X80980454Y-100295005D01*
X80915003Y-100360456D01*
X80863578Y-100437419D01*
X80828156Y-100522935D01*
X80810098Y-100613719D01*
X74522387Y-100613719D01*
X74532425Y-100563255D01*
X74532425Y-100470693D01*
X74514367Y-100379909D01*
X74478945Y-100294393D01*
X74427520Y-100217430D01*
X74362069Y-100151979D01*
X74285106Y-100100554D01*
X74199590Y-100065132D01*
X74108806Y-100047074D01*
X74016244Y-100047074D01*
X73925460Y-100065132D01*
X73839944Y-100100554D01*
X73762981Y-100151979D01*
X73697530Y-100217430D01*
X73646105Y-100294393D01*
X73610683Y-100379909D01*
X73592625Y-100470693D01*
X56678988Y-100470693D01*
X56678988Y-99835697D01*
X65366900Y-99835697D01*
X65366900Y-99928259D01*
X65384958Y-100019043D01*
X65420380Y-100104559D01*
X65471805Y-100181522D01*
X65537256Y-100246973D01*
X65614219Y-100298398D01*
X65699735Y-100333820D01*
X65790519Y-100351878D01*
X65883081Y-100351878D01*
X65973865Y-100333820D01*
X66059381Y-100298398D01*
X66136344Y-100246973D01*
X66201795Y-100181522D01*
X66253220Y-100104559D01*
X66288642Y-100019043D01*
X66306700Y-99928259D01*
X66306700Y-99835697D01*
X66298351Y-99793719D01*
X77290100Y-99793719D01*
X77290100Y-99886281D01*
X77308158Y-99977065D01*
X77343580Y-100062581D01*
X77395005Y-100139544D01*
X77460456Y-100204995D01*
X77537419Y-100256420D01*
X77622935Y-100291842D01*
X77713719Y-100309900D01*
X77806281Y-100309900D01*
X77897065Y-100291842D01*
X77982581Y-100256420D01*
X78059544Y-100204995D01*
X78124995Y-100139544D01*
X78176420Y-100062581D01*
X78211842Y-99977065D01*
X78229900Y-99886281D01*
X78229900Y-99793719D01*
X78211842Y-99702935D01*
X78176420Y-99617419D01*
X78154905Y-99585219D01*
X85128100Y-99585219D01*
X85128100Y-99677781D01*
X85146158Y-99768565D01*
X85181580Y-99854081D01*
X85233005Y-99931044D01*
X85298456Y-99996495D01*
X85375419Y-100047920D01*
X85460935Y-100083342D01*
X85551719Y-100101400D01*
X85644281Y-100101400D01*
X85735065Y-100083342D01*
X85820581Y-100047920D01*
X85897544Y-99996495D01*
X85962995Y-99931044D01*
X85981921Y-99902719D01*
X98717080Y-99902719D01*
X98717080Y-99995281D01*
X98735138Y-100086065D01*
X98770560Y-100171581D01*
X98821985Y-100248544D01*
X98887436Y-100313995D01*
X98964399Y-100365420D01*
X99049915Y-100400842D01*
X99140699Y-100418900D01*
X99233261Y-100418900D01*
X99324045Y-100400842D01*
X99409561Y-100365420D01*
X99486524Y-100313995D01*
X99551975Y-100248544D01*
X99603400Y-100171581D01*
X99638822Y-100086065D01*
X99656880Y-99995281D01*
X99656880Y-99902719D01*
X99638822Y-99811935D01*
X99603400Y-99726419D01*
X99551975Y-99649456D01*
X99486524Y-99584005D01*
X99409561Y-99532580D01*
X99324045Y-99497158D01*
X99233261Y-99479100D01*
X99140699Y-99479100D01*
X99049915Y-99497158D01*
X98964399Y-99532580D01*
X98887436Y-99584005D01*
X98821985Y-99649456D01*
X98770560Y-99726419D01*
X98735138Y-99811935D01*
X98717080Y-99902719D01*
X85981921Y-99902719D01*
X86014420Y-99854081D01*
X86049842Y-99768565D01*
X86067900Y-99677781D01*
X86067900Y-99585219D01*
X86049842Y-99494435D01*
X86014420Y-99408919D01*
X85962995Y-99331956D01*
X85897544Y-99266505D01*
X85820581Y-99215080D01*
X85735065Y-99179658D01*
X85644281Y-99161600D01*
X85551719Y-99161600D01*
X85460935Y-99179658D01*
X85375419Y-99215080D01*
X85298456Y-99266505D01*
X85233005Y-99331956D01*
X85181580Y-99408919D01*
X85146158Y-99494435D01*
X85128100Y-99585219D01*
X78154905Y-99585219D01*
X78124995Y-99540456D01*
X78059544Y-99475005D01*
X77982581Y-99423580D01*
X77897065Y-99388158D01*
X77806281Y-99370100D01*
X77713719Y-99370100D01*
X77622935Y-99388158D01*
X77537419Y-99423580D01*
X77460456Y-99475005D01*
X77395005Y-99540456D01*
X77343580Y-99617419D01*
X77308158Y-99702935D01*
X77290100Y-99793719D01*
X66298351Y-99793719D01*
X66288642Y-99744913D01*
X66253220Y-99659397D01*
X66201795Y-99582434D01*
X66136344Y-99516983D01*
X66059381Y-99465558D01*
X65973865Y-99430136D01*
X65883081Y-99412078D01*
X65790519Y-99412078D01*
X65699735Y-99430136D01*
X65614219Y-99465558D01*
X65537256Y-99516983D01*
X65471805Y-99582434D01*
X65420380Y-99659397D01*
X65384958Y-99744913D01*
X65366900Y-99835697D01*
X56678988Y-99835697D01*
X56678988Y-99073718D01*
X59280100Y-99073718D01*
X59280100Y-99166280D01*
X59298158Y-99257064D01*
X59333580Y-99342580D01*
X59385005Y-99419543D01*
X59450456Y-99484994D01*
X59527419Y-99536419D01*
X59612935Y-99571841D01*
X59703719Y-99589899D01*
X59796281Y-99589899D01*
X59887065Y-99571841D01*
X59972581Y-99536419D01*
X60049544Y-99484994D01*
X60114995Y-99419543D01*
X60166420Y-99342580D01*
X60201842Y-99257064D01*
X60219900Y-99166280D01*
X60219900Y-99073718D01*
X60201842Y-98982934D01*
X60166420Y-98897418D01*
X60114995Y-98820455D01*
X60049544Y-98755004D01*
X59996503Y-98719563D01*
X60362993Y-98719563D01*
X60362993Y-98812125D01*
X60381051Y-98902909D01*
X60416473Y-98988425D01*
X60467898Y-99065388D01*
X60533349Y-99130839D01*
X60610312Y-99182264D01*
X60695828Y-99217686D01*
X60786612Y-99235744D01*
X60879174Y-99235744D01*
X60969958Y-99217686D01*
X61055474Y-99182264D01*
X61132437Y-99130839D01*
X61197888Y-99065388D01*
X61249313Y-98988425D01*
X61284735Y-98902909D01*
X61293329Y-98859702D01*
X73454550Y-98859702D01*
X73454550Y-98952264D01*
X73472608Y-99043048D01*
X73508030Y-99128564D01*
X73559455Y-99205527D01*
X73624906Y-99270978D01*
X73701869Y-99322403D01*
X73787385Y-99357825D01*
X73878169Y-99375883D01*
X73970731Y-99375883D01*
X74061515Y-99357825D01*
X74147031Y-99322403D01*
X74223994Y-99270978D01*
X74289445Y-99205527D01*
X74340870Y-99128564D01*
X74341842Y-99126216D01*
X76618174Y-99126216D01*
X76618174Y-99218778D01*
X76636232Y-99309562D01*
X76671654Y-99395078D01*
X76723079Y-99472041D01*
X76788530Y-99537492D01*
X76865493Y-99588917D01*
X76951009Y-99624339D01*
X77041793Y-99642397D01*
X77134355Y-99642397D01*
X77225139Y-99624339D01*
X77310655Y-99588917D01*
X77387618Y-99537492D01*
X77453069Y-99472041D01*
X77504494Y-99395078D01*
X77539916Y-99309562D01*
X77557974Y-99218778D01*
X77557974Y-99126216D01*
X77539916Y-99035432D01*
X77504494Y-98949916D01*
X77453069Y-98872953D01*
X77403335Y-98823219D01*
X98717100Y-98823219D01*
X98717100Y-98915781D01*
X98735158Y-99006565D01*
X98770580Y-99092081D01*
X98822005Y-99169044D01*
X98887456Y-99234495D01*
X98964419Y-99285920D01*
X99049935Y-99321342D01*
X99140719Y-99339400D01*
X99233281Y-99339400D01*
X99324065Y-99321342D01*
X99409581Y-99285920D01*
X99486544Y-99234495D01*
X99551995Y-99169044D01*
X99603420Y-99092081D01*
X99638842Y-99006565D01*
X99656900Y-98915781D01*
X99656900Y-98823219D01*
X99638842Y-98732435D01*
X99603420Y-98646919D01*
X99551995Y-98569956D01*
X99486544Y-98504505D01*
X99409581Y-98453080D01*
X99324065Y-98417658D01*
X99233281Y-98399600D01*
X99140719Y-98399600D01*
X99049935Y-98417658D01*
X98964419Y-98453080D01*
X98887456Y-98504505D01*
X98822005Y-98569956D01*
X98770580Y-98646919D01*
X98735158Y-98732435D01*
X98717100Y-98823219D01*
X77403335Y-98823219D01*
X77387618Y-98807502D01*
X77310655Y-98756077D01*
X77225139Y-98720655D01*
X77134355Y-98702597D01*
X77041793Y-98702597D01*
X76951009Y-98720655D01*
X76865493Y-98756077D01*
X76788530Y-98807502D01*
X76723079Y-98872953D01*
X76671654Y-98949916D01*
X76636232Y-99035432D01*
X76618174Y-99126216D01*
X74341842Y-99126216D01*
X74376292Y-99043048D01*
X74394350Y-98952264D01*
X74394350Y-98859702D01*
X74376292Y-98768918D01*
X74340870Y-98683402D01*
X74289445Y-98606439D01*
X74223994Y-98540988D01*
X74147031Y-98489563D01*
X74061515Y-98454141D01*
X73970731Y-98436083D01*
X73878169Y-98436083D01*
X73787385Y-98454141D01*
X73701869Y-98489563D01*
X73624906Y-98540988D01*
X73559455Y-98606439D01*
X73508030Y-98683402D01*
X73472608Y-98768918D01*
X73454550Y-98859702D01*
X61293329Y-98859702D01*
X61302793Y-98812125D01*
X61302793Y-98719563D01*
X61284735Y-98628779D01*
X61249313Y-98543263D01*
X61197888Y-98466300D01*
X61132437Y-98400849D01*
X61055474Y-98349424D01*
X60969958Y-98314002D01*
X60879174Y-98295944D01*
X60786612Y-98295944D01*
X60695828Y-98314002D01*
X60610312Y-98349424D01*
X60533349Y-98400849D01*
X60467898Y-98466300D01*
X60416473Y-98543263D01*
X60381051Y-98628779D01*
X60362993Y-98719563D01*
X59996503Y-98719563D01*
X59972581Y-98703579D01*
X59887065Y-98668157D01*
X59796281Y-98650099D01*
X59703719Y-98650099D01*
X59612935Y-98668157D01*
X59527419Y-98703579D01*
X59450456Y-98755004D01*
X59385005Y-98820455D01*
X59333580Y-98897418D01*
X59298158Y-98982934D01*
X59280100Y-99073718D01*
X56678988Y-99073718D01*
X56678988Y-98251719D01*
X70777100Y-98251719D01*
X70777100Y-98344281D01*
X70795158Y-98435065D01*
X70830580Y-98520581D01*
X70882005Y-98597544D01*
X70947456Y-98662995D01*
X71024419Y-98714420D01*
X71109935Y-98749842D01*
X71200719Y-98767900D01*
X71293281Y-98767900D01*
X71384065Y-98749842D01*
X71469581Y-98714420D01*
X71546544Y-98662995D01*
X71611995Y-98597544D01*
X71663420Y-98520581D01*
X71698842Y-98435065D01*
X71716900Y-98344281D01*
X71716900Y-98251719D01*
X71698842Y-98160935D01*
X71663420Y-98075419D01*
X71611995Y-97998456D01*
X71602735Y-97989196D01*
X71643444Y-97961995D01*
X71708895Y-97896544D01*
X71760320Y-97819581D01*
X71795742Y-97734065D01*
X71813800Y-97643281D01*
X71813800Y-97550719D01*
X71795742Y-97459935D01*
X71781777Y-97426219D01*
X85128100Y-97426219D01*
X85128100Y-97518781D01*
X85146158Y-97609565D01*
X85181580Y-97695081D01*
X85233005Y-97772044D01*
X85298456Y-97837495D01*
X85375419Y-97888920D01*
X85460935Y-97924342D01*
X85551719Y-97942400D01*
X85644281Y-97942400D01*
X85735065Y-97924342D01*
X85820581Y-97888920D01*
X85897544Y-97837495D01*
X85962995Y-97772044D01*
X85981921Y-97743719D01*
X98780600Y-97743719D01*
X98780600Y-97836281D01*
X98798658Y-97927065D01*
X98834080Y-98012581D01*
X98885505Y-98089544D01*
X98950956Y-98154995D01*
X99027919Y-98206420D01*
X99113435Y-98241842D01*
X99204219Y-98259900D01*
X99296781Y-98259900D01*
X99387565Y-98241842D01*
X99473081Y-98206420D01*
X99550044Y-98154995D01*
X99615495Y-98089544D01*
X99666920Y-98012581D01*
X99702342Y-97927065D01*
X99720400Y-97836281D01*
X99720400Y-97743719D01*
X99702342Y-97652935D01*
X99666920Y-97567419D01*
X99615495Y-97490456D01*
X99550044Y-97425005D01*
X99473081Y-97373580D01*
X99387565Y-97338158D01*
X99296781Y-97320100D01*
X99204219Y-97320100D01*
X99113435Y-97338158D01*
X99027919Y-97373580D01*
X98950956Y-97425005D01*
X98885505Y-97490456D01*
X98834080Y-97567419D01*
X98798658Y-97652935D01*
X98780600Y-97743719D01*
X85981921Y-97743719D01*
X86014420Y-97695081D01*
X86049842Y-97609565D01*
X86067900Y-97518781D01*
X86067900Y-97426219D01*
X86049842Y-97335435D01*
X86014420Y-97249919D01*
X85962995Y-97172956D01*
X85897544Y-97107505D01*
X85820581Y-97056080D01*
X85735065Y-97020658D01*
X85644281Y-97002600D01*
X85551719Y-97002600D01*
X85460935Y-97020658D01*
X85375419Y-97056080D01*
X85298456Y-97107505D01*
X85233005Y-97172956D01*
X85181580Y-97249919D01*
X85146158Y-97335435D01*
X85128100Y-97426219D01*
X71781777Y-97426219D01*
X71760320Y-97374419D01*
X71708895Y-97297456D01*
X71643444Y-97232005D01*
X71566481Y-97180580D01*
X71480965Y-97145158D01*
X71390181Y-97127100D01*
X71297619Y-97127100D01*
X71206835Y-97145158D01*
X71121319Y-97180580D01*
X71044356Y-97232005D01*
X70978905Y-97297456D01*
X70927480Y-97374419D01*
X70892058Y-97459935D01*
X70874000Y-97550719D01*
X70874000Y-97643281D01*
X70892058Y-97734065D01*
X70927480Y-97819581D01*
X70978905Y-97896544D01*
X70988165Y-97905804D01*
X70947456Y-97933005D01*
X70882005Y-97998456D01*
X70830580Y-98075419D01*
X70795158Y-98160935D01*
X70777100Y-98251719D01*
X56678988Y-98251719D01*
X56678988Y-96913238D01*
X56678651Y-96909820D01*
X56678212Y-96889479D01*
X56675572Y-96867462D01*
X56674161Y-96845320D01*
X56673418Y-96840950D01*
X56663539Y-96785187D01*
X56655780Y-96757485D01*
X56648403Y-96729656D01*
X56646825Y-96725513D01*
X56626302Y-96672731D01*
X56613324Y-96647092D01*
X56600671Y-96621204D01*
X56598319Y-96617447D01*
X56573978Y-96579162D01*
X56564470Y-96561563D01*
X56534573Y-96525465D01*
X56169560Y-96163718D01*
X56169560Y-95795533D01*
X57045020Y-95795533D01*
X57045020Y-96015347D01*
X57087904Y-96230936D01*
X57172023Y-96434017D01*
X57294144Y-96616785D01*
X57449575Y-96772216D01*
X57632343Y-96894337D01*
X57835424Y-96978456D01*
X58051013Y-97021340D01*
X58270827Y-97021340D01*
X58486416Y-96978456D01*
X58689497Y-96894337D01*
X58808476Y-96814838D01*
X59941020Y-96814838D01*
X59941020Y-96996042D01*
X59976371Y-97173765D01*
X60045715Y-97341176D01*
X60146387Y-97491842D01*
X60274518Y-97619973D01*
X60425184Y-97720645D01*
X60592595Y-97789989D01*
X60770318Y-97825340D01*
X60951522Y-97825340D01*
X61129245Y-97789989D01*
X61296656Y-97720645D01*
X61396817Y-97653719D01*
X64534096Y-97653719D01*
X64534096Y-97746281D01*
X64552154Y-97837065D01*
X64587576Y-97922581D01*
X64639001Y-97999544D01*
X64704452Y-98064995D01*
X64781415Y-98116420D01*
X64866931Y-98151842D01*
X64957715Y-98169900D01*
X65050277Y-98169900D01*
X65141061Y-98151842D01*
X65226577Y-98116420D01*
X65303540Y-98064995D01*
X65368991Y-97999544D01*
X65420416Y-97922581D01*
X65455838Y-97837065D01*
X65473896Y-97746281D01*
X65473896Y-97653719D01*
X65455838Y-97562935D01*
X65420416Y-97477419D01*
X65368991Y-97400456D01*
X65303540Y-97335005D01*
X65226577Y-97283580D01*
X65141061Y-97248158D01*
X65050277Y-97230100D01*
X64957715Y-97230100D01*
X64866931Y-97248158D01*
X64781415Y-97283580D01*
X64704452Y-97335005D01*
X64639001Y-97400456D01*
X64587576Y-97477419D01*
X64552154Y-97562935D01*
X64534096Y-97653719D01*
X61396817Y-97653719D01*
X61447322Y-97619973D01*
X61575453Y-97491842D01*
X61676125Y-97341176D01*
X61745469Y-97173765D01*
X61780820Y-96996042D01*
X61780820Y-96814838D01*
X61745469Y-96637115D01*
X61719210Y-96573719D01*
X66220098Y-96573719D01*
X66220098Y-96666281D01*
X66238156Y-96757065D01*
X66273578Y-96842581D01*
X66325003Y-96919544D01*
X66390454Y-96984995D01*
X66467417Y-97036420D01*
X66552933Y-97071842D01*
X66643717Y-97089900D01*
X66736279Y-97089900D01*
X66827063Y-97071842D01*
X66912579Y-97036420D01*
X66989542Y-96984995D01*
X67054993Y-96919544D01*
X67106418Y-96842581D01*
X67141840Y-96757065D01*
X67146483Y-96733719D01*
X68630100Y-96733719D01*
X68630100Y-96826281D01*
X68648158Y-96917065D01*
X68683580Y-97002581D01*
X68735005Y-97079544D01*
X68800456Y-97144995D01*
X68877419Y-97196420D01*
X68962935Y-97231842D01*
X69053719Y-97249900D01*
X69146281Y-97249900D01*
X69237065Y-97231842D01*
X69322581Y-97196420D01*
X69399544Y-97144995D01*
X69464995Y-97079544D01*
X69516420Y-97002581D01*
X69551842Y-96917065D01*
X69569900Y-96826281D01*
X69569900Y-96733719D01*
X69551842Y-96642935D01*
X69516420Y-96557419D01*
X69464995Y-96480456D01*
X69399544Y-96415005D01*
X69322581Y-96363580D01*
X69237065Y-96328158D01*
X69146281Y-96310100D01*
X69053719Y-96310100D01*
X68962935Y-96328158D01*
X68877419Y-96363580D01*
X68800456Y-96415005D01*
X68735005Y-96480456D01*
X68683580Y-96557419D01*
X68648158Y-96642935D01*
X68630100Y-96733719D01*
X67146483Y-96733719D01*
X67159898Y-96666281D01*
X67159898Y-96573719D01*
X67141840Y-96482935D01*
X67106418Y-96397419D01*
X67054993Y-96320456D01*
X66989542Y-96255005D01*
X66912579Y-96203580D01*
X66827063Y-96168158D01*
X66736279Y-96150100D01*
X66643717Y-96150100D01*
X66552933Y-96168158D01*
X66467417Y-96203580D01*
X66390454Y-96255005D01*
X66325003Y-96320456D01*
X66273578Y-96397419D01*
X66238156Y-96482935D01*
X66220098Y-96573719D01*
X61719210Y-96573719D01*
X61676125Y-96469704D01*
X61575453Y-96319038D01*
X61447322Y-96190907D01*
X61296656Y-96090235D01*
X61129245Y-96020891D01*
X60951522Y-95985540D01*
X60770318Y-95985540D01*
X60592595Y-96020891D01*
X60425184Y-96090235D01*
X60274518Y-96190907D01*
X60146387Y-96319038D01*
X60045715Y-96469704D01*
X59976371Y-96637115D01*
X59941020Y-96814838D01*
X58808476Y-96814838D01*
X58872265Y-96772216D01*
X59027696Y-96616785D01*
X59149817Y-96434017D01*
X59233936Y-96230936D01*
X59276820Y-96015347D01*
X59276820Y-95795533D01*
X59233936Y-95579944D01*
X59201566Y-95501794D01*
X62025389Y-95501794D01*
X62025389Y-95594356D01*
X62043447Y-95685140D01*
X62078869Y-95770656D01*
X62130294Y-95847619D01*
X62195745Y-95913070D01*
X62272708Y-95964495D01*
X62358224Y-95999917D01*
X62449008Y-96017975D01*
X62541570Y-96017975D01*
X62632354Y-95999917D01*
X62714915Y-95965719D01*
X81254600Y-95965719D01*
X81254600Y-96058281D01*
X81272658Y-96149065D01*
X81308080Y-96234581D01*
X81359505Y-96311544D01*
X81424956Y-96376995D01*
X81501919Y-96428420D01*
X81587435Y-96463842D01*
X81678219Y-96481900D01*
X81770781Y-96481900D01*
X81861565Y-96463842D01*
X81947081Y-96428420D01*
X82024044Y-96376995D01*
X82089495Y-96311544D01*
X82140920Y-96234581D01*
X82176342Y-96149065D01*
X82194400Y-96058281D01*
X82194400Y-95965719D01*
X82176342Y-95874935D01*
X82140920Y-95789419D01*
X82089495Y-95712456D01*
X82025258Y-95648219D01*
X85191600Y-95648219D01*
X85191600Y-95740781D01*
X85209658Y-95831565D01*
X85245080Y-95917081D01*
X85296505Y-95994044D01*
X85361956Y-96059495D01*
X85438919Y-96110920D01*
X85524435Y-96146342D01*
X85615219Y-96164400D01*
X85707781Y-96164400D01*
X85798565Y-96146342D01*
X85884081Y-96110920D01*
X85961044Y-96059495D01*
X86026495Y-95994044D01*
X86077920Y-95917081D01*
X86113342Y-95831565D01*
X86131400Y-95740781D01*
X86131400Y-95648219D01*
X86113342Y-95557435D01*
X86091091Y-95503715D01*
X98750100Y-95503715D01*
X98750100Y-95596277D01*
X98768158Y-95687061D01*
X98803580Y-95772577D01*
X98855005Y-95849540D01*
X98920456Y-95914991D01*
X98997419Y-95966416D01*
X99082935Y-96001838D01*
X99173719Y-96019896D01*
X99266281Y-96019896D01*
X99357065Y-96001838D01*
X99442581Y-95966416D01*
X99519544Y-95914991D01*
X99584995Y-95849540D01*
X99636420Y-95772577D01*
X99671842Y-95687061D01*
X99689900Y-95596277D01*
X99689900Y-95503715D01*
X99671842Y-95412931D01*
X99636420Y-95327415D01*
X99584995Y-95250452D01*
X99519544Y-95185001D01*
X99442581Y-95133576D01*
X99357065Y-95098154D01*
X99266281Y-95080096D01*
X99173719Y-95080096D01*
X99082935Y-95098154D01*
X98997419Y-95133576D01*
X98920456Y-95185001D01*
X98855005Y-95250452D01*
X98803580Y-95327415D01*
X98768158Y-95412931D01*
X98750100Y-95503715D01*
X86091091Y-95503715D01*
X86077920Y-95471919D01*
X86026495Y-95394956D01*
X85961044Y-95329505D01*
X85884081Y-95278080D01*
X85798565Y-95242658D01*
X85707781Y-95224600D01*
X85615219Y-95224600D01*
X85524435Y-95242658D01*
X85438919Y-95278080D01*
X85361956Y-95329505D01*
X85296505Y-95394956D01*
X85245080Y-95471919D01*
X85209658Y-95557435D01*
X85191600Y-95648219D01*
X82025258Y-95648219D01*
X82024044Y-95647005D01*
X81947081Y-95595580D01*
X81861565Y-95560158D01*
X81770781Y-95542100D01*
X81678219Y-95542100D01*
X81587435Y-95560158D01*
X81501919Y-95595580D01*
X81424956Y-95647005D01*
X81359505Y-95712456D01*
X81308080Y-95789419D01*
X81272658Y-95874935D01*
X81254600Y-95965719D01*
X62714915Y-95965719D01*
X62717870Y-95964495D01*
X62794833Y-95913070D01*
X62860284Y-95847619D01*
X62911709Y-95770656D01*
X62947131Y-95685140D01*
X62965189Y-95594356D01*
X62965189Y-95501794D01*
X62947131Y-95411010D01*
X62911709Y-95325494D01*
X62860284Y-95248531D01*
X62794833Y-95183080D01*
X62717870Y-95131655D01*
X62701884Y-95125033D01*
X66143012Y-95125033D01*
X66143012Y-95217595D01*
X66161070Y-95308379D01*
X66196492Y-95393895D01*
X66247917Y-95470858D01*
X66313368Y-95536309D01*
X66390331Y-95587734D01*
X66475847Y-95623156D01*
X66566631Y-95641214D01*
X66659193Y-95641214D01*
X66749977Y-95623156D01*
X66835493Y-95587734D01*
X66912456Y-95536309D01*
X66977907Y-95470858D01*
X67029332Y-95393895D01*
X67064754Y-95308379D01*
X67082812Y-95217595D01*
X67082812Y-95125033D01*
X67064754Y-95034249D01*
X67061305Y-95025921D01*
X67189725Y-95025921D01*
X67189725Y-95118483D01*
X67207783Y-95209267D01*
X67243205Y-95294783D01*
X67294630Y-95371746D01*
X67360081Y-95437197D01*
X67437044Y-95488622D01*
X67522560Y-95524044D01*
X67613344Y-95542102D01*
X67705906Y-95542102D01*
X67796690Y-95524044D01*
X67882206Y-95488622D01*
X67959169Y-95437197D01*
X68024620Y-95371746D01*
X68076045Y-95294783D01*
X68111467Y-95209267D01*
X68129525Y-95118483D01*
X68129525Y-95025921D01*
X68111467Y-94935137D01*
X68076045Y-94849621D01*
X68024620Y-94772658D01*
X68016493Y-94764531D01*
X70374594Y-94764531D01*
X70374594Y-94857093D01*
X70392652Y-94947877D01*
X70428074Y-95033393D01*
X70479499Y-95110356D01*
X70544950Y-95175807D01*
X70621913Y-95227232D01*
X70707429Y-95262654D01*
X70798213Y-95280712D01*
X70890775Y-95280712D01*
X70981559Y-95262654D01*
X71067075Y-95227232D01*
X71144038Y-95175807D01*
X71209489Y-95110356D01*
X71260914Y-95033393D01*
X71296336Y-94947877D01*
X71300059Y-94929159D01*
X83376160Y-94929159D01*
X83376160Y-95021721D01*
X83394218Y-95112505D01*
X83429640Y-95198021D01*
X83481065Y-95274984D01*
X83546516Y-95340435D01*
X83623479Y-95391860D01*
X83708995Y-95427282D01*
X83799779Y-95445340D01*
X83892341Y-95445340D01*
X83983125Y-95427282D01*
X84068641Y-95391860D01*
X84145604Y-95340435D01*
X84211055Y-95274984D01*
X84262480Y-95198021D01*
X84297902Y-95112505D01*
X84315960Y-95021721D01*
X84315960Y-94929159D01*
X84297902Y-94838375D01*
X84262480Y-94752859D01*
X84211055Y-94675896D01*
X84158878Y-94623719D01*
X85140100Y-94623719D01*
X85140100Y-94716281D01*
X85158158Y-94807065D01*
X85193580Y-94892581D01*
X85245005Y-94969544D01*
X85310456Y-95034995D01*
X85387419Y-95086420D01*
X85472935Y-95121842D01*
X85563719Y-95139900D01*
X85656281Y-95139900D01*
X85747065Y-95121842D01*
X85832581Y-95086420D01*
X85909544Y-95034995D01*
X85974995Y-94969544D01*
X86026420Y-94892581D01*
X86061842Y-94807065D01*
X86079900Y-94716281D01*
X86079900Y-94623719D01*
X86061842Y-94532935D01*
X86026420Y-94447419D01*
X85974995Y-94370456D01*
X85909544Y-94305005D01*
X85832581Y-94253580D01*
X85747065Y-94218158D01*
X85656281Y-94200100D01*
X85563719Y-94200100D01*
X85472935Y-94218158D01*
X85387419Y-94253580D01*
X85310456Y-94305005D01*
X85245005Y-94370456D01*
X85193580Y-94447419D01*
X85158158Y-94532935D01*
X85140100Y-94623719D01*
X84158878Y-94623719D01*
X84145604Y-94610445D01*
X84068641Y-94559020D01*
X83983125Y-94523598D01*
X83892341Y-94505540D01*
X83799779Y-94505540D01*
X83708995Y-94523598D01*
X83623479Y-94559020D01*
X83546516Y-94610445D01*
X83481065Y-94675896D01*
X83429640Y-94752859D01*
X83394218Y-94838375D01*
X83376160Y-94929159D01*
X71300059Y-94929159D01*
X71314394Y-94857093D01*
X71314394Y-94764531D01*
X71296336Y-94673747D01*
X71260914Y-94588231D01*
X71209489Y-94511268D01*
X71144038Y-94445817D01*
X71067075Y-94394392D01*
X71028031Y-94378219D01*
X75412600Y-94378219D01*
X75412600Y-94470781D01*
X75430658Y-94561565D01*
X75466080Y-94647081D01*
X75517505Y-94724044D01*
X75582956Y-94789495D01*
X75659919Y-94840920D01*
X75745435Y-94876342D01*
X75836219Y-94894400D01*
X75928781Y-94894400D01*
X76019565Y-94876342D01*
X76105081Y-94840920D01*
X76182044Y-94789495D01*
X76247495Y-94724044D01*
X76298920Y-94647081D01*
X76334342Y-94561565D01*
X76352400Y-94470781D01*
X76352400Y-94378219D01*
X81222600Y-94378219D01*
X81222600Y-94470781D01*
X81240658Y-94561565D01*
X81276080Y-94647081D01*
X81327505Y-94724044D01*
X81392956Y-94789495D01*
X81469919Y-94840920D01*
X81555435Y-94876342D01*
X81646219Y-94894400D01*
X81738781Y-94894400D01*
X81829565Y-94876342D01*
X81915081Y-94840920D01*
X81992044Y-94789495D01*
X82057495Y-94724044D01*
X82108920Y-94647081D01*
X82144342Y-94561565D01*
X82162400Y-94470781D01*
X82162400Y-94378219D01*
X82144342Y-94287435D01*
X82108920Y-94201919D01*
X82057495Y-94124956D01*
X81992044Y-94059505D01*
X81915081Y-94008080D01*
X81829565Y-93972658D01*
X81738781Y-93954600D01*
X81646219Y-93954600D01*
X81555435Y-93972658D01*
X81469919Y-94008080D01*
X81392956Y-94059505D01*
X81327505Y-94124956D01*
X81276080Y-94201919D01*
X81240658Y-94287435D01*
X81222600Y-94378219D01*
X76352400Y-94378219D01*
X76334342Y-94287435D01*
X76298920Y-94201919D01*
X76247495Y-94124956D01*
X76182044Y-94059505D01*
X76105081Y-94008080D01*
X76019565Y-93972658D01*
X75928781Y-93954600D01*
X75836219Y-93954600D01*
X75745435Y-93972658D01*
X75659919Y-94008080D01*
X75582956Y-94059505D01*
X75517505Y-94124956D01*
X75466080Y-94201919D01*
X75430658Y-94287435D01*
X75412600Y-94378219D01*
X71028031Y-94378219D01*
X70981559Y-94358970D01*
X70890775Y-94340912D01*
X70798213Y-94340912D01*
X70707429Y-94358970D01*
X70621913Y-94394392D01*
X70544950Y-94445817D01*
X70479499Y-94511268D01*
X70428074Y-94588231D01*
X70392652Y-94673747D01*
X70374594Y-94764531D01*
X68016493Y-94764531D01*
X67959169Y-94707207D01*
X67882206Y-94655782D01*
X67796690Y-94620360D01*
X67705906Y-94602302D01*
X67613344Y-94602302D01*
X67522560Y-94620360D01*
X67437044Y-94655782D01*
X67360081Y-94707207D01*
X67294630Y-94772658D01*
X67243205Y-94849621D01*
X67207783Y-94935137D01*
X67189725Y-95025921D01*
X67061305Y-95025921D01*
X67029332Y-94948733D01*
X66977907Y-94871770D01*
X66912456Y-94806319D01*
X66835493Y-94754894D01*
X66749977Y-94719472D01*
X66659193Y-94701414D01*
X66566631Y-94701414D01*
X66475847Y-94719472D01*
X66390331Y-94754894D01*
X66313368Y-94806319D01*
X66247917Y-94871770D01*
X66196492Y-94948733D01*
X66161070Y-95034249D01*
X66143012Y-95125033D01*
X62701884Y-95125033D01*
X62632354Y-95096233D01*
X62541570Y-95078175D01*
X62449008Y-95078175D01*
X62358224Y-95096233D01*
X62272708Y-95131655D01*
X62195745Y-95183080D01*
X62130294Y-95248531D01*
X62078869Y-95325494D01*
X62043447Y-95411010D01*
X62025389Y-95501794D01*
X59201566Y-95501794D01*
X59149817Y-95376863D01*
X59027696Y-95194095D01*
X58872265Y-95038664D01*
X58739149Y-94949719D01*
X60794900Y-94949719D01*
X60794900Y-95042281D01*
X60812958Y-95133065D01*
X60848380Y-95218581D01*
X60899805Y-95295544D01*
X60965256Y-95360995D01*
X61042219Y-95412420D01*
X61127735Y-95447842D01*
X61218519Y-95465900D01*
X61311081Y-95465900D01*
X61401865Y-95447842D01*
X61487381Y-95412420D01*
X61564344Y-95360995D01*
X61629795Y-95295544D01*
X61681220Y-95218581D01*
X61716642Y-95133065D01*
X61734700Y-95042281D01*
X61734700Y-94949719D01*
X61716642Y-94858935D01*
X61681220Y-94773419D01*
X61629795Y-94696456D01*
X61564344Y-94631005D01*
X61487381Y-94579580D01*
X61401865Y-94544158D01*
X61311081Y-94526100D01*
X61218519Y-94526100D01*
X61127735Y-94544158D01*
X61042219Y-94579580D01*
X60965256Y-94631005D01*
X60899805Y-94696456D01*
X60848380Y-94773419D01*
X60812958Y-94858935D01*
X60794900Y-94949719D01*
X58739149Y-94949719D01*
X58689497Y-94916543D01*
X58486416Y-94832424D01*
X58270827Y-94789540D01*
X58051013Y-94789540D01*
X57835424Y-94832424D01*
X57632343Y-94916543D01*
X57449575Y-95038664D01*
X57294144Y-95194095D01*
X57172023Y-95376863D01*
X57087904Y-95579944D01*
X57045020Y-95795533D01*
X56169560Y-95795533D01*
X56169560Y-93709437D01*
X59347200Y-93709437D01*
X59347200Y-93801999D01*
X59365258Y-93892783D01*
X59400680Y-93978299D01*
X59452105Y-94055262D01*
X59517556Y-94120713D01*
X59594519Y-94172138D01*
X59680035Y-94207560D01*
X59770819Y-94225618D01*
X59863381Y-94225618D01*
X59954165Y-94207560D01*
X60039681Y-94172138D01*
X60116644Y-94120713D01*
X60182095Y-94055262D01*
X60233520Y-93978299D01*
X60268942Y-93892783D01*
X60287000Y-93801999D01*
X60287000Y-93709437D01*
X60268942Y-93618653D01*
X60233520Y-93533137D01*
X60182095Y-93456174D01*
X60116644Y-93390723D01*
X60039681Y-93339298D01*
X59954165Y-93303876D01*
X59863381Y-93285818D01*
X59770819Y-93285818D01*
X59680035Y-93303876D01*
X59594519Y-93339298D01*
X59517556Y-93390723D01*
X59452105Y-93456174D01*
X59400680Y-93533137D01*
X59365258Y-93618653D01*
X59347200Y-93709437D01*
X56169560Y-93709437D01*
X56169560Y-93163719D01*
X62550100Y-93163719D01*
X62550100Y-93256281D01*
X62568158Y-93347065D01*
X62603580Y-93432581D01*
X62655005Y-93509544D01*
X62720456Y-93574995D01*
X62797419Y-93626420D01*
X62882935Y-93661842D01*
X62973719Y-93679900D01*
X63066281Y-93679900D01*
X63157065Y-93661842D01*
X63242581Y-93626420D01*
X63319544Y-93574995D01*
X63384995Y-93509544D01*
X63436420Y-93432581D01*
X63471842Y-93347065D01*
X63489890Y-93256329D01*
X75450100Y-93256329D01*
X75450100Y-93348891D01*
X75468158Y-93439675D01*
X75503580Y-93525191D01*
X75555005Y-93602154D01*
X75620456Y-93667605D01*
X75697419Y-93719030D01*
X75782935Y-93754452D01*
X75873719Y-93772510D01*
X75966281Y-93772510D01*
X76057065Y-93754452D01*
X76142581Y-93719030D01*
X76219544Y-93667605D01*
X76284995Y-93602154D01*
X76336420Y-93525191D01*
X76371842Y-93439675D01*
X76389900Y-93348891D01*
X76389900Y-93256329D01*
X76385403Y-93233719D01*
X79920100Y-93233719D01*
X79920100Y-93326281D01*
X79938158Y-93417065D01*
X79973580Y-93502581D01*
X80025005Y-93579544D01*
X80090456Y-93644995D01*
X80167419Y-93696420D01*
X80252935Y-93731842D01*
X80343719Y-93749900D01*
X80436281Y-93749900D01*
X80527065Y-93731842D01*
X80612581Y-93696420D01*
X80689544Y-93644995D01*
X80754995Y-93579544D01*
X80806420Y-93502581D01*
X80841842Y-93417065D01*
X80859900Y-93326281D01*
X80859900Y-93283721D01*
X100850100Y-93283721D01*
X100850100Y-93376283D01*
X100868158Y-93467067D01*
X100903580Y-93552583D01*
X100955005Y-93629546D01*
X101020456Y-93694997D01*
X101097419Y-93746422D01*
X101182935Y-93781844D01*
X101273719Y-93799902D01*
X101366281Y-93799902D01*
X101457065Y-93781844D01*
X101542581Y-93746422D01*
X101619544Y-93694997D01*
X101684995Y-93629546D01*
X101736420Y-93552583D01*
X101771842Y-93467067D01*
X101789900Y-93376283D01*
X101789900Y-93283721D01*
X101771842Y-93192937D01*
X101736420Y-93107421D01*
X101684995Y-93030458D01*
X101619544Y-92965007D01*
X101542581Y-92913582D01*
X101457065Y-92878160D01*
X101366281Y-92860102D01*
X101273719Y-92860102D01*
X101182935Y-92878160D01*
X101097419Y-92913582D01*
X101020456Y-92965007D01*
X100955005Y-93030458D01*
X100903580Y-93107421D01*
X100868158Y-93192937D01*
X100850100Y-93283721D01*
X80859900Y-93283721D01*
X80859900Y-93233719D01*
X80841842Y-93142935D01*
X80806420Y-93057419D01*
X80754995Y-92980456D01*
X80689544Y-92915005D01*
X80612581Y-92863580D01*
X80527065Y-92828158D01*
X80436281Y-92810100D01*
X80343719Y-92810100D01*
X80252935Y-92828158D01*
X80167419Y-92863580D01*
X80090456Y-92915005D01*
X80025005Y-92980456D01*
X79973580Y-93057419D01*
X79938158Y-93142935D01*
X79920100Y-93233719D01*
X76385403Y-93233719D01*
X76371842Y-93165545D01*
X76336420Y-93080029D01*
X76284995Y-93003066D01*
X76219544Y-92937615D01*
X76142581Y-92886190D01*
X76057065Y-92850768D01*
X75966281Y-92832710D01*
X75873719Y-92832710D01*
X75782935Y-92850768D01*
X75697419Y-92886190D01*
X75620456Y-92937615D01*
X75555005Y-93003066D01*
X75503580Y-93080029D01*
X75468158Y-93165545D01*
X75450100Y-93256329D01*
X63489890Y-93256329D01*
X63489900Y-93256281D01*
X63489900Y-93163719D01*
X63471842Y-93072935D01*
X63436420Y-92987419D01*
X63384995Y-92910456D01*
X63319544Y-92845005D01*
X63242581Y-92793580D01*
X63157065Y-92758158D01*
X63066281Y-92740100D01*
X62973719Y-92740100D01*
X62882935Y-92758158D01*
X62797419Y-92793580D01*
X62720456Y-92845005D01*
X62655005Y-92910456D01*
X62603580Y-92987419D01*
X62568158Y-93072935D01*
X62550100Y-93163719D01*
X56169560Y-93163719D01*
X56169560Y-92543719D01*
X68800100Y-92543719D01*
X68800100Y-92636281D01*
X68818158Y-92727065D01*
X68853580Y-92812581D01*
X68905005Y-92889544D01*
X68970456Y-92954995D01*
X69047419Y-93006420D01*
X69132935Y-93041842D01*
X69223719Y-93059900D01*
X69316281Y-93059900D01*
X69407065Y-93041842D01*
X69492581Y-93006420D01*
X69569544Y-92954995D01*
X69634995Y-92889544D01*
X69686420Y-92812581D01*
X69721842Y-92727065D01*
X69739900Y-92636281D01*
X69739900Y-92543719D01*
X69721842Y-92452935D01*
X69686420Y-92367419D01*
X69634995Y-92290456D01*
X69569544Y-92225005D01*
X69492581Y-92173580D01*
X69407065Y-92138158D01*
X69316281Y-92120100D01*
X69223719Y-92120100D01*
X69132935Y-92138158D01*
X69047419Y-92173580D01*
X68970456Y-92225005D01*
X68905005Y-92290456D01*
X68853580Y-92367419D01*
X68818158Y-92452935D01*
X68800100Y-92543719D01*
X56169560Y-92543719D01*
X56169560Y-90308649D01*
X56604100Y-90308649D01*
X56604100Y-90666351D01*
X56673884Y-91017178D01*
X56810771Y-91347651D01*
X57009499Y-91645069D01*
X57262431Y-91898001D01*
X57559849Y-92096729D01*
X57890322Y-92233616D01*
X58241149Y-92303400D01*
X58598851Y-92303400D01*
X58949678Y-92233616D01*
X59280151Y-92096729D01*
X59577569Y-91898001D01*
X59830501Y-91645069D01*
X60018492Y-91363719D01*
X70620098Y-91363719D01*
X70620098Y-91456281D01*
X70638156Y-91547065D01*
X70673578Y-91632581D01*
X70725003Y-91709544D01*
X70790454Y-91774995D01*
X70867417Y-91826420D01*
X70952933Y-91861842D01*
X71043717Y-91879900D01*
X71136279Y-91879900D01*
X71227063Y-91861842D01*
X71284093Y-91838219D01*
X75412600Y-91838219D01*
X75412600Y-91930781D01*
X75430658Y-92021565D01*
X75466080Y-92107081D01*
X75517505Y-92184044D01*
X75582956Y-92249495D01*
X75659919Y-92300920D01*
X75745435Y-92336342D01*
X75836219Y-92354400D01*
X75928781Y-92354400D01*
X76019565Y-92336342D01*
X76105081Y-92300920D01*
X76182044Y-92249495D01*
X76247495Y-92184044D01*
X76298920Y-92107081D01*
X76329307Y-92033719D01*
X79920100Y-92033719D01*
X79920100Y-92126281D01*
X79938158Y-92217065D01*
X79973580Y-92302581D01*
X80025005Y-92379544D01*
X80090456Y-92444995D01*
X80167419Y-92496420D01*
X80252935Y-92531842D01*
X80343719Y-92549900D01*
X80436281Y-92549900D01*
X80527065Y-92531842D01*
X80612581Y-92496420D01*
X80689544Y-92444995D01*
X80754995Y-92379544D01*
X80806420Y-92302581D01*
X80841842Y-92217065D01*
X80859900Y-92126281D01*
X80859900Y-92033719D01*
X80841842Y-91942935D01*
X80809030Y-91863719D01*
X81010100Y-91863719D01*
X81010100Y-91956281D01*
X81028158Y-92047065D01*
X81063580Y-92132581D01*
X81115005Y-92209544D01*
X81180456Y-92274995D01*
X81257419Y-92326420D01*
X81342935Y-92361842D01*
X81433719Y-92379900D01*
X81526281Y-92379900D01*
X81617065Y-92361842D01*
X81702581Y-92326420D01*
X81779544Y-92274995D01*
X81844995Y-92209544D01*
X81896420Y-92132581D01*
X81931842Y-92047065D01*
X81949900Y-91956281D01*
X81949900Y-91863719D01*
X81931842Y-91772935D01*
X81896420Y-91687419D01*
X81844995Y-91610456D01*
X81779544Y-91545005D01*
X81702581Y-91493580D01*
X81617065Y-91458158D01*
X81526281Y-91440100D01*
X81433719Y-91440100D01*
X81342935Y-91458158D01*
X81257419Y-91493580D01*
X81180456Y-91545005D01*
X81115005Y-91610456D01*
X81063580Y-91687419D01*
X81028158Y-91772935D01*
X81010100Y-91863719D01*
X80809030Y-91863719D01*
X80806420Y-91857419D01*
X80754995Y-91780456D01*
X80689544Y-91715005D01*
X80612581Y-91663580D01*
X80527065Y-91628158D01*
X80436281Y-91610100D01*
X80343719Y-91610100D01*
X80252935Y-91628158D01*
X80167419Y-91663580D01*
X80090456Y-91715005D01*
X80025005Y-91780456D01*
X79973580Y-91857419D01*
X79938158Y-91942935D01*
X79920100Y-92033719D01*
X76329307Y-92033719D01*
X76334342Y-92021565D01*
X76352400Y-91930781D01*
X76352400Y-91838219D01*
X76334342Y-91747435D01*
X76298920Y-91661919D01*
X76247495Y-91584956D01*
X76182044Y-91519505D01*
X76105081Y-91468080D01*
X76019565Y-91432658D01*
X75928781Y-91414600D01*
X75836219Y-91414600D01*
X75745435Y-91432658D01*
X75659919Y-91468080D01*
X75582956Y-91519505D01*
X75517505Y-91584956D01*
X75466080Y-91661919D01*
X75430658Y-91747435D01*
X75412600Y-91838219D01*
X71284093Y-91838219D01*
X71312579Y-91826420D01*
X71389542Y-91774995D01*
X71454993Y-91709544D01*
X71506418Y-91632581D01*
X71541840Y-91547065D01*
X71559898Y-91456281D01*
X71559898Y-91363719D01*
X71541840Y-91272935D01*
X71506418Y-91187419D01*
X71454993Y-91110456D01*
X71389542Y-91045005D01*
X71312579Y-90993580D01*
X71227063Y-90958158D01*
X71136279Y-90940100D01*
X71043717Y-90940100D01*
X70952933Y-90958158D01*
X70867417Y-90993580D01*
X70790454Y-91045005D01*
X70725003Y-91110456D01*
X70673578Y-91187419D01*
X70638156Y-91272935D01*
X70620098Y-91363719D01*
X60018492Y-91363719D01*
X60029229Y-91347651D01*
X60166116Y-91017178D01*
X60218008Y-90756298D01*
X72070379Y-90756298D01*
X72070379Y-90848860D01*
X72088437Y-90939644D01*
X72123859Y-91025160D01*
X72175284Y-91102123D01*
X72240735Y-91167574D01*
X72317698Y-91218999D01*
X72403214Y-91254421D01*
X72493998Y-91272479D01*
X72586560Y-91272479D01*
X72677344Y-91254421D01*
X72762860Y-91218999D01*
X72839823Y-91167574D01*
X72905274Y-91102123D01*
X72921544Y-91077773D01*
X100000100Y-91077773D01*
X100000100Y-91170335D01*
X100018158Y-91261119D01*
X100053580Y-91346635D01*
X100105005Y-91423598D01*
X100170456Y-91489049D01*
X100247419Y-91540474D01*
X100332935Y-91575896D01*
X100423719Y-91593954D01*
X100516281Y-91593954D01*
X100607065Y-91575896D01*
X100692581Y-91540474D01*
X100769544Y-91489049D01*
X100834995Y-91423598D01*
X100886420Y-91346635D01*
X100921842Y-91261119D01*
X100939900Y-91170335D01*
X100939900Y-91077773D01*
X100921842Y-90986989D01*
X100886420Y-90901473D01*
X100834995Y-90824510D01*
X100769544Y-90759059D01*
X100692581Y-90707634D01*
X100607065Y-90672212D01*
X100516281Y-90654154D01*
X100423719Y-90654154D01*
X100332935Y-90672212D01*
X100247419Y-90707634D01*
X100170456Y-90759059D01*
X100105005Y-90824510D01*
X100053580Y-90901473D01*
X100018158Y-90986989D01*
X100000100Y-91077773D01*
X72921544Y-91077773D01*
X72956699Y-91025160D01*
X72992121Y-90939644D01*
X73010179Y-90848860D01*
X73010179Y-90756298D01*
X72992121Y-90665514D01*
X72956699Y-90579998D01*
X72905274Y-90503035D01*
X72839823Y-90437584D01*
X72762860Y-90386159D01*
X72677344Y-90350737D01*
X72586560Y-90332679D01*
X72493998Y-90332679D01*
X72403214Y-90350737D01*
X72317698Y-90386159D01*
X72240735Y-90437584D01*
X72175284Y-90503035D01*
X72123859Y-90579998D01*
X72088437Y-90665514D01*
X72070379Y-90756298D01*
X60218008Y-90756298D01*
X60235900Y-90666351D01*
X60235900Y-90308649D01*
X60166116Y-89957822D01*
X60029229Y-89627349D01*
X59830501Y-89329931D01*
X59746010Y-89245440D01*
X68905943Y-89245440D01*
X68926523Y-89454393D01*
X68987472Y-89655316D01*
X69086449Y-89840487D01*
X69219648Y-90002792D01*
X69381953Y-90135991D01*
X69567124Y-90234968D01*
X69768047Y-90295917D01*
X69924640Y-90311340D01*
X70029360Y-90311340D01*
X70185953Y-90295917D01*
X70386876Y-90234968D01*
X70572047Y-90135991D01*
X70734352Y-90002792D01*
X70867551Y-89840487D01*
X70966528Y-89655316D01*
X71027477Y-89454393D01*
X71048057Y-89245440D01*
X71445943Y-89245440D01*
X71466523Y-89454393D01*
X71527472Y-89655316D01*
X71626449Y-89840487D01*
X71759648Y-90002792D01*
X71921953Y-90135991D01*
X72107124Y-90234968D01*
X72308047Y-90295917D01*
X72464640Y-90311340D01*
X72569360Y-90311340D01*
X72725953Y-90295917D01*
X72926876Y-90234968D01*
X73112047Y-90135991D01*
X73274352Y-90002792D01*
X73407551Y-89840487D01*
X73506528Y-89655316D01*
X73567477Y-89454393D01*
X73588057Y-89245440D01*
X73985943Y-89245440D01*
X74006523Y-89454393D01*
X74067472Y-89655316D01*
X74166449Y-89840487D01*
X74299648Y-90002792D01*
X74461953Y-90135991D01*
X74647124Y-90234968D01*
X74848047Y-90295917D01*
X75004640Y-90311340D01*
X75109360Y-90311340D01*
X75265953Y-90295917D01*
X75466876Y-90234968D01*
X75652047Y-90135991D01*
X75814352Y-90002792D01*
X75947551Y-89840487D01*
X76046528Y-89655316D01*
X76107477Y-89454393D01*
X76128057Y-89245440D01*
X76525943Y-89245440D01*
X76546523Y-89454393D01*
X76607472Y-89655316D01*
X76706449Y-89840487D01*
X76839648Y-90002792D01*
X77001953Y-90135991D01*
X77187124Y-90234968D01*
X77388047Y-90295917D01*
X77544640Y-90311340D01*
X77649360Y-90311340D01*
X77805953Y-90295917D01*
X78006876Y-90234968D01*
X78192047Y-90135991D01*
X78354352Y-90002792D01*
X78487551Y-89840487D01*
X78586528Y-89655316D01*
X78647477Y-89454393D01*
X78668057Y-89245440D01*
X79065943Y-89245440D01*
X79086523Y-89454393D01*
X79147472Y-89655316D01*
X79246449Y-89840487D01*
X79379648Y-90002792D01*
X79541953Y-90135991D01*
X79727124Y-90234968D01*
X79928047Y-90295917D01*
X80084640Y-90311340D01*
X80189360Y-90311340D01*
X80345953Y-90295917D01*
X80546876Y-90234968D01*
X80732047Y-90135991D01*
X80894352Y-90002792D01*
X81027551Y-89840487D01*
X81126528Y-89655316D01*
X81187477Y-89454393D01*
X81208057Y-89245440D01*
X81605943Y-89245440D01*
X81626523Y-89454393D01*
X81687472Y-89655316D01*
X81786449Y-89840487D01*
X81919648Y-90002792D01*
X82081953Y-90135991D01*
X82267124Y-90234968D01*
X82468047Y-90295917D01*
X82624640Y-90311340D01*
X82729360Y-90311340D01*
X82885953Y-90295917D01*
X83086876Y-90234968D01*
X83272047Y-90135991D01*
X83434352Y-90002792D01*
X83567551Y-89840487D01*
X83666528Y-89655316D01*
X83727477Y-89454393D01*
X83748057Y-89245440D01*
X84145943Y-89245440D01*
X84166523Y-89454393D01*
X84227472Y-89655316D01*
X84326449Y-89840487D01*
X84459648Y-90002792D01*
X84621953Y-90135991D01*
X84807124Y-90234968D01*
X85008047Y-90295917D01*
X85164640Y-90311340D01*
X85269360Y-90311340D01*
X85425953Y-90295917D01*
X85626876Y-90234968D01*
X85812047Y-90135991D01*
X85974352Y-90002792D01*
X86107551Y-89840487D01*
X86206528Y-89655316D01*
X86267477Y-89454393D01*
X86288057Y-89245440D01*
X86685943Y-89245440D01*
X86706523Y-89454393D01*
X86767472Y-89655316D01*
X86866449Y-89840487D01*
X86999648Y-90002792D01*
X87161953Y-90135991D01*
X87347124Y-90234968D01*
X87548047Y-90295917D01*
X87704640Y-90311340D01*
X87809360Y-90311340D01*
X87965953Y-90295917D01*
X88166876Y-90234968D01*
X88352047Y-90135991D01*
X88514352Y-90002792D01*
X88647551Y-89840487D01*
X88746528Y-89655316D01*
X88807477Y-89454393D01*
X88828057Y-89245440D01*
X89225943Y-89245440D01*
X89246523Y-89454393D01*
X89307472Y-89655316D01*
X89406449Y-89840487D01*
X89539648Y-90002792D01*
X89701953Y-90135991D01*
X89887124Y-90234968D01*
X90088047Y-90295917D01*
X90244640Y-90311340D01*
X90349360Y-90311340D01*
X90505953Y-90295917D01*
X90706876Y-90234968D01*
X90892047Y-90135991D01*
X91054352Y-90002792D01*
X91187551Y-89840487D01*
X91286528Y-89655316D01*
X91347477Y-89454393D01*
X91368057Y-89245440D01*
X91765943Y-89245440D01*
X91786523Y-89454393D01*
X91847472Y-89655316D01*
X91946449Y-89840487D01*
X92079648Y-90002792D01*
X92241953Y-90135991D01*
X92427124Y-90234968D01*
X92628047Y-90295917D01*
X92784640Y-90311340D01*
X92889360Y-90311340D01*
X93045953Y-90295917D01*
X93246876Y-90234968D01*
X93432047Y-90135991D01*
X93594352Y-90002792D01*
X93727551Y-89840487D01*
X93826528Y-89655316D01*
X93887477Y-89454393D01*
X93908057Y-89245440D01*
X94305943Y-89245440D01*
X94326523Y-89454393D01*
X94387472Y-89655316D01*
X94486449Y-89840487D01*
X94619648Y-90002792D01*
X94781953Y-90135991D01*
X94967124Y-90234968D01*
X95168047Y-90295917D01*
X95324640Y-90311340D01*
X95429360Y-90311340D01*
X95585953Y-90295917D01*
X95786876Y-90234968D01*
X95972047Y-90135991D01*
X96134352Y-90002792D01*
X96267551Y-89840487D01*
X96366528Y-89655316D01*
X96427477Y-89454393D01*
X96448057Y-89245440D01*
X96845943Y-89245440D01*
X96866523Y-89454393D01*
X96927472Y-89655316D01*
X97026449Y-89840487D01*
X97159648Y-90002792D01*
X97321953Y-90135991D01*
X97507124Y-90234968D01*
X97708047Y-90295917D01*
X97864640Y-90311340D01*
X97969360Y-90311340D01*
X98125953Y-90295917D01*
X98326876Y-90234968D01*
X98512047Y-90135991D01*
X98674352Y-90002792D01*
X98807551Y-89840487D01*
X98906528Y-89655316D01*
X98967477Y-89454393D01*
X98988057Y-89245440D01*
X99385943Y-89245440D01*
X99406523Y-89454393D01*
X99467472Y-89655316D01*
X99566449Y-89840487D01*
X99699648Y-90002792D01*
X99861953Y-90135991D01*
X100047124Y-90234968D01*
X100248047Y-90295917D01*
X100404640Y-90311340D01*
X100509360Y-90311340D01*
X100665953Y-90295917D01*
X100866876Y-90234968D01*
X101052047Y-90135991D01*
X101214352Y-90002792D01*
X101347551Y-89840487D01*
X101446528Y-89655316D01*
X101507477Y-89454393D01*
X101528057Y-89245440D01*
X101507477Y-89036487D01*
X101446528Y-88835564D01*
X101347551Y-88650393D01*
X101214352Y-88488088D01*
X101052047Y-88354889D01*
X100866876Y-88255912D01*
X100665953Y-88194963D01*
X100509360Y-88179540D01*
X100404640Y-88179540D01*
X100248047Y-88194963D01*
X100047124Y-88255912D01*
X99861953Y-88354889D01*
X99699648Y-88488088D01*
X99566449Y-88650393D01*
X99467472Y-88835564D01*
X99406523Y-89036487D01*
X99385943Y-89245440D01*
X98988057Y-89245440D01*
X98967477Y-89036487D01*
X98906528Y-88835564D01*
X98807551Y-88650393D01*
X98674352Y-88488088D01*
X98512047Y-88354889D01*
X98326876Y-88255912D01*
X98125953Y-88194963D01*
X97969360Y-88179540D01*
X97864640Y-88179540D01*
X97708047Y-88194963D01*
X97507124Y-88255912D01*
X97321953Y-88354889D01*
X97159648Y-88488088D01*
X97026449Y-88650393D01*
X96927472Y-88835564D01*
X96866523Y-89036487D01*
X96845943Y-89245440D01*
X96448057Y-89245440D01*
X96427477Y-89036487D01*
X96366528Y-88835564D01*
X96267551Y-88650393D01*
X96134352Y-88488088D01*
X95972047Y-88354889D01*
X95786876Y-88255912D01*
X95585953Y-88194963D01*
X95429360Y-88179540D01*
X95324640Y-88179540D01*
X95168047Y-88194963D01*
X94967124Y-88255912D01*
X94781953Y-88354889D01*
X94619648Y-88488088D01*
X94486449Y-88650393D01*
X94387472Y-88835564D01*
X94326523Y-89036487D01*
X94305943Y-89245440D01*
X93908057Y-89245440D01*
X93887477Y-89036487D01*
X93826528Y-88835564D01*
X93727551Y-88650393D01*
X93594352Y-88488088D01*
X93432047Y-88354889D01*
X93246876Y-88255912D01*
X93045953Y-88194963D01*
X92889360Y-88179540D01*
X92784640Y-88179540D01*
X92628047Y-88194963D01*
X92427124Y-88255912D01*
X92241953Y-88354889D01*
X92079648Y-88488088D01*
X91946449Y-88650393D01*
X91847472Y-88835564D01*
X91786523Y-89036487D01*
X91765943Y-89245440D01*
X91368057Y-89245440D01*
X91347477Y-89036487D01*
X91286528Y-88835564D01*
X91187551Y-88650393D01*
X91054352Y-88488088D01*
X90892047Y-88354889D01*
X90706876Y-88255912D01*
X90505953Y-88194963D01*
X90349360Y-88179540D01*
X90244640Y-88179540D01*
X90088047Y-88194963D01*
X89887124Y-88255912D01*
X89701953Y-88354889D01*
X89539648Y-88488088D01*
X89406449Y-88650393D01*
X89307472Y-88835564D01*
X89246523Y-89036487D01*
X89225943Y-89245440D01*
X88828057Y-89245440D01*
X88807477Y-89036487D01*
X88746528Y-88835564D01*
X88647551Y-88650393D01*
X88514352Y-88488088D01*
X88352047Y-88354889D01*
X88166876Y-88255912D01*
X87965953Y-88194963D01*
X87809360Y-88179540D01*
X87704640Y-88179540D01*
X87548047Y-88194963D01*
X87347124Y-88255912D01*
X87161953Y-88354889D01*
X86999648Y-88488088D01*
X86866449Y-88650393D01*
X86767472Y-88835564D01*
X86706523Y-89036487D01*
X86685943Y-89245440D01*
X86288057Y-89245440D01*
X86267477Y-89036487D01*
X86206528Y-88835564D01*
X86107551Y-88650393D01*
X85974352Y-88488088D01*
X85812047Y-88354889D01*
X85626876Y-88255912D01*
X85425953Y-88194963D01*
X85269360Y-88179540D01*
X85164640Y-88179540D01*
X85008047Y-88194963D01*
X84807124Y-88255912D01*
X84621953Y-88354889D01*
X84459648Y-88488088D01*
X84326449Y-88650393D01*
X84227472Y-88835564D01*
X84166523Y-89036487D01*
X84145943Y-89245440D01*
X83748057Y-89245440D01*
X83727477Y-89036487D01*
X83666528Y-88835564D01*
X83567551Y-88650393D01*
X83434352Y-88488088D01*
X83272047Y-88354889D01*
X83086876Y-88255912D01*
X82885953Y-88194963D01*
X82729360Y-88179540D01*
X82624640Y-88179540D01*
X82468047Y-88194963D01*
X82267124Y-88255912D01*
X82081953Y-88354889D01*
X81919648Y-88488088D01*
X81786449Y-88650393D01*
X81687472Y-88835564D01*
X81626523Y-89036487D01*
X81605943Y-89245440D01*
X81208057Y-89245440D01*
X81187477Y-89036487D01*
X81126528Y-88835564D01*
X81027551Y-88650393D01*
X80894352Y-88488088D01*
X80732047Y-88354889D01*
X80546876Y-88255912D01*
X80345953Y-88194963D01*
X80189360Y-88179540D01*
X80084640Y-88179540D01*
X79928047Y-88194963D01*
X79727124Y-88255912D01*
X79541953Y-88354889D01*
X79379648Y-88488088D01*
X79246449Y-88650393D01*
X79147472Y-88835564D01*
X79086523Y-89036487D01*
X79065943Y-89245440D01*
X78668057Y-89245440D01*
X78647477Y-89036487D01*
X78586528Y-88835564D01*
X78487551Y-88650393D01*
X78354352Y-88488088D01*
X78192047Y-88354889D01*
X78006876Y-88255912D01*
X77805953Y-88194963D01*
X77649360Y-88179540D01*
X77544640Y-88179540D01*
X77388047Y-88194963D01*
X77187124Y-88255912D01*
X77001953Y-88354889D01*
X76839648Y-88488088D01*
X76706449Y-88650393D01*
X76607472Y-88835564D01*
X76546523Y-89036487D01*
X76525943Y-89245440D01*
X76128057Y-89245440D01*
X76107477Y-89036487D01*
X76046528Y-88835564D01*
X75947551Y-88650393D01*
X75814352Y-88488088D01*
X75652047Y-88354889D01*
X75466876Y-88255912D01*
X75265953Y-88194963D01*
X75109360Y-88179540D01*
X75004640Y-88179540D01*
X74848047Y-88194963D01*
X74647124Y-88255912D01*
X74461953Y-88354889D01*
X74299648Y-88488088D01*
X74166449Y-88650393D01*
X74067472Y-88835564D01*
X74006523Y-89036487D01*
X73985943Y-89245440D01*
X73588057Y-89245440D01*
X73567477Y-89036487D01*
X73506528Y-88835564D01*
X73407551Y-88650393D01*
X73274352Y-88488088D01*
X73112047Y-88354889D01*
X72926876Y-88255912D01*
X72725953Y-88194963D01*
X72569360Y-88179540D01*
X72464640Y-88179540D01*
X72308047Y-88194963D01*
X72107124Y-88255912D01*
X71921953Y-88354889D01*
X71759648Y-88488088D01*
X71626449Y-88650393D01*
X71527472Y-88835564D01*
X71466523Y-89036487D01*
X71445943Y-89245440D01*
X71048057Y-89245440D01*
X71027477Y-89036487D01*
X70966528Y-88835564D01*
X70867551Y-88650393D01*
X70734352Y-88488088D01*
X70572047Y-88354889D01*
X70386876Y-88255912D01*
X70185953Y-88194963D01*
X70029360Y-88179540D01*
X69924640Y-88179540D01*
X69768047Y-88194963D01*
X69567124Y-88255912D01*
X69381953Y-88354889D01*
X69219648Y-88488088D01*
X69086449Y-88650393D01*
X68987472Y-88835564D01*
X68926523Y-89036487D01*
X68905943Y-89245440D01*
X59746010Y-89245440D01*
X59577569Y-89076999D01*
X59280151Y-88878271D01*
X58949678Y-88741384D01*
X58598851Y-88671600D01*
X58241149Y-88671600D01*
X57890322Y-88741384D01*
X57559849Y-88878271D01*
X57262431Y-89076999D01*
X57009499Y-89329931D01*
X56810771Y-89627349D01*
X56673884Y-89957822D01*
X56604100Y-90308649D01*
X56169560Y-90308649D01*
X56169560Y-90151972D01*
X56213381Y-89705048D01*
X56338664Y-89290092D01*
X56542161Y-88907369D01*
X56816119Y-88571464D01*
X57150106Y-88295166D01*
X57531395Y-88089004D01*
X57945470Y-87960826D01*
X58391525Y-87913944D01*
X58392598Y-87913940D01*
X103186500Y-87913940D01*
X103186500Y-88193047D01*
M02*
