%TF.GenerationSoftware,KiCad,Pcbnew,(6.0.0-rc1-dev-1614-ge850a482d)*%
%TF.CreationDate,2019-03-08T08:34:45-08:00*%
%TF.ProjectId,SAM32,53414d33-322e-46b6-9963-61645f706362,rev?*%
%TF.SameCoordinates,Original*%
%TF.FileFunction,Paste,Bot*%
%TF.FilePolarity,Positive*%
%FSLAX46Y46*%
G04 Gerber Fmt 4.6, Leading zero omitted, Abs format (unit mm)*
G04 Created by KiCad (PCBNEW (6.0.0-rc1-dev-1614-ge850a482d)) date 2019-03-08 08:34:45*
%MOMM*%
%LPD*%
G04 APERTURE LIST*
%ADD10C,0.508000*%
%ADD11R,1.240000X0.800000*%
%ADD12R,2.500000X0.950000*%
%ADD13R,2.200000X1.150000*%
%ADD14R,1.250000X1.160000*%
%ADD15R,1.200000X1.160000*%
%ADD16R,1.150000X1.500000*%
%ADD17C,0.150000*%
%ADD18C,0.590000*%
%ADD19R,1.470000X0.280000*%
%ADD20R,0.280000X1.470000*%
%ADD21C,0.500000*%
%ADD22R,1.800000X1.000000*%
G04 APERTURE END LIST*
D10*
X109192060Y-106945080D02*
X109192060Y-108498640D01*
X106652060Y-111038640D02*
G75*
G03X109192060Y-108498640I0J2540000D01*
G01*
X103755076Y-102181768D02*
X109192060Y-106945080D01*
X55852060Y-96296067D02*
X56300000Y-96740000D01*
X103758052Y-96469398D02*
X109220013Y-91690000D01*
X103758039Y-96469407D02*
G75*
G03X103628512Y-96721166I160472J-241760D01*
G01*
X103755063Y-102181759D02*
G75*
G02X103625536Y-101930000I160472J241760D01*
G01*
X103625536Y-101930000D02*
X103628512Y-96721166D01*
X55852060Y-102438136D02*
X56300000Y-101994203D01*
X56300000Y-101994203D02*
G75*
G03X56361488Y-101805369I-228511J178835D01*
G01*
X56300000Y-96740000D02*
G75*
G02X56361488Y-96928834I-228511J-178835D01*
G01*
X108205221Y-90615720D02*
G75*
G03X108205221Y-90615720I-1652221J0D01*
G01*
X108205221Y-108205220D02*
G75*
G03X108205221Y-108205220I-1652221J0D01*
G01*
X109220013Y-90136440D02*
X109220013Y-91690000D01*
X55852060Y-90136440D02*
X55852060Y-96296067D01*
X106680013Y-87596440D02*
G75*
G02X109220013Y-90136440I0J-2540000D01*
G01*
X55852060Y-102438136D02*
X55852060Y-108498640D01*
X106680013Y-87596440D02*
X58392060Y-87596440D01*
X58392060Y-111038640D02*
X106652060Y-111038640D01*
X55852060Y-90136440D02*
G75*
G02X58392060Y-87596440I2540000J0D01*
G01*
X56361488Y-96928834D02*
X56361488Y-101805369D01*
X58392060Y-111038640D02*
G75*
G02X55852060Y-108498640I0J2540000D01*
G01*
D11*
X100410500Y-102150500D03*
X100410500Y-101050500D03*
X100410500Y-99950500D03*
X100410500Y-98850500D03*
X100410500Y-97750500D03*
X100410500Y-96650500D03*
X100410500Y-95550500D03*
X100410500Y-94450500D03*
D12*
X99780500Y-106495500D03*
D13*
X99930500Y-92105500D03*
D14*
X97780500Y-92510500D03*
D15*
X88780500Y-92510500D03*
D13*
X88450500Y-106395500D03*
D16*
X87655500Y-102090500D03*
X87655500Y-94310500D03*
D17*
G36*
X84126958Y-104270710D02*
G01*
X84141276Y-104272834D01*
X84155317Y-104276351D01*
X84168946Y-104281228D01*
X84182031Y-104287417D01*
X84194447Y-104294858D01*
X84206073Y-104303481D01*
X84216798Y-104313202D01*
X84226519Y-104323927D01*
X84235142Y-104335553D01*
X84242583Y-104347969D01*
X84248772Y-104361054D01*
X84253649Y-104374683D01*
X84257166Y-104388724D01*
X84259290Y-104403042D01*
X84260000Y-104417500D01*
X84260000Y-104762500D01*
X84259290Y-104776958D01*
X84257166Y-104791276D01*
X84253649Y-104805317D01*
X84248772Y-104818946D01*
X84242583Y-104832031D01*
X84235142Y-104844447D01*
X84226519Y-104856073D01*
X84216798Y-104866798D01*
X84206073Y-104876519D01*
X84194447Y-104885142D01*
X84182031Y-104892583D01*
X84168946Y-104898772D01*
X84155317Y-104903649D01*
X84141276Y-104907166D01*
X84126958Y-104909290D01*
X84112500Y-104910000D01*
X83817500Y-104910000D01*
X83803042Y-104909290D01*
X83788724Y-104907166D01*
X83774683Y-104903649D01*
X83761054Y-104898772D01*
X83747969Y-104892583D01*
X83735553Y-104885142D01*
X83723927Y-104876519D01*
X83713202Y-104866798D01*
X83703481Y-104856073D01*
X83694858Y-104844447D01*
X83687417Y-104832031D01*
X83681228Y-104818946D01*
X83676351Y-104805317D01*
X83672834Y-104791276D01*
X83670710Y-104776958D01*
X83670000Y-104762500D01*
X83670000Y-104417500D01*
X83670710Y-104403042D01*
X83672834Y-104388724D01*
X83676351Y-104374683D01*
X83681228Y-104361054D01*
X83687417Y-104347969D01*
X83694858Y-104335553D01*
X83703481Y-104323927D01*
X83713202Y-104313202D01*
X83723927Y-104303481D01*
X83735553Y-104294858D01*
X83747969Y-104287417D01*
X83761054Y-104281228D01*
X83774683Y-104276351D01*
X83788724Y-104272834D01*
X83803042Y-104270710D01*
X83817500Y-104270000D01*
X84112500Y-104270000D01*
X84126958Y-104270710D01*
X84126958Y-104270710D01*
G37*
D18*
X83965000Y-104590000D03*
D17*
G36*
X85096958Y-104270710D02*
G01*
X85111276Y-104272834D01*
X85125317Y-104276351D01*
X85138946Y-104281228D01*
X85152031Y-104287417D01*
X85164447Y-104294858D01*
X85176073Y-104303481D01*
X85186798Y-104313202D01*
X85196519Y-104323927D01*
X85205142Y-104335553D01*
X85212583Y-104347969D01*
X85218772Y-104361054D01*
X85223649Y-104374683D01*
X85227166Y-104388724D01*
X85229290Y-104403042D01*
X85230000Y-104417500D01*
X85230000Y-104762500D01*
X85229290Y-104776958D01*
X85227166Y-104791276D01*
X85223649Y-104805317D01*
X85218772Y-104818946D01*
X85212583Y-104832031D01*
X85205142Y-104844447D01*
X85196519Y-104856073D01*
X85186798Y-104866798D01*
X85176073Y-104876519D01*
X85164447Y-104885142D01*
X85152031Y-104892583D01*
X85138946Y-104898772D01*
X85125317Y-104903649D01*
X85111276Y-104907166D01*
X85096958Y-104909290D01*
X85082500Y-104910000D01*
X84787500Y-104910000D01*
X84773042Y-104909290D01*
X84758724Y-104907166D01*
X84744683Y-104903649D01*
X84731054Y-104898772D01*
X84717969Y-104892583D01*
X84705553Y-104885142D01*
X84693927Y-104876519D01*
X84683202Y-104866798D01*
X84673481Y-104856073D01*
X84664858Y-104844447D01*
X84657417Y-104832031D01*
X84651228Y-104818946D01*
X84646351Y-104805317D01*
X84642834Y-104791276D01*
X84640710Y-104776958D01*
X84640000Y-104762500D01*
X84640000Y-104417500D01*
X84640710Y-104403042D01*
X84642834Y-104388724D01*
X84646351Y-104374683D01*
X84651228Y-104361054D01*
X84657417Y-104347969D01*
X84664858Y-104335553D01*
X84673481Y-104323927D01*
X84683202Y-104313202D01*
X84693927Y-104303481D01*
X84705553Y-104294858D01*
X84717969Y-104287417D01*
X84731054Y-104281228D01*
X84744683Y-104276351D01*
X84758724Y-104272834D01*
X84773042Y-104270710D01*
X84787500Y-104270000D01*
X85082500Y-104270000D01*
X85096958Y-104270710D01*
X85096958Y-104270710D01*
G37*
D18*
X84935000Y-104590000D03*
D17*
G36*
X85066958Y-105770710D02*
G01*
X85081276Y-105772834D01*
X85095317Y-105776351D01*
X85108946Y-105781228D01*
X85122031Y-105787417D01*
X85134447Y-105794858D01*
X85146073Y-105803481D01*
X85156798Y-105813202D01*
X85166519Y-105823927D01*
X85175142Y-105835553D01*
X85182583Y-105847969D01*
X85188772Y-105861054D01*
X85193649Y-105874683D01*
X85197166Y-105888724D01*
X85199290Y-105903042D01*
X85200000Y-105917500D01*
X85200000Y-106262500D01*
X85199290Y-106276958D01*
X85197166Y-106291276D01*
X85193649Y-106305317D01*
X85188772Y-106318946D01*
X85182583Y-106332031D01*
X85175142Y-106344447D01*
X85166519Y-106356073D01*
X85156798Y-106366798D01*
X85146073Y-106376519D01*
X85134447Y-106385142D01*
X85122031Y-106392583D01*
X85108946Y-106398772D01*
X85095317Y-106403649D01*
X85081276Y-106407166D01*
X85066958Y-106409290D01*
X85052500Y-106410000D01*
X84757500Y-106410000D01*
X84743042Y-106409290D01*
X84728724Y-106407166D01*
X84714683Y-106403649D01*
X84701054Y-106398772D01*
X84687969Y-106392583D01*
X84675553Y-106385142D01*
X84663927Y-106376519D01*
X84653202Y-106366798D01*
X84643481Y-106356073D01*
X84634858Y-106344447D01*
X84627417Y-106332031D01*
X84621228Y-106318946D01*
X84616351Y-106305317D01*
X84612834Y-106291276D01*
X84610710Y-106276958D01*
X84610000Y-106262500D01*
X84610000Y-105917500D01*
X84610710Y-105903042D01*
X84612834Y-105888724D01*
X84616351Y-105874683D01*
X84621228Y-105861054D01*
X84627417Y-105847969D01*
X84634858Y-105835553D01*
X84643481Y-105823927D01*
X84653202Y-105813202D01*
X84663927Y-105803481D01*
X84675553Y-105794858D01*
X84687969Y-105787417D01*
X84701054Y-105781228D01*
X84714683Y-105776351D01*
X84728724Y-105772834D01*
X84743042Y-105770710D01*
X84757500Y-105770000D01*
X85052500Y-105770000D01*
X85066958Y-105770710D01*
X85066958Y-105770710D01*
G37*
D18*
X84905000Y-106090000D03*
D17*
G36*
X84096958Y-105770710D02*
G01*
X84111276Y-105772834D01*
X84125317Y-105776351D01*
X84138946Y-105781228D01*
X84152031Y-105787417D01*
X84164447Y-105794858D01*
X84176073Y-105803481D01*
X84186798Y-105813202D01*
X84196519Y-105823927D01*
X84205142Y-105835553D01*
X84212583Y-105847969D01*
X84218772Y-105861054D01*
X84223649Y-105874683D01*
X84227166Y-105888724D01*
X84229290Y-105903042D01*
X84230000Y-105917500D01*
X84230000Y-106262500D01*
X84229290Y-106276958D01*
X84227166Y-106291276D01*
X84223649Y-106305317D01*
X84218772Y-106318946D01*
X84212583Y-106332031D01*
X84205142Y-106344447D01*
X84196519Y-106356073D01*
X84186798Y-106366798D01*
X84176073Y-106376519D01*
X84164447Y-106385142D01*
X84152031Y-106392583D01*
X84138946Y-106398772D01*
X84125317Y-106403649D01*
X84111276Y-106407166D01*
X84096958Y-106409290D01*
X84082500Y-106410000D01*
X83787500Y-106410000D01*
X83773042Y-106409290D01*
X83758724Y-106407166D01*
X83744683Y-106403649D01*
X83731054Y-106398772D01*
X83717969Y-106392583D01*
X83705553Y-106385142D01*
X83693927Y-106376519D01*
X83683202Y-106366798D01*
X83673481Y-106356073D01*
X83664858Y-106344447D01*
X83657417Y-106332031D01*
X83651228Y-106318946D01*
X83646351Y-106305317D01*
X83642834Y-106291276D01*
X83640710Y-106276958D01*
X83640000Y-106262500D01*
X83640000Y-105917500D01*
X83640710Y-105903042D01*
X83642834Y-105888724D01*
X83646351Y-105874683D01*
X83651228Y-105861054D01*
X83657417Y-105847969D01*
X83664858Y-105835553D01*
X83673481Y-105823927D01*
X83683202Y-105813202D01*
X83693927Y-105803481D01*
X83705553Y-105794858D01*
X83717969Y-105787417D01*
X83731054Y-105781228D01*
X83744683Y-105776351D01*
X83758724Y-105772834D01*
X83773042Y-105770710D01*
X83787500Y-105770000D01*
X84082500Y-105770000D01*
X84096958Y-105770710D01*
X84096958Y-105770710D01*
G37*
D18*
X83935000Y-106090000D03*
D17*
G36*
X79901958Y-92960710D02*
G01*
X79916276Y-92962834D01*
X79930317Y-92966351D01*
X79943946Y-92971228D01*
X79957031Y-92977417D01*
X79969447Y-92984858D01*
X79981073Y-92993481D01*
X79991798Y-93003202D01*
X80001519Y-93013927D01*
X80010142Y-93025553D01*
X80017583Y-93037969D01*
X80023772Y-93051054D01*
X80028649Y-93064683D01*
X80032166Y-93078724D01*
X80034290Y-93093042D01*
X80035000Y-93107500D01*
X80035000Y-93452500D01*
X80034290Y-93466958D01*
X80032166Y-93481276D01*
X80028649Y-93495317D01*
X80023772Y-93508946D01*
X80017583Y-93522031D01*
X80010142Y-93534447D01*
X80001519Y-93546073D01*
X79991798Y-93556798D01*
X79981073Y-93566519D01*
X79969447Y-93575142D01*
X79957031Y-93582583D01*
X79943946Y-93588772D01*
X79930317Y-93593649D01*
X79916276Y-93597166D01*
X79901958Y-93599290D01*
X79887500Y-93600000D01*
X79592500Y-93600000D01*
X79578042Y-93599290D01*
X79563724Y-93597166D01*
X79549683Y-93593649D01*
X79536054Y-93588772D01*
X79522969Y-93582583D01*
X79510553Y-93575142D01*
X79498927Y-93566519D01*
X79488202Y-93556798D01*
X79478481Y-93546073D01*
X79469858Y-93534447D01*
X79462417Y-93522031D01*
X79456228Y-93508946D01*
X79451351Y-93495317D01*
X79447834Y-93481276D01*
X79445710Y-93466958D01*
X79445000Y-93452500D01*
X79445000Y-93107500D01*
X79445710Y-93093042D01*
X79447834Y-93078724D01*
X79451351Y-93064683D01*
X79456228Y-93051054D01*
X79462417Y-93037969D01*
X79469858Y-93025553D01*
X79478481Y-93013927D01*
X79488202Y-93003202D01*
X79498927Y-92993481D01*
X79510553Y-92984858D01*
X79522969Y-92977417D01*
X79536054Y-92971228D01*
X79549683Y-92966351D01*
X79563724Y-92962834D01*
X79578042Y-92960710D01*
X79592500Y-92960000D01*
X79887500Y-92960000D01*
X79901958Y-92960710D01*
X79901958Y-92960710D01*
G37*
D18*
X79740000Y-93280000D03*
D17*
G36*
X78931958Y-92960710D02*
G01*
X78946276Y-92962834D01*
X78960317Y-92966351D01*
X78973946Y-92971228D01*
X78987031Y-92977417D01*
X78999447Y-92984858D01*
X79011073Y-92993481D01*
X79021798Y-93003202D01*
X79031519Y-93013927D01*
X79040142Y-93025553D01*
X79047583Y-93037969D01*
X79053772Y-93051054D01*
X79058649Y-93064683D01*
X79062166Y-93078724D01*
X79064290Y-93093042D01*
X79065000Y-93107500D01*
X79065000Y-93452500D01*
X79064290Y-93466958D01*
X79062166Y-93481276D01*
X79058649Y-93495317D01*
X79053772Y-93508946D01*
X79047583Y-93522031D01*
X79040142Y-93534447D01*
X79031519Y-93546073D01*
X79021798Y-93556798D01*
X79011073Y-93566519D01*
X78999447Y-93575142D01*
X78987031Y-93582583D01*
X78973946Y-93588772D01*
X78960317Y-93593649D01*
X78946276Y-93597166D01*
X78931958Y-93599290D01*
X78917500Y-93600000D01*
X78622500Y-93600000D01*
X78608042Y-93599290D01*
X78593724Y-93597166D01*
X78579683Y-93593649D01*
X78566054Y-93588772D01*
X78552969Y-93582583D01*
X78540553Y-93575142D01*
X78528927Y-93566519D01*
X78518202Y-93556798D01*
X78508481Y-93546073D01*
X78499858Y-93534447D01*
X78492417Y-93522031D01*
X78486228Y-93508946D01*
X78481351Y-93495317D01*
X78477834Y-93481276D01*
X78475710Y-93466958D01*
X78475000Y-93452500D01*
X78475000Y-93107500D01*
X78475710Y-93093042D01*
X78477834Y-93078724D01*
X78481351Y-93064683D01*
X78486228Y-93051054D01*
X78492417Y-93037969D01*
X78499858Y-93025553D01*
X78508481Y-93013927D01*
X78518202Y-93003202D01*
X78528927Y-92993481D01*
X78540553Y-92984858D01*
X78552969Y-92977417D01*
X78566054Y-92971228D01*
X78579683Y-92966351D01*
X78593724Y-92962834D01*
X78608042Y-92960710D01*
X78622500Y-92960000D01*
X78917500Y-92960000D01*
X78931958Y-92960710D01*
X78931958Y-92960710D01*
G37*
D18*
X78770000Y-93280000D03*
D17*
G36*
X82631958Y-92840710D02*
G01*
X82646276Y-92842834D01*
X82660317Y-92846351D01*
X82673946Y-92851228D01*
X82687031Y-92857417D01*
X82699447Y-92864858D01*
X82711073Y-92873481D01*
X82721798Y-92883202D01*
X82731519Y-92893927D01*
X82740142Y-92905553D01*
X82747583Y-92917969D01*
X82753772Y-92931054D01*
X82758649Y-92944683D01*
X82762166Y-92958724D01*
X82764290Y-92973042D01*
X82765000Y-92987500D01*
X82765000Y-93332500D01*
X82764290Y-93346958D01*
X82762166Y-93361276D01*
X82758649Y-93375317D01*
X82753772Y-93388946D01*
X82747583Y-93402031D01*
X82740142Y-93414447D01*
X82731519Y-93426073D01*
X82721798Y-93436798D01*
X82711073Y-93446519D01*
X82699447Y-93455142D01*
X82687031Y-93462583D01*
X82673946Y-93468772D01*
X82660317Y-93473649D01*
X82646276Y-93477166D01*
X82631958Y-93479290D01*
X82617500Y-93480000D01*
X82322500Y-93480000D01*
X82308042Y-93479290D01*
X82293724Y-93477166D01*
X82279683Y-93473649D01*
X82266054Y-93468772D01*
X82252969Y-93462583D01*
X82240553Y-93455142D01*
X82228927Y-93446519D01*
X82218202Y-93436798D01*
X82208481Y-93426073D01*
X82199858Y-93414447D01*
X82192417Y-93402031D01*
X82186228Y-93388946D01*
X82181351Y-93375317D01*
X82177834Y-93361276D01*
X82175710Y-93346958D01*
X82175000Y-93332500D01*
X82175000Y-92987500D01*
X82175710Y-92973042D01*
X82177834Y-92958724D01*
X82181351Y-92944683D01*
X82186228Y-92931054D01*
X82192417Y-92917969D01*
X82199858Y-92905553D01*
X82208481Y-92893927D01*
X82218202Y-92883202D01*
X82228927Y-92873481D01*
X82240553Y-92864858D01*
X82252969Y-92857417D01*
X82266054Y-92851228D01*
X82279683Y-92846351D01*
X82293724Y-92842834D01*
X82308042Y-92840710D01*
X82322500Y-92840000D01*
X82617500Y-92840000D01*
X82631958Y-92840710D01*
X82631958Y-92840710D01*
G37*
D18*
X82470000Y-93160000D03*
D17*
G36*
X81661958Y-92840710D02*
G01*
X81676276Y-92842834D01*
X81690317Y-92846351D01*
X81703946Y-92851228D01*
X81717031Y-92857417D01*
X81729447Y-92864858D01*
X81741073Y-92873481D01*
X81751798Y-92883202D01*
X81761519Y-92893927D01*
X81770142Y-92905553D01*
X81777583Y-92917969D01*
X81783772Y-92931054D01*
X81788649Y-92944683D01*
X81792166Y-92958724D01*
X81794290Y-92973042D01*
X81795000Y-92987500D01*
X81795000Y-93332500D01*
X81794290Y-93346958D01*
X81792166Y-93361276D01*
X81788649Y-93375317D01*
X81783772Y-93388946D01*
X81777583Y-93402031D01*
X81770142Y-93414447D01*
X81761519Y-93426073D01*
X81751798Y-93436798D01*
X81741073Y-93446519D01*
X81729447Y-93455142D01*
X81717031Y-93462583D01*
X81703946Y-93468772D01*
X81690317Y-93473649D01*
X81676276Y-93477166D01*
X81661958Y-93479290D01*
X81647500Y-93480000D01*
X81352500Y-93480000D01*
X81338042Y-93479290D01*
X81323724Y-93477166D01*
X81309683Y-93473649D01*
X81296054Y-93468772D01*
X81282969Y-93462583D01*
X81270553Y-93455142D01*
X81258927Y-93446519D01*
X81248202Y-93436798D01*
X81238481Y-93426073D01*
X81229858Y-93414447D01*
X81222417Y-93402031D01*
X81216228Y-93388946D01*
X81211351Y-93375317D01*
X81207834Y-93361276D01*
X81205710Y-93346958D01*
X81205000Y-93332500D01*
X81205000Y-92987500D01*
X81205710Y-92973042D01*
X81207834Y-92958724D01*
X81211351Y-92944683D01*
X81216228Y-92931054D01*
X81222417Y-92917969D01*
X81229858Y-92905553D01*
X81238481Y-92893927D01*
X81248202Y-92883202D01*
X81258927Y-92873481D01*
X81270553Y-92864858D01*
X81282969Y-92857417D01*
X81296054Y-92851228D01*
X81309683Y-92846351D01*
X81323724Y-92842834D01*
X81338042Y-92840710D01*
X81352500Y-92840000D01*
X81647500Y-92840000D01*
X81661958Y-92840710D01*
X81661958Y-92840710D01*
G37*
D18*
X81500000Y-93160000D03*
D17*
G36*
X79898458Y-91760710D02*
G01*
X79912776Y-91762834D01*
X79926817Y-91766351D01*
X79940446Y-91771228D01*
X79953531Y-91777417D01*
X79965947Y-91784858D01*
X79977573Y-91793481D01*
X79988298Y-91803202D01*
X79998019Y-91813927D01*
X80006642Y-91825553D01*
X80014083Y-91837969D01*
X80020272Y-91851054D01*
X80025149Y-91864683D01*
X80028666Y-91878724D01*
X80030790Y-91893042D01*
X80031500Y-91907500D01*
X80031500Y-92252500D01*
X80030790Y-92266958D01*
X80028666Y-92281276D01*
X80025149Y-92295317D01*
X80020272Y-92308946D01*
X80014083Y-92322031D01*
X80006642Y-92334447D01*
X79998019Y-92346073D01*
X79988298Y-92356798D01*
X79977573Y-92366519D01*
X79965947Y-92375142D01*
X79953531Y-92382583D01*
X79940446Y-92388772D01*
X79926817Y-92393649D01*
X79912776Y-92397166D01*
X79898458Y-92399290D01*
X79884000Y-92400000D01*
X79589000Y-92400000D01*
X79574542Y-92399290D01*
X79560224Y-92397166D01*
X79546183Y-92393649D01*
X79532554Y-92388772D01*
X79519469Y-92382583D01*
X79507053Y-92375142D01*
X79495427Y-92366519D01*
X79484702Y-92356798D01*
X79474981Y-92346073D01*
X79466358Y-92334447D01*
X79458917Y-92322031D01*
X79452728Y-92308946D01*
X79447851Y-92295317D01*
X79444334Y-92281276D01*
X79442210Y-92266958D01*
X79441500Y-92252500D01*
X79441500Y-91907500D01*
X79442210Y-91893042D01*
X79444334Y-91878724D01*
X79447851Y-91864683D01*
X79452728Y-91851054D01*
X79458917Y-91837969D01*
X79466358Y-91825553D01*
X79474981Y-91813927D01*
X79484702Y-91803202D01*
X79495427Y-91793481D01*
X79507053Y-91784858D01*
X79519469Y-91777417D01*
X79532554Y-91771228D01*
X79546183Y-91766351D01*
X79560224Y-91762834D01*
X79574542Y-91760710D01*
X79589000Y-91760000D01*
X79884000Y-91760000D01*
X79898458Y-91760710D01*
X79898458Y-91760710D01*
G37*
D18*
X79736500Y-92080000D03*
D17*
G36*
X78928458Y-91760710D02*
G01*
X78942776Y-91762834D01*
X78956817Y-91766351D01*
X78970446Y-91771228D01*
X78983531Y-91777417D01*
X78995947Y-91784858D01*
X79007573Y-91793481D01*
X79018298Y-91803202D01*
X79028019Y-91813927D01*
X79036642Y-91825553D01*
X79044083Y-91837969D01*
X79050272Y-91851054D01*
X79055149Y-91864683D01*
X79058666Y-91878724D01*
X79060790Y-91893042D01*
X79061500Y-91907500D01*
X79061500Y-92252500D01*
X79060790Y-92266958D01*
X79058666Y-92281276D01*
X79055149Y-92295317D01*
X79050272Y-92308946D01*
X79044083Y-92322031D01*
X79036642Y-92334447D01*
X79028019Y-92346073D01*
X79018298Y-92356798D01*
X79007573Y-92366519D01*
X78995947Y-92375142D01*
X78983531Y-92382583D01*
X78970446Y-92388772D01*
X78956817Y-92393649D01*
X78942776Y-92397166D01*
X78928458Y-92399290D01*
X78914000Y-92400000D01*
X78619000Y-92400000D01*
X78604542Y-92399290D01*
X78590224Y-92397166D01*
X78576183Y-92393649D01*
X78562554Y-92388772D01*
X78549469Y-92382583D01*
X78537053Y-92375142D01*
X78525427Y-92366519D01*
X78514702Y-92356798D01*
X78504981Y-92346073D01*
X78496358Y-92334447D01*
X78488917Y-92322031D01*
X78482728Y-92308946D01*
X78477851Y-92295317D01*
X78474334Y-92281276D01*
X78472210Y-92266958D01*
X78471500Y-92252500D01*
X78471500Y-91907500D01*
X78472210Y-91893042D01*
X78474334Y-91878724D01*
X78477851Y-91864683D01*
X78482728Y-91851054D01*
X78488917Y-91837969D01*
X78496358Y-91825553D01*
X78504981Y-91813927D01*
X78514702Y-91803202D01*
X78525427Y-91793481D01*
X78537053Y-91784858D01*
X78549469Y-91777417D01*
X78562554Y-91771228D01*
X78576183Y-91766351D01*
X78590224Y-91762834D01*
X78604542Y-91760710D01*
X78619000Y-91760000D01*
X78914000Y-91760000D01*
X78928458Y-91760710D01*
X78928458Y-91760710D01*
G37*
D18*
X78766500Y-92080000D03*
D17*
G36*
X79136958Y-104240710D02*
G01*
X79151276Y-104242834D01*
X79165317Y-104246351D01*
X79178946Y-104251228D01*
X79192031Y-104257417D01*
X79204447Y-104264858D01*
X79216073Y-104273481D01*
X79226798Y-104283202D01*
X79236519Y-104293927D01*
X79245142Y-104305553D01*
X79252583Y-104317969D01*
X79258772Y-104331054D01*
X79263649Y-104344683D01*
X79267166Y-104358724D01*
X79269290Y-104373042D01*
X79270000Y-104387500D01*
X79270000Y-104732500D01*
X79269290Y-104746958D01*
X79267166Y-104761276D01*
X79263649Y-104775317D01*
X79258772Y-104788946D01*
X79252583Y-104802031D01*
X79245142Y-104814447D01*
X79236519Y-104826073D01*
X79226798Y-104836798D01*
X79216073Y-104846519D01*
X79204447Y-104855142D01*
X79192031Y-104862583D01*
X79178946Y-104868772D01*
X79165317Y-104873649D01*
X79151276Y-104877166D01*
X79136958Y-104879290D01*
X79122500Y-104880000D01*
X78827500Y-104880000D01*
X78813042Y-104879290D01*
X78798724Y-104877166D01*
X78784683Y-104873649D01*
X78771054Y-104868772D01*
X78757969Y-104862583D01*
X78745553Y-104855142D01*
X78733927Y-104846519D01*
X78723202Y-104836798D01*
X78713481Y-104826073D01*
X78704858Y-104814447D01*
X78697417Y-104802031D01*
X78691228Y-104788946D01*
X78686351Y-104775317D01*
X78682834Y-104761276D01*
X78680710Y-104746958D01*
X78680000Y-104732500D01*
X78680000Y-104387500D01*
X78680710Y-104373042D01*
X78682834Y-104358724D01*
X78686351Y-104344683D01*
X78691228Y-104331054D01*
X78697417Y-104317969D01*
X78704858Y-104305553D01*
X78713481Y-104293927D01*
X78723202Y-104283202D01*
X78733927Y-104273481D01*
X78745553Y-104264858D01*
X78757969Y-104257417D01*
X78771054Y-104251228D01*
X78784683Y-104246351D01*
X78798724Y-104242834D01*
X78813042Y-104240710D01*
X78827500Y-104240000D01*
X79122500Y-104240000D01*
X79136958Y-104240710D01*
X79136958Y-104240710D01*
G37*
D18*
X78975000Y-104560000D03*
D17*
G36*
X78166958Y-104240710D02*
G01*
X78181276Y-104242834D01*
X78195317Y-104246351D01*
X78208946Y-104251228D01*
X78222031Y-104257417D01*
X78234447Y-104264858D01*
X78246073Y-104273481D01*
X78256798Y-104283202D01*
X78266519Y-104293927D01*
X78275142Y-104305553D01*
X78282583Y-104317969D01*
X78288772Y-104331054D01*
X78293649Y-104344683D01*
X78297166Y-104358724D01*
X78299290Y-104373042D01*
X78300000Y-104387500D01*
X78300000Y-104732500D01*
X78299290Y-104746958D01*
X78297166Y-104761276D01*
X78293649Y-104775317D01*
X78288772Y-104788946D01*
X78282583Y-104802031D01*
X78275142Y-104814447D01*
X78266519Y-104826073D01*
X78256798Y-104836798D01*
X78246073Y-104846519D01*
X78234447Y-104855142D01*
X78222031Y-104862583D01*
X78208946Y-104868772D01*
X78195317Y-104873649D01*
X78181276Y-104877166D01*
X78166958Y-104879290D01*
X78152500Y-104880000D01*
X77857500Y-104880000D01*
X77843042Y-104879290D01*
X77828724Y-104877166D01*
X77814683Y-104873649D01*
X77801054Y-104868772D01*
X77787969Y-104862583D01*
X77775553Y-104855142D01*
X77763927Y-104846519D01*
X77753202Y-104836798D01*
X77743481Y-104826073D01*
X77734858Y-104814447D01*
X77727417Y-104802031D01*
X77721228Y-104788946D01*
X77716351Y-104775317D01*
X77712834Y-104761276D01*
X77710710Y-104746958D01*
X77710000Y-104732500D01*
X77710000Y-104387500D01*
X77710710Y-104373042D01*
X77712834Y-104358724D01*
X77716351Y-104344683D01*
X77721228Y-104331054D01*
X77727417Y-104317969D01*
X77734858Y-104305553D01*
X77743481Y-104293927D01*
X77753202Y-104283202D01*
X77763927Y-104273481D01*
X77775553Y-104264858D01*
X77787969Y-104257417D01*
X77801054Y-104251228D01*
X77814683Y-104246351D01*
X77828724Y-104242834D01*
X77843042Y-104240710D01*
X77857500Y-104240000D01*
X78152500Y-104240000D01*
X78166958Y-104240710D01*
X78166958Y-104240710D01*
G37*
D18*
X78005000Y-104560000D03*
D17*
G36*
X79132958Y-105670710D02*
G01*
X79147276Y-105672834D01*
X79161317Y-105676351D01*
X79174946Y-105681228D01*
X79188031Y-105687417D01*
X79200447Y-105694858D01*
X79212073Y-105703481D01*
X79222798Y-105713202D01*
X79232519Y-105723927D01*
X79241142Y-105735553D01*
X79248583Y-105747969D01*
X79254772Y-105761054D01*
X79259649Y-105774683D01*
X79263166Y-105788724D01*
X79265290Y-105803042D01*
X79266000Y-105817500D01*
X79266000Y-106162500D01*
X79265290Y-106176958D01*
X79263166Y-106191276D01*
X79259649Y-106205317D01*
X79254772Y-106218946D01*
X79248583Y-106232031D01*
X79241142Y-106244447D01*
X79232519Y-106256073D01*
X79222798Y-106266798D01*
X79212073Y-106276519D01*
X79200447Y-106285142D01*
X79188031Y-106292583D01*
X79174946Y-106298772D01*
X79161317Y-106303649D01*
X79147276Y-106307166D01*
X79132958Y-106309290D01*
X79118500Y-106310000D01*
X78823500Y-106310000D01*
X78809042Y-106309290D01*
X78794724Y-106307166D01*
X78780683Y-106303649D01*
X78767054Y-106298772D01*
X78753969Y-106292583D01*
X78741553Y-106285142D01*
X78729927Y-106276519D01*
X78719202Y-106266798D01*
X78709481Y-106256073D01*
X78700858Y-106244447D01*
X78693417Y-106232031D01*
X78687228Y-106218946D01*
X78682351Y-106205317D01*
X78678834Y-106191276D01*
X78676710Y-106176958D01*
X78676000Y-106162500D01*
X78676000Y-105817500D01*
X78676710Y-105803042D01*
X78678834Y-105788724D01*
X78682351Y-105774683D01*
X78687228Y-105761054D01*
X78693417Y-105747969D01*
X78700858Y-105735553D01*
X78709481Y-105723927D01*
X78719202Y-105713202D01*
X78729927Y-105703481D01*
X78741553Y-105694858D01*
X78753969Y-105687417D01*
X78767054Y-105681228D01*
X78780683Y-105676351D01*
X78794724Y-105672834D01*
X78809042Y-105670710D01*
X78823500Y-105670000D01*
X79118500Y-105670000D01*
X79132958Y-105670710D01*
X79132958Y-105670710D01*
G37*
D18*
X78971000Y-105990000D03*
D17*
G36*
X78162958Y-105670710D02*
G01*
X78177276Y-105672834D01*
X78191317Y-105676351D01*
X78204946Y-105681228D01*
X78218031Y-105687417D01*
X78230447Y-105694858D01*
X78242073Y-105703481D01*
X78252798Y-105713202D01*
X78262519Y-105723927D01*
X78271142Y-105735553D01*
X78278583Y-105747969D01*
X78284772Y-105761054D01*
X78289649Y-105774683D01*
X78293166Y-105788724D01*
X78295290Y-105803042D01*
X78296000Y-105817500D01*
X78296000Y-106162500D01*
X78295290Y-106176958D01*
X78293166Y-106191276D01*
X78289649Y-106205317D01*
X78284772Y-106218946D01*
X78278583Y-106232031D01*
X78271142Y-106244447D01*
X78262519Y-106256073D01*
X78252798Y-106266798D01*
X78242073Y-106276519D01*
X78230447Y-106285142D01*
X78218031Y-106292583D01*
X78204946Y-106298772D01*
X78191317Y-106303649D01*
X78177276Y-106307166D01*
X78162958Y-106309290D01*
X78148500Y-106310000D01*
X77853500Y-106310000D01*
X77839042Y-106309290D01*
X77824724Y-106307166D01*
X77810683Y-106303649D01*
X77797054Y-106298772D01*
X77783969Y-106292583D01*
X77771553Y-106285142D01*
X77759927Y-106276519D01*
X77749202Y-106266798D01*
X77739481Y-106256073D01*
X77730858Y-106244447D01*
X77723417Y-106232031D01*
X77717228Y-106218946D01*
X77712351Y-106205317D01*
X77708834Y-106191276D01*
X77706710Y-106176958D01*
X77706000Y-106162500D01*
X77706000Y-105817500D01*
X77706710Y-105803042D01*
X77708834Y-105788724D01*
X77712351Y-105774683D01*
X77717228Y-105761054D01*
X77723417Y-105747969D01*
X77730858Y-105735553D01*
X77739481Y-105723927D01*
X77749202Y-105713202D01*
X77759927Y-105703481D01*
X77771553Y-105694858D01*
X77783969Y-105687417D01*
X77797054Y-105681228D01*
X77810683Y-105676351D01*
X77824724Y-105672834D01*
X77839042Y-105670710D01*
X77853500Y-105670000D01*
X78148500Y-105670000D01*
X78162958Y-105670710D01*
X78162958Y-105670710D01*
G37*
D18*
X78001000Y-105990000D03*
D17*
G36*
X70306458Y-91501710D02*
G01*
X70320776Y-91503834D01*
X70334817Y-91507351D01*
X70348446Y-91512228D01*
X70361531Y-91518417D01*
X70373947Y-91525858D01*
X70385573Y-91534481D01*
X70396298Y-91544202D01*
X70406019Y-91554927D01*
X70414642Y-91566553D01*
X70422083Y-91578969D01*
X70428272Y-91592054D01*
X70433149Y-91605683D01*
X70436666Y-91619724D01*
X70438790Y-91634042D01*
X70439500Y-91648500D01*
X70439500Y-91993500D01*
X70438790Y-92007958D01*
X70436666Y-92022276D01*
X70433149Y-92036317D01*
X70428272Y-92049946D01*
X70422083Y-92063031D01*
X70414642Y-92075447D01*
X70406019Y-92087073D01*
X70396298Y-92097798D01*
X70385573Y-92107519D01*
X70373947Y-92116142D01*
X70361531Y-92123583D01*
X70348446Y-92129772D01*
X70334817Y-92134649D01*
X70320776Y-92138166D01*
X70306458Y-92140290D01*
X70292000Y-92141000D01*
X69997000Y-92141000D01*
X69982542Y-92140290D01*
X69968224Y-92138166D01*
X69954183Y-92134649D01*
X69940554Y-92129772D01*
X69927469Y-92123583D01*
X69915053Y-92116142D01*
X69903427Y-92107519D01*
X69892702Y-92097798D01*
X69882981Y-92087073D01*
X69874358Y-92075447D01*
X69866917Y-92063031D01*
X69860728Y-92049946D01*
X69855851Y-92036317D01*
X69852334Y-92022276D01*
X69850210Y-92007958D01*
X69849500Y-91993500D01*
X69849500Y-91648500D01*
X69850210Y-91634042D01*
X69852334Y-91619724D01*
X69855851Y-91605683D01*
X69860728Y-91592054D01*
X69866917Y-91578969D01*
X69874358Y-91566553D01*
X69882981Y-91554927D01*
X69892702Y-91544202D01*
X69903427Y-91534481D01*
X69915053Y-91525858D01*
X69927469Y-91518417D01*
X69940554Y-91512228D01*
X69954183Y-91507351D01*
X69968224Y-91503834D01*
X69982542Y-91501710D01*
X69997000Y-91501000D01*
X70292000Y-91501000D01*
X70306458Y-91501710D01*
X70306458Y-91501710D01*
G37*
D18*
X70144500Y-91821000D03*
D17*
G36*
X69336458Y-91501710D02*
G01*
X69350776Y-91503834D01*
X69364817Y-91507351D01*
X69378446Y-91512228D01*
X69391531Y-91518417D01*
X69403947Y-91525858D01*
X69415573Y-91534481D01*
X69426298Y-91544202D01*
X69436019Y-91554927D01*
X69444642Y-91566553D01*
X69452083Y-91578969D01*
X69458272Y-91592054D01*
X69463149Y-91605683D01*
X69466666Y-91619724D01*
X69468790Y-91634042D01*
X69469500Y-91648500D01*
X69469500Y-91993500D01*
X69468790Y-92007958D01*
X69466666Y-92022276D01*
X69463149Y-92036317D01*
X69458272Y-92049946D01*
X69452083Y-92063031D01*
X69444642Y-92075447D01*
X69436019Y-92087073D01*
X69426298Y-92097798D01*
X69415573Y-92107519D01*
X69403947Y-92116142D01*
X69391531Y-92123583D01*
X69378446Y-92129772D01*
X69364817Y-92134649D01*
X69350776Y-92138166D01*
X69336458Y-92140290D01*
X69322000Y-92141000D01*
X69027000Y-92141000D01*
X69012542Y-92140290D01*
X68998224Y-92138166D01*
X68984183Y-92134649D01*
X68970554Y-92129772D01*
X68957469Y-92123583D01*
X68945053Y-92116142D01*
X68933427Y-92107519D01*
X68922702Y-92097798D01*
X68912981Y-92087073D01*
X68904358Y-92075447D01*
X68896917Y-92063031D01*
X68890728Y-92049946D01*
X68885851Y-92036317D01*
X68882334Y-92022276D01*
X68880210Y-92007958D01*
X68879500Y-91993500D01*
X68879500Y-91648500D01*
X68880210Y-91634042D01*
X68882334Y-91619724D01*
X68885851Y-91605683D01*
X68890728Y-91592054D01*
X68896917Y-91578969D01*
X68904358Y-91566553D01*
X68912981Y-91554927D01*
X68922702Y-91544202D01*
X68933427Y-91534481D01*
X68945053Y-91525858D01*
X68957469Y-91518417D01*
X68970554Y-91512228D01*
X68984183Y-91507351D01*
X68998224Y-91503834D01*
X69012542Y-91501710D01*
X69027000Y-91501000D01*
X69322000Y-91501000D01*
X69336458Y-91501710D01*
X69336458Y-91501710D01*
G37*
D18*
X69174500Y-91821000D03*
D17*
G36*
X62368958Y-93884230D02*
G01*
X62383276Y-93886354D01*
X62397317Y-93889871D01*
X62410946Y-93894748D01*
X62424031Y-93900937D01*
X62436447Y-93908378D01*
X62448073Y-93917001D01*
X62458798Y-93926722D01*
X62468519Y-93937447D01*
X62477142Y-93949073D01*
X62484583Y-93961489D01*
X62490772Y-93974574D01*
X62495649Y-93988203D01*
X62499166Y-94002244D01*
X62501290Y-94016562D01*
X62502000Y-94031020D01*
X62502000Y-94376020D01*
X62501290Y-94390478D01*
X62499166Y-94404796D01*
X62495649Y-94418837D01*
X62490772Y-94432466D01*
X62484583Y-94445551D01*
X62477142Y-94457967D01*
X62468519Y-94469593D01*
X62458798Y-94480318D01*
X62448073Y-94490039D01*
X62436447Y-94498662D01*
X62424031Y-94506103D01*
X62410946Y-94512292D01*
X62397317Y-94517169D01*
X62383276Y-94520686D01*
X62368958Y-94522810D01*
X62354500Y-94523520D01*
X62059500Y-94523520D01*
X62045042Y-94522810D01*
X62030724Y-94520686D01*
X62016683Y-94517169D01*
X62003054Y-94512292D01*
X61989969Y-94506103D01*
X61977553Y-94498662D01*
X61965927Y-94490039D01*
X61955202Y-94480318D01*
X61945481Y-94469593D01*
X61936858Y-94457967D01*
X61929417Y-94445551D01*
X61923228Y-94432466D01*
X61918351Y-94418837D01*
X61914834Y-94404796D01*
X61912710Y-94390478D01*
X61912000Y-94376020D01*
X61912000Y-94031020D01*
X61912710Y-94016562D01*
X61914834Y-94002244D01*
X61918351Y-93988203D01*
X61923228Y-93974574D01*
X61929417Y-93961489D01*
X61936858Y-93949073D01*
X61945481Y-93937447D01*
X61955202Y-93926722D01*
X61965927Y-93917001D01*
X61977553Y-93908378D01*
X61989969Y-93900937D01*
X62003054Y-93894748D01*
X62016683Y-93889871D01*
X62030724Y-93886354D01*
X62045042Y-93884230D01*
X62059500Y-93883520D01*
X62354500Y-93883520D01*
X62368958Y-93884230D01*
X62368958Y-93884230D01*
G37*
D18*
X62207000Y-94203520D03*
D17*
G36*
X61398958Y-93884230D02*
G01*
X61413276Y-93886354D01*
X61427317Y-93889871D01*
X61440946Y-93894748D01*
X61454031Y-93900937D01*
X61466447Y-93908378D01*
X61478073Y-93917001D01*
X61488798Y-93926722D01*
X61498519Y-93937447D01*
X61507142Y-93949073D01*
X61514583Y-93961489D01*
X61520772Y-93974574D01*
X61525649Y-93988203D01*
X61529166Y-94002244D01*
X61531290Y-94016562D01*
X61532000Y-94031020D01*
X61532000Y-94376020D01*
X61531290Y-94390478D01*
X61529166Y-94404796D01*
X61525649Y-94418837D01*
X61520772Y-94432466D01*
X61514583Y-94445551D01*
X61507142Y-94457967D01*
X61498519Y-94469593D01*
X61488798Y-94480318D01*
X61478073Y-94490039D01*
X61466447Y-94498662D01*
X61454031Y-94506103D01*
X61440946Y-94512292D01*
X61427317Y-94517169D01*
X61413276Y-94520686D01*
X61398958Y-94522810D01*
X61384500Y-94523520D01*
X61089500Y-94523520D01*
X61075042Y-94522810D01*
X61060724Y-94520686D01*
X61046683Y-94517169D01*
X61033054Y-94512292D01*
X61019969Y-94506103D01*
X61007553Y-94498662D01*
X60995927Y-94490039D01*
X60985202Y-94480318D01*
X60975481Y-94469593D01*
X60966858Y-94457967D01*
X60959417Y-94445551D01*
X60953228Y-94432466D01*
X60948351Y-94418837D01*
X60944834Y-94404796D01*
X60942710Y-94390478D01*
X60942000Y-94376020D01*
X60942000Y-94031020D01*
X60942710Y-94016562D01*
X60944834Y-94002244D01*
X60948351Y-93988203D01*
X60953228Y-93974574D01*
X60959417Y-93961489D01*
X60966858Y-93949073D01*
X60975481Y-93937447D01*
X60985202Y-93926722D01*
X60995927Y-93917001D01*
X61007553Y-93908378D01*
X61019969Y-93900937D01*
X61033054Y-93894748D01*
X61046683Y-93889871D01*
X61060724Y-93886354D01*
X61075042Y-93884230D01*
X61089500Y-93883520D01*
X61384500Y-93883520D01*
X61398958Y-93884230D01*
X61398958Y-93884230D01*
G37*
D18*
X61237000Y-94203520D03*
D17*
G36*
X59183958Y-100969710D02*
G01*
X59198276Y-100971834D01*
X59212317Y-100975351D01*
X59225946Y-100980228D01*
X59239031Y-100986417D01*
X59251447Y-100993858D01*
X59263073Y-101002481D01*
X59273798Y-101012202D01*
X59283519Y-101022927D01*
X59292142Y-101034553D01*
X59299583Y-101046969D01*
X59305772Y-101060054D01*
X59310649Y-101073683D01*
X59314166Y-101087724D01*
X59316290Y-101102042D01*
X59317000Y-101116500D01*
X59317000Y-101461500D01*
X59316290Y-101475958D01*
X59314166Y-101490276D01*
X59310649Y-101504317D01*
X59305772Y-101517946D01*
X59299583Y-101531031D01*
X59292142Y-101543447D01*
X59283519Y-101555073D01*
X59273798Y-101565798D01*
X59263073Y-101575519D01*
X59251447Y-101584142D01*
X59239031Y-101591583D01*
X59225946Y-101597772D01*
X59212317Y-101602649D01*
X59198276Y-101606166D01*
X59183958Y-101608290D01*
X59169500Y-101609000D01*
X58874500Y-101609000D01*
X58860042Y-101608290D01*
X58845724Y-101606166D01*
X58831683Y-101602649D01*
X58818054Y-101597772D01*
X58804969Y-101591583D01*
X58792553Y-101584142D01*
X58780927Y-101575519D01*
X58770202Y-101565798D01*
X58760481Y-101555073D01*
X58751858Y-101543447D01*
X58744417Y-101531031D01*
X58738228Y-101517946D01*
X58733351Y-101504317D01*
X58729834Y-101490276D01*
X58727710Y-101475958D01*
X58727000Y-101461500D01*
X58727000Y-101116500D01*
X58727710Y-101102042D01*
X58729834Y-101087724D01*
X58733351Y-101073683D01*
X58738228Y-101060054D01*
X58744417Y-101046969D01*
X58751858Y-101034553D01*
X58760481Y-101022927D01*
X58770202Y-101012202D01*
X58780927Y-101002481D01*
X58792553Y-100993858D01*
X58804969Y-100986417D01*
X58818054Y-100980228D01*
X58831683Y-100975351D01*
X58845724Y-100971834D01*
X58860042Y-100969710D01*
X58874500Y-100969000D01*
X59169500Y-100969000D01*
X59183958Y-100969710D01*
X59183958Y-100969710D01*
G37*
D18*
X59022000Y-101289000D03*
D17*
G36*
X58213958Y-100969710D02*
G01*
X58228276Y-100971834D01*
X58242317Y-100975351D01*
X58255946Y-100980228D01*
X58269031Y-100986417D01*
X58281447Y-100993858D01*
X58293073Y-101002481D01*
X58303798Y-101012202D01*
X58313519Y-101022927D01*
X58322142Y-101034553D01*
X58329583Y-101046969D01*
X58335772Y-101060054D01*
X58340649Y-101073683D01*
X58344166Y-101087724D01*
X58346290Y-101102042D01*
X58347000Y-101116500D01*
X58347000Y-101461500D01*
X58346290Y-101475958D01*
X58344166Y-101490276D01*
X58340649Y-101504317D01*
X58335772Y-101517946D01*
X58329583Y-101531031D01*
X58322142Y-101543447D01*
X58313519Y-101555073D01*
X58303798Y-101565798D01*
X58293073Y-101575519D01*
X58281447Y-101584142D01*
X58269031Y-101591583D01*
X58255946Y-101597772D01*
X58242317Y-101602649D01*
X58228276Y-101606166D01*
X58213958Y-101608290D01*
X58199500Y-101609000D01*
X57904500Y-101609000D01*
X57890042Y-101608290D01*
X57875724Y-101606166D01*
X57861683Y-101602649D01*
X57848054Y-101597772D01*
X57834969Y-101591583D01*
X57822553Y-101584142D01*
X57810927Y-101575519D01*
X57800202Y-101565798D01*
X57790481Y-101555073D01*
X57781858Y-101543447D01*
X57774417Y-101531031D01*
X57768228Y-101517946D01*
X57763351Y-101504317D01*
X57759834Y-101490276D01*
X57757710Y-101475958D01*
X57757000Y-101461500D01*
X57757000Y-101116500D01*
X57757710Y-101102042D01*
X57759834Y-101087724D01*
X57763351Y-101073683D01*
X57768228Y-101060054D01*
X57774417Y-101046969D01*
X57781858Y-101034553D01*
X57790481Y-101022927D01*
X57800202Y-101012202D01*
X57810927Y-101002481D01*
X57822553Y-100993858D01*
X57834969Y-100986417D01*
X57848054Y-100980228D01*
X57861683Y-100975351D01*
X57875724Y-100971834D01*
X57890042Y-100969710D01*
X57904500Y-100969000D01*
X58199500Y-100969000D01*
X58213958Y-100969710D01*
X58213958Y-100969710D01*
G37*
D18*
X58052000Y-101289000D03*
D17*
G36*
X78166958Y-103130710D02*
G01*
X78181276Y-103132834D01*
X78195317Y-103136351D01*
X78208946Y-103141228D01*
X78222031Y-103147417D01*
X78234447Y-103154858D01*
X78246073Y-103163481D01*
X78256798Y-103173202D01*
X78266519Y-103183927D01*
X78275142Y-103195553D01*
X78282583Y-103207969D01*
X78288772Y-103221054D01*
X78293649Y-103234683D01*
X78297166Y-103248724D01*
X78299290Y-103263042D01*
X78300000Y-103277500D01*
X78300000Y-103622500D01*
X78299290Y-103636958D01*
X78297166Y-103651276D01*
X78293649Y-103665317D01*
X78288772Y-103678946D01*
X78282583Y-103692031D01*
X78275142Y-103704447D01*
X78266519Y-103716073D01*
X78256798Y-103726798D01*
X78246073Y-103736519D01*
X78234447Y-103745142D01*
X78222031Y-103752583D01*
X78208946Y-103758772D01*
X78195317Y-103763649D01*
X78181276Y-103767166D01*
X78166958Y-103769290D01*
X78152500Y-103770000D01*
X77857500Y-103770000D01*
X77843042Y-103769290D01*
X77828724Y-103767166D01*
X77814683Y-103763649D01*
X77801054Y-103758772D01*
X77787969Y-103752583D01*
X77775553Y-103745142D01*
X77763927Y-103736519D01*
X77753202Y-103726798D01*
X77743481Y-103716073D01*
X77734858Y-103704447D01*
X77727417Y-103692031D01*
X77721228Y-103678946D01*
X77716351Y-103665317D01*
X77712834Y-103651276D01*
X77710710Y-103636958D01*
X77710000Y-103622500D01*
X77710000Y-103277500D01*
X77710710Y-103263042D01*
X77712834Y-103248724D01*
X77716351Y-103234683D01*
X77721228Y-103221054D01*
X77727417Y-103207969D01*
X77734858Y-103195553D01*
X77743481Y-103183927D01*
X77753202Y-103173202D01*
X77763927Y-103163481D01*
X77775553Y-103154858D01*
X77787969Y-103147417D01*
X77801054Y-103141228D01*
X77814683Y-103136351D01*
X77828724Y-103132834D01*
X77843042Y-103130710D01*
X77857500Y-103130000D01*
X78152500Y-103130000D01*
X78166958Y-103130710D01*
X78166958Y-103130710D01*
G37*
D18*
X78005000Y-103450000D03*
D17*
G36*
X79136958Y-103130710D02*
G01*
X79151276Y-103132834D01*
X79165317Y-103136351D01*
X79178946Y-103141228D01*
X79192031Y-103147417D01*
X79204447Y-103154858D01*
X79216073Y-103163481D01*
X79226798Y-103173202D01*
X79236519Y-103183927D01*
X79245142Y-103195553D01*
X79252583Y-103207969D01*
X79258772Y-103221054D01*
X79263649Y-103234683D01*
X79267166Y-103248724D01*
X79269290Y-103263042D01*
X79270000Y-103277500D01*
X79270000Y-103622500D01*
X79269290Y-103636958D01*
X79267166Y-103651276D01*
X79263649Y-103665317D01*
X79258772Y-103678946D01*
X79252583Y-103692031D01*
X79245142Y-103704447D01*
X79236519Y-103716073D01*
X79226798Y-103726798D01*
X79216073Y-103736519D01*
X79204447Y-103745142D01*
X79192031Y-103752583D01*
X79178946Y-103758772D01*
X79165317Y-103763649D01*
X79151276Y-103767166D01*
X79136958Y-103769290D01*
X79122500Y-103770000D01*
X78827500Y-103770000D01*
X78813042Y-103769290D01*
X78798724Y-103767166D01*
X78784683Y-103763649D01*
X78771054Y-103758772D01*
X78757969Y-103752583D01*
X78745553Y-103745142D01*
X78733927Y-103736519D01*
X78723202Y-103726798D01*
X78713481Y-103716073D01*
X78704858Y-103704447D01*
X78697417Y-103692031D01*
X78691228Y-103678946D01*
X78686351Y-103665317D01*
X78682834Y-103651276D01*
X78680710Y-103636958D01*
X78680000Y-103622500D01*
X78680000Y-103277500D01*
X78680710Y-103263042D01*
X78682834Y-103248724D01*
X78686351Y-103234683D01*
X78691228Y-103221054D01*
X78697417Y-103207969D01*
X78704858Y-103195553D01*
X78713481Y-103183927D01*
X78723202Y-103173202D01*
X78733927Y-103163481D01*
X78745553Y-103154858D01*
X78757969Y-103147417D01*
X78771054Y-103141228D01*
X78784683Y-103136351D01*
X78798724Y-103132834D01*
X78813042Y-103130710D01*
X78827500Y-103130000D01*
X79122500Y-103130000D01*
X79136958Y-103130710D01*
X79136958Y-103130710D01*
G37*
D18*
X78975000Y-103450000D03*
D17*
G36*
X62292758Y-92517710D02*
G01*
X62307076Y-92519834D01*
X62321117Y-92523351D01*
X62334746Y-92528228D01*
X62347831Y-92534417D01*
X62360247Y-92541858D01*
X62371873Y-92550481D01*
X62382598Y-92560202D01*
X62392319Y-92570927D01*
X62400942Y-92582553D01*
X62408383Y-92594969D01*
X62414572Y-92608054D01*
X62419449Y-92621683D01*
X62422966Y-92635724D01*
X62425090Y-92650042D01*
X62425800Y-92664500D01*
X62425800Y-93009500D01*
X62425090Y-93023958D01*
X62422966Y-93038276D01*
X62419449Y-93052317D01*
X62414572Y-93065946D01*
X62408383Y-93079031D01*
X62400942Y-93091447D01*
X62392319Y-93103073D01*
X62382598Y-93113798D01*
X62371873Y-93123519D01*
X62360247Y-93132142D01*
X62347831Y-93139583D01*
X62334746Y-93145772D01*
X62321117Y-93150649D01*
X62307076Y-93154166D01*
X62292758Y-93156290D01*
X62278300Y-93157000D01*
X61983300Y-93157000D01*
X61968842Y-93156290D01*
X61954524Y-93154166D01*
X61940483Y-93150649D01*
X61926854Y-93145772D01*
X61913769Y-93139583D01*
X61901353Y-93132142D01*
X61889727Y-93123519D01*
X61879002Y-93113798D01*
X61869281Y-93103073D01*
X61860658Y-93091447D01*
X61853217Y-93079031D01*
X61847028Y-93065946D01*
X61842151Y-93052317D01*
X61838634Y-93038276D01*
X61836510Y-93023958D01*
X61835800Y-93009500D01*
X61835800Y-92664500D01*
X61836510Y-92650042D01*
X61838634Y-92635724D01*
X61842151Y-92621683D01*
X61847028Y-92608054D01*
X61853217Y-92594969D01*
X61860658Y-92582553D01*
X61869281Y-92570927D01*
X61879002Y-92560202D01*
X61889727Y-92550481D01*
X61901353Y-92541858D01*
X61913769Y-92534417D01*
X61926854Y-92528228D01*
X61940483Y-92523351D01*
X61954524Y-92519834D01*
X61968842Y-92517710D01*
X61983300Y-92517000D01*
X62278300Y-92517000D01*
X62292758Y-92517710D01*
X62292758Y-92517710D01*
G37*
D18*
X62130800Y-92837000D03*
D17*
G36*
X61322758Y-92517710D02*
G01*
X61337076Y-92519834D01*
X61351117Y-92523351D01*
X61364746Y-92528228D01*
X61377831Y-92534417D01*
X61390247Y-92541858D01*
X61401873Y-92550481D01*
X61412598Y-92560202D01*
X61422319Y-92570927D01*
X61430942Y-92582553D01*
X61438383Y-92594969D01*
X61444572Y-92608054D01*
X61449449Y-92621683D01*
X61452966Y-92635724D01*
X61455090Y-92650042D01*
X61455800Y-92664500D01*
X61455800Y-93009500D01*
X61455090Y-93023958D01*
X61452966Y-93038276D01*
X61449449Y-93052317D01*
X61444572Y-93065946D01*
X61438383Y-93079031D01*
X61430942Y-93091447D01*
X61422319Y-93103073D01*
X61412598Y-93113798D01*
X61401873Y-93123519D01*
X61390247Y-93132142D01*
X61377831Y-93139583D01*
X61364746Y-93145772D01*
X61351117Y-93150649D01*
X61337076Y-93154166D01*
X61322758Y-93156290D01*
X61308300Y-93157000D01*
X61013300Y-93157000D01*
X60998842Y-93156290D01*
X60984524Y-93154166D01*
X60970483Y-93150649D01*
X60956854Y-93145772D01*
X60943769Y-93139583D01*
X60931353Y-93132142D01*
X60919727Y-93123519D01*
X60909002Y-93113798D01*
X60899281Y-93103073D01*
X60890658Y-93091447D01*
X60883217Y-93079031D01*
X60877028Y-93065946D01*
X60872151Y-93052317D01*
X60868634Y-93038276D01*
X60866510Y-93023958D01*
X60865800Y-93009500D01*
X60865800Y-92664500D01*
X60866510Y-92650042D01*
X60868634Y-92635724D01*
X60872151Y-92621683D01*
X60877028Y-92608054D01*
X60883217Y-92594969D01*
X60890658Y-92582553D01*
X60899281Y-92570927D01*
X60909002Y-92560202D01*
X60919727Y-92550481D01*
X60931353Y-92541858D01*
X60943769Y-92534417D01*
X60956854Y-92528228D01*
X60970483Y-92523351D01*
X60984524Y-92519834D01*
X60998842Y-92517710D01*
X61013300Y-92517000D01*
X61308300Y-92517000D01*
X61322758Y-92517710D01*
X61322758Y-92517710D01*
G37*
D18*
X61160800Y-92837000D03*
D17*
G36*
X65226458Y-90739710D02*
G01*
X65240776Y-90741834D01*
X65254817Y-90745351D01*
X65268446Y-90750228D01*
X65281531Y-90756417D01*
X65293947Y-90763858D01*
X65305573Y-90772481D01*
X65316298Y-90782202D01*
X65326019Y-90792927D01*
X65334642Y-90804553D01*
X65342083Y-90816969D01*
X65348272Y-90830054D01*
X65353149Y-90843683D01*
X65356666Y-90857724D01*
X65358790Y-90872042D01*
X65359500Y-90886500D01*
X65359500Y-91231500D01*
X65358790Y-91245958D01*
X65356666Y-91260276D01*
X65353149Y-91274317D01*
X65348272Y-91287946D01*
X65342083Y-91301031D01*
X65334642Y-91313447D01*
X65326019Y-91325073D01*
X65316298Y-91335798D01*
X65305573Y-91345519D01*
X65293947Y-91354142D01*
X65281531Y-91361583D01*
X65268446Y-91367772D01*
X65254817Y-91372649D01*
X65240776Y-91376166D01*
X65226458Y-91378290D01*
X65212000Y-91379000D01*
X64917000Y-91379000D01*
X64902542Y-91378290D01*
X64888224Y-91376166D01*
X64874183Y-91372649D01*
X64860554Y-91367772D01*
X64847469Y-91361583D01*
X64835053Y-91354142D01*
X64823427Y-91345519D01*
X64812702Y-91335798D01*
X64802981Y-91325073D01*
X64794358Y-91313447D01*
X64786917Y-91301031D01*
X64780728Y-91287946D01*
X64775851Y-91274317D01*
X64772334Y-91260276D01*
X64770210Y-91245958D01*
X64769500Y-91231500D01*
X64769500Y-90886500D01*
X64770210Y-90872042D01*
X64772334Y-90857724D01*
X64775851Y-90843683D01*
X64780728Y-90830054D01*
X64786917Y-90816969D01*
X64794358Y-90804553D01*
X64802981Y-90792927D01*
X64812702Y-90782202D01*
X64823427Y-90772481D01*
X64835053Y-90763858D01*
X64847469Y-90756417D01*
X64860554Y-90750228D01*
X64874183Y-90745351D01*
X64888224Y-90741834D01*
X64902542Y-90739710D01*
X64917000Y-90739000D01*
X65212000Y-90739000D01*
X65226458Y-90739710D01*
X65226458Y-90739710D01*
G37*
D18*
X65064500Y-91059000D03*
D17*
G36*
X64256458Y-90739710D02*
G01*
X64270776Y-90741834D01*
X64284817Y-90745351D01*
X64298446Y-90750228D01*
X64311531Y-90756417D01*
X64323947Y-90763858D01*
X64335573Y-90772481D01*
X64346298Y-90782202D01*
X64356019Y-90792927D01*
X64364642Y-90804553D01*
X64372083Y-90816969D01*
X64378272Y-90830054D01*
X64383149Y-90843683D01*
X64386666Y-90857724D01*
X64388790Y-90872042D01*
X64389500Y-90886500D01*
X64389500Y-91231500D01*
X64388790Y-91245958D01*
X64386666Y-91260276D01*
X64383149Y-91274317D01*
X64378272Y-91287946D01*
X64372083Y-91301031D01*
X64364642Y-91313447D01*
X64356019Y-91325073D01*
X64346298Y-91335798D01*
X64335573Y-91345519D01*
X64323947Y-91354142D01*
X64311531Y-91361583D01*
X64298446Y-91367772D01*
X64284817Y-91372649D01*
X64270776Y-91376166D01*
X64256458Y-91378290D01*
X64242000Y-91379000D01*
X63947000Y-91379000D01*
X63932542Y-91378290D01*
X63918224Y-91376166D01*
X63904183Y-91372649D01*
X63890554Y-91367772D01*
X63877469Y-91361583D01*
X63865053Y-91354142D01*
X63853427Y-91345519D01*
X63842702Y-91335798D01*
X63832981Y-91325073D01*
X63824358Y-91313447D01*
X63816917Y-91301031D01*
X63810728Y-91287946D01*
X63805851Y-91274317D01*
X63802334Y-91260276D01*
X63800210Y-91245958D01*
X63799500Y-91231500D01*
X63799500Y-90886500D01*
X63800210Y-90872042D01*
X63802334Y-90857724D01*
X63805851Y-90843683D01*
X63810728Y-90830054D01*
X63816917Y-90816969D01*
X63824358Y-90804553D01*
X63832981Y-90792927D01*
X63842702Y-90782202D01*
X63853427Y-90772481D01*
X63865053Y-90763858D01*
X63877469Y-90756417D01*
X63890554Y-90750228D01*
X63904183Y-90745351D01*
X63918224Y-90741834D01*
X63932542Y-90739710D01*
X63947000Y-90739000D01*
X64242000Y-90739000D01*
X64256458Y-90739710D01*
X64256458Y-90739710D01*
G37*
D18*
X64094500Y-91059000D03*
D17*
G36*
X64256458Y-91946210D02*
G01*
X64270776Y-91948334D01*
X64284817Y-91951851D01*
X64298446Y-91956728D01*
X64311531Y-91962917D01*
X64323947Y-91970358D01*
X64335573Y-91978981D01*
X64346298Y-91988702D01*
X64356019Y-91999427D01*
X64364642Y-92011053D01*
X64372083Y-92023469D01*
X64378272Y-92036554D01*
X64383149Y-92050183D01*
X64386666Y-92064224D01*
X64388790Y-92078542D01*
X64389500Y-92093000D01*
X64389500Y-92438000D01*
X64388790Y-92452458D01*
X64386666Y-92466776D01*
X64383149Y-92480817D01*
X64378272Y-92494446D01*
X64372083Y-92507531D01*
X64364642Y-92519947D01*
X64356019Y-92531573D01*
X64346298Y-92542298D01*
X64335573Y-92552019D01*
X64323947Y-92560642D01*
X64311531Y-92568083D01*
X64298446Y-92574272D01*
X64284817Y-92579149D01*
X64270776Y-92582666D01*
X64256458Y-92584790D01*
X64242000Y-92585500D01*
X63947000Y-92585500D01*
X63932542Y-92584790D01*
X63918224Y-92582666D01*
X63904183Y-92579149D01*
X63890554Y-92574272D01*
X63877469Y-92568083D01*
X63865053Y-92560642D01*
X63853427Y-92552019D01*
X63842702Y-92542298D01*
X63832981Y-92531573D01*
X63824358Y-92519947D01*
X63816917Y-92507531D01*
X63810728Y-92494446D01*
X63805851Y-92480817D01*
X63802334Y-92466776D01*
X63800210Y-92452458D01*
X63799500Y-92438000D01*
X63799500Y-92093000D01*
X63800210Y-92078542D01*
X63802334Y-92064224D01*
X63805851Y-92050183D01*
X63810728Y-92036554D01*
X63816917Y-92023469D01*
X63824358Y-92011053D01*
X63832981Y-91999427D01*
X63842702Y-91988702D01*
X63853427Y-91978981D01*
X63865053Y-91970358D01*
X63877469Y-91962917D01*
X63890554Y-91956728D01*
X63904183Y-91951851D01*
X63918224Y-91948334D01*
X63932542Y-91946210D01*
X63947000Y-91945500D01*
X64242000Y-91945500D01*
X64256458Y-91946210D01*
X64256458Y-91946210D01*
G37*
D18*
X64094500Y-92265500D03*
D17*
G36*
X65226458Y-91946210D02*
G01*
X65240776Y-91948334D01*
X65254817Y-91951851D01*
X65268446Y-91956728D01*
X65281531Y-91962917D01*
X65293947Y-91970358D01*
X65305573Y-91978981D01*
X65316298Y-91988702D01*
X65326019Y-91999427D01*
X65334642Y-92011053D01*
X65342083Y-92023469D01*
X65348272Y-92036554D01*
X65353149Y-92050183D01*
X65356666Y-92064224D01*
X65358790Y-92078542D01*
X65359500Y-92093000D01*
X65359500Y-92438000D01*
X65358790Y-92452458D01*
X65356666Y-92466776D01*
X65353149Y-92480817D01*
X65348272Y-92494446D01*
X65342083Y-92507531D01*
X65334642Y-92519947D01*
X65326019Y-92531573D01*
X65316298Y-92542298D01*
X65305573Y-92552019D01*
X65293947Y-92560642D01*
X65281531Y-92568083D01*
X65268446Y-92574272D01*
X65254817Y-92579149D01*
X65240776Y-92582666D01*
X65226458Y-92584790D01*
X65212000Y-92585500D01*
X64917000Y-92585500D01*
X64902542Y-92584790D01*
X64888224Y-92582666D01*
X64874183Y-92579149D01*
X64860554Y-92574272D01*
X64847469Y-92568083D01*
X64835053Y-92560642D01*
X64823427Y-92552019D01*
X64812702Y-92542298D01*
X64802981Y-92531573D01*
X64794358Y-92519947D01*
X64786917Y-92507531D01*
X64780728Y-92494446D01*
X64775851Y-92480817D01*
X64772334Y-92466776D01*
X64770210Y-92452458D01*
X64769500Y-92438000D01*
X64769500Y-92093000D01*
X64770210Y-92078542D01*
X64772334Y-92064224D01*
X64775851Y-92050183D01*
X64780728Y-92036554D01*
X64786917Y-92023469D01*
X64794358Y-92011053D01*
X64802981Y-91999427D01*
X64812702Y-91988702D01*
X64823427Y-91978981D01*
X64835053Y-91970358D01*
X64847469Y-91962917D01*
X64860554Y-91956728D01*
X64874183Y-91951851D01*
X64888224Y-91948334D01*
X64902542Y-91946210D01*
X64917000Y-91945500D01*
X65212000Y-91945500D01*
X65226458Y-91946210D01*
X65226458Y-91946210D01*
G37*
D18*
X65064500Y-92265500D03*
D19*
X75202500Y-95691000D03*
X75202500Y-96191000D03*
X75202500Y-96691000D03*
X75202500Y-97191000D03*
X75202500Y-97691000D03*
X75202500Y-98191000D03*
X75202500Y-98691000D03*
X75202500Y-99191000D03*
X75202500Y-99691000D03*
X75202500Y-100191000D03*
X75202500Y-100691000D03*
X75202500Y-101191000D03*
X75202500Y-101691000D03*
X75202500Y-102191000D03*
X75202500Y-102691000D03*
X75202500Y-103191000D03*
D20*
X73282500Y-105111000D03*
X72782500Y-105111000D03*
X72282500Y-105111000D03*
X71782500Y-105111000D03*
X71282500Y-105111000D03*
X70782500Y-105111000D03*
X70282500Y-105111000D03*
X69782500Y-105111000D03*
X69282500Y-105111000D03*
X68782500Y-105111000D03*
X68282500Y-105111000D03*
X67782500Y-105111000D03*
X67282500Y-105111000D03*
X66782500Y-105111000D03*
X66282500Y-105111000D03*
X65782500Y-105111000D03*
D19*
X63862500Y-103191000D03*
X63862500Y-102691000D03*
X63862500Y-102191000D03*
X63862500Y-101691000D03*
X63862500Y-101191000D03*
X63862500Y-100691000D03*
X63862500Y-100191000D03*
X63862500Y-99691000D03*
X63862500Y-99191000D03*
X63862500Y-98691000D03*
X63862500Y-98191000D03*
X63862500Y-97691000D03*
X63862500Y-97191000D03*
X63862500Y-96691000D03*
X63862500Y-96191000D03*
X63862500Y-95691000D03*
D20*
X65782500Y-93771000D03*
X66282500Y-93771000D03*
X66782500Y-93771000D03*
X67282500Y-93771000D03*
X67782500Y-93771000D03*
X68282500Y-93771000D03*
X68782500Y-93771000D03*
X69282500Y-93771000D03*
X69782500Y-93771000D03*
X70282500Y-93771000D03*
X70782500Y-93771000D03*
X71282500Y-93771000D03*
X71782500Y-93771000D03*
X72282500Y-93771000D03*
X72782500Y-93771000D03*
X73282500Y-93771000D03*
D17*
G36*
X79898458Y-95484710D02*
G01*
X79912776Y-95486834D01*
X79926817Y-95490351D01*
X79940446Y-95495228D01*
X79953531Y-95501417D01*
X79965947Y-95508858D01*
X79977573Y-95517481D01*
X79988298Y-95527202D01*
X79998019Y-95537927D01*
X80006642Y-95549553D01*
X80014083Y-95561969D01*
X80020272Y-95575054D01*
X80025149Y-95588683D01*
X80028666Y-95602724D01*
X80030790Y-95617042D01*
X80031500Y-95631500D01*
X80031500Y-95926500D01*
X80030790Y-95940958D01*
X80028666Y-95955276D01*
X80025149Y-95969317D01*
X80020272Y-95982946D01*
X80014083Y-95996031D01*
X80006642Y-96008447D01*
X79998019Y-96020073D01*
X79988298Y-96030798D01*
X79977573Y-96040519D01*
X79965947Y-96049142D01*
X79953531Y-96056583D01*
X79940446Y-96062772D01*
X79926817Y-96067649D01*
X79912776Y-96071166D01*
X79898458Y-96073290D01*
X79884000Y-96074000D01*
X79539000Y-96074000D01*
X79524542Y-96073290D01*
X79510224Y-96071166D01*
X79496183Y-96067649D01*
X79482554Y-96062772D01*
X79469469Y-96056583D01*
X79457053Y-96049142D01*
X79445427Y-96040519D01*
X79434702Y-96030798D01*
X79424981Y-96020073D01*
X79416358Y-96008447D01*
X79408917Y-95996031D01*
X79402728Y-95982946D01*
X79397851Y-95969317D01*
X79394334Y-95955276D01*
X79392210Y-95940958D01*
X79391500Y-95926500D01*
X79391500Y-95631500D01*
X79392210Y-95617042D01*
X79394334Y-95602724D01*
X79397851Y-95588683D01*
X79402728Y-95575054D01*
X79408917Y-95561969D01*
X79416358Y-95549553D01*
X79424981Y-95537927D01*
X79434702Y-95527202D01*
X79445427Y-95517481D01*
X79457053Y-95508858D01*
X79469469Y-95501417D01*
X79482554Y-95495228D01*
X79496183Y-95490351D01*
X79510224Y-95486834D01*
X79524542Y-95484710D01*
X79539000Y-95484000D01*
X79884000Y-95484000D01*
X79898458Y-95484710D01*
X79898458Y-95484710D01*
G37*
D18*
X79711500Y-95779000D03*
D17*
G36*
X79898458Y-94514710D02*
G01*
X79912776Y-94516834D01*
X79926817Y-94520351D01*
X79940446Y-94525228D01*
X79953531Y-94531417D01*
X79965947Y-94538858D01*
X79977573Y-94547481D01*
X79988298Y-94557202D01*
X79998019Y-94567927D01*
X80006642Y-94579553D01*
X80014083Y-94591969D01*
X80020272Y-94605054D01*
X80025149Y-94618683D01*
X80028666Y-94632724D01*
X80030790Y-94647042D01*
X80031500Y-94661500D01*
X80031500Y-94956500D01*
X80030790Y-94970958D01*
X80028666Y-94985276D01*
X80025149Y-94999317D01*
X80020272Y-95012946D01*
X80014083Y-95026031D01*
X80006642Y-95038447D01*
X79998019Y-95050073D01*
X79988298Y-95060798D01*
X79977573Y-95070519D01*
X79965947Y-95079142D01*
X79953531Y-95086583D01*
X79940446Y-95092772D01*
X79926817Y-95097649D01*
X79912776Y-95101166D01*
X79898458Y-95103290D01*
X79884000Y-95104000D01*
X79539000Y-95104000D01*
X79524542Y-95103290D01*
X79510224Y-95101166D01*
X79496183Y-95097649D01*
X79482554Y-95092772D01*
X79469469Y-95086583D01*
X79457053Y-95079142D01*
X79445427Y-95070519D01*
X79434702Y-95060798D01*
X79424981Y-95050073D01*
X79416358Y-95038447D01*
X79408917Y-95026031D01*
X79402728Y-95012946D01*
X79397851Y-94999317D01*
X79394334Y-94985276D01*
X79392210Y-94970958D01*
X79391500Y-94956500D01*
X79391500Y-94661500D01*
X79392210Y-94647042D01*
X79394334Y-94632724D01*
X79397851Y-94618683D01*
X79402728Y-94605054D01*
X79408917Y-94591969D01*
X79416358Y-94579553D01*
X79424981Y-94567927D01*
X79434702Y-94557202D01*
X79445427Y-94547481D01*
X79457053Y-94538858D01*
X79469469Y-94531417D01*
X79482554Y-94525228D01*
X79496183Y-94520351D01*
X79510224Y-94516834D01*
X79524542Y-94514710D01*
X79539000Y-94514000D01*
X79884000Y-94514000D01*
X79898458Y-94514710D01*
X79898458Y-94514710D01*
G37*
D18*
X79711500Y-94809000D03*
D17*
G36*
X79898458Y-96915210D02*
G01*
X79912776Y-96917334D01*
X79926817Y-96920851D01*
X79940446Y-96925728D01*
X79953531Y-96931917D01*
X79965947Y-96939358D01*
X79977573Y-96947981D01*
X79988298Y-96957702D01*
X79998019Y-96968427D01*
X80006642Y-96980053D01*
X80014083Y-96992469D01*
X80020272Y-97005554D01*
X80025149Y-97019183D01*
X80028666Y-97033224D01*
X80030790Y-97047542D01*
X80031500Y-97062000D01*
X80031500Y-97357000D01*
X80030790Y-97371458D01*
X80028666Y-97385776D01*
X80025149Y-97399817D01*
X80020272Y-97413446D01*
X80014083Y-97426531D01*
X80006642Y-97438947D01*
X79998019Y-97450573D01*
X79988298Y-97461298D01*
X79977573Y-97471019D01*
X79965947Y-97479642D01*
X79953531Y-97487083D01*
X79940446Y-97493272D01*
X79926817Y-97498149D01*
X79912776Y-97501666D01*
X79898458Y-97503790D01*
X79884000Y-97504500D01*
X79539000Y-97504500D01*
X79524542Y-97503790D01*
X79510224Y-97501666D01*
X79496183Y-97498149D01*
X79482554Y-97493272D01*
X79469469Y-97487083D01*
X79457053Y-97479642D01*
X79445427Y-97471019D01*
X79434702Y-97461298D01*
X79424981Y-97450573D01*
X79416358Y-97438947D01*
X79408917Y-97426531D01*
X79402728Y-97413446D01*
X79397851Y-97399817D01*
X79394334Y-97385776D01*
X79392210Y-97371458D01*
X79391500Y-97357000D01*
X79391500Y-97062000D01*
X79392210Y-97047542D01*
X79394334Y-97033224D01*
X79397851Y-97019183D01*
X79402728Y-97005554D01*
X79408917Y-96992469D01*
X79416358Y-96980053D01*
X79424981Y-96968427D01*
X79434702Y-96957702D01*
X79445427Y-96947981D01*
X79457053Y-96939358D01*
X79469469Y-96931917D01*
X79482554Y-96925728D01*
X79496183Y-96920851D01*
X79510224Y-96917334D01*
X79524542Y-96915210D01*
X79539000Y-96914500D01*
X79884000Y-96914500D01*
X79898458Y-96915210D01*
X79898458Y-96915210D01*
G37*
D18*
X79711500Y-97209500D03*
D17*
G36*
X79898458Y-97885210D02*
G01*
X79912776Y-97887334D01*
X79926817Y-97890851D01*
X79940446Y-97895728D01*
X79953531Y-97901917D01*
X79965947Y-97909358D01*
X79977573Y-97917981D01*
X79988298Y-97927702D01*
X79998019Y-97938427D01*
X80006642Y-97950053D01*
X80014083Y-97962469D01*
X80020272Y-97975554D01*
X80025149Y-97989183D01*
X80028666Y-98003224D01*
X80030790Y-98017542D01*
X80031500Y-98032000D01*
X80031500Y-98327000D01*
X80030790Y-98341458D01*
X80028666Y-98355776D01*
X80025149Y-98369817D01*
X80020272Y-98383446D01*
X80014083Y-98396531D01*
X80006642Y-98408947D01*
X79998019Y-98420573D01*
X79988298Y-98431298D01*
X79977573Y-98441019D01*
X79965947Y-98449642D01*
X79953531Y-98457083D01*
X79940446Y-98463272D01*
X79926817Y-98468149D01*
X79912776Y-98471666D01*
X79898458Y-98473790D01*
X79884000Y-98474500D01*
X79539000Y-98474500D01*
X79524542Y-98473790D01*
X79510224Y-98471666D01*
X79496183Y-98468149D01*
X79482554Y-98463272D01*
X79469469Y-98457083D01*
X79457053Y-98449642D01*
X79445427Y-98441019D01*
X79434702Y-98431298D01*
X79424981Y-98420573D01*
X79416358Y-98408947D01*
X79408917Y-98396531D01*
X79402728Y-98383446D01*
X79397851Y-98369817D01*
X79394334Y-98355776D01*
X79392210Y-98341458D01*
X79391500Y-98327000D01*
X79391500Y-98032000D01*
X79392210Y-98017542D01*
X79394334Y-98003224D01*
X79397851Y-97989183D01*
X79402728Y-97975554D01*
X79408917Y-97962469D01*
X79416358Y-97950053D01*
X79424981Y-97938427D01*
X79434702Y-97927702D01*
X79445427Y-97917981D01*
X79457053Y-97909358D01*
X79469469Y-97901917D01*
X79482554Y-97895728D01*
X79496183Y-97890851D01*
X79510224Y-97887334D01*
X79524542Y-97885210D01*
X79539000Y-97884500D01*
X79884000Y-97884500D01*
X79898458Y-97885210D01*
X79898458Y-97885210D01*
G37*
D18*
X79711500Y-98179500D03*
D17*
G36*
X63369998Y-93843590D02*
G01*
X63384316Y-93845714D01*
X63398357Y-93849231D01*
X63411986Y-93854108D01*
X63425071Y-93860297D01*
X63437487Y-93867738D01*
X63449113Y-93876361D01*
X63459838Y-93886082D01*
X63469559Y-93896807D01*
X63478182Y-93908433D01*
X63485623Y-93920849D01*
X63491812Y-93933934D01*
X63496689Y-93947563D01*
X63500206Y-93961604D01*
X63502330Y-93975922D01*
X63503040Y-93990380D01*
X63503040Y-94335380D01*
X63502330Y-94349838D01*
X63500206Y-94364156D01*
X63496689Y-94378197D01*
X63491812Y-94391826D01*
X63485623Y-94404911D01*
X63478182Y-94417327D01*
X63469559Y-94428953D01*
X63459838Y-94439678D01*
X63449113Y-94449399D01*
X63437487Y-94458022D01*
X63425071Y-94465463D01*
X63411986Y-94471652D01*
X63398357Y-94476529D01*
X63384316Y-94480046D01*
X63369998Y-94482170D01*
X63355540Y-94482880D01*
X63060540Y-94482880D01*
X63046082Y-94482170D01*
X63031764Y-94480046D01*
X63017723Y-94476529D01*
X63004094Y-94471652D01*
X62991009Y-94465463D01*
X62978593Y-94458022D01*
X62966967Y-94449399D01*
X62956242Y-94439678D01*
X62946521Y-94428953D01*
X62937898Y-94417327D01*
X62930457Y-94404911D01*
X62924268Y-94391826D01*
X62919391Y-94378197D01*
X62915874Y-94364156D01*
X62913750Y-94349838D01*
X62913040Y-94335380D01*
X62913040Y-93990380D01*
X62913750Y-93975922D01*
X62915874Y-93961604D01*
X62919391Y-93947563D01*
X62924268Y-93933934D01*
X62930457Y-93920849D01*
X62937898Y-93908433D01*
X62946521Y-93896807D01*
X62956242Y-93886082D01*
X62966967Y-93876361D01*
X62978593Y-93867738D01*
X62991009Y-93860297D01*
X63004094Y-93854108D01*
X63017723Y-93849231D01*
X63031764Y-93845714D01*
X63046082Y-93843590D01*
X63060540Y-93842880D01*
X63355540Y-93842880D01*
X63369998Y-93843590D01*
X63369998Y-93843590D01*
G37*
D18*
X63208040Y-94162880D03*
D17*
G36*
X64339998Y-93843590D02*
G01*
X64354316Y-93845714D01*
X64368357Y-93849231D01*
X64381986Y-93854108D01*
X64395071Y-93860297D01*
X64407487Y-93867738D01*
X64419113Y-93876361D01*
X64429838Y-93886082D01*
X64439559Y-93896807D01*
X64448182Y-93908433D01*
X64455623Y-93920849D01*
X64461812Y-93933934D01*
X64466689Y-93947563D01*
X64470206Y-93961604D01*
X64472330Y-93975922D01*
X64473040Y-93990380D01*
X64473040Y-94335380D01*
X64472330Y-94349838D01*
X64470206Y-94364156D01*
X64466689Y-94378197D01*
X64461812Y-94391826D01*
X64455623Y-94404911D01*
X64448182Y-94417327D01*
X64439559Y-94428953D01*
X64429838Y-94439678D01*
X64419113Y-94449399D01*
X64407487Y-94458022D01*
X64395071Y-94465463D01*
X64381986Y-94471652D01*
X64368357Y-94476529D01*
X64354316Y-94480046D01*
X64339998Y-94482170D01*
X64325540Y-94482880D01*
X64030540Y-94482880D01*
X64016082Y-94482170D01*
X64001764Y-94480046D01*
X63987723Y-94476529D01*
X63974094Y-94471652D01*
X63961009Y-94465463D01*
X63948593Y-94458022D01*
X63936967Y-94449399D01*
X63926242Y-94439678D01*
X63916521Y-94428953D01*
X63907898Y-94417327D01*
X63900457Y-94404911D01*
X63894268Y-94391826D01*
X63889391Y-94378197D01*
X63885874Y-94364156D01*
X63883750Y-94349838D01*
X63883040Y-94335380D01*
X63883040Y-93990380D01*
X63883750Y-93975922D01*
X63885874Y-93961604D01*
X63889391Y-93947563D01*
X63894268Y-93933934D01*
X63900457Y-93920849D01*
X63907898Y-93908433D01*
X63916521Y-93896807D01*
X63926242Y-93886082D01*
X63936967Y-93876361D01*
X63948593Y-93867738D01*
X63961009Y-93860297D01*
X63974094Y-93854108D01*
X63987723Y-93849231D01*
X64001764Y-93845714D01*
X64016082Y-93843590D01*
X64030540Y-93842880D01*
X64325540Y-93842880D01*
X64339998Y-93843590D01*
X64339998Y-93843590D01*
G37*
D18*
X64178040Y-94162880D03*
D17*
G36*
X63468558Y-104352310D02*
G01*
X63482876Y-104354434D01*
X63496917Y-104357951D01*
X63510546Y-104362828D01*
X63523631Y-104369017D01*
X63536047Y-104376458D01*
X63547673Y-104385081D01*
X63558398Y-104394802D01*
X63568119Y-104405527D01*
X63576742Y-104417153D01*
X63584183Y-104429569D01*
X63590372Y-104442654D01*
X63595249Y-104456283D01*
X63598766Y-104470324D01*
X63600890Y-104484642D01*
X63601600Y-104499100D01*
X63601600Y-104794100D01*
X63600890Y-104808558D01*
X63598766Y-104822876D01*
X63595249Y-104836917D01*
X63590372Y-104850546D01*
X63584183Y-104863631D01*
X63576742Y-104876047D01*
X63568119Y-104887673D01*
X63558398Y-104898398D01*
X63547673Y-104908119D01*
X63536047Y-104916742D01*
X63523631Y-104924183D01*
X63510546Y-104930372D01*
X63496917Y-104935249D01*
X63482876Y-104938766D01*
X63468558Y-104940890D01*
X63454100Y-104941600D01*
X63109100Y-104941600D01*
X63094642Y-104940890D01*
X63080324Y-104938766D01*
X63066283Y-104935249D01*
X63052654Y-104930372D01*
X63039569Y-104924183D01*
X63027153Y-104916742D01*
X63015527Y-104908119D01*
X63004802Y-104898398D01*
X62995081Y-104887673D01*
X62986458Y-104876047D01*
X62979017Y-104863631D01*
X62972828Y-104850546D01*
X62967951Y-104836917D01*
X62964434Y-104822876D01*
X62962310Y-104808558D01*
X62961600Y-104794100D01*
X62961600Y-104499100D01*
X62962310Y-104484642D01*
X62964434Y-104470324D01*
X62967951Y-104456283D01*
X62972828Y-104442654D01*
X62979017Y-104429569D01*
X62986458Y-104417153D01*
X62995081Y-104405527D01*
X63004802Y-104394802D01*
X63015527Y-104385081D01*
X63027153Y-104376458D01*
X63039569Y-104369017D01*
X63052654Y-104362828D01*
X63066283Y-104357951D01*
X63080324Y-104354434D01*
X63094642Y-104352310D01*
X63109100Y-104351600D01*
X63454100Y-104351600D01*
X63468558Y-104352310D01*
X63468558Y-104352310D01*
G37*
D18*
X63281600Y-104646600D03*
D17*
G36*
X63468558Y-105322310D02*
G01*
X63482876Y-105324434D01*
X63496917Y-105327951D01*
X63510546Y-105332828D01*
X63523631Y-105339017D01*
X63536047Y-105346458D01*
X63547673Y-105355081D01*
X63558398Y-105364802D01*
X63568119Y-105375527D01*
X63576742Y-105387153D01*
X63584183Y-105399569D01*
X63590372Y-105412654D01*
X63595249Y-105426283D01*
X63598766Y-105440324D01*
X63600890Y-105454642D01*
X63601600Y-105469100D01*
X63601600Y-105764100D01*
X63600890Y-105778558D01*
X63598766Y-105792876D01*
X63595249Y-105806917D01*
X63590372Y-105820546D01*
X63584183Y-105833631D01*
X63576742Y-105846047D01*
X63568119Y-105857673D01*
X63558398Y-105868398D01*
X63547673Y-105878119D01*
X63536047Y-105886742D01*
X63523631Y-105894183D01*
X63510546Y-105900372D01*
X63496917Y-105905249D01*
X63482876Y-105908766D01*
X63468558Y-105910890D01*
X63454100Y-105911600D01*
X63109100Y-105911600D01*
X63094642Y-105910890D01*
X63080324Y-105908766D01*
X63066283Y-105905249D01*
X63052654Y-105900372D01*
X63039569Y-105894183D01*
X63027153Y-105886742D01*
X63015527Y-105878119D01*
X63004802Y-105868398D01*
X62995081Y-105857673D01*
X62986458Y-105846047D01*
X62979017Y-105833631D01*
X62972828Y-105820546D01*
X62967951Y-105806917D01*
X62964434Y-105792876D01*
X62962310Y-105778558D01*
X62961600Y-105764100D01*
X62961600Y-105469100D01*
X62962310Y-105454642D01*
X62964434Y-105440324D01*
X62967951Y-105426283D01*
X62972828Y-105412654D01*
X62979017Y-105399569D01*
X62986458Y-105387153D01*
X62995081Y-105375527D01*
X63004802Y-105364802D01*
X63015527Y-105355081D01*
X63027153Y-105346458D01*
X63039569Y-105339017D01*
X63052654Y-105332828D01*
X63066283Y-105327951D01*
X63080324Y-105324434D01*
X63094642Y-105322310D01*
X63109100Y-105321600D01*
X63454100Y-105321600D01*
X63468558Y-105322310D01*
X63468558Y-105322310D01*
G37*
D18*
X63281600Y-105616600D03*
D17*
G36*
X67679752Y-91952602D02*
G01*
X67691886Y-91954402D01*
X67703786Y-91957382D01*
X67715335Y-91961515D01*
X67726425Y-91966760D01*
X67736946Y-91973066D01*
X67746799Y-91980374D01*
X67755888Y-91988612D01*
X67764126Y-91997701D01*
X67771434Y-92007554D01*
X67777740Y-92018075D01*
X67782985Y-92029165D01*
X67787118Y-92040714D01*
X67790098Y-92052614D01*
X67791898Y-92064748D01*
X67792500Y-92077000D01*
X67792500Y-92327000D01*
X67791898Y-92339252D01*
X67790098Y-92351386D01*
X67787118Y-92363286D01*
X67782985Y-92374835D01*
X67777740Y-92385925D01*
X67771434Y-92396446D01*
X67764126Y-92406299D01*
X67755888Y-92415388D01*
X67746799Y-92423626D01*
X67736946Y-92430934D01*
X67726425Y-92437240D01*
X67715335Y-92442485D01*
X67703786Y-92446618D01*
X67691886Y-92449598D01*
X67679752Y-92451398D01*
X67667500Y-92452000D01*
X66317500Y-92452000D01*
X66305248Y-92451398D01*
X66293114Y-92449598D01*
X66281214Y-92446618D01*
X66269665Y-92442485D01*
X66258575Y-92437240D01*
X66248054Y-92430934D01*
X66238201Y-92423626D01*
X66229112Y-92415388D01*
X66220874Y-92406299D01*
X66213566Y-92396446D01*
X66207260Y-92385925D01*
X66202015Y-92374835D01*
X66197882Y-92363286D01*
X66194902Y-92351386D01*
X66193102Y-92339252D01*
X66192500Y-92327000D01*
X66192500Y-92077000D01*
X66193102Y-92064748D01*
X66194902Y-92052614D01*
X66197882Y-92040714D01*
X66202015Y-92029165D01*
X66207260Y-92018075D01*
X66213566Y-92007554D01*
X66220874Y-91997701D01*
X66229112Y-91988612D01*
X66238201Y-91980374D01*
X66248054Y-91973066D01*
X66258575Y-91966760D01*
X66269665Y-91961515D01*
X66281214Y-91957382D01*
X66293114Y-91954402D01*
X66305248Y-91952602D01*
X66317500Y-91952000D01*
X67667500Y-91952000D01*
X67679752Y-91952602D01*
X67679752Y-91952602D01*
G37*
D21*
X66992500Y-92202000D03*
D17*
G36*
X67679752Y-90452602D02*
G01*
X67691886Y-90454402D01*
X67703786Y-90457382D01*
X67715335Y-90461515D01*
X67726425Y-90466760D01*
X67736946Y-90473066D01*
X67746799Y-90480374D01*
X67755888Y-90488612D01*
X67764126Y-90497701D01*
X67771434Y-90507554D01*
X67777740Y-90518075D01*
X67782985Y-90529165D01*
X67787118Y-90540714D01*
X67790098Y-90552614D01*
X67791898Y-90564748D01*
X67792500Y-90577000D01*
X67792500Y-90827000D01*
X67791898Y-90839252D01*
X67790098Y-90851386D01*
X67787118Y-90863286D01*
X67782985Y-90874835D01*
X67777740Y-90885925D01*
X67771434Y-90896446D01*
X67764126Y-90906299D01*
X67755888Y-90915388D01*
X67746799Y-90923626D01*
X67736946Y-90930934D01*
X67726425Y-90937240D01*
X67715335Y-90942485D01*
X67703786Y-90946618D01*
X67691886Y-90949598D01*
X67679752Y-90951398D01*
X67667500Y-90952000D01*
X66317500Y-90952000D01*
X66305248Y-90951398D01*
X66293114Y-90949598D01*
X66281214Y-90946618D01*
X66269665Y-90942485D01*
X66258575Y-90937240D01*
X66248054Y-90930934D01*
X66238201Y-90923626D01*
X66229112Y-90915388D01*
X66220874Y-90906299D01*
X66213566Y-90896446D01*
X66207260Y-90885925D01*
X66202015Y-90874835D01*
X66197882Y-90863286D01*
X66194902Y-90851386D01*
X66193102Y-90839252D01*
X66192500Y-90827000D01*
X66192500Y-90577000D01*
X66193102Y-90564748D01*
X66194902Y-90552614D01*
X66197882Y-90540714D01*
X66202015Y-90529165D01*
X66207260Y-90518075D01*
X66213566Y-90507554D01*
X66220874Y-90497701D01*
X66229112Y-90488612D01*
X66238201Y-90480374D01*
X66248054Y-90473066D01*
X66258575Y-90466760D01*
X66269665Y-90461515D01*
X66281214Y-90457382D01*
X66293114Y-90454402D01*
X66305248Y-90452602D01*
X66317500Y-90452000D01*
X67667500Y-90452000D01*
X67679752Y-90452602D01*
X67679752Y-90452602D01*
G37*
D21*
X66992500Y-90702000D03*
D17*
G36*
X58213958Y-99890210D02*
G01*
X58228276Y-99892334D01*
X58242317Y-99895851D01*
X58255946Y-99900728D01*
X58269031Y-99906917D01*
X58281447Y-99914358D01*
X58293073Y-99922981D01*
X58303798Y-99932702D01*
X58313519Y-99943427D01*
X58322142Y-99955053D01*
X58329583Y-99967469D01*
X58335772Y-99980554D01*
X58340649Y-99994183D01*
X58344166Y-100008224D01*
X58346290Y-100022542D01*
X58347000Y-100037000D01*
X58347000Y-100382000D01*
X58346290Y-100396458D01*
X58344166Y-100410776D01*
X58340649Y-100424817D01*
X58335772Y-100438446D01*
X58329583Y-100451531D01*
X58322142Y-100463947D01*
X58313519Y-100475573D01*
X58303798Y-100486298D01*
X58293073Y-100496019D01*
X58281447Y-100504642D01*
X58269031Y-100512083D01*
X58255946Y-100518272D01*
X58242317Y-100523149D01*
X58228276Y-100526666D01*
X58213958Y-100528790D01*
X58199500Y-100529500D01*
X57904500Y-100529500D01*
X57890042Y-100528790D01*
X57875724Y-100526666D01*
X57861683Y-100523149D01*
X57848054Y-100518272D01*
X57834969Y-100512083D01*
X57822553Y-100504642D01*
X57810927Y-100496019D01*
X57800202Y-100486298D01*
X57790481Y-100475573D01*
X57781858Y-100463947D01*
X57774417Y-100451531D01*
X57768228Y-100438446D01*
X57763351Y-100424817D01*
X57759834Y-100410776D01*
X57757710Y-100396458D01*
X57757000Y-100382000D01*
X57757000Y-100037000D01*
X57757710Y-100022542D01*
X57759834Y-100008224D01*
X57763351Y-99994183D01*
X57768228Y-99980554D01*
X57774417Y-99967469D01*
X57781858Y-99955053D01*
X57790481Y-99943427D01*
X57800202Y-99932702D01*
X57810927Y-99922981D01*
X57822553Y-99914358D01*
X57834969Y-99906917D01*
X57848054Y-99900728D01*
X57861683Y-99895851D01*
X57875724Y-99892334D01*
X57890042Y-99890210D01*
X57904500Y-99889500D01*
X58199500Y-99889500D01*
X58213958Y-99890210D01*
X58213958Y-99890210D01*
G37*
D18*
X58052000Y-100209500D03*
D17*
G36*
X59183958Y-99890210D02*
G01*
X59198276Y-99892334D01*
X59212317Y-99895851D01*
X59225946Y-99900728D01*
X59239031Y-99906917D01*
X59251447Y-99914358D01*
X59263073Y-99922981D01*
X59273798Y-99932702D01*
X59283519Y-99943427D01*
X59292142Y-99955053D01*
X59299583Y-99967469D01*
X59305772Y-99980554D01*
X59310649Y-99994183D01*
X59314166Y-100008224D01*
X59316290Y-100022542D01*
X59317000Y-100037000D01*
X59317000Y-100382000D01*
X59316290Y-100396458D01*
X59314166Y-100410776D01*
X59310649Y-100424817D01*
X59305772Y-100438446D01*
X59299583Y-100451531D01*
X59292142Y-100463947D01*
X59283519Y-100475573D01*
X59273798Y-100486298D01*
X59263073Y-100496019D01*
X59251447Y-100504642D01*
X59239031Y-100512083D01*
X59225946Y-100518272D01*
X59212317Y-100523149D01*
X59198276Y-100526666D01*
X59183958Y-100528790D01*
X59169500Y-100529500D01*
X58874500Y-100529500D01*
X58860042Y-100528790D01*
X58845724Y-100526666D01*
X58831683Y-100523149D01*
X58818054Y-100518272D01*
X58804969Y-100512083D01*
X58792553Y-100504642D01*
X58780927Y-100496019D01*
X58770202Y-100486298D01*
X58760481Y-100475573D01*
X58751858Y-100463947D01*
X58744417Y-100451531D01*
X58738228Y-100438446D01*
X58733351Y-100424817D01*
X58729834Y-100410776D01*
X58727710Y-100396458D01*
X58727000Y-100382000D01*
X58727000Y-100037000D01*
X58727710Y-100022542D01*
X58729834Y-100008224D01*
X58733351Y-99994183D01*
X58738228Y-99980554D01*
X58744417Y-99967469D01*
X58751858Y-99955053D01*
X58760481Y-99943427D01*
X58770202Y-99932702D01*
X58780927Y-99922981D01*
X58792553Y-99914358D01*
X58804969Y-99906917D01*
X58818054Y-99900728D01*
X58831683Y-99895851D01*
X58845724Y-99892334D01*
X58860042Y-99890210D01*
X58874500Y-99889500D01*
X59169500Y-99889500D01*
X59183958Y-99890210D01*
X59183958Y-99890210D01*
G37*
D18*
X59022000Y-100209500D03*
D22*
X77851000Y-97262000D03*
X77851000Y-94762000D03*
M02*
