%TF.GenerationSoftware,KiCad,Pcbnew,(6.0.0-rc1-dev-1614-ge850a482d)*%
%TF.CreationDate,2019-03-08T08:34:45-08:00*%
%TF.ProjectId,SAM32,53414d33-322e-46b6-9963-61645f706362,rev?*%
%TF.SameCoordinates,Original*%
%TF.FileFunction,Legend,Bot*%
%TF.FilePolarity,Positive*%
%FSLAX46Y46*%
G04 Gerber Fmt 4.6, Leading zero omitted, Abs format (unit mm)*
G04 Created by KiCad (PCBNEW (6.0.0-rc1-dev-1614-ge850a482d)) date 2019-03-08 08:34:45*
%MOMM*%
%LPD*%
G04 APERTURE LIST*
%ADD10C,0.150000*%
%ADD11C,0.381000*%
%ADD12C,0.127000*%
%ADD13C,0.508000*%
%ADD14C,0.172720*%
%ADD15C,0.177800*%
%ADD16C,0.177000*%
%ADD17C,0.200000*%
%ADD18C,0.120000*%
%ADD19C,0.088900*%
G04 APERTURE END LIST*
D10*
X73914000Y-95783400D02*
X74041000Y-95707200D01*
X73914000Y-95580200D02*
X73914000Y-95783400D01*
X74091800Y-95681800D02*
X73914000Y-95580200D01*
X73812400Y-95961200D02*
X74218800Y-95681800D01*
X73812400Y-95402400D02*
X73812400Y-95961200D01*
X74218800Y-95681800D02*
X73812400Y-95402400D01*
D11*
X86464140Y-107246420D02*
X86464140Y-110528100D01*
X94086680Y-107127040D02*
X94086680Y-110408720D01*
D12*
X73411019Y-107983261D02*
X73411019Y-107348261D01*
X73259829Y-107348261D01*
X73169114Y-107378500D01*
X73108638Y-107438976D01*
X73078400Y-107499452D01*
X73048162Y-107620404D01*
X73048162Y-107711119D01*
X73078400Y-107832071D01*
X73108638Y-107892547D01*
X73169114Y-107953023D01*
X73259829Y-107983261D01*
X73411019Y-107983261D01*
X72503876Y-107559928D02*
X72503876Y-107983261D01*
X72655067Y-107318023D02*
X72806257Y-107771595D01*
X72413162Y-107771595D01*
X72201495Y-107408738D02*
X72171257Y-107378500D01*
X72110781Y-107348261D01*
X71959590Y-107348261D01*
X71899114Y-107378500D01*
X71868876Y-107408738D01*
X71838638Y-107469214D01*
X71838638Y-107529690D01*
X71868876Y-107620404D01*
X72231733Y-107983261D01*
X71838638Y-107983261D01*
X75857039Y-107983261D02*
X75857039Y-107348261D01*
X75705849Y-107348261D01*
X75615134Y-107378500D01*
X75554658Y-107438976D01*
X75524420Y-107499452D01*
X75494182Y-107620404D01*
X75494182Y-107711119D01*
X75524420Y-107832071D01*
X75554658Y-107892547D01*
X75615134Y-107953023D01*
X75705849Y-107983261D01*
X75857039Y-107983261D01*
X74949896Y-107559928D02*
X74949896Y-107983261D01*
X75101087Y-107318023D02*
X75252277Y-107771595D01*
X74859182Y-107771595D01*
X74284658Y-107983261D02*
X74647515Y-107983261D01*
X74466087Y-107983261D02*
X74466087Y-107348261D01*
X74526563Y-107438976D01*
X74587039Y-107499452D01*
X74647515Y-107529690D01*
X83586259Y-107983261D02*
X83586259Y-107348261D01*
X83435069Y-107348261D01*
X83344354Y-107378500D01*
X83283878Y-107438976D01*
X83253640Y-107499452D01*
X83223402Y-107620404D01*
X83223402Y-107711119D01*
X83253640Y-107832071D01*
X83283878Y-107892547D01*
X83344354Y-107953023D01*
X83435069Y-107983261D01*
X83586259Y-107983261D01*
X83011735Y-107348261D02*
X82618640Y-107348261D01*
X82830307Y-107590166D01*
X82739592Y-107590166D01*
X82679116Y-107620404D01*
X82648878Y-107650642D01*
X82618640Y-107711119D01*
X82618640Y-107862309D01*
X82648878Y-107922785D01*
X82679116Y-107953023D01*
X82739592Y-107983261D01*
X82921021Y-107983261D01*
X82981497Y-107953023D01*
X83011735Y-107922785D01*
X82044116Y-107348261D02*
X82346497Y-107348261D01*
X82376735Y-107650642D01*
X82346497Y-107620404D01*
X82286021Y-107590166D01*
X82134830Y-107590166D01*
X82074354Y-107620404D01*
X82044116Y-107650642D01*
X82013878Y-107711119D01*
X82013878Y-107862309D01*
X82044116Y-107922785D01*
X82074354Y-107953023D01*
X82134830Y-107983261D01*
X82286021Y-107983261D01*
X82346497Y-107953023D01*
X82376735Y-107922785D01*
X85872259Y-107983261D02*
X85872259Y-107348261D01*
X85721069Y-107348261D01*
X85630354Y-107378500D01*
X85569878Y-107438976D01*
X85539640Y-107499452D01*
X85509402Y-107620404D01*
X85509402Y-107711119D01*
X85539640Y-107832071D01*
X85569878Y-107892547D01*
X85630354Y-107953023D01*
X85721069Y-107983261D01*
X85872259Y-107983261D01*
X85297735Y-107348261D02*
X84904640Y-107348261D01*
X85116307Y-107590166D01*
X85025592Y-107590166D01*
X84965116Y-107620404D01*
X84934878Y-107650642D01*
X84904640Y-107711119D01*
X84904640Y-107862309D01*
X84934878Y-107922785D01*
X84965116Y-107953023D01*
X85025592Y-107983261D01*
X85207021Y-107983261D01*
X85267497Y-107953023D01*
X85297735Y-107922785D01*
X84299878Y-107983261D02*
X84662735Y-107983261D01*
X84481307Y-107983261D02*
X84481307Y-107348261D01*
X84541783Y-107438976D01*
X84602259Y-107499452D01*
X84662735Y-107529690D01*
X95573402Y-107983261D02*
X95785069Y-107680880D01*
X95936259Y-107983261D02*
X95936259Y-107348261D01*
X95694354Y-107348261D01*
X95633878Y-107378500D01*
X95603640Y-107408738D01*
X95573402Y-107469214D01*
X95573402Y-107559928D01*
X95603640Y-107620404D01*
X95633878Y-107650642D01*
X95694354Y-107680880D01*
X95936259Y-107680880D01*
X95361735Y-107348261D02*
X94938402Y-107983261D01*
X94938402Y-107348261D02*
X95361735Y-107983261D01*
X103652259Y-107983261D02*
X103652259Y-107348261D01*
X103501069Y-107348261D01*
X103410354Y-107378500D01*
X103349878Y-107438976D01*
X103319640Y-107499452D01*
X103289402Y-107620404D01*
X103289402Y-107711119D01*
X103319640Y-107832071D01*
X103349878Y-107892547D01*
X103410354Y-107953023D01*
X103501069Y-107983261D01*
X103652259Y-107983261D01*
X102684640Y-107983261D02*
X103047497Y-107983261D01*
X102866069Y-107983261D02*
X102866069Y-107348261D01*
X102926545Y-107438976D01*
X102987021Y-107499452D01*
X103047497Y-107529690D01*
X102140354Y-107348261D02*
X102261307Y-107348261D01*
X102321783Y-107378500D01*
X102352021Y-107408738D01*
X102412497Y-107499452D01*
X102442735Y-107620404D01*
X102442735Y-107862309D01*
X102412497Y-107922785D01*
X102382259Y-107953023D01*
X102321783Y-107983261D01*
X102200830Y-107983261D01*
X102140354Y-107953023D01*
X102110116Y-107922785D01*
X102079878Y-107862309D01*
X102079878Y-107711119D01*
X102110116Y-107650642D01*
X102140354Y-107620404D01*
X102200830Y-107590166D01*
X102321783Y-107590166D01*
X102382259Y-107620404D01*
X102412497Y-107650642D01*
X102442735Y-107711119D01*
X98336973Y-107348261D02*
X97974116Y-107348261D01*
X98155545Y-107983261D02*
X98155545Y-107348261D01*
X97822926Y-107348261D02*
X97399592Y-107983261D01*
X97399592Y-107348261D02*
X97822926Y-107983261D01*
D13*
X109192060Y-106945080D02*
X109192060Y-108498640D01*
X106652060Y-111038640D02*
G75*
G03X109192060Y-108498640I0J2540000D01*
G01*
X103755076Y-102181768D02*
X109192060Y-106945080D01*
X55852060Y-96296067D02*
X56300000Y-96740000D01*
X103758052Y-96469398D02*
X109220013Y-91690000D01*
X103758039Y-96469407D02*
G75*
G03X103628512Y-96721166I160472J-241760D01*
G01*
X103755063Y-102181759D02*
G75*
G02X103625536Y-101930000I160472J241760D01*
G01*
X103625536Y-101930000D02*
X103628512Y-96721166D01*
X55852060Y-102438136D02*
X56300000Y-101994203D01*
X56300000Y-101994203D02*
G75*
G03X56361488Y-101805369I-228511J178835D01*
G01*
X56300000Y-96740000D02*
G75*
G02X56361488Y-96928834I-228511J-178835D01*
G01*
D12*
X102983928Y-104665883D02*
X103407261Y-104665883D01*
X102983928Y-104393740D02*
X103316547Y-104393740D01*
X103377023Y-104423978D01*
X103407261Y-104484454D01*
X103407261Y-104575169D01*
X103377023Y-104635645D01*
X103346785Y-104665883D01*
X103377023Y-104938026D02*
X103407261Y-105028740D01*
X103407261Y-105179930D01*
X103377023Y-105240407D01*
X103346785Y-105270645D01*
X103286309Y-105300883D01*
X103225833Y-105300883D01*
X103165357Y-105270645D01*
X103135119Y-105240407D01*
X103104880Y-105179930D01*
X103074642Y-105058978D01*
X103044404Y-104998502D01*
X103014166Y-104968264D01*
X102953690Y-104938026D01*
X102893214Y-104938026D01*
X102832738Y-104968264D01*
X102802500Y-104998502D01*
X102772261Y-105058978D01*
X102772261Y-105210169D01*
X102802500Y-105300883D01*
X103407261Y-105573026D02*
X102772261Y-105573026D01*
X102772261Y-105724216D01*
X102802500Y-105814930D01*
X102862976Y-105875407D01*
X102923452Y-105905645D01*
X103044404Y-105935883D01*
X103135119Y-105935883D01*
X103256071Y-105905645D01*
X103316547Y-105875407D01*
X103377023Y-105814930D01*
X103407261Y-105724216D01*
X103407261Y-105573026D01*
D14*
X82502828Y-100812382D02*
X83044695Y-101005906D01*
X82502828Y-101199429D01*
X82309304Y-101470363D02*
X82270600Y-101509068D01*
X82231895Y-101586477D01*
X82231895Y-101780001D01*
X82270600Y-101857410D01*
X82309304Y-101896115D01*
X82386714Y-101934820D01*
X82464123Y-101934820D01*
X82580238Y-101896115D01*
X83044695Y-101431658D01*
X83044695Y-101934820D01*
X82309304Y-102244458D02*
X82270600Y-102283163D01*
X82231895Y-102360572D01*
X82231895Y-102554096D01*
X82270600Y-102631506D01*
X82309304Y-102670210D01*
X82386714Y-102708915D01*
X82464123Y-102708915D01*
X82580238Y-102670210D01*
X83044695Y-102205753D01*
X83044695Y-102708915D01*
D12*
X84498240Y-90644738D02*
X84498240Y-91279738D01*
X84649430Y-91279738D01*
X84740145Y-91249500D01*
X84800621Y-91189023D01*
X84830859Y-91128547D01*
X84861097Y-91007595D01*
X84861097Y-90916880D01*
X84830859Y-90795928D01*
X84800621Y-90735452D01*
X84740145Y-90674976D01*
X84649430Y-90644738D01*
X84498240Y-90644738D01*
X85405383Y-91279738D02*
X85284430Y-91279738D01*
X85223954Y-91249500D01*
X85193716Y-91219261D01*
X85133240Y-91128547D01*
X85103002Y-91007595D01*
X85103002Y-90765690D01*
X85133240Y-90705214D01*
X85163478Y-90674976D01*
X85223954Y-90644738D01*
X85344907Y-90644738D01*
X85405383Y-90674976D01*
X85435621Y-90705214D01*
X85465859Y-90765690D01*
X85465859Y-90916880D01*
X85435621Y-90977357D01*
X85405383Y-91007595D01*
X85344907Y-91037833D01*
X85223954Y-91037833D01*
X85163478Y-91007595D01*
X85133240Y-90977357D01*
X85103002Y-90916880D01*
X86010145Y-91068071D02*
X86010145Y-90644738D01*
X85858954Y-91309976D02*
X85707764Y-90856404D01*
X86100859Y-90856404D01*
X92088002Y-90826166D02*
X92390383Y-90826166D01*
X92027526Y-90644738D02*
X92239192Y-91279738D01*
X92450859Y-90644738D01*
X92662526Y-90644738D02*
X92662526Y-91279738D01*
X92964907Y-90644738D02*
X92964907Y-91279738D01*
X93327764Y-90644738D01*
X93327764Y-91279738D01*
X93569669Y-91279738D02*
X93993002Y-91279738D01*
X93720859Y-90644738D01*
X102248002Y-90674976D02*
X102338716Y-90644738D01*
X102489907Y-90644738D01*
X102550383Y-90674976D01*
X102580621Y-90705214D01*
X102610859Y-90765690D01*
X102610859Y-90826166D01*
X102580621Y-90886642D01*
X102550383Y-90916880D01*
X102489907Y-90947119D01*
X102368954Y-90977357D01*
X102308478Y-91007595D01*
X102278240Y-91037833D01*
X102248002Y-91098309D01*
X102248002Y-91158785D01*
X102278240Y-91219261D01*
X102308478Y-91249500D01*
X102368954Y-91279738D01*
X102520145Y-91279738D01*
X102610859Y-91249500D01*
X102883002Y-90644738D02*
X102883002Y-91279738D01*
X103034192Y-91279738D01*
X103124907Y-91249500D01*
X103185383Y-91189023D01*
X103215621Y-91128547D01*
X103245859Y-91007595D01*
X103245859Y-90916880D01*
X103215621Y-90795928D01*
X103185383Y-90735452D01*
X103124907Y-90674976D01*
X103034192Y-90644738D01*
X102883002Y-90644738D01*
X103487764Y-90826166D02*
X103790145Y-90826166D01*
X103427288Y-90644738D02*
X103638954Y-91279738D01*
X103850621Y-90644738D01*
X81958240Y-90644738D02*
X81958240Y-91279738D01*
X82109430Y-91279738D01*
X82200145Y-91249500D01*
X82260621Y-91189023D01*
X82290859Y-91128547D01*
X82321097Y-91007595D01*
X82321097Y-90916880D01*
X82290859Y-90795928D01*
X82260621Y-90735452D01*
X82200145Y-90674976D01*
X82109430Y-90644738D01*
X81958240Y-90644738D01*
X82865383Y-91279738D02*
X82744430Y-91279738D01*
X82683954Y-91249500D01*
X82653716Y-91219261D01*
X82593240Y-91128547D01*
X82563002Y-91007595D01*
X82563002Y-90765690D01*
X82593240Y-90705214D01*
X82623478Y-90674976D01*
X82683954Y-90644738D01*
X82804907Y-90644738D01*
X82865383Y-90674976D01*
X82895621Y-90705214D01*
X82925859Y-90765690D01*
X82925859Y-90916880D01*
X82895621Y-90977357D01*
X82865383Y-91007595D01*
X82804907Y-91037833D01*
X82683954Y-91037833D01*
X82623478Y-91007595D01*
X82593240Y-90977357D01*
X82563002Y-90916880D01*
X83318954Y-91279738D02*
X83379430Y-91279738D01*
X83439907Y-91249500D01*
X83470145Y-91219261D01*
X83500383Y-91158785D01*
X83530621Y-91037833D01*
X83530621Y-90886642D01*
X83500383Y-90765690D01*
X83470145Y-90705214D01*
X83439907Y-90674976D01*
X83379430Y-90644738D01*
X83318954Y-90644738D01*
X83258478Y-90674976D01*
X83228240Y-90705214D01*
X83198002Y-90765690D01*
X83167764Y-90886642D01*
X83167764Y-91037833D01*
X83198002Y-91158785D01*
X83228240Y-91219261D01*
X83258478Y-91249500D01*
X83318954Y-91279738D01*
X94628002Y-90826166D02*
X94930383Y-90826166D01*
X94567526Y-90644738D02*
X94779192Y-91279738D01*
X94990859Y-90644738D01*
X95202526Y-90644738D02*
X95202526Y-91279738D01*
X95504907Y-90644738D02*
X95504907Y-91279738D01*
X95867764Y-90644738D01*
X95867764Y-91279738D01*
X96260859Y-91007595D02*
X96200383Y-91037833D01*
X96170145Y-91068071D01*
X96139907Y-91128547D01*
X96139907Y-91158785D01*
X96170145Y-91219261D01*
X96200383Y-91249500D01*
X96260859Y-91279738D01*
X96381811Y-91279738D01*
X96442288Y-91249500D01*
X96472526Y-91219261D01*
X96502764Y-91158785D01*
X96502764Y-91128547D01*
X96472526Y-91068071D01*
X96442288Y-91037833D01*
X96381811Y-91007595D01*
X96260859Y-91007595D01*
X96200383Y-90977357D01*
X96170145Y-90947119D01*
X96139907Y-90886642D01*
X96139907Y-90765690D01*
X96170145Y-90705214D01*
X96200383Y-90674976D01*
X96260859Y-90644738D01*
X96381811Y-90644738D01*
X96442288Y-90674976D01*
X96472526Y-90705214D01*
X96502764Y-90765690D01*
X96502764Y-90886642D01*
X96472526Y-90947119D01*
X96442288Y-90977357D01*
X96381811Y-91007595D01*
X86847740Y-90644738D02*
X86847740Y-91279738D01*
X86998930Y-91279738D01*
X87089645Y-91249500D01*
X87150121Y-91189023D01*
X87180359Y-91128547D01*
X87210597Y-91007595D01*
X87210597Y-90916880D01*
X87180359Y-90795928D01*
X87150121Y-90735452D01*
X87089645Y-90674976D01*
X86998930Y-90644738D01*
X86847740Y-90644738D01*
X87452502Y-90826166D02*
X87754883Y-90826166D01*
X87392026Y-90644738D02*
X87603692Y-91279738D01*
X87815359Y-90644738D01*
X88389883Y-90705214D02*
X88359645Y-90674976D01*
X88268930Y-90644738D01*
X88208454Y-90644738D01*
X88117740Y-90674976D01*
X88057264Y-90735452D01*
X88027026Y-90795928D01*
X87996788Y-90916880D01*
X87996788Y-91007595D01*
X88027026Y-91128547D01*
X88057264Y-91189023D01*
X88117740Y-91249500D01*
X88208454Y-91279738D01*
X88268930Y-91279738D01*
X88359645Y-91249500D01*
X88389883Y-91219261D01*
X88782978Y-91279738D02*
X88843454Y-91279738D01*
X88903930Y-91249500D01*
X88934169Y-91219261D01*
X88964407Y-91158785D01*
X88994645Y-91037833D01*
X88994645Y-90886642D01*
X88964407Y-90765690D01*
X88934169Y-90705214D01*
X88903930Y-90674976D01*
X88843454Y-90644738D01*
X88782978Y-90644738D01*
X88722502Y-90674976D01*
X88692264Y-90705214D01*
X88662026Y-90765690D01*
X88631788Y-90886642D01*
X88631788Y-91037833D01*
X88662026Y-91158785D01*
X88692264Y-91219261D01*
X88722502Y-91249500D01*
X88782978Y-91279738D01*
X99708002Y-90674976D02*
X99798716Y-90644738D01*
X99949907Y-90644738D01*
X100010383Y-90674976D01*
X100040621Y-90705214D01*
X100070859Y-90765690D01*
X100070859Y-90826166D01*
X100040621Y-90886642D01*
X100010383Y-90916880D01*
X99949907Y-90947119D01*
X99828954Y-90977357D01*
X99768478Y-91007595D01*
X99738240Y-91037833D01*
X99708002Y-91098309D01*
X99708002Y-91158785D01*
X99738240Y-91219261D01*
X99768478Y-91249500D01*
X99828954Y-91279738D01*
X99980145Y-91279738D01*
X100070859Y-91249500D01*
X100705859Y-90705214D02*
X100675621Y-90674976D01*
X100584907Y-90644738D01*
X100524430Y-90644738D01*
X100433716Y-90674976D01*
X100373240Y-90735452D01*
X100343002Y-90795928D01*
X100312764Y-90916880D01*
X100312764Y-91007595D01*
X100343002Y-91128547D01*
X100373240Y-91189023D01*
X100433716Y-91249500D01*
X100524430Y-91279738D01*
X100584907Y-91279738D01*
X100675621Y-91249500D01*
X100705859Y-91219261D01*
X101280383Y-90644738D02*
X100978002Y-90644738D01*
X100978002Y-91279738D01*
X79418240Y-90644738D02*
X79418240Y-91279738D01*
X79569430Y-91279738D01*
X79660145Y-91249500D01*
X79720621Y-91189023D01*
X79750859Y-91128547D01*
X79781097Y-91007595D01*
X79781097Y-90916880D01*
X79750859Y-90795928D01*
X79720621Y-90735452D01*
X79660145Y-90674976D01*
X79569430Y-90644738D01*
X79418240Y-90644738D01*
X80355621Y-91279738D02*
X80053240Y-91279738D01*
X80023002Y-90977357D01*
X80053240Y-91007595D01*
X80113716Y-91037833D01*
X80264907Y-91037833D01*
X80325383Y-91007595D01*
X80355621Y-90977357D01*
X80385859Y-90916880D01*
X80385859Y-90765690D01*
X80355621Y-90705214D01*
X80325383Y-90674976D01*
X80264907Y-90644738D01*
X80113716Y-90644738D01*
X80053240Y-90674976D01*
X80023002Y-90705214D01*
X80688240Y-90644738D02*
X80809192Y-90644738D01*
X80869669Y-90674976D01*
X80899907Y-90705214D01*
X80960383Y-90795928D01*
X80990621Y-90916880D01*
X80990621Y-91158785D01*
X80960383Y-91219261D01*
X80930145Y-91249500D01*
X80869669Y-91279738D01*
X80748716Y-91279738D01*
X80688240Y-91249500D01*
X80658002Y-91219261D01*
X80627764Y-91158785D01*
X80627764Y-91007595D01*
X80658002Y-90947119D01*
X80688240Y-90916880D01*
X80748716Y-90886642D01*
X80869669Y-90886642D01*
X80930145Y-90916880D01*
X80960383Y-90947119D01*
X80990621Y-91007595D01*
X76560740Y-90644738D02*
X76560740Y-91279738D01*
X76711930Y-91279738D01*
X76802645Y-91249500D01*
X76863121Y-91189023D01*
X76893359Y-91128547D01*
X76923597Y-91007595D01*
X76923597Y-90916880D01*
X76893359Y-90795928D01*
X76863121Y-90735452D01*
X76802645Y-90674976D01*
X76711930Y-90644738D01*
X76560740Y-90644738D01*
X77165502Y-90826166D02*
X77467883Y-90826166D01*
X77105026Y-90644738D02*
X77316692Y-91279738D01*
X77528359Y-90644738D01*
X78102883Y-90705214D02*
X78072645Y-90674976D01*
X77981930Y-90644738D01*
X77921454Y-90644738D01*
X77830740Y-90674976D01*
X77770264Y-90735452D01*
X77740026Y-90795928D01*
X77709788Y-90916880D01*
X77709788Y-91007595D01*
X77740026Y-91128547D01*
X77770264Y-91189023D01*
X77830740Y-91249500D01*
X77921454Y-91279738D01*
X77981930Y-91279738D01*
X78072645Y-91249500D01*
X78102883Y-91219261D01*
X78707645Y-90644738D02*
X78344788Y-90644738D01*
X78526216Y-90644738D02*
X78526216Y-91279738D01*
X78465740Y-91189023D01*
X78405264Y-91128547D01*
X78344788Y-91098309D01*
X68723026Y-91279738D02*
X68934692Y-90644738D01*
X69146359Y-91279738D01*
X69569692Y-90977357D02*
X69660407Y-90947119D01*
X69690645Y-90916880D01*
X69720883Y-90856404D01*
X69720883Y-90765690D01*
X69690645Y-90705214D01*
X69660407Y-90674976D01*
X69599930Y-90644738D01*
X69358026Y-90644738D01*
X69358026Y-91279738D01*
X69569692Y-91279738D01*
X69630169Y-91249500D01*
X69660407Y-91219261D01*
X69690645Y-91158785D01*
X69690645Y-91098309D01*
X69660407Y-91037833D01*
X69630169Y-91007595D01*
X69569692Y-90977357D01*
X69358026Y-90977357D01*
X69962788Y-90826166D02*
X70265169Y-90826166D01*
X69902311Y-90644738D02*
X70113978Y-91279738D01*
X70325645Y-90644738D01*
X70446597Y-91279738D02*
X70809454Y-91279738D01*
X70628026Y-90644738D02*
X70628026Y-91279738D01*
X71798240Y-90644738D02*
X71798240Y-91279738D01*
X71949430Y-91279738D01*
X72040145Y-91249500D01*
X72100621Y-91189023D01*
X72130859Y-91128547D01*
X72161097Y-91007595D01*
X72161097Y-90916880D01*
X72130859Y-90795928D01*
X72100621Y-90735452D01*
X72040145Y-90674976D01*
X71949430Y-90644738D01*
X71798240Y-90644738D01*
X72705383Y-91068071D02*
X72705383Y-90644738D01*
X72554192Y-91309976D02*
X72403002Y-90856404D01*
X72796097Y-90856404D01*
X73068240Y-90644738D02*
X73189192Y-90644738D01*
X73249669Y-90674976D01*
X73279907Y-90705214D01*
X73340383Y-90795928D01*
X73370621Y-90916880D01*
X73370621Y-91158785D01*
X73340383Y-91219261D01*
X73310145Y-91249500D01*
X73249669Y-91279738D01*
X73128716Y-91279738D01*
X73068240Y-91249500D01*
X73038002Y-91219261D01*
X73007764Y-91158785D01*
X73007764Y-91007595D01*
X73038002Y-90947119D01*
X73068240Y-90916880D01*
X73128716Y-90886642D01*
X73249669Y-90886642D01*
X73310145Y-90916880D01*
X73340383Y-90947119D01*
X73370621Y-91007595D01*
X74338240Y-91279738D02*
X74338240Y-90765690D01*
X74368478Y-90705214D01*
X74398716Y-90674976D01*
X74459192Y-90644738D01*
X74580145Y-90644738D01*
X74640621Y-90674976D01*
X74670859Y-90705214D01*
X74701097Y-90765690D01*
X74701097Y-91279738D01*
X74973240Y-90674976D02*
X75063954Y-90644738D01*
X75215145Y-90644738D01*
X75275621Y-90674976D01*
X75305859Y-90705214D01*
X75336097Y-90765690D01*
X75336097Y-90826166D01*
X75305859Y-90886642D01*
X75275621Y-90916880D01*
X75215145Y-90947119D01*
X75094192Y-90977357D01*
X75033716Y-91007595D01*
X75003478Y-91037833D01*
X74973240Y-91098309D01*
X74973240Y-91158785D01*
X75003478Y-91219261D01*
X75033716Y-91249500D01*
X75094192Y-91279738D01*
X75245383Y-91279738D01*
X75336097Y-91249500D01*
X75819907Y-90977357D02*
X75910621Y-90947119D01*
X75940859Y-90916880D01*
X75971097Y-90856404D01*
X75971097Y-90765690D01*
X75940859Y-90705214D01*
X75910621Y-90674976D01*
X75850145Y-90644738D01*
X75608240Y-90644738D01*
X75608240Y-91279738D01*
X75819907Y-91279738D01*
X75880383Y-91249500D01*
X75910621Y-91219261D01*
X75940859Y-91158785D01*
X75940859Y-91098309D01*
X75910621Y-91037833D01*
X75880383Y-91007595D01*
X75819907Y-90977357D01*
X75608240Y-90977357D01*
X89548002Y-90826166D02*
X89850383Y-90826166D01*
X89487526Y-90644738D02*
X89699192Y-91279738D01*
X89910859Y-90644738D01*
X90122526Y-90644738D02*
X90122526Y-91279738D01*
X90424907Y-90644738D02*
X90424907Y-91279738D01*
X90787764Y-90644738D01*
X90787764Y-91279738D01*
X91362288Y-91279738D02*
X91241335Y-91279738D01*
X91180859Y-91249500D01*
X91150621Y-91219261D01*
X91090145Y-91128547D01*
X91059907Y-91007595D01*
X91059907Y-90765690D01*
X91090145Y-90705214D01*
X91120383Y-90674976D01*
X91180859Y-90644738D01*
X91301811Y-90644738D01*
X91362288Y-90674976D01*
X91392526Y-90705214D01*
X91422764Y-90765690D01*
X91422764Y-90916880D01*
X91392526Y-90977357D01*
X91362288Y-91007595D01*
X91301811Y-91037833D01*
X91180859Y-91037833D01*
X91120383Y-91007595D01*
X91090145Y-90977357D01*
X91059907Y-90916880D01*
X97168002Y-90826166D02*
X97470383Y-90826166D01*
X97107526Y-90644738D02*
X97319192Y-91279738D01*
X97530859Y-90644738D01*
X97742526Y-90644738D02*
X97742526Y-91279738D01*
X98044907Y-90644738D02*
X98044907Y-91279738D01*
X98407764Y-90644738D01*
X98407764Y-91279738D01*
X98740383Y-90644738D02*
X98861335Y-90644738D01*
X98921811Y-90674976D01*
X98952050Y-90705214D01*
X99012526Y-90795928D01*
X99042764Y-90916880D01*
X99042764Y-91158785D01*
X99012526Y-91219261D01*
X98982288Y-91249500D01*
X98921811Y-91279738D01*
X98800859Y-91279738D01*
X98740383Y-91249500D01*
X98710145Y-91219261D01*
X98679907Y-91158785D01*
X98679907Y-91007595D01*
X98710145Y-90947119D01*
X98740383Y-90916880D01*
X98800859Y-90886642D01*
X98921811Y-90886642D01*
X98982288Y-90916880D01*
X99012526Y-90947119D01*
X99042764Y-91007595D01*
X100983640Y-107378500D02*
X101044116Y-107348261D01*
X101134830Y-107348261D01*
X101225545Y-107378500D01*
X101286021Y-107438976D01*
X101316259Y-107499452D01*
X101346497Y-107620404D01*
X101346497Y-107711119D01*
X101316259Y-107832071D01*
X101286021Y-107892547D01*
X101225545Y-107953023D01*
X101134830Y-107983261D01*
X101074354Y-107983261D01*
X100983640Y-107953023D01*
X100953402Y-107922785D01*
X100953402Y-107711119D01*
X101074354Y-107711119D01*
X100681259Y-107983261D02*
X100681259Y-107348261D01*
X100318402Y-107983261D01*
X100318402Y-107348261D01*
X100016021Y-107983261D02*
X100016021Y-107348261D01*
X99864830Y-107348261D01*
X99774116Y-107378500D01*
X99713640Y-107438976D01*
X99683402Y-107499452D01*
X99653164Y-107620404D01*
X99653164Y-107711119D01*
X99683402Y-107832071D01*
X99713640Y-107892547D01*
X99774116Y-107953023D01*
X99864830Y-107983261D01*
X100016021Y-107983261D01*
X93746259Y-107983261D02*
X93746259Y-107348261D01*
X93534592Y-107801833D01*
X93322926Y-107348261D01*
X93322926Y-107983261D01*
X93020545Y-107983261D02*
X93020545Y-107348261D01*
X92748402Y-107953023D02*
X92657688Y-107983261D01*
X92506497Y-107983261D01*
X92446021Y-107953023D01*
X92415783Y-107922785D01*
X92385545Y-107862309D01*
X92385545Y-107801833D01*
X92415783Y-107741357D01*
X92446021Y-107711119D01*
X92506497Y-107680880D01*
X92627450Y-107650642D01*
X92687926Y-107620404D01*
X92718164Y-107590166D01*
X92748402Y-107529690D01*
X92748402Y-107469214D01*
X92718164Y-107408738D01*
X92687926Y-107378500D01*
X92627450Y-107348261D01*
X92476259Y-107348261D01*
X92385545Y-107378500D01*
X91992450Y-107348261D02*
X91871497Y-107348261D01*
X91811021Y-107378500D01*
X91750545Y-107438976D01*
X91720307Y-107559928D01*
X91720307Y-107771595D01*
X91750545Y-107892547D01*
X91811021Y-107953023D01*
X91871497Y-107983261D01*
X91992450Y-107983261D01*
X92052926Y-107953023D01*
X92113402Y-107892547D01*
X92143640Y-107771595D01*
X92143640Y-107559928D01*
X92113402Y-107438976D01*
X92052926Y-107378500D01*
X91992450Y-107348261D01*
X91206259Y-107983261D02*
X91206259Y-107348261D01*
X90994592Y-107801833D01*
X90782926Y-107348261D01*
X90782926Y-107983261D01*
X90359592Y-107348261D02*
X90238640Y-107348261D01*
X90178164Y-107378500D01*
X90117688Y-107438976D01*
X90087450Y-107559928D01*
X90087450Y-107771595D01*
X90117688Y-107892547D01*
X90178164Y-107953023D01*
X90238640Y-107983261D01*
X90359592Y-107983261D01*
X90420069Y-107953023D01*
X90480545Y-107892547D01*
X90510783Y-107771595D01*
X90510783Y-107559928D01*
X90480545Y-107438976D01*
X90420069Y-107378500D01*
X90359592Y-107348261D01*
X89845545Y-107953023D02*
X89754830Y-107983261D01*
X89603640Y-107983261D01*
X89543164Y-107953023D01*
X89512926Y-107922785D01*
X89482688Y-107862309D01*
X89482688Y-107801833D01*
X89512926Y-107741357D01*
X89543164Y-107711119D01*
X89603640Y-107680880D01*
X89724592Y-107650642D01*
X89785069Y-107620404D01*
X89815307Y-107590166D01*
X89845545Y-107529690D01*
X89845545Y-107469214D01*
X89815307Y-107408738D01*
X89785069Y-107378500D01*
X89724592Y-107348261D01*
X89573402Y-107348261D01*
X89482688Y-107378500D01*
X89210545Y-107983261D02*
X89210545Y-107348261D01*
X88460277Y-107953023D02*
X88369563Y-107983261D01*
X88218372Y-107983261D01*
X88157896Y-107953023D01*
X88127658Y-107922785D01*
X88097420Y-107862309D01*
X88097420Y-107801833D01*
X88127658Y-107741357D01*
X88157896Y-107711119D01*
X88218372Y-107680880D01*
X88339325Y-107650642D01*
X88399801Y-107620404D01*
X88430039Y-107590166D01*
X88460277Y-107529690D01*
X88460277Y-107469214D01*
X88430039Y-107408738D01*
X88399801Y-107378500D01*
X88339325Y-107348261D01*
X88188134Y-107348261D01*
X88097420Y-107378500D01*
X87462420Y-107922785D02*
X87492658Y-107953023D01*
X87583372Y-107983261D01*
X87643849Y-107983261D01*
X87734563Y-107953023D01*
X87795039Y-107892547D01*
X87825277Y-107832071D01*
X87855515Y-107711119D01*
X87855515Y-107620404D01*
X87825277Y-107499452D01*
X87795039Y-107438976D01*
X87734563Y-107378500D01*
X87643849Y-107348261D01*
X87583372Y-107348261D01*
X87492658Y-107378500D01*
X87462420Y-107408738D01*
X87190277Y-107983261D02*
X87190277Y-107348261D01*
X86827420Y-107983261D02*
X87099563Y-107620404D01*
X86827420Y-107348261D02*
X87190277Y-107711119D01*
X81046259Y-107983261D02*
X81046259Y-107348261D01*
X80895069Y-107348261D01*
X80804354Y-107378500D01*
X80743878Y-107438976D01*
X80713640Y-107499452D01*
X80683402Y-107620404D01*
X80683402Y-107711119D01*
X80713640Y-107832071D01*
X80743878Y-107892547D01*
X80804354Y-107953023D01*
X80895069Y-107983261D01*
X81046259Y-107983261D01*
X80471735Y-107348261D02*
X80078640Y-107348261D01*
X80290307Y-107590166D01*
X80199592Y-107590166D01*
X80139116Y-107620404D01*
X80108878Y-107650642D01*
X80078640Y-107711119D01*
X80078640Y-107862309D01*
X80108878Y-107922785D01*
X80139116Y-107953023D01*
X80199592Y-107983261D01*
X80381021Y-107983261D01*
X80441497Y-107953023D01*
X80471735Y-107922785D01*
X79534354Y-107348261D02*
X79655307Y-107348261D01*
X79715783Y-107378500D01*
X79746021Y-107408738D01*
X79806497Y-107499452D01*
X79836735Y-107620404D01*
X79836735Y-107862309D01*
X79806497Y-107922785D01*
X79776259Y-107953023D01*
X79715783Y-107983261D01*
X79594830Y-107983261D01*
X79534354Y-107953023D01*
X79504116Y-107922785D01*
X79473878Y-107862309D01*
X79473878Y-107711119D01*
X79504116Y-107650642D01*
X79534354Y-107620404D01*
X79594830Y-107590166D01*
X79715783Y-107590166D01*
X79776259Y-107620404D01*
X79806497Y-107650642D01*
X79836735Y-107711119D01*
X78506259Y-107983261D02*
X78506259Y-107348261D01*
X78355069Y-107348261D01*
X78264354Y-107378500D01*
X78203878Y-107438976D01*
X78173640Y-107499452D01*
X78143402Y-107620404D01*
X78143402Y-107711119D01*
X78173640Y-107832071D01*
X78203878Y-107892547D01*
X78264354Y-107953023D01*
X78355069Y-107983261D01*
X78506259Y-107983261D01*
X77931735Y-107348261D02*
X77538640Y-107348261D01*
X77750307Y-107590166D01*
X77659592Y-107590166D01*
X77599116Y-107620404D01*
X77568878Y-107650642D01*
X77538640Y-107711119D01*
X77538640Y-107862309D01*
X77568878Y-107922785D01*
X77599116Y-107953023D01*
X77659592Y-107983261D01*
X77841021Y-107983261D01*
X77901497Y-107953023D01*
X77931735Y-107922785D01*
X77326973Y-107348261D02*
X76903640Y-107348261D01*
X77175783Y-107983261D01*
X70553640Y-107378500D02*
X70614116Y-107348261D01*
X70704830Y-107348261D01*
X70795545Y-107378500D01*
X70856021Y-107438976D01*
X70886259Y-107499452D01*
X70916497Y-107620404D01*
X70916497Y-107711119D01*
X70886259Y-107832071D01*
X70856021Y-107892547D01*
X70795545Y-107953023D01*
X70704830Y-107983261D01*
X70644354Y-107983261D01*
X70553640Y-107953023D01*
X70523402Y-107922785D01*
X70523402Y-107711119D01*
X70644354Y-107711119D01*
X70251259Y-107983261D02*
X70251259Y-107348261D01*
X69888402Y-107983261D01*
X69888402Y-107348261D01*
X69586021Y-107983261D02*
X69586021Y-107348261D01*
X69434830Y-107348261D01*
X69344116Y-107378500D01*
X69283640Y-107438976D01*
X69253402Y-107499452D01*
X69223164Y-107620404D01*
X69223164Y-107711119D01*
X69253402Y-107832071D01*
X69283640Y-107892547D01*
X69344116Y-107953023D01*
X69434830Y-107983261D01*
X69586021Y-107983261D01*
X68346259Y-107983261D02*
X68346259Y-107348261D01*
X68195069Y-107348261D01*
X68104354Y-107378500D01*
X68043878Y-107438976D01*
X68013640Y-107499452D01*
X67983402Y-107620404D01*
X67983402Y-107711119D01*
X68013640Y-107832071D01*
X68043878Y-107892547D01*
X68104354Y-107953023D01*
X68195069Y-107983261D01*
X68346259Y-107983261D01*
X67439116Y-107559928D02*
X67439116Y-107983261D01*
X67590307Y-107318023D02*
X67741497Y-107771595D01*
X67348402Y-107771595D01*
X67166973Y-107348261D02*
X66773878Y-107348261D01*
X66985545Y-107590166D01*
X66894830Y-107590166D01*
X66834354Y-107620404D01*
X66804116Y-107650642D01*
X66773878Y-107711119D01*
X66773878Y-107862309D01*
X66804116Y-107922785D01*
X66834354Y-107953023D01*
X66894830Y-107983261D01*
X67076259Y-107983261D01*
X67136735Y-107953023D01*
X67166973Y-107922785D01*
X65866735Y-107348261D02*
X65473640Y-107348261D01*
X65685307Y-107590166D01*
X65594592Y-107590166D01*
X65534116Y-107620404D01*
X65503878Y-107650642D01*
X65473640Y-107711119D01*
X65473640Y-107862309D01*
X65503878Y-107922785D01*
X65534116Y-107953023D01*
X65594592Y-107983261D01*
X65776021Y-107983261D01*
X65836497Y-107953023D01*
X65866735Y-107922785D01*
X65201497Y-107922785D02*
X65171259Y-107953023D01*
X65201497Y-107983261D01*
X65231735Y-107953023D01*
X65201497Y-107922785D01*
X65201497Y-107983261D01*
X64959592Y-107348261D02*
X64566497Y-107348261D01*
X64778164Y-107590166D01*
X64687450Y-107590166D01*
X64626973Y-107620404D01*
X64596735Y-107650642D01*
X64566497Y-107711119D01*
X64566497Y-107862309D01*
X64596735Y-107922785D01*
X64626973Y-107953023D01*
X64687450Y-107983261D01*
X64868878Y-107983261D01*
X64929354Y-107953023D01*
X64959592Y-107922785D01*
X64385069Y-107348261D02*
X64173402Y-107983261D01*
X63961735Y-107348261D01*
X63266259Y-107983261D02*
X63266259Y-107348261D01*
X63115069Y-107348261D01*
X63024354Y-107378500D01*
X62963878Y-107438976D01*
X62933640Y-107499452D01*
X62903402Y-107620404D01*
X62903402Y-107711119D01*
X62933640Y-107832071D01*
X62963878Y-107892547D01*
X63024354Y-107953023D01*
X63115069Y-107983261D01*
X63266259Y-107983261D01*
X62359116Y-107559928D02*
X62359116Y-107983261D01*
X62510307Y-107318023D02*
X62661497Y-107771595D01*
X62268402Y-107771595D01*
X61754354Y-107559928D02*
X61754354Y-107983261D01*
X61905545Y-107318023D02*
X62056735Y-107771595D01*
X61663640Y-107771595D01*
X67300833Y-88302261D02*
X66907738Y-88302261D01*
X67119404Y-88544166D01*
X67028690Y-88544166D01*
X66968214Y-88574404D01*
X66937976Y-88604642D01*
X66907738Y-88665119D01*
X66907738Y-88816309D01*
X66937976Y-88876785D01*
X66968214Y-88907023D01*
X67028690Y-88937261D01*
X67210119Y-88937261D01*
X67270595Y-88907023D01*
X67300833Y-88876785D01*
X66635595Y-88876785D02*
X66605357Y-88907023D01*
X66635595Y-88937261D01*
X66665833Y-88907023D01*
X66635595Y-88876785D01*
X66635595Y-88937261D01*
X66393690Y-88302261D02*
X65970357Y-88302261D01*
X66242500Y-88937261D01*
X65274880Y-88272023D02*
X65819166Y-89088452D01*
X64791071Y-88513928D02*
X64791071Y-88937261D01*
X64942261Y-88272023D02*
X65093452Y-88725595D01*
X64700357Y-88725595D01*
X64458452Y-88876785D02*
X64428214Y-88907023D01*
X64458452Y-88937261D01*
X64488690Y-88907023D01*
X64458452Y-88876785D01*
X64458452Y-88937261D01*
X64186309Y-88362738D02*
X64156071Y-88332500D01*
X64095595Y-88302261D01*
X63944404Y-88302261D01*
X63883928Y-88332500D01*
X63853690Y-88362738D01*
X63823452Y-88423214D01*
X63823452Y-88483690D01*
X63853690Y-88574404D01*
X64216547Y-88937261D01*
X63823452Y-88937261D01*
X63642023Y-88302261D02*
X63430357Y-88937261D01*
X63218690Y-88302261D01*
X62220833Y-88937261D02*
X62523214Y-88937261D01*
X62523214Y-88302261D01*
X62009166Y-88937261D02*
X62009166Y-88513928D01*
X62009166Y-88302261D02*
X62039404Y-88332500D01*
X62009166Y-88362738D01*
X61978928Y-88332500D01*
X62009166Y-88302261D01*
X62009166Y-88362738D01*
X61706785Y-88937261D02*
X61706785Y-88302261D01*
X61464880Y-88302261D01*
X61404404Y-88332500D01*
X61374166Y-88362738D01*
X61343928Y-88423214D01*
X61343928Y-88513928D01*
X61374166Y-88574404D01*
X61404404Y-88604642D01*
X61464880Y-88634880D01*
X61706785Y-88634880D01*
X60981071Y-88937261D02*
X61041547Y-88907023D01*
X61071785Y-88876785D01*
X61102023Y-88816309D01*
X61102023Y-88634880D01*
X61071785Y-88574404D01*
X61041547Y-88544166D01*
X60981071Y-88513928D01*
X60890357Y-88513928D01*
X60829880Y-88544166D01*
X60799642Y-88574404D01*
X60769404Y-88634880D01*
X60769404Y-88816309D01*
X60799642Y-88876785D01*
X60829880Y-88907023D01*
X60890357Y-88937261D01*
X60981071Y-88937261D01*
X75283785Y-105117597D02*
X75314023Y-105087359D01*
X75344261Y-104996645D01*
X75344261Y-104936169D01*
X75314023Y-104845454D01*
X75253547Y-104784978D01*
X75193071Y-104754740D01*
X75072119Y-104724502D01*
X74981404Y-104724502D01*
X74860452Y-104754740D01*
X74799976Y-104784978D01*
X74739500Y-104845454D01*
X74709261Y-104936169D01*
X74709261Y-104996645D01*
X74739500Y-105087359D01*
X74769738Y-105117597D01*
X75102357Y-105389740D02*
X75102357Y-105873550D01*
X75344261Y-105631645D02*
X74860452Y-105631645D01*
X75344261Y-106175930D02*
X74709261Y-106175930D01*
X75162833Y-106387597D01*
X74709261Y-106599264D01*
X75344261Y-106599264D01*
D13*
X108205221Y-90615720D02*
G75*
G03X108205221Y-90615720I-1652221J0D01*
G01*
X108205221Y-108205220D02*
G75*
G03X108205221Y-108205220I-1652221J0D01*
G01*
D15*
X83091238Y-95319093D02*
X83139619Y-95464236D01*
X83139619Y-95706141D01*
X83091238Y-95802903D01*
X83042857Y-95851284D01*
X82946095Y-95899665D01*
X82849333Y-95899665D01*
X82752571Y-95851284D01*
X82704190Y-95802903D01*
X82655809Y-95706141D01*
X82607428Y-95512617D01*
X82559047Y-95415855D01*
X82510666Y-95367474D01*
X82413904Y-95319093D01*
X82317142Y-95319093D01*
X82220380Y-95367474D01*
X82172000Y-95415855D01*
X82123619Y-95512617D01*
X82123619Y-95754522D01*
X82172000Y-95899665D01*
X82849333Y-96286712D02*
X82849333Y-96770522D01*
X83139619Y-96189950D02*
X82123619Y-96528617D01*
X83139619Y-96867284D01*
X83139619Y-97205950D02*
X82123619Y-97205950D01*
X82849333Y-97544617D01*
X82123619Y-97883284D01*
X83139619Y-97883284D01*
X82123619Y-98270331D02*
X82123619Y-98899284D01*
X82510666Y-98560617D01*
X82510666Y-98705760D01*
X82559047Y-98802522D01*
X82607428Y-98850903D01*
X82704190Y-98899284D01*
X82946095Y-98899284D01*
X83042857Y-98850903D01*
X83091238Y-98802522D01*
X83139619Y-98705760D01*
X83139619Y-98415474D01*
X83091238Y-98318712D01*
X83042857Y-98270331D01*
X82220380Y-99286331D02*
X82172000Y-99334712D01*
X82123619Y-99431474D01*
X82123619Y-99673379D01*
X82172000Y-99770141D01*
X82220380Y-99818522D01*
X82317142Y-99866903D01*
X82413904Y-99866903D01*
X82559047Y-99818522D01*
X83139619Y-99237950D01*
X83139619Y-99866903D01*
D16*
X84593571Y-94524716D02*
X85269523Y-94524716D01*
X85349047Y-94484954D01*
X85388809Y-94445192D01*
X85428571Y-94365669D01*
X85428571Y-94246383D01*
X85388809Y-94166859D01*
X85110476Y-94524716D02*
X85150238Y-94445192D01*
X85150238Y-94286145D01*
X85110476Y-94206621D01*
X85070714Y-94166859D01*
X84991190Y-94127097D01*
X84752619Y-94127097D01*
X84673095Y-94166859D01*
X84633333Y-94206621D01*
X84593571Y-94286145D01*
X84593571Y-94445192D01*
X84633333Y-94524716D01*
X85150238Y-94922335D02*
X84593571Y-94922335D01*
X84315238Y-94922335D02*
X84355000Y-94882573D01*
X84394761Y-94922335D01*
X84355000Y-94962097D01*
X84315238Y-94922335D01*
X84394761Y-94922335D01*
X84593571Y-95200669D02*
X84593571Y-95518764D01*
X84315238Y-95319954D02*
X85030952Y-95319954D01*
X85110476Y-95359716D01*
X85150238Y-95439240D01*
X85150238Y-95518764D01*
X85150238Y-95797097D02*
X84315238Y-95797097D01*
X85150238Y-96154954D02*
X84712857Y-96154954D01*
X84633333Y-96115192D01*
X84593571Y-96035669D01*
X84593571Y-95916383D01*
X84633333Y-95836859D01*
X84673095Y-95797097D01*
X84593571Y-96910430D02*
X85150238Y-96910430D01*
X84593571Y-96552573D02*
X85030952Y-96552573D01*
X85110476Y-96592335D01*
X85150238Y-96671859D01*
X85150238Y-96791145D01*
X85110476Y-96870669D01*
X85070714Y-96910430D01*
X85150238Y-97308050D02*
X84315238Y-97308050D01*
X84633333Y-97308050D02*
X84593571Y-97387573D01*
X84593571Y-97546621D01*
X84633333Y-97626145D01*
X84673095Y-97665907D01*
X84752619Y-97705669D01*
X84991190Y-97705669D01*
X85070714Y-97665907D01*
X85110476Y-97626145D01*
X85150238Y-97546621D01*
X85150238Y-97387573D01*
X85110476Y-97308050D01*
X84275476Y-98659954D02*
X85349047Y-97944240D01*
X85150238Y-98938288D02*
X84593571Y-98938288D01*
X84673095Y-98938288D02*
X84633333Y-98978050D01*
X84593571Y-99057573D01*
X84593571Y-99176859D01*
X84633333Y-99256383D01*
X84712857Y-99296145D01*
X85150238Y-99296145D01*
X84712857Y-99296145D02*
X84633333Y-99335907D01*
X84593571Y-99415430D01*
X84593571Y-99534716D01*
X84633333Y-99614240D01*
X84712857Y-99654002D01*
X85150238Y-99654002D01*
X85150238Y-100409478D02*
X84712857Y-100409478D01*
X84633333Y-100369716D01*
X84593571Y-100290192D01*
X84593571Y-100131145D01*
X84633333Y-100051621D01*
X85110476Y-100409478D02*
X85150238Y-100329954D01*
X85150238Y-100131145D01*
X85110476Y-100051621D01*
X85030952Y-100011859D01*
X84951428Y-100011859D01*
X84871904Y-100051621D01*
X84832142Y-100131145D01*
X84832142Y-100329954D01*
X84792380Y-100409478D01*
X85150238Y-100807097D02*
X84315238Y-100807097D01*
X85150238Y-101164954D02*
X84712857Y-101164954D01*
X84633333Y-101125192D01*
X84593571Y-101045669D01*
X84593571Y-100926383D01*
X84633333Y-100846859D01*
X84673095Y-100807097D01*
X85150238Y-101681859D02*
X85110476Y-101602335D01*
X85070714Y-101562573D01*
X84991190Y-101522811D01*
X84752619Y-101522811D01*
X84673095Y-101562573D01*
X84633333Y-101602335D01*
X84593571Y-101681859D01*
X84593571Y-101801145D01*
X84633333Y-101880669D01*
X84673095Y-101920430D01*
X84752619Y-101960192D01*
X84991190Y-101960192D01*
X85070714Y-101920430D01*
X85110476Y-101880669D01*
X85150238Y-101801145D01*
X85150238Y-101681859D01*
X85150238Y-102437335D02*
X85110476Y-102357811D01*
X85030952Y-102318050D01*
X84315238Y-102318050D01*
X85150238Y-102874716D02*
X85110476Y-102795192D01*
X85030952Y-102755430D01*
X84315238Y-102755430D01*
X85150238Y-103192811D02*
X84593571Y-103192811D01*
X84315238Y-103192811D02*
X84355000Y-103153050D01*
X84394761Y-103192811D01*
X84355000Y-103232573D01*
X84315238Y-103192811D01*
X84394761Y-103192811D01*
D13*
X109220013Y-90136440D02*
X109220013Y-91690000D01*
X55852060Y-90136440D02*
X55852060Y-96296067D01*
X106680013Y-87596440D02*
G75*
G02X109220013Y-90136440I0J-2540000D01*
G01*
X55852060Y-102438136D02*
X55852060Y-108498640D01*
X106680013Y-87596440D02*
X58392060Y-87596440D01*
X58392060Y-111038640D02*
X106652060Y-111038640D01*
X55852060Y-90136440D02*
G75*
G02X58392060Y-87596440I2540000J0D01*
G01*
X56361488Y-96928834D02*
X56361488Y-101805369D01*
X58392060Y-111038640D02*
G75*
G02X55852060Y-108498640I0J2540000D01*
G01*
D12*
X101355500Y-106850500D02*
X102280500Y-106850500D01*
X102280500Y-106850500D02*
X102280500Y-91650500D01*
X102280500Y-91650500D02*
X101355500Y-91650500D01*
X96755500Y-91650500D02*
X87330500Y-91650500D01*
X87330500Y-91650500D02*
X87330500Y-93020500D01*
X98085500Y-106850500D02*
X89955500Y-106850500D01*
X87330500Y-105250500D02*
X87330500Y-103360500D01*
X87330500Y-100810500D02*
X87330500Y-95600500D01*
X73532500Y-94441000D02*
X74532500Y-94441000D01*
X74532500Y-94441000D02*
X74532500Y-95441000D01*
X65532500Y-94441000D02*
X64532500Y-94441000D01*
X64532500Y-94441000D02*
X64532500Y-95441000D01*
X64532500Y-103441000D02*
X64532500Y-104441000D01*
X64532500Y-104441000D02*
X65532500Y-104441000D01*
X74532500Y-103441000D02*
X74532500Y-104441000D01*
X74532500Y-104441000D02*
X73532500Y-104441000D01*
D17*
X75432500Y-95091000D02*
G75*
G03X75432500Y-95091000I-100000J0D01*
G01*
D18*
X67702500Y-91694000D02*
X67702500Y-91176844D01*
X66282500Y-91694000D02*
X66282500Y-91176844D01*
X78801000Y-96562000D02*
X78801000Y-95462000D01*
X76901000Y-96562000D02*
X76901000Y-95462000D01*
X78751000Y-97962000D02*
X76951000Y-97962000D01*
D19*
X90971309Y-97067309D02*
X90971309Y-96825404D01*
X91213214Y-96801214D01*
X91189023Y-96825404D01*
X91164833Y-96873785D01*
X91164833Y-96994738D01*
X91189023Y-97043119D01*
X91213214Y-97067309D01*
X91261595Y-97091500D01*
X91382547Y-97091500D01*
X91430928Y-97067309D01*
X91455119Y-97043119D01*
X91479309Y-96994738D01*
X91479309Y-96873785D01*
X91455119Y-96825404D01*
X91430928Y-96801214D01*
X90971309Y-97405976D02*
X90971309Y-97454357D01*
X90995500Y-97502738D01*
X91019690Y-97526928D01*
X91068071Y-97551119D01*
X91164833Y-97575309D01*
X91285785Y-97575309D01*
X91382547Y-97551119D01*
X91430928Y-97526928D01*
X91455119Y-97502738D01*
X91479309Y-97454357D01*
X91479309Y-97405976D01*
X91455119Y-97357595D01*
X91430928Y-97333404D01*
X91382547Y-97309214D01*
X91285785Y-97285023D01*
X91164833Y-97285023D01*
X91068071Y-97309214D01*
X91019690Y-97333404D01*
X90995500Y-97357595D01*
X90971309Y-97405976D01*
X90971309Y-97744642D02*
X90971309Y-98059119D01*
X91164833Y-97889785D01*
X91164833Y-97962357D01*
X91189023Y-98010738D01*
X91213214Y-98034928D01*
X91261595Y-98059119D01*
X91382547Y-98059119D01*
X91430928Y-98034928D01*
X91455119Y-98010738D01*
X91479309Y-97962357D01*
X91479309Y-97817214D01*
X91455119Y-97768833D01*
X91430928Y-97744642D01*
X91479309Y-98542928D02*
X91479309Y-98252642D01*
X91479309Y-98397785D02*
X90971309Y-98397785D01*
X91043880Y-98349404D01*
X91092261Y-98301023D01*
X91116452Y-98252642D01*
X91189023Y-98833214D02*
X91164833Y-98784833D01*
X91140642Y-98760642D01*
X91092261Y-98736452D01*
X91068071Y-98736452D01*
X91019690Y-98760642D01*
X90995500Y-98784833D01*
X90971309Y-98833214D01*
X90971309Y-98929976D01*
X90995500Y-98978357D01*
X91019690Y-99002547D01*
X91068071Y-99026738D01*
X91092261Y-99026738D01*
X91140642Y-99002547D01*
X91164833Y-98978357D01*
X91189023Y-98929976D01*
X91189023Y-98833214D01*
X91213214Y-98784833D01*
X91237404Y-98760642D01*
X91285785Y-98736452D01*
X91382547Y-98736452D01*
X91430928Y-98760642D01*
X91455119Y-98784833D01*
X91479309Y-98833214D01*
X91479309Y-98929976D01*
X91455119Y-98978357D01*
X91430928Y-99002547D01*
X91382547Y-99026738D01*
X91285785Y-99026738D01*
X91237404Y-99002547D01*
X91213214Y-98978357D01*
X91189023Y-98929976D01*
X91019690Y-99220261D02*
X90995500Y-99244452D01*
X90971309Y-99292833D01*
X90971309Y-99413785D01*
X90995500Y-99462166D01*
X91019690Y-99486357D01*
X91068071Y-99510547D01*
X91116452Y-99510547D01*
X91189023Y-99486357D01*
X91479309Y-99196071D01*
X91479309Y-99510547D01*
X91479309Y-99994357D02*
X91479309Y-99704071D01*
X91479309Y-99849214D02*
X90971309Y-99849214D01*
X91043880Y-99800833D01*
X91092261Y-99752452D01*
X91116452Y-99704071D01*
X91189023Y-100284642D02*
X91164833Y-100236261D01*
X91140642Y-100212071D01*
X91092261Y-100187880D01*
X91068071Y-100187880D01*
X91019690Y-100212071D01*
X90995500Y-100236261D01*
X90971309Y-100284642D01*
X90971309Y-100381404D01*
X90995500Y-100429785D01*
X91019690Y-100453976D01*
X91068071Y-100478166D01*
X91092261Y-100478166D01*
X91140642Y-100453976D01*
X91164833Y-100429785D01*
X91189023Y-100381404D01*
X91189023Y-100284642D01*
X91213214Y-100236261D01*
X91237404Y-100212071D01*
X91285785Y-100187880D01*
X91382547Y-100187880D01*
X91430928Y-100212071D01*
X91455119Y-100236261D01*
X91479309Y-100284642D01*
X91479309Y-100381404D01*
X91455119Y-100429785D01*
X91430928Y-100453976D01*
X91382547Y-100478166D01*
X91285785Y-100478166D01*
X91237404Y-100453976D01*
X91213214Y-100429785D01*
X91189023Y-100381404D01*
X90971309Y-100937785D02*
X90971309Y-100695880D01*
X91213214Y-100671690D01*
X91189023Y-100695880D01*
X91164833Y-100744261D01*
X91164833Y-100865214D01*
X91189023Y-100913595D01*
X91213214Y-100937785D01*
X91261595Y-100961976D01*
X91382547Y-100961976D01*
X91430928Y-100937785D01*
X91455119Y-100913595D01*
X91479309Y-100865214D01*
X91479309Y-100744261D01*
X91455119Y-100695880D01*
X91430928Y-100671690D01*
X91019690Y-101155499D02*
X90995500Y-101179690D01*
X90971309Y-101228071D01*
X90971309Y-101349023D01*
X90995500Y-101397404D01*
X91019690Y-101421595D01*
X91068071Y-101445785D01*
X91116452Y-101445785D01*
X91189023Y-101421595D01*
X91479309Y-101131309D01*
X91479309Y-101445785D01*
D12*
X82399414Y-104884461D02*
X82611080Y-104582080D01*
X82762271Y-104884461D02*
X82762271Y-104249461D01*
X82520366Y-104249461D01*
X82459890Y-104279700D01*
X82429652Y-104309938D01*
X82399414Y-104370414D01*
X82399414Y-104461128D01*
X82429652Y-104521604D01*
X82459890Y-104551842D01*
X82520366Y-104582080D01*
X82762271Y-104582080D01*
X81794652Y-104884461D02*
X82157509Y-104884461D01*
X81976080Y-104884461D02*
X81976080Y-104249461D01*
X82036557Y-104340176D01*
X82097033Y-104400652D01*
X82157509Y-104430890D01*
X81250366Y-104461128D02*
X81250366Y-104884461D01*
X81401557Y-104219223D02*
X81552747Y-104672795D01*
X81159652Y-104672795D01*
X82196214Y-106205261D02*
X82407880Y-105902880D01*
X82559071Y-106205261D02*
X82559071Y-105570261D01*
X82317166Y-105570261D01*
X82256690Y-105600500D01*
X82226452Y-105630738D01*
X82196214Y-105691214D01*
X82196214Y-105781928D01*
X82226452Y-105842404D01*
X82256690Y-105872642D01*
X82317166Y-105902880D01*
X82559071Y-105902880D01*
X81591452Y-106205261D02*
X81954309Y-106205261D01*
X81772880Y-106205261D02*
X81772880Y-105570261D01*
X81833357Y-105660976D01*
X81893833Y-105721452D01*
X81954309Y-105751690D01*
X81379785Y-105570261D02*
X80986690Y-105570261D01*
X81198357Y-105812166D01*
X81107642Y-105812166D01*
X81047166Y-105842404D01*
X81016928Y-105872642D01*
X80986690Y-105933119D01*
X80986690Y-106084309D01*
X81016928Y-106144785D01*
X81047166Y-106175023D01*
X81107642Y-106205261D01*
X81289071Y-106205261D01*
X81349547Y-106175023D01*
X81379785Y-106144785D01*
X77598814Y-93632261D02*
X77810480Y-93329880D01*
X77961671Y-93632261D02*
X77961671Y-92997261D01*
X77719766Y-92997261D01*
X77659290Y-93027500D01*
X77629052Y-93057738D01*
X77598814Y-93118214D01*
X77598814Y-93208928D01*
X77629052Y-93269404D01*
X77659290Y-93299642D01*
X77719766Y-93329880D01*
X77961671Y-93329880D01*
X76994052Y-93632261D02*
X77356909Y-93632261D01*
X77175480Y-93632261D02*
X77175480Y-92997261D01*
X77235957Y-93087976D01*
X77296433Y-93148452D01*
X77356909Y-93178690D01*
X76782385Y-92997261D02*
X76359052Y-92997261D01*
X76631195Y-93632261D01*
X83059814Y-92438461D02*
X83271480Y-92136080D01*
X83422671Y-92438461D02*
X83422671Y-91803461D01*
X83180766Y-91803461D01*
X83120290Y-91833700D01*
X83090052Y-91863938D01*
X83059814Y-91924414D01*
X83059814Y-92015128D01*
X83090052Y-92075604D01*
X83120290Y-92105842D01*
X83180766Y-92136080D01*
X83422671Y-92136080D01*
X82455052Y-92438461D02*
X82817909Y-92438461D01*
X82636480Y-92438461D02*
X82636480Y-91803461D01*
X82696957Y-91894176D01*
X82757433Y-91954652D01*
X82817909Y-91984890D01*
X81910766Y-91803461D02*
X82031719Y-91803461D01*
X82092195Y-91833700D01*
X82122433Y-91863938D01*
X82182909Y-91954652D01*
X82213147Y-92075604D01*
X82213147Y-92317509D01*
X82182909Y-92377985D01*
X82152671Y-92408223D01*
X82092195Y-92438461D01*
X81971242Y-92438461D01*
X81910766Y-92408223D01*
X81880528Y-92377985D01*
X81850290Y-92317509D01*
X81850290Y-92166319D01*
X81880528Y-92105842D01*
X81910766Y-92075604D01*
X81971242Y-92045366D01*
X82092195Y-92045366D01*
X82152671Y-92075604D01*
X82182909Y-92105842D01*
X82213147Y-92166319D01*
X77598814Y-92362261D02*
X77810480Y-92059880D01*
X77961671Y-92362261D02*
X77961671Y-91727261D01*
X77719766Y-91727261D01*
X77659290Y-91757500D01*
X77629052Y-91787738D01*
X77598814Y-91848214D01*
X77598814Y-91938928D01*
X77629052Y-91999404D01*
X77659290Y-92029642D01*
X77719766Y-92059880D01*
X77961671Y-92059880D01*
X76994052Y-92362261D02*
X77356909Y-92362261D01*
X77175480Y-92362261D02*
X77175480Y-91727261D01*
X77235957Y-91817976D01*
X77296433Y-91878452D01*
X77356909Y-91908690D01*
X76419528Y-91727261D02*
X76721909Y-91727261D01*
X76752147Y-92029642D01*
X76721909Y-91999404D01*
X76661433Y-91969166D01*
X76510242Y-91969166D01*
X76449766Y-91999404D01*
X76419528Y-92029642D01*
X76389290Y-92090119D01*
X76389290Y-92241309D01*
X76419528Y-92301785D01*
X76449766Y-92332023D01*
X76510242Y-92362261D01*
X76661433Y-92362261D01*
X76721909Y-92332023D01*
X76752147Y-92301785D01*
X76913014Y-104833661D02*
X77124680Y-104531280D01*
X77275871Y-104833661D02*
X77275871Y-104198661D01*
X77033966Y-104198661D01*
X76973490Y-104228900D01*
X76943252Y-104259138D01*
X76913014Y-104319614D01*
X76913014Y-104410328D01*
X76943252Y-104470804D01*
X76973490Y-104501042D01*
X77033966Y-104531280D01*
X77275871Y-104531280D01*
X76308252Y-104833661D02*
X76671109Y-104833661D01*
X76489680Y-104833661D02*
X76489680Y-104198661D01*
X76550157Y-104289376D01*
X76610633Y-104349852D01*
X76671109Y-104380090D01*
X76066347Y-104259138D02*
X76036109Y-104228900D01*
X75975633Y-104198661D01*
X75824442Y-104198661D01*
X75763966Y-104228900D01*
X75733728Y-104259138D01*
X75703490Y-104319614D01*
X75703490Y-104380090D01*
X75733728Y-104470804D01*
X76096585Y-104833661D01*
X75703490Y-104833661D01*
X76913014Y-106306861D02*
X77124680Y-106004480D01*
X77275871Y-106306861D02*
X77275871Y-105671861D01*
X77033966Y-105671861D01*
X76973490Y-105702100D01*
X76943252Y-105732338D01*
X76913014Y-105792814D01*
X76913014Y-105883528D01*
X76943252Y-105944004D01*
X76973490Y-105974242D01*
X77033966Y-106004480D01*
X77275871Y-106004480D01*
X76308252Y-106306861D02*
X76671109Y-106306861D01*
X76489680Y-106306861D02*
X76489680Y-105671861D01*
X76550157Y-105762576D01*
X76610633Y-105823052D01*
X76671109Y-105853290D01*
X75703490Y-106306861D02*
X76066347Y-106306861D01*
X75884919Y-106306861D02*
X75884919Y-105671861D01*
X75945395Y-105762576D01*
X76005871Y-105823052D01*
X76066347Y-105853290D01*
X71911754Y-92443541D02*
X72123420Y-92141160D01*
X72274611Y-92443541D02*
X72274611Y-91808541D01*
X72032706Y-91808541D01*
X71972230Y-91838780D01*
X71941992Y-91869018D01*
X71911754Y-91929494D01*
X71911754Y-92020208D01*
X71941992Y-92080684D01*
X71972230Y-92110922D01*
X72032706Y-92141160D01*
X72274611Y-92141160D01*
X71306992Y-92443541D02*
X71669849Y-92443541D01*
X71488420Y-92443541D02*
X71488420Y-91808541D01*
X71548897Y-91899256D01*
X71609373Y-91959732D01*
X71669849Y-91989970D01*
X70913897Y-91808541D02*
X70853420Y-91808541D01*
X70792944Y-91838780D01*
X70762706Y-91869018D01*
X70732468Y-91929494D01*
X70702230Y-92050446D01*
X70702230Y-92201637D01*
X70732468Y-92322589D01*
X70762706Y-92383065D01*
X70792944Y-92413303D01*
X70853420Y-92443541D01*
X70913897Y-92443541D01*
X70974373Y-92413303D01*
X71004611Y-92383065D01*
X71034849Y-92322589D01*
X71065087Y-92201637D01*
X71065087Y-92050446D01*
X71034849Y-91929494D01*
X71004611Y-91869018D01*
X70974373Y-91838780D01*
X70913897Y-91808541D01*
X59892353Y-94600001D02*
X60104020Y-94297620D01*
X60255210Y-94600001D02*
X60255210Y-93965001D01*
X60013305Y-93965001D01*
X59952829Y-93995240D01*
X59922591Y-94025478D01*
X59892353Y-94085954D01*
X59892353Y-94176668D01*
X59922591Y-94237144D01*
X59952829Y-94267382D01*
X60013305Y-94297620D01*
X60255210Y-94297620D01*
X59589972Y-94600001D02*
X59469020Y-94600001D01*
X59408543Y-94569763D01*
X59378305Y-94539525D01*
X59317829Y-94448811D01*
X59287591Y-94327859D01*
X59287591Y-94085954D01*
X59317829Y-94025478D01*
X59348067Y-93995240D01*
X59408543Y-93965001D01*
X59529496Y-93965001D01*
X59589972Y-93995240D01*
X59620210Y-94025478D01*
X59650448Y-94085954D01*
X59650448Y-94237144D01*
X59620210Y-94297620D01*
X59589972Y-94327859D01*
X59529496Y-94358097D01*
X59408543Y-94358097D01*
X59348067Y-94327859D01*
X59317829Y-94297620D01*
X59287591Y-94237144D01*
X59926461Y-102357766D02*
X59624080Y-102146100D01*
X59926461Y-101994909D02*
X59291461Y-101994909D01*
X59291461Y-102236814D01*
X59321700Y-102297290D01*
X59351938Y-102327528D01*
X59412414Y-102357766D01*
X59503128Y-102357766D01*
X59563604Y-102327528D01*
X59593842Y-102297290D01*
X59624080Y-102236814D01*
X59624080Y-101994909D01*
X59563604Y-102720623D02*
X59533366Y-102660147D01*
X59503128Y-102629909D01*
X59442652Y-102599671D01*
X59412414Y-102599671D01*
X59351938Y-102629909D01*
X59321700Y-102660147D01*
X59291461Y-102720623D01*
X59291461Y-102841576D01*
X59321700Y-102902052D01*
X59351938Y-102932290D01*
X59412414Y-102962528D01*
X59442652Y-102962528D01*
X59503128Y-102932290D01*
X59533366Y-102902052D01*
X59563604Y-102841576D01*
X59563604Y-102720623D01*
X59593842Y-102660147D01*
X59624080Y-102629909D01*
X59684557Y-102599671D01*
X59805509Y-102599671D01*
X59865985Y-102629909D01*
X59896223Y-102660147D01*
X59926461Y-102720623D01*
X59926461Y-102841576D01*
X59896223Y-102902052D01*
X59865985Y-102932290D01*
X59805509Y-102962528D01*
X59684557Y-102962528D01*
X59624080Y-102932290D01*
X59593842Y-102902052D01*
X59563604Y-102841576D01*
X76864633Y-103766861D02*
X77076300Y-103464480D01*
X77227490Y-103766861D02*
X77227490Y-103131861D01*
X76985585Y-103131861D01*
X76925109Y-103162100D01*
X76894871Y-103192338D01*
X76864633Y-103252814D01*
X76864633Y-103343528D01*
X76894871Y-103404004D01*
X76925109Y-103434242D01*
X76985585Y-103464480D01*
X77227490Y-103464480D01*
X76259871Y-103766861D02*
X76622728Y-103766861D01*
X76441300Y-103766861D02*
X76441300Y-103131861D01*
X76501776Y-103222576D01*
X76562252Y-103283052D01*
X76622728Y-103313290D01*
X59897433Y-93149661D02*
X60109100Y-92847280D01*
X60260290Y-93149661D02*
X60260290Y-92514661D01*
X60018385Y-92514661D01*
X59957909Y-92544900D01*
X59927671Y-92575138D01*
X59897433Y-92635614D01*
X59897433Y-92726328D01*
X59927671Y-92786804D01*
X59957909Y-92817042D01*
X60018385Y-92847280D01*
X60260290Y-92847280D01*
X59655528Y-92575138D02*
X59625290Y-92544900D01*
X59564814Y-92514661D01*
X59413623Y-92514661D01*
X59353147Y-92544900D01*
X59322909Y-92575138D01*
X59292671Y-92635614D01*
X59292671Y-92696090D01*
X59322909Y-92786804D01*
X59685766Y-93149661D01*
X59292671Y-93149661D01*
X62308014Y-90828585D02*
X62338252Y-90858823D01*
X62428966Y-90889061D01*
X62489442Y-90889061D01*
X62580157Y-90858823D01*
X62640633Y-90798347D01*
X62670871Y-90737871D01*
X62701109Y-90616919D01*
X62701109Y-90526204D01*
X62670871Y-90405252D01*
X62640633Y-90344776D01*
X62580157Y-90284300D01*
X62489442Y-90254061D01*
X62428966Y-90254061D01*
X62338252Y-90284300D01*
X62308014Y-90314538D01*
X61703252Y-90889061D02*
X62066109Y-90889061D01*
X61884680Y-90889061D02*
X61884680Y-90254061D01*
X61945157Y-90344776D01*
X62005633Y-90405252D01*
X62066109Y-90435490D01*
X61461347Y-90314538D02*
X61431109Y-90284300D01*
X61370633Y-90254061D01*
X61219442Y-90254061D01*
X61158966Y-90284300D01*
X61128728Y-90314538D01*
X61098490Y-90375014D01*
X61098490Y-90435490D01*
X61128728Y-90526204D01*
X61491585Y-90889061D01*
X61098490Y-90889061D01*
X62181014Y-91920785D02*
X62211252Y-91951023D01*
X62301966Y-91981261D01*
X62362442Y-91981261D01*
X62453157Y-91951023D01*
X62513633Y-91890547D01*
X62543871Y-91830071D01*
X62574109Y-91709119D01*
X62574109Y-91618404D01*
X62543871Y-91497452D01*
X62513633Y-91436976D01*
X62453157Y-91376500D01*
X62362442Y-91346261D01*
X62301966Y-91346261D01*
X62211252Y-91376500D01*
X62181014Y-91406738D01*
X61576252Y-91981261D02*
X61939109Y-91981261D01*
X61757680Y-91981261D02*
X61757680Y-91346261D01*
X61818157Y-91436976D01*
X61878633Y-91497452D01*
X61939109Y-91527690D01*
X60971490Y-91981261D02*
X61334347Y-91981261D01*
X61152919Y-91981261D02*
X61152919Y-91346261D01*
X61213395Y-91436976D01*
X61273871Y-91497452D01*
X61334347Y-91527690D01*
X75210609Y-92717861D02*
X75210609Y-93231909D01*
X75180371Y-93292385D01*
X75150133Y-93322623D01*
X75089657Y-93352861D01*
X74968704Y-93352861D01*
X74908228Y-93322623D01*
X74877990Y-93292385D01*
X74847752Y-93231909D01*
X74847752Y-92717861D01*
X74575609Y-92778338D02*
X74545371Y-92748100D01*
X74484895Y-92717861D01*
X74333704Y-92717861D01*
X74273228Y-92748100D01*
X74242990Y-92778338D01*
X74212752Y-92838814D01*
X74212752Y-92899290D01*
X74242990Y-92990004D01*
X74605847Y-93352861D01*
X74212752Y-93352861D01*
D19*
X67902666Y-96199476D02*
X67902666Y-96441380D01*
X68047809Y-96151095D02*
X67539809Y-96320428D01*
X68047809Y-96489761D01*
X67539809Y-96586523D02*
X67539809Y-96876809D01*
X68047809Y-96731666D02*
X67539809Y-96731666D01*
X68023619Y-97021952D02*
X68047809Y-97094523D01*
X68047809Y-97215476D01*
X68023619Y-97263857D01*
X67999428Y-97288047D01*
X67951047Y-97312238D01*
X67902666Y-97312238D01*
X67854285Y-97288047D01*
X67830095Y-97263857D01*
X67805904Y-97215476D01*
X67781714Y-97118714D01*
X67757523Y-97070333D01*
X67733333Y-97046142D01*
X67684952Y-97021952D01*
X67636571Y-97021952D01*
X67588190Y-97046142D01*
X67564000Y-97070333D01*
X67539809Y-97118714D01*
X67539809Y-97239666D01*
X67564000Y-97312238D01*
X67902666Y-97505761D02*
X67902666Y-97747666D01*
X68047809Y-97457380D02*
X67539809Y-97626714D01*
X68047809Y-97796047D01*
X68047809Y-97965380D02*
X67539809Y-97965380D01*
X67902666Y-98134714D01*
X67539809Y-98304047D01*
X68047809Y-98304047D01*
X68047809Y-98545952D02*
X67539809Y-98545952D01*
X67539809Y-98666904D01*
X67564000Y-98739476D01*
X67612380Y-98787857D01*
X67660761Y-98812047D01*
X67757523Y-98836238D01*
X67830095Y-98836238D01*
X67926857Y-98812047D01*
X67975238Y-98787857D01*
X68023619Y-98739476D01*
X68047809Y-98666904D01*
X68047809Y-98545952D01*
X67539809Y-99295857D02*
X67539809Y-99053952D01*
X67781714Y-99029761D01*
X67757523Y-99053952D01*
X67733333Y-99102333D01*
X67733333Y-99223285D01*
X67757523Y-99271666D01*
X67781714Y-99295857D01*
X67830095Y-99320047D01*
X67951047Y-99320047D01*
X67999428Y-99295857D01*
X68023619Y-99271666D01*
X68047809Y-99223285D01*
X68047809Y-99102333D01*
X68023619Y-99053952D01*
X67999428Y-99029761D01*
X68047809Y-99803857D02*
X68047809Y-99513571D01*
X68047809Y-99658714D02*
X67539809Y-99658714D01*
X67612380Y-99610333D01*
X67660761Y-99561952D01*
X67684952Y-99513571D01*
X67539809Y-100166714D02*
X67902666Y-100166714D01*
X67975238Y-100142523D01*
X68023619Y-100094142D01*
X68047809Y-100021571D01*
X68047809Y-99973190D01*
X67588190Y-100384428D02*
X67564000Y-100408619D01*
X67539809Y-100457000D01*
X67539809Y-100577952D01*
X67564000Y-100626333D01*
X67588190Y-100650523D01*
X67636571Y-100674714D01*
X67684952Y-100674714D01*
X67757523Y-100650523D01*
X68047809Y-100360238D01*
X68047809Y-100674714D01*
X67539809Y-100989190D02*
X67539809Y-101037571D01*
X67564000Y-101085952D01*
X67588190Y-101110142D01*
X67636571Y-101134333D01*
X67733333Y-101158523D01*
X67854285Y-101158523D01*
X67951047Y-101134333D01*
X67999428Y-101110142D01*
X68023619Y-101085952D01*
X68047809Y-101037571D01*
X68047809Y-100989190D01*
X68023619Y-100940809D01*
X67999428Y-100916619D01*
X67951047Y-100892428D01*
X67854285Y-100868238D01*
X67733333Y-100868238D01*
X67636571Y-100892428D01*
X67588190Y-100916619D01*
X67564000Y-100940809D01*
X67539809Y-100989190D01*
X67902666Y-101352047D02*
X67902666Y-101593952D01*
X68047809Y-101303666D02*
X67539809Y-101473000D01*
X68047809Y-101642333D01*
X67854285Y-101811666D02*
X67854285Y-102198714D01*
X67902666Y-102416428D02*
X67902666Y-102658333D01*
X68047809Y-102368047D02*
X67539809Y-102537380D01*
X68047809Y-102706714D01*
X67539809Y-102876047D02*
X67951047Y-102876047D01*
X67999428Y-102900238D01*
X68023619Y-102924428D01*
X68047809Y-102972809D01*
X68047809Y-103069571D01*
X68023619Y-103117952D01*
X67999428Y-103142142D01*
X67951047Y-103166333D01*
X67539809Y-103166333D01*
D12*
X81074985Y-94841785D02*
X81105223Y-94811547D01*
X81135461Y-94720833D01*
X81135461Y-94660357D01*
X81105223Y-94569642D01*
X81044747Y-94509166D01*
X80984271Y-94478928D01*
X80863319Y-94448690D01*
X80772604Y-94448690D01*
X80651652Y-94478928D01*
X80591176Y-94509166D01*
X80530700Y-94569642D01*
X80500461Y-94660357D01*
X80500461Y-94720833D01*
X80530700Y-94811547D01*
X80560938Y-94841785D01*
X81135461Y-95446547D02*
X81135461Y-95083690D01*
X81135461Y-95265119D02*
X80500461Y-95265119D01*
X80591176Y-95204642D01*
X80651652Y-95144166D01*
X80681890Y-95083690D01*
X80500461Y-95658214D02*
X80500461Y-96051309D01*
X80742366Y-95839642D01*
X80742366Y-95930357D01*
X80772604Y-95990833D01*
X80802842Y-96021071D01*
X80863319Y-96051309D01*
X81014509Y-96051309D01*
X81074985Y-96021071D01*
X81105223Y-95990833D01*
X81135461Y-95930357D01*
X81135461Y-95748928D01*
X81105223Y-95688452D01*
X81074985Y-95658214D01*
X81049585Y-97254785D02*
X81079823Y-97224547D01*
X81110061Y-97133833D01*
X81110061Y-97073357D01*
X81079823Y-96982642D01*
X81019347Y-96922166D01*
X80958871Y-96891928D01*
X80837919Y-96861690D01*
X80747204Y-96861690D01*
X80626252Y-96891928D01*
X80565776Y-96922166D01*
X80505300Y-96982642D01*
X80475061Y-97073357D01*
X80475061Y-97133833D01*
X80505300Y-97224547D01*
X80535538Y-97254785D01*
X81110061Y-97859547D02*
X81110061Y-97496690D01*
X81110061Y-97678119D02*
X80475061Y-97678119D01*
X80565776Y-97617642D01*
X80626252Y-97557166D01*
X80656490Y-97496690D01*
X80686728Y-98403833D02*
X81110061Y-98403833D01*
X80444823Y-98252642D02*
X80898395Y-98101452D01*
X80898395Y-98494547D01*
X64195113Y-93495585D02*
X64225351Y-93525823D01*
X64316065Y-93556061D01*
X64376541Y-93556061D01*
X64467256Y-93525823D01*
X64527732Y-93465347D01*
X64557970Y-93404871D01*
X64588208Y-93283919D01*
X64588208Y-93193204D01*
X64557970Y-93072252D01*
X64527732Y-93011776D01*
X64467256Y-92951300D01*
X64376541Y-92921061D01*
X64316065Y-92921061D01*
X64225351Y-92951300D01*
X64195113Y-92981538D01*
X63892732Y-93556061D02*
X63771780Y-93556061D01*
X63711303Y-93525823D01*
X63681065Y-93495585D01*
X63620589Y-93404871D01*
X63590351Y-93283919D01*
X63590351Y-93042014D01*
X63620589Y-92981538D01*
X63650827Y-92951300D01*
X63711303Y-92921061D01*
X63832256Y-92921061D01*
X63892732Y-92951300D01*
X63922970Y-92981538D01*
X63953208Y-93042014D01*
X63953208Y-93193204D01*
X63922970Y-93253680D01*
X63892732Y-93283919D01*
X63832256Y-93314157D01*
X63711303Y-93314157D01*
X63650827Y-93283919D01*
X63620589Y-93253680D01*
X63590351Y-93193204D01*
X62304385Y-104696985D02*
X62334623Y-104666747D01*
X62364861Y-104576033D01*
X62364861Y-104515557D01*
X62334623Y-104424842D01*
X62274147Y-104364366D01*
X62213671Y-104334128D01*
X62092719Y-104303890D01*
X62002004Y-104303890D01*
X61881052Y-104334128D01*
X61820576Y-104364366D01*
X61760100Y-104424842D01*
X61729861Y-104515557D01*
X61729861Y-104576033D01*
X61760100Y-104666747D01*
X61790338Y-104696985D01*
X62364861Y-105301747D02*
X62364861Y-104938890D01*
X62364861Y-105120319D02*
X61729861Y-105120319D01*
X61820576Y-105059842D01*
X61881052Y-104999366D01*
X61911290Y-104938890D01*
X61729861Y-105694842D02*
X61729861Y-105755319D01*
X61760100Y-105815795D01*
X61790338Y-105846033D01*
X61850814Y-105876271D01*
X61971766Y-105906509D01*
X62122957Y-105906509D01*
X62243909Y-105876271D01*
X62304385Y-105846033D01*
X62334623Y-105815795D01*
X62364861Y-105755319D01*
X62364861Y-105694842D01*
X62334623Y-105634366D01*
X62304385Y-105604128D01*
X62243909Y-105573890D01*
X62122957Y-105543652D01*
X61971766Y-105543652D01*
X61850814Y-105573890D01*
X61790338Y-105604128D01*
X61760100Y-105634366D01*
X61729861Y-105694842D01*
X68155833Y-90107261D02*
X68458214Y-90107261D01*
X68458214Y-89472261D01*
X67611547Y-90107261D02*
X67974404Y-90107261D01*
X67792976Y-90107261D02*
X67792976Y-89472261D01*
X67853452Y-89562976D01*
X67913928Y-89623452D01*
X67974404Y-89653690D01*
X58729033Y-99286785D02*
X58759271Y-99317023D01*
X58849985Y-99347261D01*
X58910461Y-99347261D01*
X59001176Y-99317023D01*
X59061652Y-99256547D01*
X59091890Y-99196071D01*
X59122128Y-99075119D01*
X59122128Y-98984404D01*
X59091890Y-98863452D01*
X59061652Y-98802976D01*
X59001176Y-98742500D01*
X58910461Y-98712261D01*
X58849985Y-98712261D01*
X58759271Y-98742500D01*
X58729033Y-98772738D01*
X58366176Y-98984404D02*
X58426652Y-98954166D01*
X58456890Y-98923928D01*
X58487128Y-98863452D01*
X58487128Y-98833214D01*
X58456890Y-98772738D01*
X58426652Y-98742500D01*
X58366176Y-98712261D01*
X58245223Y-98712261D01*
X58184747Y-98742500D01*
X58154509Y-98772738D01*
X58124271Y-98833214D01*
X58124271Y-98863452D01*
X58154509Y-98923928D01*
X58184747Y-98954166D01*
X58245223Y-98984404D01*
X58366176Y-98984404D01*
X58426652Y-99014642D01*
X58456890Y-99044880D01*
X58487128Y-99105357D01*
X58487128Y-99226309D01*
X58456890Y-99286785D01*
X58426652Y-99317023D01*
X58366176Y-99347261D01*
X58245223Y-99347261D01*
X58184747Y-99317023D01*
X58154509Y-99286785D01*
X58124271Y-99226309D01*
X58124271Y-99105357D01*
X58154509Y-99044880D01*
X58184747Y-99014642D01*
X58245223Y-98984404D01*
X77579461Y-98444352D02*
X78214461Y-98867685D01*
X77579461Y-98867685D02*
X78214461Y-98444352D01*
X78214461Y-99442209D02*
X78214461Y-99079352D01*
X78214461Y-99260780D02*
X77579461Y-99260780D01*
X77670176Y-99200304D01*
X77730652Y-99139828D01*
X77760890Y-99079352D01*
M02*
