%TF.GenerationSoftware,KiCad,Pcbnew,(6.0.0-rc1-dev-1614-ge850a482d)*%
%TF.CreationDate,2019-03-08T08:34:45-08:00*%
%TF.ProjectId,SAM32,53414d33-322e-46b6-9963-61645f706362,rev?*%
%TF.SameCoordinates,Original*%
%TF.FileFunction,Legend,Top*%
%TF.FilePolarity,Positive*%
%FSLAX46Y46*%
G04 Gerber Fmt 4.6, Leading zero omitted, Abs format (unit mm)*
G04 Created by KiCad (PCBNEW (6.0.0-rc1-dev-1614-ge850a482d)) date 2019-03-08 08:34:45*
%MOMM*%
%LPD*%
G04 APERTURE LIST*
%ADD10C,0.095250*%
%ADD11C,0.381000*%
%ADD12C,0.127000*%
%ADD13C,0.158750*%
%ADD14C,0.100000*%
%ADD15C,0.150000*%
%ADD16C,0.508000*%
%ADD17C,0.120000*%
%ADD18C,0.203200*%
G04 APERTURE END LIST*
D10*
X104005518Y-110660587D02*
X103815018Y-110330631D01*
X103893578Y-110285274D01*
X103949786Y-110273772D01*
X103999354Y-110287053D01*
X104033209Y-110309406D01*
X104085207Y-110363183D01*
X104112421Y-110410320D01*
X104132994Y-110482240D01*
X104135425Y-110522736D01*
X104122144Y-110572303D01*
X104084078Y-110615229D01*
X104005518Y-110660587D01*
X104508307Y-110370301D02*
X104319761Y-110479158D01*
X104414034Y-110424729D02*
X104223534Y-110094774D01*
X104219324Y-110160053D01*
X104206043Y-110209620D01*
X104183690Y-110243475D01*
X104600626Y-109877059D02*
X104537778Y-109913345D01*
X104515425Y-109947200D01*
X104508784Y-109971984D01*
X104504574Y-110037263D01*
X104525147Y-110109183D01*
X104597719Y-110234881D01*
X104631574Y-110257234D01*
X104656358Y-110263874D01*
X104696853Y-110261444D01*
X104759702Y-110225158D01*
X104782055Y-110191303D01*
X104788696Y-110166519D01*
X104786265Y-110126024D01*
X104740908Y-110047463D01*
X104707053Y-110025110D01*
X104682269Y-110018469D01*
X104641773Y-110020900D01*
X104578925Y-110057185D01*
X104556572Y-110091040D01*
X104549931Y-110115824D01*
X104552362Y-110156320D01*
D11*
X86481920Y-110617000D02*
X86481920Y-108849160D01*
D10*
X101235575Y-110320305D02*
X101195079Y-110322735D01*
X101147942Y-110349949D01*
X101109877Y-110392876D01*
X101096596Y-110442443D01*
X101099026Y-110482939D01*
X101119600Y-110554859D01*
X101146814Y-110601996D01*
X101198812Y-110655773D01*
X101232667Y-110678126D01*
X101282234Y-110691407D01*
X101338442Y-110679905D01*
X101369867Y-110661762D01*
X101407932Y-110618836D01*
X101414573Y-110594052D01*
X101351073Y-110484067D01*
X101288224Y-110520353D01*
X101574125Y-110543834D02*
X101383625Y-110213878D01*
X101762671Y-110434977D01*
X101572171Y-110105021D01*
X101919793Y-110344262D02*
X101729293Y-110014307D01*
X101807854Y-109968949D01*
X101864062Y-109957447D01*
X101913629Y-109970729D01*
X101947484Y-109993082D01*
X101999482Y-110046859D01*
X102026696Y-110093996D01*
X102047270Y-110165916D01*
X102049700Y-110206411D01*
X102036419Y-110255979D01*
X101998354Y-110298905D01*
X101919793Y-110344262D01*
D12*
X74308788Y-108491261D02*
X74308788Y-107856261D01*
X74459979Y-107856261D01*
X74550693Y-107886500D01*
X74611169Y-107946976D01*
X74641407Y-108007452D01*
X74671645Y-108128404D01*
X74671645Y-108219119D01*
X74641407Y-108340071D01*
X74611169Y-108400547D01*
X74550693Y-108461023D01*
X74459979Y-108491261D01*
X74308788Y-108491261D01*
X75215931Y-108067928D02*
X75215931Y-108491261D01*
X75064740Y-107826023D02*
X74913550Y-108279595D01*
X75306645Y-108279595D01*
X75881169Y-108491261D02*
X75518312Y-108491261D01*
X75699740Y-108491261D02*
X75699740Y-107856261D01*
X75639264Y-107946976D01*
X75578788Y-108007452D01*
X75518312Y-108037690D01*
X66696408Y-107983261D02*
X66696408Y-107348261D01*
X66847599Y-107348261D01*
X66938313Y-107378500D01*
X66998789Y-107438976D01*
X67029027Y-107499452D01*
X67059265Y-107620404D01*
X67059265Y-107711119D01*
X67029027Y-107832071D01*
X66998789Y-107892547D01*
X66938313Y-107953023D01*
X66847599Y-107983261D01*
X66696408Y-107983261D01*
X67603551Y-107559928D02*
X67603551Y-107983261D01*
X67452360Y-107318023D02*
X67301170Y-107771595D01*
X67694265Y-107771595D01*
X67875694Y-107348261D02*
X68268789Y-107348261D01*
X68057122Y-107590166D01*
X68147837Y-107590166D01*
X68208313Y-107620404D01*
X68238551Y-107650642D01*
X68268789Y-107711119D01*
X68268789Y-107862309D01*
X68238551Y-107922785D01*
X68208313Y-107953023D01*
X68147837Y-107983261D01*
X67966408Y-107983261D01*
X67905932Y-107953023D01*
X67875694Y-107922785D01*
D10*
X98689043Y-110373172D02*
X98877589Y-110264315D01*
X98973816Y-110648699D02*
X98783316Y-110318744D01*
X98956150Y-110218958D02*
X99366621Y-110421914D01*
X99176121Y-110091958D02*
X99146650Y-110548914D01*
X96508625Y-110567635D02*
X96307926Y-110474013D01*
X96320079Y-110676492D02*
X96129579Y-110346537D01*
X96255277Y-110273965D01*
X96295773Y-110271535D01*
X96320556Y-110278175D01*
X96354411Y-110300528D01*
X96381625Y-110347665D01*
X96384056Y-110388160D01*
X96377415Y-110412944D01*
X96355062Y-110446799D01*
X96229365Y-110519371D01*
X96428111Y-110174179D02*
X96838581Y-110377135D01*
X96648081Y-110047179D02*
X96618611Y-110504135D01*
D12*
X73763333Y-93022261D02*
X74126190Y-93022261D01*
X73944761Y-93657261D02*
X73944761Y-93022261D01*
X74337857Y-93657261D02*
X74337857Y-93022261D01*
X74549523Y-93475833D01*
X74761190Y-93022261D01*
X74761190Y-93657261D01*
X75033333Y-93627023D02*
X75124047Y-93657261D01*
X75275238Y-93657261D01*
X75335714Y-93627023D01*
X75365952Y-93596785D01*
X75396190Y-93536309D01*
X75396190Y-93475833D01*
X75365952Y-93415357D01*
X75335714Y-93385119D01*
X75275238Y-93354880D01*
X75154285Y-93324642D01*
X75093809Y-93294404D01*
X75063571Y-93264166D01*
X75033333Y-93203690D01*
X75033333Y-93143214D01*
X75063571Y-93082738D01*
X75093809Y-93052500D01*
X75154285Y-93022261D01*
X75305476Y-93022261D01*
X75396190Y-93052500D01*
D13*
X63995904Y-96855642D02*
X63512095Y-96855642D01*
X65704357Y-97142904D02*
X65704357Y-96659095D01*
X65946261Y-96901000D02*
X65462452Y-96901000D01*
D14*
G36*
X67989600Y-98651000D02*
G01*
X67380000Y-99032000D01*
X67380000Y-98270000D01*
X67989600Y-98651000D01*
G37*
X67989600Y-98651000D02*
X67380000Y-99032000D01*
X67380000Y-98270000D01*
X67989600Y-98651000D01*
D15*
X58847114Y-94441600D02*
X58847114Y-93146200D01*
D14*
G36*
X59258200Y-94111400D02*
G01*
X58847114Y-93792240D01*
X59258200Y-93451000D01*
X59258200Y-94111400D01*
G37*
X59258200Y-94111400D02*
X58847114Y-93792240D01*
X59258200Y-93451000D01*
X59258200Y-94111400D01*
G36*
X69375020Y-105349040D02*
G01*
X68714620Y-105349040D01*
X69044820Y-105069640D01*
X69375020Y-105349040D01*
G37*
X69375020Y-105349040D02*
X68714620Y-105349040D01*
X69044820Y-105069640D01*
X69375020Y-105349040D01*
D16*
X109192060Y-106945080D02*
X109192060Y-108498640D01*
X106652060Y-111038640D02*
G75*
G03X109192060Y-108498640I0J2540000D01*
G01*
X103755076Y-102181768D02*
X109192060Y-106945080D01*
X55852060Y-96296067D02*
X56300000Y-96740000D01*
X103758052Y-96469398D02*
X109220013Y-91690000D01*
X103758039Y-96469407D02*
G75*
G03X103628512Y-96721166I160472J-241760D01*
G01*
X103755063Y-102181759D02*
G75*
G02X103625536Y-101930000I160472J241760D01*
G01*
X103625536Y-101930000D02*
X103628512Y-96721166D01*
X55852060Y-102438136D02*
X56300000Y-101994203D01*
X56300000Y-101994203D02*
G75*
G03X56361488Y-101805369I-228511J178835D01*
G01*
X56300000Y-96740000D02*
G75*
G02X56361488Y-96928834I-228511J-178835D01*
G01*
D12*
X56852738Y-93261785D02*
X56852738Y-92959404D01*
X57487738Y-92959404D01*
X57185357Y-93473452D02*
X57185357Y-93685119D01*
X56852738Y-93775833D02*
X56852738Y-93473452D01*
X57487738Y-93473452D01*
X57487738Y-93775833D01*
X56852738Y-94047976D02*
X57487738Y-94047976D01*
X57487738Y-94199166D01*
X57457500Y-94289880D01*
X57397023Y-94350357D01*
X57336547Y-94380595D01*
X57215595Y-94410833D01*
X57124880Y-94410833D01*
X57003928Y-94380595D01*
X56943452Y-94350357D01*
X56882976Y-94289880D01*
X56852738Y-94199166D01*
X56852738Y-94047976D01*
X68398928Y-106166785D02*
X68368690Y-106197023D01*
X68277976Y-106227261D01*
X68217500Y-106227261D01*
X68126785Y-106197023D01*
X68066309Y-106136547D01*
X68036071Y-106076071D01*
X68005833Y-105955119D01*
X68005833Y-105864404D01*
X68036071Y-105743452D01*
X68066309Y-105682976D01*
X68126785Y-105622500D01*
X68217500Y-105592261D01*
X68277976Y-105592261D01*
X68368690Y-105622500D01*
X68398928Y-105652738D01*
X68671071Y-106227261D02*
X68671071Y-105592261D01*
X68671071Y-105894642D02*
X69033928Y-105894642D01*
X69033928Y-106227261D02*
X69033928Y-105592261D01*
X69699166Y-106227261D02*
X69487500Y-105924880D01*
X69336309Y-106227261D02*
X69336309Y-105592261D01*
X69578214Y-105592261D01*
X69638690Y-105622500D01*
X69668928Y-105652738D01*
X69699166Y-105713214D01*
X69699166Y-105803928D01*
X69668928Y-105864404D01*
X69638690Y-105894642D01*
X69578214Y-105924880D01*
X69336309Y-105924880D01*
X70303928Y-105622500D02*
X70243452Y-105592261D01*
X70152738Y-105592261D01*
X70062023Y-105622500D01*
X70001547Y-105682976D01*
X69971309Y-105743452D01*
X69941071Y-105864404D01*
X69941071Y-105955119D01*
X69971309Y-106076071D01*
X70001547Y-106136547D01*
X70062023Y-106197023D01*
X70152738Y-106227261D01*
X70213214Y-106227261D01*
X70303928Y-106197023D01*
X70334166Y-106166785D01*
X70334166Y-105955119D01*
X70213214Y-105955119D01*
X61752738Y-99302261D02*
X62055119Y-99090595D01*
X61752738Y-98939404D02*
X62387738Y-98939404D01*
X62387738Y-99181309D01*
X62357500Y-99241785D01*
X62327261Y-99272023D01*
X62266785Y-99302261D01*
X62176071Y-99302261D01*
X62115595Y-99272023D01*
X62085357Y-99241785D01*
X62055119Y-99181309D01*
X62055119Y-98939404D01*
X61782976Y-99544166D02*
X61752738Y-99634880D01*
X61752738Y-99786071D01*
X61782976Y-99846547D01*
X61813214Y-99876785D01*
X61873690Y-99907023D01*
X61934166Y-99907023D01*
X61994642Y-99876785D01*
X62024880Y-99846547D01*
X62055119Y-99786071D01*
X62085357Y-99665119D01*
X62115595Y-99604642D01*
X62145833Y-99574404D01*
X62206309Y-99544166D01*
X62266785Y-99544166D01*
X62327261Y-99574404D01*
X62357500Y-99604642D01*
X62387738Y-99665119D01*
X62387738Y-99816309D01*
X62357500Y-99907023D01*
X62387738Y-100088452D02*
X62387738Y-100451309D01*
X61752738Y-100269880D02*
X62387738Y-100269880D01*
D11*
X94107000Y-109573060D02*
X94107000Y-108839000D01*
D10*
X102197873Y-87948385D02*
X102141665Y-87959887D01*
X102063104Y-88005244D01*
X102040751Y-88039099D01*
X102034110Y-88063882D01*
X102036541Y-88104378D01*
X102054684Y-88135803D01*
X102088539Y-88158156D01*
X102113323Y-88164796D01*
X102153818Y-88162366D01*
X102225738Y-88141792D01*
X102266234Y-88139361D01*
X102291018Y-88146002D01*
X102324873Y-88168355D01*
X102343016Y-88199779D01*
X102345446Y-88240275D01*
X102338806Y-88265059D01*
X102316453Y-88298914D01*
X102237892Y-88344271D01*
X102181684Y-88355773D01*
X101858846Y-88123172D02*
X102049346Y-88453128D01*
X101970785Y-88498485D01*
X101914577Y-88509987D01*
X101865010Y-88496706D01*
X101831155Y-88474353D01*
X101779157Y-88420576D01*
X101751942Y-88373439D01*
X101731369Y-88301519D01*
X101728938Y-88261023D01*
X101742220Y-88211456D01*
X101780285Y-88168530D01*
X101858846Y-88123172D01*
X101599031Y-88398874D02*
X101441909Y-88489588D01*
X101576027Y-88286458D02*
X101656541Y-88679914D01*
X101356056Y-88413458D01*
X99619537Y-87983400D02*
X99563329Y-87994902D01*
X99484768Y-88040260D01*
X99462415Y-88074115D01*
X99455774Y-88098898D01*
X99458205Y-88139394D01*
X99476348Y-88170818D01*
X99510203Y-88193171D01*
X99534986Y-88199812D01*
X99575482Y-88197381D01*
X99647402Y-88176808D01*
X99687898Y-88174377D01*
X99712682Y-88181018D01*
X99746537Y-88203371D01*
X99764680Y-88234795D01*
X99767110Y-88275291D01*
X99760470Y-88300074D01*
X99738117Y-88333930D01*
X99659556Y-88379287D01*
X99603348Y-88390789D01*
X99110106Y-88298470D02*
X99116747Y-88273686D01*
X99154812Y-88230760D01*
X99186237Y-88212617D01*
X99242445Y-88201115D01*
X99292012Y-88214396D01*
X99325867Y-88236749D01*
X99377865Y-88290526D01*
X99405079Y-88337663D01*
X99425652Y-88409583D01*
X99428083Y-88450079D01*
X99414802Y-88499646D01*
X99376737Y-88542572D01*
X99345312Y-88560715D01*
X99289104Y-88572217D01*
X99264321Y-88565577D01*
X98793432Y-88439402D02*
X98950554Y-88348688D01*
X99141054Y-88678644D01*
X93410516Y-110816702D02*
X93220016Y-110486747D01*
X93466073Y-110658929D01*
X93439987Y-110359747D01*
X93630487Y-110689702D01*
X93787608Y-110598988D02*
X93597108Y-110269032D01*
X93919947Y-110501633D02*
X93976155Y-110490131D01*
X94054715Y-110444774D01*
X94077068Y-110410919D01*
X94083709Y-110386135D01*
X94081278Y-110345639D01*
X94063136Y-110314215D01*
X94029281Y-110291862D01*
X94004497Y-110285221D01*
X93964001Y-110287652D01*
X93892081Y-110308226D01*
X93851585Y-110310656D01*
X93826802Y-110304015D01*
X93792947Y-110281663D01*
X93774804Y-110250238D01*
X93772373Y-110209742D01*
X93779014Y-110184959D01*
X93801367Y-110151104D01*
X93879928Y-110105747D01*
X93936136Y-110094245D01*
X94131322Y-109960604D02*
X94194171Y-109924318D01*
X94234667Y-109921887D01*
X94284234Y-109935169D01*
X94336232Y-109988946D01*
X94399732Y-110098931D01*
X94420306Y-110170851D01*
X94407024Y-110220419D01*
X94384671Y-110254274D01*
X94321822Y-110290559D01*
X94281327Y-110292990D01*
X94231759Y-110279709D01*
X94179762Y-110225931D01*
X94116262Y-110115946D01*
X94095688Y-110044026D01*
X94108970Y-109994459D01*
X94131322Y-109960604D01*
X90956876Y-110809082D02*
X90766376Y-110479127D01*
X91012433Y-110651309D01*
X90986347Y-110352127D01*
X91176847Y-110682082D01*
X91206317Y-110225127D02*
X91269166Y-110188841D01*
X91309662Y-110186410D01*
X91359229Y-110199692D01*
X91411227Y-110253469D01*
X91474727Y-110363454D01*
X91495300Y-110435374D01*
X91482019Y-110484942D01*
X91459666Y-110518797D01*
X91396817Y-110555082D01*
X91356321Y-110557513D01*
X91306754Y-110544231D01*
X91254756Y-110490454D01*
X91191256Y-110380469D01*
X91170683Y-110308549D01*
X91183964Y-110258982D01*
X91206317Y-110225127D01*
X91654853Y-110385156D02*
X91711061Y-110373654D01*
X91789622Y-110328297D01*
X91811974Y-110294442D01*
X91818615Y-110269658D01*
X91816185Y-110229162D01*
X91798042Y-110197738D01*
X91764187Y-110175385D01*
X91739403Y-110168744D01*
X91698907Y-110171175D01*
X91626987Y-110191748D01*
X91586491Y-110194179D01*
X91561708Y-110187538D01*
X91527853Y-110165185D01*
X91509710Y-110133761D01*
X91507279Y-110093265D01*
X91513920Y-110068482D01*
X91536273Y-110034627D01*
X91614834Y-109989269D01*
X91671042Y-109977767D01*
X91993880Y-110210368D02*
X91803380Y-109880412D01*
X88560498Y-110690682D02*
X88616706Y-110679179D01*
X88695267Y-110633822D01*
X88717620Y-110599967D01*
X88724260Y-110575184D01*
X88721830Y-110534688D01*
X88703687Y-110503264D01*
X88669832Y-110480911D01*
X88645048Y-110474270D01*
X88604552Y-110476701D01*
X88532632Y-110497274D01*
X88492137Y-110499705D01*
X88467353Y-110493064D01*
X88433498Y-110470711D01*
X88415355Y-110439287D01*
X88412924Y-110398791D01*
X88419565Y-110374007D01*
X88441918Y-110340152D01*
X88520479Y-110294795D01*
X88576687Y-110283293D01*
X89069928Y-110375612D02*
X89063288Y-110400396D01*
X89025222Y-110443322D01*
X88993798Y-110461465D01*
X88937590Y-110472967D01*
X88888023Y-110459686D01*
X88854168Y-110437333D01*
X88802170Y-110383556D01*
X88774956Y-110336419D01*
X88754382Y-110264499D01*
X88751951Y-110224003D01*
X88765233Y-110174436D01*
X88803298Y-110131509D01*
X88834722Y-110113367D01*
X88890930Y-110101865D01*
X88915714Y-110108505D01*
X89229481Y-110325394D02*
X89038981Y-109995438D01*
X89418027Y-110216537D02*
X89167760Y-110109633D01*
X89227527Y-109886581D02*
X89147838Y-110183984D01*
D16*
X108205221Y-90615720D02*
G75*
G03X108205221Y-90615720I-1652221J0D01*
G01*
X108205221Y-108205220D02*
G75*
G03X108205221Y-108205220I-1652221J0D01*
G01*
D12*
X102570642Y-103913214D02*
X102600880Y-103822500D01*
X102631119Y-103792261D01*
X102691595Y-103762023D01*
X102782309Y-103762023D01*
X102842785Y-103792261D01*
X102873023Y-103822500D01*
X102903261Y-103882976D01*
X102903261Y-104124880D01*
X102268261Y-104124880D01*
X102268261Y-103913214D01*
X102298500Y-103852738D01*
X102328738Y-103822500D01*
X102389214Y-103792261D01*
X102449690Y-103792261D01*
X102510166Y-103822500D01*
X102540404Y-103852738D01*
X102570642Y-103913214D01*
X102570642Y-104124880D01*
X102570642Y-103489880D02*
X102570642Y-103278214D01*
X102903261Y-103187500D02*
X102903261Y-103489880D01*
X102268261Y-103489880D01*
X102268261Y-103187500D01*
X102298500Y-102582738D02*
X102268261Y-102643214D01*
X102268261Y-102733928D01*
X102298500Y-102824642D01*
X102358976Y-102885119D01*
X102419452Y-102915357D01*
X102540404Y-102945595D01*
X102631119Y-102945595D01*
X102752071Y-102915357D01*
X102812547Y-102885119D01*
X102873023Y-102824642D01*
X102903261Y-102733928D01*
X102903261Y-102673452D01*
X102873023Y-102582738D01*
X102842785Y-102552500D01*
X102631119Y-102552500D01*
X102631119Y-102673452D01*
X102903261Y-102280357D02*
X102268261Y-102280357D01*
X102903261Y-101977976D02*
X102268261Y-101977976D01*
X102903261Y-101615119D01*
X102268261Y-101615119D01*
X102268261Y-100889404D02*
X102903261Y-100738214D01*
X102449690Y-100617261D01*
X102903261Y-100496309D01*
X102268261Y-100345119D01*
X102903261Y-100103214D02*
X102268261Y-100103214D01*
X102570642Y-99589166D02*
X102570642Y-99800833D01*
X102903261Y-99800833D02*
X102268261Y-99800833D01*
X102268261Y-99498452D01*
X102903261Y-99256547D02*
X102268261Y-99256547D01*
X102721833Y-98500595D02*
X102721833Y-98198214D01*
X102903261Y-98561071D02*
X102268261Y-98349404D01*
X102903261Y-98137738D01*
X102903261Y-97926071D02*
X102268261Y-97926071D01*
X102903261Y-97563214D01*
X102268261Y-97563214D01*
X102268261Y-97351547D02*
X102268261Y-96988690D01*
X102903261Y-97170119D02*
X102268261Y-97170119D01*
X102570642Y-96777023D02*
X102570642Y-96565357D01*
X102903261Y-96474642D02*
X102903261Y-96777023D01*
X102268261Y-96777023D01*
X102268261Y-96474642D01*
X102903261Y-96202500D02*
X102268261Y-96202500D01*
X102903261Y-95839642D01*
X102268261Y-95839642D01*
X102903261Y-95537261D02*
X102268261Y-95537261D01*
X102903261Y-95174404D01*
X102268261Y-95174404D01*
X102721833Y-94902261D02*
X102721833Y-94599880D01*
X102903261Y-94962738D02*
X102268261Y-94751071D01*
X102903261Y-94539404D01*
D11*
X103251000Y-108331113D02*
X103251000Y-90550886D01*
D12*
X86536892Y-102694619D02*
X86536892Y-102482952D01*
X86869511Y-102392238D02*
X86869511Y-102694619D01*
X86234511Y-102694619D01*
X86234511Y-102392238D01*
X86839273Y-102150333D02*
X86869511Y-102059619D01*
X86869511Y-101908428D01*
X86839273Y-101847952D01*
X86809035Y-101817714D01*
X86748559Y-101787476D01*
X86688083Y-101787476D01*
X86627607Y-101817714D01*
X86597369Y-101847952D01*
X86567130Y-101908428D01*
X86536892Y-102029380D01*
X86506654Y-102089857D01*
X86476416Y-102120095D01*
X86415940Y-102150333D01*
X86355464Y-102150333D01*
X86294988Y-102120095D01*
X86264750Y-102089857D01*
X86234511Y-102029380D01*
X86234511Y-101878190D01*
X86264750Y-101787476D01*
X86869511Y-101515333D02*
X86234511Y-101515333D01*
X86234511Y-101273428D01*
X86264750Y-101212952D01*
X86294988Y-101182714D01*
X86355464Y-101152476D01*
X86446178Y-101152476D01*
X86506654Y-101182714D01*
X86536892Y-101212952D01*
X86567130Y-101273428D01*
X86567130Y-101515333D01*
X86234511Y-100940809D02*
X86234511Y-100547714D01*
X86476416Y-100759380D01*
X86476416Y-100668666D01*
X86506654Y-100608190D01*
X86536892Y-100577952D01*
X86597369Y-100547714D01*
X86748559Y-100547714D01*
X86809035Y-100577952D01*
X86839273Y-100608190D01*
X86869511Y-100668666D01*
X86869511Y-100850095D01*
X86839273Y-100910571D01*
X86809035Y-100940809D01*
X86294988Y-100305809D02*
X86264750Y-100275571D01*
X86234511Y-100215095D01*
X86234511Y-100063904D01*
X86264750Y-100003428D01*
X86294988Y-99973190D01*
X86355464Y-99942952D01*
X86415940Y-99942952D01*
X86506654Y-99973190D01*
X86869511Y-100336047D01*
X86869511Y-99942952D01*
X86627607Y-99670809D02*
X86627607Y-99187000D01*
X86234511Y-98945095D02*
X86869511Y-98793904D01*
X86415940Y-98672952D01*
X86869511Y-98552000D01*
X86234511Y-98400809D01*
X86869511Y-97796047D02*
X86567130Y-98007714D01*
X86869511Y-98158904D02*
X86234511Y-98158904D01*
X86234511Y-97917000D01*
X86264750Y-97856523D01*
X86294988Y-97826285D01*
X86355464Y-97796047D01*
X86446178Y-97796047D01*
X86506654Y-97826285D01*
X86536892Y-97856523D01*
X86567130Y-97917000D01*
X86567130Y-98158904D01*
X86234511Y-97402952D02*
X86234511Y-97282000D01*
X86264750Y-97221523D01*
X86325226Y-97161047D01*
X86446178Y-97130809D01*
X86657845Y-97130809D01*
X86778797Y-97161047D01*
X86839273Y-97221523D01*
X86869511Y-97282000D01*
X86869511Y-97402952D01*
X86839273Y-97463428D01*
X86778797Y-97523904D01*
X86657845Y-97554142D01*
X86446178Y-97554142D01*
X86325226Y-97523904D01*
X86264750Y-97463428D01*
X86234511Y-97402952D01*
X86234511Y-96737714D02*
X86234511Y-96616761D01*
X86264750Y-96556285D01*
X86325226Y-96495809D01*
X86446178Y-96465571D01*
X86657845Y-96465571D01*
X86778797Y-96495809D01*
X86839273Y-96556285D01*
X86869511Y-96616761D01*
X86869511Y-96737714D01*
X86839273Y-96798190D01*
X86778797Y-96858666D01*
X86657845Y-96888904D01*
X86446178Y-96888904D01*
X86325226Y-96858666D01*
X86264750Y-96798190D01*
X86234511Y-96737714D01*
X86869511Y-96193428D02*
X86234511Y-96193428D01*
X86688083Y-95981761D01*
X86234511Y-95770095D01*
X86869511Y-95770095D01*
X86627607Y-95467714D02*
X86627607Y-94983904D01*
X86234511Y-94742000D02*
X86234511Y-94348904D01*
X86476416Y-94560571D01*
X86476416Y-94469857D01*
X86506654Y-94409380D01*
X86536892Y-94379142D01*
X86597369Y-94348904D01*
X86748559Y-94348904D01*
X86809035Y-94379142D01*
X86839273Y-94409380D01*
X86869511Y-94469857D01*
X86869511Y-94651285D01*
X86839273Y-94711761D01*
X86809035Y-94742000D01*
X86294988Y-94107000D02*
X86264750Y-94076761D01*
X86234511Y-94016285D01*
X86234511Y-93865095D01*
X86264750Y-93804619D01*
X86294988Y-93774380D01*
X86355464Y-93744142D01*
X86415940Y-93744142D01*
X86506654Y-93774380D01*
X86869511Y-94137238D01*
X86869511Y-93744142D01*
X87314011Y-101197833D02*
X87465202Y-101197833D01*
X87404726Y-101349023D02*
X87465202Y-101197833D01*
X87404726Y-101046642D01*
X87586154Y-101288547D02*
X87465202Y-101197833D01*
X87586154Y-101107119D01*
X87314011Y-100714023D02*
X87465202Y-100714023D01*
X87404726Y-100865214D02*
X87465202Y-100714023D01*
X87404726Y-100562833D01*
X87586154Y-100804738D02*
X87465202Y-100714023D01*
X87586154Y-100623309D01*
X87314011Y-100199976D02*
X87314011Y-100079023D01*
X87344250Y-100018547D01*
X87404726Y-99958071D01*
X87525678Y-99927833D01*
X87737345Y-99927833D01*
X87858297Y-99958071D01*
X87918773Y-100018547D01*
X87949011Y-100079023D01*
X87949011Y-100199976D01*
X87918773Y-100260452D01*
X87858297Y-100320928D01*
X87737345Y-100351166D01*
X87525678Y-100351166D01*
X87404726Y-100320928D01*
X87344250Y-100260452D01*
X87314011Y-100199976D01*
X87949011Y-99655690D02*
X87314011Y-99655690D01*
X87314011Y-99413785D01*
X87344250Y-99353309D01*
X87374488Y-99323071D01*
X87434964Y-99292833D01*
X87525678Y-99292833D01*
X87586154Y-99323071D01*
X87616392Y-99353309D01*
X87646630Y-99413785D01*
X87646630Y-99655690D01*
X87314011Y-99111404D02*
X87314011Y-98748547D01*
X87949011Y-98929976D02*
X87314011Y-98929976D01*
X87949011Y-98536880D02*
X87314011Y-98536880D01*
X87314011Y-98113547D02*
X87314011Y-97992595D01*
X87344250Y-97932119D01*
X87404726Y-97871642D01*
X87525678Y-97841404D01*
X87737345Y-97841404D01*
X87858297Y-97871642D01*
X87918773Y-97932119D01*
X87949011Y-97992595D01*
X87949011Y-98113547D01*
X87918773Y-98174023D01*
X87858297Y-98234500D01*
X87737345Y-98264738D01*
X87525678Y-98264738D01*
X87404726Y-98234500D01*
X87344250Y-98174023D01*
X87314011Y-98113547D01*
X87949011Y-97569261D02*
X87314011Y-97569261D01*
X87949011Y-97206404D01*
X87314011Y-97206404D01*
X87767583Y-96934261D02*
X87767583Y-96631880D01*
X87949011Y-96994738D02*
X87314011Y-96783071D01*
X87949011Y-96571404D01*
X87949011Y-96057357D02*
X87949011Y-96359738D01*
X87314011Y-96359738D01*
X87314011Y-95754976D02*
X87465202Y-95754976D01*
X87404726Y-95906166D02*
X87465202Y-95754976D01*
X87404726Y-95603785D01*
X87586154Y-95845690D02*
X87465202Y-95754976D01*
X87586154Y-95664261D01*
X87314011Y-95271166D02*
X87465202Y-95271166D01*
X87404726Y-95422357D02*
X87465202Y-95271166D01*
X87404726Y-95119976D01*
X87586154Y-95361880D02*
X87465202Y-95271166D01*
X87586154Y-95180452D01*
X78694642Y-101288547D02*
X78694642Y-101076880D01*
X79027261Y-100986166D02*
X79027261Y-101288547D01*
X78392261Y-101288547D01*
X78392261Y-100986166D01*
X78997023Y-100744261D02*
X79027261Y-100653547D01*
X79027261Y-100502357D01*
X78997023Y-100441880D01*
X78966785Y-100411642D01*
X78906309Y-100381404D01*
X78845833Y-100381404D01*
X78785357Y-100411642D01*
X78755119Y-100441880D01*
X78724880Y-100502357D01*
X78694642Y-100623309D01*
X78664404Y-100683785D01*
X78634166Y-100714023D01*
X78573690Y-100744261D01*
X78513214Y-100744261D01*
X78452738Y-100714023D01*
X78422500Y-100683785D01*
X78392261Y-100623309D01*
X78392261Y-100472119D01*
X78422500Y-100381404D01*
X79027261Y-100109261D02*
X78392261Y-100109261D01*
X78392261Y-99867357D01*
X78422500Y-99806880D01*
X78452738Y-99776642D01*
X78513214Y-99746404D01*
X78603928Y-99746404D01*
X78664404Y-99776642D01*
X78694642Y-99806880D01*
X78724880Y-99867357D01*
X78724880Y-100109261D01*
X78392261Y-99534738D02*
X78392261Y-99141642D01*
X78634166Y-99353309D01*
X78634166Y-99262595D01*
X78664404Y-99202119D01*
X78694642Y-99171880D01*
X78755119Y-99141642D01*
X78906309Y-99141642D01*
X78966785Y-99171880D01*
X78997023Y-99202119D01*
X79027261Y-99262595D01*
X79027261Y-99444023D01*
X78997023Y-99504500D01*
X78966785Y-99534738D01*
X78452738Y-98899738D02*
X78422500Y-98869500D01*
X78392261Y-98809023D01*
X78392261Y-98657833D01*
X78422500Y-98597357D01*
X78452738Y-98567119D01*
X78513214Y-98536880D01*
X78573690Y-98536880D01*
X78664404Y-98567119D01*
X79027261Y-98929976D01*
X79027261Y-98536880D01*
X79027261Y-97780928D02*
X78392261Y-97780928D01*
X78362023Y-97024976D02*
X79178452Y-97569261D01*
X78392261Y-96692357D02*
X78392261Y-96571404D01*
X78422500Y-96510928D01*
X78482976Y-96450452D01*
X78603928Y-96420214D01*
X78815595Y-96420214D01*
X78936547Y-96450452D01*
X78997023Y-96510928D01*
X79027261Y-96571404D01*
X79027261Y-96692357D01*
X78997023Y-96752833D01*
X78936547Y-96813309D01*
X78815595Y-96843547D01*
X78603928Y-96843547D01*
X78482976Y-96813309D01*
X78422500Y-96752833D01*
X78392261Y-96692357D01*
X82813071Y-91600261D02*
X83175928Y-91600261D01*
X82994500Y-92235261D02*
X82994500Y-91600261D01*
X83750452Y-92174785D02*
X83720214Y-92205023D01*
X83629500Y-92235261D01*
X83569023Y-92235261D01*
X83478309Y-92205023D01*
X83417833Y-92144547D01*
X83387595Y-92084071D01*
X83357357Y-91963119D01*
X83357357Y-91872404D01*
X83387595Y-91751452D01*
X83417833Y-91690976D01*
X83478309Y-91630500D01*
X83569023Y-91600261D01*
X83629500Y-91600261D01*
X83720214Y-91630500D01*
X83750452Y-91660738D01*
X84022595Y-92235261D02*
X84022595Y-91600261D01*
X84385452Y-92235261D02*
X84113309Y-91872404D01*
X84385452Y-91600261D02*
X84022595Y-91963119D01*
X73517880Y-91536761D02*
X73880738Y-91536761D01*
X73699309Y-92171761D02*
X73699309Y-91536761D01*
X74092404Y-92171761D02*
X74092404Y-91536761D01*
X74243595Y-91536761D01*
X74334309Y-91567000D01*
X74394785Y-91627476D01*
X74425023Y-91687952D01*
X74455261Y-91808904D01*
X74455261Y-91899619D01*
X74425023Y-92020571D01*
X74394785Y-92081047D01*
X74334309Y-92141523D01*
X74243595Y-92171761D01*
X74092404Y-92171761D01*
X74727404Y-92171761D02*
X74727404Y-91536761D01*
X81104619Y-93632261D02*
X81104619Y-92997261D01*
X81527952Y-92997261D02*
X81648904Y-92997261D01*
X81709380Y-93027500D01*
X81769857Y-93087976D01*
X81800095Y-93208928D01*
X81800095Y-93420595D01*
X81769857Y-93541547D01*
X81709380Y-93602023D01*
X81648904Y-93632261D01*
X81527952Y-93632261D01*
X81467476Y-93602023D01*
X81407000Y-93541547D01*
X81376761Y-93420595D01*
X81376761Y-93208928D01*
X81407000Y-93087976D01*
X81467476Y-93027500D01*
X81527952Y-92997261D01*
X82042000Y-93057738D02*
X82072238Y-93027500D01*
X82132714Y-92997261D01*
X82283904Y-92997261D01*
X82344380Y-93027500D01*
X82374619Y-93057738D01*
X82404857Y-93118214D01*
X82404857Y-93178690D01*
X82374619Y-93269404D01*
X82011761Y-93632261D01*
X82404857Y-93632261D01*
X82979380Y-92997261D02*
X82677000Y-92997261D01*
X82646761Y-93299642D01*
X82677000Y-93269404D01*
X82737476Y-93239166D01*
X82888666Y-93239166D01*
X82949142Y-93269404D01*
X82979380Y-93299642D01*
X83009619Y-93360119D01*
X83009619Y-93511309D01*
X82979380Y-93571785D01*
X82949142Y-93602023D01*
X82888666Y-93632261D01*
X82737476Y-93632261D01*
X82677000Y-93602023D01*
X82646761Y-93571785D01*
X74691119Y-95918261D02*
X74691119Y-95283261D01*
X75114452Y-95283261D02*
X75235404Y-95283261D01*
X75295880Y-95313500D01*
X75356357Y-95373976D01*
X75386595Y-95494928D01*
X75386595Y-95706595D01*
X75356357Y-95827547D01*
X75295880Y-95888023D01*
X75235404Y-95918261D01*
X75114452Y-95918261D01*
X75053976Y-95888023D01*
X74993500Y-95827547D01*
X74963261Y-95706595D01*
X74963261Y-95494928D01*
X74993500Y-95373976D01*
X75053976Y-95313500D01*
X75114452Y-95283261D01*
X75628500Y-95343738D02*
X75658738Y-95313500D01*
X75719214Y-95283261D01*
X75870404Y-95283261D01*
X75930880Y-95313500D01*
X75961119Y-95343738D01*
X75991357Y-95404214D01*
X75991357Y-95464690D01*
X75961119Y-95555404D01*
X75598261Y-95918261D01*
X75991357Y-95918261D01*
X76535642Y-95283261D02*
X76414690Y-95283261D01*
X76354214Y-95313500D01*
X76323976Y-95343738D01*
X76263500Y-95434452D01*
X76233261Y-95555404D01*
X76233261Y-95797309D01*
X76263500Y-95857785D01*
X76293738Y-95888023D01*
X76354214Y-95918261D01*
X76475166Y-95918261D01*
X76535642Y-95888023D01*
X76565880Y-95857785D01*
X76596119Y-95797309D01*
X76596119Y-95646119D01*
X76565880Y-95585642D01*
X76535642Y-95555404D01*
X76475166Y-95525166D01*
X76354214Y-95525166D01*
X76293738Y-95555404D01*
X76263500Y-95585642D01*
X76233261Y-95646119D01*
X81104619Y-95981761D02*
X81104619Y-95346761D01*
X81527952Y-95346761D02*
X81648904Y-95346761D01*
X81709380Y-95377000D01*
X81769857Y-95437476D01*
X81800095Y-95558428D01*
X81800095Y-95770095D01*
X81769857Y-95891047D01*
X81709380Y-95951523D01*
X81648904Y-95981761D01*
X81527952Y-95981761D01*
X81467476Y-95951523D01*
X81407000Y-95891047D01*
X81376761Y-95770095D01*
X81376761Y-95558428D01*
X81407000Y-95437476D01*
X81467476Y-95377000D01*
X81527952Y-95346761D01*
X82011761Y-95346761D02*
X82404857Y-95346761D01*
X82193190Y-95588666D01*
X82283904Y-95588666D01*
X82344380Y-95618904D01*
X82374619Y-95649142D01*
X82404857Y-95709619D01*
X82404857Y-95860809D01*
X82374619Y-95921285D01*
X82344380Y-95951523D01*
X82283904Y-95981761D01*
X82102476Y-95981761D01*
X82042000Y-95951523D01*
X82011761Y-95921285D01*
X82979380Y-95346761D02*
X82677000Y-95346761D01*
X82646761Y-95649142D01*
X82677000Y-95618904D01*
X82737476Y-95588666D01*
X82888666Y-95588666D01*
X82949142Y-95618904D01*
X82979380Y-95649142D01*
X83009619Y-95709619D01*
X83009619Y-95860809D01*
X82979380Y-95921285D01*
X82949142Y-95951523D01*
X82888666Y-95981761D01*
X82737476Y-95981761D01*
X82677000Y-95951523D01*
X82646761Y-95921285D01*
X74754619Y-103665261D02*
X74754619Y-103030261D01*
X75177952Y-103030261D02*
X75298904Y-103030261D01*
X75359380Y-103060500D01*
X75419857Y-103120976D01*
X75450095Y-103241928D01*
X75450095Y-103453595D01*
X75419857Y-103574547D01*
X75359380Y-103635023D01*
X75298904Y-103665261D01*
X75177952Y-103665261D01*
X75117476Y-103635023D01*
X75057000Y-103574547D01*
X75026761Y-103453595D01*
X75026761Y-103241928D01*
X75057000Y-103120976D01*
X75117476Y-103060500D01*
X75177952Y-103030261D01*
X76054857Y-103665261D02*
X75692000Y-103665261D01*
X75873428Y-103665261D02*
X75873428Y-103030261D01*
X75812952Y-103120976D01*
X75752476Y-103181452D01*
X75692000Y-103211690D01*
X76266523Y-103030261D02*
X76689857Y-103030261D01*
X76417714Y-103665261D01*
X74691119Y-98458261D02*
X74691119Y-97823261D01*
X75114452Y-97823261D02*
X75235404Y-97823261D01*
X75295880Y-97853500D01*
X75356357Y-97913976D01*
X75386595Y-98034928D01*
X75386595Y-98246595D01*
X75356357Y-98367547D01*
X75295880Y-98428023D01*
X75235404Y-98458261D01*
X75114452Y-98458261D01*
X75053976Y-98428023D01*
X74993500Y-98367547D01*
X74963261Y-98246595D01*
X74963261Y-98034928D01*
X74993500Y-97913976D01*
X75053976Y-97853500D01*
X75114452Y-97823261D01*
X75598261Y-97823261D02*
X75991357Y-97823261D01*
X75779690Y-98065166D01*
X75870404Y-98065166D01*
X75930880Y-98095404D01*
X75961119Y-98125642D01*
X75991357Y-98186119D01*
X75991357Y-98337309D01*
X75961119Y-98397785D01*
X75930880Y-98428023D01*
X75870404Y-98458261D01*
X75688976Y-98458261D01*
X75628500Y-98428023D01*
X75598261Y-98397785D01*
X76535642Y-98034928D02*
X76535642Y-98458261D01*
X76384452Y-97793023D02*
X76233261Y-98246595D01*
X76626357Y-98246595D01*
X74881619Y-101061761D02*
X74881619Y-100426761D01*
X75304952Y-100426761D02*
X75425904Y-100426761D01*
X75486380Y-100457000D01*
X75546857Y-100517476D01*
X75577095Y-100638428D01*
X75577095Y-100850095D01*
X75546857Y-100971047D01*
X75486380Y-101031523D01*
X75425904Y-101061761D01*
X75304952Y-101061761D01*
X75244476Y-101031523D01*
X75184000Y-100971047D01*
X75153761Y-100850095D01*
X75153761Y-100638428D01*
X75184000Y-100517476D01*
X75244476Y-100457000D01*
X75304952Y-100426761D01*
X76181857Y-101061761D02*
X75819000Y-101061761D01*
X76000428Y-101061761D02*
X76000428Y-100426761D01*
X75939952Y-100517476D01*
X75879476Y-100577952D01*
X75819000Y-100608190D01*
X76756380Y-100426761D02*
X76454000Y-100426761D01*
X76423761Y-100729142D01*
X76454000Y-100698904D01*
X76514476Y-100668666D01*
X76665666Y-100668666D01*
X76726142Y-100698904D01*
X76756380Y-100729142D01*
X76786619Y-100789619D01*
X76786619Y-100940809D01*
X76756380Y-101001285D01*
X76726142Y-101031523D01*
X76665666Y-101061761D01*
X76514476Y-101061761D01*
X76454000Y-101031523D01*
X76423761Y-101001285D01*
X74729219Y-106205261D02*
X74729219Y-105570261D01*
X75152552Y-105570261D02*
X75273504Y-105570261D01*
X75333980Y-105600500D01*
X75394457Y-105660976D01*
X75424695Y-105781928D01*
X75424695Y-105993595D01*
X75394457Y-106114547D01*
X75333980Y-106175023D01*
X75273504Y-106205261D01*
X75152552Y-106205261D01*
X75092076Y-106175023D01*
X75031600Y-106114547D01*
X75001361Y-105993595D01*
X75001361Y-105781928D01*
X75031600Y-105660976D01*
X75092076Y-105600500D01*
X75152552Y-105570261D01*
X76029457Y-106205261D02*
X75666600Y-106205261D01*
X75848028Y-106205261D02*
X75848028Y-105570261D01*
X75787552Y-105660976D01*
X75727076Y-105721452D01*
X75666600Y-105751690D01*
X76573742Y-105570261D02*
X76452790Y-105570261D01*
X76392314Y-105600500D01*
X76362076Y-105630738D01*
X76301600Y-105721452D01*
X76271361Y-105842404D01*
X76271361Y-106084309D01*
X76301600Y-106144785D01*
X76331838Y-106175023D01*
X76392314Y-106205261D01*
X76513266Y-106205261D01*
X76573742Y-106175023D01*
X76603980Y-106144785D01*
X76634219Y-106084309D01*
X76634219Y-105933119D01*
X76603980Y-105872642D01*
X76573742Y-105842404D01*
X76513266Y-105812166D01*
X76392314Y-105812166D01*
X76331838Y-105842404D01*
X76301600Y-105872642D01*
X76271361Y-105933119D01*
X81104619Y-98521761D02*
X81104619Y-97886761D01*
X81527952Y-97886761D02*
X81648904Y-97886761D01*
X81709380Y-97917000D01*
X81769857Y-97977476D01*
X81800095Y-98098428D01*
X81800095Y-98310095D01*
X81769857Y-98431047D01*
X81709380Y-98491523D01*
X81648904Y-98521761D01*
X81527952Y-98521761D01*
X81467476Y-98491523D01*
X81407000Y-98431047D01*
X81376761Y-98310095D01*
X81376761Y-98098428D01*
X81407000Y-97977476D01*
X81467476Y-97917000D01*
X81527952Y-97886761D01*
X82011761Y-97886761D02*
X82404857Y-97886761D01*
X82193190Y-98128666D01*
X82283904Y-98128666D01*
X82344380Y-98158904D01*
X82374619Y-98189142D01*
X82404857Y-98249619D01*
X82404857Y-98400809D01*
X82374619Y-98461285D01*
X82344380Y-98491523D01*
X82283904Y-98521761D01*
X82102476Y-98521761D01*
X82042000Y-98491523D01*
X82011761Y-98461285D01*
X82707238Y-98521761D02*
X82828190Y-98521761D01*
X82888666Y-98491523D01*
X82918904Y-98461285D01*
X82979380Y-98370571D01*
X83009619Y-98249619D01*
X83009619Y-98007714D01*
X82979380Y-97947238D01*
X82949142Y-97917000D01*
X82888666Y-97886761D01*
X82767714Y-97886761D01*
X82707238Y-97917000D01*
X82677000Y-97947238D01*
X82646761Y-98007714D01*
X82646761Y-98158904D01*
X82677000Y-98219380D01*
X82707238Y-98249619D01*
X82767714Y-98279857D01*
X82888666Y-98279857D01*
X82949142Y-98249619D01*
X82979380Y-98219380D01*
X83009619Y-98158904D01*
X81104619Y-101125261D02*
X81104619Y-100490261D01*
X81527952Y-100490261D02*
X81648904Y-100490261D01*
X81709380Y-100520500D01*
X81769857Y-100580976D01*
X81800095Y-100701928D01*
X81800095Y-100913595D01*
X81769857Y-101034547D01*
X81709380Y-101095023D01*
X81648904Y-101125261D01*
X81527952Y-101125261D01*
X81467476Y-101095023D01*
X81407000Y-101034547D01*
X81376761Y-100913595D01*
X81376761Y-100701928D01*
X81407000Y-100580976D01*
X81467476Y-100520500D01*
X81527952Y-100490261D01*
X82011761Y-100490261D02*
X82404857Y-100490261D01*
X82193190Y-100732166D01*
X82283904Y-100732166D01*
X82344380Y-100762404D01*
X82374619Y-100792642D01*
X82404857Y-100853119D01*
X82404857Y-101004309D01*
X82374619Y-101064785D01*
X82344380Y-101095023D01*
X82283904Y-101125261D01*
X82102476Y-101125261D01*
X82042000Y-101095023D01*
X82011761Y-101064785D01*
X82949142Y-100490261D02*
X82828190Y-100490261D01*
X82767714Y-100520500D01*
X82737476Y-100550738D01*
X82677000Y-100641452D01*
X82646761Y-100762404D01*
X82646761Y-101004309D01*
X82677000Y-101064785D01*
X82707238Y-101095023D01*
X82767714Y-101125261D01*
X82888666Y-101125261D01*
X82949142Y-101095023D01*
X82979380Y-101064785D01*
X83009619Y-101004309D01*
X83009619Y-100853119D01*
X82979380Y-100792642D01*
X82949142Y-100762404D01*
X82888666Y-100732166D01*
X82767714Y-100732166D01*
X82707238Y-100762404D01*
X82677000Y-100792642D01*
X82646761Y-100853119D01*
X81041119Y-103601761D02*
X81041119Y-102966761D01*
X81464452Y-102966761D02*
X81585404Y-102966761D01*
X81645880Y-102997000D01*
X81706357Y-103057476D01*
X81736595Y-103178428D01*
X81736595Y-103390095D01*
X81706357Y-103511047D01*
X81645880Y-103571523D01*
X81585404Y-103601761D01*
X81464452Y-103601761D01*
X81403976Y-103571523D01*
X81343500Y-103511047D01*
X81313261Y-103390095D01*
X81313261Y-103178428D01*
X81343500Y-103057476D01*
X81403976Y-102997000D01*
X81464452Y-102966761D01*
X81978500Y-103027238D02*
X82008738Y-102997000D01*
X82069214Y-102966761D01*
X82220404Y-102966761D01*
X82280880Y-102997000D01*
X82311119Y-103027238D01*
X82341357Y-103087714D01*
X82341357Y-103148190D01*
X82311119Y-103238904D01*
X81948261Y-103601761D01*
X82341357Y-103601761D01*
X82946119Y-103601761D02*
X82583261Y-103601761D01*
X82764690Y-103601761D02*
X82764690Y-102966761D01*
X82704214Y-103057476D01*
X82643738Y-103117952D01*
X82583261Y-103148190D01*
X81041119Y-106205261D02*
X81041119Y-105570261D01*
X81464452Y-105570261D02*
X81585404Y-105570261D01*
X81645880Y-105600500D01*
X81706357Y-105660976D01*
X81736595Y-105781928D01*
X81736595Y-105993595D01*
X81706357Y-106114547D01*
X81645880Y-106175023D01*
X81585404Y-106205261D01*
X81464452Y-106205261D01*
X81403976Y-106175023D01*
X81343500Y-106114547D01*
X81313261Y-105993595D01*
X81313261Y-105781928D01*
X81343500Y-105660976D01*
X81403976Y-105600500D01*
X81464452Y-105570261D01*
X82129690Y-105570261D02*
X82190166Y-105570261D01*
X82250642Y-105600500D01*
X82280880Y-105630738D01*
X82311119Y-105691214D01*
X82341357Y-105812166D01*
X82341357Y-105963357D01*
X82311119Y-106084309D01*
X82280880Y-106144785D01*
X82250642Y-106175023D01*
X82190166Y-106205261D01*
X82129690Y-106205261D01*
X82069214Y-106175023D01*
X82038976Y-106144785D01*
X82008738Y-106084309D01*
X81978500Y-105963357D01*
X81978500Y-105812166D01*
X82008738Y-105691214D01*
X82038976Y-105630738D01*
X82069214Y-105600500D01*
X82129690Y-105570261D01*
X82885642Y-105781928D02*
X82885642Y-106205261D01*
X82734452Y-105540023D02*
X82583261Y-105993595D01*
X82976357Y-105993595D01*
X71866880Y-93403661D02*
X71866880Y-92768661D01*
X72018071Y-92768661D01*
X72108785Y-92798900D01*
X72169261Y-92859376D01*
X72199500Y-92919852D01*
X72229738Y-93040804D01*
X72229738Y-93131519D01*
X72199500Y-93252471D01*
X72169261Y-93312947D01*
X72108785Y-93373423D01*
X72018071Y-93403661D01*
X71866880Y-93403661D01*
X72501880Y-93403661D02*
X72501880Y-92768661D01*
X72925214Y-92768661D02*
X73046166Y-92768661D01*
X73106642Y-92798900D01*
X73167119Y-92859376D01*
X73197357Y-92980328D01*
X73197357Y-93191995D01*
X73167119Y-93312947D01*
X73106642Y-93373423D01*
X73046166Y-93403661D01*
X72925214Y-93403661D01*
X72864738Y-93373423D01*
X72804261Y-93312947D01*
X72774023Y-93191995D01*
X72774023Y-92980328D01*
X72804261Y-92859376D01*
X72864738Y-92798900D01*
X72925214Y-92768661D01*
X78984928Y-107983261D02*
X78984928Y-107348261D01*
X79136119Y-107348261D01*
X79226833Y-107378500D01*
X79287309Y-107438976D01*
X79317547Y-107499452D01*
X79347785Y-107620404D01*
X79347785Y-107711119D01*
X79317547Y-107832071D01*
X79287309Y-107892547D01*
X79226833Y-107953023D01*
X79136119Y-107983261D01*
X78984928Y-107983261D01*
X79559452Y-107348261D02*
X79952547Y-107348261D01*
X79740880Y-107590166D01*
X79831595Y-107590166D01*
X79892071Y-107620404D01*
X79922309Y-107650642D01*
X79952547Y-107711119D01*
X79952547Y-107862309D01*
X79922309Y-107922785D01*
X79892071Y-107953023D01*
X79831595Y-107983261D01*
X79650166Y-107983261D01*
X79589690Y-107953023D01*
X79559452Y-107922785D01*
X80496833Y-107348261D02*
X80375880Y-107348261D01*
X80315404Y-107378500D01*
X80285166Y-107408738D01*
X80224690Y-107499452D01*
X80194452Y-107620404D01*
X80194452Y-107862309D01*
X80224690Y-107922785D01*
X80254928Y-107953023D01*
X80315404Y-107983261D01*
X80436357Y-107983261D01*
X80496833Y-107953023D01*
X80527071Y-107922785D01*
X80557309Y-107862309D01*
X80557309Y-107711119D01*
X80527071Y-107650642D01*
X80496833Y-107620404D01*
X80436357Y-107590166D01*
X80315404Y-107590166D01*
X80254928Y-107620404D01*
X80224690Y-107650642D01*
X80194452Y-107711119D01*
X81905928Y-108491261D02*
X81905928Y-107856261D01*
X82057119Y-107856261D01*
X82147833Y-107886500D01*
X82208309Y-107946976D01*
X82238547Y-108007452D01*
X82268785Y-108128404D01*
X82268785Y-108219119D01*
X82238547Y-108340071D01*
X82208309Y-108400547D01*
X82147833Y-108461023D01*
X82057119Y-108491261D01*
X81905928Y-108491261D01*
X82480452Y-107856261D02*
X82873547Y-107856261D01*
X82661880Y-108098166D01*
X82752595Y-108098166D01*
X82813071Y-108128404D01*
X82843309Y-108158642D01*
X82873547Y-108219119D01*
X82873547Y-108370309D01*
X82843309Y-108430785D01*
X82813071Y-108461023D01*
X82752595Y-108491261D01*
X82571166Y-108491261D01*
X82510690Y-108461023D01*
X82480452Y-108430785D01*
X83448071Y-107856261D02*
X83145690Y-107856261D01*
X83115452Y-108158642D01*
X83145690Y-108128404D01*
X83206166Y-108098166D01*
X83357357Y-108098166D01*
X83417833Y-108128404D01*
X83448071Y-108158642D01*
X83478309Y-108219119D01*
X83478309Y-108370309D01*
X83448071Y-108430785D01*
X83417833Y-108461023D01*
X83357357Y-108491261D01*
X83206166Y-108491261D01*
X83145690Y-108461023D01*
X83115452Y-108430785D01*
X76952928Y-107983261D02*
X76952928Y-107348261D01*
X77104119Y-107348261D01*
X77194833Y-107378500D01*
X77255309Y-107438976D01*
X77285547Y-107499452D01*
X77315785Y-107620404D01*
X77315785Y-107711119D01*
X77285547Y-107832071D01*
X77255309Y-107892547D01*
X77194833Y-107953023D01*
X77104119Y-107983261D01*
X76952928Y-107983261D01*
X77527452Y-107348261D02*
X77920547Y-107348261D01*
X77708880Y-107590166D01*
X77799595Y-107590166D01*
X77860071Y-107620404D01*
X77890309Y-107650642D01*
X77920547Y-107711119D01*
X77920547Y-107862309D01*
X77890309Y-107922785D01*
X77860071Y-107953023D01*
X77799595Y-107983261D01*
X77618166Y-107983261D01*
X77557690Y-107953023D01*
X77527452Y-107922785D01*
X78132214Y-107348261D02*
X78555547Y-107348261D01*
X78283404Y-107983261D01*
X69493190Y-107378500D02*
X69432714Y-107348261D01*
X69342000Y-107348261D01*
X69251285Y-107378500D01*
X69190809Y-107438976D01*
X69160571Y-107499452D01*
X69130333Y-107620404D01*
X69130333Y-107711119D01*
X69160571Y-107832071D01*
X69190809Y-107892547D01*
X69251285Y-107953023D01*
X69342000Y-107983261D01*
X69402476Y-107983261D01*
X69493190Y-107953023D01*
X69523428Y-107922785D01*
X69523428Y-107711119D01*
X69402476Y-107711119D01*
X69795571Y-107983261D02*
X69795571Y-107348261D01*
X70158428Y-107983261D01*
X70158428Y-107348261D01*
X70460809Y-107983261D02*
X70460809Y-107348261D01*
X70612000Y-107348261D01*
X70702714Y-107378500D01*
X70763190Y-107438976D01*
X70793428Y-107499452D01*
X70823666Y-107620404D01*
X70823666Y-107711119D01*
X70793428Y-107832071D01*
X70763190Y-107892547D01*
X70702714Y-107953023D01*
X70612000Y-107983261D01*
X70460809Y-107983261D01*
X71745928Y-107983261D02*
X71745928Y-107348261D01*
X71897119Y-107348261D01*
X71987833Y-107378500D01*
X72048309Y-107438976D01*
X72078547Y-107499452D01*
X72108785Y-107620404D01*
X72108785Y-107711119D01*
X72078547Y-107832071D01*
X72048309Y-107892547D01*
X71987833Y-107953023D01*
X71897119Y-107983261D01*
X71745928Y-107983261D01*
X72653071Y-107559928D02*
X72653071Y-107983261D01*
X72501880Y-107318023D02*
X72350690Y-107771595D01*
X72743785Y-107771595D01*
X72955452Y-107408738D02*
X72985690Y-107378500D01*
X73046166Y-107348261D01*
X73197357Y-107348261D01*
X73257833Y-107378500D01*
X73288071Y-107408738D01*
X73318309Y-107469214D01*
X73318309Y-107529690D01*
X73288071Y-107620404D01*
X72925214Y-107983261D01*
X73318309Y-107983261D01*
X64086619Y-107348261D02*
X64479714Y-107348261D01*
X64268047Y-107590166D01*
X64358761Y-107590166D01*
X64419238Y-107620404D01*
X64449476Y-107650642D01*
X64479714Y-107711119D01*
X64479714Y-107862309D01*
X64449476Y-107922785D01*
X64419238Y-107953023D01*
X64358761Y-107983261D01*
X64177333Y-107983261D01*
X64116857Y-107953023D01*
X64086619Y-107922785D01*
X64751857Y-107922785D02*
X64782095Y-107953023D01*
X64751857Y-107983261D01*
X64721619Y-107953023D01*
X64751857Y-107922785D01*
X64751857Y-107983261D01*
X64993761Y-107348261D02*
X65386857Y-107348261D01*
X65175190Y-107590166D01*
X65265904Y-107590166D01*
X65326380Y-107620404D01*
X65356619Y-107650642D01*
X65386857Y-107711119D01*
X65386857Y-107862309D01*
X65356619Y-107922785D01*
X65326380Y-107953023D01*
X65265904Y-107983261D01*
X65084476Y-107983261D01*
X65024000Y-107953023D01*
X64993761Y-107922785D01*
X65568285Y-107348261D02*
X65779952Y-107983261D01*
X65991619Y-107348261D01*
X61649428Y-107983261D02*
X61649428Y-107348261D01*
X61800619Y-107348261D01*
X61891333Y-107378500D01*
X61951809Y-107438976D01*
X61982047Y-107499452D01*
X62012285Y-107620404D01*
X62012285Y-107711119D01*
X61982047Y-107832071D01*
X61951809Y-107892547D01*
X61891333Y-107953023D01*
X61800619Y-107983261D01*
X61649428Y-107983261D01*
X62556571Y-107559928D02*
X62556571Y-107983261D01*
X62405380Y-107318023D02*
X62254190Y-107771595D01*
X62647285Y-107771595D01*
X63161333Y-107559928D02*
X63161333Y-107983261D01*
X63010142Y-107318023D02*
X62858952Y-107771595D01*
X63252047Y-107771595D01*
X81905928Y-91092261D02*
X81905928Y-90457261D01*
X82057119Y-90457261D01*
X82147833Y-90487500D01*
X82208309Y-90547976D01*
X82238547Y-90608452D01*
X82268785Y-90729404D01*
X82268785Y-90820119D01*
X82238547Y-90941071D01*
X82208309Y-91001547D01*
X82147833Y-91062023D01*
X82057119Y-91092261D01*
X81905928Y-91092261D01*
X82813071Y-90457261D02*
X82692119Y-90457261D01*
X82631642Y-90487500D01*
X82601404Y-90517738D01*
X82540928Y-90608452D01*
X82510690Y-90729404D01*
X82510690Y-90971309D01*
X82540928Y-91031785D01*
X82571166Y-91062023D01*
X82631642Y-91092261D01*
X82752595Y-91092261D01*
X82813071Y-91062023D01*
X82843309Y-91031785D01*
X82873547Y-90971309D01*
X82873547Y-90820119D01*
X82843309Y-90759642D01*
X82813071Y-90729404D01*
X82752595Y-90699166D01*
X82631642Y-90699166D01*
X82571166Y-90729404D01*
X82540928Y-90759642D01*
X82510690Y-90820119D01*
X83266642Y-90457261D02*
X83327119Y-90457261D01*
X83387595Y-90487500D01*
X83417833Y-90517738D01*
X83448071Y-90578214D01*
X83478309Y-90699166D01*
X83478309Y-90850357D01*
X83448071Y-90971309D01*
X83417833Y-91031785D01*
X83387595Y-91062023D01*
X83327119Y-91092261D01*
X83266642Y-91092261D01*
X83206166Y-91062023D01*
X83175928Y-91031785D01*
X83145690Y-90971309D01*
X83115452Y-90850357D01*
X83115452Y-90699166D01*
X83145690Y-90578214D01*
X83175928Y-90517738D01*
X83206166Y-90487500D01*
X83266642Y-90457261D01*
X79365928Y-91092261D02*
X79365928Y-90457261D01*
X79517119Y-90457261D01*
X79607833Y-90487500D01*
X79668309Y-90547976D01*
X79698547Y-90608452D01*
X79728785Y-90729404D01*
X79728785Y-90820119D01*
X79698547Y-90941071D01*
X79668309Y-91001547D01*
X79607833Y-91062023D01*
X79517119Y-91092261D01*
X79365928Y-91092261D01*
X80303309Y-90457261D02*
X80000928Y-90457261D01*
X79970690Y-90759642D01*
X80000928Y-90729404D01*
X80061404Y-90699166D01*
X80212595Y-90699166D01*
X80273071Y-90729404D01*
X80303309Y-90759642D01*
X80333547Y-90820119D01*
X80333547Y-90971309D01*
X80303309Y-91031785D01*
X80273071Y-91062023D01*
X80212595Y-91092261D01*
X80061404Y-91092261D01*
X80000928Y-91062023D01*
X79970690Y-91031785D01*
X80635928Y-91092261D02*
X80756880Y-91092261D01*
X80817357Y-91062023D01*
X80847595Y-91031785D01*
X80908071Y-90941071D01*
X80938309Y-90820119D01*
X80938309Y-90578214D01*
X80908071Y-90517738D01*
X80877833Y-90487500D01*
X80817357Y-90457261D01*
X80696404Y-90457261D01*
X80635928Y-90487500D01*
X80605690Y-90517738D01*
X80575452Y-90578214D01*
X80575452Y-90729404D01*
X80605690Y-90789880D01*
X80635928Y-90820119D01*
X80696404Y-90850357D01*
X80817357Y-90850357D01*
X80877833Y-90820119D01*
X80908071Y-90789880D01*
X80938309Y-90729404D01*
X76538666Y-91092261D02*
X76538666Y-90457261D01*
X76689857Y-90457261D01*
X76780571Y-90487500D01*
X76841047Y-90547976D01*
X76871285Y-90608452D01*
X76901523Y-90729404D01*
X76901523Y-90820119D01*
X76871285Y-90941071D01*
X76841047Y-91001547D01*
X76780571Y-91062023D01*
X76689857Y-91092261D01*
X76538666Y-91092261D01*
X77143428Y-90910833D02*
X77445809Y-90910833D01*
X77082952Y-91092261D02*
X77294619Y-90457261D01*
X77506285Y-91092261D01*
X78080809Y-91031785D02*
X78050571Y-91062023D01*
X77959857Y-91092261D01*
X77899380Y-91092261D01*
X77808666Y-91062023D01*
X77748190Y-91001547D01*
X77717952Y-90941071D01*
X77687714Y-90820119D01*
X77687714Y-90729404D01*
X77717952Y-90608452D01*
X77748190Y-90547976D01*
X77808666Y-90487500D01*
X77899380Y-90457261D01*
X77959857Y-90457261D01*
X78050571Y-90487500D01*
X78080809Y-90517738D01*
X78685571Y-91092261D02*
X78322714Y-91092261D01*
X78504142Y-91092261D02*
X78504142Y-90457261D01*
X78443666Y-90547976D01*
X78383190Y-90608452D01*
X78322714Y-90638690D01*
X74230290Y-90457261D02*
X74230290Y-90971309D01*
X74260528Y-91031785D01*
X74290766Y-91062023D01*
X74351242Y-91092261D01*
X74472195Y-91092261D01*
X74532671Y-91062023D01*
X74562909Y-91031785D01*
X74593147Y-90971309D01*
X74593147Y-90457261D01*
X74865290Y-91062023D02*
X74956004Y-91092261D01*
X75107195Y-91092261D01*
X75167671Y-91062023D01*
X75197909Y-91031785D01*
X75228147Y-90971309D01*
X75228147Y-90910833D01*
X75197909Y-90850357D01*
X75167671Y-90820119D01*
X75107195Y-90789880D01*
X74986242Y-90759642D01*
X74925766Y-90729404D01*
X74895528Y-90699166D01*
X74865290Y-90638690D01*
X74865290Y-90578214D01*
X74895528Y-90517738D01*
X74925766Y-90487500D01*
X74986242Y-90457261D01*
X75137433Y-90457261D01*
X75228147Y-90487500D01*
X75711957Y-90759642D02*
X75802671Y-90789880D01*
X75832909Y-90820119D01*
X75863147Y-90880595D01*
X75863147Y-90971309D01*
X75832909Y-91031785D01*
X75802671Y-91062023D01*
X75742195Y-91092261D01*
X75500290Y-91092261D01*
X75500290Y-90457261D01*
X75711957Y-90457261D01*
X75772433Y-90487500D01*
X75802671Y-90517738D01*
X75832909Y-90578214D01*
X75832909Y-90638690D01*
X75802671Y-90699166D01*
X75772433Y-90729404D01*
X75711957Y-90759642D01*
X75500290Y-90759642D01*
X71720528Y-90965261D02*
X71720528Y-90330261D01*
X71871719Y-90330261D01*
X71962433Y-90360500D01*
X72022909Y-90420976D01*
X72053147Y-90481452D01*
X72083385Y-90602404D01*
X72083385Y-90693119D01*
X72053147Y-90814071D01*
X72022909Y-90874547D01*
X71962433Y-90935023D01*
X71871719Y-90965261D01*
X71720528Y-90965261D01*
X72627671Y-90541928D02*
X72627671Y-90965261D01*
X72476480Y-90300023D02*
X72325290Y-90753595D01*
X72718385Y-90753595D01*
X72990528Y-90965261D02*
X73111480Y-90965261D01*
X73171957Y-90935023D01*
X73202195Y-90904785D01*
X73262671Y-90814071D01*
X73292909Y-90693119D01*
X73292909Y-90451214D01*
X73262671Y-90390738D01*
X73232433Y-90360500D01*
X73171957Y-90330261D01*
X73051004Y-90330261D01*
X72990528Y-90360500D01*
X72960290Y-90390738D01*
X72930052Y-90451214D01*
X72930052Y-90602404D01*
X72960290Y-90662880D01*
X72990528Y-90693119D01*
X73051004Y-90723357D01*
X73171957Y-90723357D01*
X73232433Y-90693119D01*
X73262671Y-90662880D01*
X73292909Y-90602404D01*
X69060785Y-90330261D02*
X69272452Y-90965261D01*
X69484119Y-90330261D01*
X69907452Y-90632642D02*
X69998166Y-90662880D01*
X70028404Y-90693119D01*
X70058642Y-90753595D01*
X70058642Y-90844309D01*
X70028404Y-90904785D01*
X69998166Y-90935023D01*
X69937690Y-90965261D01*
X69695785Y-90965261D01*
X69695785Y-90330261D01*
X69907452Y-90330261D01*
X69967928Y-90360500D01*
X69998166Y-90390738D01*
X70028404Y-90451214D01*
X70028404Y-90511690D01*
X69998166Y-90572166D01*
X69967928Y-90602404D01*
X69907452Y-90632642D01*
X69695785Y-90632642D01*
X70300547Y-90783833D02*
X70602928Y-90783833D01*
X70240071Y-90965261D02*
X70451738Y-90330261D01*
X70663404Y-90965261D01*
X70784357Y-90330261D02*
X71147214Y-90330261D01*
X70965785Y-90965261D02*
X70965785Y-90330261D01*
X69649823Y-93317785D02*
X69619585Y-93348023D01*
X69528871Y-93378261D01*
X69468395Y-93378261D01*
X69377680Y-93348023D01*
X69317204Y-93287547D01*
X69286966Y-93227071D01*
X69256728Y-93106119D01*
X69256728Y-93015404D01*
X69286966Y-92894452D01*
X69317204Y-92833976D01*
X69377680Y-92773500D01*
X69468395Y-92743261D01*
X69528871Y-92743261D01*
X69619585Y-92773500D01*
X69649823Y-92803738D01*
X70224347Y-93378261D02*
X69921966Y-93378261D01*
X69921966Y-92743261D01*
X70436014Y-93378261D02*
X70436014Y-92743261D01*
X70798871Y-93378261D02*
X70526728Y-93015404D01*
X70798871Y-92743261D02*
X70436014Y-93106119D01*
D16*
X109220013Y-90136440D02*
X109220013Y-91690000D01*
X55852060Y-90136440D02*
X55852060Y-96296067D01*
X106680013Y-87596440D02*
G75*
G02X109220013Y-90136440I0J-2540000D01*
G01*
X55852060Y-102438136D02*
X55852060Y-108498640D01*
X106680013Y-87596440D02*
X58392060Y-87596440D01*
X58392060Y-111038640D02*
X106652060Y-111038640D01*
X55852060Y-90136440D02*
G75*
G02X58392060Y-87596440I2540000J0D01*
G01*
X56361488Y-96928834D02*
X56361488Y-101805369D01*
X58392060Y-111038640D02*
G75*
G02X55852060Y-108498640I0J2540000D01*
G01*
D17*
X66940000Y-99210000D02*
X68640000Y-99210000D01*
X68640000Y-99210000D02*
X68640000Y-98110000D01*
X68640000Y-98110000D02*
X66940000Y-98110000D01*
D15*
G36*
X65675000Y-106603800D02*
G01*
X65675000Y-106222800D01*
X65294000Y-106222800D01*
X64913000Y-106603800D01*
X65675000Y-106603800D01*
G37*
D12*
X65670000Y-106598800D02*
X65670000Y-106298800D01*
X61870000Y-106598800D02*
X65670000Y-106598800D01*
X61870000Y-106298800D02*
X61870000Y-106598800D01*
X65670000Y-102798800D02*
X65670000Y-103098800D01*
X61870000Y-102798800D02*
X65670000Y-102798800D01*
X61870000Y-103098800D02*
X61870000Y-102798800D01*
D17*
X67059200Y-87641200D02*
X62379200Y-87641200D01*
X60659200Y-95461200D02*
X61679200Y-95461200D01*
X60659200Y-91211200D02*
X60659200Y-95461200D01*
X68779200Y-95461200D02*
X67759200Y-95461200D01*
X68779200Y-91211200D02*
X68779200Y-95461200D01*
X70627000Y-91785440D02*
G75*
G03X70627000Y-91785440I-650000J0D01*
G01*
X73167000Y-91785440D02*
G75*
G03X73167000Y-91785440I-650000J0D01*
G01*
D12*
X55960920Y-97005440D02*
X55960920Y-101705440D01*
X56360920Y-102205440D02*
G75*
G02X55960920Y-101805440I0J400000D01*
G01*
X56360920Y-102505440D02*
X56360920Y-102205440D01*
X56060920Y-102505440D02*
X56360920Y-102505440D01*
X56360920Y-96605440D02*
G75*
G03X55960920Y-97005440I0J-400000D01*
G01*
X56360920Y-96305440D02*
X56360920Y-96605440D01*
X56060920Y-96305440D02*
X56360920Y-96305440D01*
X56710920Y-96285440D02*
X56710920Y-102435440D01*
D17*
X60514600Y-93020800D02*
X58229600Y-93020800D01*
X60514600Y-94490800D02*
X60514600Y-93020800D01*
X58229600Y-94490800D02*
X60514600Y-94490800D01*
D18*
X65725400Y-97650000D02*
X65725400Y-101850000D01*
X62674600Y-101850000D02*
X62674600Y-97650000D01*
D15*
X74993500Y-107759500D02*
G75*
G03X74993500Y-107759500I0J0D01*
G01*
X76897090Y-107124500D02*
X80708500Y-107124500D01*
X76897090Y-91884500D02*
X80708500Y-91884500D01*
D18*
X71594000Y-97047000D02*
X71594000Y-96247000D01*
X71844000Y-94997000D02*
X73444000Y-94997000D01*
X71844000Y-98297000D02*
X73444000Y-98297000D01*
X66194800Y-101769800D02*
X66194800Y-100457000D01*
X66194800Y-100457000D02*
X67203600Y-100457000D01*
X69339600Y-100457000D02*
X69339600Y-101769800D01*
X68330800Y-100457000D02*
X69339600Y-100457000D01*
X68139600Y-101777800D02*
X67380800Y-101777800D01*
X72301000Y-100394500D02*
X70701000Y-100394500D01*
X72301000Y-103694500D02*
X70701000Y-103694500D01*
X72551000Y-101644500D02*
X72551000Y-102444500D01*
X60420000Y-108204000D02*
G75*
G03X60420000Y-108204000I-2000000J0D01*
G01*
X60420000Y-90487500D02*
G75*
G03X60420000Y-90487500I-2000000J0D01*
G01*
D12*
X73693261Y-103928333D02*
X73390880Y-104140000D01*
X73693261Y-104291190D02*
X73058261Y-104291190D01*
X73058261Y-104049285D01*
X73088500Y-103988809D01*
X73118738Y-103958571D01*
X73179214Y-103928333D01*
X73269928Y-103928333D01*
X73330404Y-103958571D01*
X73360642Y-103988809D01*
X73390880Y-104049285D01*
X73390880Y-104291190D01*
X73058261Y-103353809D02*
X73058261Y-103656190D01*
X73360642Y-103686428D01*
X73330404Y-103656190D01*
X73300166Y-103595714D01*
X73300166Y-103444523D01*
X73330404Y-103384047D01*
X73360642Y-103353809D01*
X73421119Y-103323571D01*
X73572309Y-103323571D01*
X73632785Y-103353809D01*
X73663023Y-103384047D01*
X73693261Y-103444523D01*
X73693261Y-103595714D01*
X73663023Y-103656190D01*
X73632785Y-103686428D01*
X71191966Y-105440721D02*
X70980300Y-105138340D01*
X70829109Y-105440721D02*
X70829109Y-104805721D01*
X71071014Y-104805721D01*
X71131490Y-104835960D01*
X71161728Y-104866198D01*
X71191966Y-104926674D01*
X71191966Y-105017388D01*
X71161728Y-105077864D01*
X71131490Y-105108102D01*
X71071014Y-105138340D01*
X70829109Y-105138340D01*
X71403633Y-104805721D02*
X71826966Y-104805721D01*
X71554823Y-105440721D01*
X73968186Y-100772201D02*
X73756520Y-100469820D01*
X73605329Y-100772201D02*
X73605329Y-100137201D01*
X73847234Y-100137201D01*
X73907710Y-100167440D01*
X73937948Y-100197678D01*
X73968186Y-100258154D01*
X73968186Y-100348868D01*
X73937948Y-100409344D01*
X73907710Y-100439582D01*
X73847234Y-100469820D01*
X73605329Y-100469820D01*
X74512472Y-100137201D02*
X74391520Y-100137201D01*
X74331043Y-100167440D01*
X74300805Y-100197678D01*
X74240329Y-100288392D01*
X74210091Y-100409344D01*
X74210091Y-100651249D01*
X74240329Y-100711725D01*
X74270567Y-100741963D01*
X74331043Y-100772201D01*
X74451996Y-100772201D01*
X74512472Y-100741963D01*
X74542710Y-100711725D01*
X74572948Y-100651249D01*
X74572948Y-100500059D01*
X74542710Y-100439582D01*
X74512472Y-100409344D01*
X74451996Y-100379106D01*
X74331043Y-100379106D01*
X74270567Y-100409344D01*
X74240329Y-100439582D01*
X74210091Y-100500059D01*
X68873309Y-98940861D02*
X68873309Y-98305861D01*
X69024500Y-98305861D01*
X69115214Y-98336100D01*
X69175690Y-98396576D01*
X69205928Y-98457052D01*
X69236166Y-98578004D01*
X69236166Y-98668719D01*
X69205928Y-98789671D01*
X69175690Y-98850147D01*
X69115214Y-98910623D01*
X69024500Y-98940861D01*
X68873309Y-98940861D01*
X69840928Y-98940861D02*
X69478071Y-98940861D01*
X69659500Y-98940861D02*
X69659500Y-98305861D01*
X69599023Y-98396576D01*
X69538547Y-98457052D01*
X69478071Y-98487290D01*
X69868766Y-100261661D02*
X69657100Y-99959280D01*
X69505909Y-100261661D02*
X69505909Y-99626661D01*
X69747814Y-99626661D01*
X69808290Y-99656900D01*
X69838528Y-99687138D01*
X69868766Y-99747614D01*
X69868766Y-99838328D01*
X69838528Y-99898804D01*
X69808290Y-99929042D01*
X69747814Y-99959280D01*
X69505909Y-99959280D01*
X70080433Y-99626661D02*
X70473528Y-99626661D01*
X70261861Y-99868566D01*
X70352576Y-99868566D01*
X70413052Y-99898804D01*
X70443290Y-99929042D01*
X70473528Y-99989519D01*
X70473528Y-100140709D01*
X70443290Y-100201185D01*
X70413052Y-100231423D01*
X70352576Y-100261661D01*
X70171147Y-100261661D01*
X70110671Y-100231423D01*
X70080433Y-100201185D01*
X68436066Y-103393965D02*
X68405828Y-103424203D01*
X68315114Y-103454441D01*
X68254638Y-103454441D01*
X68163923Y-103424203D01*
X68103447Y-103363727D01*
X68073209Y-103303251D01*
X68042971Y-103182299D01*
X68042971Y-103091584D01*
X68073209Y-102970632D01*
X68103447Y-102910156D01*
X68163923Y-102849680D01*
X68254638Y-102819441D01*
X68315114Y-102819441D01*
X68405828Y-102849680D01*
X68436066Y-102879918D01*
X68647733Y-102819441D02*
X69071066Y-102819441D01*
X68798923Y-103454441D01*
X74775785Y-99419833D02*
X74806023Y-99450071D01*
X74836261Y-99540785D01*
X74836261Y-99601261D01*
X74806023Y-99691976D01*
X74745547Y-99752452D01*
X74685071Y-99782690D01*
X74564119Y-99812928D01*
X74473404Y-99812928D01*
X74352452Y-99782690D01*
X74291976Y-99752452D01*
X74231500Y-99691976D01*
X74201261Y-99601261D01*
X74201261Y-99540785D01*
X74231500Y-99450071D01*
X74261738Y-99419833D01*
X74201261Y-98875547D02*
X74201261Y-98996500D01*
X74231500Y-99056976D01*
X74261738Y-99087214D01*
X74352452Y-99147690D01*
X74473404Y-99177928D01*
X74715309Y-99177928D01*
X74775785Y-99147690D01*
X74806023Y-99117452D01*
X74836261Y-99056976D01*
X74836261Y-98936023D01*
X74806023Y-98875547D01*
X74775785Y-98845309D01*
X74715309Y-98815071D01*
X74564119Y-98815071D01*
X74503642Y-98845309D01*
X74473404Y-98875547D01*
X74443166Y-98936023D01*
X74443166Y-99056976D01*
X74473404Y-99117452D01*
X74503642Y-99147690D01*
X74564119Y-99177928D01*
X69744166Y-95730785D02*
X69713928Y-95761023D01*
X69623214Y-95791261D01*
X69562738Y-95791261D01*
X69472023Y-95761023D01*
X69411547Y-95700547D01*
X69381309Y-95640071D01*
X69351071Y-95519119D01*
X69351071Y-95428404D01*
X69381309Y-95307452D01*
X69411547Y-95246976D01*
X69472023Y-95186500D01*
X69562738Y-95156261D01*
X69623214Y-95156261D01*
X69713928Y-95186500D01*
X69744166Y-95216738D01*
X70288452Y-95367928D02*
X70288452Y-95791261D01*
X70137261Y-95126023D02*
X69986071Y-95579595D01*
X70379166Y-95579595D01*
X66850985Y-95990833D02*
X66881223Y-96021071D01*
X66911461Y-96111785D01*
X66911461Y-96172261D01*
X66881223Y-96262976D01*
X66820747Y-96323452D01*
X66760271Y-96353690D01*
X66639319Y-96383928D01*
X66548604Y-96383928D01*
X66427652Y-96353690D01*
X66367176Y-96323452D01*
X66306700Y-96262976D01*
X66276461Y-96172261D01*
X66276461Y-96111785D01*
X66306700Y-96021071D01*
X66336938Y-95990833D01*
X66336938Y-95748928D02*
X66306700Y-95718690D01*
X66276461Y-95658214D01*
X66276461Y-95507023D01*
X66306700Y-95446547D01*
X66336938Y-95416309D01*
X66397414Y-95386071D01*
X66457890Y-95386071D01*
X66548604Y-95416309D01*
X66911461Y-95779166D01*
X66911461Y-95386071D01*
X74104166Y-95077261D02*
X73892500Y-94774880D01*
X73741309Y-95077261D02*
X73741309Y-94442261D01*
X73983214Y-94442261D01*
X74043690Y-94472500D01*
X74073928Y-94502738D01*
X74104166Y-94563214D01*
X74104166Y-94653928D01*
X74073928Y-94714404D01*
X74043690Y-94744642D01*
X73983214Y-94774880D01*
X73741309Y-94774880D01*
X74648452Y-94653928D02*
X74648452Y-95077261D01*
X74497261Y-94412023D02*
X74346071Y-94865595D01*
X74739166Y-94865595D01*
X78455761Y-103399166D02*
X78909333Y-103399166D01*
X79000047Y-103429404D01*
X79060523Y-103489880D01*
X79090761Y-103580595D01*
X79090761Y-103641071D01*
X78455761Y-102794404D02*
X78455761Y-103096785D01*
X78758142Y-103127023D01*
X78727904Y-103096785D01*
X78697666Y-103036309D01*
X78697666Y-102885119D01*
X78727904Y-102824642D01*
X78758142Y-102794404D01*
X78818619Y-102764166D01*
X78969809Y-102764166D01*
X79030285Y-102794404D01*
X79060523Y-102824642D01*
X79090761Y-102885119D01*
X79090761Y-103036309D01*
X79060523Y-103096785D01*
X79030285Y-103127023D01*
X70737185Y-98810233D02*
X70767423Y-98840471D01*
X70797661Y-98931185D01*
X70797661Y-98991661D01*
X70767423Y-99082376D01*
X70706947Y-99142852D01*
X70646471Y-99173090D01*
X70525519Y-99203328D01*
X70434804Y-99203328D01*
X70313852Y-99173090D01*
X70253376Y-99142852D01*
X70192900Y-99082376D01*
X70162661Y-98991661D01*
X70162661Y-98931185D01*
X70192900Y-98840471D01*
X70223138Y-98810233D01*
X70162661Y-98235709D02*
X70162661Y-98538090D01*
X70465042Y-98568328D01*
X70434804Y-98538090D01*
X70404566Y-98477614D01*
X70404566Y-98326423D01*
X70434804Y-98265947D01*
X70465042Y-98235709D01*
X70525519Y-98205471D01*
X70676709Y-98205471D01*
X70737185Y-98235709D01*
X70767423Y-98265947D01*
X70797661Y-98326423D01*
X70797661Y-98477614D01*
X70767423Y-98538090D01*
X70737185Y-98568328D01*
X70518261Y-97111759D02*
X71032309Y-97111759D01*
X71092785Y-97081521D01*
X71123023Y-97051283D01*
X71153261Y-96990807D01*
X71153261Y-96869854D01*
X71123023Y-96809378D01*
X71092785Y-96779140D01*
X71032309Y-96748902D01*
X70518261Y-96748902D01*
X70518261Y-96144140D02*
X70518261Y-96446521D01*
X70820642Y-96476759D01*
X70790404Y-96446521D01*
X70760166Y-96386045D01*
X70760166Y-96234854D01*
X70790404Y-96174378D01*
X70820642Y-96144140D01*
X70881119Y-96113902D01*
X71032309Y-96113902D01*
X71092785Y-96144140D01*
X71123023Y-96174378D01*
X71153261Y-96234854D01*
X71153261Y-96386045D01*
X71123023Y-96446521D01*
X71092785Y-96476759D01*
X71727785Y-94314433D02*
X71758023Y-94344671D01*
X71788261Y-94435385D01*
X71788261Y-94495861D01*
X71758023Y-94586576D01*
X71697547Y-94647052D01*
X71637071Y-94677290D01*
X71516119Y-94707528D01*
X71425404Y-94707528D01*
X71304452Y-94677290D01*
X71243976Y-94647052D01*
X71183500Y-94586576D01*
X71153261Y-94495861D01*
X71153261Y-94435385D01*
X71183500Y-94344671D01*
X71213738Y-94314433D01*
X71153261Y-94102766D02*
X71153261Y-93709671D01*
X71395166Y-93921338D01*
X71395166Y-93830623D01*
X71425404Y-93770147D01*
X71455642Y-93739909D01*
X71516119Y-93709671D01*
X71667309Y-93709671D01*
X71727785Y-93739909D01*
X71758023Y-93770147D01*
X71788261Y-93830623D01*
X71788261Y-94012052D01*
X71758023Y-94072528D01*
X71727785Y-94102766D01*
X67662273Y-101579438D02*
X67601797Y-101549200D01*
X67541321Y-101488723D01*
X67450607Y-101398009D01*
X67390130Y-101367771D01*
X67329654Y-101367771D01*
X67359892Y-101518961D02*
X67299416Y-101488723D01*
X67238940Y-101428247D01*
X67208702Y-101307295D01*
X67208702Y-101095628D01*
X67238940Y-100974676D01*
X67299416Y-100914200D01*
X67359892Y-100883961D01*
X67480845Y-100883961D01*
X67541321Y-100914200D01*
X67601797Y-100974676D01*
X67632035Y-101095628D01*
X67632035Y-101307295D01*
X67601797Y-101428247D01*
X67541321Y-101488723D01*
X67480845Y-101518961D01*
X67359892Y-101518961D01*
X67843702Y-100883961D02*
X68236797Y-100883961D01*
X68025130Y-101125866D01*
X68115845Y-101125866D01*
X68176321Y-101156104D01*
X68206559Y-101186342D01*
X68236797Y-101246819D01*
X68236797Y-101398009D01*
X68206559Y-101458485D01*
X68176321Y-101488723D01*
X68115845Y-101518961D01*
X67934416Y-101518961D01*
X67873940Y-101488723D01*
X67843702Y-101458485D01*
X72774761Y-102546259D02*
X73288809Y-102546259D01*
X73349285Y-102516021D01*
X73379523Y-102485783D01*
X73409761Y-102425307D01*
X73409761Y-102304354D01*
X73379523Y-102243878D01*
X73349285Y-102213640D01*
X73288809Y-102183402D01*
X72774761Y-102183402D01*
X72986428Y-101608878D02*
X73409761Y-101608878D01*
X72744523Y-101760069D02*
X73198095Y-101911259D01*
X73198095Y-101518164D01*
X66340566Y-97610385D02*
X66310328Y-97640623D01*
X66219614Y-97670861D01*
X66159138Y-97670861D01*
X66068423Y-97640623D01*
X66007947Y-97580147D01*
X65977709Y-97519671D01*
X65947471Y-97398719D01*
X65947471Y-97308004D01*
X65977709Y-97187052D01*
X66007947Y-97126576D01*
X66068423Y-97066100D01*
X66159138Y-97035861D01*
X66219614Y-97035861D01*
X66310328Y-97066100D01*
X66340566Y-97096338D01*
X66945328Y-97670861D02*
X66582471Y-97670861D01*
X66763900Y-97670861D02*
X66763900Y-97035861D01*
X66703423Y-97126576D01*
X66642947Y-97187052D01*
X66582471Y-97217290D01*
X72489785Y-105103385D02*
X72459547Y-105133623D01*
X72368833Y-105163861D01*
X72308357Y-105163861D01*
X72217642Y-105133623D01*
X72157166Y-105073147D01*
X72126928Y-105012671D01*
X72096690Y-104891719D01*
X72096690Y-104801004D01*
X72126928Y-104680052D01*
X72157166Y-104619576D01*
X72217642Y-104559100D01*
X72308357Y-104528861D01*
X72368833Y-104528861D01*
X72459547Y-104559100D01*
X72489785Y-104589338D01*
X73094547Y-105163861D02*
X72731690Y-105163861D01*
X72913119Y-105163861D02*
X72913119Y-104528861D01*
X72852642Y-104619576D01*
X72792166Y-104680052D01*
X72731690Y-104710290D01*
X73669071Y-104528861D02*
X73366690Y-104528861D01*
X73336452Y-104831242D01*
X73366690Y-104801004D01*
X73427166Y-104770766D01*
X73578357Y-104770766D01*
X73638833Y-104801004D01*
X73669071Y-104831242D01*
X73699309Y-104891719D01*
X73699309Y-105042909D01*
X73669071Y-105103385D01*
X73638833Y-105133623D01*
X73578357Y-105163861D01*
X73427166Y-105163861D01*
X73366690Y-105133623D01*
X73336452Y-105103385D01*
M02*
