M48
; DRILL file {KiCad (5.1.4)-1} date 10/11/2019 8:55:05 AM
; FORMAT={-:-/ absolute / inch / decimal}
; #@! TF.CreationDate,2019-10-11T08:55:05-07:00
; #@! TF.GenerationSoftware,Kicad,Pcbnew,(5.1.4)-1
FMAT,2
INCH
T1C0.0100
T2C0.0354
T3C0.0394
T4C0.0472
T5C0.0984
T6C0.0197
%
G90
G05
T1
X3.6929Y-2.1028
X3.6929Y-3.3028
X3.6929Y-4.4828
X3.7524Y-2.3524
X3.7524Y-3.5524
X3.7524Y-4.7324
X3.791Y-2.133
X3.791Y-3.333
X3.791Y-4.513
X3.795Y-2.3384
X3.795Y-3.5384
X3.795Y-4.7184
X3.795Y-2.6475
X3.795Y-3.8475
X3.795Y-5.0275
X3.7951Y-2.4148
X3.7951Y-3.6148
X3.7951Y-4.7948
X3.8Y-2.52
X3.8Y-3.72
X3.8Y-4.9
X3.812Y-2.19
X3.812Y-3.39
X3.812Y-4.57
X3.8604Y-2.2117
X3.8604Y-3.4117
X3.8604Y-4.5917
X3.8652Y-2.238
X3.8652Y-3.438
X3.8652Y-4.618
X3.877Y-2.656
X3.877Y-3.856
X3.877Y-5.036
X3.8777Y-2.1903
X3.8777Y-3.3903
X3.8777Y-4.5703
X3.8811Y-2.1197
X3.8811Y-3.3197
X3.8811Y-4.4997
X3.8929Y-2.0246
X3.8929Y-3.2246
X3.8929Y-4.4046
X3.8929Y-2.0793
X3.8929Y-3.2793
X3.8929Y-4.4593
X3.894Y-2.534
X3.894Y-3.734
X3.894Y-4.914
X3.9169Y-2.568
X3.9169Y-3.768
X3.9169Y-4.948
X3.918Y-2.5989
X3.918Y-3.7989
X3.918Y-4.9789
X3.928Y-2.631
X3.928Y-3.831
X3.928Y-5.011
X3.929Y-2.662
X3.929Y-3.862
X3.929Y-5.042
X3.9438Y-2.5444
X3.9438Y-3.7444
X3.9438Y-4.9244
X3.9506Y-2.4142
X3.9506Y-3.6142
X3.9506Y-4.7942
X3.9529Y-2.1571
X3.9529Y-3.3571
X3.9529Y-4.5371
X3.9585Y-2.4925
X3.9585Y-3.6925
X3.9585Y-4.8725
X3.9615Y-2.2593
X3.9615Y-3.4593
X3.9615Y-4.6393
X3.9685Y-2.358
X3.9685Y-3.558
X3.9685Y-4.738
X3.991Y-2.305
X3.991Y-3.505
X3.991Y-4.685
X3.9925Y-2.3825
X3.9925Y-3.5825
X3.9925Y-4.7625
X3.9975Y-2.6375
X3.9975Y-3.8375
X3.9975Y-5.0175
X4.018Y-2.541
X4.018Y-3.741
X4.018Y-4.921
X4.0226Y-2.1969
X4.0226Y-3.3969
X4.0226Y-4.5769
X4.0325Y-2.6575
X4.0325Y-3.8575
X4.0325Y-5.0375
X4.054Y-2.2458
X4.054Y-3.4458
X4.054Y-4.6258
X4.0791Y-2.5428
X4.0791Y-3.7428
X4.0791Y-4.9228
X4.088Y-2.188
X4.088Y-3.388
X4.088Y-4.568
X4.0882Y-2.6367
X4.0882Y-3.8367
X4.0882Y-5.0167
X4.092Y-2.2458
X4.092Y-3.4458
X4.092Y-4.6258
X4.119Y-2.215
X4.119Y-3.415
X4.119Y-4.595
X4.1321Y-2.0967
X4.1321Y-3.2967
X4.1321Y-4.4767
X4.152Y-2.032
X4.152Y-3.232
X4.152Y-4.412
X4.1623Y-2.2933
X4.1623Y-3.4933
X4.1623Y-4.6733
X4.1638Y-2.4675
X4.1638Y-3.6675
X4.1638Y-4.8475
X4.1847Y-2.631
X4.1847Y-3.831
X4.1847Y-5.011
X4.2012Y-2.2944
X4.2012Y-3.4944
X4.2012Y-4.6744
X4.2146Y-2.6338
X4.2146Y-3.8338
X4.2146Y-5.0138
X4.218Y-2.034
X4.218Y-3.234
X4.218Y-4.414
X4.258Y-2.362
X4.258Y-3.562
X4.258Y-4.742
X4.26Y-2.328
X4.26Y-3.528
X4.26Y-4.708
X4.2629Y-2.6433
X4.2629Y-3.8433
X4.2629Y-5.0233
X4.2641Y-2.1991
X4.2641Y-3.3991
X4.2641Y-4.5791
X4.2908Y-2.4597
X4.2908Y-3.6597
X4.2908Y-4.8397
X4.3034Y-2.3007
X4.3034Y-3.5007
X4.3034Y-4.6807
X4.3067Y-2.4903
X4.3067Y-3.6903
X4.3067Y-4.8703
X4.3084Y-2.6412
X4.3084Y-3.8412
X4.3084Y-5.0212
X4.31Y-2.396
X4.31Y-3.596
X4.31Y-4.776
X4.3185Y-2.3308
X4.3185Y-2.3594
X4.3185Y-3.5308
X4.3185Y-3.5594
X4.3185Y-4.7108
X4.3185Y-4.7394
X4.3272Y-2.5912
X4.3272Y-3.7912
X4.3272Y-4.9712
X4.3512Y-2.5582
X4.3512Y-3.7582
X4.3512Y-4.9382
X4.365Y-2.11
X4.365Y-3.31
X4.365Y-4.49
X4.3677Y-2.5941
X4.3677Y-3.7941
X4.3677Y-4.9741
X4.368Y-2.6441
X4.368Y-3.8441
X4.368Y-5.0241
X4.4755Y-2.3608
X4.4755Y-3.5608
X4.4755Y-4.7408
X4.485Y-2.12
X4.485Y-3.32
X4.485Y-4.5
X4.487Y-2.4403
X4.487Y-3.6403
X4.487Y-4.8203
X4.4913Y-2.548
X4.4913Y-3.748
X4.4913Y-4.928
X4.5045Y-2.2242
X4.5045Y-3.4242
X4.5045Y-4.6042
X4.5075Y-2.1425
X4.5075Y-2.6105
X4.5075Y-3.3425
X4.5075Y-3.8105
X4.5075Y-4.5225
X4.5075Y-4.9905
X4.5077Y-2.3159
X4.5077Y-3.5159
X4.5077Y-4.6959
X4.51Y-2.09
X4.51Y-3.29
X4.51Y-4.47
X4.5122Y-2.3634
X4.5122Y-3.5634
X4.5122Y-4.7434
X4.617Y-2.416
X4.617Y-3.616
X4.617Y-4.796
X4.6233Y-2.5916
X4.6233Y-3.7916
X4.6233Y-4.9716
X4.636Y-2.269
X4.636Y-3.469
X4.636Y-4.649
X4.653Y-2.199
X4.653Y-2.519
X4.653Y-3.399
X4.653Y-3.719
X4.653Y-4.579
X4.653Y-4.899
X4.6534Y-2.354
X4.6534Y-3.554
X4.6534Y-4.734
X4.656Y-2.428
X4.656Y-3.628
X4.656Y-4.808
X4.6575Y-2.052
X4.6575Y-3.252
X4.6575Y-4.432
X4.661Y-2.305
X4.661Y-3.505
X4.661Y-4.685
X4.661Y-2.237
X4.661Y-3.437
X4.661Y-4.617
X4.6614Y-2.5886
X4.6614Y-3.7886
X4.6614Y-4.9686
X4.664Y-2.139
X4.664Y-3.339
X4.664Y-4.519
X4.702Y-2.092
X4.702Y-3.292
X4.702Y-4.472
X4.7086Y-2.7307
X4.7086Y-3.9307
X4.7086Y-5.1107
X4.7675Y-2.185
X4.7675Y-2.25
X4.7675Y-3.385
X4.7675Y-3.45
X4.7675Y-4.565
X4.7675Y-4.63
X4.769Y-2.103
X4.769Y-3.303
X4.769Y-4.483
X4.772Y-2.346
X4.772Y-2.389
X4.772Y-3.546
X4.772Y-3.589
X4.772Y-4.726
X4.772Y-4.769
X4.7725Y-2.4275
X4.7725Y-3.6275
X4.7725Y-4.8075
X4.7739Y-2.5604
X4.7739Y-3.7604
X4.7739Y-4.9404
X4.7867Y-2.6566
X4.7867Y-3.8566
X4.7867Y-5.0366
X4.8012Y-2.5881
X4.8012Y-3.7881
X4.8012Y-4.9681
X4.805Y-2.124
X4.805Y-2.162
X4.805Y-2.271
X4.805Y-3.324
X4.805Y-3.362
X4.805Y-3.471
X4.805Y-4.504
X4.805Y-4.542
X4.805Y-4.651
X4.834Y-2.229
X4.834Y-3.429
X4.834Y-4.609
X4.851Y-2.1582
X4.851Y-2.4693
X4.851Y-3.3582
X4.851Y-3.6693
X4.851Y-4.5382
X4.851Y-4.8493
X4.883Y-2.632
X4.883Y-3.832
X4.883Y-5.012
X4.9706Y-2.6569
X4.9706Y-3.8569
X4.9706Y-5.0369
X4.9811Y-2.5661
X4.9811Y-3.7661
X4.9811Y-4.9461
X5.0035Y-2.6378
X5.0035Y-3.8378
X5.0035Y-5.0178
X5.04Y-2.315
X5.04Y-3.515
X5.04Y-4.695
X5.0433Y-2.4498
X5.0433Y-3.6498
X5.0433Y-4.8298
X5.0573Y-2.612
X5.0573Y-3.812
X5.0573Y-4.992
X5.1175Y-2.6294
X5.1175Y-3.8294
X5.1175Y-5.0094
X5.1555Y-2.653
X5.1555Y-3.853
X5.1555Y-5.033
X5.17Y-2.315
X5.17Y-3.515
X5.17Y-4.695
X5.176Y-2.4498
X5.176Y-3.6498
X5.176Y-4.8298
X5.21Y-2.64
X5.21Y-3.84
X5.21Y-5.02
X5.25Y-2.64
X5.25Y-3.84
X5.25Y-5.02
X5.305Y-2.385
X5.305Y-3.585
X5.305Y-4.765
X5.305Y-2.3425
X5.305Y-3.5425
X5.305Y-4.7225
X5.3075Y-2.2098
X5.3075Y-3.4098
X5.3075Y-4.5898
X5.3075Y-2.3
X5.3075Y-3.5
X5.3075Y-4.68
X5.3079Y-2.2551
X5.3079Y-3.4551
X5.3079Y-4.6351
X5.3284Y-2.6427
X5.3284Y-3.8427
X5.3284Y-5.0227
X5.3343Y-2.0762
X5.3343Y-3.2762
X5.3343Y-4.4562
X5.3555Y-2.0376
X5.3555Y-3.2376
X5.3555Y-4.4176
X5.3559Y-2.6878
X5.3559Y-3.8878
X5.3559Y-5.0678
X5.3872Y-2.1231
X5.3872Y-3.3231
X5.3872Y-4.5031
X5.4056Y-2.6427
X5.4056Y-3.8427
X5.4056Y-5.0227
X5.4078Y-2.0905
X5.4078Y-3.2905
X5.4078Y-4.4705
X5.4329Y-2.0632
X5.4329Y-3.2632
X5.4329Y-4.4432
X6.1246Y-4.9571
X6.132Y-4.698
X6.134Y-4.632
X6.1376Y-3.4945
X6.152Y-4.1925
X6.1632Y-3.4171
X6.1762Y-3.5157
X6.1793Y-4.9571
X6.19Y-4.34
X6.1905Y-3.4422
X6.192Y-4.148
X6.1967Y-4.7179
X6.2028Y-5.1571
X6.203Y-4.081
X6.21Y-4.485
X6.2197Y-4.9689
X6.22Y-4.365
X6.2231Y-3.4628
X6.224Y-4.045
X6.233Y-5.059
X6.239Y-4.186
X6.2425Y-4.3425
X6.2571Y-4.8971
X6.2582Y-3.999
X6.262Y-4.045
X6.285Y-4.0825
X6.288Y-4.762
X6.29Y-5.038
X6.2903Y-4.9723
X6.2969Y-4.8274
X6.299Y-4.197
X6.2991Y-4.5859
X6.3098Y-3.5425
X6.3117Y-4.9896
X6.315Y-4.731
X6.3242Y-4.3455
X6.329Y-4.016
X6.337Y-4.189
X6.338Y-4.9848
X6.3458Y-4.758
X6.3458Y-4.796
X6.35Y-4.0825
X6.3551Y-3.5421
X6.3593Y-4.8885
X6.369Y-4.214
X6.371Y-4.045
X6.3933Y-4.6877
X6.3944Y-4.6488
X6.4Y-3.5425
X6.4007Y-4.5466
X6.405Y-4.859
X6.405Y-4.189
X6.415Y-3.68
X6.415Y-3.81
X6.4159Y-4.3423
X6.428Y-4.59
X6.4308Y-4.5315
X6.4384Y-5.055
X6.4425Y-3.545
X6.446Y-4.078
X6.4524Y-5.0976
X6.454Y-4.1966
X6.458Y-4.8815
X6.4594Y-4.5315
X6.4608Y-4.3745
X6.462Y-4.592
X6.4634Y-4.3378
X6.4825Y-4.8575
X6.485Y-3.545
X6.489Y-4.078
X6.496Y-4.54
X6.5142Y-4.8994
X6.5148Y-5.0549
X6.516Y-4.233
X6.5275Y-4.0775
X6.528Y-4.194
X6.5403Y-4.363
X6.5498Y-3.674
X6.5498Y-3.8067
X6.5597Y-4.5592
X6.5675Y-4.6862
X6.5693Y-3.999
X6.5903Y-4.5433
X6.5925Y-4.8915
X6.619Y-4.197
X6.62Y-5.05
X6.634Y-4.956
X6.641Y-4.832
X6.6428Y-4.7709
X6.6444Y-4.9062
X6.648Y-4.3587
X6.6582Y-4.4988
X6.6604Y-4.0761
X6.6661Y-3.8689
X6.668Y-4.9331
X6.6881Y-4.0488
X6.6886Y-4.1886
X6.6912Y-4.5228
X6.6916Y-4.2267
X6.6941Y-4.4823
X6.6989Y-4.932
X6.7105Y-4.3425
X6.712Y-3.7927
X6.7294Y-3.7325
X6.731Y-4.6653
X6.731Y-4.922
X6.732Y-3.967
X6.7338Y-4.6354
X6.7367Y-4.7618
X6.7375Y-4.8525
X6.7378Y-3.8465
X6.74Y-3.6
X6.74Y-3.64
X6.7412Y-4.5416
X6.7427Y-3.4444
X6.7427Y-3.5216
X6.7433Y-4.5871
X6.7441Y-4.482
X6.7475Y-5.055
X6.753Y-3.6945
X6.756Y-4.973
X6.7566Y-4.0633
X6.7569Y-3.8794
X6.7575Y-4.8175
X6.762Y-4.921
X6.7878Y-3.4941
X6.8307Y-4.1414
T2
X3.955Y-5.1436
X4.055Y-5.1436
X4.155Y-5.1436
X4.255Y-5.1436
X4.355Y-5.1436
X4.455Y-5.1436
X4.555Y-5.1436
X4.655Y-5.1436
X4.755Y-5.1436
X4.855Y-5.1436
X4.955Y-5.1436
X5.055Y-5.1436
X5.155Y-5.1436
X5.255Y-5.1436
X5.355Y-5.1436
X5.455Y-5.1436
X3.7961Y-4.6452
X3.7961Y-4.842
X3.7961Y-3.4652
X3.7961Y-3.662
X6.8636Y-3.395
X6.8636Y-3.495
X6.8636Y-3.595
X6.8636Y-3.695
X6.8636Y-3.795
X6.8636Y-3.895
X6.8636Y-3.995
X6.8636Y-4.095
X6.8636Y-4.195
X6.8636Y-4.295
X6.8636Y-4.395
X6.8636Y-4.495
X6.8636Y-4.595
X6.8636Y-4.695
X6.8636Y-4.795
X6.8636Y-4.895
X6.3652Y-5.0539
X6.562Y-5.0539
X3.955Y-3.9636
X4.055Y-3.9636
X4.155Y-3.9636
X4.255Y-3.9636
X4.355Y-3.9636
X4.455Y-3.9636
X4.555Y-3.9636
X4.655Y-3.9636
X4.755Y-3.9636
X4.855Y-3.9636
X4.955Y-3.9636
X5.055Y-3.9636
X5.155Y-3.9636
X5.255Y-3.9636
X5.355Y-3.9636
X5.455Y-3.9636
X3.955Y-2.7636
X4.055Y-2.7636
X4.155Y-2.7636
X4.255Y-2.7636
X4.355Y-2.7636
X4.455Y-2.7636
X4.555Y-2.7636
X4.655Y-2.7636
X4.755Y-2.7636
X4.855Y-2.7636
X4.955Y-2.7636
X5.055Y-2.7636
X5.155Y-2.7636
X5.255Y-2.7636
X5.355Y-2.7636
X5.455Y-2.7636
X3.7961Y-2.2652
X3.7961Y-2.462
T3
X6.0636Y-3.395
X6.0636Y-3.495
X6.0636Y-3.595
X6.0636Y-3.695
X6.0636Y-3.795
X6.0636Y-3.895
X6.0636Y-3.995
X6.0636Y-4.095
X6.0636Y-4.195
X6.0636Y-4.295
X6.0636Y-4.395
X6.0636Y-4.495
X6.0636Y-4.595
X6.0636Y-4.695
X4.155Y-1.9636
X4.255Y-1.9636
X4.355Y-1.9636
X4.455Y-1.9636
X4.555Y-1.9636
X4.655Y-1.9636
X4.755Y-1.9636
X4.855Y-1.9636
X4.955Y-1.9636
X5.055Y-1.9636
X5.155Y-1.9636
X5.255Y-1.9636
X5.355Y-1.9636
X5.455Y-1.9636
X3.855Y-5.1436
X4.155Y-3.1636
X4.255Y-3.1636
X4.355Y-3.1636
X4.455Y-3.1636
X4.555Y-3.1636
X4.655Y-3.1636
X4.755Y-3.1636
X4.855Y-3.1636
X4.955Y-3.1636
X5.055Y-3.1636
X5.155Y-3.1636
X5.255Y-3.1636
X5.355Y-3.1636
X5.455Y-3.1636
X4.155Y-4.3436
X4.255Y-4.3436
X4.355Y-4.3436
X4.455Y-4.3436
X4.555Y-4.3436
X4.655Y-4.3436
X4.755Y-4.3436
X4.855Y-4.3436
X4.955Y-4.3436
X5.055Y-4.3436
X5.155Y-4.3436
X5.255Y-4.3436
X5.355Y-4.3436
X5.455Y-4.3436
X6.8636Y-4.995
X3.855Y-3.9636
X3.855Y-2.7636
T4
X6.3258Y-5.1602
X6.6014Y-5.1602
X3.6898Y-2.2258
X3.6898Y-2.5014
X3.6898Y-4.6058
X3.6898Y-4.8814
X3.6898Y-3.4258
X3.6898Y-3.7014
T5
X6.1125Y-5.15
X6.81Y-5.15
X3.7Y-5.09
X3.7Y-4.3925
X3.7Y-2.0125
X3.7Y-2.71
X3.7Y-3.2125
X3.7Y-3.91
T6
X3.591Y-4.4161
X3.591Y-4.4624
X3.591Y-4.5087
X3.591Y-4.5549
X3.591Y-4.6012
X6.6043Y-5.3937
X6.6043Y-5.4331
X6.6043Y-5.4724
X6.6043Y-5.5118
X5.1831Y-3.0908
X5.2293Y-3.0908
X5.2756Y-3.0908
X5.3219Y-3.0908
X5.3681Y-3.0908
X3.8839Y-1.8908
X3.9301Y-1.8908
X3.9764Y-1.8908
X4.0226Y-1.8908
X4.0689Y-1.8908
X3.7795Y-5.3937
X3.7795Y-5.4331
X3.7795Y-5.4724
X3.7795Y-5.5118
X5.1831Y-4.0295
X5.2293Y-4.0295
X5.2756Y-4.0295
X5.3219Y-4.0295
X5.3681Y-4.0295
X5.1831Y-2.8295
X5.2293Y-2.8295
X5.2756Y-2.8295
X5.3219Y-2.8295
X5.3681Y-2.8295
X3.3465Y-3.6024
X3.3858Y-3.6024
X3.4252Y-3.6024
X3.4646Y-3.6024
X3.8839Y-5.2095
X3.9301Y-5.2095
X3.9764Y-5.2095
X4.0226Y-5.2095
X4.0689Y-5.2095
X3.3465Y-4.8031
X3.3858Y-4.8031
X3.4252Y-4.8031
X3.4646Y-4.8031
X5.1831Y-4.2708
X5.2293Y-4.2708
X5.2756Y-4.2708
X5.3219Y-4.2708
X5.3681Y-4.2708
X7.1654Y-2.9528
X7.2047Y-2.9528
X7.2441Y-2.9528
X7.2835Y-2.9528
X6.9295Y-3.4114
X6.9295Y-3.4577
X6.9295Y-3.5039
X6.9295Y-3.5502
X6.9295Y-3.5965
X3.3465Y-4.2323
X3.3858Y-4.2323
X3.4252Y-4.2323
X3.4646Y-4.2323
X6.1378Y-5.259
X6.1841Y-5.259
X6.2303Y-5.259
X6.2766Y-5.259
X6.3228Y-5.259
X3.6713Y-1.5748
X3.6713Y-1.6142
X3.6713Y-1.6535
X3.6713Y-1.6929
X3.591Y-2.0339
X3.591Y-2.0802
X3.591Y-2.1265
X3.591Y-2.1727
X3.591Y-2.219
X3.8839Y-2.8295
X3.9301Y-2.8295
X3.9764Y-2.8295
X4.0226Y-2.8295
X4.0689Y-2.8295
X3.8839Y-4.0295
X3.9301Y-4.0295
X3.9764Y-4.0295
X4.0226Y-4.0295
X4.0689Y-4.0295
X6.9295Y-4.7106
X6.9295Y-4.7569
X6.9295Y-4.8031
X6.9295Y-4.8494
X6.9295Y-4.8957
X3.591Y-3.21
X3.591Y-3.2563
X3.591Y-3.3026
X3.591Y-3.3488
X3.591Y-3.3951
X5.7874Y-1.5748
X5.7874Y-1.6142
X5.7874Y-1.6535
X5.7874Y-1.6929
X7.1654Y-3.6811
X7.2047Y-3.6811
X7.2441Y-3.6811
X7.2835Y-3.6811
X7.1654Y-4.9902
X7.2047Y-4.9902
X7.2441Y-4.9902
X7.2835Y-4.9902
X5.1831Y-1.8908
X5.2293Y-1.8908
X5.2756Y-1.8908
X5.3219Y-1.8908
X5.3681Y-1.8908
X3.3465Y-3.0512
X3.3858Y-3.0512
X3.4252Y-3.0512
X3.4646Y-3.0512
X6.0039Y-5.3937
X6.0039Y-5.4331
X6.0039Y-5.4724
X6.0039Y-5.5118
X3.8839Y-3.0908
X3.9301Y-3.0908
X3.9764Y-3.0908
X4.0226Y-3.0908
X4.0689Y-3.0908
X5.1831Y-5.2095
X5.2293Y-5.2095
X5.2756Y-5.2095
X5.3219Y-5.2095
X5.3681Y-5.2095
X5.0492Y-5.3937
X5.0492Y-5.4331
X5.0492Y-5.4724
X5.0492Y-5.5118
X3.8839Y-4.2708
X3.9301Y-4.2708
X3.9764Y-4.2708
X4.0226Y-4.2708
X4.0689Y-4.2708
X3.3465Y-2.3031
X3.3858Y-2.3031
X3.4252Y-2.3031
X3.4646Y-2.3031
T0
M30
