%TF.GenerationSoftware,KiCad,Pcbnew,(5.1.4)-1*%
%TF.CreationDate,2019-10-11T08:55:03-07:00*%
%TF.ProjectId,output.v25Panel,6f757470-7574-42e7-9632-3550616e656c,rev?*%
%TF.SameCoordinates,Original*%
%TF.FileFunction,Profile,NP*%
%FSLAX46Y46*%
G04 Gerber Fmt 4.6, Leading zero omitted, Abs format (unit mm)*
G04 Created by KiCad (PCBNEW (5.1.4)-1) date 2019-10-11 08:55:03*
%MOMM*%
%LPD*%
G04 APERTURE LIST*
%ADD10C,0.050000*%
%ADD11C,0.250000*%
%ADD12C,0.100000*%
G04 APERTURE END LIST*
D10*
X182000000Y-75000000D02*
X147000000Y-75000000D01*
X147000000Y-75000000D02*
X147000000Y-43000000D01*
X85000000Y-140000000D02*
X85000000Y-40000000D01*
X185000000Y-140000000D02*
X85000000Y-140000000D01*
X185000000Y-40000000D02*
X185000000Y-140000000D01*
X85000000Y-40000000D02*
X185000000Y-40000000D01*
D11*
X144752060Y-67575080D02*
X144752060Y-69128640D01*
X142212060Y-71668640D02*
G75*
G03X144752060Y-69128640I0J2540000D01*
G01*
X139315076Y-62811768D02*
X144752060Y-67575080D01*
X91412060Y-56926067D02*
X91860000Y-57370000D01*
X139318052Y-57099398D02*
X144780013Y-52320000D01*
X139318039Y-57099407D02*
G75*
G03X139188512Y-57351166I160472J-241760D01*
G01*
X139315063Y-62811759D02*
G75*
G02X139185536Y-62560000I160472J241760D01*
G01*
X139185536Y-62560000D02*
X139188512Y-57351166D01*
X91412060Y-63068136D02*
X91860000Y-62624203D01*
X91860000Y-62624203D02*
G75*
G03X91921488Y-62435369I-228511J178835D01*
G01*
X91860000Y-57370000D02*
G75*
G02X91921488Y-57558834I-228511J-178835D01*
G01*
X143765221Y-51245720D02*
G75*
G03X143765221Y-51245720I-1652221J0D01*
G01*
X143765221Y-68835220D02*
G75*
G03X143765221Y-68835220I-1652221J0D01*
G01*
X144780013Y-50766440D02*
X144780013Y-52320000D01*
X142240013Y-48226440D02*
G75*
G02X144780013Y-50766440I0J-2540000D01*
G01*
X91412060Y-63068136D02*
X91412060Y-69128640D01*
X91412060Y-50766440D02*
G75*
G02X93952060Y-48226440I2540000J0D01*
G01*
X91921488Y-57558834D02*
X91921488Y-62435369D01*
X93952060Y-71668640D02*
G75*
G02X91412060Y-69128640I0J2540000D01*
G01*
X144752060Y-98055080D02*
X144752060Y-99608640D01*
X142212060Y-102148640D02*
G75*
G03X144752060Y-99608640I0J2540000D01*
G01*
X139315076Y-93291768D02*
X144752060Y-98055080D01*
X91412060Y-87406067D02*
X91860000Y-87850000D01*
X139318052Y-87579398D02*
X144780013Y-82800000D01*
X139318039Y-87579407D02*
G75*
G03X139188512Y-87831166I160472J-241760D01*
G01*
X139315063Y-93291759D02*
G75*
G02X139185536Y-93040000I160472J241760D01*
G01*
X139185536Y-93040000D02*
X139188512Y-87831166D01*
X91412060Y-93548136D02*
X91860000Y-93104203D01*
X91860000Y-93104203D02*
G75*
G03X91921488Y-92915369I-228511J178835D01*
G01*
X91860000Y-87850000D02*
G75*
G02X91921488Y-88038834I-228511J-178835D01*
G01*
X143765221Y-81725720D02*
G75*
G03X143765221Y-81725720I-1652221J0D01*
G01*
X143765221Y-99315220D02*
G75*
G03X143765221Y-99315220I-1652221J0D01*
G01*
X144780013Y-81246440D02*
X144780013Y-82800000D01*
X142240013Y-78706440D02*
G75*
G02X144780013Y-81246440I0J-2540000D01*
G01*
X91412060Y-93548136D02*
X91412060Y-99608640D01*
X91412060Y-81246440D02*
G75*
G02X93952060Y-78706440I2540000J0D01*
G01*
X91921488Y-88038834D02*
X91921488Y-92915369D01*
X93952060Y-102148640D02*
G75*
G02X91412060Y-99608640I0J2540000D01*
G01*
X144752060Y-128027080D02*
X144752060Y-129580640D01*
X142212060Y-132120640D02*
G75*
G03X144752060Y-129580640I0J2540000D01*
G01*
X139315076Y-123263768D02*
X144752060Y-128027080D01*
X91412060Y-117378067D02*
X91860000Y-117822000D01*
X139318052Y-117551398D02*
X144780013Y-112772000D01*
X139318039Y-117551407D02*
G75*
G03X139188512Y-117803166I160472J-241760D01*
G01*
X139315063Y-123263759D02*
G75*
G02X139185536Y-123012000I160472J241760D01*
G01*
X139185536Y-123012000D02*
X139188512Y-117803166D01*
X91412060Y-123520136D02*
X91860000Y-123076203D01*
X91860000Y-123076203D02*
G75*
G03X91921488Y-122887369I-228511J178835D01*
G01*
X91860000Y-117822000D02*
G75*
G02X91921488Y-118010834I-228511J-178835D01*
G01*
X143765221Y-111697720D02*
G75*
G03X143765221Y-111697720I-1652221J0D01*
G01*
X143765221Y-129287220D02*
G75*
G03X143765221Y-129287220I-1652221J0D01*
G01*
X144780013Y-111218440D02*
X144780013Y-112772000D01*
X142240013Y-108678440D02*
G75*
G02X144780013Y-111218440I0J-2540000D01*
G01*
X91412060Y-123520136D02*
X91412060Y-129580640D01*
X91412060Y-111218440D02*
G75*
G02X93952060Y-108678440I2540000J0D01*
G01*
X91921488Y-118010834D02*
X91921488Y-122887369D01*
X93952060Y-132120640D02*
G75*
G02X91412060Y-129580640I0J2540000D01*
G01*
X171715080Y-80037940D02*
X173268640Y-80037940D01*
X175808640Y-82577940D02*
G75*
G03X173268640Y-80037940I-2540000J0D01*
G01*
X166951768Y-85474924D02*
X171715080Y-80037940D01*
X161066067Y-133377940D02*
X161510000Y-132930000D01*
X161239398Y-85471948D02*
X156460000Y-80009987D01*
X161239407Y-85471961D02*
G75*
G03X161491166Y-85601488I241760J160472D01*
G01*
X166951759Y-85474937D02*
G75*
G02X166700000Y-85604464I-241760J160472D01*
G01*
X166700000Y-85604464D02*
X161491166Y-85601488D01*
X167208136Y-133377940D02*
X166764203Y-132930000D01*
X166764203Y-132930000D02*
G75*
G03X166575369Y-132868512I-178835J-228511D01*
G01*
X161510000Y-132930000D02*
G75*
G02X161698834Y-132868512I178835J-228511D01*
G01*
X157037941Y-82677000D02*
G75*
G03X157037941Y-82677000I-1652221J0D01*
G01*
X174627441Y-82677000D02*
G75*
G03X174627441Y-82677000I-1652221J0D01*
G01*
X154906440Y-80009987D02*
X156460000Y-80009987D01*
X152366440Y-82549987D02*
G75*
G02X154906440Y-80009987I2540000J0D01*
G01*
X167208136Y-133377940D02*
X173268640Y-133377940D01*
X152366440Y-82549987D02*
X152366440Y-130837940D01*
X154906440Y-133377940D02*
G75*
G02X152366440Y-130837940I0J2540000D01*
G01*
X161698834Y-132868512D02*
X166575369Y-132868512D01*
X175808640Y-130837940D02*
G75*
G02X173268640Y-133377940I-2540000J0D01*
G01*
D12*
X175808640Y-86500005D02*
X175808640Y-82577940D01*
X182000000Y-86499985D02*
X182000000Y-75000000D01*
X182000000Y-91499960D02*
X181992313Y-91400256D01*
X175808640Y-91500025D02*
X175816327Y-91400321D01*
X181992313Y-91400256D02*
X181976985Y-91301438D01*
X175816327Y-91400321D02*
X175831655Y-91301503D01*
X181976985Y-91301438D02*
X181954107Y-91204091D01*
X175831655Y-91301503D02*
X175854533Y-91204156D01*
X181954107Y-91204091D02*
X181923814Y-91108791D01*
X175854533Y-91204156D02*
X175884826Y-91108856D01*
X181923814Y-91108791D02*
X181886285Y-91016101D01*
X175884826Y-91108856D02*
X175922355Y-91016166D01*
X181886285Y-91016101D02*
X181841742Y-90926570D01*
X175922355Y-91016166D02*
X175966898Y-90926635D01*
X181841742Y-90926570D02*
X181790449Y-90840728D01*
X175966898Y-90926635D02*
X176018191Y-90840793D01*
X181790449Y-90840728D02*
X181732709Y-90759083D01*
X176018191Y-90840793D02*
X176075931Y-90759148D01*
X181732709Y-90759083D02*
X181668864Y-90682118D01*
X176075931Y-90759148D02*
X176139776Y-90682183D01*
X181668864Y-90682118D02*
X181599292Y-90610288D01*
X176139776Y-90682183D02*
X176209348Y-90610353D01*
X181599292Y-90610288D02*
X181524405Y-90544018D01*
X176209348Y-90610353D02*
X176284235Y-90544083D01*
X181524405Y-90544018D02*
X181444646Y-90483700D01*
X176284235Y-90544083D02*
X176363994Y-90483765D01*
X181444646Y-90483700D02*
X181360487Y-90429691D01*
X176363994Y-90483765D02*
X176448153Y-90429756D01*
X181360487Y-90429691D02*
X181272426Y-90382311D01*
X176448153Y-90429756D02*
X176536214Y-90382376D01*
X181272426Y-90382311D02*
X181180984Y-90341840D01*
X176536214Y-90382376D02*
X176627656Y-90341905D01*
X181180984Y-90341840D02*
X181086702Y-90308518D01*
X176627656Y-90341905D02*
X176721938Y-90308583D01*
X181086702Y-90308518D02*
X180990138Y-90282542D01*
X176721938Y-90308583D02*
X176818502Y-90282607D01*
X180990138Y-90282542D02*
X180891863Y-90264065D01*
X176818502Y-90282607D02*
X176916777Y-90264130D01*
X180891863Y-90264065D02*
X180792458Y-90253197D01*
X176916777Y-90264130D02*
X177016182Y-90253262D01*
X180792458Y-90253197D02*
X180692512Y-90250002D01*
X177016182Y-90253262D02*
X177116128Y-90250067D01*
X177116128Y-90250067D02*
X180692512Y-90250002D01*
X175808640Y-86500005D02*
X175816327Y-86599709D01*
X182000000Y-86499985D02*
X181992313Y-86599689D01*
X175816327Y-86599709D02*
X175831655Y-86698527D01*
X181992313Y-86599689D02*
X181976985Y-86698507D01*
X175831655Y-86698527D02*
X175854533Y-86795874D01*
X181976985Y-86698507D02*
X181954107Y-86795854D01*
X175854533Y-86795874D02*
X175884826Y-86891174D01*
X181954107Y-86795854D02*
X181923814Y-86891154D01*
X175884826Y-86891174D02*
X175922355Y-86983864D01*
X181923814Y-86891154D02*
X181886285Y-86983844D01*
X175922355Y-86983864D02*
X175966898Y-87073395D01*
X181886285Y-86983844D02*
X181841742Y-87073375D01*
X175966898Y-87073395D02*
X176018191Y-87159237D01*
X181841742Y-87073375D02*
X181790449Y-87159217D01*
X176018191Y-87159237D02*
X176075931Y-87240882D01*
X181790449Y-87159217D02*
X181732709Y-87240862D01*
X176075931Y-87240882D02*
X176139776Y-87317847D01*
X181732709Y-87240862D02*
X181668864Y-87317827D01*
X176139776Y-87317847D02*
X176209348Y-87389677D01*
X181668864Y-87317827D02*
X181599292Y-87389657D01*
X176209348Y-87389677D02*
X176284235Y-87455947D01*
X181599292Y-87389657D02*
X181524405Y-87455927D01*
X176284235Y-87455947D02*
X176363994Y-87516265D01*
X181524405Y-87455927D02*
X181444646Y-87516245D01*
X176363994Y-87516265D02*
X176448153Y-87570274D01*
X181444646Y-87516245D02*
X181360487Y-87570254D01*
X176448153Y-87570274D02*
X176536214Y-87617654D01*
X181360487Y-87570254D02*
X181272426Y-87617634D01*
X176536214Y-87617654D02*
X176627656Y-87658125D01*
X181272426Y-87617634D02*
X181180984Y-87658105D01*
X176627656Y-87658125D02*
X176721938Y-87691447D01*
X181180984Y-87658105D02*
X181086702Y-87691427D01*
X176721938Y-87691447D02*
X176818502Y-87717423D01*
X181086702Y-87691427D02*
X180990138Y-87717403D01*
X176818502Y-87717423D02*
X176916777Y-87735900D01*
X180990138Y-87717403D02*
X180891863Y-87735880D01*
X176916777Y-87735900D02*
X177016182Y-87746768D01*
X180891863Y-87735880D02*
X180792458Y-87746748D01*
X177016182Y-87746768D02*
X177116128Y-87749963D01*
X180792458Y-87746748D02*
X180692512Y-87749943D01*
X177116128Y-87749963D02*
X180692512Y-87749943D01*
X175808640Y-119499992D02*
X175808640Y-91500025D01*
X175808640Y-124500010D02*
X175808640Y-130837940D01*
X182000000Y-119499987D02*
X182000000Y-91499960D01*
X182000000Y-124500013D02*
X182000000Y-137000000D01*
X182000000Y-124500013D02*
X181992313Y-124400309D01*
X175808640Y-124500010D02*
X175816327Y-124400306D01*
X181992313Y-124400309D02*
X181976985Y-124301491D01*
X175816327Y-124400306D02*
X175831655Y-124301488D01*
X181976985Y-124301491D02*
X181954107Y-124204144D01*
X175831655Y-124301488D02*
X175854533Y-124204141D01*
X181954107Y-124204144D02*
X181923814Y-124108844D01*
X175854533Y-124204141D02*
X175884826Y-124108841D01*
X181923814Y-124108844D02*
X181886285Y-124016154D01*
X175884826Y-124108841D02*
X175922355Y-124016151D01*
X175922355Y-124016151D02*
X175966898Y-123926620D01*
X181886285Y-124016154D02*
X181841742Y-123926623D01*
X175966898Y-123926620D02*
X176018191Y-123840778D01*
X181841742Y-123926623D02*
X181790449Y-123840781D01*
X176018191Y-123840778D02*
X176075931Y-123759133D01*
X181790449Y-123840781D02*
X181732709Y-123759136D01*
X176075931Y-123759133D02*
X176139776Y-123682168D01*
X181732709Y-123759136D02*
X181668864Y-123682171D01*
X176139776Y-123682168D02*
X176209348Y-123610338D01*
X181668864Y-123682171D02*
X181599292Y-123610341D01*
X176209348Y-123610338D02*
X176284235Y-123544068D01*
X181599292Y-123610341D02*
X181524405Y-123544071D01*
X176284235Y-123544068D02*
X176363994Y-123483750D01*
X181524405Y-123544071D02*
X181444646Y-123483753D01*
X176363994Y-123483750D02*
X176448153Y-123429741D01*
X181444646Y-123483753D02*
X181360487Y-123429744D01*
X176448153Y-123429741D02*
X176536214Y-123382361D01*
X181360487Y-123429744D02*
X181272426Y-123382364D01*
X176536214Y-123382361D02*
X176627656Y-123341890D01*
X181272426Y-123382364D02*
X181180984Y-123341893D01*
X176627656Y-123341890D02*
X176721938Y-123308568D01*
X181180984Y-123341893D02*
X181086702Y-123308571D01*
X176721938Y-123308568D02*
X176818502Y-123282592D01*
X181086702Y-123308571D02*
X180990138Y-123282595D01*
X176818502Y-123282592D02*
X176916777Y-123264115D01*
X180990138Y-123282595D02*
X180891863Y-123264118D01*
X176916777Y-123264115D02*
X177016182Y-123253247D01*
X180891863Y-123264118D02*
X180792458Y-123253250D01*
X177016182Y-123253247D02*
X177116128Y-123250052D01*
X180792458Y-123253250D02*
X180692512Y-123250055D01*
X177116128Y-123250052D02*
X180692512Y-123250055D01*
X175808640Y-119499992D02*
X175816327Y-119599696D01*
X182000000Y-119499987D02*
X181992313Y-119599691D01*
X175816327Y-119599696D02*
X175831655Y-119698514D01*
X181992313Y-119599691D02*
X181976985Y-119698509D01*
X175831655Y-119698514D02*
X175854533Y-119795861D01*
X181976985Y-119698509D02*
X181954107Y-119795856D01*
X175854533Y-119795861D02*
X175884826Y-119891161D01*
X181954107Y-119795856D02*
X181923814Y-119891156D01*
X175884826Y-119891161D02*
X175922355Y-119983851D01*
X181923814Y-119891156D02*
X181886285Y-119983846D01*
X175922355Y-119983851D02*
X175966898Y-120073382D01*
X181886285Y-119983846D02*
X181841742Y-120073377D01*
X175966898Y-120073382D02*
X176018191Y-120159224D01*
X181841742Y-120073377D02*
X181790449Y-120159219D01*
X176018191Y-120159224D02*
X176075931Y-120240869D01*
X181790449Y-120159219D02*
X181732709Y-120240864D01*
X176075931Y-120240869D02*
X176139776Y-120317834D01*
X181732709Y-120240864D02*
X181668864Y-120317829D01*
X176139776Y-120317834D02*
X176209348Y-120389664D01*
X181668864Y-120317829D02*
X181599292Y-120389659D01*
X176209348Y-120389664D02*
X176284235Y-120455934D01*
X181599292Y-120389659D02*
X181524405Y-120455929D01*
X176284235Y-120455934D02*
X176363994Y-120516252D01*
X181524405Y-120455929D02*
X181444646Y-120516247D01*
X176363994Y-120516252D02*
X176448153Y-120570261D01*
X181444646Y-120516247D02*
X181360487Y-120570256D01*
X176448153Y-120570261D02*
X176536214Y-120617641D01*
X181360487Y-120570256D02*
X181272426Y-120617636D01*
X176536214Y-120617641D02*
X176627656Y-120658112D01*
X181272426Y-120617636D02*
X181180984Y-120658107D01*
X176627656Y-120658112D02*
X176721938Y-120691434D01*
X181180984Y-120658107D02*
X181086702Y-120691429D01*
X176721938Y-120691434D02*
X176818502Y-120717410D01*
X181086702Y-120691429D02*
X180990138Y-120717405D01*
X176818502Y-120717410D02*
X176916777Y-120735887D01*
X180990138Y-120717405D02*
X180891863Y-120735882D01*
X176916777Y-120735887D02*
X177016182Y-120746755D01*
X180891863Y-120735882D02*
X180792458Y-120746750D01*
X177016182Y-120746755D02*
X177116128Y-120749950D01*
X180792458Y-120746750D02*
X180692512Y-120749945D01*
X177116128Y-120749950D02*
X180692512Y-120749945D01*
X155750002Y-133377940D02*
X154906440Y-133377940D01*
X160749998Y-133377940D02*
X161066067Y-133377940D01*
X160749985Y-137000000D02*
X182000000Y-137000000D01*
X155750002Y-133377940D02*
X155849706Y-133385627D01*
X155749977Y-137000000D02*
X155849681Y-136992313D01*
X155849706Y-133385627D02*
X155948524Y-133400955D01*
X155849681Y-136992313D02*
X155948499Y-136976985D01*
X155948524Y-133400955D02*
X156045871Y-133423833D01*
X155948499Y-136976985D02*
X156045846Y-136954107D01*
X156045871Y-133423833D02*
X156141171Y-133454126D01*
X156045846Y-136954107D02*
X156141146Y-136923814D01*
X156141171Y-133454126D02*
X156233861Y-133491655D01*
X156141146Y-136923814D02*
X156233836Y-136886285D01*
X156233861Y-133491655D02*
X156323392Y-133536198D01*
X156233836Y-136886285D02*
X156323367Y-136841742D01*
X156323392Y-133536198D02*
X156409234Y-133587491D01*
X156323367Y-136841742D02*
X156409209Y-136790449D01*
X156409234Y-133587491D02*
X156490879Y-133645231D01*
X156409209Y-136790449D02*
X156490854Y-136732709D01*
X156490879Y-133645231D02*
X156567844Y-133709076D01*
X156490854Y-136732709D02*
X156567819Y-136668864D01*
X156567844Y-133709076D02*
X156639674Y-133778648D01*
X156567819Y-136668864D02*
X156639649Y-136599292D01*
X156639674Y-133778648D02*
X156705944Y-133853535D01*
X156639649Y-136599292D02*
X156705919Y-136524405D01*
X156705944Y-133853535D02*
X156766262Y-133933294D01*
X156705919Y-136524405D02*
X156766237Y-136444646D01*
X156766262Y-133933294D02*
X156820271Y-134017453D01*
X156766237Y-136444646D02*
X156820246Y-136360487D01*
X156820271Y-134017453D02*
X156867651Y-134105514D01*
X156820246Y-136360487D02*
X156867626Y-136272426D01*
X156867651Y-134105514D02*
X156908122Y-134196956D01*
X156867626Y-136272426D02*
X156908097Y-136180984D01*
X156908122Y-134196956D02*
X156941444Y-134291238D01*
X156908097Y-136180984D02*
X156941419Y-136086702D01*
X156941444Y-134291238D02*
X156967420Y-134387802D01*
X156941419Y-136086702D02*
X156967395Y-135990138D01*
X156967420Y-134387802D02*
X156985897Y-134486077D01*
X156967395Y-135990138D02*
X156985872Y-135891863D01*
X156985897Y-134486077D02*
X156996765Y-134585482D01*
X156985872Y-135891863D02*
X156996740Y-135792458D01*
X156996765Y-134585482D02*
X156999960Y-134685428D01*
X156996740Y-135792458D02*
X156999935Y-135692512D01*
X156999960Y-134685428D02*
X156999935Y-135692512D01*
X160749985Y-137000000D02*
X160650281Y-136992313D01*
X160749998Y-133377940D02*
X160650294Y-133385627D01*
X160650281Y-136992313D02*
X160551463Y-136976985D01*
X160650294Y-133385627D02*
X160551476Y-133400955D01*
X160551463Y-136976985D02*
X160454116Y-136954107D01*
X160551476Y-133400955D02*
X160454129Y-133423833D01*
X160454116Y-136954107D02*
X160358816Y-136923814D01*
X160454129Y-133423833D02*
X160358829Y-133454126D01*
X160358816Y-136923814D02*
X160266126Y-136886285D01*
X160358829Y-133454126D02*
X160266139Y-133491655D01*
X160266126Y-136886285D02*
X160176595Y-136841742D01*
X160266139Y-133491655D02*
X160176608Y-133536198D01*
X160176595Y-136841742D02*
X160090753Y-136790449D01*
X160176608Y-133536198D02*
X160090766Y-133587491D01*
X160090753Y-136790449D02*
X160009108Y-136732709D01*
X160090766Y-133587491D02*
X160009121Y-133645231D01*
X160009108Y-136732709D02*
X159932143Y-136668864D01*
X160009121Y-133645231D02*
X159932156Y-133709076D01*
X159932143Y-136668864D02*
X159860313Y-136599292D01*
X159932156Y-133709076D02*
X159860326Y-133778648D01*
X159860313Y-136599292D02*
X159794043Y-136524405D01*
X159860326Y-133778648D02*
X159794056Y-133853535D01*
X159794043Y-136524405D02*
X159733725Y-136444646D01*
X159794056Y-133853535D02*
X159733738Y-133933294D01*
X159733725Y-136444646D02*
X159679716Y-136360487D01*
X159733738Y-133933294D02*
X159679729Y-134017453D01*
X159679716Y-136360487D02*
X159632336Y-136272426D01*
X159679729Y-134017453D02*
X159632349Y-134105514D01*
X159632336Y-136272426D02*
X159591865Y-136180984D01*
X159632349Y-134105514D02*
X159591878Y-134196956D01*
X159591865Y-136180984D02*
X159558543Y-136086702D01*
X159591878Y-134196956D02*
X159558556Y-134291238D01*
X159558543Y-136086702D02*
X159532567Y-135990138D01*
X159558556Y-134291238D02*
X159532580Y-134387802D01*
X159532567Y-135990138D02*
X159514090Y-135891863D01*
X159532580Y-134387802D02*
X159514103Y-134486077D01*
X159514090Y-135891863D02*
X159503222Y-135792458D01*
X159514103Y-134486077D02*
X159503235Y-134585482D01*
X159503222Y-135792458D02*
X159500027Y-135692512D01*
X159503235Y-134585482D02*
X159500040Y-134685428D01*
X159500040Y-134685428D02*
X159500027Y-135692512D01*
X136499998Y-132120640D02*
X142212060Y-132120640D01*
X136499998Y-137000000D02*
X155749977Y-137000000D01*
X131500015Y-137000000D02*
X131599719Y-136992313D01*
X131500007Y-132120640D02*
X131599711Y-132128327D01*
X131599719Y-136992313D02*
X131698537Y-136976985D01*
X131599711Y-132128327D02*
X131698529Y-132143655D01*
X131698537Y-136976985D02*
X131795884Y-136954107D01*
X131698529Y-132143655D02*
X131795876Y-132166533D01*
X131795884Y-136954107D02*
X131891184Y-136923814D01*
X131795876Y-132166533D02*
X131891176Y-132196826D01*
X131891184Y-136923814D02*
X131983874Y-136886285D01*
X131891176Y-132196826D02*
X131983866Y-132234355D01*
X131983874Y-136886285D02*
X132073405Y-136841742D01*
X131983866Y-132234355D02*
X132073397Y-132278898D01*
X132073405Y-136841742D02*
X132159247Y-136790449D01*
X132073397Y-132278898D02*
X132159239Y-132330191D01*
X132159247Y-136790449D02*
X132240892Y-136732709D01*
X132159239Y-132330191D02*
X132240884Y-132387931D01*
X132240892Y-136732709D02*
X132317857Y-136668864D01*
X132240884Y-132387931D02*
X132317849Y-132451776D01*
X132317857Y-136668864D02*
X132389687Y-136599292D01*
X132317849Y-132451776D02*
X132389679Y-132521348D01*
X132389687Y-136599292D02*
X132455957Y-136524405D01*
X132389679Y-132521348D02*
X132455949Y-132596235D01*
X132455957Y-136524405D02*
X132516275Y-136444646D01*
X132455949Y-132596235D02*
X132516267Y-132675994D01*
X132516275Y-136444646D02*
X132570284Y-136360487D01*
X132516267Y-132675994D02*
X132570276Y-132760153D01*
X132570284Y-136360487D02*
X132617664Y-136272426D01*
X132570276Y-132760153D02*
X132617656Y-132848214D01*
X132617664Y-136272426D02*
X132658135Y-136180984D01*
X132617656Y-132848214D02*
X132658127Y-132939656D01*
X132658135Y-136180984D02*
X132691457Y-136086702D01*
X132658127Y-132939656D02*
X132691449Y-133033938D01*
X132691457Y-136086702D02*
X132717433Y-135990138D01*
X132691449Y-133033938D02*
X132717425Y-133130502D01*
X132717433Y-135990138D02*
X132735910Y-135891863D01*
X132717425Y-133130502D02*
X132735902Y-133228777D01*
X132735910Y-135891863D02*
X132746778Y-135792458D01*
X132735902Y-133228777D02*
X132746770Y-133328182D01*
X132746778Y-135792458D02*
X132749973Y-135692512D01*
X132746770Y-133328182D02*
X132749965Y-133428128D01*
X132749965Y-133428128D02*
X132749973Y-135692512D01*
X136499998Y-137000000D02*
X136400294Y-136992313D01*
X136499998Y-132120640D02*
X136400294Y-132128327D01*
X136400294Y-136992313D02*
X136301476Y-136976985D01*
X136400294Y-132128327D02*
X136301476Y-132143655D01*
X136301476Y-136976985D02*
X136204129Y-136954107D01*
X136301476Y-132143655D02*
X136204129Y-132166533D01*
X136204129Y-136954107D02*
X136108829Y-136923814D01*
X136204129Y-132166533D02*
X136108829Y-132196826D01*
X136108829Y-136923814D02*
X136016139Y-136886285D01*
X136108829Y-132196826D02*
X136016139Y-132234355D01*
X136016139Y-136886285D02*
X135926608Y-136841742D01*
X136016139Y-132234355D02*
X135926608Y-132278898D01*
X135926608Y-136841742D02*
X135840766Y-136790449D01*
X135926608Y-132278898D02*
X135840766Y-132330191D01*
X135840766Y-136790449D02*
X135759121Y-136732709D01*
X135840766Y-132330191D02*
X135759121Y-132387931D01*
X135759121Y-136732709D02*
X135682156Y-136668864D01*
X135759121Y-132387931D02*
X135682156Y-132451776D01*
X135682156Y-136668864D02*
X135610326Y-136599292D01*
X135682156Y-132451776D02*
X135610326Y-132521348D01*
X135610326Y-136599292D02*
X135544056Y-136524405D01*
X135610326Y-132521348D02*
X135544056Y-132596235D01*
X135544056Y-136524405D02*
X135483738Y-136444646D01*
X135544056Y-132596235D02*
X135483738Y-132675994D01*
X135483738Y-136444646D02*
X135429729Y-136360487D01*
X135483738Y-132675994D02*
X135429729Y-132760153D01*
X135429729Y-136360487D02*
X135382349Y-136272426D01*
X135429729Y-132760153D02*
X135382349Y-132848214D01*
X135382349Y-136272426D02*
X135341878Y-136180984D01*
X135382349Y-132848214D02*
X135341878Y-132939656D01*
X135341878Y-136180984D02*
X135308556Y-136086702D01*
X135341878Y-132939656D02*
X135308556Y-133033938D01*
X135308556Y-136086702D02*
X135282580Y-135990138D01*
X135308556Y-133033938D02*
X135282580Y-133130502D01*
X135282580Y-135990138D02*
X135264103Y-135891863D01*
X135282580Y-133130502D02*
X135264103Y-133228777D01*
X135264103Y-135891863D02*
X135253235Y-135792458D01*
X135264103Y-133228777D02*
X135253235Y-133328182D01*
X135253235Y-135792458D02*
X135250040Y-135692512D01*
X135253235Y-133328182D02*
X135250040Y-133428128D01*
X135250040Y-133428128D02*
X135250040Y-135692512D01*
X103500010Y-132120640D02*
X131500007Y-132120640D01*
X98500007Y-132120640D02*
X93952060Y-132120640D01*
X103500010Y-137000000D02*
X131500015Y-137000000D01*
X98500002Y-137000000D02*
X88000000Y-137000000D01*
X98500007Y-132120640D02*
X98599711Y-132128327D01*
X98500002Y-137000000D02*
X98599706Y-136992313D01*
X98599711Y-132128327D02*
X98698529Y-132143655D01*
X98599706Y-136992313D02*
X98698524Y-136976985D01*
X98698529Y-132143655D02*
X98795876Y-132166533D01*
X98698524Y-136976985D02*
X98795871Y-136954107D01*
X98795876Y-132166533D02*
X98891176Y-132196826D01*
X98795871Y-136954107D02*
X98891171Y-136923814D01*
X98891176Y-132196826D02*
X98983866Y-132234355D01*
X98891171Y-136923814D02*
X98983861Y-136886285D01*
X98983866Y-132234355D02*
X99073397Y-132278898D01*
X98983861Y-136886285D02*
X99073392Y-136841742D01*
X99073397Y-132278898D02*
X99159239Y-132330191D01*
X99073392Y-136841742D02*
X99159234Y-136790449D01*
X99159239Y-132330191D02*
X99240884Y-132387931D01*
X99159234Y-136790449D02*
X99240879Y-136732709D01*
X99240884Y-132387931D02*
X99317849Y-132451776D01*
X99240879Y-136732709D02*
X99317844Y-136668864D01*
X99317849Y-132451776D02*
X99389679Y-132521348D01*
X99317844Y-136668864D02*
X99389674Y-136599292D01*
X99389679Y-132521348D02*
X99455949Y-132596235D01*
X99389674Y-136599292D02*
X99455944Y-136524405D01*
X99455949Y-132596235D02*
X99516267Y-132675994D01*
X99455944Y-136524405D02*
X99516262Y-136444646D01*
X99516267Y-132675994D02*
X99570276Y-132760153D01*
X99516262Y-136444646D02*
X99570271Y-136360487D01*
X99570276Y-132760153D02*
X99617656Y-132848214D01*
X99570271Y-136360487D02*
X99617651Y-136272426D01*
X99617656Y-132848214D02*
X99658127Y-132939656D01*
X99617651Y-136272426D02*
X99658122Y-136180984D01*
X99658127Y-132939656D02*
X99691449Y-133033938D01*
X99658122Y-136180984D02*
X99691444Y-136086702D01*
X99691449Y-133033938D02*
X99717425Y-133130502D01*
X99691444Y-136086702D02*
X99717420Y-135990138D01*
X99717425Y-133130502D02*
X99735902Y-133228777D01*
X99717420Y-135990138D02*
X99735897Y-135891863D01*
X99735902Y-133228777D02*
X99746770Y-133328182D01*
X99735897Y-135891863D02*
X99746765Y-135792458D01*
X99746770Y-133328182D02*
X99749965Y-133428128D01*
X99746765Y-135792458D02*
X99749960Y-135692512D01*
X99749965Y-133428128D02*
X99749960Y-135692512D01*
X103500010Y-137000000D02*
X103400306Y-136992313D01*
X103500010Y-132120640D02*
X103400306Y-132128327D01*
X103400306Y-136992313D02*
X103301488Y-136976985D01*
X103400306Y-132128327D02*
X103301488Y-132143655D01*
X103301488Y-136976985D02*
X103204141Y-136954107D01*
X103301488Y-132143655D02*
X103204141Y-132166533D01*
X103204141Y-136954107D02*
X103108841Y-136923814D01*
X103204141Y-132166533D02*
X103108841Y-132196826D01*
X103108841Y-136923814D02*
X103016151Y-136886285D01*
X103108841Y-132196826D02*
X103016151Y-132234355D01*
X103016151Y-136886285D02*
X102926620Y-136841742D01*
X103016151Y-132234355D02*
X102926620Y-132278898D01*
X102926620Y-136841742D02*
X102840778Y-136790449D01*
X102926620Y-132278898D02*
X102840778Y-132330191D01*
X102840778Y-136790449D02*
X102759133Y-136732709D01*
X102840778Y-132330191D02*
X102759133Y-132387931D01*
X102759133Y-136732709D02*
X102682168Y-136668864D01*
X102759133Y-132387931D02*
X102682168Y-132451776D01*
X102682168Y-136668864D02*
X102610338Y-136599292D01*
X102682168Y-132451776D02*
X102610338Y-132521348D01*
X102610338Y-136599292D02*
X102544068Y-136524405D01*
X102610338Y-132521348D02*
X102544068Y-132596235D01*
X102544068Y-136524405D02*
X102483750Y-136444646D01*
X102544068Y-132596235D02*
X102483750Y-132675994D01*
X102483750Y-136444646D02*
X102429741Y-136360487D01*
X102483750Y-132675994D02*
X102429741Y-132760153D01*
X102429741Y-136360487D02*
X102382361Y-136272426D01*
X102429741Y-132760153D02*
X102382361Y-132848214D01*
X102382361Y-136272426D02*
X102341890Y-136180984D01*
X102382361Y-132848214D02*
X102341890Y-132939656D01*
X102341890Y-136180984D02*
X102308568Y-136086702D01*
X102341890Y-132939656D02*
X102308568Y-133033938D01*
X102308568Y-136086702D02*
X102282592Y-135990138D01*
X102308568Y-133033938D02*
X102282592Y-133130502D01*
X102282592Y-135990138D02*
X102264115Y-135891863D01*
X102282592Y-133130502D02*
X102264115Y-133228777D01*
X102264115Y-135891863D02*
X102253247Y-135792458D01*
X102264115Y-133228777D02*
X102253247Y-133328182D01*
X102253247Y-135792458D02*
X102250052Y-135692512D01*
X102253247Y-133328182D02*
X102250052Y-133428128D01*
X102250052Y-133428128D02*
X102250052Y-135692512D01*
X88000000Y-117020000D02*
X88000000Y-137000000D01*
X91412060Y-112020000D02*
X91412060Y-111218440D01*
X91412060Y-117020000D02*
X91412060Y-117378067D01*
X91412060Y-117020000D02*
X91404373Y-116920296D01*
X88000000Y-117020000D02*
X88007687Y-116920296D01*
X91404373Y-116920296D02*
X91389045Y-116821478D01*
X88007687Y-116920296D02*
X88023015Y-116821478D01*
X91389045Y-116821478D02*
X91366167Y-116724131D01*
X88023015Y-116821478D02*
X88045893Y-116724131D01*
X91366167Y-116724131D02*
X91335874Y-116628831D01*
X88045893Y-116724131D02*
X88076186Y-116628831D01*
X91335874Y-116628831D02*
X91298345Y-116536141D01*
X88076186Y-116628831D02*
X88113715Y-116536141D01*
X91298345Y-116536141D02*
X91253802Y-116446610D01*
X88113715Y-116536141D02*
X88158258Y-116446610D01*
X91253802Y-116446610D02*
X91202509Y-116360768D01*
X88158258Y-116446610D02*
X88209551Y-116360768D01*
X91202509Y-116360768D02*
X91144769Y-116279123D01*
X88209551Y-116360768D02*
X88267291Y-116279123D01*
X91144769Y-116279123D02*
X91080924Y-116202158D01*
X88267291Y-116279123D02*
X88331136Y-116202158D01*
X91080924Y-116202158D02*
X91011352Y-116130328D01*
X88331136Y-116202158D02*
X88400708Y-116130328D01*
X91011352Y-116130328D02*
X90936465Y-116064058D01*
X88400708Y-116130328D02*
X88475595Y-116064058D01*
X90936465Y-116064058D02*
X90856706Y-116003740D01*
X88475595Y-116064058D02*
X88555354Y-116003740D01*
X90856706Y-116003740D02*
X90772547Y-115949731D01*
X88555354Y-116003740D02*
X88639513Y-115949731D01*
X90772547Y-115949731D02*
X90684486Y-115902351D01*
X88639513Y-115949731D02*
X88727574Y-115902351D01*
X90684486Y-115902351D02*
X90593044Y-115861880D01*
X88727574Y-115902351D02*
X88819016Y-115861880D01*
X90593044Y-115861880D02*
X90498762Y-115828558D01*
X88819016Y-115861880D02*
X88913298Y-115828558D01*
X90498762Y-115828558D02*
X90402198Y-115802582D01*
X88913298Y-115828558D02*
X89009862Y-115802582D01*
X90402198Y-115802582D02*
X90303923Y-115784105D01*
X89009862Y-115802582D02*
X89108137Y-115784105D01*
X90303923Y-115784105D02*
X90204518Y-115773237D01*
X89108137Y-115784105D02*
X89207542Y-115773237D01*
X90204518Y-115773237D02*
X90104572Y-115770042D01*
X89207542Y-115773237D02*
X89307488Y-115770042D01*
X89307488Y-115770042D02*
X90104572Y-115770042D01*
X88000000Y-112020017D02*
X88007687Y-112119721D01*
X91412060Y-112020000D02*
X91404373Y-112119704D01*
X88007687Y-112119721D02*
X88023015Y-112218539D01*
X91404373Y-112119704D02*
X91389045Y-112218522D01*
X88023015Y-112218539D02*
X88045893Y-112315886D01*
X91389045Y-112218522D02*
X91366167Y-112315869D01*
X88045893Y-112315886D02*
X88076186Y-112411186D01*
X91366167Y-112315869D02*
X91335874Y-112411169D01*
X88076186Y-112411186D02*
X88113715Y-112503876D01*
X91335874Y-112411169D02*
X91298345Y-112503859D01*
X88113715Y-112503876D02*
X88158258Y-112593407D01*
X91298345Y-112503859D02*
X91253802Y-112593390D01*
X88158258Y-112593407D02*
X88209551Y-112679249D01*
X91253802Y-112593390D02*
X91202509Y-112679232D01*
X88209551Y-112679249D02*
X88267291Y-112760894D01*
X91202509Y-112679232D02*
X91144769Y-112760877D01*
X88267291Y-112760894D02*
X88331136Y-112837859D01*
X91144769Y-112760877D02*
X91080924Y-112837842D01*
X88331136Y-112837859D02*
X88400708Y-112909689D01*
X91080924Y-112837842D02*
X91011352Y-112909672D01*
X88400708Y-112909689D02*
X88475595Y-112975959D01*
X91011352Y-112909672D02*
X90936465Y-112975942D01*
X88475595Y-112975959D02*
X88555354Y-113036277D01*
X90936465Y-112975942D02*
X90856706Y-113036260D01*
X88555354Y-113036277D02*
X88639513Y-113090286D01*
X90856706Y-113036260D02*
X90772547Y-113090269D01*
X88639513Y-113090286D02*
X88727574Y-113137666D01*
X90772547Y-113090269D02*
X90684486Y-113137649D01*
X88727574Y-113137666D02*
X88819016Y-113178137D01*
X90684486Y-113137649D02*
X90593044Y-113178120D01*
X88819016Y-113178137D02*
X88913298Y-113211459D01*
X90593044Y-113178120D02*
X90498762Y-113211442D01*
X88913298Y-113211459D02*
X89009862Y-113237435D01*
X90498762Y-113211442D02*
X90402198Y-113237418D01*
X89009862Y-113237435D02*
X89108137Y-113255912D01*
X90402198Y-113237418D02*
X90303923Y-113255895D01*
X89108137Y-113255912D02*
X89207542Y-113266780D01*
X90303923Y-113255895D02*
X90204518Y-113266763D01*
X89207542Y-113266780D02*
X89307488Y-113269975D01*
X90204518Y-113266763D02*
X90104572Y-113269958D01*
X89307488Y-113269975D02*
X90104572Y-113269958D01*
X88000000Y-86385008D02*
X88000000Y-112020017D01*
X91412060Y-81384997D02*
X91412060Y-81246440D01*
X91412060Y-86385003D02*
X91412060Y-87406067D01*
X91412060Y-86385003D02*
X91404373Y-86285299D01*
X88000000Y-86385008D02*
X88007687Y-86285304D01*
X91404373Y-86285299D02*
X91389045Y-86186481D01*
X88007687Y-86285304D02*
X88023015Y-86186486D01*
X91389045Y-86186481D02*
X91366167Y-86089134D01*
X88023015Y-86186486D02*
X88045893Y-86089139D01*
X91366167Y-86089134D02*
X91335874Y-85993834D01*
X88045893Y-86089139D02*
X88076186Y-85993839D01*
X91335874Y-85993834D02*
X91298345Y-85901144D01*
X88076186Y-85993839D02*
X88113715Y-85901149D01*
X91298345Y-85901144D02*
X91253802Y-85811613D01*
X88113715Y-85901149D02*
X88158258Y-85811618D01*
X91253802Y-85811613D02*
X91202509Y-85725771D01*
X88158258Y-85811618D02*
X88209551Y-85725776D01*
X91202509Y-85725771D02*
X91144769Y-85644126D01*
X88209551Y-85725776D02*
X88267291Y-85644131D01*
X91144769Y-85644126D02*
X91080924Y-85567161D01*
X88267291Y-85644131D02*
X88331136Y-85567166D01*
X91080924Y-85567161D02*
X91011352Y-85495331D01*
X88331136Y-85567166D02*
X88400708Y-85495336D01*
X91011352Y-85495331D02*
X90936465Y-85429061D01*
X88400708Y-85495336D02*
X88475595Y-85429066D01*
X90936465Y-85429061D02*
X90856706Y-85368743D01*
X88475595Y-85429066D02*
X88555354Y-85368748D01*
X90856706Y-85368743D02*
X90772547Y-85314734D01*
X88555354Y-85368748D02*
X88639513Y-85314739D01*
X90772547Y-85314734D02*
X90684486Y-85267354D01*
X88639513Y-85314739D02*
X88727574Y-85267359D01*
X90684486Y-85267354D02*
X90593044Y-85226883D01*
X88727574Y-85267359D02*
X88819016Y-85226888D01*
X90593044Y-85226883D02*
X90498762Y-85193561D01*
X88819016Y-85226888D02*
X88913298Y-85193566D01*
X90498762Y-85193561D02*
X90402198Y-85167585D01*
X88913298Y-85193566D02*
X89009862Y-85167590D01*
X90402198Y-85167585D02*
X90303923Y-85149108D01*
X89009862Y-85167590D02*
X89108137Y-85149113D01*
X90303923Y-85149108D02*
X90204518Y-85138240D01*
X89108137Y-85149113D02*
X89207542Y-85138245D01*
X90204518Y-85138240D02*
X90104572Y-85135045D01*
X89207542Y-85138245D02*
X89307488Y-85135050D01*
X89307488Y-85135050D02*
X90104572Y-85135045D01*
X91412060Y-81384997D02*
X91404373Y-81484701D01*
X88000000Y-81384985D02*
X88007687Y-81484689D01*
X91404373Y-81484701D02*
X91389045Y-81583519D01*
X88007687Y-81484689D02*
X88023015Y-81583507D01*
X91389045Y-81583519D02*
X91366167Y-81680866D01*
X88023015Y-81583507D02*
X88045893Y-81680854D01*
X91366167Y-81680866D02*
X91335874Y-81776166D01*
X88045893Y-81680854D02*
X88076186Y-81776154D01*
X91335874Y-81776166D02*
X91298345Y-81868856D01*
X88076186Y-81776154D02*
X88113715Y-81868844D01*
X91298345Y-81868856D02*
X91253802Y-81958387D01*
X88113715Y-81868844D02*
X88158258Y-81958375D01*
X91253802Y-81958387D02*
X91202509Y-82044229D01*
X88158258Y-81958375D02*
X88209551Y-82044217D01*
X91202509Y-82044229D02*
X91144769Y-82125874D01*
X88209551Y-82044217D02*
X88267291Y-82125862D01*
X91144769Y-82125874D02*
X91080924Y-82202839D01*
X88267291Y-82125862D02*
X88331136Y-82202827D01*
X91080924Y-82202839D02*
X91011352Y-82274669D01*
X88331136Y-82202827D02*
X88400708Y-82274657D01*
X91011352Y-82274669D02*
X90936465Y-82340939D01*
X88400708Y-82274657D02*
X88475595Y-82340927D01*
X90936465Y-82340939D02*
X90856706Y-82401257D01*
X88475595Y-82340927D02*
X88555354Y-82401245D01*
X90856706Y-82401257D02*
X90772547Y-82455266D01*
X88555354Y-82401245D02*
X88639513Y-82455254D01*
X90772547Y-82455266D02*
X90684486Y-82502646D01*
X88639513Y-82455254D02*
X88727574Y-82502634D01*
X90684486Y-82502646D02*
X90593044Y-82543117D01*
X88727574Y-82502634D02*
X88819016Y-82543105D01*
X90593044Y-82543117D02*
X90498762Y-82576439D01*
X88819016Y-82543105D02*
X88913298Y-82576427D01*
X90498762Y-82576439D02*
X90402198Y-82602415D01*
X88913298Y-82576427D02*
X89009862Y-82602403D01*
X90402198Y-82602415D02*
X90303923Y-82620892D01*
X89009862Y-82602403D02*
X89108137Y-82620880D01*
X90303923Y-82620892D02*
X90204518Y-82631760D01*
X89108137Y-82620880D02*
X89207542Y-82631748D01*
X90204518Y-82631760D02*
X90104572Y-82634955D01*
X89207542Y-82631748D02*
X89307488Y-82634943D01*
X89307488Y-82634943D02*
X90104572Y-82634955D01*
X88000000Y-56511975D02*
X88000000Y-81384985D01*
X88000000Y-51512000D02*
X88000000Y-43000000D01*
X91412060Y-51512002D02*
X91412060Y-50766440D01*
X91412060Y-56512000D02*
X91412060Y-56926067D01*
X88000000Y-56511975D02*
X88007687Y-56412271D01*
X91412060Y-56512000D02*
X91404373Y-56412296D01*
X88007687Y-56412271D02*
X88023015Y-56313453D01*
X91404373Y-56412296D02*
X91389045Y-56313478D01*
X88023015Y-56313453D02*
X88045893Y-56216106D01*
X91389045Y-56313478D02*
X91366167Y-56216131D01*
X88045893Y-56216106D02*
X88076186Y-56120806D01*
X91366167Y-56216131D02*
X91335874Y-56120831D01*
X88076186Y-56120806D02*
X88113715Y-56028116D01*
X91335874Y-56120831D02*
X91298345Y-56028141D01*
X88113715Y-56028116D02*
X88158258Y-55938585D01*
X91298345Y-56028141D02*
X91253802Y-55938610D01*
X88158258Y-55938585D02*
X88209551Y-55852743D01*
X91253802Y-55938610D02*
X91202509Y-55852768D01*
X88209551Y-55852743D02*
X88267291Y-55771098D01*
X91202509Y-55852768D02*
X91144769Y-55771123D01*
X88267291Y-55771098D02*
X88331136Y-55694133D01*
X91144769Y-55771123D02*
X91080924Y-55694158D01*
X88331136Y-55694133D02*
X88400708Y-55622303D01*
X91080924Y-55694158D02*
X91011352Y-55622328D01*
X88400708Y-55622303D02*
X88475595Y-55556033D01*
X91011352Y-55622328D02*
X90936465Y-55556058D01*
X88475595Y-55556033D02*
X88555354Y-55495715D01*
X90936465Y-55556058D02*
X90856706Y-55495740D01*
X88555354Y-55495715D02*
X88639513Y-55441706D01*
X90856706Y-55495740D02*
X90772547Y-55441731D01*
X88639513Y-55441706D02*
X88727574Y-55394326D01*
X90772547Y-55441731D02*
X90684486Y-55394351D01*
X88727574Y-55394326D02*
X88819016Y-55353855D01*
X90684486Y-55394351D02*
X90593044Y-55353880D01*
X88819016Y-55353855D02*
X88913298Y-55320533D01*
X90593044Y-55353880D02*
X90498762Y-55320558D01*
X88913298Y-55320533D02*
X89009862Y-55294557D01*
X90498762Y-55320558D02*
X90402198Y-55294582D01*
X89009862Y-55294557D02*
X89108137Y-55276080D01*
X90402198Y-55294582D02*
X90303923Y-55276105D01*
X89108137Y-55276080D02*
X89207542Y-55265212D01*
X90303923Y-55276105D02*
X90204518Y-55265237D01*
X89207542Y-55265212D02*
X89307488Y-55262017D01*
X90204518Y-55265237D02*
X90104572Y-55262042D01*
X89307488Y-55262017D02*
X90104572Y-55262042D01*
X91412060Y-51512002D02*
X91404373Y-51611706D01*
X88000000Y-51512000D02*
X88007687Y-51611704D01*
X91404373Y-51611706D02*
X91389045Y-51710524D01*
X88007687Y-51611704D02*
X88023015Y-51710522D01*
X91389045Y-51710524D02*
X91366167Y-51807871D01*
X88023015Y-51710522D02*
X88045893Y-51807869D01*
X91366167Y-51807871D02*
X91335874Y-51903171D01*
X88045893Y-51807869D02*
X88076186Y-51903169D01*
X91335874Y-51903171D02*
X91298345Y-51995861D01*
X88076186Y-51903169D02*
X88113715Y-51995859D01*
X91298345Y-51995861D02*
X91253802Y-52085392D01*
X88113715Y-51995859D02*
X88158258Y-52085390D01*
X91253802Y-52085392D02*
X91202509Y-52171234D01*
X88158258Y-52085390D02*
X88209551Y-52171232D01*
X91202509Y-52171234D02*
X91144769Y-52252879D01*
X88209551Y-52171232D02*
X88267291Y-52252877D01*
X91144769Y-52252879D02*
X91080924Y-52329844D01*
X88267291Y-52252877D02*
X88331136Y-52329842D01*
X91080924Y-52329844D02*
X91011352Y-52401674D01*
X88331136Y-52329842D02*
X88400708Y-52401672D01*
X91011352Y-52401674D02*
X90936465Y-52467944D01*
X88400708Y-52401672D02*
X88475595Y-52467942D01*
X90936465Y-52467944D02*
X90856706Y-52528262D01*
X88475595Y-52467942D02*
X88555354Y-52528260D01*
X90856706Y-52528262D02*
X90772547Y-52582271D01*
X88555354Y-52528260D02*
X88639513Y-52582269D01*
X90772547Y-52582271D02*
X90684486Y-52629651D01*
X88639513Y-52582269D02*
X88727574Y-52629649D01*
X90684486Y-52629651D02*
X90593044Y-52670122D01*
X88727574Y-52629649D02*
X88819016Y-52670120D01*
X90593044Y-52670122D02*
X90498762Y-52703444D01*
X88819016Y-52670120D02*
X88913298Y-52703442D01*
X90498762Y-52703444D02*
X90402198Y-52729420D01*
X88913298Y-52703442D02*
X89009862Y-52729418D01*
X90402198Y-52729420D02*
X90303923Y-52747897D01*
X89009862Y-52729418D02*
X89108137Y-52747895D01*
X90303923Y-52747897D02*
X90204518Y-52758765D01*
X89108137Y-52747895D02*
X89207542Y-52758763D01*
X90204518Y-52758765D02*
X90104572Y-52761960D01*
X89207542Y-52758763D02*
X89307488Y-52761958D01*
X89307488Y-52761958D02*
X90104572Y-52761960D01*
X136499998Y-43000000D02*
X147000000Y-43000000D01*
X136500000Y-48226440D02*
X142240013Y-48226440D01*
X131500015Y-43000000D02*
X131599719Y-43007687D01*
X131500007Y-48226440D02*
X131599711Y-48218753D01*
X131599719Y-43007687D02*
X131698537Y-43023015D01*
X131599711Y-48218753D02*
X131698529Y-48203425D01*
X131698537Y-43023015D02*
X131795884Y-43045893D01*
X131698529Y-48203425D02*
X131795876Y-48180547D01*
X131795884Y-43045893D02*
X131891184Y-43076186D01*
X131795876Y-48180547D02*
X131891176Y-48150254D01*
X131891184Y-43076186D02*
X131983874Y-43113715D01*
X131891176Y-48150254D02*
X131983866Y-48112725D01*
X131983874Y-43113715D02*
X132073405Y-43158258D01*
X131983866Y-48112725D02*
X132073397Y-48068182D01*
X132073405Y-43158258D02*
X132159247Y-43209551D01*
X132073397Y-48068182D02*
X132159239Y-48016889D01*
X132159247Y-43209551D02*
X132240892Y-43267291D01*
X132159239Y-48016889D02*
X132240884Y-47959149D01*
X132240892Y-43267291D02*
X132317857Y-43331136D01*
X132240884Y-47959149D02*
X132317849Y-47895304D01*
X132317857Y-43331136D02*
X132389687Y-43400708D01*
X132317849Y-47895304D02*
X132389679Y-47825732D01*
X132389687Y-43400708D02*
X132455957Y-43475595D01*
X132389679Y-47825732D02*
X132455949Y-47750845D01*
X132455957Y-43475595D02*
X132516275Y-43555354D01*
X132455949Y-47750845D02*
X132516267Y-47671086D01*
X132516275Y-43555354D02*
X132570284Y-43639513D01*
X132516267Y-47671086D02*
X132570276Y-47586927D01*
X132570284Y-43639513D02*
X132617664Y-43727574D01*
X132570276Y-47586927D02*
X132617656Y-47498866D01*
X132617664Y-43727574D02*
X132658135Y-43819016D01*
X132617656Y-47498866D02*
X132658127Y-47407424D01*
X132658135Y-43819016D02*
X132691457Y-43913298D01*
X132658127Y-47407424D02*
X132691449Y-47313142D01*
X132691457Y-43913298D02*
X132717433Y-44009862D01*
X132691449Y-47313142D02*
X132717425Y-47216578D01*
X132717433Y-44009862D02*
X132735910Y-44108137D01*
X132717425Y-47216578D02*
X132735902Y-47118303D01*
X132735910Y-44108137D02*
X132746778Y-44207542D01*
X132735902Y-47118303D02*
X132746770Y-47018898D01*
X132746778Y-44207542D02*
X132749973Y-44307488D01*
X132746770Y-47018898D02*
X132749965Y-46918952D01*
X132749973Y-44307488D02*
X132749965Y-46918952D01*
X136500000Y-48226440D02*
X136400296Y-48218753D01*
X136499998Y-43000000D02*
X136400294Y-43007687D01*
X136400296Y-48218753D02*
X136301478Y-48203425D01*
X136400294Y-43007687D02*
X136301476Y-43023015D01*
X136301478Y-48203425D02*
X136204131Y-48180547D01*
X136301476Y-43023015D02*
X136204129Y-43045893D01*
X136204131Y-48180547D02*
X136108831Y-48150254D01*
X136204129Y-43045893D02*
X136108829Y-43076186D01*
X136108831Y-48150254D02*
X136016141Y-48112725D01*
X136108829Y-43076186D02*
X136016139Y-43113715D01*
X136016141Y-48112725D02*
X135926610Y-48068182D01*
X136016139Y-43113715D02*
X135926608Y-43158258D01*
X135926610Y-48068182D02*
X135840768Y-48016889D01*
X135926608Y-43158258D02*
X135840766Y-43209551D01*
X135840768Y-48016889D02*
X135759123Y-47959149D01*
X135840766Y-43209551D02*
X135759121Y-43267291D01*
X135759123Y-47959149D02*
X135682158Y-47895304D01*
X135759121Y-43267291D02*
X135682156Y-43331136D01*
X135682158Y-47895304D02*
X135610328Y-47825732D01*
X135682156Y-43331136D02*
X135610326Y-43400708D01*
X135610328Y-47825732D02*
X135544058Y-47750845D01*
X135610326Y-43400708D02*
X135544056Y-43475595D01*
X135544058Y-47750845D02*
X135483740Y-47671086D01*
X135544056Y-43475595D02*
X135483738Y-43555354D01*
X135483740Y-47671086D02*
X135429731Y-47586927D01*
X135483738Y-43555354D02*
X135429729Y-43639513D01*
X135429729Y-43639513D02*
X135382349Y-43727574D01*
X135429731Y-47586927D02*
X135382351Y-47498866D01*
X135382349Y-43727574D02*
X135341878Y-43819016D01*
X135382351Y-47498866D02*
X135341880Y-47407424D01*
X135341878Y-43819016D02*
X135308556Y-43913298D01*
X135341880Y-47407424D02*
X135308558Y-47313142D01*
X135308556Y-43913298D02*
X135282580Y-44009862D01*
X135308558Y-47313142D02*
X135282582Y-47216578D01*
X135282580Y-44009862D02*
X135264103Y-44108137D01*
X135282582Y-47216578D02*
X135264105Y-47118303D01*
X135264103Y-44108137D02*
X135253235Y-44207542D01*
X135264105Y-47118303D02*
X135253237Y-47018898D01*
X135253235Y-44207542D02*
X135250040Y-44307488D01*
X135253237Y-47018898D02*
X135250042Y-46918952D01*
X135250040Y-44307488D02*
X135250042Y-46918952D01*
X103500010Y-43000000D02*
X131500015Y-43000000D01*
X98500002Y-43000000D02*
X88000000Y-43000000D01*
X103500010Y-48226440D02*
X131500007Y-48226440D01*
X98500007Y-48226440D02*
X93952060Y-48226440D01*
X98500007Y-48226440D02*
X98599711Y-48218753D01*
X98500002Y-43000000D02*
X98599706Y-43007687D01*
X98599711Y-48218753D02*
X98698529Y-48203425D01*
X98599706Y-43007687D02*
X98698524Y-43023015D01*
X98698529Y-48203425D02*
X98795876Y-48180547D01*
X98698524Y-43023015D02*
X98795871Y-43045893D01*
X98795876Y-48180547D02*
X98891176Y-48150254D01*
X98795871Y-43045893D02*
X98891171Y-43076186D01*
X98891176Y-48150254D02*
X98983866Y-48112725D01*
X98891171Y-43076186D02*
X98983861Y-43113715D01*
X98983866Y-48112725D02*
X99073397Y-48068182D01*
X98983861Y-43113715D02*
X99073392Y-43158258D01*
X99073397Y-48068182D02*
X99159239Y-48016889D01*
X99073392Y-43158258D02*
X99159234Y-43209551D01*
X99159239Y-48016889D02*
X99240884Y-47959149D01*
X99159234Y-43209551D02*
X99240879Y-43267291D01*
X99240884Y-47959149D02*
X99317849Y-47895304D01*
X99240879Y-43267291D02*
X99317844Y-43331136D01*
X99317849Y-47895304D02*
X99389679Y-47825732D01*
X99317844Y-43331136D02*
X99389674Y-43400708D01*
X99389679Y-47825732D02*
X99455949Y-47750845D01*
X99389674Y-43400708D02*
X99455944Y-43475595D01*
X99455949Y-47750845D02*
X99516267Y-47671086D01*
X99455944Y-43475595D02*
X99516262Y-43555354D01*
X99516267Y-47671086D02*
X99570276Y-47586927D01*
X99516262Y-43555354D02*
X99570271Y-43639513D01*
X99570276Y-47586927D02*
X99617656Y-47498866D01*
X99570271Y-43639513D02*
X99617651Y-43727574D01*
X99617656Y-47498866D02*
X99658127Y-47407424D01*
X99617651Y-43727574D02*
X99658122Y-43819016D01*
X99658127Y-47407424D02*
X99691449Y-47313142D01*
X99658122Y-43819016D02*
X99691444Y-43913298D01*
X99691449Y-47313142D02*
X99717425Y-47216578D01*
X99691444Y-43913298D02*
X99717420Y-44009862D01*
X99717425Y-47216578D02*
X99735902Y-47118303D01*
X99717420Y-44009862D02*
X99735897Y-44108137D01*
X99735902Y-47118303D02*
X99746770Y-47018898D01*
X99735897Y-44108137D02*
X99746765Y-44207542D01*
X99746770Y-47018898D02*
X99749965Y-46918952D01*
X99746765Y-44207542D02*
X99749960Y-44307488D01*
X99749960Y-44307488D02*
X99749965Y-46918952D01*
X103500010Y-48226440D02*
X103400306Y-48218753D01*
X103500010Y-43000000D02*
X103400306Y-43007687D01*
X103400306Y-48218753D02*
X103301488Y-48203425D01*
X103400306Y-43007687D02*
X103301488Y-43023015D01*
X103301488Y-48203425D02*
X103204141Y-48180547D01*
X103301488Y-43023015D02*
X103204141Y-43045893D01*
X103204141Y-48180547D02*
X103108841Y-48150254D01*
X103204141Y-43045893D02*
X103108841Y-43076186D01*
X103108841Y-48150254D02*
X103016151Y-48112725D01*
X103108841Y-43076186D02*
X103016151Y-43113715D01*
X103016151Y-48112725D02*
X102926620Y-48068182D01*
X103016151Y-43113715D02*
X102926620Y-43158258D01*
X102926620Y-48068182D02*
X102840778Y-48016889D01*
X102926620Y-43158258D02*
X102840778Y-43209551D01*
X102840778Y-48016889D02*
X102759133Y-47959149D01*
X102840778Y-43209551D02*
X102759133Y-43267291D01*
X102759133Y-47959149D02*
X102682168Y-47895304D01*
X102759133Y-43267291D02*
X102682168Y-43331136D01*
X102682168Y-47895304D02*
X102610338Y-47825732D01*
X102682168Y-43331136D02*
X102610338Y-43400708D01*
X102610338Y-47825732D02*
X102544068Y-47750845D01*
X102610338Y-43400708D02*
X102544068Y-43475595D01*
X102544068Y-47750845D02*
X102483750Y-47671086D01*
X102544068Y-43475595D02*
X102483750Y-43555354D01*
X102483750Y-47671086D02*
X102429741Y-47586927D01*
X102483750Y-43555354D02*
X102429741Y-43639513D01*
X102429741Y-47586927D02*
X102382361Y-47498866D01*
X102429741Y-43639513D02*
X102382361Y-43727574D01*
X102382361Y-47498866D02*
X102341890Y-47407424D01*
X102382361Y-43727574D02*
X102341890Y-43819016D01*
X102341890Y-47407424D02*
X102308568Y-47313142D01*
X102341890Y-43819016D02*
X102308568Y-43913298D01*
X102308568Y-47313142D02*
X102282592Y-47216578D01*
X102308568Y-43913298D02*
X102282592Y-44009862D01*
X102282592Y-47216578D02*
X102264115Y-47118303D01*
X102282592Y-44009862D02*
X102264115Y-44108137D01*
X102264115Y-47118303D02*
X102253247Y-47018898D01*
X102264115Y-44108137D02*
X102253247Y-44207542D01*
X102253247Y-47018898D02*
X102250052Y-46918952D01*
X102253247Y-44207542D02*
X102250052Y-44307488D01*
X102250052Y-44307488D02*
X102250052Y-46918952D01*
X136499998Y-71668640D02*
X142212060Y-71668640D01*
X136500000Y-78706440D02*
X142240013Y-78706440D01*
X131500007Y-78706440D02*
X131599711Y-78698753D01*
X131500007Y-71668640D02*
X131599711Y-71676327D01*
X131599711Y-78698753D02*
X131698529Y-78683425D01*
X131599711Y-71676327D02*
X131698529Y-71691655D01*
X131698529Y-78683425D02*
X131795876Y-78660547D01*
X131698529Y-71691655D02*
X131795876Y-71714533D01*
X131795876Y-78660547D02*
X131891176Y-78630254D01*
X131795876Y-71714533D02*
X131891176Y-71744826D01*
X131891176Y-78630254D02*
X131983866Y-78592725D01*
X131891176Y-71744826D02*
X131983866Y-71782355D01*
X131983866Y-78592725D02*
X132073397Y-78548182D01*
X131983866Y-71782355D02*
X132073397Y-71826898D01*
X132073397Y-78548182D02*
X132159239Y-78496889D01*
X132073397Y-71826898D02*
X132159239Y-71878191D01*
X132159239Y-78496889D02*
X132240884Y-78439149D01*
X132159239Y-71878191D02*
X132240884Y-71935931D01*
X132240884Y-78439149D02*
X132317849Y-78375304D01*
X132240884Y-71935931D02*
X132317849Y-71999776D01*
X132317849Y-78375304D02*
X132389679Y-78305732D01*
X132317849Y-71999776D02*
X132389679Y-72069348D01*
X132389679Y-78305732D02*
X132455949Y-78230845D01*
X132389679Y-72069348D02*
X132455949Y-72144235D01*
X132455949Y-78230845D02*
X132516267Y-78151086D01*
X132455949Y-72144235D02*
X132516267Y-72223994D01*
X132516267Y-78151086D02*
X132570276Y-78066927D01*
X132516267Y-72223994D02*
X132570276Y-72308153D01*
X132570276Y-78066927D02*
X132617656Y-77978866D01*
X132570276Y-72308153D02*
X132617656Y-72396214D01*
X132617656Y-77978866D02*
X132658127Y-77887424D01*
X132617656Y-72396214D02*
X132658127Y-72487656D01*
X132658127Y-77887424D02*
X132691449Y-77793142D01*
X132658127Y-72487656D02*
X132691449Y-72581938D01*
X132691449Y-77793142D02*
X132717425Y-77696578D01*
X132691449Y-72581938D02*
X132717425Y-72678502D01*
X132717425Y-77696578D02*
X132735902Y-77598303D01*
X132717425Y-72678502D02*
X132735902Y-72776777D01*
X132735902Y-77598303D02*
X132746770Y-77498898D01*
X132735902Y-72776777D02*
X132746770Y-72876182D01*
X132746770Y-77498898D02*
X132749965Y-77398952D01*
X132746770Y-72876182D02*
X132749965Y-72976128D01*
X132749965Y-72976128D02*
X132749965Y-77398952D01*
X136500000Y-78706440D02*
X136400296Y-78698753D01*
X136499998Y-71668640D02*
X136400294Y-71676327D01*
X136400296Y-78698753D02*
X136301478Y-78683425D01*
X136400294Y-71676327D02*
X136301476Y-71691655D01*
X136301478Y-78683425D02*
X136204131Y-78660547D01*
X136301476Y-71691655D02*
X136204129Y-71714533D01*
X136204131Y-78660547D02*
X136108831Y-78630254D01*
X136204129Y-71714533D02*
X136108829Y-71744826D01*
X136108831Y-78630254D02*
X136016141Y-78592725D01*
X136108829Y-71744826D02*
X136016139Y-71782355D01*
X136016141Y-78592725D02*
X135926610Y-78548182D01*
X136016139Y-71782355D02*
X135926608Y-71826898D01*
X135926610Y-78548182D02*
X135840768Y-78496889D01*
X135926608Y-71826898D02*
X135840766Y-71878191D01*
X135840768Y-78496889D02*
X135759123Y-78439149D01*
X135840766Y-71878191D02*
X135759121Y-71935931D01*
X135759123Y-78439149D02*
X135682158Y-78375304D01*
X135759121Y-71935931D02*
X135682156Y-71999776D01*
X135682158Y-78375304D02*
X135610328Y-78305732D01*
X135682156Y-71999776D02*
X135610326Y-72069348D01*
X135610328Y-78305732D02*
X135544058Y-78230845D01*
X135610326Y-72069348D02*
X135544056Y-72144235D01*
X135544058Y-78230845D02*
X135483740Y-78151086D01*
X135544056Y-72144235D02*
X135483738Y-72223994D01*
X135483740Y-78151086D02*
X135429731Y-78066927D01*
X135483738Y-72223994D02*
X135429729Y-72308153D01*
X135429731Y-78066927D02*
X135382351Y-77978866D01*
X135429729Y-72308153D02*
X135382349Y-72396214D01*
X135382351Y-77978866D02*
X135341880Y-77887424D01*
X135382349Y-72396214D02*
X135341878Y-72487656D01*
X135341880Y-77887424D02*
X135308558Y-77793142D01*
X135341878Y-72487656D02*
X135308556Y-72581938D01*
X135308558Y-77793142D02*
X135282582Y-77696578D01*
X135308556Y-72581938D02*
X135282580Y-72678502D01*
X135282582Y-77696578D02*
X135264105Y-77598303D01*
X135282580Y-72678502D02*
X135264103Y-72776777D01*
X135264105Y-77598303D02*
X135253237Y-77498898D01*
X135264103Y-72776777D02*
X135253235Y-72876182D01*
X135253237Y-77498898D02*
X135250042Y-77398952D01*
X135253235Y-72876182D02*
X135250040Y-72976128D01*
X135250040Y-72976128D02*
X135250042Y-77398952D01*
X103500010Y-71668640D02*
X131500007Y-71668640D01*
X98500007Y-71668640D02*
X93952060Y-71668640D01*
X103500010Y-78706440D02*
X131500007Y-78706440D01*
X98500007Y-78706440D02*
X93952060Y-78706440D01*
X98500007Y-78706440D02*
X98599711Y-78698753D01*
X98500007Y-71668640D02*
X98599711Y-71676327D01*
X98599711Y-78698753D02*
X98698529Y-78683425D01*
X98599711Y-71676327D02*
X98698529Y-71691655D01*
X98698529Y-78683425D02*
X98795876Y-78660547D01*
X98698529Y-71691655D02*
X98795876Y-71714533D01*
X98795876Y-78660547D02*
X98891176Y-78630254D01*
X98795876Y-71714533D02*
X98891176Y-71744826D01*
X98891176Y-78630254D02*
X98983866Y-78592725D01*
X98891176Y-71744826D02*
X98983866Y-71782355D01*
X98983866Y-78592725D02*
X99073397Y-78548182D01*
X98983866Y-71782355D02*
X99073397Y-71826898D01*
X99073397Y-78548182D02*
X99159239Y-78496889D01*
X99073397Y-71826898D02*
X99159239Y-71878191D01*
X99159239Y-78496889D02*
X99240884Y-78439149D01*
X99159239Y-71878191D02*
X99240884Y-71935931D01*
X99240884Y-78439149D02*
X99317849Y-78375304D01*
X99240884Y-71935931D02*
X99317849Y-71999776D01*
X99317849Y-78375304D02*
X99389679Y-78305732D01*
X99317849Y-71999776D02*
X99389679Y-72069348D01*
X99389679Y-78305732D02*
X99455949Y-78230845D01*
X99389679Y-72069348D02*
X99455949Y-72144235D01*
X99455949Y-78230845D02*
X99516267Y-78151086D01*
X99455949Y-72144235D02*
X99516267Y-72223994D01*
X99516267Y-78151086D02*
X99570276Y-78066927D01*
X99516267Y-72223994D02*
X99570276Y-72308153D01*
X99570276Y-78066927D02*
X99617656Y-77978866D01*
X99570276Y-72308153D02*
X99617656Y-72396214D01*
X99617656Y-77978866D02*
X99658127Y-77887424D01*
X99617656Y-72396214D02*
X99658127Y-72487656D01*
X99658127Y-77887424D02*
X99691449Y-77793142D01*
X99658127Y-72487656D02*
X99691449Y-72581938D01*
X99691449Y-77793142D02*
X99717425Y-77696578D01*
X99691449Y-72581938D02*
X99717425Y-72678502D01*
X99717425Y-77696578D02*
X99735902Y-77598303D01*
X99717425Y-72678502D02*
X99735902Y-72776777D01*
X99735902Y-77598303D02*
X99746770Y-77498898D01*
X99735902Y-72776777D02*
X99746770Y-72876182D01*
X99746770Y-77498898D02*
X99749965Y-77398952D01*
X99746770Y-72876182D02*
X99749965Y-72976128D01*
X99749965Y-72976128D02*
X99749965Y-77398952D01*
X103500010Y-78706440D02*
X103400306Y-78698753D01*
X103500010Y-71668640D02*
X103400306Y-71676327D01*
X103400306Y-78698753D02*
X103301488Y-78683425D01*
X103400306Y-71676327D02*
X103301488Y-71691655D01*
X103301488Y-78683425D02*
X103204141Y-78660547D01*
X103301488Y-71691655D02*
X103204141Y-71714533D01*
X103204141Y-78660547D02*
X103108841Y-78630254D01*
X103204141Y-71714533D02*
X103108841Y-71744826D01*
X103108841Y-78630254D02*
X103016151Y-78592725D01*
X103108841Y-71744826D02*
X103016151Y-71782355D01*
X103016151Y-78592725D02*
X102926620Y-78548182D01*
X103016151Y-71782355D02*
X102926620Y-71826898D01*
X102926620Y-78548182D02*
X102840778Y-78496889D01*
X102926620Y-71826898D02*
X102840778Y-71878191D01*
X102840778Y-78496889D02*
X102759133Y-78439149D01*
X102840778Y-71878191D02*
X102759133Y-71935931D01*
X102759133Y-78439149D02*
X102682168Y-78375304D01*
X102759133Y-71935931D02*
X102682168Y-71999776D01*
X102682168Y-78375304D02*
X102610338Y-78305732D01*
X102682168Y-71999776D02*
X102610338Y-72069348D01*
X102610338Y-78305732D02*
X102544068Y-78230845D01*
X102610338Y-72069348D02*
X102544068Y-72144235D01*
X102544068Y-78230845D02*
X102483750Y-78151086D01*
X102544068Y-72144235D02*
X102483750Y-72223994D01*
X102483750Y-78151086D02*
X102429741Y-78066927D01*
X102483750Y-72223994D02*
X102429741Y-72308153D01*
X102429741Y-78066927D02*
X102382361Y-77978866D01*
X102429741Y-72308153D02*
X102382361Y-72396214D01*
X102382361Y-77978866D02*
X102341890Y-77887424D01*
X102382361Y-72396214D02*
X102341890Y-72487656D01*
X102341890Y-77887424D02*
X102308568Y-77793142D01*
X102341890Y-72487656D02*
X102308568Y-72581938D01*
X102308568Y-77793142D02*
X102282592Y-77696578D01*
X102308568Y-72581938D02*
X102282592Y-72678502D01*
X102282592Y-77696578D02*
X102264115Y-77598303D01*
X102282592Y-72678502D02*
X102264115Y-72776777D01*
X102264115Y-77598303D02*
X102253247Y-77498898D01*
X102264115Y-72776777D02*
X102253247Y-72876182D01*
X102253247Y-77498898D02*
X102250052Y-77398952D01*
X102253247Y-72876182D02*
X102250052Y-72976128D01*
X102250052Y-72976128D02*
X102250052Y-77398952D01*
X136499998Y-102148640D02*
X142212060Y-102148640D01*
X136500000Y-108678440D02*
X142240013Y-108678440D01*
X131500007Y-108678440D02*
X131599711Y-108670753D01*
X131500007Y-102148640D02*
X131599711Y-102156327D01*
X131599711Y-108670753D02*
X131698529Y-108655425D01*
X131599711Y-102156327D02*
X131698529Y-102171655D01*
X131698529Y-108655425D02*
X131795876Y-108632547D01*
X131698529Y-102171655D02*
X131795876Y-102194533D01*
X131795876Y-108632547D02*
X131891176Y-108602254D01*
X131795876Y-102194533D02*
X131891176Y-102224826D01*
X131891176Y-108602254D02*
X131983866Y-108564725D01*
X131891176Y-102224826D02*
X131983866Y-102262355D01*
X131983866Y-108564725D02*
X132073397Y-108520182D01*
X131983866Y-102262355D02*
X132073397Y-102306898D01*
X132073397Y-108520182D02*
X132159239Y-108468889D01*
X132073397Y-102306898D02*
X132159239Y-102358191D01*
X132159239Y-108468889D02*
X132240884Y-108411149D01*
X132159239Y-102358191D02*
X132240884Y-102415931D01*
X132240884Y-108411149D02*
X132317849Y-108347304D01*
X132240884Y-102415931D02*
X132317849Y-102479776D01*
X132317849Y-108347304D02*
X132389679Y-108277732D01*
X132317849Y-102479776D02*
X132389679Y-102549348D01*
X132389679Y-108277732D02*
X132455949Y-108202845D01*
X132389679Y-102549348D02*
X132455949Y-102624235D01*
X132455949Y-108202845D02*
X132516267Y-108123086D01*
X132455949Y-102624235D02*
X132516267Y-102703994D01*
X132516267Y-108123086D02*
X132570276Y-108038927D01*
X132516267Y-102703994D02*
X132570276Y-102788153D01*
X132570276Y-108038927D02*
X132617656Y-107950866D01*
X132570276Y-102788153D02*
X132617656Y-102876214D01*
X132617656Y-107950866D02*
X132658127Y-107859424D01*
X132617656Y-102876214D02*
X132658127Y-102967656D01*
X132658127Y-107859424D02*
X132691449Y-107765142D01*
X132658127Y-102967656D02*
X132691449Y-103061938D01*
X132691449Y-107765142D02*
X132717425Y-107668578D01*
X132691449Y-103061938D02*
X132717425Y-103158502D01*
X132717425Y-107668578D02*
X132735902Y-107570303D01*
X132717425Y-103158502D02*
X132735902Y-103256777D01*
X132735902Y-107570303D02*
X132746770Y-107470898D01*
X132735902Y-103256777D02*
X132746770Y-103356182D01*
X132746770Y-107470898D02*
X132749965Y-107370952D01*
X132746770Y-103356182D02*
X132749965Y-103456128D01*
X132749965Y-103456128D02*
X132749965Y-107370952D01*
X136500000Y-108678440D02*
X136400296Y-108670753D01*
X136499998Y-102148640D02*
X136400294Y-102156327D01*
X136400296Y-108670753D02*
X136301478Y-108655425D01*
X136400294Y-102156327D02*
X136301476Y-102171655D01*
X136301478Y-108655425D02*
X136204131Y-108632547D01*
X136301476Y-102171655D02*
X136204129Y-102194533D01*
X136204131Y-108632547D02*
X136108831Y-108602254D01*
X136204129Y-102194533D02*
X136108829Y-102224826D01*
X136108831Y-108602254D02*
X136016141Y-108564725D01*
X136108829Y-102224826D02*
X136016139Y-102262355D01*
X136016141Y-108564725D02*
X135926610Y-108520182D01*
X136016139Y-102262355D02*
X135926608Y-102306898D01*
X135926610Y-108520182D02*
X135840768Y-108468889D01*
X135926608Y-102306898D02*
X135840766Y-102358191D01*
X135840768Y-108468889D02*
X135759123Y-108411149D01*
X135840766Y-102358191D02*
X135759121Y-102415931D01*
X135759123Y-108411149D02*
X135682158Y-108347304D01*
X135759121Y-102415931D02*
X135682156Y-102479776D01*
X135682158Y-108347304D02*
X135610328Y-108277732D01*
X135682156Y-102479776D02*
X135610326Y-102549348D01*
X135610328Y-108277732D02*
X135544058Y-108202845D01*
X135610326Y-102549348D02*
X135544056Y-102624235D01*
X135544058Y-108202845D02*
X135483740Y-108123086D01*
X135544056Y-102624235D02*
X135483738Y-102703994D01*
X135483740Y-108123086D02*
X135429731Y-108038927D01*
X135483738Y-102703994D02*
X135429729Y-102788153D01*
X135429731Y-108038927D02*
X135382351Y-107950866D01*
X135429729Y-102788153D02*
X135382349Y-102876214D01*
X135382351Y-107950866D02*
X135341880Y-107859424D01*
X135382349Y-102876214D02*
X135341878Y-102967656D01*
X135341880Y-107859424D02*
X135308558Y-107765142D01*
X135341878Y-102967656D02*
X135308556Y-103061938D01*
X135308558Y-107765142D02*
X135282582Y-107668578D01*
X135308556Y-103061938D02*
X135282580Y-103158502D01*
X135282582Y-107668578D02*
X135264105Y-107570303D01*
X135282580Y-103158502D02*
X135264103Y-103256777D01*
X135264105Y-107570303D02*
X135253237Y-107470898D01*
X135264103Y-103256777D02*
X135253235Y-103356182D01*
X135253237Y-107470898D02*
X135250042Y-107370952D01*
X135253235Y-103356182D02*
X135250040Y-103456128D01*
X135250040Y-103456128D02*
X135250042Y-107370952D01*
X103500010Y-102148640D02*
X131500007Y-102148640D01*
X98500007Y-102148640D02*
X93952060Y-102148640D01*
X103500010Y-108678440D02*
X131500007Y-108678440D01*
X98500007Y-108678440D02*
X93952060Y-108678440D01*
X98500007Y-108678440D02*
X98599711Y-108670753D01*
X98500007Y-102148640D02*
X98599711Y-102156327D01*
X98599711Y-108670753D02*
X98698529Y-108655425D01*
X98599711Y-102156327D02*
X98698529Y-102171655D01*
X98698529Y-108655425D02*
X98795876Y-108632547D01*
X98698529Y-102171655D02*
X98795876Y-102194533D01*
X98795876Y-108632547D02*
X98891176Y-108602254D01*
X98795876Y-102194533D02*
X98891176Y-102224826D01*
X98891176Y-108602254D02*
X98983866Y-108564725D01*
X98891176Y-102224826D02*
X98983866Y-102262355D01*
X98983866Y-108564725D02*
X99073397Y-108520182D01*
X98983866Y-102262355D02*
X99073397Y-102306898D01*
X99073397Y-108520182D02*
X99159239Y-108468889D01*
X99073397Y-102306898D02*
X99159239Y-102358191D01*
X99159239Y-108468889D02*
X99240884Y-108411149D01*
X99159239Y-102358191D02*
X99240884Y-102415931D01*
X99240884Y-108411149D02*
X99317849Y-108347304D01*
X99240884Y-102415931D02*
X99317849Y-102479776D01*
X99317849Y-108347304D02*
X99389679Y-108277732D01*
X99317849Y-102479776D02*
X99389679Y-102549348D01*
X99389679Y-108277732D02*
X99455949Y-108202845D01*
X99389679Y-102549348D02*
X99455949Y-102624235D01*
X99455949Y-108202845D02*
X99516267Y-108123086D01*
X99455949Y-102624235D02*
X99516267Y-102703994D01*
X99516267Y-108123086D02*
X99570276Y-108038927D01*
X99516267Y-102703994D02*
X99570276Y-102788153D01*
X99570276Y-108038927D02*
X99617656Y-107950866D01*
X99570276Y-102788153D02*
X99617656Y-102876214D01*
X99617656Y-107950866D02*
X99658127Y-107859424D01*
X99617656Y-102876214D02*
X99658127Y-102967656D01*
X99658127Y-107859424D02*
X99691449Y-107765142D01*
X99658127Y-102967656D02*
X99691449Y-103061938D01*
X99691449Y-107765142D02*
X99717425Y-107668578D01*
X99691449Y-103061938D02*
X99717425Y-103158502D01*
X99717425Y-107668578D02*
X99735902Y-107570303D01*
X99717425Y-103158502D02*
X99735902Y-103256777D01*
X99735902Y-107570303D02*
X99746770Y-107470898D01*
X99735902Y-103256777D02*
X99746770Y-103356182D01*
X99746770Y-107470898D02*
X99749965Y-107370952D01*
X99746770Y-103356182D02*
X99749965Y-103456128D01*
X99749965Y-103456128D02*
X99749965Y-107370952D01*
X103500010Y-108678440D02*
X103400306Y-108670753D01*
X103500010Y-102148640D02*
X103400306Y-102156327D01*
X103400306Y-108670753D02*
X103301488Y-108655425D01*
X103400306Y-102156327D02*
X103301488Y-102171655D01*
X103301488Y-108655425D02*
X103204141Y-108632547D01*
X103301488Y-102171655D02*
X103204141Y-102194533D01*
X103204141Y-108632547D02*
X103108841Y-108602254D01*
X103204141Y-102194533D02*
X103108841Y-102224826D01*
X103108841Y-108602254D02*
X103016151Y-108564725D01*
X103108841Y-102224826D02*
X103016151Y-102262355D01*
X103016151Y-108564725D02*
X102926620Y-108520182D01*
X103016151Y-102262355D02*
X102926620Y-102306898D01*
X102926620Y-108520182D02*
X102840778Y-108468889D01*
X102926620Y-102306898D02*
X102840778Y-102358191D01*
X102840778Y-108468889D02*
X102759133Y-108411149D01*
X102840778Y-102358191D02*
X102759133Y-102415931D01*
X102759133Y-108411149D02*
X102682168Y-108347304D01*
X102759133Y-102415931D02*
X102682168Y-102479776D01*
X102682168Y-108347304D02*
X102610338Y-108277732D01*
X102682168Y-102479776D02*
X102610338Y-102549348D01*
X102610338Y-108277732D02*
X102544068Y-108202845D01*
X102610338Y-102549348D02*
X102544068Y-102624235D01*
X102544068Y-108202845D02*
X102483750Y-108123086D01*
X102544068Y-102624235D02*
X102483750Y-102703994D01*
X102483750Y-108123086D02*
X102429741Y-108038927D01*
X102483750Y-102703994D02*
X102429741Y-102788153D01*
X102429741Y-108038927D02*
X102382361Y-107950866D01*
X102429741Y-102788153D02*
X102382361Y-102876214D01*
X102382361Y-107950866D02*
X102341890Y-107859424D01*
X102382361Y-102876214D02*
X102341890Y-102967656D01*
X102341890Y-107859424D02*
X102308568Y-107765142D01*
X102341890Y-102967656D02*
X102308568Y-103061938D01*
X102308568Y-107765142D02*
X102282592Y-107668578D01*
X102308568Y-103061938D02*
X102282592Y-103158502D01*
X102282592Y-107668578D02*
X102264115Y-107570303D01*
X102282592Y-103158502D02*
X102264115Y-103256777D01*
X102264115Y-107570303D02*
X102253247Y-107470898D01*
X102264115Y-103256777D02*
X102253247Y-103356182D01*
X102253247Y-107470898D02*
X102250052Y-107370952D01*
X102253247Y-103356182D02*
X102250052Y-103456128D01*
X102250052Y-103456128D02*
X102250052Y-107370952D01*
M02*
